M48
; DRILL file KiCad 10.0.5 date 2026-09-20T17:08:14
; FORMAT={-:-/ absolute / metric / decimal}
; #@! TF.CreationDate,2026-09-20T17:08:14+08:00
; #@! TF.GenerationSoftware,Kicad,Pcbnew,10.0.5
; #@! TF.FileFunction,Plated,1,4,PTH
FMAT,2
METRIC
; #@! TA.AperFunction,Plated,PTH,ViaDrill
T1C0.200
; #@! TA.AperFunction,Plated,PTH,ComponentDrill
T2C0.200
; #@! TA.AperFunction,Plated,PTH,ViaDrill
T3C0.250
; #@! TA.AperFunction,Plated,PTH,ViaDrill
T4C0.300
; #@! TA.AperFunction,Plated,PTH,ViaDrill
T5C0.400
; #@! TA.AperFunction,Plated,PTH,ComponentDrill
T6C0.600
%
G90
G05
T1
X0.9Y-39.9
X3.8Y-45.0
X9.3Y-45.8
X10.3Y-40.0
X12.62Y-22.78
X13.348Y-38.776
X13.4Y-22.5
X13.4Y-43.7
X14.9Y-45.9
X15.55Y-45.8
X19.8Y-54.7
X22.2Y-73.0
X22.3Y-74.5
X22.9Y-32.0
X24.3Y-72.0
X25.2Y-64.6
X26.4Y-72.1
X26.4Y-72.7
X26.8Y-63.0
X29.2Y-59.2
X29.5Y-68.675
X29.8Y-71.1
X30.0Y-61.5
X30.1Y-64.2
X30.9Y-61.5
X31.3Y-69.7
X31.3Y-70.5
X33.8Y-45.0
X35.7Y-36.6
X46.9Y-54.2
T2
X24.6Y-14.51
X24.6Y-15.91
X25.3Y-13.81
X25.3Y-15.21
X25.3Y-16.61
X26.0Y-14.51
X26.0Y-15.91
X26.7Y-13.81
X26.7Y-15.21
X26.7Y-16.61
X27.4Y-14.51
X27.4Y-15.91
X32.9Y-58.9
X32.9Y-60.0
X32.9Y-61.1
X34.0Y-58.9
X34.0Y-60.0
X34.0Y-61.1
X35.1Y-58.9
X35.1Y-60.0
X35.1Y-61.1
T3
X26.497Y-61.778
X34.75Y-53.05
T4
X0.7Y-36.2
X0.7Y-39.2
X0.7Y-40.6
X0.7Y-41.4
X0.8Y-44.3
X1.5Y-1.5
X1.5Y-8.428
X1.5Y-15.356
X1.5Y-22.284
X1.5Y-29.212
X1.5Y-49.996
X1.5Y-56.924
X1.5Y-63.852
X1.5Y-70.78
X1.5Y-77.708
X3.4Y-37.2
X3.4Y-42.2
X3.5Y-4.964
X3.5Y-11.892
X3.5Y-18.82
X3.5Y-25.748
X3.5Y-32.676
X3.5Y-53.46
X3.5Y-60.388
X3.5Y-67.316
X4.0Y-41.6
X4.2Y-46.5
X4.7Y-44.9
X5.5Y-1.5
X5.5Y-8.428
X5.5Y-15.356
X5.5Y-22.284
X5.5Y-29.212
X5.5Y-56.924
X5.5Y-70.78
X5.5Y-77.708
X7.5Y-4.964
X7.5Y-11.892
X7.5Y-18.82
X7.5Y-25.748
X7.5Y-32.676
X7.5Y-44.3
X7.5Y-60.388
X7.5Y-67.316
X7.5Y-81.172
X8.2Y-40.1
X8.4Y-63.5
X8.4Y-73.5
X9.5Y-1.5
X9.5Y-8.428
X9.5Y-22.284
X9.5Y-29.212
X9.5Y-36.14
X9.5Y-56.924
X9.5Y-63.852
X9.5Y-77.708
X10.0Y-7.9
X10.0Y-10.7
X11.5Y-4.964
X11.5Y-25.748
X11.5Y-67.316
X11.5Y-74.244
X11.5Y-81.172
X12.0Y-37.2
X13.3Y-17.5
X13.5Y-1.5
X13.5Y-56.924
X13.5Y-60.9
X13.5Y-70.78
X13.5Y-77.708
X13.69Y-49.55
X14.0Y-15.4
X14.99Y-10.49
X15.0Y-7.1
X15.4Y-61.8
X15.5Y-4.964
X15.5Y-18.82
X15.5Y-60.388
X15.5Y-67.316
X15.9Y-63.6
X16.0Y-40.2
X16.3Y-38.7
X16.4Y-51.1
X16.6Y-13.4
X17.0Y-37.9
X17.5Y-15.356
X17.5Y-56.924
X17.5Y-81.5
X17.6Y-24.7
X18.0Y-16.4
X18.0Y-61.4
X18.2Y-17.6
X18.6Y-64.2
X18.8Y-6.5
X18.8Y-10.3
X18.8Y-14.1
X18.8Y-15.4
X18.8Y-21.8
X18.9Y-54.5
X19.0Y-51.6
X19.5Y-67.316
X19.7Y-44.5
X19.7Y-45.3
X19.71Y-64.82
X20.5Y-13.8
X20.5Y-21.2
X20.7Y-63.0
X20.8Y-48.8
X21.1Y-22.7
X21.5Y-8.428
X21.6Y-76.8
X22.0Y-46.4
X22.2Y-75.6
X23.5Y-81.172
X23.8Y-11.7
X24.1Y-64.4
X24.3Y-26.0
X24.4Y-49.6
X25.1Y-28.0
X25.1Y-51.4
X25.2Y-62.5
X25.5Y-8.428
X25.5Y-59.0
X25.8Y-70.1
X26.0Y-50.5
X26.0Y-59.6
X26.6Y-57.8
X26.9Y-26.0
X26.9Y-46.1
X26.908Y-66.791
X27.5Y-81.172
X27.9Y-69.1
X28.1Y-55.6
X28.1Y-65.5
X28.7Y-44.3
X28.8Y-62.3
X29.0Y-47.1
X29.3Y-61.1
X29.4Y-26.0
X29.4Y-55.9
X29.5Y-8.428
X29.5Y-77.708
X29.9Y-45.7
X30.0Y-44.3
X30.7Y-26.0
X30.8Y-57.3
X30.875Y-45.012
X31.0Y-63.5
X31.1Y-59.7
X31.2Y-33.9
X31.2Y-60.9
X31.4Y-46.3
X31.5Y-81.172
X31.8Y-26.0
X31.9Y-42.1
X32.0Y-45.8
X32.0Y-54.6
X32.0Y-77.2
X32.4Y-27.7
X32.4Y-42.7
X32.5Y-43.5
X32.6Y-57.2
X32.9Y-29.5
X33.1Y-63.6
X33.175Y-82.125
X33.2Y-78.9
X33.471Y-60.471
X33.5Y-8.428
X33.6Y-64.2
X34.1Y-63.6
X34.2Y-65.6
X34.2Y-66.9
X34.2Y-71.8
X34.525Y-39.8
X34.9Y-11.6
X34.9Y-63.6
X35.2Y-51.1
X35.438Y-53.6
X35.5Y-81.172
X35.6Y-38.3
X36.2Y-6.5
X36.2Y-9.1
X36.7Y-53.5
X36.776Y-58.244
X36.8Y-10.3
X37.4Y-62.6
X37.5Y-8.428
X37.5Y-77.708
X37.6Y-11.6
X37.975Y-48.873
X38.7Y-54.6
X39.4Y-54.0
X39.45Y-64.249
X39.5Y-4.964
X39.5Y-81.172
X40.4Y-66.9
X40.9Y-41.3
X41.5Y-1.5
X41.5Y-8.428
X41.5Y-77.708
X42.0Y-70.2
X42.8Y-70.2
X43.4Y-49.8
X43.4Y-65.6
X43.4Y-69.7
X43.5Y-4.964
X43.5Y-11.892
X43.5Y-81.172
X43.8Y-44.3
X44.9Y-62.6
X45.5Y-1.5
X45.5Y-8.428
X45.5Y-49.996
X45.5Y-70.78
X45.5Y-77.708
X46.7Y-51.5
X47.5Y-4.964
X47.5Y-11.892
X47.5Y-46.532
X47.5Y-74.244
X47.5Y-81.172
X48.5Y-13.2
X49.5Y-1.5
X49.5Y-8.428
X49.5Y-49.996
X49.5Y-70.78
X49.5Y-77.708
X51.5Y-4.964
X51.5Y-11.892
X51.5Y-18.82
X51.5Y-25.748
X51.5Y-32.676
X51.5Y-39.604
X51.5Y-46.532
X51.5Y-74.244
X52.0Y-43.7
X52.8Y-12.4
X52.8Y-41.2
X52.8Y-70.3
X53.5Y-1.5
X53.5Y-8.428
X53.5Y-15.356
X53.5Y-22.284
X53.5Y-29.212
X53.5Y-36.14
X53.5Y-49.996
X53.5Y-56.924
X53.5Y-63.852
X53.5Y-77.708
T5
X3.6Y-40.2
X8.9Y-42.1
X11.7Y-18.2
X12.1Y-11.9
X12.6Y-47.8
X14.0Y-13.1
X15.4Y-48.4
X15.5Y-79.1
X16.2Y-77.0
X16.4Y-60.7
X16.5Y-46.4
X17.2Y-39.3
X17.3Y-8.8
X17.8Y-43.0
X20.7Y-27.2
X21.9Y-44.5
X22.5Y-70.0
X22.8Y-44.3
X25.2Y-60.9
X26.0Y-44.5
X26.1Y-48.2
X26.6Y-76.5
X28.9Y-64.5
X28.9Y-66.7
X30.2Y-60.7
X30.8Y-76.1
X30.9Y-80.0
X31.9Y-67.3
X32.4Y-65.0
X33.1Y-48.5
X34.2Y-69.0
X34.3Y-47.3
X37.2Y-65.2
X37.2Y-68.7
X37.6Y-40.9
X37.7Y-13.0
X41.0Y-59.8
X41.1Y-45.7
T6
X19.68Y-77.675G85X19.68Y-78.775
G05
X19.68Y-82.005G85X19.68Y-82.805
G05
X28.32Y-77.675G85X28.32Y-78.775
G05
X28.32Y-82.005G85X28.32Y-82.805
G05
M30
