%TF.GenerationSoftware,KiCad,Pcbnew,10.0.5*%
%TF.CreationDate,2026-09-20T17:08:13+08:00*%
%TF.ProjectId,esp32-board-v1.1,65737033-322d-4626-9f61-72642d76312e,V1.6*%
%TF.SameCoordinates,Original*%
%TF.FileFunction,Soldermask,Bot*%
%TF.FilePolarity,Negative*%
%FSLAX46Y46*%
G04 Gerber Fmt 4.6, Leading zero omitted, Abs format (unit mm)*
G04 Created by KiCad (PCBNEW 10.0.5) date 2026-09-20 17:08:13*
%MOMM*%
%LPD*%
G01*
G04 APERTURE LIST*
G04 APERTURE END LIST*
G36*
X19871342Y-81543060D02*
G01*
X19984381Y-81608323D01*
X20076677Y-81700619D01*
X20141940Y-81813658D01*
X20175722Y-81939737D01*
X20180000Y-82005000D01*
X20180000Y-82805000D01*
X20175722Y-82870263D01*
X20141940Y-82996342D01*
X20076677Y-83109381D01*
X19984381Y-83201677D01*
X19871342Y-83266940D01*
X19745263Y-83300722D01*
X19614737Y-83300722D01*
X19488658Y-83266940D01*
X19375619Y-83201677D01*
X19283323Y-83109381D01*
X19218060Y-82996342D01*
X19184278Y-82870263D01*
X19180000Y-82805000D01*
X19180000Y-82005000D01*
X19184278Y-81939737D01*
X19218060Y-81813658D01*
X19283323Y-81700619D01*
X19375619Y-81608323D01*
X19488658Y-81543060D01*
X19614737Y-81509278D01*
X19745263Y-81509278D01*
X19871342Y-81543060D01*
G37*
G36*
X28511342Y-81543060D02*
G01*
X28624381Y-81608323D01*
X28716677Y-81700619D01*
X28781940Y-81813658D01*
X28815722Y-81939737D01*
X28820000Y-82005000D01*
X28820000Y-82805000D01*
X28815722Y-82870263D01*
X28781940Y-82996342D01*
X28716677Y-83109381D01*
X28624381Y-83201677D01*
X28511342Y-83266940D01*
X28385263Y-83300722D01*
X28254737Y-83300722D01*
X28128658Y-83266940D01*
X28015619Y-83201677D01*
X27923323Y-83109381D01*
X27858060Y-82996342D01*
X27824278Y-82870263D01*
X27820000Y-82805000D01*
X27820000Y-82005000D01*
X27824278Y-81939737D01*
X27858060Y-81813658D01*
X27923323Y-81700619D01*
X28015619Y-81608323D01*
X28128658Y-81543060D01*
X28254737Y-81509278D01*
X28385263Y-81509278D01*
X28511342Y-81543060D01*
G37*
G36*
X3256790Y-79930393D02*
G01*
X3420952Y-79983733D01*
X3574748Y-80062096D01*
X3714393Y-80163553D01*
X3836447Y-80285607D01*
X3937904Y-80425252D01*
X4016267Y-80579048D01*
X4069607Y-80743210D01*
X4096609Y-80913695D01*
X4096609Y-81086305D01*
X4069607Y-81256790D01*
X4016267Y-81420952D01*
X3937904Y-81574748D01*
X3836447Y-81714393D01*
X3714393Y-81836447D01*
X3574748Y-81937904D01*
X3420952Y-82016267D01*
X3256790Y-82069607D01*
X3086305Y-82096609D01*
X2913695Y-82096609D01*
X2743210Y-82069607D01*
X2579048Y-82016267D01*
X2425252Y-81937904D01*
X2285607Y-81836447D01*
X2163553Y-81714393D01*
X2062096Y-81574748D01*
X1983733Y-81420952D01*
X1930393Y-81256790D01*
X1903391Y-81086305D01*
X1903391Y-80913695D01*
X1930393Y-80743210D01*
X1983733Y-80579048D01*
X2062096Y-80425252D01*
X2163553Y-80285607D01*
X2285607Y-80163553D01*
X2425252Y-80062096D01*
X2579048Y-79983733D01*
X2743210Y-79930393D01*
X2913695Y-79903391D01*
X3086305Y-79903391D01*
X3256790Y-79930393D01*
G37*
G36*
X52256790Y-79930393D02*
G01*
X52420952Y-79983733D01*
X52574748Y-80062096D01*
X52714393Y-80163553D01*
X52836447Y-80285607D01*
X52937904Y-80425252D01*
X53016267Y-80579048D01*
X53069607Y-80743210D01*
X53096609Y-80913695D01*
X53096609Y-81086305D01*
X53069607Y-81256790D01*
X53016267Y-81420952D01*
X52937904Y-81574748D01*
X52836447Y-81714393D01*
X52714393Y-81836447D01*
X52574748Y-81937904D01*
X52420952Y-82016267D01*
X52256790Y-82069607D01*
X52086305Y-82096609D01*
X51913695Y-82096609D01*
X51743210Y-82069607D01*
X51579048Y-82016267D01*
X51425252Y-81937904D01*
X51285607Y-81836447D01*
X51163553Y-81714393D01*
X51062096Y-81574748D01*
X50983733Y-81420952D01*
X50930393Y-81256790D01*
X50903391Y-81086305D01*
X50903391Y-80913695D01*
X50930393Y-80743210D01*
X50983733Y-80579048D01*
X51062096Y-80425252D01*
X51163553Y-80285607D01*
X51285607Y-80163553D01*
X51425252Y-80062096D01*
X51579048Y-79983733D01*
X51743210Y-79930393D01*
X51913695Y-79903391D01*
X52086305Y-79903391D01*
X52256790Y-79930393D01*
G37*
G36*
X19871342Y-77213060D02*
G01*
X19984381Y-77278323D01*
X20076677Y-77370619D01*
X20141940Y-77483658D01*
X20175722Y-77609737D01*
X20180000Y-77675000D01*
X20180000Y-78775000D01*
X20175722Y-78840263D01*
X20141940Y-78966342D01*
X20076677Y-79079381D01*
X19984381Y-79171677D01*
X19871342Y-79236940D01*
X19745263Y-79270722D01*
X19614737Y-79270722D01*
X19488658Y-79236940D01*
X19375619Y-79171677D01*
X19283323Y-79079381D01*
X19218060Y-78966342D01*
X19184278Y-78840263D01*
X19180000Y-78775000D01*
X19180000Y-77675000D01*
X19184278Y-77609737D01*
X19218060Y-77483658D01*
X19283323Y-77370619D01*
X19375619Y-77278323D01*
X19488658Y-77213060D01*
X19614737Y-77179278D01*
X19745263Y-77179278D01*
X19871342Y-77213060D01*
G37*
G36*
X28511342Y-77213060D02*
G01*
X28624381Y-77278323D01*
X28716677Y-77370619D01*
X28781940Y-77483658D01*
X28815722Y-77609737D01*
X28820000Y-77675000D01*
X28820000Y-78775000D01*
X28815722Y-78840263D01*
X28781940Y-78966342D01*
X28716677Y-79079381D01*
X28624381Y-79171677D01*
X28511342Y-79236940D01*
X28385263Y-79270722D01*
X28254737Y-79270722D01*
X28128658Y-79236940D01*
X28015619Y-79171677D01*
X27923323Y-79079381D01*
X27858060Y-78966342D01*
X27824278Y-78840263D01*
X27820000Y-78775000D01*
X27820000Y-77675000D01*
X27824278Y-77609737D01*
X27858060Y-77483658D01*
X27923323Y-77370619D01*
X28015619Y-77278323D01*
X28128658Y-77213060D01*
X28254737Y-77179278D01*
X28385263Y-77179278D01*
X28511342Y-77213060D01*
G37*
G36*
X21234372Y-78424739D02*
G01*
X21307847Y-78467160D01*
X21367840Y-78527153D01*
X21410261Y-78600628D01*
X21432220Y-78682579D01*
X21432220Y-78767421D01*
X21410261Y-78849372D01*
X21367840Y-78922847D01*
X21307847Y-78982840D01*
X21234372Y-79025261D01*
X21152421Y-79047220D01*
X21067579Y-79047220D01*
X20985628Y-79025261D01*
X20912153Y-78982840D01*
X20852160Y-78922847D01*
X20809739Y-78849372D01*
X20787780Y-78767421D01*
X20787780Y-78682579D01*
X20809739Y-78600628D01*
X20852160Y-78527153D01*
X20912153Y-78467160D01*
X20985628Y-78424739D01*
X21067579Y-78402780D01*
X21152421Y-78402780D01*
X21234372Y-78424739D01*
G37*
G36*
X27014372Y-78424739D02*
G01*
X27087847Y-78467160D01*
X27147840Y-78527153D01*
X27190261Y-78600628D01*
X27212220Y-78682579D01*
X27212220Y-78767421D01*
X27190261Y-78849372D01*
X27147840Y-78922847D01*
X27087847Y-78982840D01*
X27014372Y-79025261D01*
X26932421Y-79047220D01*
X26847579Y-79047220D01*
X26765628Y-79025261D01*
X26692153Y-78982840D01*
X26632160Y-78922847D01*
X26589739Y-78849372D01*
X26567780Y-78767421D01*
X26567780Y-78682579D01*
X26589739Y-78600628D01*
X26632160Y-78527153D01*
X26692153Y-78467160D01*
X26765628Y-78424739D01*
X26847579Y-78402780D01*
X26932421Y-78402780D01*
X27014372Y-78424739D01*
G37*
G36*
X3256790Y-1930393D02*
G01*
X3420952Y-1983733D01*
X3574748Y-2062096D01*
X3714393Y-2163553D01*
X3836447Y-2285607D01*
X3937904Y-2425252D01*
X4016267Y-2579048D01*
X4069607Y-2743210D01*
X4096609Y-2913695D01*
X4096609Y-3086305D01*
X4069607Y-3256790D01*
X4016267Y-3420952D01*
X3937904Y-3574748D01*
X3836447Y-3714393D01*
X3714393Y-3836447D01*
X3574748Y-3937904D01*
X3420952Y-4016267D01*
X3256790Y-4069607D01*
X3086305Y-4096609D01*
X2913695Y-4096609D01*
X2743210Y-4069607D01*
X2579048Y-4016267D01*
X2425252Y-3937904D01*
X2285607Y-3836447D01*
X2163553Y-3714393D01*
X2062096Y-3574748D01*
X1983733Y-3420952D01*
X1930393Y-3256790D01*
X1903391Y-3086305D01*
X1903391Y-2913695D01*
X1930393Y-2743210D01*
X1983733Y-2579048D01*
X2062096Y-2425252D01*
X2163553Y-2285607D01*
X2285607Y-2163553D01*
X2425252Y-2062096D01*
X2579048Y-1983733D01*
X2743210Y-1930393D01*
X2913695Y-1903391D01*
X3086305Y-1903391D01*
X3256790Y-1930393D01*
G37*
G36*
X52256790Y-1930393D02*
G01*
X52420952Y-1983733D01*
X52574748Y-2062096D01*
X52714393Y-2163553D01*
X52836447Y-2285607D01*
X52937904Y-2425252D01*
X53016267Y-2579048D01*
X53069607Y-2743210D01*
X53096609Y-2913695D01*
X53096609Y-3086305D01*
X53069607Y-3256790D01*
X53016267Y-3420952D01*
X52937904Y-3574748D01*
X52836447Y-3714393D01*
X52714393Y-3836447D01*
X52574748Y-3937904D01*
X52420952Y-4016267D01*
X52256790Y-4069607D01*
X52086305Y-4096609D01*
X51913695Y-4096609D01*
X51743210Y-4069607D01*
X51579048Y-4016267D01*
X51425252Y-3937904D01*
X51285607Y-3836447D01*
X51163553Y-3714393D01*
X51062096Y-3574748D01*
X50983733Y-3420952D01*
X50930393Y-3256790D01*
X50903391Y-3086305D01*
X50903391Y-2913695D01*
X50930393Y-2743210D01*
X50983733Y-2579048D01*
X51062096Y-2425252D01*
X51163553Y-2285607D01*
X51285607Y-2163553D01*
X51425252Y-2062096D01*
X51579048Y-1983733D01*
X51743210Y-1930393D01*
X51913695Y-1903391D01*
X52086305Y-1903391D01*
X52256790Y-1930393D01*
G37*
M02*
