%TF.GenerationSoftware,KiCad,Pcbnew,10.0.5*%
%TF.CreationDate,2026-09-20T17:08:13+08:00*%
%TF.ProjectId,esp32-board-v1.1,65737033-322d-4626-9f61-72642d76312e,V1.6*%
%TF.SameCoordinates,Original*%
%TF.FileFunction,OtherDrawing,Comment*%
%FSLAX46Y46*%
G04 Gerber Fmt 4.6, Leading zero omitted, Abs format (unit mm)*
G04 Created by KiCad (PCBNEW 10.0.5) date 2026-09-20 17:08:13*
%MOMM*%
%LPD*%
G01*
G04 APERTURE LIST*
%ADD10C,0.250000*%
%ADD11C,0.180000*%
%ADD12C,0.240000*%
%ADD13C,0.100000*%
G04 APERTURE END LIST*
D10*
X49000000Y0D02*
X51750000Y0D01*
X52750000Y0D02*
X55000000Y0D01*
X49000000Y-84000000D02*
X49000000Y-81250000D01*
X49000000Y-80250000D02*
X49000000Y-77500000D01*
X49000000Y-76500000D02*
X49000000Y-73750000D01*
X49000000Y-72750000D02*
X49000000Y-70000000D01*
X49000000Y-69000000D02*
X49000000Y-66250000D01*
X49000000Y-65250000D02*
X49000000Y-62500000D01*
X49000000Y-61500000D02*
X49000000Y-58750000D01*
X49000000Y-57750000D02*
X49000000Y-55000000D01*
X49000000Y-54000000D02*
X49000000Y-51250000D01*
X49000000Y-50250000D02*
X49000000Y-47500000D01*
X49000000Y-46500000D02*
X49000000Y-43750000D01*
X49000000Y-42750000D02*
X49000000Y-40000000D01*
X49000000Y-39000000D02*
X49000000Y-36250000D01*
X49000000Y-35250000D02*
X49000000Y-32500000D01*
X49000000Y-31500000D02*
X49000000Y-28750000D01*
X49000000Y-27750000D02*
X49000000Y-25000000D01*
X49000000Y-24000000D02*
X49000000Y-21250000D01*
X49000000Y-20250000D02*
X49000000Y-17500000D01*
X49000000Y-16500000D02*
X49000000Y-13750000D01*
X49000000Y-12750000D02*
X49000000Y-10000000D01*
X49000000Y-9000000D02*
X49000000Y-6250000D01*
X49000000Y-5250000D02*
X49000000Y-2500000D01*
X49000000Y-1500000D02*
X49000000Y0D01*
X55000000Y0D02*
X55000000Y-2750000D01*
X55000000Y-3750000D02*
X55000000Y-6500000D01*
X55000000Y-7500000D02*
X55000000Y-10250000D01*
X55000000Y-11250000D02*
X55000000Y-14000000D01*
X55000000Y-15000000D02*
X55000000Y-17750000D01*
X55000000Y-18750000D02*
X55000000Y-21500000D01*
X55000000Y-22500000D02*
X55000000Y-25250000D01*
X55000000Y-26250000D02*
X55000000Y-29000000D01*
X55000000Y-30000000D02*
X55000000Y-32750000D01*
X55000000Y-33750000D02*
X55000000Y-36500000D01*
X55000000Y-37500000D02*
X55000000Y-40250000D01*
X55000000Y-41250000D02*
X55000000Y-44000000D01*
X55000000Y-45000000D02*
X55000000Y-47750000D01*
X55000000Y-48750000D02*
X55000000Y-51500000D01*
X55000000Y-52500000D02*
X55000000Y-55250000D01*
X55000000Y-56250000D02*
X55000000Y-59000000D01*
X55000000Y-60000000D02*
X55000000Y-62750000D01*
X55000000Y-63750000D02*
X55000000Y-66500000D01*
X55000000Y-67500000D02*
X55000000Y-70250000D01*
X55000000Y-71250000D02*
X55000000Y-74000000D01*
X55000000Y-75000000D02*
X55000000Y-77750000D01*
X55000000Y-78750000D02*
X55000000Y-81500000D01*
X55000000Y-82500000D02*
X55000000Y-84000000D01*
X55000000Y-84000000D02*
X52250000Y-84000000D01*
X51250000Y-84000000D02*
X49000000Y-84000000D01*
D11*
X10907144Y-2006997D02*
X10907144Y-1106997D01*
X10907144Y-1106997D02*
X11207144Y-1749854D01*
X11207144Y-1749854D02*
X11507144Y-1106997D01*
X11507144Y-1106997D02*
X11507144Y-2006997D01*
X12107144Y-1106997D02*
X12278572Y-1106997D01*
X12278572Y-1106997D02*
X12364287Y-1149854D01*
X12364287Y-1149854D02*
X12450001Y-1235568D01*
X12450001Y-1235568D02*
X12492858Y-1406997D01*
X12492858Y-1406997D02*
X12492858Y-1706997D01*
X12492858Y-1706997D02*
X12450001Y-1878425D01*
X12450001Y-1878425D02*
X12364287Y-1964140D01*
X12364287Y-1964140D02*
X12278572Y-2006997D01*
X12278572Y-2006997D02*
X12107144Y-2006997D01*
X12107144Y-2006997D02*
X12021430Y-1964140D01*
X12021430Y-1964140D02*
X11935715Y-1878425D01*
X11935715Y-1878425D02*
X11892858Y-1706997D01*
X11892858Y-1706997D02*
X11892858Y-1406997D01*
X11892858Y-1406997D02*
X11935715Y-1235568D01*
X11935715Y-1235568D02*
X12021430Y-1149854D01*
X12021430Y-1149854D02*
X12107144Y-1106997D01*
X12878572Y-1106997D02*
X12878572Y-1835568D01*
X12878572Y-1835568D02*
X12921429Y-1921282D01*
X12921429Y-1921282D02*
X12964287Y-1964140D01*
X12964287Y-1964140D02*
X13050001Y-2006997D01*
X13050001Y-2006997D02*
X13221429Y-2006997D01*
X13221429Y-2006997D02*
X13307144Y-1964140D01*
X13307144Y-1964140D02*
X13350001Y-1921282D01*
X13350001Y-1921282D02*
X13392858Y-1835568D01*
X13392858Y-1835568D02*
X13392858Y-1106997D01*
X13821429Y-2006997D02*
X13821429Y-1106997D01*
X13821429Y-1106997D02*
X14335715Y-2006997D01*
X14335715Y-2006997D02*
X14335715Y-1106997D01*
X14635715Y-1106997D02*
X15150001Y-1106997D01*
X14892858Y-2006997D02*
X14892858Y-1106997D01*
X15450000Y-2006997D02*
X15450000Y-1106997D01*
X15878571Y-2006997D02*
X15878571Y-1106997D01*
X15878571Y-1106997D02*
X16392857Y-2006997D01*
X16392857Y-2006997D02*
X16392857Y-1106997D01*
X17292857Y-1149854D02*
X17207143Y-1106997D01*
X17207143Y-1106997D02*
X17078571Y-1106997D01*
X17078571Y-1106997D02*
X16950000Y-1149854D01*
X16950000Y-1149854D02*
X16864285Y-1235568D01*
X16864285Y-1235568D02*
X16821428Y-1321282D01*
X16821428Y-1321282D02*
X16778571Y-1492711D01*
X16778571Y-1492711D02*
X16778571Y-1621282D01*
X16778571Y-1621282D02*
X16821428Y-1792711D01*
X16821428Y-1792711D02*
X16864285Y-1878425D01*
X16864285Y-1878425D02*
X16950000Y-1964140D01*
X16950000Y-1964140D02*
X17078571Y-2006997D01*
X17078571Y-2006997D02*
X17164285Y-2006997D01*
X17164285Y-2006997D02*
X17292857Y-1964140D01*
X17292857Y-1964140D02*
X17335714Y-1921282D01*
X17335714Y-1921282D02*
X17335714Y-1621282D01*
X17335714Y-1621282D02*
X17164285Y-1621282D01*
X18407142Y-2006997D02*
X18407142Y-1106997D01*
X18407142Y-1535568D02*
X18921428Y-1535568D01*
X18921428Y-2006997D02*
X18921428Y-1106997D01*
X19521428Y-1106997D02*
X19692856Y-1106997D01*
X19692856Y-1106997D02*
X19778571Y-1149854D01*
X19778571Y-1149854D02*
X19864285Y-1235568D01*
X19864285Y-1235568D02*
X19907142Y-1406997D01*
X19907142Y-1406997D02*
X19907142Y-1706997D01*
X19907142Y-1706997D02*
X19864285Y-1878425D01*
X19864285Y-1878425D02*
X19778571Y-1964140D01*
X19778571Y-1964140D02*
X19692856Y-2006997D01*
X19692856Y-2006997D02*
X19521428Y-2006997D01*
X19521428Y-2006997D02*
X19435714Y-1964140D01*
X19435714Y-1964140D02*
X19349999Y-1878425D01*
X19349999Y-1878425D02*
X19307142Y-1706997D01*
X19307142Y-1706997D02*
X19307142Y-1406997D01*
X19307142Y-1406997D02*
X19349999Y-1235568D01*
X19349999Y-1235568D02*
X19435714Y-1149854D01*
X19435714Y-1149854D02*
X19521428Y-1106997D01*
X20721428Y-2006997D02*
X20292856Y-2006997D01*
X20292856Y-2006997D02*
X20292856Y-1106997D01*
X21021427Y-1535568D02*
X21321427Y-1535568D01*
X21449999Y-2006997D02*
X21021427Y-2006997D01*
X21021427Y-2006997D02*
X21021427Y-1106997D01*
X21021427Y-1106997D02*
X21449999Y-1106997D01*
X21792856Y-1964140D02*
X21921428Y-2006997D01*
X21921428Y-2006997D02*
X22135713Y-2006997D01*
X22135713Y-2006997D02*
X22221428Y-1964140D01*
X22221428Y-1964140D02*
X22264285Y-1921282D01*
X22264285Y-1921282D02*
X22307142Y-1835568D01*
X22307142Y-1835568D02*
X22307142Y-1749854D01*
X22307142Y-1749854D02*
X22264285Y-1664140D01*
X22264285Y-1664140D02*
X22221428Y-1621282D01*
X22221428Y-1621282D02*
X22135713Y-1578425D01*
X22135713Y-1578425D02*
X21964285Y-1535568D01*
X21964285Y-1535568D02*
X21878570Y-1492711D01*
X21878570Y-1492711D02*
X21835713Y-1449854D01*
X21835713Y-1449854D02*
X21792856Y-1364140D01*
X21792856Y-1364140D02*
X21792856Y-1278425D01*
X21792856Y-1278425D02*
X21835713Y-1192711D01*
X21835713Y-1192711D02*
X21878570Y-1149854D01*
X21878570Y-1149854D02*
X21964285Y-1106997D01*
X21964285Y-1106997D02*
X22178570Y-1106997D01*
X22178570Y-1106997D02*
X22307142Y-1149854D01*
X22692856Y-1921282D02*
X22735713Y-1964140D01*
X22735713Y-1964140D02*
X22692856Y-2006997D01*
X22692856Y-2006997D02*
X22649999Y-1964140D01*
X22649999Y-1964140D02*
X22692856Y-1921282D01*
X22692856Y-1921282D02*
X22692856Y-2006997D01*
X22692856Y-1449854D02*
X22735713Y-1492711D01*
X22735713Y-1492711D02*
X22692856Y-1535568D01*
X22692856Y-1535568D02*
X22649999Y-1492711D01*
X22649999Y-1492711D02*
X22692856Y-1449854D01*
X22692856Y-1449854D02*
X22692856Y-1535568D01*
X6985715Y-3806997D02*
X6985715Y-2906997D01*
X6985715Y-2906997D02*
X7500001Y-3806997D01*
X7500001Y-3806997D02*
X7500001Y-2906997D01*
X8100001Y-3378425D02*
X8100001Y-3806997D01*
X7800001Y-2906997D02*
X8100001Y-3378425D01*
X8100001Y-3378425D02*
X8400001Y-2906997D01*
X9128573Y-3806997D02*
X8700001Y-3806997D01*
X8700001Y-3806997D02*
X8700001Y-2906997D01*
X9600001Y-2906997D02*
X9771429Y-2906997D01*
X9771429Y-2906997D02*
X9857144Y-2949854D01*
X9857144Y-2949854D02*
X9942858Y-3035568D01*
X9942858Y-3035568D02*
X9985715Y-3206997D01*
X9985715Y-3206997D02*
X9985715Y-3506997D01*
X9985715Y-3506997D02*
X9942858Y-3678425D01*
X9942858Y-3678425D02*
X9857144Y-3764140D01*
X9857144Y-3764140D02*
X9771429Y-3806997D01*
X9771429Y-3806997D02*
X9600001Y-3806997D01*
X9600001Y-3806997D02*
X9514287Y-3764140D01*
X9514287Y-3764140D02*
X9428572Y-3678425D01*
X9428572Y-3678425D02*
X9385715Y-3506997D01*
X9385715Y-3506997D02*
X9385715Y-3206997D01*
X9385715Y-3206997D02*
X9428572Y-3035568D01*
X9428572Y-3035568D02*
X9514287Y-2949854D01*
X9514287Y-2949854D02*
X9600001Y-2906997D01*
X10371429Y-3806997D02*
X10371429Y-2906997D01*
X10371429Y-2906997D02*
X10885715Y-3806997D01*
X10885715Y-3806997D02*
X10885715Y-2906997D01*
X12642857Y-2864140D02*
X11871429Y-4021282D01*
X13628571Y-3806997D02*
X13628571Y-2906997D01*
X13628571Y-2906997D02*
X13971428Y-2906997D01*
X13971428Y-2906997D02*
X14057143Y-2949854D01*
X14057143Y-2949854D02*
X14100000Y-2992711D01*
X14100000Y-2992711D02*
X14142857Y-3078425D01*
X14142857Y-3078425D02*
X14142857Y-3206997D01*
X14142857Y-3206997D02*
X14100000Y-3292711D01*
X14100000Y-3292711D02*
X14057143Y-3335568D01*
X14057143Y-3335568D02*
X13971428Y-3378425D01*
X13971428Y-3378425D02*
X13628571Y-3378425D01*
X14957143Y-3806997D02*
X14528571Y-3806997D01*
X14528571Y-3806997D02*
X14528571Y-2906997D01*
X15214285Y-3549854D02*
X15642857Y-3549854D01*
X15128571Y-3806997D02*
X15428571Y-2906997D01*
X15428571Y-2906997D02*
X15728571Y-3806997D01*
X15985714Y-3764140D02*
X16114286Y-3806997D01*
X16114286Y-3806997D02*
X16328571Y-3806997D01*
X16328571Y-3806997D02*
X16414286Y-3764140D01*
X16414286Y-3764140D02*
X16457143Y-3721282D01*
X16457143Y-3721282D02*
X16500000Y-3635568D01*
X16500000Y-3635568D02*
X16500000Y-3549854D01*
X16500000Y-3549854D02*
X16457143Y-3464140D01*
X16457143Y-3464140D02*
X16414286Y-3421282D01*
X16414286Y-3421282D02*
X16328571Y-3378425D01*
X16328571Y-3378425D02*
X16157143Y-3335568D01*
X16157143Y-3335568D02*
X16071428Y-3292711D01*
X16071428Y-3292711D02*
X16028571Y-3249854D01*
X16028571Y-3249854D02*
X15985714Y-3164140D01*
X15985714Y-3164140D02*
X15985714Y-3078425D01*
X15985714Y-3078425D02*
X16028571Y-2992711D01*
X16028571Y-2992711D02*
X16071428Y-2949854D01*
X16071428Y-2949854D02*
X16157143Y-2906997D01*
X16157143Y-2906997D02*
X16371428Y-2906997D01*
X16371428Y-2906997D02*
X16500000Y-2949854D01*
X16757143Y-2906997D02*
X17271429Y-2906997D01*
X17014286Y-3806997D02*
X17014286Y-2906997D01*
X17571428Y-3806997D02*
X17571428Y-2906997D01*
X18514285Y-3721282D02*
X18471428Y-3764140D01*
X18471428Y-3764140D02*
X18342856Y-3806997D01*
X18342856Y-3806997D02*
X18257142Y-3806997D01*
X18257142Y-3806997D02*
X18128571Y-3764140D01*
X18128571Y-3764140D02*
X18042856Y-3678425D01*
X18042856Y-3678425D02*
X17999999Y-3592711D01*
X17999999Y-3592711D02*
X17957142Y-3421282D01*
X17957142Y-3421282D02*
X17957142Y-3292711D01*
X17957142Y-3292711D02*
X17999999Y-3121282D01*
X17999999Y-3121282D02*
X18042856Y-3035568D01*
X18042856Y-3035568D02*
X18128571Y-2949854D01*
X18128571Y-2949854D02*
X18257142Y-2906997D01*
X18257142Y-2906997D02*
X18342856Y-2906997D01*
X18342856Y-2906997D02*
X18471428Y-2949854D01*
X18471428Y-2949854D02*
X18514285Y-2992711D01*
X19585713Y-3806997D02*
X19585713Y-2906997D01*
X19585713Y-2906997D02*
X19928570Y-2906997D01*
X19928570Y-2906997D02*
X20014285Y-2949854D01*
X20014285Y-2949854D02*
X20057142Y-2992711D01*
X20057142Y-2992711D02*
X20099999Y-3078425D01*
X20099999Y-3078425D02*
X20099999Y-3206997D01*
X20099999Y-3206997D02*
X20057142Y-3292711D01*
X20057142Y-3292711D02*
X20014285Y-3335568D01*
X20014285Y-3335568D02*
X19928570Y-3378425D01*
X19928570Y-3378425D02*
X19585713Y-3378425D01*
X20657142Y-2906997D02*
X20828570Y-2906997D01*
X20828570Y-2906997D02*
X20914285Y-2949854D01*
X20914285Y-2949854D02*
X20999999Y-3035568D01*
X20999999Y-3035568D02*
X21042856Y-3206997D01*
X21042856Y-3206997D02*
X21042856Y-3506997D01*
X21042856Y-3506997D02*
X20999999Y-3678425D01*
X20999999Y-3678425D02*
X20914285Y-3764140D01*
X20914285Y-3764140D02*
X20828570Y-3806997D01*
X20828570Y-3806997D02*
X20657142Y-3806997D01*
X20657142Y-3806997D02*
X20571428Y-3764140D01*
X20571428Y-3764140D02*
X20485713Y-3678425D01*
X20485713Y-3678425D02*
X20442856Y-3506997D01*
X20442856Y-3506997D02*
X20442856Y-3206997D01*
X20442856Y-3206997D02*
X20485713Y-3035568D01*
X20485713Y-3035568D02*
X20571428Y-2949854D01*
X20571428Y-2949854D02*
X20657142Y-2906997D01*
X21385713Y-3764140D02*
X21514285Y-3806997D01*
X21514285Y-3806997D02*
X21728570Y-3806997D01*
X21728570Y-3806997D02*
X21814285Y-3764140D01*
X21814285Y-3764140D02*
X21857142Y-3721282D01*
X21857142Y-3721282D02*
X21899999Y-3635568D01*
X21899999Y-3635568D02*
X21899999Y-3549854D01*
X21899999Y-3549854D02*
X21857142Y-3464140D01*
X21857142Y-3464140D02*
X21814285Y-3421282D01*
X21814285Y-3421282D02*
X21728570Y-3378425D01*
X21728570Y-3378425D02*
X21557142Y-3335568D01*
X21557142Y-3335568D02*
X21471427Y-3292711D01*
X21471427Y-3292711D02*
X21428570Y-3249854D01*
X21428570Y-3249854D02*
X21385713Y-3164140D01*
X21385713Y-3164140D02*
X21385713Y-3078425D01*
X21385713Y-3078425D02*
X21428570Y-2992711D01*
X21428570Y-2992711D02*
X21471427Y-2949854D01*
X21471427Y-2949854D02*
X21557142Y-2906997D01*
X21557142Y-2906997D02*
X21771427Y-2906997D01*
X21771427Y-2906997D02*
X21899999Y-2949854D01*
X22157142Y-2906997D02*
X22671428Y-2906997D01*
X22414285Y-3806997D02*
X22414285Y-2906997D01*
X23828570Y-2906997D02*
X23999998Y-2906997D01*
X23999998Y-2906997D02*
X24085713Y-2949854D01*
X24085713Y-2949854D02*
X24171427Y-3035568D01*
X24171427Y-3035568D02*
X24214284Y-3206997D01*
X24214284Y-3206997D02*
X24214284Y-3506997D01*
X24214284Y-3506997D02*
X24171427Y-3678425D01*
X24171427Y-3678425D02*
X24085713Y-3764140D01*
X24085713Y-3764140D02*
X23999998Y-3806997D01*
X23999998Y-3806997D02*
X23828570Y-3806997D01*
X23828570Y-3806997D02*
X23742856Y-3764140D01*
X23742856Y-3764140D02*
X23657141Y-3678425D01*
X23657141Y-3678425D02*
X23614284Y-3506997D01*
X23614284Y-3506997D02*
X23614284Y-3206997D01*
X23614284Y-3206997D02*
X23657141Y-3035568D01*
X23657141Y-3035568D02*
X23742856Y-2949854D01*
X23742856Y-2949854D02*
X23828570Y-2906997D01*
X24599998Y-3806997D02*
X24599998Y-2906997D01*
X24599998Y-2906997D02*
X25114284Y-3806997D01*
X25114284Y-3806997D02*
X25114284Y-2906997D01*
X25971427Y-3806997D02*
X25542855Y-3806997D01*
X25542855Y-3806997D02*
X25542855Y-2906997D01*
X26442855Y-3378425D02*
X26442855Y-3806997D01*
X26142855Y-2906997D02*
X26442855Y-3378425D01*
X26442855Y-3378425D02*
X26742855Y-2906997D01*
X7435714Y-5606997D02*
X7435714Y-4706997D01*
X7435714Y-4706997D02*
X7950000Y-5606997D01*
X7950000Y-5606997D02*
X7950000Y-4706997D01*
X8550000Y-4706997D02*
X8721428Y-4706997D01*
X8721428Y-4706997D02*
X8807143Y-4749854D01*
X8807143Y-4749854D02*
X8892857Y-4835568D01*
X8892857Y-4835568D02*
X8935714Y-5006997D01*
X8935714Y-5006997D02*
X8935714Y-5306997D01*
X8935714Y-5306997D02*
X8892857Y-5478425D01*
X8892857Y-5478425D02*
X8807143Y-5564140D01*
X8807143Y-5564140D02*
X8721428Y-5606997D01*
X8721428Y-5606997D02*
X8550000Y-5606997D01*
X8550000Y-5606997D02*
X8464286Y-5564140D01*
X8464286Y-5564140D02*
X8378571Y-5478425D01*
X8378571Y-5478425D02*
X8335714Y-5306997D01*
X8335714Y-5306997D02*
X8335714Y-5006997D01*
X8335714Y-5006997D02*
X8378571Y-4835568D01*
X8378571Y-4835568D02*
X8464286Y-4749854D01*
X8464286Y-4749854D02*
X8550000Y-4706997D01*
X10007142Y-5606997D02*
X10007142Y-4706997D01*
X10007142Y-4706997D02*
X10307142Y-5349854D01*
X10307142Y-5349854D02*
X10607142Y-4706997D01*
X10607142Y-4706997D02*
X10607142Y-5606997D01*
X11035713Y-5135568D02*
X11335713Y-5135568D01*
X11464285Y-5606997D02*
X11035713Y-5606997D01*
X11035713Y-5606997D02*
X11035713Y-4706997D01*
X11035713Y-4706997D02*
X11464285Y-4706997D01*
X11721428Y-4706997D02*
X12235714Y-4706997D01*
X11978571Y-5606997D02*
X11978571Y-4706997D01*
X12492856Y-5349854D02*
X12921428Y-5349854D01*
X12407142Y-5606997D02*
X12707142Y-4706997D01*
X12707142Y-4706997D02*
X13007142Y-5606997D01*
X13735714Y-5606997D02*
X13307142Y-5606997D01*
X13307142Y-5606997D02*
X13307142Y-4706997D01*
X14721427Y-5606997D02*
X14721427Y-4706997D01*
X15149998Y-5606997D02*
X15149998Y-4706997D01*
X15149998Y-4706997D02*
X15664284Y-5606997D01*
X15664284Y-5606997D02*
X15664284Y-4706997D01*
X16735712Y-5349854D02*
X17164284Y-5349854D01*
X16649998Y-5606997D02*
X16949998Y-4706997D01*
X16949998Y-4706997D02*
X17249998Y-5606997D01*
X17549998Y-5606997D02*
X17549998Y-4706997D01*
X17549998Y-4706997D02*
X18064284Y-5606997D01*
X18064284Y-5606997D02*
X18064284Y-4706997D01*
X18364284Y-4706997D02*
X18878570Y-4706997D01*
X18621427Y-5606997D02*
X18621427Y-4706997D01*
X19178569Y-5135568D02*
X19478569Y-5135568D01*
X19607141Y-5606997D02*
X19178569Y-5606997D01*
X19178569Y-5606997D02*
X19178569Y-4706997D01*
X19178569Y-4706997D02*
X19607141Y-4706997D01*
X19992855Y-5606997D02*
X19992855Y-4706997D01*
X19992855Y-4706997D02*
X20507141Y-5606997D01*
X20507141Y-5606997D02*
X20507141Y-4706997D01*
X20935712Y-5606997D02*
X20935712Y-4706997D01*
X20935712Y-4706997D02*
X21449998Y-5606997D01*
X21449998Y-5606997D02*
X21449998Y-4706997D01*
X21835712Y-5349854D02*
X22264284Y-5349854D01*
X21749998Y-5606997D02*
X22049998Y-4706997D01*
X22049998Y-4706997D02*
X22349998Y-5606997D01*
X23292855Y-5349854D02*
X23721427Y-5349854D01*
X23207141Y-5606997D02*
X23507141Y-4706997D01*
X23507141Y-4706997D02*
X23807141Y-5606997D01*
X24621427Y-5606997D02*
X24321427Y-5178425D01*
X24107141Y-5606997D02*
X24107141Y-4706997D01*
X24107141Y-4706997D02*
X24449998Y-4706997D01*
X24449998Y-4706997D02*
X24535713Y-4749854D01*
X24535713Y-4749854D02*
X24578570Y-4792711D01*
X24578570Y-4792711D02*
X24621427Y-4878425D01*
X24621427Y-4878425D02*
X24621427Y-5006997D01*
X24621427Y-5006997D02*
X24578570Y-5092711D01*
X24578570Y-5092711D02*
X24535713Y-5135568D01*
X24535713Y-5135568D02*
X24449998Y-5178425D01*
X24449998Y-5178425D02*
X24107141Y-5178425D01*
X25007141Y-5135568D02*
X25307141Y-5135568D01*
X25435713Y-5606997D02*
X25007141Y-5606997D01*
X25007141Y-5606997D02*
X25007141Y-4706997D01*
X25007141Y-4706997D02*
X25435713Y-4706997D01*
X25778570Y-5349854D02*
X26207142Y-5349854D01*
X25692856Y-5606997D02*
X25992856Y-4706997D01*
X25992856Y-4706997D02*
X26292856Y-5606997D01*
D12*
X50542662Y-21900001D02*
X49971234Y-22300001D01*
X50542662Y-22585715D02*
X49342662Y-22585715D01*
X49342662Y-22585715D02*
X49342662Y-22128572D01*
X49342662Y-22128572D02*
X49399805Y-22014287D01*
X49399805Y-22014287D02*
X49456948Y-21957144D01*
X49456948Y-21957144D02*
X49571234Y-21900001D01*
X49571234Y-21900001D02*
X49742662Y-21900001D01*
X49742662Y-21900001D02*
X49856948Y-21957144D01*
X49856948Y-21957144D02*
X49914091Y-22014287D01*
X49914091Y-22014287D02*
X49971234Y-22128572D01*
X49971234Y-22128572D02*
X49971234Y-22585715D01*
X50542662Y-21385715D02*
X49342662Y-21385715D01*
X49399805Y-20185715D02*
X49342662Y-20300001D01*
X49342662Y-20300001D02*
X49342662Y-20471429D01*
X49342662Y-20471429D02*
X49399805Y-20642858D01*
X49399805Y-20642858D02*
X49514091Y-20757143D01*
X49514091Y-20757143D02*
X49628377Y-20814286D01*
X49628377Y-20814286D02*
X49856948Y-20871429D01*
X49856948Y-20871429D02*
X50028377Y-20871429D01*
X50028377Y-20871429D02*
X50256948Y-20814286D01*
X50256948Y-20814286D02*
X50371234Y-20757143D01*
X50371234Y-20757143D02*
X50485520Y-20642858D01*
X50485520Y-20642858D02*
X50542662Y-20471429D01*
X50542662Y-20471429D02*
X50542662Y-20357143D01*
X50542662Y-20357143D02*
X50485520Y-20185715D01*
X50485520Y-20185715D02*
X50428377Y-20128572D01*
X50428377Y-20128572D02*
X50028377Y-20128572D01*
X50028377Y-20128572D02*
X50028377Y-20357143D01*
X50542662Y-19614286D02*
X49342662Y-19614286D01*
X49914091Y-19614286D02*
X49914091Y-18928572D01*
X50542662Y-18928572D02*
X49342662Y-18928572D01*
X49342662Y-18528572D02*
X49342662Y-17842858D01*
X50542662Y-18185715D02*
X49342662Y-18185715D01*
X50656948Y-17728572D02*
X50656948Y-16814286D01*
X50485520Y-16585714D02*
X50542662Y-16414286D01*
X50542662Y-16414286D02*
X50542662Y-16128571D01*
X50542662Y-16128571D02*
X50485520Y-16014286D01*
X50485520Y-16014286D02*
X50428377Y-15957143D01*
X50428377Y-15957143D02*
X50314091Y-15900000D01*
X50314091Y-15900000D02*
X50199805Y-15900000D01*
X50199805Y-15900000D02*
X50085520Y-15957143D01*
X50085520Y-15957143D02*
X50028377Y-16014286D01*
X50028377Y-16014286D02*
X49971234Y-16128571D01*
X49971234Y-16128571D02*
X49914091Y-16357143D01*
X49914091Y-16357143D02*
X49856948Y-16471428D01*
X49856948Y-16471428D02*
X49799805Y-16528571D01*
X49799805Y-16528571D02*
X49685520Y-16585714D01*
X49685520Y-16585714D02*
X49571234Y-16585714D01*
X49571234Y-16585714D02*
X49456948Y-16528571D01*
X49456948Y-16528571D02*
X49399805Y-16471428D01*
X49399805Y-16471428D02*
X49342662Y-16357143D01*
X49342662Y-16357143D02*
X49342662Y-16071428D01*
X49342662Y-16071428D02*
X49399805Y-15900000D01*
X49342662Y-15500000D02*
X50542662Y-15214286D01*
X50542662Y-15214286D02*
X49685520Y-14985714D01*
X49685520Y-14985714D02*
X50542662Y-14757143D01*
X50542662Y-14757143D02*
X49342662Y-14471429D01*
X50542662Y-14014285D02*
X49342662Y-14014285D01*
X49342662Y-13614285D02*
X49342662Y-12928571D01*
X50542662Y-13271428D02*
X49342662Y-13271428D01*
X50428377Y-11842856D02*
X50485520Y-11899999D01*
X50485520Y-11899999D02*
X50542662Y-12071427D01*
X50542662Y-12071427D02*
X50542662Y-12185713D01*
X50542662Y-12185713D02*
X50485520Y-12357142D01*
X50485520Y-12357142D02*
X50371234Y-12471427D01*
X50371234Y-12471427D02*
X50256948Y-12528570D01*
X50256948Y-12528570D02*
X50028377Y-12585713D01*
X50028377Y-12585713D02*
X49856948Y-12585713D01*
X49856948Y-12585713D02*
X49628377Y-12528570D01*
X49628377Y-12528570D02*
X49514091Y-12471427D01*
X49514091Y-12471427D02*
X49399805Y-12357142D01*
X49399805Y-12357142D02*
X49342662Y-12185713D01*
X49342662Y-12185713D02*
X49342662Y-12071427D01*
X49342662Y-12071427D02*
X49399805Y-11899999D01*
X49399805Y-11899999D02*
X49456948Y-11842856D01*
X50542662Y-11328570D02*
X49342662Y-11328570D01*
X49914091Y-11328570D02*
X49914091Y-10642856D01*
X50542662Y-10642856D02*
X49342662Y-10642856D01*
X50656948Y-10357142D02*
X50656948Y-9442856D01*
X50428377Y-8471427D02*
X50485520Y-8528570D01*
X50485520Y-8528570D02*
X50542662Y-8699998D01*
X50542662Y-8699998D02*
X50542662Y-8814284D01*
X50542662Y-8814284D02*
X50485520Y-8985713D01*
X50485520Y-8985713D02*
X50371234Y-9099998D01*
X50371234Y-9099998D02*
X50256948Y-9157141D01*
X50256948Y-9157141D02*
X50028377Y-9214284D01*
X50028377Y-9214284D02*
X49856948Y-9214284D01*
X49856948Y-9214284D02*
X49628377Y-9157141D01*
X49628377Y-9157141D02*
X49514091Y-9099998D01*
X49514091Y-9099998D02*
X49399805Y-8985713D01*
X49399805Y-8985713D02*
X49342662Y-8814284D01*
X49342662Y-8814284D02*
X49342662Y-8699998D01*
X49342662Y-8699998D02*
X49399805Y-8528570D01*
X49399805Y-8528570D02*
X49456948Y-8471427D01*
X49342662Y-7728570D02*
X49342662Y-7499998D01*
X49342662Y-7499998D02*
X49399805Y-7385713D01*
X49399805Y-7385713D02*
X49514091Y-7271427D01*
X49514091Y-7271427D02*
X49742662Y-7214284D01*
X49742662Y-7214284D02*
X50142662Y-7214284D01*
X50142662Y-7214284D02*
X50371234Y-7271427D01*
X50371234Y-7271427D02*
X50485520Y-7385713D01*
X50485520Y-7385713D02*
X50542662Y-7499998D01*
X50542662Y-7499998D02*
X50542662Y-7728570D01*
X50542662Y-7728570D02*
X50485520Y-7842856D01*
X50485520Y-7842856D02*
X50371234Y-7957141D01*
X50371234Y-7957141D02*
X50142662Y-8014284D01*
X50142662Y-8014284D02*
X49742662Y-8014284D01*
X49742662Y-8014284D02*
X49514091Y-7957141D01*
X49514091Y-7957141D02*
X49399805Y-7842856D01*
X49399805Y-7842856D02*
X49342662Y-7728570D01*
X50542662Y-6128570D02*
X50542662Y-6699998D01*
X50542662Y-6699998D02*
X49342662Y-6699998D01*
X49342662Y-5728569D02*
X50314091Y-5728569D01*
X50314091Y-5728569D02*
X50428377Y-5671426D01*
X50428377Y-5671426D02*
X50485520Y-5614284D01*
X50485520Y-5614284D02*
X50542662Y-5499998D01*
X50542662Y-5499998D02*
X50542662Y-5271426D01*
X50542662Y-5271426D02*
X50485520Y-5157141D01*
X50485520Y-5157141D02*
X50428377Y-5099998D01*
X50428377Y-5099998D02*
X50314091Y-5042855D01*
X50314091Y-5042855D02*
X49342662Y-5042855D01*
X50542662Y-4471426D02*
X49342662Y-4471426D01*
X49342662Y-4471426D02*
X50199805Y-4071426D01*
X50199805Y-4071426D02*
X49342662Y-3671426D01*
X49342662Y-3671426D02*
X50542662Y-3671426D01*
X50542662Y-3099997D02*
X49342662Y-3099997D01*
X49342662Y-3099997D02*
X50542662Y-2414283D01*
X50542662Y-2414283D02*
X49342662Y-2414283D01*
X49342662Y-22757142D02*
X50542662Y-21957142D01*
X49342662Y-21957142D02*
X50542662Y-22757142D01*
X49742662Y-20071428D02*
X50542662Y-20071428D01*
X49285520Y-20357142D02*
X50142662Y-20642856D01*
X50142662Y-20642856D02*
X50142662Y-19899999D01*
X50542662Y-19385713D02*
X50542662Y-19157142D01*
X50542662Y-19157142D02*
X50485520Y-19042856D01*
X50485520Y-19042856D02*
X50428377Y-18985713D01*
X50428377Y-18985713D02*
X50256948Y-18871428D01*
X50256948Y-18871428D02*
X50028377Y-18814285D01*
X50028377Y-18814285D02*
X49571234Y-18814285D01*
X49571234Y-18814285D02*
X49456948Y-18871428D01*
X49456948Y-18871428D02*
X49399805Y-18928571D01*
X49399805Y-18928571D02*
X49342662Y-19042856D01*
X49342662Y-19042856D02*
X49342662Y-19271428D01*
X49342662Y-19271428D02*
X49399805Y-19385713D01*
X49399805Y-19385713D02*
X49456948Y-19442856D01*
X49456948Y-19442856D02*
X49571234Y-19499999D01*
X49571234Y-19499999D02*
X49856948Y-19499999D01*
X49856948Y-19499999D02*
X49971234Y-19442856D01*
X49971234Y-19442856D02*
X50028377Y-19385713D01*
X50028377Y-19385713D02*
X50085520Y-19271428D01*
X50085520Y-19271428D02*
X50085520Y-19042856D01*
X50085520Y-19042856D02*
X50028377Y-18928571D01*
X50028377Y-18928571D02*
X49971234Y-18871428D01*
X49971234Y-18871428D02*
X49856948Y-18814285D01*
X50085520Y-17385713D02*
X50085520Y-16471428D01*
X49342662Y-14414285D02*
X49342662Y-14985713D01*
X49342662Y-14985713D02*
X49914091Y-15042856D01*
X49914091Y-15042856D02*
X49856948Y-14985713D01*
X49856948Y-14985713D02*
X49799805Y-14871428D01*
X49799805Y-14871428D02*
X49799805Y-14585713D01*
X49799805Y-14585713D02*
X49856948Y-14471428D01*
X49856948Y-14471428D02*
X49914091Y-14414285D01*
X49914091Y-14414285D02*
X50028377Y-14357142D01*
X50028377Y-14357142D02*
X50314091Y-14357142D01*
X50314091Y-14357142D02*
X50428377Y-14414285D01*
X50428377Y-14414285D02*
X50485520Y-14471428D01*
X50485520Y-14471428D02*
X50542662Y-14585713D01*
X50542662Y-14585713D02*
X50542662Y-14871428D01*
X50542662Y-14871428D02*
X50485520Y-14985713D01*
X50485520Y-14985713D02*
X50428377Y-15042856D01*
X49342662Y-13271428D02*
X49342662Y-13842856D01*
X49342662Y-13842856D02*
X49914091Y-13899999D01*
X49914091Y-13899999D02*
X49856948Y-13842856D01*
X49856948Y-13842856D02*
X49799805Y-13728571D01*
X49799805Y-13728571D02*
X49799805Y-13442856D01*
X49799805Y-13442856D02*
X49856948Y-13328571D01*
X49856948Y-13328571D02*
X49914091Y-13271428D01*
X49914091Y-13271428D02*
X50028377Y-13214285D01*
X50028377Y-13214285D02*
X50314091Y-13214285D01*
X50314091Y-13214285D02*
X50428377Y-13271428D01*
X50428377Y-13271428D02*
X50485520Y-13328571D01*
X50485520Y-13328571D02*
X50542662Y-13442856D01*
X50542662Y-13442856D02*
X50542662Y-13728571D01*
X50542662Y-13728571D02*
X50485520Y-13842856D01*
X50485520Y-13842856D02*
X50428377Y-13899999D01*
X50542662Y-11785713D02*
X49742662Y-11785713D01*
X49856948Y-11785713D02*
X49799805Y-11728570D01*
X49799805Y-11728570D02*
X49742662Y-11614285D01*
X49742662Y-11614285D02*
X49742662Y-11442856D01*
X49742662Y-11442856D02*
X49799805Y-11328570D01*
X49799805Y-11328570D02*
X49914091Y-11271428D01*
X49914091Y-11271428D02*
X50542662Y-11271428D01*
X49914091Y-11271428D02*
X49799805Y-11214285D01*
X49799805Y-11214285D02*
X49742662Y-11099999D01*
X49742662Y-11099999D02*
X49742662Y-10928570D01*
X49742662Y-10928570D02*
X49799805Y-10814285D01*
X49799805Y-10814285D02*
X49914091Y-10757142D01*
X49914091Y-10757142D02*
X50542662Y-10757142D01*
X50542662Y-10185713D02*
X49742662Y-10185713D01*
X49856948Y-10185713D02*
X49799805Y-10128570D01*
X49799805Y-10128570D02*
X49742662Y-10014285D01*
X49742662Y-10014285D02*
X49742662Y-9842856D01*
X49742662Y-9842856D02*
X49799805Y-9728570D01*
X49799805Y-9728570D02*
X49914091Y-9671428D01*
X49914091Y-9671428D02*
X50542662Y-9671428D01*
X49914091Y-9671428D02*
X49799805Y-9614285D01*
X49799805Y-9614285D02*
X49742662Y-9499999D01*
X49742662Y-9499999D02*
X49742662Y-9328570D01*
X49742662Y-9328570D02*
X49799805Y-9214285D01*
X49799805Y-9214285D02*
X49914091Y-9157142D01*
X49914091Y-9157142D02*
X50542662Y-9157142D01*
X50485520Y-32100001D02*
X50542662Y-31928573D01*
X50542662Y-31928573D02*
X50542662Y-31642858D01*
X50542662Y-31642858D02*
X50485520Y-31528573D01*
X50485520Y-31528573D02*
X50428377Y-31471430D01*
X50428377Y-31471430D02*
X50314091Y-31414287D01*
X50314091Y-31414287D02*
X50199805Y-31414287D01*
X50199805Y-31414287D02*
X50085520Y-31471430D01*
X50085520Y-31471430D02*
X50028377Y-31528573D01*
X50028377Y-31528573D02*
X49971234Y-31642858D01*
X49971234Y-31642858D02*
X49914091Y-31871430D01*
X49914091Y-31871430D02*
X49856948Y-31985715D01*
X49856948Y-31985715D02*
X49799805Y-32042858D01*
X49799805Y-32042858D02*
X49685520Y-32100001D01*
X49685520Y-32100001D02*
X49571234Y-32100001D01*
X49571234Y-32100001D02*
X49456948Y-32042858D01*
X49456948Y-32042858D02*
X49399805Y-31985715D01*
X49399805Y-31985715D02*
X49342662Y-31871430D01*
X49342662Y-31871430D02*
X49342662Y-31585715D01*
X49342662Y-31585715D02*
X49399805Y-31414287D01*
X49342662Y-31014287D02*
X50542662Y-30728573D01*
X50542662Y-30728573D02*
X49685520Y-30500001D01*
X49685520Y-30500001D02*
X50542662Y-30271430D01*
X50542662Y-30271430D02*
X49342662Y-29985716D01*
X49285520Y-27757143D02*
X50828377Y-28785715D01*
X50542662Y-25871429D02*
X50542662Y-26442857D01*
X50542662Y-26442857D02*
X49342662Y-26442857D01*
X49342662Y-25242857D02*
X49342662Y-25014285D01*
X49342662Y-25014285D02*
X49399805Y-24900000D01*
X49399805Y-24900000D02*
X49514091Y-24785714D01*
X49514091Y-24785714D02*
X49742662Y-24728571D01*
X49742662Y-24728571D02*
X50142662Y-24728571D01*
X50142662Y-24728571D02*
X50371234Y-24785714D01*
X50371234Y-24785714D02*
X50485520Y-24900000D01*
X50485520Y-24900000D02*
X50542662Y-25014285D01*
X50542662Y-25014285D02*
X50542662Y-25242857D01*
X50542662Y-25242857D02*
X50485520Y-25357143D01*
X50485520Y-25357143D02*
X50371234Y-25471428D01*
X50371234Y-25471428D02*
X50142662Y-25528571D01*
X50142662Y-25528571D02*
X49742662Y-25528571D01*
X49742662Y-25528571D02*
X49514091Y-25471428D01*
X49514091Y-25471428D02*
X49399805Y-25357143D01*
X49399805Y-25357143D02*
X49342662Y-25242857D01*
X50428377Y-23528571D02*
X50485520Y-23585714D01*
X50485520Y-23585714D02*
X50542662Y-23757142D01*
X50542662Y-23757142D02*
X50542662Y-23871428D01*
X50542662Y-23871428D02*
X50485520Y-24042857D01*
X50485520Y-24042857D02*
X50371234Y-24157142D01*
X50371234Y-24157142D02*
X50256948Y-24214285D01*
X50256948Y-24214285D02*
X50028377Y-24271428D01*
X50028377Y-24271428D02*
X49856948Y-24271428D01*
X49856948Y-24271428D02*
X49628377Y-24214285D01*
X49628377Y-24214285D02*
X49514091Y-24157142D01*
X49514091Y-24157142D02*
X49399805Y-24042857D01*
X49399805Y-24042857D02*
X49342662Y-23871428D01*
X49342662Y-23871428D02*
X49342662Y-23757142D01*
X49342662Y-23757142D02*
X49399805Y-23585714D01*
X49399805Y-23585714D02*
X49456948Y-23528571D01*
X50199805Y-23071428D02*
X50199805Y-22500000D01*
X50542662Y-23185714D02*
X49342662Y-22785714D01*
X49342662Y-22785714D02*
X50542662Y-22385714D01*
X49342662Y-22157143D02*
X49342662Y-21471429D01*
X50542662Y-21814286D02*
X49342662Y-21814286D01*
X50542662Y-21071428D02*
X49342662Y-21071428D01*
X50542662Y-20499999D02*
X49342662Y-20499999D01*
X49342662Y-20499999D02*
X50542662Y-19814285D01*
X50542662Y-19814285D02*
X49342662Y-19814285D01*
X49399805Y-18614285D02*
X49342662Y-18728571D01*
X49342662Y-18728571D02*
X49342662Y-18899999D01*
X49342662Y-18899999D02*
X49399805Y-19071428D01*
X49399805Y-19071428D02*
X49514091Y-19185713D01*
X49514091Y-19185713D02*
X49628377Y-19242856D01*
X49628377Y-19242856D02*
X49856948Y-19299999D01*
X49856948Y-19299999D02*
X50028377Y-19299999D01*
X50028377Y-19299999D02*
X50256948Y-19242856D01*
X50256948Y-19242856D02*
X50371234Y-19185713D01*
X50371234Y-19185713D02*
X50485520Y-19071428D01*
X50485520Y-19071428D02*
X50542662Y-18899999D01*
X50542662Y-18899999D02*
X50542662Y-18785713D01*
X50542662Y-18785713D02*
X50485520Y-18614285D01*
X50485520Y-18614285D02*
X50428377Y-18557142D01*
X50428377Y-18557142D02*
X50028377Y-18557142D01*
X50028377Y-18557142D02*
X50028377Y-18785713D01*
X50542662Y-17128570D02*
X49342662Y-17128570D01*
X49914091Y-17128570D02*
X49914091Y-16442856D01*
X50542662Y-16442856D02*
X49342662Y-16442856D01*
X49342662Y-15642856D02*
X49342662Y-15414284D01*
X49342662Y-15414284D02*
X49399805Y-15299999D01*
X49399805Y-15299999D02*
X49514091Y-15185713D01*
X49514091Y-15185713D02*
X49742662Y-15128570D01*
X49742662Y-15128570D02*
X50142662Y-15128570D01*
X50142662Y-15128570D02*
X50371234Y-15185713D01*
X50371234Y-15185713D02*
X50485520Y-15299999D01*
X50485520Y-15299999D02*
X50542662Y-15414284D01*
X50542662Y-15414284D02*
X50542662Y-15642856D01*
X50542662Y-15642856D02*
X50485520Y-15757142D01*
X50485520Y-15757142D02*
X50371234Y-15871427D01*
X50371234Y-15871427D02*
X50142662Y-15928570D01*
X50142662Y-15928570D02*
X49742662Y-15928570D01*
X49742662Y-15928570D02*
X49514091Y-15871427D01*
X49514091Y-15871427D02*
X49399805Y-15757142D01*
X49399805Y-15757142D02*
X49342662Y-15642856D01*
X50542662Y-14042856D02*
X50542662Y-14614284D01*
X50542662Y-14614284D02*
X49342662Y-14614284D01*
X49914091Y-13642855D02*
X49914091Y-13242855D01*
X50542662Y-13071427D02*
X50542662Y-13642855D01*
X50542662Y-13642855D02*
X49342662Y-13642855D01*
X49342662Y-13642855D02*
X49342662Y-13071427D01*
X50485520Y-12614284D02*
X50542662Y-12442856D01*
X50542662Y-12442856D02*
X50542662Y-12157141D01*
X50542662Y-12157141D02*
X50485520Y-12042856D01*
X50485520Y-12042856D02*
X50428377Y-11985713D01*
X50428377Y-11985713D02*
X50314091Y-11928570D01*
X50314091Y-11928570D02*
X50199805Y-11928570D01*
X50199805Y-11928570D02*
X50085520Y-11985713D01*
X50085520Y-11985713D02*
X50028377Y-12042856D01*
X50028377Y-12042856D02*
X49971234Y-12157141D01*
X49971234Y-12157141D02*
X49914091Y-12385713D01*
X49914091Y-12385713D02*
X49856948Y-12499998D01*
X49856948Y-12499998D02*
X49799805Y-12557141D01*
X49799805Y-12557141D02*
X49685520Y-12614284D01*
X49685520Y-12614284D02*
X49571234Y-12614284D01*
X49571234Y-12614284D02*
X49456948Y-12557141D01*
X49456948Y-12557141D02*
X49399805Y-12499998D01*
X49399805Y-12499998D02*
X49342662Y-12385713D01*
X49342662Y-12385713D02*
X49342662Y-12099998D01*
X49342662Y-12099998D02*
X49399805Y-11928570D01*
X49342662Y-10271427D02*
X49342662Y-10042855D01*
X49342662Y-10042855D02*
X49399805Y-9928570D01*
X49399805Y-9928570D02*
X49514091Y-9814284D01*
X49514091Y-9814284D02*
X49742662Y-9757141D01*
X49742662Y-9757141D02*
X50142662Y-9757141D01*
X50142662Y-9757141D02*
X50371234Y-9814284D01*
X50371234Y-9814284D02*
X50485520Y-9928570D01*
X50485520Y-9928570D02*
X50542662Y-10042855D01*
X50542662Y-10042855D02*
X50542662Y-10271427D01*
X50542662Y-10271427D02*
X50485520Y-10385713D01*
X50485520Y-10385713D02*
X50371234Y-10499998D01*
X50371234Y-10499998D02*
X50142662Y-10557141D01*
X50142662Y-10557141D02*
X49742662Y-10557141D01*
X49742662Y-10557141D02*
X49514091Y-10499998D01*
X49514091Y-10499998D02*
X49399805Y-10385713D01*
X49399805Y-10385713D02*
X49342662Y-10271427D01*
X50542662Y-9242855D02*
X49342662Y-9242855D01*
X49342662Y-9242855D02*
X50542662Y-8557141D01*
X50542662Y-8557141D02*
X49342662Y-8557141D01*
X50542662Y-7414284D02*
X50542662Y-7985712D01*
X50542662Y-7985712D02*
X49342662Y-7985712D01*
X49971234Y-6785712D02*
X50542662Y-6785712D01*
X49342662Y-7185712D02*
X49971234Y-6785712D01*
X49971234Y-6785712D02*
X49342662Y-6385712D01*
D13*
X22285714Y-84656109D02*
X22285714Y-84156109D01*
X22285714Y-84156109D02*
X22476190Y-84156109D01*
X22476190Y-84156109D02*
X22523809Y-84179919D01*
X22523809Y-84179919D02*
X22547619Y-84203728D01*
X22547619Y-84203728D02*
X22571428Y-84251347D01*
X22571428Y-84251347D02*
X22571428Y-84322776D01*
X22571428Y-84322776D02*
X22547619Y-84370395D01*
X22547619Y-84370395D02*
X22523809Y-84394204D01*
X22523809Y-84394204D02*
X22476190Y-84418014D01*
X22476190Y-84418014D02*
X22285714Y-84418014D01*
X23071428Y-84608490D02*
X23047619Y-84632300D01*
X23047619Y-84632300D02*
X22976190Y-84656109D01*
X22976190Y-84656109D02*
X22928571Y-84656109D01*
X22928571Y-84656109D02*
X22857143Y-84632300D01*
X22857143Y-84632300D02*
X22809524Y-84584680D01*
X22809524Y-84584680D02*
X22785714Y-84537061D01*
X22785714Y-84537061D02*
X22761905Y-84441823D01*
X22761905Y-84441823D02*
X22761905Y-84370395D01*
X22761905Y-84370395D02*
X22785714Y-84275157D01*
X22785714Y-84275157D02*
X22809524Y-84227538D01*
X22809524Y-84227538D02*
X22857143Y-84179919D01*
X22857143Y-84179919D02*
X22928571Y-84156109D01*
X22928571Y-84156109D02*
X22976190Y-84156109D01*
X22976190Y-84156109D02*
X23047619Y-84179919D01*
X23047619Y-84179919D02*
X23071428Y-84203728D01*
X23452381Y-84394204D02*
X23523809Y-84418014D01*
X23523809Y-84418014D02*
X23547619Y-84441823D01*
X23547619Y-84441823D02*
X23571428Y-84489442D01*
X23571428Y-84489442D02*
X23571428Y-84560871D01*
X23571428Y-84560871D02*
X23547619Y-84608490D01*
X23547619Y-84608490D02*
X23523809Y-84632300D01*
X23523809Y-84632300D02*
X23476190Y-84656109D01*
X23476190Y-84656109D02*
X23285714Y-84656109D01*
X23285714Y-84656109D02*
X23285714Y-84156109D01*
X23285714Y-84156109D02*
X23452381Y-84156109D01*
X23452381Y-84156109D02*
X23500000Y-84179919D01*
X23500000Y-84179919D02*
X23523809Y-84203728D01*
X23523809Y-84203728D02*
X23547619Y-84251347D01*
X23547619Y-84251347D02*
X23547619Y-84298966D01*
X23547619Y-84298966D02*
X23523809Y-84346585D01*
X23523809Y-84346585D02*
X23500000Y-84370395D01*
X23500000Y-84370395D02*
X23452381Y-84394204D01*
X23452381Y-84394204D02*
X23285714Y-84394204D01*
X24166666Y-84394204D02*
X24333333Y-84394204D01*
X24404761Y-84656109D02*
X24166666Y-84656109D01*
X24166666Y-84656109D02*
X24166666Y-84156109D01*
X24166666Y-84156109D02*
X24404761Y-84156109D01*
X24833333Y-84656109D02*
X24833333Y-84156109D01*
X24833333Y-84632300D02*
X24785714Y-84656109D01*
X24785714Y-84656109D02*
X24690476Y-84656109D01*
X24690476Y-84656109D02*
X24642857Y-84632300D01*
X24642857Y-84632300D02*
X24619047Y-84608490D01*
X24619047Y-84608490D02*
X24595238Y-84560871D01*
X24595238Y-84560871D02*
X24595238Y-84418014D01*
X24595238Y-84418014D02*
X24619047Y-84370395D01*
X24619047Y-84370395D02*
X24642857Y-84346585D01*
X24642857Y-84346585D02*
X24690476Y-84322776D01*
X24690476Y-84322776D02*
X24785714Y-84322776D01*
X24785714Y-84322776D02*
X24833333Y-84346585D01*
X25285714Y-84322776D02*
X25285714Y-84727538D01*
X25285714Y-84727538D02*
X25261904Y-84775157D01*
X25261904Y-84775157D02*
X25238095Y-84798966D01*
X25238095Y-84798966D02*
X25190476Y-84822776D01*
X25190476Y-84822776D02*
X25119047Y-84822776D01*
X25119047Y-84822776D02*
X25071428Y-84798966D01*
X25285714Y-84632300D02*
X25238095Y-84656109D01*
X25238095Y-84656109D02*
X25142857Y-84656109D01*
X25142857Y-84656109D02*
X25095238Y-84632300D01*
X25095238Y-84632300D02*
X25071428Y-84608490D01*
X25071428Y-84608490D02*
X25047619Y-84560871D01*
X25047619Y-84560871D02*
X25047619Y-84418014D01*
X25047619Y-84418014D02*
X25071428Y-84370395D01*
X25071428Y-84370395D02*
X25095238Y-84346585D01*
X25095238Y-84346585D02*
X25142857Y-84322776D01*
X25142857Y-84322776D02*
X25238095Y-84322776D01*
X25238095Y-84322776D02*
X25285714Y-84346585D01*
X25714285Y-84632300D02*
X25666666Y-84656109D01*
X25666666Y-84656109D02*
X25571428Y-84656109D01*
X25571428Y-84656109D02*
X25523809Y-84632300D01*
X25523809Y-84632300D02*
X25500000Y-84584680D01*
X25500000Y-84584680D02*
X25500000Y-84394204D01*
X25500000Y-84394204D02*
X25523809Y-84346585D01*
X25523809Y-84346585D02*
X25571428Y-84322776D01*
X25571428Y-84322776D02*
X25666666Y-84322776D01*
X25666666Y-84322776D02*
X25714285Y-84346585D01*
X25714285Y-84346585D02*
X25738095Y-84394204D01*
X25738095Y-84394204D02*
X25738095Y-84441823D01*
X25738095Y-84441823D02*
X25500000Y-84489442D01*
%TO.C,J1*%
X29000000Y-85005000D02*
X19000000Y-85005000D01*
%TD*%
M02*
