%TF.GenerationSoftware,KiCad,Pcbnew,10.0.5*%
%TF.CreationDate,2026-09-20T17:08:13+08:00*%
%TF.ProjectId,esp32-board-v1.1,65737033-322d-4626-9f61-72642d76312e,V1.6*%
%TF.SameCoordinates,Original*%
%TF.FileFunction,Copper,L3,Inr*%
%TF.FilePolarity,Positive*%
%FSLAX46Y46*%
G04 Gerber Fmt 4.6, Leading zero omitted, Abs format (unit mm)*
G04 Created by KiCad (PCBNEW 10.0.5) date 2026-09-20 17:08:13*
%MOMM*%
%LPD*%
G01*
G04 APERTURE LIST*
%TA.AperFunction,ComponentPad*%
%ADD10O,1.000000X2.100000*%
%TD*%
%TA.AperFunction,ComponentPad*%
%ADD11O,1.000000X1.800000*%
%TD*%
%TA.AperFunction,HeatsinkPad*%
%ADD12C,0.600000*%
%TD*%
%TA.AperFunction,HeatsinkPad*%
%ADD13C,0.500000*%
%TD*%
%TA.AperFunction,ViaPad*%
%ADD14C,0.800000*%
%TD*%
%TA.AperFunction,ViaPad*%
%ADD15C,0.600000*%
%TD*%
%TA.AperFunction,ViaPad*%
%ADD16C,0.400000*%
%TD*%
%TA.AperFunction,ViaPad*%
%ADD17C,0.500000*%
%TD*%
%TA.AperFunction,ViaPad*%
%ADD18C,0.450000*%
%TD*%
%TA.AperFunction,Conductor*%
%ADD19C,1.200000*%
%TD*%
%TA.AperFunction,Conductor*%
%ADD20C,0.500000*%
%TD*%
%TA.AperFunction,Conductor*%
%ADD21C,0.850000*%
%TD*%
%TA.AperFunction,Conductor*%
%ADD22C,0.650000*%
%TD*%
%TA.AperFunction,Conductor*%
%ADD23C,0.800000*%
%TD*%
%TA.AperFunction,Conductor*%
%ADD24C,0.200000*%
%TD*%
%TA.AperFunction,Conductor*%
%ADD25C,0.240000*%
%TD*%
%TA.AperFunction,Conductor*%
%ADD26C,0.250000*%
%TD*%
G04 APERTURE END LIST*
D10*
%TO.N,USB_SHIELD*%
%TO.C,J1*%
X19680000Y-78225000D03*
D11*
X19680000Y-82405000D03*
D10*
X28320000Y-78225000D03*
D11*
X28320000Y-82405000D03*
%TD*%
D12*
%TO.N,GND*%
%TO.C,U1*%
X24600000Y-14510000D03*
X24600000Y-15910000D03*
X25300000Y-13810000D03*
X25300000Y-15210000D03*
X25300000Y-16610000D03*
X26000000Y-14510000D03*
X26000000Y-15910000D03*
X26700000Y-13810000D03*
X26700000Y-15210000D03*
X26700000Y-16610000D03*
X27400000Y-14510000D03*
X27400000Y-15910000D03*
%TD*%
D13*
%TO.N,GND*%
%TO.C,U2*%
X32900000Y-58900000D03*
X32900000Y-60000000D03*
X32900000Y-61100000D03*
X34000000Y-58900000D03*
X34000000Y-60000000D03*
X34000000Y-61100000D03*
X35100000Y-58900000D03*
X35100000Y-60000000D03*
X35100000Y-61100000D03*
%TD*%
D14*
%TO.N,3V3_MAIN*%
X25200000Y-60900000D03*
X30800000Y-76100000D03*
X21900000Y-44500000D03*
X28900000Y-64500000D03*
X26100000Y-48200000D03*
X30900000Y-80000000D03*
X14000000Y-13100000D03*
X11700000Y-18200000D03*
X20700000Y-27200000D03*
X22800000Y-44300000D03*
X33100000Y-48500000D03*
X37700000Y-13000000D03*
X17300000Y-8800000D03*
X26000000Y-44500000D03*
X12100000Y-11900000D03*
X16400000Y-60700000D03*
X34300000Y-47300000D03*
%TO.N,BAT_BUS*%
X37200000Y-68700000D03*
X31900000Y-67300000D03*
X34200000Y-69000000D03*
X37200000Y-65200000D03*
X22500000Y-70000000D03*
D15*
%TO.N,CHG_CE*%
X31800000Y-26000000D03*
X28100000Y-55600000D03*
X33100000Y-63600000D03*
X25500000Y-59000000D03*
%TO.N,CHG_DSEL*%
X38700000Y-54600000D03*
X32600000Y-57200000D03*
X46700000Y-51500000D03*
%TO.N,CHG_ILIM*%
X34100000Y-63600000D03*
X28800000Y-62300000D03*
%TO.N,CHG_INT_N*%
X29300000Y-61100000D03*
X18200000Y-17600000D03*
%TO.N,CHG_OTG*%
X25200000Y-62500000D03*
X31000000Y-63500000D03*
%TO.N,CHG_STAT*%
X31100000Y-59700000D03*
X26600000Y-57800000D03*
%TO.N,CHG_TS*%
X18600000Y-64200000D03*
X34900000Y-63600000D03*
X39400000Y-54000000D03*
X26000000Y-59600000D03*
D14*
%TO.N,EPD_3V3*%
X17800000Y-43000000D03*
X16500000Y-46400000D03*
X12600000Y-47800000D03*
X3600000Y-40200000D03*
X15400000Y-48400000D03*
X17200000Y-39300000D03*
X8900000Y-42100000D03*
D15*
%TO.N,EPD_BUSY*%
X4700000Y-44900000D03*
X18800000Y-15400000D03*
X19700000Y-44500000D03*
%TO.N,EPD_CS_N*%
X3400000Y-42200000D03*
X24300000Y-26000000D03*
%TO.N,EPD_DC*%
X700000Y-40600000D03*
X17600000Y-24700000D03*
X800000Y-44300000D03*
%TO.N,EPD_GDR*%
X20800000Y-48800000D03*
X24400000Y-49600000D03*
%TO.N,EPD_PWR_EN*%
X19700000Y-45300000D03*
X18800000Y-14100000D03*
%TO.N,EPD_RESE*%
X18900000Y-54500000D03*
X4200000Y-46500000D03*
%TO.N,EPD_RST_N*%
X16300000Y-38700000D03*
X18800000Y-21800000D03*
%TO.N,EPD_VDD*%
X16000000Y-40200000D03*
X700000Y-39200000D03*
%TO.N,EPD_VGH*%
X17000000Y-37900000D03*
X19000000Y-51600000D03*
%TO.N,EPD_VGL*%
X700000Y-36200000D03*
X8200000Y-40100000D03*
X16400000Y-51100000D03*
%TO.N,EPD_VSL*%
X12000000Y-37200000D03*
X3400000Y-37200000D03*
%TO.N,FG_ALRT_N*%
X26900000Y-46100000D03*
X36200000Y-9100000D03*
X18000000Y-61400000D03*
X28700000Y-44300000D03*
%TO.N,GND*%
X15500000Y-67316000D03*
X8400000Y-63500000D03*
X33471500Y-60471500D03*
X10000000Y-10700000D03*
X11500000Y-74244000D03*
X9500000Y-77708000D03*
X13500000Y-60900000D03*
X53500000Y-77708000D03*
X15500000Y-60388000D03*
X27500000Y-81172000D03*
X53500000Y-49996000D03*
X53500000Y-8428000D03*
X43500000Y-4964000D03*
X13500000Y-77708000D03*
X1500000Y-56924000D03*
X1500000Y-8428000D03*
X53500000Y-15356000D03*
X13500000Y-70780000D03*
X34200000Y-71800000D03*
X3500000Y-25748000D03*
X7500000Y-81172000D03*
X35500000Y-81172000D03*
D16*
X24300000Y-72000000D03*
D15*
X45500000Y-70780000D03*
X1500000Y-77708000D03*
X39450500Y-64248700D03*
X45500000Y-1500000D03*
X37974800Y-48873200D03*
X30875000Y-45012500D03*
X49500000Y-8428000D03*
D16*
X3800000Y-45000000D03*
D15*
X39500000Y-4964000D03*
X43500000Y-81172000D03*
D16*
X22200000Y-73000000D03*
D15*
X18800000Y-6500000D03*
X17500000Y-56924000D03*
X5500000Y-56924000D03*
X7500000Y-11892000D03*
X5500000Y-15356000D03*
X15500000Y-4964000D03*
X7500000Y-18820000D03*
X22000000Y-46400000D03*
X9500000Y-63852000D03*
X9500000Y-1500000D03*
X29400000Y-55900000D03*
D17*
X34749800Y-53050500D03*
D15*
X14000000Y-15400000D03*
X3500000Y-18820000D03*
X1500000Y-49996000D03*
X41500000Y-77708000D03*
X5500000Y-1500000D03*
X51500000Y-25748000D03*
X53500000Y-29212000D03*
X11500000Y-25748000D03*
X47500000Y-11892000D03*
X11500000Y-81172000D03*
X9500000Y-22284000D03*
X25500000Y-8428000D03*
X51500000Y-39604000D03*
D17*
X26497200Y-61778000D03*
D15*
X17500000Y-15356000D03*
X47500000Y-81172000D03*
X21500000Y-8428000D03*
X49500000Y-77708000D03*
X1500000Y-1500000D03*
D16*
X46900000Y-54200000D03*
D15*
X10000000Y-7900000D03*
X41500000Y-8428000D03*
X53500000Y-63852000D03*
X52800000Y-12400000D03*
D16*
X900000Y-39900000D03*
D15*
X52800000Y-41200000D03*
X1500000Y-15356000D03*
X14990000Y-10490000D03*
X30800000Y-57300000D03*
X5500000Y-70780000D03*
D16*
X12620000Y-22780000D03*
X19800000Y-54700000D03*
D15*
X1500000Y-29212000D03*
X7500000Y-32676000D03*
X1500000Y-22284000D03*
X47500000Y-74244000D03*
D16*
X30000000Y-61500000D03*
X15550000Y-45800000D03*
D15*
X45500000Y-8428000D03*
D16*
X29800000Y-71100000D03*
D15*
X19710000Y-64820000D03*
X51500000Y-46532000D03*
X7500000Y-67316000D03*
X3500000Y-32676000D03*
X53500000Y-22284000D03*
X49500000Y-1500000D03*
X3500000Y-11892000D03*
X34525000Y-39800000D03*
X1500000Y-70780000D03*
X31500000Y-81172000D03*
X15000000Y-7100000D03*
X5500000Y-8428000D03*
X5500000Y-77708000D03*
X43500000Y-11892000D03*
X7500000Y-25748000D03*
X3500000Y-60388000D03*
X33200000Y-78900000D03*
D16*
X29500000Y-68675000D03*
D15*
X13689800Y-49549700D03*
X17500000Y-81500000D03*
X51500000Y-18820000D03*
X7500000Y-60388000D03*
X29500000Y-77708000D03*
X35437900Y-53599600D03*
X51500000Y-32676000D03*
X51500000Y-4964000D03*
X8400000Y-73500000D03*
X36775500Y-58243900D03*
X3500000Y-4964000D03*
X41500000Y-1500000D03*
X26000000Y-50500000D03*
X11500000Y-67316000D03*
D16*
X13400000Y-43700000D03*
D15*
X23500000Y-81172000D03*
X49500000Y-49996000D03*
X39500000Y-81172000D03*
X15900000Y-63600000D03*
D16*
X22900000Y-32000000D03*
D15*
X15500000Y-18820000D03*
X36200000Y-6500000D03*
X11500000Y-4964000D03*
D16*
X35700000Y-36600000D03*
D15*
X5500000Y-22284000D03*
D16*
X30100000Y-64200000D03*
D15*
X37500000Y-8428000D03*
X33500000Y-8428000D03*
X47500000Y-4964000D03*
X37500000Y-77708000D03*
D16*
X13348100Y-38775500D03*
X9300000Y-45800000D03*
D15*
X53500000Y-1500000D03*
X19500000Y-67316000D03*
X9500000Y-56924000D03*
X1500000Y-63852000D03*
X7500000Y-4964000D03*
X9500000Y-29212000D03*
X51500000Y-11892000D03*
X3500000Y-67316000D03*
X29500000Y-8428000D03*
X33175000Y-82125000D03*
X13500000Y-56924000D03*
D16*
X33800000Y-45000000D03*
D15*
X51500000Y-74244000D03*
X9500000Y-8428000D03*
X13500000Y-1500000D03*
X26908400Y-66791400D03*
X45500000Y-77708000D03*
X53500000Y-36140000D03*
X45500000Y-49996000D03*
D16*
X10300000Y-40000000D03*
D15*
X9500000Y-36140000D03*
X47500000Y-46532000D03*
X49500000Y-70780000D03*
X3500000Y-53460000D03*
X53500000Y-56924000D03*
X5500000Y-29212000D03*
%TO.N,I2C_SCL*%
X15400000Y-61800000D03*
X34200000Y-65600000D03*
X37400000Y-62600000D03*
X31400000Y-46300000D03*
X30700000Y-26000000D03*
X44900000Y-62600000D03*
X32400000Y-27700000D03*
X28100000Y-65500000D03*
X31200000Y-60900000D03*
X31900000Y-42100000D03*
D16*
%TO.N,I2C_SDA*%
X26400000Y-72100000D03*
D15*
X35600000Y-38300000D03*
X35200000Y-51100000D03*
X20700000Y-63000000D03*
D16*
X29200000Y-59200000D03*
X31300000Y-69700000D03*
D15*
X20500000Y-21200000D03*
X32000000Y-54600000D03*
X31200000Y-33900000D03*
D16*
X30900000Y-61500000D03*
X25200000Y-64600000D03*
X26800000Y-63000000D03*
D15*
%TO.N,KEY1_N*%
X48500000Y-13200000D03*
X23800000Y-11700000D03*
%TO.N,KEY2_N*%
X52000000Y-43700000D03*
X20500000Y-13800000D03*
%TO.N,KEY3_N*%
X36700000Y-53500000D03*
X52800000Y-70300000D03*
X13300000Y-17500000D03*
X18000000Y-16400000D03*
%TO.N,RESET_N*%
X18800000Y-10300000D03*
X16600000Y-13400000D03*
%TO.N,SPI_MISO*%
X42000000Y-70200000D03*
X34900000Y-11600000D03*
X37600000Y-11600000D03*
X33600000Y-64200000D03*
%TO.N,SPI_MOSI*%
X700000Y-41400000D03*
X25100000Y-28000000D03*
%TO.N,SPI_SCLK*%
X26900000Y-26000000D03*
X4000000Y-41600000D03*
X7500000Y-44300000D03*
D14*
%TO.N,SYS*%
X37600000Y-40900000D03*
X41100000Y-45700000D03*
X41000000Y-59800000D03*
X32400000Y-65000000D03*
D15*
%TO.N,TF_CD_N*%
X34200000Y-66900000D03*
X36800000Y-10300000D03*
%TO.N,TF_CS_N*%
X43400000Y-69700000D03*
X43400000Y-65600000D03*
X29400000Y-26000000D03*
X32000000Y-77200000D03*
X32900000Y-29500000D03*
X43400000Y-49800000D03*
%TO.N,TF_MOSI*%
X40400000Y-66900000D03*
X30000000Y-44300000D03*
%TO.N,TF_SCLK*%
X42800000Y-70200000D03*
X43800000Y-44300000D03*
%TO.N,TPS_EN*%
X40900000Y-41300000D03*
X32400000Y-42700000D03*
%TO.N,TPS_VAUX*%
X32000000Y-45800000D03*
X29900000Y-45700000D03*
%TO.N,TPS_VSEL*%
X32500000Y-43500000D03*
X29000000Y-47100000D03*
D16*
%TO.N,TYPEC_INT_N*%
X26400000Y-72700000D03*
D15*
X24100000Y-64400000D03*
X25100000Y-51400000D03*
D16*
X31300000Y-70500000D03*
D15*
X21100000Y-22700000D03*
X25800000Y-70100000D03*
%TO.N,USB_CC1*%
X22200000Y-75600000D03*
X27900000Y-69100000D03*
D18*
%TO.N,USB_DN_CONN*%
X22300000Y-74500000D03*
X13400000Y-22500000D03*
X14900000Y-45900000D03*
D14*
%TO.N,USB_VBUS_PROT*%
X16200000Y-77000000D03*
X30200000Y-60700000D03*
%TO.N,USB_VBUS_RAW*%
X26600000Y-76500000D03*
X15500000Y-79100000D03*
X28900000Y-66700000D03*
D15*
X21600000Y-76800000D03*
%TD*%
%TO.N,3V3_MAIN*%
D19*
X12100000Y-11900000D02*
X13100000Y-12900000D01*
D20*
X17400000Y-60700000D02*
X16400000Y-60700000D01*
D19*
X30600000Y-75100000D02*
X30800000Y-75300000D01*
D21*
X30600000Y-67650000D02*
X30600000Y-68000000D01*
D22*
X18500000Y-25000000D02*
X20700000Y-27200000D01*
X17300000Y-23800000D02*
X18100000Y-23800000D01*
X33100000Y-48500000D02*
X34300000Y-47300000D01*
D19*
X30800000Y-76100000D02*
X30800000Y-78900000D01*
X28900000Y-64500000D02*
X30600000Y-66200000D01*
X24200000Y-46300000D02*
X26000000Y-44500000D01*
D20*
X25200000Y-60900000D02*
X18800000Y-60900000D01*
D22*
X18500000Y-24200000D02*
X18500000Y-25000000D01*
D19*
X30600000Y-72600000D02*
X30600000Y-75100000D01*
X30600000Y-66200000D02*
X30600000Y-67650000D01*
D22*
X11700000Y-18200000D02*
X17300000Y-23800000D01*
D19*
X30800000Y-78900000D02*
X30900000Y-79000000D01*
D20*
X30600000Y-68000000D02*
X30600000Y-71200000D01*
D19*
X30900000Y-79000000D02*
X30900000Y-80000000D01*
X22400000Y-44500000D02*
X21900000Y-44500000D01*
X13100000Y-12900000D02*
X13800000Y-12900000D01*
X13800000Y-12900000D02*
X14000000Y-13100000D01*
D20*
X18500000Y-60600000D02*
X17500000Y-60600000D01*
X17500000Y-60600000D02*
X17400000Y-60700000D01*
X18800000Y-60900000D02*
X18500000Y-60600000D01*
D19*
X26100000Y-48200000D02*
X22400000Y-44500000D01*
D22*
X18100000Y-23800000D02*
X18500000Y-24200000D01*
D20*
X30600000Y-71200000D02*
X30600000Y-72600000D01*
D19*
X30800000Y-75300000D02*
X30800000Y-76100000D01*
%TO.N,BAT_BUS*%
D23*
X33900000Y-68700000D02*
X33400000Y-68700000D01*
X31900000Y-67400000D02*
X31900000Y-67300000D01*
X34200000Y-69000000D02*
X33900000Y-68700000D01*
X32000000Y-67400000D02*
X31900000Y-67400000D01*
X33400000Y-68700000D02*
X33300000Y-68600000D01*
X33300000Y-68600000D02*
X33200000Y-68600000D01*
X33200000Y-68600000D02*
X32000000Y-67400000D01*
%TO.N,CHG_CE*%
D24*
X25500000Y-59100000D02*
X25400000Y-59200000D01*
X25500000Y-59000000D02*
X25500000Y-59100000D01*
X25400000Y-59200000D02*
X25400000Y-60000000D01*
X25400000Y-60000000D02*
X25500000Y-60100000D01*
X25700000Y-60100000D02*
X25700000Y-60200000D01*
X32400000Y-62900000D02*
X33100000Y-63600000D01*
X25700000Y-60200000D02*
X28400000Y-62900000D01*
X28400000Y-62900000D02*
X32400000Y-62900000D01*
X25500000Y-60100000D02*
X25700000Y-60100000D01*
%TO.N,CHG_DSEL*%
X36100000Y-57200000D02*
X32600000Y-57200000D01*
X38700000Y-54600000D02*
X36100000Y-57200000D01*
%TO.N,CHG_INT_N*%
X27500000Y-58200000D02*
X27500000Y-25500000D01*
X18600000Y-17600000D02*
X18200000Y-17600000D01*
X19700000Y-17800000D02*
X18800000Y-17800000D01*
X18800000Y-17800000D02*
X18600000Y-17600000D01*
X29300000Y-61100000D02*
X28600000Y-60400000D01*
X27500000Y-25500000D02*
X27400000Y-25500000D01*
X28600000Y-60400000D02*
X28600000Y-59300000D01*
X28600000Y-59300000D02*
X27500000Y-58200000D01*
X27400000Y-25500000D02*
X19700000Y-17800000D01*
%TO.N,CHG_OTG*%
X30900000Y-63400000D02*
X31000000Y-63500000D01*
X28200000Y-63400000D02*
X30900000Y-63400000D01*
X27300000Y-62500000D02*
X28200000Y-63400000D01*
X25200000Y-62500000D02*
X27300000Y-62500000D01*
%TO.N,CHG_TS*%
X39400000Y-57700000D02*
X39400000Y-54000000D01*
X34300000Y-62800000D02*
X39400000Y-57700000D01*
X34800000Y-63500000D02*
X34900000Y-63600000D01*
X29500000Y-62000000D02*
X33500000Y-62000000D01*
X34800000Y-63300000D02*
X34800000Y-63500000D01*
X33500000Y-62000000D02*
X34800000Y-63300000D01*
X26000000Y-59600000D02*
X28100000Y-61700000D01*
X29200000Y-61700000D02*
X29500000Y-62000000D01*
X28100000Y-61700000D02*
X29200000Y-61700000D01*
%TO.N,EPD_BUSY*%
X13200000Y-44500000D02*
X19700000Y-44500000D01*
X13000000Y-44700000D02*
X13200000Y-44500000D01*
X7900000Y-44900000D02*
X8100000Y-44700000D01*
X8100000Y-44700000D02*
X13000000Y-44700000D01*
X4700000Y-44900000D02*
X7900000Y-44900000D01*
%TO.N,EPD_CS_N*%
X6200000Y-43200000D02*
X8100000Y-41300000D01*
X11600000Y-41200000D02*
X15600000Y-37200000D01*
X8100000Y-41300000D02*
X8900000Y-41300000D01*
X15600000Y-37200000D02*
X23100000Y-37200000D01*
X3400000Y-43100000D02*
X3600000Y-43300000D01*
X3600000Y-43300000D02*
X4400000Y-43300000D01*
X8900000Y-41300000D02*
X9000000Y-41200000D01*
X3400000Y-42200000D02*
X3400000Y-43100000D01*
X24300000Y-36000000D02*
X24300000Y-26000000D01*
X23100000Y-37200000D02*
X24300000Y-36000000D01*
X4500000Y-43200000D02*
X6200000Y-43200000D01*
X9000000Y-41200000D02*
X11600000Y-41200000D01*
X4400000Y-43300000D02*
X4500000Y-43200000D01*
%TO.N,EPD_DC*%
X2700000Y-40600000D02*
X3000000Y-40900000D01*
X3200000Y-40900000D02*
X3200000Y-41000000D01*
X3000000Y-40900000D02*
X3200000Y-40900000D01*
X17600000Y-30400000D02*
X17600000Y-24700000D01*
X3200000Y-41000000D02*
X3900000Y-41000000D01*
X4100000Y-40800000D02*
X8500000Y-40800000D01*
X8500000Y-40800000D02*
X8600000Y-40700000D01*
X11100000Y-38300000D02*
X11100000Y-36900000D01*
X8600000Y-40700000D02*
X8700000Y-40700000D01*
X11100000Y-36900000D02*
X17600000Y-30400000D01*
X8700000Y-40700000D02*
X11100000Y-38300000D01*
X3900000Y-41000000D02*
X4100000Y-40800000D01*
X700000Y-40600000D02*
X2700000Y-40600000D01*
%TO.N,EPD_VGL*%
X1300000Y-36800000D02*
X700000Y-36200000D01*
X1900000Y-36800000D02*
X1300000Y-36800000D01*
X2900000Y-37800000D02*
X1900000Y-36800000D01*
X8200000Y-40100000D02*
X6000000Y-37900000D01*
X6000000Y-37900000D02*
X3100000Y-37900000D01*
X3000000Y-37800000D02*
X2900000Y-37800000D01*
X3100000Y-37900000D02*
X3000000Y-37800000D01*
%TO.N,FG_ALRT_N*%
X36200000Y-36800000D02*
X36200000Y-9100000D01*
X28700000Y-44300000D02*
X36200000Y-36800000D01*
%TO.N,I2C_SCL*%
X17400000Y-61800000D02*
X15400000Y-61800000D01*
X23700000Y-62000000D02*
X17600000Y-62000000D01*
X32400000Y-27700000D02*
X30700000Y-26000000D01*
X28100000Y-65500000D02*
X25700000Y-63100000D01*
X25700000Y-63100000D02*
X24800000Y-63100000D01*
X37400000Y-62600000D02*
X34200000Y-65600000D01*
X17600000Y-62000000D02*
X17400000Y-61800000D01*
X31500000Y-42500000D02*
X31900000Y-42100000D01*
X31400000Y-45300000D02*
X31500000Y-45300000D01*
X31500000Y-45300000D02*
X31500000Y-42500000D01*
X31400000Y-46300000D02*
X31400000Y-45300000D01*
X24800000Y-63100000D02*
X23700000Y-62000000D01*
%TO.N,I2C_SDA*%
X31500000Y-59100000D02*
X30700000Y-59100000D01*
X35200000Y-51100000D02*
X35400000Y-38500000D01*
X29200000Y-58000000D02*
X29200000Y-59200000D01*
X31000000Y-56200000D02*
X29200000Y-58000000D01*
X30600000Y-59200000D02*
X29200000Y-59200000D01*
X31700000Y-60400000D02*
X31700000Y-59300000D01*
X31800000Y-60500000D02*
X31700000Y-60400000D01*
X30700000Y-59100000D02*
X30600000Y-59200000D01*
X26300000Y-65700000D02*
X26300000Y-69000000D01*
X25200000Y-64600000D02*
X26300000Y-65700000D01*
X31000000Y-55600000D02*
X31000000Y-56200000D01*
X31600000Y-61500000D02*
X31800000Y-61300000D01*
X26300000Y-69000000D02*
X26400000Y-69100000D01*
X35400000Y-38500000D02*
X35600000Y-38300000D01*
X31800000Y-61300000D02*
X31800000Y-60500000D01*
X32000000Y-54600000D02*
X31000000Y-55600000D01*
X30900000Y-61500000D02*
X31600000Y-61500000D01*
X26400000Y-69100000D02*
X26400000Y-72100000D01*
X31700000Y-59300000D02*
X31500000Y-59100000D01*
%TO.N,KEY3_N*%
X28100000Y-43900000D02*
X28100000Y-44700000D01*
X28200000Y-43800000D02*
X28100000Y-43900000D01*
X28700000Y-18300000D02*
X28700000Y-36000000D01*
X19300000Y-17300000D02*
X27700000Y-17300000D01*
X28700000Y-36000000D02*
X28200000Y-36500000D01*
X27700000Y-17300000D02*
X28700000Y-18300000D01*
X18000000Y-16400000D02*
X18700000Y-17100000D01*
X29200000Y-45800000D02*
X29200000Y-45900000D01*
X28100000Y-44700000D02*
X29200000Y-45800000D01*
X18700000Y-17100000D02*
X19100000Y-17100000D01*
X19100000Y-17100000D02*
X19300000Y-17300000D01*
X28200000Y-36500000D02*
X28200000Y-43800000D01*
X29300000Y-46100000D02*
X36700000Y-53500000D01*
X29200000Y-45900000D02*
X29300000Y-46000000D01*
X29300000Y-46000000D02*
X29300000Y-46100000D01*
%TO.N,SPI_MISO*%
X41000000Y-44400000D02*
X41000000Y-44100000D01*
X42000000Y-70200000D02*
X41900000Y-70100000D01*
X40900000Y-43900000D02*
X38500000Y-41500000D01*
X41000000Y-44100000D02*
X40900000Y-44000000D01*
X38500000Y-12600000D02*
X37600000Y-11700000D01*
X41900000Y-70100000D02*
X41900000Y-45300000D01*
X40900000Y-44000000D02*
X40900000Y-43900000D01*
X38500000Y-41500000D02*
X38500000Y-12600000D01*
X41900000Y-45300000D02*
X41000000Y-44400000D01*
X37600000Y-11700000D02*
X37600000Y-11600000D01*
%TO.N,SPI_MOSI*%
X8400000Y-43700000D02*
X10400000Y-41700000D01*
X24600000Y-37700000D02*
X25100000Y-37200000D01*
X19900000Y-37700000D02*
X24600000Y-37700000D01*
X700000Y-41400000D02*
X3000000Y-43700000D01*
X3000000Y-43700000D02*
X8400000Y-43700000D01*
X25100000Y-37200000D02*
X25100000Y-28000000D01*
X15900000Y-41700000D02*
X19900000Y-37700000D01*
X10400000Y-41700000D02*
X15900000Y-41700000D01*
%TO.N,SPI_SCLK*%
X26900000Y-36700000D02*
X26900000Y-26000000D01*
X7600000Y-44200000D02*
X10700000Y-44200000D01*
X20200000Y-42200000D02*
X24200000Y-38200000D01*
X24200000Y-38200000D02*
X25400000Y-38200000D01*
X12700000Y-42200000D02*
X20200000Y-42200000D01*
X25400000Y-38200000D02*
X26900000Y-36700000D01*
X10700000Y-44200000D02*
X12700000Y-42200000D01*
X7500000Y-44300000D02*
X7600000Y-44200000D01*
%TO.N,SYS*%
D20*
X41200000Y-45800000D02*
X41100000Y-45700000D01*
X37600000Y-40900000D02*
X37800000Y-41100000D01*
X33400000Y-67400000D02*
X33700000Y-67700000D01*
X37900000Y-41800000D02*
X37900000Y-41900000D01*
X33700000Y-67700000D02*
X34900000Y-67700000D01*
X40300000Y-44300000D02*
X40300000Y-44600000D01*
X37800000Y-41100000D02*
X37800000Y-41700000D01*
X40400000Y-44700000D02*
X40400000Y-44800000D01*
X33400000Y-66000000D02*
X33400000Y-67400000D01*
X40300000Y-44600000D02*
X40400000Y-44700000D01*
X37900000Y-41900000D02*
X40300000Y-44300000D01*
X41200000Y-69000000D02*
X41200000Y-45800000D01*
X32400000Y-65000000D02*
X33400000Y-66000000D01*
X34900000Y-67700000D02*
X38200000Y-71000000D01*
X39200000Y-71000000D02*
X41200000Y-69000000D01*
X37800000Y-41700000D02*
X37900000Y-41800000D01*
X40400000Y-44800000D02*
X41000000Y-45400000D01*
X41200000Y-59800000D02*
X41000000Y-59800000D01*
D19*
X38200000Y-71000000D02*
X39200000Y-71000000D01*
%TO.N,TF_CD_N*%
D24*
X40000000Y-53600000D02*
X37200000Y-50800000D01*
X39700000Y-63300000D02*
X39900000Y-63100000D01*
X40000000Y-54400000D02*
X40000000Y-53600000D01*
X34200000Y-66900000D02*
X37800000Y-63300000D01*
X37800000Y-63300000D02*
X39700000Y-63300000D01*
X39900000Y-54500000D02*
X40000000Y-54400000D01*
X37200000Y-50800000D02*
X37200000Y-45800000D01*
X39900000Y-63100000D02*
X39900000Y-54500000D01*
X36800000Y-45400000D02*
X36800000Y-10300000D01*
X37200000Y-45800000D02*
X36800000Y-45400000D01*
%TO.N,TF_CS_N*%
X43400000Y-70600000D02*
X36800000Y-77200000D01*
X32900000Y-29500000D02*
X29400000Y-26000000D01*
X36800000Y-77200000D02*
X32000000Y-77200000D01*
X43400000Y-65600000D02*
X43400000Y-49800000D01*
X43400000Y-69700000D02*
X43400000Y-70600000D01*
%TO.N,TF_SCLK*%
X42800000Y-70200000D02*
X42800000Y-45300000D01*
X42800000Y-45300000D02*
X43800000Y-44300000D01*
%TO.N,TYPEC_INT_N*%
X24100000Y-68400000D02*
X24100000Y-64400000D01*
X25800000Y-70100000D02*
X24100000Y-68400000D01*
%TO.N,USB_DN_CONN*%
D25*
X16100000Y-66900000D02*
X14600000Y-65400000D01*
X14600000Y-65400000D02*
X14600000Y-46200000D01*
X14600000Y-46200000D02*
X14900000Y-45900000D01*
X16100000Y-68300000D02*
X16100000Y-66900000D01*
X22300000Y-74500000D02*
X16100000Y-68300000D01*
%TO.N,USB_VBUS_RAW*%
D20*
X28800000Y-66800000D02*
X28900000Y-66700000D01*
X27600000Y-67400000D02*
X28200000Y-66800000D01*
D23*
X27100000Y-68600000D02*
X27500000Y-68200000D01*
X26600000Y-76500000D02*
X27100000Y-76000000D01*
D20*
X27100000Y-76000000D02*
X27100000Y-68600000D01*
D26*
X19200000Y-76800000D02*
X26300000Y-76800000D01*
D20*
X28200000Y-66800000D02*
X28800000Y-66800000D01*
D23*
X27500000Y-68200000D02*
X27500000Y-67600000D01*
X26300000Y-76800000D02*
X26600000Y-76500000D01*
D26*
X15500000Y-79100000D02*
X17000000Y-77600000D01*
D23*
X27500000Y-67600000D02*
X27600000Y-67500000D01*
X27600000Y-67500000D02*
X27600000Y-67400000D01*
D26*
X18400000Y-77600000D02*
X19200000Y-76800000D01*
X17000000Y-77600000D02*
X18400000Y-77600000D01*
%TD*%
%TA.AperFunction,Conductor*%
%TO.N,GND*%
G36*
X15943039Y-419685D02*
G01*
X15988794Y-472489D01*
X16000000Y-524000D01*
X16000000Y-6000000D01*
X39000000Y-6000000D01*
X39000000Y-2901577D01*
X50749500Y-2901577D01*
X50749500Y-3098422D01*
X50780290Y-3292826D01*
X50841117Y-3480029D01*
X50930476Y-3655405D01*
X51046172Y-3814646D01*
X51185354Y-3953828D01*
X51344595Y-4069524D01*
X51427455Y-4111743D01*
X51519970Y-4158882D01*
X51519972Y-4158882D01*
X51519975Y-4158884D01*
X51620317Y-4191487D01*
X51707173Y-4219709D01*
X51901578Y-4250500D01*
X51901583Y-4250500D01*
X52098422Y-4250500D01*
X52292826Y-4219709D01*
X52480025Y-4158884D01*
X52655405Y-4069524D01*
X52814646Y-3953828D01*
X52953828Y-3814646D01*
X53069524Y-3655405D01*
X53158884Y-3480025D01*
X53219709Y-3292826D01*
X53250500Y-3098422D01*
X53250500Y-2901577D01*
X53219709Y-2707173D01*
X53158882Y-2519970D01*
X53069523Y-2344594D01*
X52953828Y-2185354D01*
X52814646Y-2046172D01*
X52655405Y-1930476D01*
X52480029Y-1841117D01*
X52292826Y-1780290D01*
X52098422Y-1749500D01*
X52098417Y-1749500D01*
X51901583Y-1749500D01*
X51901578Y-1749500D01*
X51707173Y-1780290D01*
X51519970Y-1841117D01*
X51344594Y-1930476D01*
X51303356Y-1960438D01*
X51185354Y-2046172D01*
X51185352Y-2046174D01*
X51185351Y-2046174D01*
X51046174Y-2185351D01*
X51046174Y-2185352D01*
X51046172Y-2185354D01*
X50996485Y-2253741D01*
X50930476Y-2344594D01*
X50841117Y-2519970D01*
X50780290Y-2707173D01*
X50749500Y-2901577D01*
X39000000Y-2901577D01*
X39000000Y-524000D01*
X39019685Y-456961D01*
X39072489Y-411206D01*
X39124000Y-400000D01*
X53538592Y-400000D01*
X53581925Y-407818D01*
X53697676Y-450993D01*
X53713765Y-458341D01*
X53911023Y-566054D01*
X53925905Y-575618D01*
X54105823Y-710304D01*
X54105825Y-710305D01*
X54119195Y-721891D01*
X54278108Y-880804D01*
X54289694Y-894174D01*
X54424380Y-1074093D01*
X54433945Y-1088976D01*
X54541657Y-1286232D01*
X54549006Y-1302324D01*
X54592181Y-1418072D01*
X54600000Y-1461408D01*
X54600000Y-82538630D01*
X54592181Y-82581964D01*
X54549016Y-82697691D01*
X54541667Y-82713784D01*
X54433960Y-82911036D01*
X54424395Y-82925919D01*
X54289711Y-83105836D01*
X54278125Y-83119207D01*
X54119207Y-83278125D01*
X54105836Y-83289711D01*
X53925919Y-83424395D01*
X53911036Y-83433960D01*
X53713784Y-83541668D01*
X53697691Y-83549018D01*
X53671299Y-83558862D01*
X53581964Y-83592182D01*
X53538632Y-83600000D01*
X28799838Y-83600000D01*
X28732799Y-83580315D01*
X28687044Y-83527511D01*
X28677100Y-83458353D01*
X28706125Y-83394797D01*
X28730948Y-83372898D01*
X28755795Y-83356294D01*
X28766542Y-83349114D01*
X28864114Y-83251542D01*
X28940775Y-83136811D01*
X28993580Y-83009328D01*
X29002389Y-82965041D01*
X29020500Y-82873995D01*
X29020500Y-81936004D01*
X28993581Y-81800677D01*
X28993580Y-81800676D01*
X28993580Y-81800672D01*
X28993578Y-81800667D01*
X28940778Y-81673195D01*
X28940771Y-81673182D01*
X28864114Y-81558458D01*
X28864111Y-81558454D01*
X28766545Y-81460888D01*
X28766541Y-81460885D01*
X28651817Y-81384228D01*
X28651804Y-81384221D01*
X28524332Y-81331421D01*
X28524322Y-81331418D01*
X28388995Y-81304500D01*
X28388993Y-81304500D01*
X28251007Y-81304500D01*
X28251005Y-81304500D01*
X28115677Y-81331418D01*
X28115667Y-81331421D01*
X27988195Y-81384221D01*
X27988182Y-81384228D01*
X27873458Y-81460885D01*
X27873454Y-81460888D01*
X27775888Y-81558454D01*
X27775885Y-81558458D01*
X27699228Y-81673182D01*
X27699221Y-81673195D01*
X27646421Y-81800667D01*
X27646418Y-81800677D01*
X27619500Y-81936004D01*
X27619500Y-81936007D01*
X27619500Y-82873993D01*
X27619500Y-82873995D01*
X27619499Y-82873995D01*
X27646418Y-83009322D01*
X27646421Y-83009332D01*
X27699221Y-83136804D01*
X27699228Y-83136817D01*
X27775885Y-83251541D01*
X27775888Y-83251545D01*
X27873454Y-83349111D01*
X27873462Y-83349117D01*
X27909052Y-83372898D01*
X27953858Y-83426510D01*
X27962565Y-83495835D01*
X27932411Y-83558862D01*
X27872968Y-83595582D01*
X27840162Y-83600000D01*
X20159838Y-83600000D01*
X20092799Y-83580315D01*
X20047044Y-83527511D01*
X20037100Y-83458353D01*
X20066125Y-83394797D01*
X20090948Y-83372898D01*
X20115795Y-83356294D01*
X20126542Y-83349114D01*
X20224114Y-83251542D01*
X20300775Y-83136811D01*
X20353580Y-83009328D01*
X20362389Y-82965041D01*
X20380500Y-82873995D01*
X20380500Y-81936004D01*
X20353581Y-81800677D01*
X20353580Y-81800676D01*
X20353580Y-81800672D01*
X20353578Y-81800667D01*
X20300778Y-81673195D01*
X20300771Y-81673182D01*
X20224114Y-81558458D01*
X20224111Y-81558454D01*
X20126545Y-81460888D01*
X20126541Y-81460885D01*
X20011817Y-81384228D01*
X20011804Y-81384221D01*
X19884332Y-81331421D01*
X19884322Y-81331418D01*
X19748995Y-81304500D01*
X19748993Y-81304500D01*
X19611007Y-81304500D01*
X19611005Y-81304500D01*
X19475677Y-81331418D01*
X19475667Y-81331421D01*
X19348195Y-81384221D01*
X19348182Y-81384228D01*
X19233458Y-81460885D01*
X19233454Y-81460888D01*
X19135888Y-81558454D01*
X19135885Y-81558458D01*
X19059228Y-81673182D01*
X19059221Y-81673195D01*
X19006421Y-81800667D01*
X19006418Y-81800677D01*
X18979500Y-81936004D01*
X18979500Y-81936007D01*
X18979500Y-82873993D01*
X18979500Y-82873995D01*
X18979499Y-82873995D01*
X19006418Y-83009322D01*
X19006421Y-83009332D01*
X19059221Y-83136804D01*
X19059228Y-83136817D01*
X19135885Y-83251541D01*
X19135888Y-83251545D01*
X19233454Y-83349111D01*
X19233462Y-83349117D01*
X19269052Y-83372898D01*
X19313858Y-83426510D01*
X19322565Y-83495835D01*
X19292411Y-83558862D01*
X19232968Y-83595582D01*
X19200162Y-83600000D01*
X1461407Y-83600000D01*
X1418072Y-83592181D01*
X1302325Y-83549008D01*
X1286232Y-83541659D01*
X1088975Y-83433946D01*
X1074092Y-83424381D01*
X894173Y-83289695D01*
X880803Y-83278109D01*
X721890Y-83119196D01*
X710304Y-83105826D01*
X575618Y-82925907D01*
X566053Y-82911024D01*
X545832Y-82873993D01*
X458338Y-82713763D01*
X450995Y-82697684D01*
X407817Y-82581925D01*
X400000Y-82538592D01*
X400000Y-80901577D01*
X1749500Y-80901577D01*
X1749500Y-81098422D01*
X1780290Y-81292826D01*
X1841117Y-81480029D01*
X1881077Y-81558454D01*
X1930476Y-81655405D01*
X2046172Y-81814646D01*
X2185354Y-81953828D01*
X2344595Y-82069524D01*
X2427455Y-82111743D01*
X2519970Y-82158882D01*
X2519972Y-82158882D01*
X2519975Y-82158884D01*
X2620317Y-82191487D01*
X2707173Y-82219709D01*
X2901578Y-82250500D01*
X2901583Y-82250500D01*
X3098422Y-82250500D01*
X3292826Y-82219709D01*
X3480025Y-82158884D01*
X3655405Y-82069524D01*
X3814646Y-81953828D01*
X3953828Y-81814646D01*
X4069524Y-81655405D01*
X4158884Y-81480025D01*
X4219709Y-81292826D01*
X4250500Y-81098422D01*
X4250500Y-80901577D01*
X50749500Y-80901577D01*
X50749500Y-81098422D01*
X50780290Y-81292826D01*
X50841117Y-81480029D01*
X50881077Y-81558454D01*
X50930476Y-81655405D01*
X51046172Y-81814646D01*
X51185354Y-81953828D01*
X51344595Y-82069524D01*
X51427455Y-82111743D01*
X51519970Y-82158882D01*
X51519972Y-82158882D01*
X51519975Y-82158884D01*
X51620317Y-82191487D01*
X51707173Y-82219709D01*
X51901578Y-82250500D01*
X51901583Y-82250500D01*
X52098422Y-82250500D01*
X52292826Y-82219709D01*
X52480025Y-82158884D01*
X52655405Y-82069524D01*
X52814646Y-81953828D01*
X52953828Y-81814646D01*
X53069524Y-81655405D01*
X53158884Y-81480025D01*
X53219709Y-81292826D01*
X53250500Y-81098422D01*
X53250500Y-80901577D01*
X53219709Y-80707173D01*
X53158882Y-80519970D01*
X53087145Y-80379179D01*
X53069524Y-80344595D01*
X52953828Y-80185354D01*
X52814646Y-80046172D01*
X52655405Y-79930476D01*
X52480029Y-79841117D01*
X52292826Y-79780290D01*
X52098422Y-79749500D01*
X52098417Y-79749500D01*
X51901583Y-79749500D01*
X51901578Y-79749500D01*
X51707173Y-79780290D01*
X51519970Y-79841117D01*
X51344594Y-79930476D01*
X51253741Y-79996485D01*
X51185354Y-80046172D01*
X51185352Y-80046174D01*
X51185351Y-80046174D01*
X51046174Y-80185351D01*
X51046174Y-80185352D01*
X51046172Y-80185354D01*
X51011200Y-80233489D01*
X50930476Y-80344594D01*
X50841117Y-80519970D01*
X50780290Y-80707173D01*
X50749500Y-80901577D01*
X4250500Y-80901577D01*
X4219709Y-80707173D01*
X4158882Y-80519970D01*
X4087145Y-80379179D01*
X4069524Y-80344595D01*
X3953828Y-80185354D01*
X3814646Y-80046172D01*
X3655405Y-79930476D01*
X3480029Y-79841117D01*
X3292826Y-79780290D01*
X3098422Y-79749500D01*
X3098417Y-79749500D01*
X2901583Y-79749500D01*
X2901578Y-79749500D01*
X2707173Y-79780290D01*
X2519970Y-79841117D01*
X2344594Y-79930476D01*
X2253741Y-79996485D01*
X2185354Y-80046172D01*
X2185352Y-80046174D01*
X2185351Y-80046174D01*
X2046174Y-80185351D01*
X2046174Y-80185352D01*
X2046172Y-80185354D01*
X2011200Y-80233489D01*
X1930476Y-80344594D01*
X1841117Y-80519970D01*
X1780290Y-80707173D01*
X1749500Y-80901577D01*
X400000Y-80901577D01*
X400000Y-47720943D01*
X11999500Y-47720943D01*
X11999500Y-47879057D01*
X12040289Y-48031282D01*
X12040423Y-48031783D01*
X12040426Y-48031790D01*
X12119475Y-48168709D01*
X12119479Y-48168714D01*
X12119480Y-48168716D01*
X12231284Y-48280520D01*
X12231286Y-48280521D01*
X12231290Y-48280524D01*
X12323236Y-48333608D01*
X12368216Y-48359577D01*
X12520943Y-48400500D01*
X12520945Y-48400500D01*
X12679055Y-48400500D01*
X12679057Y-48400500D01*
X12831784Y-48359577D01*
X12968716Y-48280520D01*
X13080520Y-48168716D01*
X13159577Y-48031784D01*
X13200500Y-47879057D01*
X13200500Y-47720943D01*
X13159577Y-47568216D01*
X13120480Y-47500497D01*
X13080524Y-47431290D01*
X13080518Y-47431282D01*
X12968717Y-47319481D01*
X12968709Y-47319475D01*
X12831790Y-47240426D01*
X12831786Y-47240424D01*
X12831784Y-47240423D01*
X12679057Y-47199500D01*
X12520943Y-47199500D01*
X12368216Y-47240423D01*
X12368209Y-47240426D01*
X12231290Y-47319475D01*
X12231282Y-47319481D01*
X12119481Y-47431282D01*
X12119475Y-47431290D01*
X12040426Y-47568209D01*
X12040423Y-47568216D01*
X11999500Y-47720943D01*
X400000Y-47720943D01*
X400000Y-46434108D01*
X3699500Y-46434108D01*
X3699500Y-46565892D01*
X3716554Y-46629539D01*
X3733608Y-46693187D01*
X3760880Y-46740423D01*
X3799500Y-46807314D01*
X3892686Y-46900500D01*
X4006814Y-46966392D01*
X4134108Y-47000500D01*
X4134110Y-47000500D01*
X4265890Y-47000500D01*
X4265892Y-47000500D01*
X4393186Y-46966392D01*
X4507314Y-46900500D01*
X4600500Y-46807314D01*
X4666392Y-46693186D01*
X4700500Y-46565892D01*
X4700500Y-46434108D01*
X4666392Y-46306814D01*
X4600500Y-46192686D01*
X4507314Y-46099500D01*
X4446235Y-46064236D01*
X4393187Y-46033608D01*
X4327430Y-46015989D01*
X4265892Y-45999500D01*
X4134108Y-45999500D01*
X4006812Y-46033608D01*
X3892686Y-46099500D01*
X3892683Y-46099502D01*
X3799502Y-46192683D01*
X3799500Y-46192686D01*
X3733608Y-46306812D01*
X3699500Y-46434108D01*
X400000Y-46434108D01*
X400000Y-44861762D01*
X419685Y-44794723D01*
X472489Y-44748968D01*
X541647Y-44739024D01*
X586002Y-44754376D01*
X606811Y-44766391D01*
X606813Y-44766391D01*
X606814Y-44766392D01*
X734108Y-44800500D01*
X734110Y-44800500D01*
X865890Y-44800500D01*
X865892Y-44800500D01*
X993186Y-44766392D01*
X1107314Y-44700500D01*
X1200500Y-44607314D01*
X1266392Y-44493186D01*
X1300500Y-44365892D01*
X1300500Y-44234108D01*
X1266392Y-44106814D01*
X1264473Y-44103491D01*
X1239617Y-44060439D01*
X1200500Y-43992686D01*
X1107314Y-43899500D01*
X1019768Y-43848955D01*
X993187Y-43833608D01*
X927430Y-43815989D01*
X865892Y-43799500D01*
X734108Y-43799500D01*
X606811Y-43833608D01*
X585999Y-43845625D01*
X518099Y-43862096D01*
X452072Y-43839244D01*
X408882Y-43784322D01*
X400000Y-43738237D01*
X400000Y-41999370D01*
X419685Y-41932331D01*
X472489Y-41886576D01*
X541647Y-41876632D01*
X556071Y-41879590D01*
X634108Y-41900500D01*
X634111Y-41900500D01*
X724167Y-41900500D01*
X791206Y-41920185D01*
X811848Y-41936819D01*
X2759540Y-43884511D01*
X2815489Y-43940460D01*
X2815491Y-43940461D01*
X2815495Y-43940464D01*
X2884004Y-43980017D01*
X2884011Y-43980021D01*
X2960438Y-44000500D01*
X3039562Y-44000500D01*
X6900495Y-44000500D01*
X6967534Y-44020185D01*
X7013289Y-44072989D01*
X7023233Y-44142147D01*
X7020270Y-44156591D01*
X6999500Y-44234108D01*
X6999500Y-44365892D01*
X7014307Y-44421153D01*
X7020270Y-44443407D01*
X7018607Y-44513257D01*
X6979444Y-44571119D01*
X6915216Y-44598623D01*
X6900495Y-44599500D01*
X5158676Y-44599500D01*
X5091637Y-44579815D01*
X5070995Y-44563181D01*
X5007316Y-44499502D01*
X5007314Y-44499500D01*
X4922070Y-44450284D01*
X4893187Y-44433608D01*
X4811972Y-44411847D01*
X4765892Y-44399500D01*
X4634108Y-44399500D01*
X4506812Y-44433608D01*
X4392686Y-44499500D01*
X4392683Y-44499502D01*
X4299502Y-44592683D01*
X4299500Y-44592686D01*
X4233608Y-44706812D01*
X4210053Y-44794723D01*
X4199500Y-44834108D01*
X4199500Y-44965892D01*
X4211396Y-45010288D01*
X4233608Y-45093187D01*
X4260902Y-45140460D01*
X4299500Y-45207314D01*
X4392686Y-45300500D01*
X4491521Y-45357563D01*
X4505944Y-45365890D01*
X4506814Y-45366392D01*
X4634108Y-45400500D01*
X4634110Y-45400500D01*
X4765890Y-45400500D01*
X4765892Y-45400500D01*
X4893186Y-45366392D01*
X5007314Y-45300500D01*
X5070995Y-45236819D01*
X5132318Y-45203334D01*
X5158676Y-45200500D01*
X7939560Y-45200500D01*
X7939562Y-45200500D01*
X8015989Y-45180021D01*
X8084511Y-45140460D01*
X8140460Y-45084511D01*
X8188152Y-45036819D01*
X8249475Y-45003334D01*
X8275833Y-45000500D01*
X13039560Y-45000500D01*
X13039562Y-45000500D01*
X13115989Y-44980021D01*
X13184511Y-44940460D01*
X13240460Y-44884511D01*
X13288152Y-44836819D01*
X13349475Y-44803334D01*
X13375833Y-44800500D01*
X19195685Y-44800500D01*
X19262724Y-44820185D01*
X19308479Y-44872989D01*
X19318423Y-44942147D01*
X19303072Y-44986501D01*
X19299502Y-44992683D01*
X19299500Y-44992686D01*
X19269509Y-45044630D01*
X19233608Y-45106812D01*
X19213992Y-45180021D01*
X19199500Y-45234108D01*
X19199500Y-45365892D01*
X19206681Y-45392692D01*
X19233608Y-45493187D01*
X19246776Y-45515994D01*
X19299500Y-45607314D01*
X19392686Y-45700500D01*
X19491521Y-45757563D01*
X19505944Y-45765890D01*
X19506814Y-45766392D01*
X19634108Y-45800500D01*
X19634110Y-45800500D01*
X19765890Y-45800500D01*
X19765892Y-45800500D01*
X19893186Y-45766392D01*
X20007314Y-45700500D01*
X20100500Y-45607314D01*
X20166392Y-45493186D01*
X20200500Y-45365892D01*
X20200500Y-45234108D01*
X20166392Y-45106814D01*
X20100500Y-44992686D01*
X20095495Y-44987681D01*
X20062010Y-44926358D01*
X20066994Y-44856666D01*
X20095495Y-44812319D01*
X20100500Y-44807314D01*
X20166392Y-44693186D01*
X20200500Y-44565892D01*
X20200500Y-44434108D01*
X20197029Y-44421153D01*
X21099500Y-44421153D01*
X21099500Y-44578846D01*
X21130261Y-44733489D01*
X21130264Y-44733501D01*
X21190602Y-44879172D01*
X21190609Y-44879185D01*
X21278210Y-45010288D01*
X21278213Y-45010292D01*
X21389707Y-45121786D01*
X21389711Y-45121789D01*
X21520814Y-45209390D01*
X21520827Y-45209397D01*
X21644053Y-45260438D01*
X21666503Y-45269737D01*
X21816131Y-45299500D01*
X21821153Y-45300499D01*
X21821156Y-45300500D01*
X21821158Y-45300500D01*
X22017060Y-45300500D01*
X22084099Y-45320185D01*
X22104741Y-45336819D01*
X25589705Y-48821784D01*
X25589712Y-48821790D01*
X25720819Y-48909392D01*
X25720820Y-48909392D01*
X25720821Y-48909393D01*
X25866503Y-48969737D01*
X25866507Y-48969737D01*
X25866508Y-48969738D01*
X26021154Y-49000500D01*
X26021157Y-49000500D01*
X26178844Y-49000500D01*
X26178845Y-49000499D01*
X26333497Y-48969737D01*
X26479179Y-48909393D01*
X26610289Y-48821789D01*
X26721789Y-48710289D01*
X26809393Y-48579179D01*
X26869737Y-48433497D01*
X26900500Y-48278842D01*
X26900500Y-48121157D01*
X26900500Y-48121154D01*
X26869738Y-47966508D01*
X26869737Y-47966507D01*
X26869737Y-47966503D01*
X26809393Y-47820821D01*
X26782466Y-47780522D01*
X26721790Y-47689712D01*
X26721784Y-47689705D01*
X25419759Y-46387681D01*
X25386274Y-46326358D01*
X25391258Y-46256666D01*
X25419759Y-46212319D01*
X26621788Y-45010290D01*
X26709389Y-44879185D01*
X26709389Y-44879184D01*
X26709393Y-44879179D01*
X26769737Y-44733498D01*
X26800500Y-44578843D01*
X26800500Y-44421158D01*
X26800500Y-44421155D01*
X26800499Y-44421153D01*
X26792276Y-44379815D01*
X26769737Y-44266503D01*
X26709393Y-44120821D01*
X26709391Y-44120818D01*
X26709389Y-44120814D01*
X26621788Y-43989711D01*
X26621785Y-43989707D01*
X26510292Y-43878214D01*
X26510288Y-43878211D01*
X26379185Y-43790610D01*
X26379175Y-43790605D01*
X26233497Y-43730263D01*
X26233489Y-43730261D01*
X26078845Y-43699500D01*
X26078842Y-43699500D01*
X25921157Y-43699500D01*
X25921154Y-43699500D01*
X25766509Y-43730261D01*
X25766501Y-43730263D01*
X25620824Y-43790605D01*
X25620814Y-43790610D01*
X25489709Y-43878211D01*
X24287680Y-45080240D01*
X24226357Y-45113725D01*
X24156665Y-45108741D01*
X24112318Y-45080240D01*
X23436819Y-44404741D01*
X23403334Y-44343418D01*
X23400500Y-44317060D01*
X23400500Y-44220945D01*
X23400500Y-44220943D01*
X23359577Y-44068216D01*
X23315970Y-43992686D01*
X23280524Y-43931290D01*
X23280518Y-43931282D01*
X23168717Y-43819481D01*
X23168709Y-43819475D01*
X23031790Y-43740426D01*
X23031786Y-43740424D01*
X23031784Y-43740423D01*
X22879057Y-43699500D01*
X22720943Y-43699500D01*
X22720941Y-43699500D01*
X22645717Y-43719656D01*
X22589433Y-43721498D01*
X22478844Y-43699500D01*
X22478842Y-43699500D01*
X21821158Y-43699500D01*
X21821155Y-43699500D01*
X21666510Y-43730261D01*
X21666498Y-43730264D01*
X21520827Y-43790602D01*
X21520814Y-43790609D01*
X21389711Y-43878210D01*
X21389707Y-43878213D01*
X21278213Y-43989707D01*
X21278210Y-43989711D01*
X21190609Y-44120814D01*
X21190602Y-44120827D01*
X21130264Y-44266498D01*
X21130261Y-44266510D01*
X21099500Y-44421153D01*
X20197029Y-44421153D01*
X20166392Y-44306814D01*
X20100500Y-44192686D01*
X20007314Y-44099500D01*
X19939657Y-44060438D01*
X19893187Y-44033608D01*
X19829539Y-44016554D01*
X19765892Y-43999500D01*
X19634108Y-43999500D01*
X19506812Y-44033608D01*
X19392686Y-44099500D01*
X19392683Y-44099502D01*
X19329005Y-44163181D01*
X19267682Y-44196666D01*
X19241324Y-44199500D01*
X13160438Y-44199500D01*
X13084010Y-44219978D01*
X13015489Y-44259540D01*
X13015486Y-44259542D01*
X12911848Y-44363181D01*
X12850525Y-44396666D01*
X12824167Y-44399500D01*
X11224833Y-44399500D01*
X11157794Y-44379815D01*
X11112039Y-44327011D01*
X11102095Y-44257853D01*
X11131120Y-44194297D01*
X11137152Y-44187819D01*
X12788152Y-42536819D01*
X12849475Y-42503334D01*
X12875833Y-42500500D01*
X17180214Y-42500500D01*
X17247253Y-42520185D01*
X17293008Y-42572989D01*
X17302952Y-42642147D01*
X17287602Y-42686499D01*
X17240423Y-42768215D01*
X17240423Y-42768216D01*
X17199500Y-42920943D01*
X17199500Y-43079057D01*
X17230379Y-43194297D01*
X17240423Y-43231783D01*
X17240426Y-43231790D01*
X17319475Y-43368709D01*
X17319479Y-43368714D01*
X17319480Y-43368716D01*
X17431284Y-43480520D01*
X17431286Y-43480521D01*
X17431290Y-43480524D01*
X17568209Y-43559573D01*
X17568216Y-43559577D01*
X17720943Y-43600500D01*
X17720945Y-43600500D01*
X17879055Y-43600500D01*
X17879057Y-43600500D01*
X18031784Y-43559577D01*
X18168716Y-43480520D01*
X18280520Y-43368716D01*
X18359577Y-43231784D01*
X18400500Y-43079057D01*
X18400500Y-42920943D01*
X18359577Y-42768216D01*
X18312397Y-42686498D01*
X18295926Y-42618599D01*
X18318779Y-42552572D01*
X18373701Y-42509382D01*
X18419786Y-42500500D01*
X20239560Y-42500500D01*
X20239562Y-42500500D01*
X20315989Y-42480021D01*
X20384511Y-42440460D01*
X20440460Y-42384511D01*
X24288152Y-38536819D01*
X24349475Y-38503334D01*
X24375833Y-38500500D01*
X25439560Y-38500500D01*
X25439562Y-38500500D01*
X25515989Y-38480021D01*
X25584511Y-38440460D01*
X25640460Y-38384511D01*
X26987819Y-37037152D01*
X27049142Y-37003667D01*
X27118834Y-37008651D01*
X27174767Y-37050523D01*
X27199184Y-37115987D01*
X27199500Y-37124833D01*
X27199500Y-45500495D01*
X27179815Y-45567534D01*
X27127011Y-45613289D01*
X27057853Y-45623233D01*
X27043407Y-45620270D01*
X26965892Y-45599500D01*
X26834108Y-45599500D01*
X26706812Y-45633608D01*
X26592686Y-45699500D01*
X26592683Y-45699502D01*
X26499502Y-45792683D01*
X26499500Y-45792686D01*
X26433608Y-45906812D01*
X26406680Y-46007313D01*
X26399500Y-46034108D01*
X26399500Y-46165892D01*
X26407325Y-46195094D01*
X26433608Y-46293187D01*
X26452760Y-46326358D01*
X26499500Y-46407314D01*
X26592686Y-46500500D01*
X26691521Y-46557563D01*
X26705944Y-46565890D01*
X26706814Y-46566392D01*
X26834108Y-46600500D01*
X26834110Y-46600500D01*
X26965889Y-46600500D01*
X26965892Y-46600500D01*
X27043410Y-46579729D01*
X27113256Y-46581392D01*
X27171118Y-46620554D01*
X27198623Y-46684782D01*
X27199500Y-46699504D01*
X27199500Y-57392324D01*
X27179815Y-57459363D01*
X27127011Y-57505118D01*
X27057853Y-57515062D01*
X26994297Y-57486037D01*
X26987819Y-57480005D01*
X26907316Y-57399502D01*
X26907314Y-57399500D01*
X26850250Y-57366554D01*
X26793187Y-57333608D01*
X26729539Y-57316554D01*
X26665892Y-57299500D01*
X26534108Y-57299500D01*
X26406812Y-57333608D01*
X26292686Y-57399500D01*
X26292683Y-57399502D01*
X26199502Y-57492683D01*
X26199500Y-57492686D01*
X26133608Y-57606812D01*
X26117644Y-57666392D01*
X26099500Y-57734108D01*
X26099500Y-57865892D01*
X26104355Y-57884011D01*
X26133608Y-57993187D01*
X26151495Y-58024167D01*
X26199500Y-58107314D01*
X26292686Y-58200500D01*
X26406814Y-58266392D01*
X26534108Y-58300500D01*
X26534110Y-58300500D01*
X26665890Y-58300500D01*
X26665892Y-58300500D01*
X26793186Y-58266392D01*
X26907314Y-58200500D01*
X26987819Y-58119995D01*
X27049142Y-58086510D01*
X27118834Y-58091494D01*
X27174767Y-58133366D01*
X27199184Y-58198830D01*
X27199500Y-58207676D01*
X27199500Y-58239562D01*
X27206689Y-58266391D01*
X27219979Y-58315990D01*
X27219982Y-58315995D01*
X27259535Y-58384504D01*
X27259541Y-58384512D01*
X28263181Y-59388152D01*
X28296666Y-59449475D01*
X28299500Y-59475833D01*
X28299500Y-60439562D01*
X28302048Y-60449070D01*
X28319979Y-60515990D01*
X28319982Y-60515995D01*
X28359535Y-60584504D01*
X28359541Y-60584512D01*
X28763181Y-60988152D01*
X28796666Y-61049475D01*
X28799500Y-61075833D01*
X28799500Y-61165892D01*
X28802242Y-61176125D01*
X28820270Y-61243407D01*
X28818607Y-61313257D01*
X28779444Y-61371119D01*
X28715216Y-61398623D01*
X28700495Y-61399500D01*
X28275833Y-61399500D01*
X28208794Y-61379815D01*
X28188152Y-61363181D01*
X26536819Y-59711848D01*
X26503334Y-59650525D01*
X26500500Y-59624167D01*
X26500500Y-59534110D01*
X26500500Y-59534108D01*
X26466392Y-59406814D01*
X26400500Y-59292686D01*
X26307314Y-59199500D01*
X26193186Y-59133608D01*
X26124194Y-59115121D01*
X26092406Y-59106604D01*
X26032746Y-59070238D01*
X26002217Y-59007391D01*
X26000500Y-58986829D01*
X26000500Y-58934110D01*
X26000500Y-58934108D01*
X25966392Y-58806814D01*
X25900500Y-58692686D01*
X25807314Y-58599500D01*
X25750250Y-58566554D01*
X25693187Y-58533608D01*
X25629539Y-58516554D01*
X25565892Y-58499500D01*
X25434108Y-58499500D01*
X25306812Y-58533608D01*
X25192686Y-58599500D01*
X25192683Y-58599502D01*
X25099502Y-58692683D01*
X25099500Y-58692686D01*
X25033608Y-58806812D01*
X25013969Y-58880109D01*
X24999500Y-58934108D01*
X24999500Y-59065892D01*
X25033608Y-59193186D01*
X25082887Y-59278540D01*
X25099500Y-59340539D01*
X25099500Y-60039562D01*
X25108693Y-60073871D01*
X25119979Y-60115990D01*
X25119981Y-60115993D01*
X25131064Y-60135190D01*
X25147535Y-60203090D01*
X25124682Y-60269117D01*
X25069760Y-60312306D01*
X25055770Y-60316963D01*
X24968214Y-60340423D01*
X24968209Y-60340426D01*
X24831290Y-60419475D01*
X24825557Y-60423875D01*
X24760388Y-60449070D01*
X24750069Y-60449500D01*
X19037965Y-60449500D01*
X18970926Y-60429815D01*
X18950284Y-60413181D01*
X18776616Y-60239513D01*
X18776614Y-60239511D01*
X18681352Y-60184511D01*
X18673884Y-60180199D01*
X18647786Y-60173207D01*
X18647785Y-60173206D01*
X18647785Y-60173207D01*
X18603546Y-60161353D01*
X18559309Y-60149500D01*
X17440691Y-60149500D01*
X17377650Y-60166392D01*
X17326112Y-60180201D01*
X17326107Y-60180204D01*
X17282695Y-60205267D01*
X17282696Y-60205268D01*
X17234859Y-60232887D01*
X17172859Y-60249500D01*
X16849931Y-60249500D01*
X16782892Y-60229815D01*
X16774443Y-60223875D01*
X16768709Y-60219475D01*
X16631790Y-60140426D01*
X16631786Y-60140424D01*
X16631784Y-60140423D01*
X16479057Y-60099500D01*
X16320943Y-60099500D01*
X16168216Y-60140423D01*
X16168209Y-60140426D01*
X16031290Y-60219475D01*
X16031282Y-60219481D01*
X15919481Y-60331282D01*
X15919475Y-60331290D01*
X15840426Y-60468209D01*
X15840423Y-60468216D01*
X15799500Y-60620943D01*
X15799500Y-60779057D01*
X15840194Y-60930927D01*
X15840423Y-60931783D01*
X15840426Y-60931790D01*
X15919475Y-61068709D01*
X15919479Y-61068714D01*
X15919480Y-61068716D01*
X16031284Y-61180520D01*
X16031286Y-61180521D01*
X16031290Y-61180524D01*
X16168211Y-61259575D01*
X16171502Y-61260938D01*
X16173851Y-61262831D01*
X16175254Y-61263641D01*
X16175127Y-61263859D01*
X16225907Y-61304778D01*
X16247973Y-61371072D01*
X16230695Y-61438771D01*
X16179559Y-61486383D01*
X16124052Y-61499500D01*
X15858676Y-61499500D01*
X15791637Y-61479815D01*
X15770995Y-61463181D01*
X15707316Y-61399502D01*
X15707314Y-61399500D01*
X15644408Y-61363181D01*
X15593187Y-61333608D01*
X15517234Y-61313257D01*
X15465892Y-61299500D01*
X15334108Y-61299500D01*
X15206814Y-61333608D01*
X15206813Y-61333608D01*
X15206811Y-61333609D01*
X15206810Y-61333609D01*
X15106500Y-61391524D01*
X15038600Y-61407997D01*
X14972573Y-61385145D01*
X14929382Y-61330223D01*
X14920500Y-61284137D01*
X14920500Y-54434108D01*
X18399500Y-54434108D01*
X18399500Y-54565892D01*
X18415114Y-54624166D01*
X18433608Y-54693187D01*
X18444382Y-54711847D01*
X18499500Y-54807314D01*
X18592686Y-54900500D01*
X18706814Y-54966392D01*
X18834108Y-55000500D01*
X18834110Y-55000500D01*
X18965890Y-55000500D01*
X18965892Y-55000500D01*
X19093186Y-54966392D01*
X19207314Y-54900500D01*
X19300500Y-54807314D01*
X19366392Y-54693186D01*
X19400500Y-54565892D01*
X19400500Y-54434108D01*
X19366392Y-54306814D01*
X19300500Y-54192686D01*
X19207314Y-54099500D01*
X19108993Y-54042734D01*
X19093187Y-54033608D01*
X19029539Y-54016554D01*
X18965892Y-53999500D01*
X18834108Y-53999500D01*
X18706812Y-54033608D01*
X18592686Y-54099500D01*
X18592683Y-54099502D01*
X18499502Y-54192683D01*
X18499500Y-54192686D01*
X18433608Y-54306812D01*
X18406814Y-54406812D01*
X18399500Y-54434108D01*
X14920500Y-54434108D01*
X14920500Y-51034108D01*
X15899500Y-51034108D01*
X15899500Y-51165892D01*
X15908505Y-51199500D01*
X15933608Y-51293187D01*
X15966554Y-51350250D01*
X15999500Y-51407314D01*
X16092686Y-51500500D01*
X16191521Y-51557563D01*
X16205944Y-51565890D01*
X16206814Y-51566392D01*
X16334108Y-51600500D01*
X16334110Y-51600500D01*
X16465890Y-51600500D01*
X16465892Y-51600500D01*
X16593186Y-51566392D01*
X16649103Y-51534108D01*
X18499500Y-51534108D01*
X18499500Y-51665892D01*
X18516554Y-51729539D01*
X18533608Y-51793187D01*
X18541766Y-51807316D01*
X18599500Y-51907314D01*
X18692686Y-52000500D01*
X18806814Y-52066392D01*
X18934108Y-52100500D01*
X18934110Y-52100500D01*
X19065890Y-52100500D01*
X19065892Y-52100500D01*
X19193186Y-52066392D01*
X19307314Y-52000500D01*
X19400500Y-51907314D01*
X19466392Y-51793186D01*
X19500500Y-51665892D01*
X19500500Y-51534108D01*
X19466392Y-51406814D01*
X19466389Y-51406808D01*
X19455520Y-51387982D01*
X19455519Y-51387981D01*
X19424415Y-51334108D01*
X24599500Y-51334108D01*
X24599500Y-51465891D01*
X24633608Y-51593187D01*
X24666554Y-51650250D01*
X24699500Y-51707314D01*
X24792686Y-51800500D01*
X24906814Y-51866392D01*
X25034108Y-51900500D01*
X25034110Y-51900500D01*
X25165890Y-51900500D01*
X25165892Y-51900500D01*
X25293186Y-51866392D01*
X25407314Y-51800500D01*
X25500500Y-51707314D01*
X25566392Y-51593186D01*
X25600500Y-51465892D01*
X25600500Y-51334108D01*
X25566392Y-51206814D01*
X25500500Y-51092686D01*
X25407314Y-50999500D01*
X25347060Y-50964712D01*
X25293187Y-50933608D01*
X25227430Y-50915989D01*
X25165892Y-50899500D01*
X25034108Y-50899500D01*
X24906812Y-50933608D01*
X24792686Y-50999500D01*
X24792683Y-50999502D01*
X24699502Y-51092683D01*
X24699500Y-51092686D01*
X24633608Y-51206812D01*
X24599500Y-51334108D01*
X19424415Y-51334108D01*
X19400500Y-51292686D01*
X19307314Y-51199500D01*
X19249100Y-51165890D01*
X19193187Y-51133608D01*
X19129539Y-51116554D01*
X19065892Y-51099500D01*
X18934108Y-51099500D01*
X18806812Y-51133608D01*
X18692686Y-51199500D01*
X18692683Y-51199502D01*
X18599502Y-51292683D01*
X18599500Y-51292686D01*
X18533608Y-51406812D01*
X18517778Y-51465892D01*
X18499500Y-51534108D01*
X16649103Y-51534108D01*
X16707314Y-51500500D01*
X16800500Y-51407314D01*
X16866392Y-51293186D01*
X16900500Y-51165892D01*
X16900500Y-51034108D01*
X16866392Y-50906814D01*
X16800500Y-50792686D01*
X16707314Y-50699500D01*
X16650250Y-50666554D01*
X16593187Y-50633608D01*
X16529539Y-50616554D01*
X16465892Y-50599500D01*
X16334108Y-50599500D01*
X16206812Y-50633608D01*
X16092686Y-50699500D01*
X16092683Y-50699502D01*
X15999502Y-50792683D01*
X15999500Y-50792686D01*
X15933608Y-50906812D01*
X15899634Y-51033608D01*
X15899500Y-51034108D01*
X14920500Y-51034108D01*
X14920500Y-49534108D01*
X23899500Y-49534108D01*
X23899500Y-49665891D01*
X23933608Y-49793187D01*
X23966554Y-49850250D01*
X23999500Y-49907314D01*
X24092686Y-50000500D01*
X24206814Y-50066392D01*
X24334108Y-50100500D01*
X24334110Y-50100500D01*
X24465890Y-50100500D01*
X24465892Y-50100500D01*
X24593186Y-50066392D01*
X24707314Y-50000500D01*
X24800500Y-49907314D01*
X24866392Y-49793186D01*
X24900500Y-49665892D01*
X24900500Y-49534108D01*
X24866392Y-49406814D01*
X24800500Y-49292686D01*
X24707314Y-49199500D01*
X24650250Y-49166554D01*
X24593187Y-49133608D01*
X24529539Y-49116554D01*
X24465892Y-49099500D01*
X24334108Y-49099500D01*
X24206812Y-49133608D01*
X24092686Y-49199500D01*
X24092683Y-49199502D01*
X23999502Y-49292683D01*
X23999500Y-49292686D01*
X23933608Y-49406812D01*
X23899500Y-49534108D01*
X14920500Y-49534108D01*
X14920500Y-49031332D01*
X14940185Y-48964293D01*
X14992989Y-48918538D01*
X15062147Y-48908594D01*
X15106497Y-48923944D01*
X15168216Y-48959577D01*
X15320943Y-49000500D01*
X15320945Y-49000500D01*
X15479055Y-49000500D01*
X15479057Y-49000500D01*
X15631784Y-48959577D01*
X15768716Y-48880520D01*
X15880520Y-48768716D01*
X15900501Y-48734108D01*
X20299500Y-48734108D01*
X20299500Y-48865891D01*
X20333608Y-48993187D01*
X20366554Y-49050250D01*
X20399500Y-49107314D01*
X20492686Y-49200500D01*
X20606814Y-49266392D01*
X20734108Y-49300500D01*
X20734110Y-49300500D01*
X20865890Y-49300500D01*
X20865892Y-49300500D01*
X20993186Y-49266392D01*
X21107314Y-49200500D01*
X21200500Y-49107314D01*
X21266392Y-48993186D01*
X21300500Y-48865892D01*
X21300500Y-48734108D01*
X21266392Y-48606814D01*
X21200500Y-48492686D01*
X21107314Y-48399500D01*
X21038159Y-48359573D01*
X20993187Y-48333608D01*
X20929539Y-48316554D01*
X20865892Y-48299500D01*
X20734108Y-48299500D01*
X20606812Y-48333608D01*
X20492686Y-48399500D01*
X20492683Y-48399502D01*
X20399502Y-48492683D01*
X20399500Y-48492686D01*
X20333608Y-48606812D01*
X20299500Y-48734108D01*
X15900501Y-48734108D01*
X15959577Y-48631784D01*
X16000500Y-48479057D01*
X16000500Y-48320943D01*
X15959577Y-48168216D01*
X15938258Y-48131290D01*
X15880524Y-48031290D01*
X15880518Y-48031282D01*
X15768717Y-47919481D01*
X15768709Y-47919475D01*
X15631790Y-47840426D01*
X15631786Y-47840424D01*
X15631784Y-47840423D01*
X15479057Y-47799500D01*
X15320943Y-47799500D01*
X15168216Y-47840423D01*
X15168215Y-47840423D01*
X15106499Y-47876055D01*
X15038599Y-47892527D01*
X14972572Y-47869674D01*
X14929382Y-47814752D01*
X14920500Y-47768667D01*
X14920500Y-46430165D01*
X14940185Y-46363126D01*
X14985920Y-46320943D01*
X15899500Y-46320943D01*
X15899500Y-46479057D01*
X15933867Y-46607314D01*
X15940423Y-46631783D01*
X15940426Y-46631790D01*
X16019475Y-46768709D01*
X16019479Y-46768714D01*
X16019480Y-46768716D01*
X16131284Y-46880520D01*
X16131286Y-46880521D01*
X16131290Y-46880524D01*
X16268209Y-46959573D01*
X16268216Y-46959577D01*
X16420943Y-47000500D01*
X16420945Y-47000500D01*
X16579055Y-47000500D01*
X16579057Y-47000500D01*
X16731784Y-46959577D01*
X16868716Y-46880520D01*
X16980520Y-46768716D01*
X17059577Y-46631784D01*
X17100500Y-46479057D01*
X17100500Y-46320943D01*
X17059577Y-46168216D01*
X17020480Y-46100497D01*
X16980524Y-46031290D01*
X16980518Y-46031282D01*
X16868717Y-45919481D01*
X16868709Y-45919475D01*
X16731790Y-45840426D01*
X16731786Y-45840424D01*
X16731784Y-45840423D01*
X16579057Y-45799500D01*
X16420943Y-45799500D01*
X16268216Y-45840423D01*
X16268209Y-45840426D01*
X16131290Y-45919475D01*
X16131282Y-45919481D01*
X16019481Y-46031282D01*
X16019475Y-46031290D01*
X15940426Y-46168209D01*
X15940423Y-46168216D01*
X15899500Y-46320943D01*
X14985920Y-46320943D01*
X14986098Y-46320779D01*
X14998651Y-46314076D01*
X15064237Y-46296503D01*
X15161263Y-46240485D01*
X15240485Y-46161263D01*
X15296503Y-46064237D01*
X15325500Y-45956018D01*
X15325500Y-45843982D01*
X15296503Y-45735763D01*
X15240485Y-45638737D01*
X15161263Y-45559515D01*
X15096579Y-45522169D01*
X15064239Y-45503498D01*
X15064238Y-45503497D01*
X15064237Y-45503497D01*
X14956018Y-45474500D01*
X14843982Y-45474500D01*
X14735763Y-45503497D01*
X14735760Y-45503498D01*
X14638740Y-45559513D01*
X14638734Y-45559517D01*
X14559517Y-45638734D01*
X14559513Y-45638740D01*
X14503498Y-45735760D01*
X14503497Y-45735761D01*
X14486419Y-45799500D01*
X14475213Y-45841323D01*
X14472755Y-45850495D01*
X14440661Y-45906082D01*
X14403210Y-45943533D01*
X14403208Y-45943536D01*
X14343538Y-46003205D01*
X14343536Y-46003208D01*
X14301341Y-46076290D01*
X14279500Y-46157803D01*
X14279500Y-65442196D01*
X14299140Y-65515495D01*
X14301341Y-65523709D01*
X14343536Y-65596792D01*
X14343538Y-65596794D01*
X14410273Y-65663529D01*
X14410279Y-65663534D01*
X15743181Y-66996436D01*
X15776666Y-67057759D01*
X15779500Y-67084117D01*
X15779500Y-68342195D01*
X15801341Y-68423709D01*
X15843536Y-68496792D01*
X15843538Y-68496794D01*
X15910273Y-68563529D01*
X15910279Y-68563534D01*
X21840660Y-74493915D01*
X21872754Y-74549502D01*
X21903497Y-74664238D01*
X21903498Y-74664239D01*
X21959515Y-74761263D01*
X22038737Y-74840485D01*
X22116131Y-74885169D01*
X22164346Y-74935735D01*
X22177570Y-75004341D01*
X22151602Y-75069206D01*
X22094688Y-75109735D01*
X22086222Y-75112330D01*
X22006814Y-75133608D01*
X22006812Y-75133608D01*
X22006812Y-75133609D01*
X21892686Y-75199500D01*
X21892683Y-75199502D01*
X21799502Y-75292683D01*
X21799500Y-75292686D01*
X21733608Y-75406812D01*
X21699500Y-75534108D01*
X21699500Y-75665891D01*
X21733608Y-75793187D01*
X21766554Y-75850250D01*
X21799500Y-75907314D01*
X21892686Y-76000500D01*
X22006814Y-76066392D01*
X22134108Y-76100500D01*
X22134110Y-76100500D01*
X22265890Y-76100500D01*
X22265892Y-76100500D01*
X22393186Y-76066392D01*
X22507314Y-76000500D01*
X22600500Y-75907314D01*
X22666392Y-75793186D01*
X22700500Y-75665892D01*
X22700500Y-75534108D01*
X22666392Y-75406814D01*
X22600500Y-75292686D01*
X22507314Y-75199500D01*
X22507312Y-75199499D01*
X22507310Y-75199497D01*
X22394465Y-75134346D01*
X22346249Y-75083779D01*
X22333027Y-75015172D01*
X22358995Y-74950307D01*
X22415909Y-74909779D01*
X22424361Y-74907187D01*
X22464237Y-74896503D01*
X22561263Y-74840485D01*
X22640485Y-74761263D01*
X22696503Y-74664237D01*
X22725500Y-74556018D01*
X22725500Y-74443982D01*
X22696503Y-74335763D01*
X22640485Y-74238737D01*
X22561263Y-74159515D01*
X22464239Y-74103498D01*
X22464238Y-74103497D01*
X22349502Y-74072754D01*
X22293915Y-74040660D01*
X18174198Y-69920943D01*
X21899500Y-69920943D01*
X21899500Y-70079057D01*
X21935532Y-70213528D01*
X21940423Y-70231783D01*
X21940426Y-70231790D01*
X22019475Y-70368709D01*
X22019479Y-70368714D01*
X22019480Y-70368716D01*
X22131284Y-70480520D01*
X22131286Y-70480521D01*
X22131290Y-70480524D01*
X22256351Y-70552727D01*
X22268216Y-70559577D01*
X22420943Y-70600500D01*
X22420945Y-70600500D01*
X22579055Y-70600500D01*
X22579057Y-70600500D01*
X22731784Y-70559577D01*
X22868716Y-70480520D01*
X22980520Y-70368716D01*
X23059577Y-70231784D01*
X23100500Y-70079057D01*
X23100500Y-69920943D01*
X23059577Y-69768216D01*
X23000701Y-69666238D01*
X22980524Y-69631290D01*
X22980518Y-69631282D01*
X22868717Y-69519481D01*
X22868709Y-69519475D01*
X22731790Y-69440426D01*
X22731786Y-69440424D01*
X22731784Y-69440423D01*
X22579057Y-69399500D01*
X22420943Y-69399500D01*
X22268216Y-69440423D01*
X22268209Y-69440426D01*
X22131290Y-69519475D01*
X22131282Y-69519481D01*
X22019481Y-69631282D01*
X22019475Y-69631290D01*
X21940426Y-69768209D01*
X21940423Y-69768216D01*
X21899500Y-69920943D01*
X18174198Y-69920943D01*
X16456819Y-68203564D01*
X16423334Y-68142241D01*
X16420500Y-68115883D01*
X16420500Y-66857808D01*
X16420500Y-66857805D01*
X16398659Y-66776291D01*
X16356464Y-66703208D01*
X16296792Y-66643536D01*
X16296791Y-66643535D01*
X14956819Y-65303563D01*
X14923334Y-65242240D01*
X14920500Y-65215882D01*
X14920500Y-64134108D01*
X18099500Y-64134108D01*
X18099500Y-64265892D01*
X18115215Y-64324542D01*
X18133608Y-64393187D01*
X18158667Y-64436590D01*
X18199500Y-64507314D01*
X18292686Y-64600500D01*
X18406814Y-64666392D01*
X18534108Y-64700500D01*
X18534110Y-64700500D01*
X18665890Y-64700500D01*
X18665892Y-64700500D01*
X18793186Y-64666392D01*
X18907314Y-64600500D01*
X19000500Y-64507314D01*
X19066392Y-64393186D01*
X19100500Y-64265892D01*
X19100500Y-64134108D01*
X19066392Y-64006814D01*
X19000500Y-63892686D01*
X18907314Y-63799500D01*
X18843228Y-63762500D01*
X18793187Y-63733608D01*
X18670803Y-63700816D01*
X18665892Y-63699500D01*
X18534108Y-63699500D01*
X18406812Y-63733608D01*
X18292686Y-63799500D01*
X18292683Y-63799502D01*
X18199502Y-63892683D01*
X18199500Y-63892686D01*
X18133608Y-64006812D01*
X18113393Y-64082258D01*
X18099500Y-64134108D01*
X14920500Y-64134108D01*
X14920500Y-62315862D01*
X14940185Y-62248823D01*
X14992989Y-62203068D01*
X15062147Y-62193124D01*
X15106496Y-62208473D01*
X15206814Y-62266392D01*
X15334108Y-62300500D01*
X15334110Y-62300500D01*
X15465890Y-62300500D01*
X15465892Y-62300500D01*
X15593186Y-62266392D01*
X15707314Y-62200500D01*
X15770995Y-62136819D01*
X15832318Y-62103334D01*
X15858676Y-62100500D01*
X17224167Y-62100500D01*
X17291206Y-62120185D01*
X17311848Y-62136819D01*
X17415489Y-62240460D01*
X17484012Y-62280022D01*
X17560438Y-62300500D01*
X20447794Y-62300500D01*
X20514833Y-62320185D01*
X20560588Y-62372989D01*
X20570532Y-62442147D01*
X20541507Y-62505703D01*
X20509794Y-62531887D01*
X20392689Y-62599497D01*
X20392683Y-62599502D01*
X20299502Y-62692683D01*
X20299500Y-62692686D01*
X20233608Y-62806812D01*
X20219932Y-62857853D01*
X20199500Y-62934108D01*
X20199500Y-63065892D01*
X20212789Y-63115489D01*
X20233608Y-63193187D01*
X20264050Y-63245913D01*
X20299500Y-63307314D01*
X20392686Y-63400500D01*
X20506814Y-63466392D01*
X20634108Y-63500500D01*
X20634110Y-63500500D01*
X20765890Y-63500500D01*
X20765892Y-63500500D01*
X20893186Y-63466392D01*
X21007314Y-63400500D01*
X21100500Y-63307314D01*
X21166392Y-63193186D01*
X21200500Y-63065892D01*
X21200500Y-62934108D01*
X21166392Y-62806814D01*
X21100500Y-62692686D01*
X21007314Y-62599500D01*
X21007312Y-62599499D01*
X21007310Y-62599497D01*
X20890206Y-62531887D01*
X20841990Y-62481320D01*
X20828768Y-62412713D01*
X20854736Y-62347848D01*
X20911650Y-62307320D01*
X20952206Y-62300500D01*
X23524167Y-62300500D01*
X23591206Y-62320185D01*
X23611848Y-62336819D01*
X24559540Y-63284511D01*
X24615489Y-63340460D01*
X24615491Y-63340461D01*
X24615495Y-63340464D01*
X24643432Y-63356593D01*
X24684011Y-63380021D01*
X24760438Y-63400500D01*
X25524167Y-63400500D01*
X25591206Y-63420185D01*
X25611848Y-63436819D01*
X27563181Y-65388152D01*
X27596666Y-65449475D01*
X27599500Y-65475833D01*
X27599500Y-65565892D01*
X27604355Y-65584011D01*
X27633608Y-65693187D01*
X27666208Y-65749650D01*
X27699500Y-65807314D01*
X27792686Y-65900500D01*
X27906814Y-65966392D01*
X28034108Y-66000500D01*
X28034110Y-66000500D01*
X28165890Y-66000500D01*
X28165892Y-66000500D01*
X28293186Y-65966392D01*
X28407314Y-65900500D01*
X28500500Y-65807314D01*
X28566392Y-65693186D01*
X28594217Y-65589337D01*
X28630582Y-65529678D01*
X28693429Y-65499149D01*
X28762804Y-65507444D01*
X28801673Y-65533751D01*
X29182343Y-65914421D01*
X29215828Y-65975744D01*
X29210844Y-66045436D01*
X29168972Y-66101369D01*
X29103508Y-66125786D01*
X29062569Y-66121877D01*
X29059886Y-66121158D01*
X28979057Y-66099500D01*
X28820943Y-66099500D01*
X28668216Y-66140423D01*
X28668209Y-66140426D01*
X28531290Y-66219475D01*
X28531282Y-66219481D01*
X28437583Y-66313181D01*
X28376260Y-66346666D01*
X28349902Y-66349500D01*
X28140691Y-66349500D01*
X28050325Y-66373713D01*
X28050324Y-66373712D01*
X28026116Y-66380199D01*
X28026113Y-66380200D01*
X27923386Y-66439511D01*
X27923383Y-66439513D01*
X27599597Y-66763299D01*
X27538274Y-66796784D01*
X27528107Y-66798556D01*
X27520949Y-66799498D01*
X27368216Y-66840423D01*
X27368209Y-66840426D01*
X27231290Y-66919475D01*
X27231282Y-66919481D01*
X27119481Y-67031282D01*
X27119475Y-67031290D01*
X27040426Y-67168209D01*
X27040423Y-67168216D01*
X27031249Y-67202450D01*
X27018863Y-67232350D01*
X26969361Y-67318093D01*
X26969359Y-67318096D01*
X26940425Y-67368209D01*
X26940424Y-67368210D01*
X26940423Y-67368215D01*
X26899499Y-67520943D01*
X26899499Y-67520945D01*
X26899499Y-67689046D01*
X26899500Y-67689059D01*
X26899500Y-67899902D01*
X26879815Y-67966941D01*
X26863181Y-67987583D01*
X26812181Y-68038583D01*
X26750858Y-68072068D01*
X26681166Y-68067084D01*
X26625233Y-68025212D01*
X26600816Y-67959748D01*
X26600500Y-67950902D01*
X26600500Y-65660439D01*
X26592265Y-65629707D01*
X26580021Y-65584011D01*
X26571191Y-65568717D01*
X26540464Y-65515495D01*
X26540458Y-65515487D01*
X25634336Y-64609365D01*
X25602242Y-64553777D01*
X25600500Y-64547275D01*
X25600500Y-64547273D01*
X25573207Y-64445413D01*
X25520480Y-64354087D01*
X25445913Y-64279520D01*
X25354587Y-64226793D01*
X25252727Y-64199500D01*
X25147273Y-64199500D01*
X25045413Y-64226793D01*
X25045410Y-64226794D01*
X24954085Y-64279521D01*
X24879521Y-64354085D01*
X24879520Y-64354087D01*
X24840800Y-64421153D01*
X24831887Y-64436590D01*
X24781320Y-64484806D01*
X24712713Y-64498028D01*
X24647848Y-64472060D01*
X24607320Y-64415146D01*
X24600500Y-64374590D01*
X24600500Y-64334110D01*
X24600500Y-64334108D01*
X24566392Y-64206814D01*
X24500500Y-64092686D01*
X24407314Y-63999500D01*
X24342380Y-63962010D01*
X24293187Y-63933608D01*
X24229539Y-63916554D01*
X24165892Y-63899500D01*
X24034108Y-63899500D01*
X23906812Y-63933608D01*
X23792686Y-63999500D01*
X23792683Y-63999502D01*
X23699502Y-64092683D01*
X23699500Y-64092686D01*
X23633608Y-64206812D01*
X23614126Y-64279521D01*
X23599500Y-64334108D01*
X23599500Y-64465892D01*
X23613857Y-64519475D01*
X23633608Y-64593187D01*
X23642949Y-64609365D01*
X23699500Y-64707314D01*
X23699502Y-64707316D01*
X23763181Y-64770995D01*
X23796666Y-64832318D01*
X23799500Y-64858676D01*
X23799500Y-68439562D01*
X23819979Y-68515989D01*
X23821995Y-68519480D01*
X23834241Y-68540692D01*
X23859537Y-68584507D01*
X23859541Y-68584512D01*
X25263181Y-69988152D01*
X25296666Y-70049475D01*
X25299500Y-70075833D01*
X25299500Y-70165891D01*
X25333608Y-70293187D01*
X25363760Y-70345410D01*
X25399500Y-70407314D01*
X25492686Y-70500500D01*
X25606814Y-70566392D01*
X25734108Y-70600500D01*
X25734110Y-70600500D01*
X25865889Y-70600500D01*
X25865892Y-70600500D01*
X25943410Y-70579729D01*
X26013256Y-70581392D01*
X26071118Y-70620554D01*
X26098623Y-70684782D01*
X26099500Y-70699504D01*
X26099500Y-71786256D01*
X26082887Y-71848256D01*
X26026794Y-71945410D01*
X26026793Y-71945413D01*
X25999500Y-72047273D01*
X25999500Y-72152726D01*
X26026793Y-72254586D01*
X26026794Y-72254589D01*
X26074951Y-72338000D01*
X26091424Y-72405901D01*
X26074951Y-72462000D01*
X26026794Y-72545410D01*
X26026793Y-72545413D01*
X25999500Y-72647273D01*
X25999500Y-72752727D01*
X26026793Y-72854587D01*
X26079520Y-72945913D01*
X26154087Y-73020480D01*
X26245413Y-73073207D01*
X26347273Y-73100500D01*
X26347275Y-73100500D01*
X26452723Y-73100500D01*
X26452727Y-73100500D01*
X26493410Y-73089599D01*
X26563255Y-73091262D01*
X26621118Y-73130424D01*
X26648623Y-73194652D01*
X26649500Y-73209374D01*
X26649500Y-75549901D01*
X26629815Y-75616940D01*
X26613181Y-75637582D01*
X26224214Y-76026548D01*
X26224215Y-76026549D01*
X26119480Y-76131284D01*
X26119478Y-76131286D01*
X25813734Y-76437031D01*
X25811488Y-76434785D01*
X25767146Y-76467179D01*
X25725171Y-76474500D01*
X22033676Y-76474500D01*
X21966637Y-76454815D01*
X21945995Y-76438181D01*
X21907316Y-76399502D01*
X21907314Y-76399500D01*
X21850250Y-76366554D01*
X21793187Y-76333608D01*
X21729539Y-76316554D01*
X21665892Y-76299500D01*
X21534108Y-76299500D01*
X21406812Y-76333608D01*
X21292686Y-76399500D01*
X21292683Y-76399502D01*
X21254005Y-76438181D01*
X21192682Y-76471666D01*
X21166324Y-76474500D01*
X19157147Y-76474500D01*
X19074359Y-76496682D01*
X19000138Y-76539535D01*
X19000135Y-76539537D01*
X18301492Y-77238181D01*
X18240169Y-77271666D01*
X18213811Y-77274500D01*
X16957147Y-77274500D01*
X16939415Y-77279251D01*
X16869565Y-77277586D01*
X16811704Y-77238422D01*
X16784201Y-77174192D01*
X16787550Y-77127384D01*
X16800500Y-77079057D01*
X16800500Y-76920943D01*
X16759577Y-76768216D01*
X16742683Y-76738954D01*
X16680524Y-76631290D01*
X16680518Y-76631282D01*
X16568717Y-76519481D01*
X16568709Y-76519475D01*
X16431790Y-76440426D01*
X16431786Y-76440424D01*
X16431784Y-76440423D01*
X16279057Y-76399500D01*
X16120943Y-76399500D01*
X15968216Y-76440423D01*
X15968209Y-76440426D01*
X15831290Y-76519475D01*
X15831282Y-76519481D01*
X15719481Y-76631282D01*
X15719475Y-76631290D01*
X15640426Y-76768209D01*
X15640423Y-76768216D01*
X15599500Y-76920943D01*
X15599500Y-77079057D01*
X15632041Y-77200500D01*
X15640423Y-77231783D01*
X15640426Y-77231790D01*
X15719475Y-77368709D01*
X15719479Y-77368714D01*
X15719480Y-77368716D01*
X15831284Y-77480520D01*
X15831286Y-77480521D01*
X15831290Y-77480524D01*
X15968209Y-77559573D01*
X15968216Y-77559577D01*
X16120943Y-77600500D01*
X16120945Y-77600500D01*
X16239811Y-77600500D01*
X16306850Y-77620185D01*
X16352605Y-77672989D01*
X16362549Y-77742147D01*
X16333524Y-77805703D01*
X16327497Y-77812175D01*
X16145863Y-77993809D01*
X15676301Y-78463370D01*
X15614978Y-78496855D01*
X15587184Y-78498014D01*
X15587184Y-78499500D01*
X15420943Y-78499500D01*
X15268216Y-78540423D01*
X15268209Y-78540426D01*
X15131290Y-78619475D01*
X15131282Y-78619481D01*
X15019481Y-78731282D01*
X15019475Y-78731290D01*
X14940426Y-78868209D01*
X14940423Y-78868216D01*
X14899500Y-79020943D01*
X14899500Y-79179057D01*
X14937028Y-79319111D01*
X14940423Y-79331783D01*
X14940426Y-79331790D01*
X15019475Y-79468709D01*
X15019479Y-79468714D01*
X15019480Y-79468716D01*
X15131284Y-79580520D01*
X15131286Y-79580521D01*
X15131290Y-79580524D01*
X15268209Y-79659573D01*
X15268216Y-79659577D01*
X15420943Y-79700500D01*
X15420945Y-79700500D01*
X15579055Y-79700500D01*
X15579057Y-79700500D01*
X15731784Y-79659577D01*
X15868716Y-79580520D01*
X15980520Y-79468716D01*
X16059577Y-79331784D01*
X16100500Y-79179057D01*
X16100500Y-79020943D01*
X16100500Y-79012815D01*
X16103680Y-79012815D01*
X16112112Y-78958579D01*
X16136626Y-78923699D01*
X17098508Y-77961819D01*
X17159831Y-77928334D01*
X17186189Y-77925500D01*
X18442851Y-77925500D01*
X18442853Y-77925500D01*
X18525639Y-77903318D01*
X18599862Y-77860465D01*
X18767820Y-77692506D01*
X18829142Y-77659022D01*
X18898833Y-77664006D01*
X18954767Y-77705877D01*
X18979184Y-77771342D01*
X18979500Y-77780188D01*
X18979500Y-78843993D01*
X18979500Y-78843995D01*
X18979499Y-78843995D01*
X19006418Y-78979322D01*
X19006421Y-78979332D01*
X19059221Y-79106804D01*
X19059228Y-79106817D01*
X19135885Y-79221541D01*
X19135888Y-79221545D01*
X19233454Y-79319111D01*
X19233458Y-79319114D01*
X19348182Y-79395771D01*
X19348195Y-79395778D01*
X19475667Y-79448578D01*
X19475672Y-79448580D01*
X19475676Y-79448580D01*
X19475677Y-79448581D01*
X19611004Y-79475500D01*
X19611007Y-79475500D01*
X19748995Y-79475500D01*
X19840041Y-79457389D01*
X19884328Y-79448580D01*
X20011811Y-79395775D01*
X20126542Y-79319114D01*
X20224114Y-79221542D01*
X20300775Y-79106811D01*
X20353580Y-78979328D01*
X20380500Y-78843993D01*
X20380500Y-78662399D01*
X20634500Y-78662399D01*
X20634500Y-78787601D01*
X20666905Y-78908536D01*
X20729505Y-79016964D01*
X20818036Y-79105495D01*
X20926464Y-79168095D01*
X21047399Y-79200500D01*
X21047401Y-79200500D01*
X21172599Y-79200500D01*
X21172601Y-79200500D01*
X21293536Y-79168095D01*
X21401964Y-79105495D01*
X21490495Y-79016964D01*
X21553095Y-78908536D01*
X21585500Y-78787601D01*
X21585500Y-78662399D01*
X26414500Y-78662399D01*
X26414500Y-78787601D01*
X26446905Y-78908536D01*
X26509505Y-79016964D01*
X26598036Y-79105495D01*
X26706464Y-79168095D01*
X26827399Y-79200500D01*
X26827401Y-79200500D01*
X26952599Y-79200500D01*
X26952601Y-79200500D01*
X27073536Y-79168095D01*
X27181964Y-79105495D01*
X27270495Y-79016964D01*
X27333095Y-78908536D01*
X27350389Y-78843995D01*
X27619499Y-78843995D01*
X27646418Y-78979322D01*
X27646421Y-78979332D01*
X27699221Y-79106804D01*
X27699228Y-79106817D01*
X27775885Y-79221541D01*
X27775888Y-79221545D01*
X27873454Y-79319111D01*
X27873458Y-79319114D01*
X27988182Y-79395771D01*
X27988195Y-79395778D01*
X28115667Y-79448578D01*
X28115672Y-79448580D01*
X28115676Y-79448580D01*
X28115677Y-79448581D01*
X28251004Y-79475500D01*
X28251007Y-79475500D01*
X28388995Y-79475500D01*
X28480041Y-79457389D01*
X28524328Y-79448580D01*
X28651811Y-79395775D01*
X28766542Y-79319114D01*
X28864114Y-79221542D01*
X28940775Y-79106811D01*
X28993580Y-78979328D01*
X29020500Y-78843993D01*
X29020500Y-77606007D01*
X29020500Y-77606004D01*
X28993581Y-77470677D01*
X28993580Y-77470676D01*
X28993580Y-77470672D01*
X28981725Y-77442052D01*
X28940778Y-77343195D01*
X28940771Y-77343182D01*
X28864114Y-77228458D01*
X28864111Y-77228454D01*
X28766545Y-77130888D01*
X28766541Y-77130885D01*
X28651817Y-77054228D01*
X28651804Y-77054221D01*
X28524332Y-77001421D01*
X28524322Y-77001418D01*
X28388995Y-76974500D01*
X28388993Y-76974500D01*
X28251007Y-76974500D01*
X28251005Y-76974500D01*
X28115677Y-77001418D01*
X28115667Y-77001421D01*
X27988195Y-77054221D01*
X27988182Y-77054228D01*
X27873458Y-77130885D01*
X27873454Y-77130888D01*
X27775888Y-77228454D01*
X27775885Y-77228458D01*
X27699228Y-77343182D01*
X27699221Y-77343195D01*
X27646421Y-77470667D01*
X27646418Y-77470677D01*
X27619500Y-77606004D01*
X27619500Y-77606007D01*
X27619500Y-78843993D01*
X27619500Y-78843995D01*
X27619499Y-78843995D01*
X27350389Y-78843995D01*
X27365500Y-78787601D01*
X27365500Y-78662399D01*
X27333095Y-78541464D01*
X27270495Y-78433036D01*
X27181964Y-78344505D01*
X27073536Y-78281905D01*
X27073537Y-78281905D01*
X27033224Y-78271103D01*
X26952601Y-78249500D01*
X26827399Y-78249500D01*
X26746775Y-78271103D01*
X26706463Y-78281905D01*
X26598037Y-78344504D01*
X26598034Y-78344506D01*
X26509506Y-78433034D01*
X26509504Y-78433037D01*
X26446905Y-78541463D01*
X26430702Y-78601931D01*
X26414500Y-78662399D01*
X21585500Y-78662399D01*
X21553095Y-78541464D01*
X21490495Y-78433036D01*
X21401964Y-78344505D01*
X21293536Y-78281905D01*
X21293537Y-78281905D01*
X21253224Y-78271103D01*
X21172601Y-78249500D01*
X21047399Y-78249500D01*
X20966775Y-78271103D01*
X20926463Y-78281905D01*
X20818037Y-78344504D01*
X20818034Y-78344506D01*
X20729506Y-78433034D01*
X20729504Y-78433037D01*
X20666905Y-78541463D01*
X20650702Y-78601931D01*
X20634500Y-78662399D01*
X20380500Y-78662399D01*
X20380500Y-77606007D01*
X20380500Y-77606004D01*
X20353581Y-77470677D01*
X20353580Y-77470676D01*
X20353580Y-77470672D01*
X20341725Y-77442052D01*
X20300778Y-77343195D01*
X20300771Y-77343182D01*
X20284206Y-77318391D01*
X20263328Y-77251714D01*
X20281812Y-77184334D01*
X20333791Y-77137643D01*
X20387308Y-77125500D01*
X21166324Y-77125500D01*
X21233363Y-77145185D01*
X21254005Y-77161819D01*
X21292686Y-77200500D01*
X21406814Y-77266392D01*
X21534108Y-77300500D01*
X21534110Y-77300500D01*
X21665890Y-77300500D01*
X21665892Y-77300500D01*
X21793186Y-77266392D01*
X21907314Y-77200500D01*
X21945995Y-77161819D01*
X22007318Y-77128334D01*
X22033676Y-77125500D01*
X25725171Y-77125500D01*
X25792210Y-77145185D01*
X25812680Y-77164022D01*
X25813734Y-77162969D01*
X25819481Y-77168716D01*
X25931284Y-77280519D01*
X26068215Y-77359577D01*
X26220943Y-77400501D01*
X26220946Y-77400501D01*
X26379054Y-77400501D01*
X26379057Y-77400501D01*
X26531785Y-77359577D01*
X26668716Y-77280519D01*
X26958509Y-76990724D01*
X26958514Y-76990721D01*
X26968714Y-76980520D01*
X26968716Y-76980520D01*
X27080520Y-76868716D01*
X27080521Y-76868714D01*
X27580520Y-76368716D01*
X27659577Y-76231784D01*
X27700501Y-76079057D01*
X27700501Y-75920942D01*
X27659577Y-75768215D01*
X27580520Y-75631284D01*
X27580514Y-75631278D01*
X27576121Y-75625552D01*
X27550930Y-75560382D01*
X27550500Y-75550069D01*
X27550500Y-69686107D01*
X27570185Y-69619068D01*
X27622989Y-69573313D01*
X27692147Y-69563369D01*
X27706594Y-69566332D01*
X27706810Y-69566390D01*
X27706814Y-69566392D01*
X27834108Y-69600500D01*
X27834111Y-69600500D01*
X27965890Y-69600500D01*
X27965892Y-69600500D01*
X28093186Y-69566392D01*
X28207314Y-69500500D01*
X28300500Y-69407314D01*
X28366392Y-69293186D01*
X28400500Y-69165892D01*
X28400500Y-69034108D01*
X28366392Y-68906814D01*
X28300500Y-68792686D01*
X28207314Y-68699500D01*
X28093186Y-68633608D01*
X28087973Y-68630598D01*
X28039758Y-68580030D01*
X28026536Y-68511423D01*
X28042585Y-68461214D01*
X28059577Y-68431784D01*
X28095884Y-68296286D01*
X28100500Y-68279058D01*
X28100500Y-68120943D01*
X28100500Y-67867334D01*
X28117113Y-67805334D01*
X28158270Y-67734047D01*
X28159577Y-67731784D01*
X28197998Y-67588394D01*
X28197998Y-67588393D01*
X28198000Y-67588393D01*
X28198000Y-67588384D01*
X28200500Y-67579058D01*
X28200500Y-67487965D01*
X28220185Y-67420926D01*
X28236819Y-67400284D01*
X28350284Y-67286819D01*
X28411607Y-67253334D01*
X28437965Y-67250500D01*
X28621637Y-67250500D01*
X28660179Y-67258165D01*
X28660365Y-67257473D01*
X28668214Y-67259576D01*
X28668216Y-67259577D01*
X28820943Y-67300500D01*
X28820945Y-67300500D01*
X28979055Y-67300500D01*
X28979057Y-67300500D01*
X29131784Y-67259577D01*
X29268716Y-67180520D01*
X29380520Y-67068716D01*
X29459577Y-66931784D01*
X29500500Y-66779057D01*
X29500500Y-66620943D01*
X29478122Y-66537427D01*
X29479785Y-66467581D01*
X29518947Y-66409718D01*
X29583175Y-66382214D01*
X29652078Y-66393800D01*
X29685578Y-66417656D01*
X29763181Y-66495259D01*
X29796666Y-66556582D01*
X29799500Y-66582940D01*
X29799500Y-67728846D01*
X29830261Y-67883489D01*
X29830264Y-67883501D01*
X29890602Y-68029172D01*
X29890609Y-68029185D01*
X29978210Y-68160288D01*
X29978213Y-68160292D01*
X29979796Y-68161875D01*
X29981039Y-68163736D01*
X29982076Y-68164999D01*
X29981951Y-68165101D01*
X30006676Y-68202102D01*
X30013875Y-68219481D01*
X30038552Y-68279057D01*
X30045689Y-68296285D01*
X30045692Y-68296292D01*
X30114141Y-68398732D01*
X30118007Y-68403443D01*
X30116809Y-68404425D01*
X30146662Y-68459077D01*
X30149500Y-68485453D01*
X30149500Y-71871981D01*
X30129815Y-71939020D01*
X30094395Y-71975080D01*
X30089715Y-71978207D01*
X30089707Y-71978213D01*
X29978213Y-72089707D01*
X29978210Y-72089711D01*
X29890609Y-72220814D01*
X29890602Y-72220827D01*
X29830264Y-72366498D01*
X29830261Y-72366510D01*
X29799500Y-72521153D01*
X29799500Y-75178843D01*
X29830261Y-75333489D01*
X29830264Y-75333501D01*
X29890602Y-75479172D01*
X29890609Y-75479185D01*
X29978602Y-75610874D01*
X29999480Y-75677551D01*
X29999500Y-75679765D01*
X29999500Y-78978846D01*
X30030261Y-79133489D01*
X30030264Y-79133501D01*
X30090061Y-79277864D01*
X30099500Y-79325316D01*
X30099500Y-80078846D01*
X30130261Y-80233489D01*
X30130264Y-80233501D01*
X30190602Y-80379172D01*
X30190609Y-80379185D01*
X30278210Y-80510288D01*
X30278213Y-80510292D01*
X30389707Y-80621786D01*
X30389711Y-80621789D01*
X30520814Y-80709390D01*
X30520827Y-80709397D01*
X30666498Y-80769735D01*
X30666503Y-80769737D01*
X30821153Y-80800499D01*
X30821156Y-80800500D01*
X30821158Y-80800500D01*
X30978844Y-80800500D01*
X31106567Y-80775094D01*
X31106567Y-80775093D01*
X31133497Y-80769737D01*
X31279179Y-80709394D01*
X31410289Y-80621789D01*
X31521789Y-80510289D01*
X31609394Y-80379179D01*
X31669737Y-80233497D01*
X31700500Y-80078842D01*
X31700500Y-78921158D01*
X31697990Y-78908536D01*
X31669737Y-78766502D01*
X31652062Y-78723833D01*
X31609939Y-78622136D01*
X31600500Y-78574684D01*
X31600500Y-77762051D01*
X31620185Y-77695012D01*
X31672989Y-77649257D01*
X31742147Y-77639313D01*
X31786499Y-77654663D01*
X31806814Y-77666392D01*
X31934108Y-77700500D01*
X31934110Y-77700500D01*
X32065890Y-77700500D01*
X32065892Y-77700500D01*
X32193186Y-77666392D01*
X32307314Y-77600500D01*
X32370995Y-77536819D01*
X32432318Y-77503334D01*
X32458676Y-77500500D01*
X36839560Y-77500500D01*
X36839562Y-77500500D01*
X36915989Y-77480021D01*
X36984511Y-77440460D01*
X37040460Y-77384511D01*
X43640460Y-70784511D01*
X43680022Y-70715988D01*
X43700500Y-70639562D01*
X43700500Y-70560438D01*
X43700500Y-70234108D01*
X52299500Y-70234108D01*
X52299500Y-70365892D01*
X52316554Y-70429539D01*
X52333608Y-70493187D01*
X52366554Y-70550250D01*
X52399500Y-70607314D01*
X52492686Y-70700500D01*
X52606814Y-70766392D01*
X52734108Y-70800500D01*
X52734110Y-70800500D01*
X52865890Y-70800500D01*
X52865892Y-70800500D01*
X52993186Y-70766392D01*
X53107314Y-70700500D01*
X53200500Y-70607314D01*
X53266392Y-70493186D01*
X53300500Y-70365892D01*
X53300500Y-70234108D01*
X53266392Y-70106814D01*
X53200500Y-69992686D01*
X53107314Y-69899500D01*
X53029521Y-69854586D01*
X52993187Y-69833608D01*
X52929539Y-69816554D01*
X52865892Y-69799500D01*
X52734108Y-69799500D01*
X52606812Y-69833608D01*
X52492686Y-69899500D01*
X52492683Y-69899502D01*
X52399502Y-69992683D01*
X52399500Y-69992686D01*
X52333608Y-70106812D01*
X52305014Y-70213528D01*
X52299500Y-70234108D01*
X43700500Y-70234108D01*
X43700500Y-70158676D01*
X43720185Y-70091637D01*
X43736819Y-70070995D01*
X43758339Y-70049475D01*
X43800500Y-70007314D01*
X43866392Y-69893186D01*
X43900500Y-69765892D01*
X43900500Y-69634108D01*
X43866392Y-69506814D01*
X43800500Y-69392686D01*
X43707314Y-69299500D01*
X43638162Y-69259575D01*
X43593187Y-69233608D01*
X43529539Y-69216554D01*
X43465892Y-69199500D01*
X43334108Y-69199500D01*
X43256593Y-69220270D01*
X43186743Y-69218607D01*
X43128881Y-69179444D01*
X43101377Y-69115216D01*
X43100500Y-69100495D01*
X43100500Y-66199504D01*
X43120185Y-66132465D01*
X43172989Y-66086710D01*
X43242147Y-66076766D01*
X43256571Y-66079724D01*
X43334108Y-66100500D01*
X43334111Y-66100500D01*
X43465890Y-66100500D01*
X43465892Y-66100500D01*
X43593186Y-66066392D01*
X43707314Y-66000500D01*
X43800500Y-65907314D01*
X43866392Y-65793186D01*
X43900500Y-65665892D01*
X43900500Y-65534108D01*
X43866392Y-65406814D01*
X43800500Y-65292686D01*
X43736818Y-65229004D01*
X43703334Y-65167680D01*
X43700500Y-65141323D01*
X43700500Y-62534108D01*
X44399500Y-62534108D01*
X44399500Y-62665892D01*
X44407046Y-62694054D01*
X44433608Y-62793187D01*
X44449077Y-62819979D01*
X44499500Y-62907314D01*
X44592686Y-63000500D01*
X44661899Y-63040460D01*
X44705944Y-63065890D01*
X44706814Y-63066392D01*
X44834108Y-63100500D01*
X44834110Y-63100500D01*
X44965890Y-63100500D01*
X44965892Y-63100500D01*
X45093186Y-63066392D01*
X45207314Y-63000500D01*
X45300500Y-62907314D01*
X45366392Y-62793186D01*
X45400500Y-62665892D01*
X45400500Y-62534108D01*
X45366392Y-62406814D01*
X45300500Y-62292686D01*
X45207314Y-62199500D01*
X45144408Y-62163181D01*
X45093187Y-62133608D01*
X45029539Y-62116554D01*
X44965892Y-62099500D01*
X44834108Y-62099500D01*
X44706812Y-62133608D01*
X44592686Y-62199500D01*
X44592683Y-62199502D01*
X44499502Y-62292683D01*
X44499500Y-62292686D01*
X44433608Y-62406812D01*
X44423802Y-62443409D01*
X44399500Y-62534108D01*
X43700500Y-62534108D01*
X43700500Y-51434108D01*
X46199500Y-51434108D01*
X46199500Y-51565892D01*
X46206813Y-51593186D01*
X46233608Y-51693187D01*
X46241766Y-51707316D01*
X46299500Y-51807314D01*
X46392686Y-51900500D01*
X46506814Y-51966392D01*
X46634108Y-52000500D01*
X46634110Y-52000500D01*
X46765890Y-52000500D01*
X46765892Y-52000500D01*
X46893186Y-51966392D01*
X47007314Y-51900500D01*
X47100500Y-51807314D01*
X47166392Y-51693186D01*
X47200500Y-51565892D01*
X47200500Y-51434108D01*
X47166392Y-51306814D01*
X47100500Y-51192686D01*
X47007314Y-51099500D01*
X46950250Y-51066554D01*
X46893187Y-51033608D01*
X46829539Y-51016554D01*
X46765892Y-50999500D01*
X46634108Y-50999500D01*
X46506812Y-51033608D01*
X46392686Y-51099500D01*
X46392683Y-51099502D01*
X46299502Y-51192683D01*
X46299500Y-51192686D01*
X46233608Y-51306812D01*
X46211859Y-51387982D01*
X46199500Y-51434108D01*
X43700500Y-51434108D01*
X43700500Y-50258676D01*
X43720185Y-50191637D01*
X43736819Y-50170995D01*
X43800500Y-50107314D01*
X43866392Y-49993186D01*
X43900500Y-49865892D01*
X43900500Y-49734108D01*
X43866392Y-49606814D01*
X43800500Y-49492686D01*
X43707314Y-49399500D01*
X43650250Y-49366554D01*
X43593187Y-49333608D01*
X43529539Y-49316554D01*
X43465892Y-49299500D01*
X43334108Y-49299500D01*
X43286782Y-49312181D01*
X43256593Y-49320270D01*
X43186743Y-49318607D01*
X43128881Y-49279444D01*
X43101377Y-49215216D01*
X43100500Y-49200495D01*
X43100500Y-45475832D01*
X43120185Y-45408793D01*
X43136815Y-45388155D01*
X43688151Y-44836818D01*
X43749474Y-44803334D01*
X43775832Y-44800500D01*
X43865890Y-44800500D01*
X43865892Y-44800500D01*
X43993186Y-44766392D01*
X44107314Y-44700500D01*
X44200500Y-44607314D01*
X44266392Y-44493186D01*
X44300500Y-44365892D01*
X44300500Y-44234108D01*
X44266392Y-44106814D01*
X44264473Y-44103491D01*
X44239617Y-44060439D01*
X44200500Y-43992686D01*
X44107314Y-43899500D01*
X44019768Y-43848955D01*
X43993187Y-43833608D01*
X43927430Y-43815989D01*
X43865892Y-43799500D01*
X43734108Y-43799500D01*
X43606812Y-43833608D01*
X43492686Y-43899500D01*
X43492683Y-43899502D01*
X43399502Y-43992683D01*
X43399500Y-43992686D01*
X43333608Y-44106812D01*
X43299500Y-44234108D01*
X43299500Y-44324166D01*
X43279815Y-44391205D01*
X43263181Y-44411847D01*
X42615489Y-45059540D01*
X42559541Y-45115487D01*
X42559535Y-45115495D01*
X42519982Y-45184004D01*
X42519979Y-45184009D01*
X42499500Y-45260439D01*
X42499500Y-69695684D01*
X42479815Y-69762723D01*
X42427011Y-69808478D01*
X42357853Y-69818422D01*
X42313498Y-69803070D01*
X42262498Y-69773624D01*
X42214283Y-69723056D01*
X42200500Y-69666238D01*
X42200500Y-45260439D01*
X42200500Y-45260438D01*
X42180021Y-45184011D01*
X42170732Y-45167922D01*
X42140464Y-45115495D01*
X42140458Y-45115487D01*
X41336819Y-44311848D01*
X41303334Y-44250525D01*
X41300500Y-44224167D01*
X41300500Y-44060439D01*
X41300500Y-44060438D01*
X41280021Y-43984011D01*
X41269848Y-43966391D01*
X41240464Y-43915495D01*
X41240458Y-43915487D01*
X41229517Y-43904546D01*
X41197424Y-43848958D01*
X41188590Y-43815989D01*
X41180022Y-43784012D01*
X41140460Y-43715489D01*
X41059079Y-43634108D01*
X51499500Y-43634108D01*
X51499500Y-43765892D01*
X51512923Y-43815989D01*
X51533608Y-43893187D01*
X51560902Y-43940460D01*
X51599500Y-44007314D01*
X51692686Y-44100500D01*
X51806814Y-44166392D01*
X51934108Y-44200500D01*
X51934110Y-44200500D01*
X52065890Y-44200500D01*
X52065892Y-44200500D01*
X52193186Y-44166392D01*
X52307314Y-44100500D01*
X52400500Y-44007314D01*
X52466392Y-43893186D01*
X52500500Y-43765892D01*
X52500500Y-43634108D01*
X52466392Y-43506814D01*
X52400500Y-43392686D01*
X52307314Y-43299500D01*
X52250250Y-43266554D01*
X52193187Y-43233608D01*
X52127430Y-43215989D01*
X52065892Y-43199500D01*
X51934108Y-43199500D01*
X51806812Y-43233608D01*
X51692686Y-43299500D01*
X51692683Y-43299502D01*
X51599502Y-43392683D01*
X51599500Y-43392686D01*
X51533608Y-43506812D01*
X51517778Y-43565892D01*
X51499500Y-43634108D01*
X41059079Y-43634108D01*
X38836819Y-41411848D01*
X38822115Y-41384920D01*
X38805523Y-41359102D01*
X38804631Y-41352901D01*
X38803334Y-41350525D01*
X38800500Y-41324167D01*
X38800500Y-41234108D01*
X40399500Y-41234108D01*
X40399500Y-41365892D01*
X40407746Y-41396666D01*
X40433608Y-41493187D01*
X40460880Y-41540423D01*
X40499500Y-41607314D01*
X40592686Y-41700500D01*
X40706814Y-41766392D01*
X40834108Y-41800500D01*
X40834110Y-41800500D01*
X40965890Y-41800500D01*
X40965892Y-41800500D01*
X41093186Y-41766392D01*
X41207314Y-41700500D01*
X41300500Y-41607314D01*
X41366392Y-41493186D01*
X41400500Y-41365892D01*
X41400500Y-41234108D01*
X41366392Y-41106814D01*
X41300500Y-40992686D01*
X41207314Y-40899500D01*
X41144408Y-40863181D01*
X41093187Y-40833608D01*
X41029539Y-40816554D01*
X40965892Y-40799500D01*
X40834108Y-40799500D01*
X40706812Y-40833608D01*
X40592686Y-40899500D01*
X40592683Y-40899502D01*
X40499502Y-40992683D01*
X40499500Y-40992686D01*
X40433608Y-41106812D01*
X40408773Y-41199500D01*
X40399500Y-41234108D01*
X38800500Y-41234108D01*
X38800500Y-13134108D01*
X47999500Y-13134108D01*
X47999500Y-13265891D01*
X48033608Y-13393187D01*
X48052761Y-13426360D01*
X48099500Y-13507314D01*
X48192686Y-13600500D01*
X48306814Y-13666392D01*
X48434108Y-13700500D01*
X48434110Y-13700500D01*
X48565890Y-13700500D01*
X48565892Y-13700500D01*
X48693186Y-13666392D01*
X48807314Y-13600500D01*
X48900500Y-13507314D01*
X48966392Y-13393186D01*
X49000500Y-13265892D01*
X49000500Y-13134108D01*
X48966392Y-13006814D01*
X48900500Y-12892686D01*
X48807314Y-12799500D01*
X48750250Y-12766554D01*
X48693187Y-12733608D01*
X48629539Y-12716554D01*
X48565892Y-12699500D01*
X48434108Y-12699500D01*
X48306812Y-12733608D01*
X48192686Y-12799500D01*
X48192683Y-12799502D01*
X48099502Y-12892683D01*
X48099500Y-12892686D01*
X48033608Y-13006812D01*
X47999500Y-13134108D01*
X38800500Y-13134108D01*
X38800500Y-12560439D01*
X38789525Y-12519480D01*
X38780021Y-12484011D01*
X38760906Y-12450902D01*
X38740464Y-12415495D01*
X38740458Y-12415487D01*
X38127953Y-11802982D01*
X38094468Y-11741659D01*
X38095859Y-11683209D01*
X38100500Y-11665892D01*
X38100500Y-11534108D01*
X38066392Y-11406814D01*
X38000500Y-11292686D01*
X37907314Y-11199500D01*
X37850250Y-11166554D01*
X37793187Y-11133608D01*
X37729539Y-11116554D01*
X37665892Y-11099500D01*
X37534108Y-11099500D01*
X37406814Y-11133608D01*
X37406813Y-11133608D01*
X37406811Y-11133609D01*
X37406810Y-11133609D01*
X37286500Y-11203071D01*
X37218600Y-11219544D01*
X37152573Y-11196692D01*
X37109382Y-11141770D01*
X37100500Y-11095684D01*
X37100500Y-10758676D01*
X37120185Y-10691637D01*
X37136819Y-10670995D01*
X37200500Y-10607314D01*
X37266392Y-10493186D01*
X37300500Y-10365892D01*
X37300500Y-10234108D01*
X37266392Y-10106814D01*
X37200500Y-9992686D01*
X37107314Y-9899500D01*
X37050250Y-9866554D01*
X36993187Y-9833608D01*
X36929539Y-9816554D01*
X36865892Y-9799500D01*
X36734108Y-9799500D01*
X36656593Y-9820270D01*
X36586743Y-9818607D01*
X36528881Y-9779444D01*
X36501377Y-9715216D01*
X36500500Y-9700495D01*
X36500500Y-9558676D01*
X36520185Y-9491637D01*
X36536819Y-9470995D01*
X36600500Y-9407314D01*
X36666392Y-9293186D01*
X36700500Y-9165892D01*
X36700500Y-9034108D01*
X36666392Y-8906814D01*
X36600500Y-8792686D01*
X36507314Y-8699500D01*
X36450250Y-8666554D01*
X36393187Y-8633608D01*
X36329539Y-8616554D01*
X36265892Y-8599500D01*
X36134108Y-8599500D01*
X36006812Y-8633608D01*
X35892686Y-8699500D01*
X35892683Y-8699502D01*
X35799502Y-8792683D01*
X35799500Y-8792686D01*
X35733608Y-8906812D01*
X35699500Y-9034108D01*
X35699500Y-9165891D01*
X35733608Y-9293187D01*
X35766554Y-9350250D01*
X35799500Y-9407314D01*
X35799502Y-9407316D01*
X35863181Y-9470995D01*
X35896666Y-9532318D01*
X35899500Y-9558676D01*
X35899500Y-36624166D01*
X35879815Y-36691205D01*
X35863181Y-36711847D01*
X28811847Y-43763181D01*
X28750524Y-43796666D01*
X28724166Y-43799500D01*
X28625981Y-43799500D01*
X28625981Y-43796340D01*
X28571652Y-43787869D01*
X28519395Y-43741490D01*
X28500500Y-43675695D01*
X28500500Y-36675833D01*
X28520185Y-36608794D01*
X28536819Y-36588152D01*
X28664533Y-36460438D01*
X28940460Y-36184511D01*
X28980022Y-36115988D01*
X29000500Y-36039562D01*
X29000500Y-35960438D01*
X29000500Y-33834108D01*
X30699500Y-33834108D01*
X30699500Y-33965891D01*
X30733608Y-34093187D01*
X30766554Y-34150250D01*
X30799500Y-34207314D01*
X30892686Y-34300500D01*
X31006814Y-34366392D01*
X31134108Y-34400500D01*
X31134110Y-34400500D01*
X31265890Y-34400500D01*
X31265892Y-34400500D01*
X31393186Y-34366392D01*
X31507314Y-34300500D01*
X31600500Y-34207314D01*
X31666392Y-34093186D01*
X31700500Y-33965892D01*
X31700500Y-33834108D01*
X31666392Y-33706814D01*
X31600500Y-33592686D01*
X31507314Y-33499500D01*
X31450250Y-33466554D01*
X31393187Y-33433608D01*
X31329539Y-33416554D01*
X31265892Y-33399500D01*
X31134108Y-33399500D01*
X31006812Y-33433608D01*
X30892686Y-33499500D01*
X30892683Y-33499502D01*
X30799502Y-33592683D01*
X30799500Y-33592686D01*
X30733608Y-33706812D01*
X30699500Y-33834108D01*
X29000500Y-33834108D01*
X29000500Y-26562051D01*
X29020185Y-26495012D01*
X29072989Y-26449257D01*
X29142147Y-26439313D01*
X29186499Y-26454663D01*
X29206814Y-26466392D01*
X29334108Y-26500500D01*
X29334110Y-26500500D01*
X29424167Y-26500500D01*
X29491206Y-26520185D01*
X29511848Y-26536819D01*
X32363181Y-29388152D01*
X32396666Y-29449475D01*
X32399500Y-29475833D01*
X32399500Y-29565891D01*
X32433608Y-29693187D01*
X32466554Y-29750250D01*
X32499500Y-29807314D01*
X32592686Y-29900500D01*
X32706814Y-29966392D01*
X32834108Y-30000500D01*
X32834110Y-30000500D01*
X32965890Y-30000500D01*
X32965892Y-30000500D01*
X33093186Y-29966392D01*
X33207314Y-29900500D01*
X33300500Y-29807314D01*
X33366392Y-29693186D01*
X33400500Y-29565892D01*
X33400500Y-29434108D01*
X33366392Y-29306814D01*
X33300500Y-29192686D01*
X33207314Y-29099500D01*
X33150250Y-29066554D01*
X33093187Y-29033608D01*
X33029539Y-29016554D01*
X32965892Y-28999500D01*
X32875833Y-28999500D01*
X32808794Y-28979815D01*
X32788152Y-28963181D01*
X32236977Y-28412006D01*
X32203492Y-28350683D01*
X32208476Y-28280991D01*
X32250348Y-28225058D01*
X32315812Y-28200641D01*
X32325981Y-28200946D01*
X32325981Y-28200500D01*
X32465890Y-28200500D01*
X32465892Y-28200500D01*
X32593186Y-28166392D01*
X32707314Y-28100500D01*
X32800500Y-28007314D01*
X32866392Y-27893186D01*
X32900500Y-27765892D01*
X32900500Y-27634108D01*
X32866392Y-27506814D01*
X32800500Y-27392686D01*
X32707314Y-27299500D01*
X32650250Y-27266554D01*
X32593187Y-27233608D01*
X32529539Y-27216554D01*
X32465892Y-27199500D01*
X32375833Y-27199500D01*
X32308794Y-27179815D01*
X32288152Y-27163181D01*
X31828145Y-26703174D01*
X31794660Y-26641851D01*
X31799644Y-26572159D01*
X31841516Y-26516226D01*
X31883728Y-26495720D01*
X31993186Y-26466392D01*
X32107314Y-26400500D01*
X32200500Y-26307314D01*
X32266392Y-26193186D01*
X32300500Y-26065892D01*
X32300500Y-25934108D01*
X32266392Y-25806814D01*
X32200500Y-25692686D01*
X32107314Y-25599500D01*
X32042028Y-25561807D01*
X31993187Y-25533608D01*
X31929539Y-25516554D01*
X31865892Y-25499500D01*
X31734108Y-25499500D01*
X31606812Y-25533608D01*
X31492686Y-25599500D01*
X31492683Y-25599502D01*
X31399502Y-25692683D01*
X31399500Y-25692686D01*
X31357387Y-25765628D01*
X31306820Y-25813843D01*
X31238212Y-25827065D01*
X31173348Y-25801097D01*
X31142613Y-25765628D01*
X31100500Y-25692686D01*
X31007314Y-25599500D01*
X30942028Y-25561807D01*
X30893187Y-25533608D01*
X30829539Y-25516554D01*
X30765892Y-25499500D01*
X30634108Y-25499500D01*
X30506812Y-25533608D01*
X30392686Y-25599500D01*
X30392683Y-25599502D01*
X30299502Y-25692683D01*
X30299500Y-25692686D01*
X30233608Y-25806812D01*
X30199500Y-25934108D01*
X30199500Y-26074019D01*
X30196296Y-26074019D01*
X30187846Y-26128195D01*
X30141464Y-26180449D01*
X30074194Y-26199332D01*
X30007395Y-26178849D01*
X29987993Y-26163022D01*
X29936819Y-26111848D01*
X29903334Y-26050525D01*
X29900500Y-26024167D01*
X29900500Y-25934110D01*
X29900500Y-25934108D01*
X29866392Y-25806814D01*
X29800500Y-25692686D01*
X29707314Y-25599500D01*
X29642028Y-25561807D01*
X29593187Y-25533608D01*
X29529539Y-25516554D01*
X29465892Y-25499500D01*
X29334108Y-25499500D01*
X29206814Y-25533608D01*
X29206813Y-25533608D01*
X29206811Y-25533609D01*
X29206808Y-25533610D01*
X29186498Y-25545336D01*
X29118598Y-25561807D01*
X29052571Y-25538954D01*
X29009382Y-25484032D01*
X29000500Y-25437948D01*
X29000500Y-18260439D01*
X29000499Y-18260433D01*
X28998435Y-18252730D01*
X28998434Y-18252728D01*
X28998434Y-18252727D01*
X28980022Y-18184012D01*
X28940460Y-18115489D01*
X27884511Y-17059540D01*
X27884510Y-17059539D01*
X27854385Y-17042147D01*
X27839595Y-17033608D01*
X27834604Y-17030726D01*
X27815990Y-17019979D01*
X27815991Y-17019979D01*
X27777775Y-17009739D01*
X27739562Y-16999500D01*
X27739560Y-16999500D01*
X19475833Y-16999500D01*
X19408794Y-16979815D01*
X19388152Y-16963181D01*
X19284512Y-16859541D01*
X19284504Y-16859535D01*
X19215995Y-16819982D01*
X19215990Y-16819979D01*
X19190513Y-16813152D01*
X19139562Y-16799500D01*
X19139560Y-16799500D01*
X18875833Y-16799500D01*
X18808794Y-16779815D01*
X18788152Y-16763181D01*
X18536819Y-16511848D01*
X18503334Y-16450525D01*
X18500500Y-16424167D01*
X18500500Y-16334110D01*
X18500500Y-16334108D01*
X18466392Y-16206814D01*
X18400500Y-16092686D01*
X18307314Y-15999500D01*
X18250250Y-15966554D01*
X18193187Y-15933608D01*
X18129539Y-15916554D01*
X18065892Y-15899500D01*
X17934108Y-15899500D01*
X17806812Y-15933608D01*
X17692686Y-15999500D01*
X17692683Y-15999502D01*
X17599502Y-16092683D01*
X17599500Y-16092686D01*
X17533608Y-16206812D01*
X17499500Y-16334108D01*
X17499500Y-16465892D01*
X17511814Y-16511848D01*
X17533608Y-16593187D01*
X17566554Y-16650250D01*
X17599500Y-16707314D01*
X17692686Y-16800500D01*
X17806814Y-16866392D01*
X17934108Y-16900500D01*
X17934110Y-16900500D01*
X17947794Y-16900500D01*
X18014833Y-16920185D01*
X18060588Y-16972989D01*
X18070532Y-17042147D01*
X18041507Y-17105703D01*
X18009794Y-17131887D01*
X17892689Y-17199497D01*
X17892683Y-17199502D01*
X17799502Y-17292683D01*
X17799500Y-17292686D01*
X17733608Y-17406812D01*
X17699500Y-17534108D01*
X17699500Y-17665891D01*
X17733608Y-17793187D01*
X17755603Y-17831282D01*
X17799500Y-17907314D01*
X17892686Y-18000500D01*
X18006814Y-18066392D01*
X18134108Y-18100500D01*
X18134110Y-18100500D01*
X18265890Y-18100500D01*
X18265892Y-18100500D01*
X18393186Y-18066392D01*
X18468161Y-18023105D01*
X18536057Y-18006632D01*
X18602084Y-18029483D01*
X18610868Y-18036913D01*
X18615484Y-18040455D01*
X18615489Y-18040460D01*
X18684012Y-18080022D01*
X18760438Y-18100500D01*
X19524167Y-18100500D01*
X19591206Y-18120185D01*
X19611848Y-18136819D01*
X26792986Y-25317957D01*
X26826471Y-25379280D01*
X26821487Y-25448972D01*
X26779615Y-25504905D01*
X26737401Y-25525412D01*
X26706814Y-25533608D01*
X26706813Y-25533608D01*
X26706811Y-25533609D01*
X26592686Y-25599500D01*
X26592683Y-25599502D01*
X26499502Y-25692683D01*
X26499500Y-25692686D01*
X26433608Y-25806812D01*
X26399500Y-25934108D01*
X26399500Y-26065892D01*
X26401678Y-26074019D01*
X26433608Y-26193187D01*
X26437156Y-26199332D01*
X26499500Y-26307314D01*
X26499502Y-26307316D01*
X26563181Y-26370995D01*
X26596666Y-26432318D01*
X26599500Y-26458676D01*
X26599500Y-36524167D01*
X26579815Y-36591206D01*
X26563181Y-36611848D01*
X25311848Y-37863181D01*
X25250525Y-37896666D01*
X25224167Y-37899500D01*
X25124833Y-37899500D01*
X25057794Y-37879815D01*
X25012039Y-37827011D01*
X25002095Y-37757853D01*
X25031120Y-37694297D01*
X25037152Y-37687819D01*
X25188152Y-37536819D01*
X25340460Y-37384511D01*
X25380022Y-37315988D01*
X25400500Y-37239562D01*
X25400500Y-37160438D01*
X25400500Y-28458676D01*
X25420185Y-28391637D01*
X25436819Y-28370995D01*
X25457131Y-28350683D01*
X25500500Y-28307314D01*
X25566392Y-28193186D01*
X25600500Y-28065892D01*
X25600500Y-27934108D01*
X25566392Y-27806814D01*
X25500500Y-27692686D01*
X25407314Y-27599500D01*
X25350250Y-27566554D01*
X25293187Y-27533608D01*
X25193188Y-27506814D01*
X25165892Y-27499500D01*
X25034108Y-27499500D01*
X24906814Y-27533608D01*
X24906813Y-27533608D01*
X24906811Y-27533609D01*
X24906810Y-27533609D01*
X24786500Y-27603071D01*
X24718600Y-27619544D01*
X24652573Y-27596692D01*
X24609382Y-27541770D01*
X24600500Y-27495684D01*
X24600500Y-26458676D01*
X24620185Y-26391637D01*
X24636819Y-26370995D01*
X24700500Y-26307314D01*
X24766392Y-26193186D01*
X24800500Y-26065892D01*
X24800500Y-25934108D01*
X24766392Y-25806814D01*
X24700500Y-25692686D01*
X24607314Y-25599500D01*
X24542028Y-25561807D01*
X24493187Y-25533608D01*
X24429539Y-25516554D01*
X24365892Y-25499500D01*
X24234108Y-25499500D01*
X24106812Y-25533608D01*
X23992686Y-25599500D01*
X23992683Y-25599502D01*
X23899502Y-25692683D01*
X23899500Y-25692686D01*
X23833608Y-25806812D01*
X23799500Y-25934108D01*
X23799500Y-26065892D01*
X23801678Y-26074019D01*
X23833608Y-26193187D01*
X23837156Y-26199332D01*
X23899500Y-26307314D01*
X23899502Y-26307316D01*
X23963181Y-26370995D01*
X23996666Y-26432318D01*
X23999500Y-26458676D01*
X23999500Y-35824167D01*
X23979815Y-35891206D01*
X23963181Y-35911848D01*
X23011848Y-36863181D01*
X22950525Y-36896666D01*
X22924167Y-36899500D01*
X15560438Y-36899500D01*
X15529867Y-36907691D01*
X15484008Y-36919979D01*
X15484007Y-36919980D01*
X15448538Y-36940459D01*
X15415492Y-36959537D01*
X15415487Y-36959541D01*
X11511848Y-40863181D01*
X11450525Y-40896666D01*
X11424167Y-40899500D01*
X9224833Y-40899500D01*
X9157794Y-40879815D01*
X9112039Y-40827011D01*
X9102095Y-40757853D01*
X9131120Y-40694297D01*
X9137152Y-40687819D01*
X10225471Y-39599500D01*
X11340460Y-38484511D01*
X11380022Y-38415988D01*
X11400500Y-38339562D01*
X11400500Y-38260438D01*
X11400500Y-37607676D01*
X11420185Y-37540637D01*
X11472989Y-37494882D01*
X11542147Y-37484938D01*
X11605703Y-37513963D01*
X11612181Y-37519995D01*
X11692686Y-37600500D01*
X11806814Y-37666392D01*
X11934108Y-37700500D01*
X11934110Y-37700500D01*
X12065890Y-37700500D01*
X12065892Y-37700500D01*
X12193186Y-37666392D01*
X12307314Y-37600500D01*
X12400500Y-37507314D01*
X12466392Y-37393186D01*
X12500500Y-37265892D01*
X12500500Y-37134108D01*
X12466392Y-37006814D01*
X12400500Y-36892686D01*
X12307314Y-36799500D01*
X12250250Y-36766554D01*
X12193187Y-36733608D01*
X12111972Y-36711847D01*
X12065892Y-36699500D01*
X12024833Y-36699500D01*
X11957794Y-36679815D01*
X11912039Y-36627011D01*
X11902095Y-36557853D01*
X11931120Y-36494297D01*
X11937152Y-36487819D01*
X14832288Y-33592683D01*
X17840460Y-30584511D01*
X17880021Y-30515989D01*
X17900500Y-30439562D01*
X17900500Y-25443032D01*
X17920185Y-25375993D01*
X17972989Y-25330238D01*
X18042147Y-25320294D01*
X18105703Y-25349319D01*
X18112181Y-25355351D01*
X18184400Y-25427570D01*
X18184406Y-25427575D01*
X20099288Y-27342457D01*
X20131381Y-27398042D01*
X20140422Y-27431781D01*
X20140426Y-27431790D01*
X20219475Y-27568709D01*
X20219479Y-27568714D01*
X20219480Y-27568716D01*
X20331284Y-27680520D01*
X20331286Y-27680521D01*
X20331290Y-27680524D01*
X20352356Y-27692686D01*
X20468216Y-27759577D01*
X20620943Y-27800500D01*
X20620945Y-27800500D01*
X20779055Y-27800500D01*
X20779057Y-27800500D01*
X20931784Y-27759577D01*
X21068716Y-27680520D01*
X21180520Y-27568716D01*
X21259577Y-27431784D01*
X21300500Y-27279057D01*
X21300500Y-27120943D01*
X21259577Y-26968216D01*
X21259573Y-26968209D01*
X21180524Y-26831290D01*
X21180518Y-26831282D01*
X21068717Y-26719481D01*
X21068709Y-26719475D01*
X20931790Y-26640426D01*
X20931786Y-26640424D01*
X20931784Y-26640423D01*
X20931782Y-26640422D01*
X20931781Y-26640422D01*
X20898042Y-26631381D01*
X20842457Y-26599288D01*
X19061819Y-24818650D01*
X19028334Y-24757327D01*
X19025500Y-24730969D01*
X19025500Y-24130819D01*
X19025500Y-24130817D01*
X18989688Y-23997164D01*
X18920505Y-23877335D01*
X18822665Y-23779495D01*
X18822664Y-23779494D01*
X18818334Y-23775164D01*
X18818323Y-23775154D01*
X18527575Y-23484406D01*
X18527573Y-23484403D01*
X18422666Y-23379496D01*
X18422661Y-23379492D01*
X18302840Y-23310313D01*
X18274592Y-23302743D01*
X18274591Y-23302743D01*
X18169183Y-23274499D01*
X18030817Y-23274499D01*
X18023221Y-23274499D01*
X18023205Y-23274500D01*
X17569031Y-23274500D01*
X17501992Y-23254815D01*
X17481350Y-23238181D01*
X16877277Y-22634108D01*
X20599500Y-22634108D01*
X20599500Y-22765891D01*
X20633608Y-22893187D01*
X20666554Y-22950250D01*
X20699500Y-23007314D01*
X20792686Y-23100500D01*
X20906814Y-23166392D01*
X21034108Y-23200500D01*
X21034110Y-23200500D01*
X21165890Y-23200500D01*
X21165892Y-23200500D01*
X21293186Y-23166392D01*
X21407314Y-23100500D01*
X21500500Y-23007314D01*
X21566392Y-22893186D01*
X21600500Y-22765892D01*
X21600500Y-22634108D01*
X21566392Y-22506814D01*
X21500500Y-22392686D01*
X21407314Y-22299500D01*
X21349968Y-22266391D01*
X21293187Y-22233608D01*
X21229539Y-22216554D01*
X21165892Y-22199500D01*
X21034108Y-22199500D01*
X20906812Y-22233608D01*
X20792686Y-22299500D01*
X20792683Y-22299502D01*
X20699502Y-22392683D01*
X20699500Y-22392686D01*
X20633608Y-22506812D01*
X20599500Y-22634108D01*
X16877277Y-22634108D01*
X15977277Y-21734108D01*
X18299500Y-21734108D01*
X18299500Y-21865891D01*
X18333608Y-21993187D01*
X18366554Y-22050250D01*
X18399500Y-22107314D01*
X18492686Y-22200500D01*
X18606814Y-22266392D01*
X18734108Y-22300500D01*
X18734110Y-22300500D01*
X18865890Y-22300500D01*
X18865892Y-22300500D01*
X18993186Y-22266392D01*
X19107314Y-22200500D01*
X19200500Y-22107314D01*
X19266392Y-21993186D01*
X19300500Y-21865892D01*
X19300500Y-21734108D01*
X19266392Y-21606814D01*
X19200500Y-21492686D01*
X19107314Y-21399500D01*
X19050250Y-21366554D01*
X18993187Y-21333608D01*
X18929539Y-21316554D01*
X18865892Y-21299500D01*
X18734108Y-21299500D01*
X18606812Y-21333608D01*
X18492686Y-21399500D01*
X18492683Y-21399502D01*
X18399502Y-21492683D01*
X18399500Y-21492686D01*
X18333608Y-21606812D01*
X18299500Y-21734108D01*
X15977277Y-21734108D01*
X15377277Y-21134108D01*
X19999500Y-21134108D01*
X19999500Y-21265891D01*
X20033608Y-21393187D01*
X20066554Y-21450250D01*
X20099500Y-21507314D01*
X20192686Y-21600500D01*
X20306814Y-21666392D01*
X20434108Y-21700500D01*
X20434110Y-21700500D01*
X20565890Y-21700500D01*
X20565892Y-21700500D01*
X20693186Y-21666392D01*
X20807314Y-21600500D01*
X20900500Y-21507314D01*
X20966392Y-21393186D01*
X21000500Y-21265892D01*
X21000500Y-21134108D01*
X20966392Y-21006814D01*
X20900500Y-20892686D01*
X20807314Y-20799500D01*
X20750250Y-20766554D01*
X20693187Y-20733608D01*
X20629539Y-20716554D01*
X20565892Y-20699500D01*
X20434108Y-20699500D01*
X20306812Y-20733608D01*
X20192686Y-20799500D01*
X20192683Y-20799502D01*
X20099502Y-20892683D01*
X20099500Y-20892686D01*
X20033608Y-21006812D01*
X19999500Y-21134108D01*
X15377277Y-21134108D01*
X12300710Y-18057541D01*
X12268617Y-18001954D01*
X12259577Y-17968216D01*
X12259574Y-17968212D01*
X12259574Y-17968209D01*
X12180524Y-17831290D01*
X12180518Y-17831282D01*
X12068717Y-17719481D01*
X12068709Y-17719475D01*
X11931790Y-17640426D01*
X11931786Y-17640424D01*
X11931784Y-17640423D01*
X11779057Y-17599500D01*
X11620943Y-17599500D01*
X11468216Y-17640423D01*
X11468209Y-17640426D01*
X11331290Y-17719475D01*
X11331282Y-17719481D01*
X11219481Y-17831282D01*
X11219475Y-17831290D01*
X11140426Y-17968209D01*
X11140423Y-17968216D01*
X11099500Y-18120943D01*
X11099500Y-18279057D01*
X11138464Y-18424471D01*
X11140423Y-18431783D01*
X11140426Y-18431790D01*
X11219475Y-18568709D01*
X11219479Y-18568714D01*
X11219480Y-18568716D01*
X11331284Y-18680520D01*
X11331286Y-18680521D01*
X11331290Y-18680524D01*
X11468209Y-18759574D01*
X11468212Y-18759574D01*
X11468216Y-18759577D01*
X11501954Y-18768617D01*
X11557541Y-18800710D01*
X16875154Y-24118323D01*
X16875164Y-24118334D01*
X16879494Y-24122664D01*
X16879495Y-24122665D01*
X16977335Y-24220505D01*
X16977337Y-24220506D01*
X16977338Y-24220507D01*
X17104203Y-24293752D01*
X17103560Y-24294865D01*
X17151508Y-24333501D01*
X17173575Y-24399795D01*
X17157042Y-24466224D01*
X17133608Y-24506812D01*
X17099500Y-24634108D01*
X17099500Y-24765891D01*
X17133608Y-24893187D01*
X17166554Y-24950250D01*
X17199500Y-25007314D01*
X17199502Y-25007316D01*
X17263181Y-25070995D01*
X17296666Y-25132318D01*
X17299500Y-25158676D01*
X17299500Y-30224167D01*
X17279815Y-30291206D01*
X17263181Y-30311848D01*
X10859541Y-36715487D01*
X10859535Y-36715495D01*
X10819982Y-36784004D01*
X10819979Y-36784009D01*
X10799500Y-36860439D01*
X10799500Y-38124166D01*
X10779815Y-38191205D01*
X10763181Y-38211847D01*
X8903174Y-40071853D01*
X8841851Y-40105338D01*
X8772159Y-40100354D01*
X8716226Y-40058482D01*
X8695720Y-40016269D01*
X8666392Y-39906814D01*
X8600500Y-39792686D01*
X8507314Y-39699500D01*
X8449968Y-39666391D01*
X8393187Y-39633608D01*
X8329539Y-39616554D01*
X8265892Y-39599500D01*
X8175833Y-39599500D01*
X8108794Y-39579815D01*
X8088152Y-39563181D01*
X6184512Y-37659541D01*
X6184504Y-37659535D01*
X6115995Y-37619982D01*
X6115990Y-37619979D01*
X6090513Y-37613152D01*
X6039562Y-37599500D01*
X6039560Y-37599500D01*
X3962051Y-37599500D01*
X3895012Y-37579815D01*
X3849257Y-37527011D01*
X3839313Y-37457853D01*
X3854664Y-37413499D01*
X3866392Y-37393186D01*
X3900500Y-37265892D01*
X3900500Y-37134108D01*
X3866392Y-37006814D01*
X3800500Y-36892686D01*
X3707314Y-36799500D01*
X3650250Y-36766554D01*
X3593187Y-36733608D01*
X3511972Y-36711847D01*
X3465892Y-36699500D01*
X3334108Y-36699500D01*
X3206812Y-36733608D01*
X3092686Y-36799500D01*
X3092683Y-36799502D01*
X2999502Y-36892683D01*
X2999500Y-36892686D01*
X2933608Y-37006812D01*
X2921896Y-37050523D01*
X2904356Y-37115987D01*
X2904281Y-37116266D01*
X2867916Y-37175927D01*
X2805069Y-37206456D01*
X2735694Y-37198161D01*
X2696825Y-37171854D01*
X2084512Y-36559541D01*
X2084507Y-36559537D01*
X2068853Y-36550499D01*
X2068851Y-36550499D01*
X2039297Y-36533436D01*
X2015990Y-36519979D01*
X1990513Y-36513152D01*
X1939562Y-36499500D01*
X1939560Y-36499500D01*
X1475833Y-36499500D01*
X1408794Y-36479815D01*
X1388152Y-36463181D01*
X1236819Y-36311848D01*
X1203334Y-36250525D01*
X1200500Y-36224167D01*
X1200500Y-36134110D01*
X1200500Y-36134108D01*
X1166392Y-36006814D01*
X1100500Y-35892686D01*
X1007314Y-35799500D01*
X950250Y-35766554D01*
X893187Y-35733608D01*
X829539Y-35716554D01*
X765892Y-35699500D01*
X634108Y-35699500D01*
X556092Y-35720403D01*
X486243Y-35718741D01*
X428381Y-35679578D01*
X400877Y-35615350D01*
X400000Y-35600629D01*
X400000Y-22443982D01*
X12974500Y-22443982D01*
X12974500Y-22556018D01*
X13003497Y-22664237D01*
X13059515Y-22761263D01*
X13138737Y-22840485D01*
X13235763Y-22896503D01*
X13343982Y-22925500D01*
X13343984Y-22925500D01*
X13456016Y-22925500D01*
X13456018Y-22925500D01*
X13564237Y-22896503D01*
X13661263Y-22840485D01*
X13740485Y-22761263D01*
X13796503Y-22664237D01*
X13825500Y-22556018D01*
X13825500Y-22443982D01*
X13796503Y-22335763D01*
X13740485Y-22238737D01*
X13661263Y-22159515D01*
X13564237Y-22103497D01*
X13456018Y-22074500D01*
X13343982Y-22074500D01*
X13235763Y-22103497D01*
X13235760Y-22103498D01*
X13138740Y-22159513D01*
X13138734Y-22159517D01*
X13059517Y-22238734D01*
X13059513Y-22238740D01*
X13003498Y-22335760D01*
X13003497Y-22335763D01*
X12974500Y-22443982D01*
X400000Y-22443982D01*
X400000Y-17434108D01*
X12799500Y-17434108D01*
X12799500Y-17565891D01*
X12833608Y-17693187D01*
X12848786Y-17719475D01*
X12899500Y-17807314D01*
X12992686Y-17900500D01*
X13106814Y-17966392D01*
X13234108Y-18000500D01*
X13234110Y-18000500D01*
X13365890Y-18000500D01*
X13365892Y-18000500D01*
X13493186Y-17966392D01*
X13607314Y-17900500D01*
X13700500Y-17807314D01*
X13766392Y-17693186D01*
X13800500Y-17565892D01*
X13800500Y-17434108D01*
X13766392Y-17306814D01*
X13700500Y-17192686D01*
X13607314Y-17099500D01*
X13550250Y-17066554D01*
X13493187Y-17033608D01*
X13429539Y-17016554D01*
X13365892Y-16999500D01*
X13234108Y-16999500D01*
X13106812Y-17033608D01*
X12992686Y-17099500D01*
X12992683Y-17099502D01*
X12899502Y-17192683D01*
X12899500Y-17192686D01*
X12833608Y-17306812D01*
X12799500Y-17434108D01*
X400000Y-17434108D01*
X400000Y-15334108D01*
X18299500Y-15334108D01*
X18299500Y-15465891D01*
X18333608Y-15593187D01*
X18366554Y-15650250D01*
X18399500Y-15707314D01*
X18492686Y-15800500D01*
X18606814Y-15866392D01*
X18734108Y-15900500D01*
X18734110Y-15900500D01*
X18865890Y-15900500D01*
X18865892Y-15900500D01*
X18993186Y-15866392D01*
X19107314Y-15800500D01*
X19200500Y-15707314D01*
X19266392Y-15593186D01*
X19300500Y-15465892D01*
X19300500Y-15334108D01*
X19266392Y-15206814D01*
X19200500Y-15092686D01*
X19107314Y-14999500D01*
X19050250Y-14966554D01*
X18993187Y-14933608D01*
X18929539Y-14916554D01*
X18865892Y-14899500D01*
X18734108Y-14899500D01*
X18606812Y-14933608D01*
X18492686Y-14999500D01*
X18492683Y-14999502D01*
X18399502Y-15092683D01*
X18399500Y-15092686D01*
X18333608Y-15206812D01*
X18299500Y-15334108D01*
X400000Y-15334108D01*
X400000Y-14034108D01*
X18299500Y-14034108D01*
X18299500Y-14165891D01*
X18333608Y-14293187D01*
X18366554Y-14350250D01*
X18399500Y-14407314D01*
X18492686Y-14500500D01*
X18606814Y-14566392D01*
X18734108Y-14600500D01*
X18734110Y-14600500D01*
X18865890Y-14600500D01*
X18865892Y-14600500D01*
X18993186Y-14566392D01*
X19107314Y-14500500D01*
X19200500Y-14407314D01*
X19266392Y-14293186D01*
X19300500Y-14165892D01*
X19300500Y-14034108D01*
X19266392Y-13906814D01*
X19243054Y-13866392D01*
X19200503Y-13792691D01*
X19200502Y-13792690D01*
X19200500Y-13792686D01*
X19141922Y-13734108D01*
X19999500Y-13734108D01*
X19999500Y-13865892D01*
X20000531Y-13869738D01*
X20033608Y-13993187D01*
X20066554Y-14050250D01*
X20099500Y-14107314D01*
X20192686Y-14200500D01*
X20306814Y-14266392D01*
X20434108Y-14300500D01*
X20434110Y-14300500D01*
X20565890Y-14300500D01*
X20565892Y-14300500D01*
X20693186Y-14266392D01*
X20807314Y-14200500D01*
X20900500Y-14107314D01*
X20966392Y-13993186D01*
X21000500Y-13865892D01*
X21000500Y-13734108D01*
X20966392Y-13606814D01*
X20900500Y-13492686D01*
X20807314Y-13399500D01*
X20750250Y-13366554D01*
X20693187Y-13333608D01*
X20629539Y-13316554D01*
X20565892Y-13299500D01*
X20434108Y-13299500D01*
X20306812Y-13333608D01*
X20192686Y-13399500D01*
X20192683Y-13399502D01*
X20099502Y-13492683D01*
X20099500Y-13492686D01*
X20033608Y-13606812D01*
X20008505Y-13700499D01*
X19999500Y-13734108D01*
X19141922Y-13734108D01*
X19107314Y-13699500D01*
X19049968Y-13666391D01*
X18993187Y-13633608D01*
X18929539Y-13616554D01*
X18865892Y-13599500D01*
X18734108Y-13599500D01*
X18606812Y-13633608D01*
X18492686Y-13699500D01*
X18492683Y-13699502D01*
X18399502Y-13792683D01*
X18399500Y-13792686D01*
X18333608Y-13906812D01*
X18299500Y-14034108D01*
X400000Y-14034108D01*
X400000Y-11821153D01*
X11299500Y-11821153D01*
X11299500Y-11978846D01*
X11330261Y-12133489D01*
X11330264Y-12133501D01*
X11390602Y-12279172D01*
X11390609Y-12279185D01*
X11478210Y-12410288D01*
X11478213Y-12410292D01*
X12589707Y-13521786D01*
X12589711Y-13521789D01*
X12720814Y-13609390D01*
X12720818Y-13609392D01*
X12720821Y-13609394D01*
X12866503Y-13669738D01*
X13016131Y-13699500D01*
X13021153Y-13700499D01*
X13021157Y-13700500D01*
X13021158Y-13700500D01*
X13178843Y-13700500D01*
X13420234Y-13700500D01*
X13487273Y-13720185D01*
X13489125Y-13721398D01*
X13620814Y-13809390D01*
X13620818Y-13809392D01*
X13620821Y-13809394D01*
X13766503Y-13869738D01*
X13921153Y-13900499D01*
X13921157Y-13900500D01*
X13921158Y-13900500D01*
X14078844Y-13900500D01*
X14078845Y-13900499D01*
X14233497Y-13869738D01*
X14379179Y-13809394D01*
X14510289Y-13721789D01*
X14621789Y-13610289D01*
X14709394Y-13479179D01*
X14769485Y-13334108D01*
X16099500Y-13334108D01*
X16099500Y-13465892D01*
X16111961Y-13512398D01*
X16133608Y-13593187D01*
X16143482Y-13610289D01*
X16199500Y-13707314D01*
X16292686Y-13800500D01*
X16391521Y-13857563D01*
X16405944Y-13865890D01*
X16406814Y-13866392D01*
X16534108Y-13900500D01*
X16534110Y-13900500D01*
X16665890Y-13900500D01*
X16665892Y-13900500D01*
X16793186Y-13866392D01*
X16907314Y-13800500D01*
X17000500Y-13707314D01*
X17066392Y-13593186D01*
X17100500Y-13465892D01*
X17100500Y-13334108D01*
X17066392Y-13206814D01*
X17000500Y-13092686D01*
X16907314Y-12999500D01*
X16850250Y-12966554D01*
X16793187Y-12933608D01*
X16729539Y-12916554D01*
X16665892Y-12899500D01*
X16534108Y-12899500D01*
X16406812Y-12933608D01*
X16292686Y-12999500D01*
X16292683Y-12999502D01*
X16199502Y-13092683D01*
X16199500Y-13092686D01*
X16133608Y-13206812D01*
X16117778Y-13265892D01*
X16099500Y-13334108D01*
X14769485Y-13334108D01*
X14769738Y-13333497D01*
X14800500Y-13178843D01*
X14800500Y-13021158D01*
X14769738Y-12866503D01*
X14709394Y-12720821D01*
X14709392Y-12720818D01*
X14709390Y-12720814D01*
X14621789Y-12589711D01*
X14621786Y-12589707D01*
X14310292Y-12278213D01*
X14310288Y-12278210D01*
X14179185Y-12190609D01*
X14179172Y-12190602D01*
X14033501Y-12130264D01*
X14033489Y-12130261D01*
X13878845Y-12099500D01*
X13878842Y-12099500D01*
X13482940Y-12099500D01*
X13415901Y-12079815D01*
X13395259Y-12063181D01*
X13045740Y-11713662D01*
X12966186Y-11634108D01*
X23299500Y-11634108D01*
X23299500Y-11765891D01*
X23333608Y-11893187D01*
X23341766Y-11907316D01*
X23399500Y-12007314D01*
X23492686Y-12100500D01*
X23606814Y-12166392D01*
X23734108Y-12200500D01*
X23734110Y-12200500D01*
X23865890Y-12200500D01*
X23865892Y-12200500D01*
X23993186Y-12166392D01*
X24107314Y-12100500D01*
X24200500Y-12007314D01*
X24266392Y-11893186D01*
X24300500Y-11765892D01*
X24300500Y-11634108D01*
X24273705Y-11534108D01*
X34399500Y-11534108D01*
X34399500Y-11665892D01*
X34399664Y-11666503D01*
X34433608Y-11793187D01*
X34466554Y-11850250D01*
X34499500Y-11907314D01*
X34592686Y-12000500D01*
X34706814Y-12066392D01*
X34834108Y-12100500D01*
X34834110Y-12100500D01*
X34965890Y-12100500D01*
X34965892Y-12100500D01*
X35093186Y-12066392D01*
X35207314Y-12000500D01*
X35300500Y-11907314D01*
X35366392Y-11793186D01*
X35400500Y-11665892D01*
X35400500Y-11534108D01*
X35366392Y-11406814D01*
X35300500Y-11292686D01*
X35207314Y-11199500D01*
X35150250Y-11166554D01*
X35093187Y-11133608D01*
X35029539Y-11116554D01*
X34965892Y-11099500D01*
X34834108Y-11099500D01*
X34706812Y-11133608D01*
X34592686Y-11199500D01*
X34592683Y-11199502D01*
X34499502Y-11292683D01*
X34499500Y-11292686D01*
X34433608Y-11406812D01*
X34406814Y-11506812D01*
X34399500Y-11534108D01*
X24273705Y-11534108D01*
X24266392Y-11506814D01*
X24200500Y-11392686D01*
X24107314Y-11299500D01*
X24050250Y-11266554D01*
X23993187Y-11233608D01*
X23929539Y-11216554D01*
X23865892Y-11199500D01*
X23734108Y-11199500D01*
X23606812Y-11233608D01*
X23492686Y-11299500D01*
X23492683Y-11299502D01*
X23399502Y-11392683D01*
X23399500Y-11392686D01*
X23333608Y-11506812D01*
X23299500Y-11634108D01*
X12966186Y-11634108D01*
X12610292Y-11278213D01*
X12610288Y-11278210D01*
X12479185Y-11190609D01*
X12479172Y-11190602D01*
X12333501Y-11130264D01*
X12333489Y-11130261D01*
X12178845Y-11099500D01*
X12178842Y-11099500D01*
X12021158Y-11099500D01*
X12021155Y-11099500D01*
X11866510Y-11130261D01*
X11866498Y-11130264D01*
X11720827Y-11190602D01*
X11720814Y-11190609D01*
X11589711Y-11278210D01*
X11589707Y-11278213D01*
X11478213Y-11389707D01*
X11478210Y-11389711D01*
X11390609Y-11520814D01*
X11390602Y-11520827D01*
X11330264Y-11666498D01*
X11330261Y-11666510D01*
X11299500Y-11821153D01*
X400000Y-11821153D01*
X400000Y-10234108D01*
X18299500Y-10234108D01*
X18299500Y-10365891D01*
X18333608Y-10493187D01*
X18366554Y-10550250D01*
X18399500Y-10607314D01*
X18492686Y-10700500D01*
X18591521Y-10757563D01*
X18593449Y-10758676D01*
X18606814Y-10766392D01*
X18734108Y-10800500D01*
X18734110Y-10800500D01*
X18865890Y-10800500D01*
X18865892Y-10800500D01*
X18993186Y-10766392D01*
X19107314Y-10700500D01*
X19200500Y-10607314D01*
X19266392Y-10493186D01*
X19300500Y-10365892D01*
X19300500Y-10234108D01*
X19266392Y-10106814D01*
X19200500Y-9992686D01*
X19107314Y-9899500D01*
X19050250Y-9866554D01*
X18993187Y-9833608D01*
X18929539Y-9816554D01*
X18865892Y-9799500D01*
X18734108Y-9799500D01*
X18606812Y-9833608D01*
X18492686Y-9899500D01*
X18492683Y-9899502D01*
X18399502Y-9992683D01*
X18399500Y-9992686D01*
X18333608Y-10106812D01*
X18299500Y-10234108D01*
X400000Y-10234108D01*
X400000Y-8720943D01*
X16699500Y-8720943D01*
X16699500Y-8879057D01*
X16706938Y-8906814D01*
X16740423Y-9031783D01*
X16740426Y-9031790D01*
X16819475Y-9168709D01*
X16819479Y-9168714D01*
X16819480Y-9168716D01*
X16931284Y-9280520D01*
X16931286Y-9280521D01*
X16931290Y-9280524D01*
X17068209Y-9359573D01*
X17068216Y-9359577D01*
X17220943Y-9400500D01*
X17220945Y-9400500D01*
X17379055Y-9400500D01*
X17379057Y-9400500D01*
X17531784Y-9359577D01*
X17668716Y-9280520D01*
X17780520Y-9168716D01*
X17859577Y-9031784D01*
X17900500Y-8879057D01*
X17900500Y-8720943D01*
X17859577Y-8568216D01*
X17859573Y-8568209D01*
X17780524Y-8431290D01*
X17780518Y-8431282D01*
X17668717Y-8319481D01*
X17668709Y-8319475D01*
X17531790Y-8240426D01*
X17531786Y-8240424D01*
X17531784Y-8240423D01*
X17379057Y-8199500D01*
X17220943Y-8199500D01*
X17068216Y-8240423D01*
X17068209Y-8240426D01*
X16931290Y-8319475D01*
X16931282Y-8319481D01*
X16819481Y-8431282D01*
X16819475Y-8431290D01*
X16740426Y-8568209D01*
X16740423Y-8568216D01*
X16699500Y-8720943D01*
X400000Y-8720943D01*
X400000Y-2901577D01*
X1749500Y-2901577D01*
X1749500Y-3098422D01*
X1780290Y-3292826D01*
X1841117Y-3480029D01*
X1930476Y-3655405D01*
X2046172Y-3814646D01*
X2185354Y-3953828D01*
X2344595Y-4069524D01*
X2427455Y-4111743D01*
X2519970Y-4158882D01*
X2519972Y-4158882D01*
X2519975Y-4158884D01*
X2620317Y-4191487D01*
X2707173Y-4219709D01*
X2901578Y-4250500D01*
X2901583Y-4250500D01*
X3098422Y-4250500D01*
X3292826Y-4219709D01*
X3480025Y-4158884D01*
X3655405Y-4069524D01*
X3814646Y-3953828D01*
X3953828Y-3814646D01*
X4069524Y-3655405D01*
X4158884Y-3480025D01*
X4219709Y-3292826D01*
X4250500Y-3098422D01*
X4250500Y-2901577D01*
X4219709Y-2707173D01*
X4158882Y-2519970D01*
X4069523Y-2344594D01*
X3953828Y-2185354D01*
X3814646Y-2046172D01*
X3655405Y-1930476D01*
X3480029Y-1841117D01*
X3292826Y-1780290D01*
X3098422Y-1749500D01*
X3098417Y-1749500D01*
X2901583Y-1749500D01*
X2901578Y-1749500D01*
X2707173Y-1780290D01*
X2519970Y-1841117D01*
X2344594Y-1930476D01*
X2303356Y-1960438D01*
X2185354Y-2046172D01*
X2185352Y-2046174D01*
X2185351Y-2046174D01*
X2046174Y-2185351D01*
X2046174Y-2185352D01*
X2046172Y-2185354D01*
X1996485Y-2253741D01*
X1930476Y-2344594D01*
X1841117Y-2519970D01*
X1780290Y-2707173D01*
X1749500Y-2901577D01*
X400000Y-2901577D01*
X400000Y-1461406D01*
X407819Y-1418072D01*
X420191Y-1384901D01*
X450992Y-1302322D01*
X458335Y-1286241D01*
X566057Y-1088968D01*
X575613Y-1074099D01*
X710311Y-894164D01*
X721883Y-880810D01*
X880810Y-721883D01*
X894164Y-710311D01*
X1074099Y-575613D01*
X1088968Y-566057D01*
X1286241Y-458335D01*
X1302310Y-450997D01*
X1418075Y-407817D01*
X1461407Y-400000D01*
X15876000Y-400000D01*
X15943039Y-419685D01*
G37*
%TD.AperFunction*%
%TA.AperFunction,Conductor*%
G36*
X31524359Y-67876522D02*
G01*
X31536440Y-67883497D01*
X31668216Y-67959577D01*
X31693668Y-67966396D01*
X31749255Y-67998490D01*
X32715139Y-68964374D01*
X32715149Y-68964385D01*
X32831285Y-69080521D01*
X32862000Y-69098254D01*
X32892717Y-69115988D01*
X32968215Y-69159577D01*
X33002447Y-69168749D01*
X33032350Y-69181135D01*
X33168216Y-69259577D01*
X33280019Y-69289534D01*
X33320942Y-69300500D01*
X33320943Y-69300500D01*
X33599903Y-69300500D01*
X33666942Y-69320185D01*
X33687584Y-69336819D01*
X33715139Y-69364374D01*
X33715149Y-69364385D01*
X33719479Y-69368715D01*
X33719480Y-69368716D01*
X33831284Y-69480520D01*
X33876828Y-69506814D01*
X33918095Y-69530639D01*
X33918097Y-69530641D01*
X33943678Y-69545410D01*
X33968215Y-69559577D01*
X34120943Y-69600500D01*
X34120945Y-69600500D01*
X34279055Y-69600500D01*
X34279057Y-69600500D01*
X34431785Y-69559577D01*
X34481904Y-69530639D01*
X34568716Y-69480520D01*
X34680520Y-69368716D01*
X34743531Y-69259577D01*
X34759577Y-69231785D01*
X34800500Y-69079057D01*
X34800500Y-68920943D01*
X34759577Y-68768215D01*
X34730639Y-68718095D01*
X34680520Y-68631284D01*
X34568716Y-68519480D01*
X34568715Y-68519479D01*
X34564385Y-68515149D01*
X34564374Y-68515139D01*
X34411416Y-68362181D01*
X34377931Y-68300858D01*
X34382915Y-68231166D01*
X34424787Y-68175233D01*
X34490251Y-68150816D01*
X34499097Y-68150500D01*
X34662035Y-68150500D01*
X34729074Y-68170185D01*
X34749716Y-68186819D01*
X37366661Y-70803765D01*
X37400146Y-70865088D01*
X37400599Y-70915630D01*
X37399500Y-70921156D01*
X37399500Y-71078846D01*
X37430261Y-71233489D01*
X37430264Y-71233501D01*
X37490602Y-71379172D01*
X37490609Y-71379185D01*
X37578210Y-71510288D01*
X37578213Y-71510292D01*
X37689707Y-71621786D01*
X37689711Y-71621789D01*
X37820814Y-71709390D01*
X37820827Y-71709397D01*
X37966498Y-71769735D01*
X37966503Y-71769737D01*
X38121153Y-71800499D01*
X38121156Y-71800500D01*
X38121158Y-71800500D01*
X39278844Y-71800500D01*
X39278845Y-71800499D01*
X39433497Y-71769737D01*
X39579179Y-71709394D01*
X39710289Y-71621789D01*
X39821789Y-71510289D01*
X39909394Y-71379179D01*
X39969737Y-71233497D01*
X40000500Y-71078842D01*
X40000500Y-70921158D01*
X40000500Y-70921156D01*
X40000500Y-70921155D01*
X39999402Y-70915636D01*
X40005629Y-70846045D01*
X40033336Y-70803765D01*
X41387820Y-69449281D01*
X41449142Y-69415798D01*
X41518834Y-69420782D01*
X41574767Y-69462654D01*
X41599184Y-69528118D01*
X41599500Y-69536964D01*
X41599500Y-69859460D01*
X41582887Y-69921460D01*
X41533609Y-70006810D01*
X41533609Y-70006811D01*
X41533608Y-70006813D01*
X41533608Y-70006814D01*
X41529946Y-70020480D01*
X41499500Y-70134108D01*
X41499500Y-70265891D01*
X41533608Y-70393187D01*
X41541766Y-70407316D01*
X41599500Y-70507314D01*
X41692686Y-70600500D01*
X41806814Y-70666392D01*
X41934108Y-70700500D01*
X41934110Y-70700500D01*
X42065890Y-70700500D01*
X42065892Y-70700500D01*
X42193186Y-70666392D01*
X42307314Y-70600500D01*
X42312319Y-70595495D01*
X42373642Y-70562010D01*
X42443334Y-70566994D01*
X42487681Y-70595495D01*
X42492686Y-70600500D01*
X42606814Y-70666392D01*
X42637398Y-70674587D01*
X42697057Y-70710950D01*
X42727587Y-70773797D01*
X42719293Y-70843173D01*
X42692985Y-70882042D01*
X36711848Y-76863181D01*
X36650525Y-76896666D01*
X36624167Y-76899500D01*
X32458676Y-76899500D01*
X32391637Y-76879815D01*
X32370995Y-76863181D01*
X32307316Y-76799502D01*
X32307314Y-76799500D01*
X32242028Y-76761807D01*
X32193187Y-76733608D01*
X32129539Y-76716554D01*
X32065892Y-76699500D01*
X31934108Y-76699500D01*
X31806814Y-76733608D01*
X31806813Y-76733608D01*
X31806811Y-76733609D01*
X31806808Y-76733610D01*
X31786498Y-76745336D01*
X31718598Y-76761807D01*
X31652571Y-76738954D01*
X31609382Y-76684032D01*
X31600500Y-76637948D01*
X31600500Y-75221157D01*
X31600499Y-75221156D01*
X31592083Y-75178842D01*
X31592083Y-75178838D01*
X31573174Y-75083779D01*
X31569738Y-75066503D01*
X31509394Y-74920821D01*
X31509392Y-74920818D01*
X31509390Y-74920814D01*
X31421398Y-74789125D01*
X31400520Y-74722447D01*
X31400500Y-74720234D01*
X31400500Y-72521155D01*
X31400499Y-72521153D01*
X31388733Y-72462000D01*
X31369737Y-72366503D01*
X31369735Y-72366498D01*
X31309397Y-72220827D01*
X31309390Y-72220814D01*
X31221789Y-72089711D01*
X31221786Y-72089707D01*
X31110292Y-71978213D01*
X31110284Y-71978207D01*
X31105605Y-71975080D01*
X31060802Y-71921466D01*
X31050500Y-71871981D01*
X31050500Y-71009374D01*
X31070185Y-70942335D01*
X31122989Y-70896580D01*
X31192147Y-70886636D01*
X31206571Y-70889594D01*
X31247273Y-70900500D01*
X31247277Y-70900500D01*
X31352725Y-70900500D01*
X31352727Y-70900500D01*
X31454587Y-70873207D01*
X31545913Y-70820480D01*
X31620480Y-70745913D01*
X31673207Y-70654587D01*
X31700500Y-70552727D01*
X31700500Y-70447273D01*
X31673207Y-70345413D01*
X31620480Y-70254087D01*
X31554074Y-70187681D01*
X31520589Y-70126358D01*
X31525573Y-70056666D01*
X31554074Y-70012319D01*
X31578241Y-69988152D01*
X31620480Y-69945913D01*
X31673207Y-69854587D01*
X31700500Y-69752727D01*
X31700500Y-69647273D01*
X31673207Y-69545413D01*
X31620480Y-69454087D01*
X31545913Y-69379520D01*
X31454587Y-69326793D01*
X31352727Y-69299500D01*
X31247273Y-69299500D01*
X31247271Y-69299500D01*
X31206592Y-69310400D01*
X31136742Y-69308737D01*
X31078880Y-69269574D01*
X31051377Y-69205345D01*
X31050500Y-69190625D01*
X31050500Y-68485453D01*
X31070185Y-68418414D01*
X31082148Y-68403570D01*
X31081993Y-68403443D01*
X31085853Y-68398737D01*
X31085858Y-68398733D01*
X31154311Y-68296286D01*
X31193323Y-68202102D01*
X31218044Y-68165107D01*
X31217919Y-68165005D01*
X31218964Y-68163731D01*
X31220208Y-68161869D01*
X31221789Y-68160289D01*
X31309394Y-68029179D01*
X31347801Y-67936454D01*
X31391638Y-67882055D01*
X31457932Y-67859989D01*
X31524359Y-67876522D01*
G37*
%TD.AperFunction*%
%TA.AperFunction,Conductor*%
G36*
X40405703Y-59982235D02*
G01*
X40436357Y-60024747D01*
X40436359Y-60024746D01*
X40436368Y-60024763D01*
X40439062Y-60028498D01*
X40440424Y-60031788D01*
X40519475Y-60168709D01*
X40519479Y-60168714D01*
X40519480Y-60168716D01*
X40631284Y-60280520D01*
X40664159Y-60299500D01*
X40687499Y-60312975D01*
X40735715Y-60363542D01*
X40749500Y-60420363D01*
X40749500Y-66313892D01*
X40729815Y-66380931D01*
X40677011Y-66426686D01*
X40607853Y-66436630D01*
X40593407Y-66433667D01*
X40504026Y-66409718D01*
X40465892Y-66399500D01*
X40334108Y-66399500D01*
X40206812Y-66433608D01*
X40092686Y-66499500D01*
X40092683Y-66499502D01*
X39999502Y-66592683D01*
X39999500Y-66592686D01*
X39933608Y-66706812D01*
X39899500Y-66834108D01*
X39899500Y-66965891D01*
X39933608Y-67093187D01*
X39942076Y-67107853D01*
X39999500Y-67207314D01*
X40092686Y-67300500D01*
X40206814Y-67366392D01*
X40334108Y-67400500D01*
X40334110Y-67400500D01*
X40465889Y-67400500D01*
X40465892Y-67400500D01*
X40593186Y-67366392D01*
X40593189Y-67366390D01*
X40593406Y-67366332D01*
X40663256Y-67367995D01*
X40721119Y-67407157D01*
X40748623Y-67471386D01*
X40749500Y-67486107D01*
X40749500Y-68762034D01*
X40729815Y-68829073D01*
X40713181Y-68849715D01*
X39396234Y-70166661D01*
X39334911Y-70200146D01*
X39284367Y-70200598D01*
X39278848Y-70199500D01*
X39278842Y-70199500D01*
X38121158Y-70199500D01*
X38121157Y-70199500D01*
X38115630Y-70200599D01*
X38046039Y-70194367D01*
X38003765Y-70166661D01*
X37319364Y-69482260D01*
X37285879Y-69420937D01*
X37290863Y-69351245D01*
X37332735Y-69295312D01*
X37374949Y-69274805D01*
X37431784Y-69259577D01*
X37568716Y-69180520D01*
X37680520Y-69068716D01*
X37759577Y-68931784D01*
X37800500Y-68779057D01*
X37800500Y-68620943D01*
X37759577Y-68468216D01*
X37722181Y-68403443D01*
X37680524Y-68331290D01*
X37680518Y-68331282D01*
X37568717Y-68219481D01*
X37568709Y-68219475D01*
X37431790Y-68140426D01*
X37431786Y-68140424D01*
X37431784Y-68140423D01*
X37279057Y-68099500D01*
X37120943Y-68099500D01*
X36968216Y-68140423D01*
X36968209Y-68140426D01*
X36831290Y-68219475D01*
X36831282Y-68219481D01*
X36719481Y-68331282D01*
X36719475Y-68331290D01*
X36640426Y-68468209D01*
X36640423Y-68468214D01*
X36625195Y-68525048D01*
X36588829Y-68584709D01*
X36525982Y-68615237D01*
X36456607Y-68606942D01*
X36417739Y-68580635D01*
X35176616Y-67339513D01*
X35176614Y-67339511D01*
X35109044Y-67300499D01*
X35073888Y-67280201D01*
X35061780Y-67276957D01*
X35049673Y-67273713D01*
X35049670Y-67273712D01*
X34991647Y-67258165D01*
X34959309Y-67249500D01*
X34959308Y-67249500D01*
X34786107Y-67249500D01*
X34719068Y-67229815D01*
X34673313Y-67177011D01*
X34663369Y-67107853D01*
X34666332Y-67093406D01*
X34666391Y-67093187D01*
X34666392Y-67093186D01*
X34700500Y-66965892D01*
X34700500Y-66875832D01*
X34720185Y-66808793D01*
X34736819Y-66788151D01*
X36309088Y-65215882D01*
X36387820Y-65137150D01*
X36449142Y-65103666D01*
X36518834Y-65108650D01*
X36574767Y-65150522D01*
X36599184Y-65215986D01*
X36599500Y-65224832D01*
X36599500Y-65279057D01*
X36633733Y-65406814D01*
X36640423Y-65431783D01*
X36640426Y-65431790D01*
X36719475Y-65568709D01*
X36719479Y-65568714D01*
X36719480Y-65568716D01*
X36831284Y-65680520D01*
X36831286Y-65680521D01*
X36831290Y-65680524D01*
X36951022Y-65749650D01*
X36968216Y-65759577D01*
X37120943Y-65800500D01*
X37120945Y-65800500D01*
X37279055Y-65800500D01*
X37279057Y-65800500D01*
X37431784Y-65759577D01*
X37568716Y-65680520D01*
X37680520Y-65568716D01*
X37759577Y-65431784D01*
X37800500Y-65279057D01*
X37800500Y-65120943D01*
X37759577Y-64968216D01*
X37736005Y-64927387D01*
X37680524Y-64831290D01*
X37680518Y-64831282D01*
X37568717Y-64719481D01*
X37568709Y-64719475D01*
X37431790Y-64640426D01*
X37431786Y-64640424D01*
X37431784Y-64640423D01*
X37279057Y-64599500D01*
X37224833Y-64599500D01*
X37157794Y-64579815D01*
X37112039Y-64527011D01*
X37102095Y-64457853D01*
X37131120Y-64394297D01*
X37137152Y-64387819D01*
X37888152Y-63636819D01*
X37949475Y-63603334D01*
X37975833Y-63600500D01*
X39739560Y-63600500D01*
X39739562Y-63600500D01*
X39815989Y-63580021D01*
X39884511Y-63540460D01*
X39940460Y-63484511D01*
X40140460Y-63284511D01*
X40180022Y-63215988D01*
X40200500Y-63139562D01*
X40200500Y-63060438D01*
X40200500Y-60075948D01*
X40220185Y-60008909D01*
X40272989Y-59963154D01*
X40342147Y-59953210D01*
X40405703Y-59982235D01*
G37*
%TD.AperFunction*%
%TA.AperFunction,Conductor*%
G36*
X32291206Y-63220185D02*
G01*
X32311848Y-63236819D01*
X32563181Y-63488152D01*
X32596666Y-63549475D01*
X32599500Y-63575833D01*
X32599500Y-63665891D01*
X32633608Y-63793187D01*
X32641765Y-63807315D01*
X32699500Y-63907314D01*
X32792686Y-64000500D01*
X32906814Y-64066392D01*
X33007594Y-64093395D01*
X33067254Y-64129760D01*
X33097783Y-64192607D01*
X33099500Y-64213170D01*
X33099500Y-64265892D01*
X33115215Y-64324542D01*
X33133608Y-64393187D01*
X33158667Y-64436590D01*
X33199500Y-64507314D01*
X33292686Y-64600500D01*
X33406814Y-64666392D01*
X33534108Y-64700500D01*
X33534110Y-64700500D01*
X33665890Y-64700500D01*
X33665892Y-64700500D01*
X33793186Y-64666392D01*
X33907314Y-64600500D01*
X34000500Y-64507314D01*
X34066392Y-64393186D01*
X34100500Y-64265892D01*
X34100500Y-64213170D01*
X34120185Y-64146131D01*
X34172989Y-64100376D01*
X34192402Y-64093396D01*
X34293186Y-64066392D01*
X34407314Y-64000500D01*
X34412319Y-63995495D01*
X34473642Y-63962010D01*
X34543334Y-63966994D01*
X34587681Y-63995495D01*
X34592686Y-64000500D01*
X34706814Y-64066392D01*
X34834108Y-64100500D01*
X34834110Y-64100500D01*
X34965889Y-64100500D01*
X34965892Y-64100500D01*
X35040178Y-64080595D01*
X35110025Y-64082258D01*
X35167888Y-64121420D01*
X35195392Y-64185648D01*
X35183806Y-64254551D01*
X35157078Y-64290833D01*
X34330273Y-65065963D01*
X34267902Y-65097453D01*
X34245464Y-65099500D01*
X34134108Y-65099500D01*
X34006812Y-65133608D01*
X33892686Y-65199500D01*
X33892683Y-65199502D01*
X33799502Y-65292683D01*
X33799500Y-65292686D01*
X33744383Y-65388152D01*
X33733608Y-65406814D01*
X33727977Y-65427831D01*
X33691612Y-65487491D01*
X33628764Y-65518020D01*
X33559389Y-65509725D01*
X33520521Y-65483418D01*
X33036700Y-64999597D01*
X33003215Y-64938274D01*
X33001442Y-64928099D01*
X33000500Y-64920945D01*
X33000500Y-64920943D01*
X32959577Y-64768216D01*
X32920481Y-64700499D01*
X32880524Y-64631290D01*
X32880518Y-64631282D01*
X32768717Y-64519481D01*
X32768709Y-64519475D01*
X32631790Y-64440426D01*
X32631786Y-64440424D01*
X32631784Y-64440423D01*
X32479057Y-64399500D01*
X32320943Y-64399500D01*
X32168216Y-64440423D01*
X32168209Y-64440426D01*
X32031290Y-64519475D01*
X32031282Y-64519481D01*
X31919481Y-64631282D01*
X31919475Y-64631290D01*
X31840426Y-64768209D01*
X31840423Y-64768216D01*
X31799500Y-64920943D01*
X31799500Y-65079057D01*
X31823247Y-65167680D01*
X31840423Y-65231783D01*
X31840426Y-65231790D01*
X31919475Y-65368709D01*
X31919479Y-65368714D01*
X31919480Y-65368716D01*
X32031284Y-65480520D01*
X32031286Y-65480521D01*
X32031290Y-65480524D01*
X32124102Y-65534108D01*
X32168216Y-65559577D01*
X32320943Y-65600500D01*
X32320945Y-65600500D01*
X32328099Y-65601442D01*
X32391996Y-65629707D01*
X32399597Y-65636700D01*
X32913181Y-66150284D01*
X32946666Y-66211607D01*
X32949500Y-66237965D01*
X32949500Y-67200903D01*
X32929815Y-67267942D01*
X32877011Y-67313697D01*
X32807853Y-67323641D01*
X32744297Y-67294616D01*
X32737819Y-67288584D01*
X32487590Y-67038355D01*
X32487588Y-67038352D01*
X32268717Y-66819481D01*
X32268709Y-66819475D01*
X32131790Y-66740426D01*
X32131786Y-66740424D01*
X32131784Y-66740423D01*
X31979057Y-66699500D01*
X31820943Y-66699500D01*
X31668216Y-66740423D01*
X31668215Y-66740423D01*
X31586499Y-66787602D01*
X31518599Y-66804074D01*
X31452572Y-66781221D01*
X31409382Y-66726299D01*
X31400500Y-66680214D01*
X31400500Y-66121155D01*
X31400499Y-66121153D01*
X31385438Y-66045436D01*
X31369737Y-65966503D01*
X31345221Y-65907316D01*
X31309397Y-65820827D01*
X31309390Y-65820814D01*
X31221790Y-65689712D01*
X31168778Y-65636700D01*
X31110289Y-65578211D01*
X30286664Y-64754586D01*
X29444260Y-63912181D01*
X29410775Y-63850858D01*
X29415759Y-63781166D01*
X29457631Y-63725233D01*
X29523095Y-63700816D01*
X29531941Y-63700500D01*
X30466240Y-63700500D01*
X30533279Y-63720185D01*
X30573626Y-63762499D01*
X30599500Y-63807314D01*
X30692686Y-63900500D01*
X30806814Y-63966392D01*
X30934108Y-64000500D01*
X30934110Y-64000500D01*
X31065890Y-64000500D01*
X31065892Y-64000500D01*
X31193186Y-63966392D01*
X31307314Y-63900500D01*
X31400500Y-63807314D01*
X31466392Y-63693186D01*
X31500500Y-63565892D01*
X31500500Y-63434108D01*
X31479730Y-63356592D01*
X31481393Y-63286743D01*
X31520556Y-63228881D01*
X31584784Y-63201377D01*
X31599505Y-63200500D01*
X32224167Y-63200500D01*
X32291206Y-63220185D01*
G37*
%TD.AperFunction*%
%TA.AperFunction,Conductor*%
G36*
X25967087Y-60904619D02*
G01*
X26005956Y-60930927D01*
X27062848Y-61987819D01*
X27096333Y-62049142D01*
X27091349Y-62118834D01*
X27049477Y-62174767D01*
X26984013Y-62199184D01*
X26975167Y-62199500D01*
X25658676Y-62199500D01*
X25591637Y-62179815D01*
X25570995Y-62163181D01*
X25507316Y-62099502D01*
X25507314Y-62099500D01*
X25420092Y-62049142D01*
X25393187Y-62033608D01*
X25329539Y-62016554D01*
X25265892Y-61999500D01*
X25134108Y-61999500D01*
X25006812Y-62033608D01*
X24892686Y-62099500D01*
X24892683Y-62099502D01*
X24799502Y-62192683D01*
X24799500Y-62192686D01*
X24733609Y-62306811D01*
X24733608Y-62306813D01*
X24733608Y-62306814D01*
X24725569Y-62336819D01*
X24725413Y-62337400D01*
X24689047Y-62397060D01*
X24626200Y-62427588D01*
X24556824Y-62419293D01*
X24517957Y-62392986D01*
X23884512Y-61759541D01*
X23884507Y-61759537D01*
X23851462Y-61740459D01*
X23851462Y-61740458D01*
X23851460Y-61740458D01*
X23823529Y-61724332D01*
X23815990Y-61719979D01*
X23815991Y-61719979D01*
X23777775Y-61709739D01*
X23739562Y-61699500D01*
X23739560Y-61699500D01*
X18599505Y-61699500D01*
X18532466Y-61679815D01*
X18486711Y-61627011D01*
X18476767Y-61557853D01*
X18479730Y-61543407D01*
X18486162Y-61519402D01*
X18500500Y-61465892D01*
X18500500Y-61447740D01*
X18520185Y-61380701D01*
X18572989Y-61334946D01*
X18642147Y-61325002D01*
X18656581Y-61327962D01*
X18740691Y-61350500D01*
X24750069Y-61350500D01*
X24817108Y-61370185D01*
X24825557Y-61376125D01*
X24831281Y-61380517D01*
X24831284Y-61380520D01*
X24831287Y-61380521D01*
X24831290Y-61380524D01*
X24957784Y-61453554D01*
X24968216Y-61459577D01*
X25120943Y-61500500D01*
X25120945Y-61500500D01*
X25279055Y-61500500D01*
X25279057Y-61500500D01*
X25431784Y-61459577D01*
X25568716Y-61380520D01*
X25680520Y-61268716D01*
X25759577Y-61131784D01*
X25798502Y-60986510D01*
X25834864Y-60926855D01*
X25897711Y-60896325D01*
X25967087Y-60904619D01*
G37*
%TD.AperFunction*%
%TA.AperFunction,Conductor*%
G36*
X36418834Y-37108651D02*
G01*
X36474767Y-37150523D01*
X36499184Y-37215987D01*
X36499500Y-37224833D01*
X36499500Y-45439562D01*
X36504199Y-45457098D01*
X36519979Y-45515991D01*
X36519981Y-45515994D01*
X36536966Y-45545412D01*
X36536968Y-45545414D01*
X36559539Y-45584510D01*
X36863181Y-45888152D01*
X36896666Y-45949475D01*
X36899500Y-45975833D01*
X36899500Y-50839562D01*
X36913152Y-50890513D01*
X36919979Y-50915990D01*
X36919980Y-50915991D01*
X36941565Y-50953378D01*
X36948109Y-50964712D01*
X36959540Y-50984511D01*
X36959542Y-50984513D01*
X39292986Y-53317957D01*
X39326471Y-53379280D01*
X39321487Y-53448972D01*
X39279615Y-53504905D01*
X39237401Y-53525412D01*
X39206814Y-53533608D01*
X39206813Y-53533608D01*
X39206811Y-53533609D01*
X39092686Y-53599500D01*
X39092683Y-53599502D01*
X38999502Y-53692683D01*
X38999500Y-53692686D01*
X38933608Y-53806812D01*
X38899500Y-53934108D01*
X38899500Y-53975695D01*
X38879815Y-54042734D01*
X38827011Y-54088489D01*
X38774019Y-54096430D01*
X38774019Y-54099500D01*
X38634108Y-54099500D01*
X38506812Y-54133608D01*
X38392686Y-54199500D01*
X38392683Y-54199502D01*
X38299502Y-54292683D01*
X38299500Y-54292686D01*
X38233608Y-54406812D01*
X38199500Y-54534108D01*
X38199500Y-54624166D01*
X38179815Y-54691205D01*
X38163181Y-54711847D01*
X36011848Y-56863181D01*
X35950525Y-56896666D01*
X35924167Y-56899500D01*
X33058676Y-56899500D01*
X32991637Y-56879815D01*
X32970995Y-56863181D01*
X32907316Y-56799502D01*
X32907314Y-56799500D01*
X32850250Y-56766554D01*
X32793187Y-56733608D01*
X32729539Y-56716554D01*
X32665892Y-56699500D01*
X32534108Y-56699500D01*
X32406812Y-56733608D01*
X32292686Y-56799500D01*
X32292683Y-56799502D01*
X32199502Y-56892683D01*
X32199500Y-56892686D01*
X32133608Y-57006812D01*
X32099500Y-57134108D01*
X32099500Y-57265891D01*
X32133608Y-57393187D01*
X32160902Y-57440460D01*
X32199500Y-57507314D01*
X32292686Y-57600500D01*
X32406814Y-57666392D01*
X32534108Y-57700500D01*
X32534110Y-57700500D01*
X32665890Y-57700500D01*
X32665892Y-57700500D01*
X32793186Y-57666392D01*
X32907314Y-57600500D01*
X32970995Y-57536819D01*
X33032318Y-57503334D01*
X33058676Y-57500500D01*
X36139560Y-57500500D01*
X36139562Y-57500500D01*
X36215989Y-57480021D01*
X36284511Y-57440460D01*
X36340460Y-57384511D01*
X38588151Y-55136818D01*
X38649474Y-55103334D01*
X38675832Y-55100500D01*
X38765890Y-55100500D01*
X38765892Y-55100500D01*
X38893186Y-55066392D01*
X38913499Y-55054663D01*
X38981399Y-55038191D01*
X39047426Y-55061043D01*
X39090617Y-55115964D01*
X39099500Y-55162051D01*
X39099500Y-57524166D01*
X39079815Y-57591205D01*
X39063181Y-57611847D01*
X35925765Y-60749262D01*
X35864442Y-60782747D01*
X35813893Y-60783198D01*
X35777577Y-60775974D01*
X35276777Y-61276777D01*
X34775974Y-61777577D01*
X34783198Y-61813893D01*
X34776971Y-61883484D01*
X34749262Y-61925765D01*
X34387680Y-62287347D01*
X34326357Y-62320832D01*
X34256665Y-62315848D01*
X34212318Y-62287347D01*
X33986652Y-62061681D01*
X33953167Y-62000358D01*
X33958151Y-61930666D01*
X34000023Y-61874733D01*
X34065487Y-61850316D01*
X34073608Y-61850025D01*
X34073873Y-61849999D01*
X34218760Y-61821179D01*
X34218775Y-61821175D01*
X34324024Y-61777578D01*
X34324024Y-61777577D01*
X34000001Y-61453554D01*
X33757721Y-61695832D01*
X33696398Y-61729316D01*
X33626706Y-61724332D01*
X33622593Y-61722714D01*
X33615991Y-61719979D01*
X33577775Y-61709739D01*
X33539562Y-61699500D01*
X33539560Y-61699500D01*
X33197308Y-61699500D01*
X33130269Y-61679815D01*
X33109627Y-61663181D01*
X32582765Y-61136319D01*
X32526555Y-61080109D01*
X32800000Y-61080109D01*
X32800000Y-61119891D01*
X32815224Y-61156645D01*
X32843355Y-61184776D01*
X32880109Y-61200000D01*
X32919891Y-61200000D01*
X32956645Y-61184776D01*
X32984776Y-61156645D01*
X33000000Y-61119891D01*
X33000000Y-61100000D01*
X33253554Y-61100000D01*
X33450000Y-61296446D01*
X33646446Y-61100000D01*
X33626555Y-61080109D01*
X33900000Y-61080109D01*
X33900000Y-61119891D01*
X33915224Y-61156645D01*
X33943355Y-61184776D01*
X33980109Y-61200000D01*
X34019891Y-61200000D01*
X34056645Y-61184776D01*
X34084776Y-61156645D01*
X34100000Y-61119891D01*
X34100000Y-61100000D01*
X34353554Y-61100000D01*
X34550000Y-61296446D01*
X34746446Y-61100000D01*
X34726555Y-61080109D01*
X35000000Y-61080109D01*
X35000000Y-61119891D01*
X35015224Y-61156645D01*
X35043355Y-61184776D01*
X35080109Y-61200000D01*
X35119891Y-61200000D01*
X35156645Y-61184776D01*
X35184776Y-61156645D01*
X35200000Y-61119891D01*
X35200000Y-61080109D01*
X35184776Y-61043355D01*
X35156645Y-61015224D01*
X35119891Y-61000000D01*
X35080109Y-61000000D01*
X35043355Y-61015224D01*
X35015224Y-61043355D01*
X35000000Y-61080109D01*
X34726555Y-61080109D01*
X34550000Y-60903554D01*
X34353554Y-61100000D01*
X34100000Y-61100000D01*
X34100000Y-61080109D01*
X34084776Y-61043355D01*
X34056645Y-61015224D01*
X34019891Y-61000000D01*
X33980109Y-61000000D01*
X33943355Y-61015224D01*
X33915224Y-61043355D01*
X33900000Y-61080109D01*
X33626555Y-61080109D01*
X33450000Y-60903554D01*
X33253554Y-61100000D01*
X33000000Y-61100000D01*
X33000000Y-61080109D01*
X32984776Y-61043355D01*
X32956645Y-61015224D01*
X32919891Y-61000000D01*
X32880109Y-61000000D01*
X32843355Y-61015224D01*
X32815224Y-61043355D01*
X32800000Y-61080109D01*
X32526555Y-61080109D01*
X32216897Y-60770450D01*
X32206974Y-60771887D01*
X32193666Y-60765825D01*
X32179099Y-60764522D01*
X32162506Y-60751632D01*
X32143390Y-60742925D01*
X32135472Y-60730631D01*
X32123922Y-60721659D01*
X32116932Y-60701846D01*
X32105557Y-60684184D01*
X32101996Y-60659507D01*
X32100678Y-60655769D01*
X32100500Y-60649255D01*
X32100500Y-60550000D01*
X32703554Y-60550000D01*
X32900000Y-60746446D01*
X33096446Y-60550000D01*
X33803554Y-60550000D01*
X34000000Y-60746446D01*
X34196446Y-60550000D01*
X34903554Y-60550000D01*
X35100000Y-60746446D01*
X35296446Y-60550000D01*
X35100000Y-60353554D01*
X34903554Y-60550000D01*
X34196446Y-60550000D01*
X34000000Y-60353554D01*
X33803554Y-60550000D01*
X33096446Y-60550000D01*
X32900000Y-60353554D01*
X32703554Y-60550000D01*
X32100500Y-60550000D01*
X32100500Y-60460438D01*
X32100312Y-60459738D01*
X32100304Y-60450951D01*
X32107929Y-60424885D01*
X32112099Y-60398044D01*
X32117595Y-60391843D01*
X32119922Y-60383892D01*
X32140430Y-60366085D01*
X32158449Y-60345761D01*
X32166424Y-60343516D01*
X32172681Y-60338085D01*
X32199558Y-60334193D01*
X32217223Y-60329222D01*
X32546446Y-60000000D01*
X32546446Y-59999999D01*
X32526556Y-59980109D01*
X32800000Y-59980109D01*
X32800000Y-60019891D01*
X32815224Y-60056645D01*
X32843355Y-60084776D01*
X32880109Y-60100000D01*
X32919891Y-60100000D01*
X32956645Y-60084776D01*
X32984776Y-60056645D01*
X33000000Y-60019891D01*
X33000000Y-60000000D01*
X33253554Y-60000000D01*
X33450000Y-60196446D01*
X33646446Y-60000000D01*
X33626555Y-59980109D01*
X33900000Y-59980109D01*
X33900000Y-60019891D01*
X33915224Y-60056645D01*
X33943355Y-60084776D01*
X33980109Y-60100000D01*
X34019891Y-60100000D01*
X34056645Y-60084776D01*
X34084776Y-60056645D01*
X34100000Y-60019891D01*
X34100000Y-60000000D01*
X34353554Y-60000000D01*
X34550000Y-60196446D01*
X34746446Y-60000000D01*
X34726555Y-59980109D01*
X35000000Y-59980109D01*
X35000000Y-60019891D01*
X35015224Y-60056645D01*
X35043355Y-60084776D01*
X35080109Y-60100000D01*
X35119891Y-60100000D01*
X35156645Y-60084776D01*
X35184776Y-60056645D01*
X35200000Y-60019891D01*
X35200000Y-59999999D01*
X35453554Y-59999999D01*
X35453554Y-60000001D01*
X35777577Y-60324024D01*
X35777578Y-60324024D01*
X35821175Y-60218775D01*
X35821179Y-60218760D01*
X35849999Y-60073873D01*
X35850000Y-60073871D01*
X35850000Y-59926128D01*
X35849999Y-59926126D01*
X35821179Y-59781240D01*
X35821178Y-59781236D01*
X35777577Y-59675975D01*
X35453554Y-59999999D01*
X35200000Y-59999999D01*
X35200000Y-59980109D01*
X35184776Y-59943355D01*
X35156645Y-59915224D01*
X35119891Y-59900000D01*
X35080109Y-59900000D01*
X35043355Y-59915224D01*
X35015224Y-59943355D01*
X35000000Y-59980109D01*
X34726555Y-59980109D01*
X34550000Y-59803554D01*
X34353554Y-60000000D01*
X34100000Y-60000000D01*
X34100000Y-59980109D01*
X34084776Y-59943355D01*
X34056645Y-59915224D01*
X34019891Y-59900000D01*
X33980109Y-59900000D01*
X33943355Y-59915224D01*
X33915224Y-59943355D01*
X33900000Y-59980109D01*
X33626555Y-59980109D01*
X33450000Y-59803554D01*
X33253554Y-60000000D01*
X33000000Y-60000000D01*
X33000000Y-59980109D01*
X32984776Y-59943355D01*
X32956645Y-59915224D01*
X32919891Y-59900000D01*
X32880109Y-59900000D01*
X32843355Y-59915224D01*
X32815224Y-59943355D01*
X32800000Y-59980109D01*
X32526556Y-59980109D01*
X32222421Y-59675974D01*
X32203684Y-59679701D01*
X32195219Y-59690206D01*
X32128925Y-59712270D01*
X32061225Y-59694990D01*
X32013616Y-59643852D01*
X32000500Y-59588349D01*
X32000500Y-59450000D01*
X32703554Y-59450000D01*
X32900000Y-59646446D01*
X33096446Y-59450000D01*
X33803554Y-59450000D01*
X34000000Y-59646446D01*
X34196446Y-59450000D01*
X34903554Y-59450000D01*
X35100000Y-59646446D01*
X35296446Y-59450000D01*
X35100000Y-59253554D01*
X34903554Y-59450000D01*
X34196446Y-59450000D01*
X34000000Y-59253554D01*
X33803554Y-59450000D01*
X33096446Y-59450000D01*
X32900000Y-59253554D01*
X32703554Y-59450000D01*
X32000500Y-59450000D01*
X32000500Y-59311649D01*
X32020185Y-59244610D01*
X32072989Y-59198855D01*
X32142147Y-59188911D01*
X32205703Y-59217936D01*
X32208029Y-59221161D01*
X32222421Y-59224024D01*
X32546446Y-58900000D01*
X32546446Y-58899999D01*
X32526556Y-58880109D01*
X32800000Y-58880109D01*
X32800000Y-58919891D01*
X32815224Y-58956645D01*
X32843355Y-58984776D01*
X32880109Y-59000000D01*
X32919891Y-59000000D01*
X32956645Y-58984776D01*
X32984776Y-58956645D01*
X33000000Y-58919891D01*
X33000000Y-58900000D01*
X33253554Y-58900000D01*
X33450000Y-59096446D01*
X33646446Y-58900000D01*
X33626555Y-58880109D01*
X33900000Y-58880109D01*
X33900000Y-58919891D01*
X33915224Y-58956645D01*
X33943355Y-58984776D01*
X33980109Y-59000000D01*
X34019891Y-59000000D01*
X34056645Y-58984776D01*
X34084776Y-58956645D01*
X34100000Y-58919891D01*
X34100000Y-58900000D01*
X34353554Y-58900000D01*
X34550000Y-59096446D01*
X34746446Y-58900000D01*
X34726555Y-58880109D01*
X35000000Y-58880109D01*
X35000000Y-58919891D01*
X35015224Y-58956645D01*
X35043355Y-58984776D01*
X35080109Y-59000000D01*
X35119891Y-59000000D01*
X35156645Y-58984776D01*
X35184776Y-58956645D01*
X35200000Y-58919891D01*
X35200000Y-58899999D01*
X35453554Y-58899999D01*
X35453554Y-58900001D01*
X35777577Y-59224024D01*
X35777578Y-59224024D01*
X35821175Y-59118775D01*
X35821179Y-59118760D01*
X35849999Y-58973873D01*
X35850000Y-58973871D01*
X35850000Y-58826128D01*
X35849999Y-58826126D01*
X35821179Y-58681240D01*
X35821178Y-58681236D01*
X35777577Y-58575975D01*
X35453554Y-58899999D01*
X35200000Y-58899999D01*
X35200000Y-58880109D01*
X35184776Y-58843355D01*
X35156645Y-58815224D01*
X35119891Y-58800000D01*
X35080109Y-58800000D01*
X35043355Y-58815224D01*
X35015224Y-58843355D01*
X35000000Y-58880109D01*
X34726555Y-58880109D01*
X34550000Y-58703554D01*
X34353554Y-58900000D01*
X34100000Y-58900000D01*
X34100000Y-58880109D01*
X34084776Y-58843355D01*
X34056645Y-58815224D01*
X34019891Y-58800000D01*
X33980109Y-58800000D01*
X33943355Y-58815224D01*
X33915224Y-58843355D01*
X33900000Y-58880109D01*
X33626555Y-58880109D01*
X33450000Y-58703554D01*
X33253554Y-58900000D01*
X33000000Y-58900000D01*
X33000000Y-58880109D01*
X32984776Y-58843355D01*
X32956645Y-58815224D01*
X32919891Y-58800000D01*
X32880109Y-58800000D01*
X32843355Y-58815224D01*
X32815224Y-58843355D01*
X32800000Y-58880109D01*
X32526556Y-58880109D01*
X32222421Y-58575974D01*
X32222420Y-58575974D01*
X32178823Y-58681228D01*
X32178820Y-58681240D01*
X32150000Y-58826126D01*
X32150000Y-58973869D01*
X32157604Y-59012101D01*
X32151375Y-59081692D01*
X32108511Y-59136869D01*
X32042621Y-59160112D01*
X31974624Y-59144043D01*
X31947258Y-59120184D01*
X31946207Y-59121236D01*
X31684512Y-58859541D01*
X31684504Y-58859535D01*
X31615995Y-58819982D01*
X31615990Y-58819979D01*
X31590513Y-58813152D01*
X31539562Y-58799500D01*
X30660438Y-58799500D01*
X30622224Y-58809739D01*
X30584009Y-58819979D01*
X30584004Y-58819982D01*
X30515495Y-58859535D01*
X30515487Y-58859541D01*
X30511848Y-58863181D01*
X30450525Y-58896666D01*
X30424167Y-58899500D01*
X29624500Y-58899500D01*
X29557461Y-58879815D01*
X29511706Y-58827011D01*
X29500500Y-58775500D01*
X29500500Y-58222420D01*
X32575974Y-58222420D01*
X32575974Y-58222421D01*
X32900000Y-58546446D01*
X32900001Y-58546446D01*
X33224024Y-58222421D01*
X33224022Y-58222420D01*
X33675974Y-58222420D01*
X33675974Y-58222421D01*
X34000000Y-58546446D01*
X34000001Y-58546446D01*
X34324024Y-58222421D01*
X34324022Y-58222420D01*
X34775974Y-58222420D01*
X34775974Y-58222421D01*
X35100000Y-58546446D01*
X35100001Y-58546446D01*
X35424024Y-58222421D01*
X35318767Y-58178822D01*
X35318759Y-58178820D01*
X35173872Y-58150000D01*
X35026128Y-58150000D01*
X34881240Y-58178820D01*
X34881228Y-58178823D01*
X34775974Y-58222420D01*
X34324022Y-58222420D01*
X34218767Y-58178822D01*
X34218759Y-58178820D01*
X34073872Y-58150000D01*
X33926128Y-58150000D01*
X33781240Y-58178820D01*
X33781228Y-58178823D01*
X33675974Y-58222420D01*
X33224022Y-58222420D01*
X33118767Y-58178822D01*
X33118759Y-58178820D01*
X32973872Y-58150000D01*
X32826128Y-58150000D01*
X32681240Y-58178820D01*
X32681228Y-58178823D01*
X32575974Y-58222420D01*
X29500500Y-58222420D01*
X29500500Y-58175833D01*
X29520185Y-58108794D01*
X29536819Y-58088152D01*
X30359080Y-57265891D01*
X31240460Y-56384511D01*
X31280021Y-56315989D01*
X31300500Y-56239562D01*
X31300500Y-55775832D01*
X31320185Y-55708793D01*
X31336815Y-55688155D01*
X31888151Y-55136818D01*
X31949474Y-55103334D01*
X31975832Y-55100500D01*
X32065890Y-55100500D01*
X32065892Y-55100500D01*
X32193186Y-55066392D01*
X32307314Y-55000500D01*
X32400500Y-54907314D01*
X32466392Y-54793186D01*
X32500500Y-54665892D01*
X32500500Y-54534108D01*
X32466392Y-54406814D01*
X32400500Y-54292686D01*
X32307314Y-54199500D01*
X32222120Y-54150313D01*
X32193187Y-54133608D01*
X32129539Y-54116554D01*
X32065892Y-54099500D01*
X31934108Y-54099500D01*
X31806812Y-54133608D01*
X31692686Y-54199500D01*
X31692683Y-54199502D01*
X31599502Y-54292683D01*
X31599500Y-54292686D01*
X31533608Y-54406812D01*
X31499500Y-54534108D01*
X31499500Y-54624166D01*
X31479815Y-54691205D01*
X31463181Y-54711847D01*
X30815489Y-55359540D01*
X30759541Y-55415487D01*
X30759535Y-55415495D01*
X30719982Y-55484004D01*
X30719979Y-55484009D01*
X30699500Y-55560439D01*
X30699500Y-56024167D01*
X30679815Y-56091206D01*
X30663181Y-56111848D01*
X28959541Y-57815487D01*
X28959535Y-57815495D01*
X28919982Y-57884004D01*
X28919979Y-57884009D01*
X28899500Y-57960439D01*
X28899500Y-58875167D01*
X28879815Y-58942206D01*
X28827011Y-58987961D01*
X28757853Y-58997905D01*
X28694297Y-58968880D01*
X28687819Y-58962848D01*
X27836819Y-58111848D01*
X27803334Y-58050525D01*
X27800500Y-58024167D01*
X27800500Y-56199504D01*
X27820185Y-56132465D01*
X27872989Y-56086710D01*
X27942147Y-56076766D01*
X27956571Y-56079724D01*
X28034108Y-56100500D01*
X28034111Y-56100500D01*
X28165890Y-56100500D01*
X28165892Y-56100500D01*
X28293186Y-56066392D01*
X28407314Y-56000500D01*
X28500500Y-55907314D01*
X28566392Y-55793186D01*
X28600500Y-55665892D01*
X28600500Y-55534108D01*
X28566392Y-55406814D01*
X28500500Y-55292686D01*
X28407314Y-55199500D01*
X28342451Y-55162051D01*
X28293187Y-55133608D01*
X28227337Y-55115964D01*
X28165892Y-55099500D01*
X28034108Y-55099500D01*
X27956593Y-55120270D01*
X27886743Y-55118607D01*
X27828881Y-55079444D01*
X27801377Y-55015216D01*
X27800500Y-55000495D01*
X27800500Y-45124833D01*
X27820185Y-45057794D01*
X27872989Y-45012039D01*
X27942147Y-45002095D01*
X28005703Y-45031120D01*
X28012181Y-45037152D01*
X28870482Y-45895453D01*
X28902575Y-45951038D01*
X28909219Y-45975833D01*
X28919979Y-46015991D01*
X28919981Y-46015994D01*
X28956944Y-46080014D01*
X28956946Y-46080023D01*
X28956949Y-46080022D01*
X28959540Y-46084511D01*
X28970482Y-46095453D01*
X29002575Y-46151038D01*
X29006689Y-46166392D01*
X29019979Y-46215990D01*
X29019980Y-46215991D01*
X29049078Y-46266391D01*
X29059541Y-46284512D01*
X29163022Y-46387993D01*
X29196507Y-46449316D01*
X29191523Y-46519008D01*
X29149651Y-46574941D01*
X29084187Y-46599358D01*
X29074019Y-46599055D01*
X29074019Y-46599500D01*
X28934108Y-46599500D01*
X28806812Y-46633608D01*
X28692686Y-46699500D01*
X28692683Y-46699502D01*
X28599502Y-46792683D01*
X28599500Y-46792686D01*
X28533608Y-46906812D01*
X28499500Y-47034108D01*
X28499500Y-47165891D01*
X28533608Y-47293187D01*
X28548786Y-47319475D01*
X28599500Y-47407314D01*
X28692686Y-47500500D01*
X28806814Y-47566392D01*
X28934108Y-47600500D01*
X28934110Y-47600500D01*
X29065890Y-47600500D01*
X29065892Y-47600500D01*
X29193186Y-47566392D01*
X29307314Y-47500500D01*
X29400500Y-47407314D01*
X29466392Y-47293186D01*
X29500500Y-47165892D01*
X29500500Y-47034108D01*
X29500500Y-47025981D01*
X29503716Y-47025981D01*
X29512119Y-46971877D01*
X29558467Y-46919592D01*
X29625725Y-46900666D01*
X29692538Y-46921106D01*
X29712006Y-46936977D01*
X36163181Y-53388152D01*
X36196666Y-53449475D01*
X36199500Y-53475833D01*
X36199500Y-53565891D01*
X36233608Y-53693187D01*
X36266554Y-53750250D01*
X36299500Y-53807314D01*
X36392686Y-53900500D01*
X36506814Y-53966392D01*
X36634108Y-54000500D01*
X36634110Y-54000500D01*
X36765890Y-54000500D01*
X36765892Y-54000500D01*
X36893186Y-53966392D01*
X37007314Y-53900500D01*
X37100500Y-53807314D01*
X37166392Y-53693186D01*
X37200500Y-53565892D01*
X37200500Y-53434108D01*
X37166392Y-53306814D01*
X37100500Y-53192686D01*
X37007314Y-53099500D01*
X36950250Y-53066554D01*
X36893187Y-53033608D01*
X36829539Y-53016554D01*
X36765892Y-52999500D01*
X36675833Y-52999500D01*
X36608794Y-52979815D01*
X36588152Y-52963181D01*
X35379503Y-51754532D01*
X35346018Y-51693209D01*
X35351002Y-51623517D01*
X35392874Y-51567584D01*
X35405180Y-51559466D01*
X35507314Y-51500500D01*
X35600500Y-51407314D01*
X35666392Y-51293186D01*
X35700500Y-51165892D01*
X35700500Y-51034108D01*
X35666392Y-50906814D01*
X35600500Y-50792686D01*
X35544037Y-50736223D01*
X35510552Y-50674900D01*
X35507734Y-50646574D01*
X35514815Y-50200500D01*
X35694409Y-38886042D01*
X35715155Y-38819325D01*
X35768678Y-38774414D01*
X35786300Y-38768236D01*
X35793186Y-38766392D01*
X35907314Y-38700500D01*
X36000500Y-38607314D01*
X36066392Y-38493186D01*
X36100500Y-38365892D01*
X36100500Y-38234108D01*
X36066392Y-38106814D01*
X36000500Y-37992686D01*
X35907314Y-37899500D01*
X35805184Y-37840535D01*
X35756968Y-37789968D01*
X35743746Y-37721361D01*
X35769714Y-37656496D01*
X35779495Y-37645475D01*
X36287819Y-37137152D01*
X36349142Y-37103667D01*
X36418834Y-37108651D01*
G37*
%TD.AperFunction*%
%TA.AperFunction,Conductor*%
G36*
X29938787Y-61242587D02*
G01*
X29968209Y-61259574D01*
X29968212Y-61259575D01*
X29968216Y-61259577D01*
X30120943Y-61300500D01*
X30120945Y-61300500D01*
X30279055Y-61300500D01*
X30279057Y-61300500D01*
X30351466Y-61281098D01*
X30421313Y-61282760D01*
X30479176Y-61321921D01*
X30506681Y-61386149D01*
X30503334Y-61432959D01*
X30499501Y-61447266D01*
X30499500Y-61447275D01*
X30499500Y-61552729D01*
X30500367Y-61559316D01*
X30489601Y-61628351D01*
X30443220Y-61680607D01*
X30377428Y-61699500D01*
X29707676Y-61699500D01*
X29640637Y-61679815D01*
X29594882Y-61627011D01*
X29584938Y-61557853D01*
X29613963Y-61494297D01*
X29619995Y-61487819D01*
X29660074Y-61447740D01*
X29700500Y-61407314D01*
X29766392Y-61293186D01*
X29766392Y-61293185D01*
X29769401Y-61287974D01*
X29819968Y-61239758D01*
X29888575Y-61226535D01*
X29938787Y-61242587D01*
G37*
%TD.AperFunction*%
%TA.AperFunction,Conductor*%
G36*
X37286549Y-41412427D02*
G01*
X37287324Y-41412874D01*
X37287552Y-41413006D01*
X37335743Y-41463597D01*
X37349500Y-41520363D01*
X37349500Y-41759309D01*
X37365637Y-41819533D01*
X37380199Y-41873885D01*
X37399500Y-41907314D01*
X37439511Y-41976614D01*
X37439514Y-41976617D01*
X37444458Y-41983060D01*
X37442579Y-41984501D01*
X37468088Y-42028683D01*
X37473069Y-42047271D01*
X37473069Y-42047272D01*
X37480200Y-42073885D01*
X37480200Y-42073886D01*
X37495566Y-42100500D01*
X37539511Y-42176614D01*
X37539513Y-42176616D01*
X39813181Y-44450284D01*
X39846666Y-44511607D01*
X39849500Y-44537965D01*
X39849500Y-44659310D01*
X39871305Y-44740690D01*
X39880199Y-44773883D01*
X39880200Y-44773886D01*
X39895566Y-44800500D01*
X39939511Y-44876614D01*
X39939514Y-44876617D01*
X39944458Y-44883060D01*
X39942579Y-44884501D01*
X39968089Y-44928685D01*
X39972766Y-44946139D01*
X39972767Y-44946143D01*
X39980200Y-44973885D01*
X39980201Y-44973887D01*
X40039511Y-45076614D01*
X40039513Y-45076616D01*
X40466700Y-45503803D01*
X40500185Y-45565126D01*
X40499055Y-45612688D01*
X40500561Y-45612887D01*
X40499500Y-45620941D01*
X40499500Y-45620943D01*
X40499500Y-45779057D01*
X40538464Y-45924471D01*
X40540423Y-45931783D01*
X40540426Y-45931790D01*
X40619475Y-46068709D01*
X40619481Y-46068717D01*
X40713181Y-46162417D01*
X40746666Y-46223740D01*
X40749500Y-46250098D01*
X40749500Y-59179636D01*
X40729815Y-59246675D01*
X40687501Y-59287023D01*
X40631284Y-59319480D01*
X40631281Y-59319482D01*
X40519481Y-59431282D01*
X40519475Y-59431290D01*
X40440422Y-59568215D01*
X40439060Y-59571505D01*
X40437167Y-59573852D01*
X40436359Y-59575254D01*
X40436140Y-59575127D01*
X40395219Y-59625908D01*
X40328924Y-59647972D01*
X40261225Y-59630692D01*
X40213615Y-59579554D01*
X40200500Y-59524051D01*
X40200500Y-54675833D01*
X40220185Y-54608794D01*
X40236819Y-54588152D01*
X40240460Y-54584511D01*
X40280021Y-54515989D01*
X40300500Y-54439562D01*
X40300500Y-53560438D01*
X40280021Y-53484011D01*
X40280017Y-53484004D01*
X40240464Y-53415495D01*
X40240458Y-53415487D01*
X37536819Y-50711848D01*
X37503334Y-50650525D01*
X37500500Y-50624167D01*
X37500500Y-45760439D01*
X37493888Y-45735763D01*
X37480021Y-45684011D01*
X37453884Y-45638740D01*
X37440464Y-45615495D01*
X37440458Y-45615487D01*
X37136819Y-45311848D01*
X37103334Y-45250525D01*
X37100500Y-45224167D01*
X37100500Y-41519785D01*
X37120185Y-41452746D01*
X37172989Y-41406991D01*
X37242147Y-41397047D01*
X37286549Y-41412427D01*
G37*
%TD.AperFunction*%
%TA.AperFunction,Conductor*%
G36*
X35016766Y-38510718D02*
G01*
X35072699Y-38552590D01*
X35097116Y-38618054D01*
X35097416Y-38628868D01*
X34967385Y-46820771D01*
X34946639Y-46887490D01*
X34893116Y-46932401D01*
X34823808Y-46941245D01*
X34760721Y-46911215D01*
X34755720Y-46906484D01*
X34668717Y-46819481D01*
X34668709Y-46819475D01*
X34531790Y-46740426D01*
X34531786Y-46740424D01*
X34531784Y-46740423D01*
X34379057Y-46699500D01*
X34220943Y-46699500D01*
X34068216Y-46740423D01*
X34068209Y-46740426D01*
X33931290Y-46819475D01*
X33931282Y-46819481D01*
X33819481Y-46931282D01*
X33819475Y-46931290D01*
X33740426Y-47068209D01*
X33740421Y-47068219D01*
X33731381Y-47101957D01*
X33699288Y-47157541D01*
X32957541Y-47899288D01*
X32901957Y-47931381D01*
X32868219Y-47940421D01*
X32868209Y-47940426D01*
X32731290Y-48019475D01*
X32731282Y-48019481D01*
X32619481Y-48131282D01*
X32619475Y-48131290D01*
X32540426Y-48268209D01*
X32540423Y-48268216D01*
X32499500Y-48420943D01*
X32499500Y-48575167D01*
X32479815Y-48642206D01*
X32427011Y-48687961D01*
X32357853Y-48697905D01*
X32294297Y-48668880D01*
X32287819Y-48662848D01*
X30007013Y-46382042D01*
X29973528Y-46320719D01*
X29978512Y-46251027D01*
X30020384Y-46195094D01*
X30062600Y-46174587D01*
X30093186Y-46166392D01*
X30207314Y-46100500D01*
X30300500Y-46007314D01*
X30366392Y-45893186D01*
X30400500Y-45765892D01*
X30400500Y-45634108D01*
X30366392Y-45506814D01*
X30300500Y-45392686D01*
X30207314Y-45299500D01*
X30139657Y-45260438D01*
X30093187Y-45233608D01*
X30002802Y-45209390D01*
X29965892Y-45199500D01*
X29834108Y-45199500D01*
X29706812Y-45233608D01*
X29592686Y-45299500D01*
X29592683Y-45299502D01*
X29499502Y-45392683D01*
X29499496Y-45392692D01*
X29477135Y-45431420D01*
X29426567Y-45479634D01*
X29357960Y-45492855D01*
X29293096Y-45466885D01*
X29282069Y-45457098D01*
X28807013Y-44982042D01*
X28773528Y-44920719D01*
X28778512Y-44851027D01*
X28820384Y-44795094D01*
X28862600Y-44774587D01*
X28893186Y-44766392D01*
X29007314Y-44700500D01*
X29100500Y-44607314D01*
X29166392Y-44493186D01*
X29200500Y-44365892D01*
X29200500Y-44275832D01*
X29220185Y-44208793D01*
X29236818Y-44188152D01*
X29261789Y-44163181D01*
X29287994Y-44136975D01*
X29349315Y-44103491D01*
X29419006Y-44108475D01*
X29474940Y-44150346D01*
X29499358Y-44215810D01*
X29499057Y-44225981D01*
X29499500Y-44225981D01*
X29499500Y-44234108D01*
X29499500Y-44365892D01*
X29514307Y-44421153D01*
X29533608Y-44493187D01*
X29544243Y-44511607D01*
X29599500Y-44607314D01*
X29692686Y-44700500D01*
X29806814Y-44766392D01*
X29934108Y-44800500D01*
X29934110Y-44800500D01*
X30065890Y-44800500D01*
X30065892Y-44800500D01*
X30193186Y-44766392D01*
X30307314Y-44700500D01*
X30400500Y-44607314D01*
X30466392Y-44493186D01*
X30500500Y-44365892D01*
X30500500Y-44234108D01*
X30466392Y-44106814D01*
X30464473Y-44103491D01*
X30439617Y-44060439D01*
X30400500Y-43992686D01*
X30307314Y-43899500D01*
X30219768Y-43848955D01*
X30193187Y-43833608D01*
X30127430Y-43815989D01*
X30065892Y-43799500D01*
X29934108Y-43799500D01*
X29925981Y-43799500D01*
X29925981Y-43796300D01*
X29871781Y-43787835D01*
X29819536Y-43741443D01*
X29800666Y-43674170D01*
X29821162Y-43607374D01*
X29836971Y-43587998D01*
X30987819Y-42437151D01*
X31049142Y-42403666D01*
X31118834Y-42408650D01*
X31174767Y-42450522D01*
X31199184Y-42515986D01*
X31199500Y-42524832D01*
X31199500Y-45024167D01*
X31179815Y-45091206D01*
X31163181Y-45111848D01*
X31159541Y-45115487D01*
X31159535Y-45115495D01*
X31119982Y-45184004D01*
X31119979Y-45184009D01*
X31099500Y-45260439D01*
X31099500Y-45841323D01*
X31079815Y-45908362D01*
X31063182Y-45929004D01*
X30999500Y-45992686D01*
X30933608Y-46106812D01*
X30911041Y-46191036D01*
X30899500Y-46234108D01*
X30899500Y-46365892D01*
X30916554Y-46429539D01*
X30933608Y-46493187D01*
X30940435Y-46505011D01*
X30999500Y-46607314D01*
X31092686Y-46700500D01*
X31206814Y-46766392D01*
X31334108Y-46800500D01*
X31334110Y-46800500D01*
X31465890Y-46800500D01*
X31465892Y-46800500D01*
X31593186Y-46766392D01*
X31707314Y-46700500D01*
X31800500Y-46607314D01*
X31866392Y-46493186D01*
X31893395Y-46392405D01*
X31929760Y-46332746D01*
X31992607Y-46302217D01*
X32013170Y-46300500D01*
X32065890Y-46300500D01*
X32065892Y-46300500D01*
X32193186Y-46266392D01*
X32307314Y-46200500D01*
X32400500Y-46107314D01*
X32466392Y-45993186D01*
X32500500Y-45865892D01*
X32500500Y-45734108D01*
X32466392Y-45606814D01*
X32400500Y-45492686D01*
X32307314Y-45399500D01*
X32249100Y-45365890D01*
X32193187Y-45333608D01*
X32111976Y-45311848D01*
X32065892Y-45299500D01*
X31934108Y-45299500D01*
X31925981Y-45299500D01*
X31925981Y-45296340D01*
X31871652Y-45287869D01*
X31819395Y-45241490D01*
X31800500Y-45175695D01*
X31800500Y-43752206D01*
X31820185Y-43685167D01*
X31872989Y-43639412D01*
X31942147Y-43629468D01*
X32005703Y-43658493D01*
X32031887Y-43690206D01*
X32099497Y-43807310D01*
X32099499Y-43807312D01*
X32099500Y-43807314D01*
X32192686Y-43900500D01*
X32306814Y-43966392D01*
X32434108Y-44000500D01*
X32434110Y-44000500D01*
X32565890Y-44000500D01*
X32565892Y-44000500D01*
X32693186Y-43966392D01*
X32807314Y-43900500D01*
X32900500Y-43807314D01*
X32966392Y-43693186D01*
X33000500Y-43565892D01*
X33000500Y-43434108D01*
X32966392Y-43306814D01*
X32900500Y-43192686D01*
X32836531Y-43128717D01*
X32803046Y-43067394D01*
X32808030Y-42997702D01*
X32816819Y-42979048D01*
X32866392Y-42893186D01*
X32900500Y-42765892D01*
X32900500Y-42634108D01*
X32866392Y-42506814D01*
X32800500Y-42392686D01*
X32707314Y-42299500D01*
X32593186Y-42233608D01*
X32513219Y-42212181D01*
X32492406Y-42206604D01*
X32432746Y-42170238D01*
X32402217Y-42107391D01*
X32400500Y-42086829D01*
X32400500Y-42034110D01*
X32400500Y-42034108D01*
X32366392Y-41906814D01*
X32300500Y-41792686D01*
X32207314Y-41699500D01*
X32123064Y-41650858D01*
X32093187Y-41633608D01*
X32081204Y-41630397D01*
X32062598Y-41625412D01*
X32002939Y-41589048D01*
X31972410Y-41526201D01*
X31980705Y-41456826D01*
X32007009Y-41417960D01*
X34885753Y-38539217D01*
X34947074Y-38505734D01*
X35016766Y-38510718D01*
G37*
%TD.AperFunction*%
%TA.AperFunction,Conductor*%
G36*
X556071Y-36679590D02*
G01*
X634108Y-36700500D01*
X634111Y-36700500D01*
X724167Y-36700500D01*
X791206Y-36720185D01*
X811848Y-36736819D01*
X1059540Y-36984511D01*
X1115489Y-37040460D01*
X1115491Y-37040461D01*
X1115495Y-37040464D01*
X1184004Y-37080017D01*
X1184011Y-37080021D01*
X1260438Y-37100500D01*
X1724167Y-37100500D01*
X1791206Y-37120185D01*
X1811848Y-37136819D01*
X2715489Y-38040460D01*
X2784012Y-38080022D01*
X2848959Y-38097424D01*
X2904546Y-38129517D01*
X2915489Y-38140460D01*
X2915491Y-38140461D01*
X2915495Y-38140464D01*
X2984004Y-38180017D01*
X2984011Y-38180021D01*
X3060438Y-38200500D01*
X5824167Y-38200500D01*
X5891206Y-38220185D01*
X5911848Y-38236819D01*
X7663181Y-39988152D01*
X7696666Y-40049475D01*
X7699500Y-40075833D01*
X7699500Y-40165891D01*
X7733608Y-40293186D01*
X7745336Y-40313499D01*
X7761809Y-40381399D01*
X7738957Y-40447426D01*
X7684036Y-40490617D01*
X7637949Y-40499500D01*
X4303032Y-40499500D01*
X4235993Y-40479815D01*
X4190238Y-40427011D01*
X4180294Y-40357853D01*
X4183254Y-40343418D01*
X4200500Y-40279057D01*
X4200500Y-40120943D01*
X4159577Y-39968216D01*
X4115970Y-39892686D01*
X4080524Y-39831290D01*
X4080518Y-39831282D01*
X3968717Y-39719481D01*
X3968709Y-39719475D01*
X3831790Y-39640426D01*
X3831786Y-39640424D01*
X3831784Y-39640423D01*
X3679057Y-39599500D01*
X3520943Y-39599500D01*
X3368216Y-39640423D01*
X3368209Y-39640426D01*
X3231290Y-39719475D01*
X3231282Y-39719481D01*
X3119481Y-39831282D01*
X3119475Y-39831290D01*
X3040426Y-39968209D01*
X3040423Y-39968216D01*
X2999500Y-40120943D01*
X2999500Y-40211154D01*
X2979815Y-40278193D01*
X2927011Y-40323948D01*
X2857853Y-40333892D01*
X2823893Y-40322139D01*
X2823500Y-40323090D01*
X2815991Y-40319979D01*
X2777775Y-40309739D01*
X2739562Y-40299500D01*
X2739560Y-40299500D01*
X1158676Y-40299500D01*
X1091637Y-40279815D01*
X1070995Y-40263181D01*
X1007316Y-40199502D01*
X1007314Y-40199500D01*
X949102Y-40165891D01*
X893187Y-40133608D01*
X829539Y-40116554D01*
X765892Y-40099500D01*
X634108Y-40099500D01*
X556092Y-40120403D01*
X486243Y-40118741D01*
X428381Y-40079578D01*
X400877Y-40015350D01*
X400000Y-40000629D01*
X400000Y-39799370D01*
X419685Y-39732331D01*
X472489Y-39686576D01*
X541647Y-39676632D01*
X556071Y-39679590D01*
X634108Y-39700500D01*
X634111Y-39700500D01*
X765890Y-39700500D01*
X765892Y-39700500D01*
X893186Y-39666392D01*
X1007314Y-39600500D01*
X1100500Y-39507314D01*
X1166392Y-39393186D01*
X1200500Y-39265892D01*
X1200500Y-39134108D01*
X1166392Y-39006814D01*
X1100500Y-38892686D01*
X1007314Y-38799500D01*
X915386Y-38746425D01*
X893187Y-38733608D01*
X824251Y-38715137D01*
X765892Y-38699500D01*
X634108Y-38699500D01*
X556092Y-38720403D01*
X486243Y-38718741D01*
X428381Y-38679578D01*
X400877Y-38615350D01*
X400000Y-38600629D01*
X400000Y-36799370D01*
X419685Y-36732331D01*
X472489Y-36686576D01*
X541647Y-36676632D01*
X556071Y-36679590D01*
G37*
%TD.AperFunction*%
%TD*%
M02*
