;TYPE=PLATED
;Layer: PTH_Through_Via
;EasyEDA Pro v4.1.60, 2026-09-21 23:08:41
;Gerber Generator version 0.3
M48
METRIC,LZ,0000.00000
;Hole size 1 = 0.30480 METRIC
T01C0.30480
%
G05
G90
T01
X4.6228Y44.54906
X39.93388Y27.94
X3.28422Y39.69004
X0.89916Y43.71086
X30.20568Y49.67986
X23.09368Y50.09642
X39.72814Y79.00924
X19.96186Y74.82332
X8.70966Y22.5298
X27.70378Y20.1803
X35.0139Y59.30646
X27.12974Y55.79364
X22.09038Y20.32254
X28.1559Y14.92758
X31.60014Y56.37784
X19.35734Y11.67638
X18.55216Y56.2991
X40.1447Y60.76188
X24.2062Y51.4985
X23.97506Y46.2534
X18.3261Y39.64178
X18.5928Y15.00124
X30.00248Y15.78356
X21.9075Y42.73042
X23.41372Y19.66214
X26.76398Y17.56918
X23.87092Y26.75636
X15.6083Y57.41416
X15.86738Y67.62496
X7.0231Y56.3118
X9.62914Y37.6682
X0.97028Y46.22292
X20.04568Y41.43502
X21.56206Y39.13886
X12.1666Y39.45128
X6.57098Y46.86554
X17.5006Y38.28542
X23.18766Y41.14546
X4.6228Y46.0756
X38.38956Y45.80128
X14.31036Y62.6491
X38.02126Y73.54824
X40.98544Y68.0212
X15.46352Y20.19808
X39.77386Y56.38546
X44.4754Y26.08326
X17.23898Y19.6088
X13.14196Y19.6088
X12.15898Y19.92376
X19.98472Y62.1538
X41.65092Y73.94956
X17.46504Y65.15608
X41.9862Y70.51802
X50.68062Y69.72046
X50.68062Y70.51802
X53.98008Y69.05498
X40.11168Y78.09484
X19.96694Y73.7235
X15.62354Y70.90664
X17.18564Y53.81244
X0.83058Y41.28008
X20.04568Y68.55206
X41.74998Y18.59534
X29.40558Y49.63922
X25.82164Y49.149
X32.66186Y42.71518
X32.83712Y26.18994
X34.49066Y23.67026
X40.65016Y19.75866
X32.2834Y31.43504
X43.35272Y36.5887
X46.04218Y22.93366
X19.96186Y63.25616
X44.85894Y61.48578
X41.8211Y19.49704
X22.75078Y8.05942
X29.12364Y9.23036
X41.92778Y24.32812
X31.87446Y11.86688
X25.3746Y7.82828
X30.3276Y9.5504
X19.96694Y61.087
X16.89354Y64.47028
X22.85238Y10.20826
X17.21612Y62.13094
X16.97228Y56.35752
X16.2306Y60.20562
X43.86072Y33.7058
X21.60016Y7.75208
X13.97Y26.85542
X48.6918Y36.53536
X19.9644Y66.82486
X42.55008Y76.52004
X8.53186Y14.89964
X28.83916Y19.90852
X6.37794Y46.10354
X39.59606Y40.45204
X27.52598Y27.30754
X3.21818Y38.22446
X30.14726Y40.4368
X1.1684Y35.69716
X19.9644Y67.77482
X3.21818Y40.60444
X15.75054Y59.56808
X6.06044Y41.2242
X23.05558Y56.37022
X5.38734Y42.8498
X24.32558Y58.81878
X4.21386Y43.05808
X26.82494Y58.84164
X19.558Y57.12714
X4.6228Y45.31106
X35.5727Y31.48076
X24.06396Y8.16102
X16.3703Y57.41416
X17.92986Y17.54886
X34.5313Y19.03222
X40.98036Y63.65494
X27.30754Y32.86252
X29.0322Y47.5742
X29.49956Y34.96564
X44.93006Y38.91788
X31.6103Y35.41014
X44.73194Y37.18052
X29.75102Y29.99232
X19.97456Y50.46218
X19.25828Y50.8889
X17.99336Y51.7525
X28.66136Y30.81274
X21.4122Y49.657
X34.03346Y22.96922
X35.03168Y73.04278
X40.86606Y74.01052
X36.25088Y18.14068
X30.76194Y23.62962
X28.50134Y49.44618
X39.57066Y47.01032
X38.45052Y17.41678
X19.558Y52.83708
X22.098Y62.48146
X40.11168Y65.1129
X19.558Y19.92376
X42.66946Y22.43582
X31.11754Y4.14274
X25.37968Y11.3157
X9.62406Y57.66562
X21.89447Y11.85451
X35.09518Y41.87444
X34.91624Y54.52732
X17.05135Y20.35015
X3.46456Y52.10048
X53.61178Y13.29944
X8.21182Y21.3741
X24.90724Y33.86328
X13.12418Y23.0251
X30.01772Y23.44674
X8.21182Y11.37412
X34.52368Y31.3182
X24.2062Y31.43504
X35.09518Y36.53282
X12.95654Y21.39696
X20.80006Y7.4676
X11.76274Y40.28694
X39.6367Y35.79622
X36.61918Y44.54652
X20.86356Y41.31564
X22.92096Y22.7457
X20.24888Y24.2697
X26.68524Y20.04822
X31.52394Y39.19982
X27.95524Y41.87444
X44.67319Y33.97283
X36.61918Y52.2732
X17.10436Y40.28694
X53.61178Y40.29964
X27.95524Y39.2049
X6.2992Y54.864
X35.79622Y49.7459
X40.66286Y32.0548
X45.1612Y16.34998
X47.5107Y1.24968
X34.01314Y1.69926
X34.01314Y5.84962
X33.78995Y12.58857
X17.98828Y75.39482
X37.01288Y75.39482
X27.39898Y67.54368
X24.5999Y67.03568
X25.3619Y69.0753
X42.38719Y34.08205
X7.68718Y53.34648
X12.58824Y48.99914
X13.71821Y59.42363
X52.08778Y67.29984
X9.5885Y30.53842
X27.95524Y36.53282
X36.39599Y39.74371
X35.97402Y28.75788
X24.30526Y54.483
X14.00556Y72.85482
X35.09518Y47.21606
X36.61918Y33.86328
X37.11956Y41.07688
X13.55344Y29.91612
X29.35084Y26.03614
X28.1051Y10.20064
X37.54341Y54.26169
X40.66286Y33.45434
X44.43008Y24.58974
X27.0256Y49.4792
X24.1808Y52.5272
X25.5016Y33.2232
X21.4376Y30.0736
X24.31542Y17.36344
X23.0632Y15.8496
X14.75994Y16.56842
M30