G04 Layer: TopSilkscreenLayer*
G04 EasyEDA Pro v4.1.60, 2026-09-21 23:08:41*
G04 Gerber Generator version 0.3*
G04 Scale: 100 percent, Rotated: No, Reflected: No*
G04 Dimensions in millimeters*
G04 Leading zeros omitted, absolute positions, 4 integers and 5 decimals*
G04 Generated by one-click*
G04 Object Configs: Pad,Via,Track,Text,Image,Dimension,BoardOutline,BoardCutout,CopperFilled,SolidRegion,FPCStiffener,Line,PlaneZone,ComponentProperty,ComponentSilkscreen,TearDrop*
G04 Layer Configs: 1,15,16,2,3,4,5,6,7,8,9,10,11,13,14,56*
G04 Copper Areas: 0*
%FSLAX45Y45*%
%MOMM*%
%ADD10C,0.127*%
%ADD11C,0.2032*%
%ADD12C,0.1524*%
%ADD13C,0.1*%
%ADD14C,0.254*%
%ADD15C,0.15199*%
%ADD16C,0.154*%
%ADD17C,0.15001*%
%ADD18C,0.1565*%
%ADD19C,0.14999*%
%ADD20C,0.2*%
%ADD21C,0.24*%
G75*


G04 Text Start*
G54D10*
G01X2254250Y5638546D02*
G01X2254250Y5603494D01*
G01X2254250Y5638546D02*
G01X2269236Y5638546D01*
G01X2274316Y5636768D01*
G01X2275840Y5635244D01*
G01X2277618Y5631688D01*
G01X2277618Y5628386D01*
G01X2275840Y5625084D01*
G01X2274316Y5623560D01*
G01X2269236Y5621782D01*
G01X2254250Y5621782D01*
G01X2265934Y5621782D02*
G01X2277618Y5603494D01*
G01X2298446Y5638546D02*
G01X2298446Y5603494D01*
G01X2298446Y5638546D02*
G01X2320036Y5638546D01*
G01X2298446Y5621782D02*
G01X2311654Y5621782D01*
G01X2298446Y5603494D02*
G01X2320036Y5603494D01*
G01X2363978Y5633466D02*
G01X2360676Y5636768D01*
G01X2355850Y5638546D01*
G01X2348992Y5638546D01*
G01X2344166Y5636768D01*
G01X2340864Y5633466D01*
G01X2340864Y5630164D01*
G01X2342388Y5626862D01*
G01X2344166Y5625084D01*
G01X2347468Y5623560D01*
G01X2357374Y5620258D01*
G01X2360676Y5618480D01*
G01X2362454Y5616702D01*
G01X2363978Y5613400D01*
G01X2363978Y5608574D01*
G01X2360676Y5605018D01*
G01X2355850Y5603494D01*
G01X2348992Y5603494D01*
G01X2344166Y5605018D01*
G01X2340864Y5608574D01*
G01X2384806Y5638546D02*
G01X2384806Y5603494D01*
G01X2384806Y5638546D02*
G01X2406396Y5638546D01*
G01X2384806Y5621782D02*
G01X2398014Y5621782D01*
G01X2384806Y5603494D02*
G01X2406396Y5603494D01*
G01X2438654Y5638546D02*
G01X2438654Y5603494D01*
G01X2427224Y5638546D02*
G01X2450338Y5638546D01*
G01X2813050Y5638546D02*
G01X2813050Y5603494D01*
G01X2813050Y5638546D02*
G01X2828036Y5638546D01*
G01X2833116Y5636768D01*
G01X2834640Y5635244D01*
G01X2836418Y5631688D01*
G01X2836418Y5628386D01*
G01X2834640Y5625084D01*
G01X2833116Y5623560D01*
G01X2828036Y5621782D01*
G01X2813050Y5621782D02*
G01X2828036Y5621782D01*
G01X2833116Y5620258D01*
G01X2834640Y5618480D01*
G01X2836418Y5615178D01*
G01X2836418Y5610098D01*
G01X2834640Y5606796D01*
G01X2833116Y5605018D01*
G01X2828036Y5603494D01*
G01X2813050Y5603494D01*
G01X2867152Y5638546D02*
G01X2863850Y5636768D01*
G01X2860548Y5633466D01*
G01X2858770Y5630164D01*
G01X2857246Y5625084D01*
G01X2857246Y5616702D01*
G01X2858770Y5611876D01*
G01X2860548Y5608574D01*
G01X2863850Y5605018D01*
G01X2867152Y5603494D01*
G01X2873756Y5603494D01*
G01X2877058Y5605018D01*
G01X2880360Y5608574D01*
G01X2882138Y5611876D01*
G01X2883916Y5616702D01*
G01X2883916Y5625084D01*
G01X2882138Y5630164D01*
G01X2880360Y5633466D01*
G01X2877058Y5636768D01*
G01X2873756Y5638546D01*
G01X2867152Y5638546D01*
G01X2914650Y5638546D02*
G01X2911348Y5636768D01*
G01X2908046Y5633466D01*
G01X2906268Y5630164D01*
G01X2904744Y5625084D01*
G01X2904744Y5616702D01*
G01X2906268Y5611876D01*
G01X2908046Y5608574D01*
G01X2911348Y5605018D01*
G01X2914650Y5603494D01*
G01X2921254Y5603494D01*
G01X2924556Y5605018D01*
G01X2927858Y5608574D01*
G01X2929636Y5611876D01*
G01X2931414Y5616702D01*
G01X2931414Y5625084D01*
G01X2929636Y5630164D01*
G01X2927858Y5633466D01*
G01X2924556Y5636768D01*
G01X2921254Y5638546D01*
G01X2914650Y5638546D01*
G01X2963672Y5638546D02*
G01X2963672Y5603494D01*
G01X2952242Y5638546D02*
G01X2975356Y5638546D01*
G54D11*
G01X586486Y345186D02*
G01X583692Y350774D01*
G01X577850Y356616D01*
G01X572262Y359410D01*
G01X560832Y359410D01*
G01X554990Y356616D01*
G01X549402Y350774D01*
G01X546354Y345186D01*
G01X543560Y336550D01*
G01X543560Y322326D01*
G01X546354Y313690D01*
G01X549402Y307848D01*
G01X554990Y302260D01*
G01X560832Y299466D01*
G01X572262Y299466D01*
G01X577850Y302260D01*
G01X583692Y307848D01*
G01X586486Y313690D01*
G01X637794Y359410D02*
G01X631952Y356616D01*
G01X626364Y350774D01*
G01X623316Y345186D01*
G01X620522Y336550D01*
G01X620522Y322326D01*
G01X623316Y313690D01*
G01X626364Y307848D01*
G01X631952Y302260D01*
G01X637794Y299466D01*
G01X649224Y299466D01*
G01X654812Y302260D01*
G01X660654Y307848D01*
G01X663448Y313690D01*
G01X666242Y322326D01*
G01X666242Y336550D01*
G01X663448Y345186D01*
G01X660654Y350774D01*
G01X654812Y356616D01*
G01X649224Y359410D01*
G01X637794Y359410D01*
G01X700278Y359410D02*
G01X700278Y299466D01*
G01X700278Y299466D02*
G01X734568Y299466D01*
G01X791464Y359410D02*
G01X768604Y299466D01*
G01X791464Y359410D02*
G01X814324Y299466D01*
G01X777240Y319278D02*
G01X805688Y319278D01*
G01X912368Y359410D02*
G01X912368Y299466D01*
G01X912368Y359410D02*
G01X949452Y359410D01*
G01X912368Y330708D02*
G01X935228Y330708D01*
G01X912368Y299466D02*
G01X949452Y299466D01*
G01X1023620Y350774D02*
G01X1017778Y356616D01*
G01X1009142Y359410D01*
G01X997712Y359410D01*
G01X989330Y356616D01*
G01X983488Y350774D01*
G01X983488Y345186D01*
G01X986282Y339344D01*
G01X989330Y336550D01*
G01X994918Y333756D01*
G01X1012190Y327914D01*
G01X1017778Y325120D01*
G01X1020572Y322326D01*
G01X1023620Y316484D01*
G01X1023620Y307848D01*
G01X1017778Y302260D01*
G01X1009142Y299466D01*
G01X997712Y299466D01*
G01X989330Y302260D01*
G01X983488Y307848D01*
G01X1057656Y359410D02*
G01X1057656Y299466D01*
G01X1057656Y359410D02*
G01X1083310Y359410D01*
G01X1091946Y356616D01*
G01X1094740Y353568D01*
G01X1097788Y347980D01*
G01X1097788Y339344D01*
G01X1094740Y333756D01*
G01X1091946Y330708D01*
G01X1083310Y327914D01*
G01X1057656Y327914D01*
G01X1137666Y359410D02*
G01X1168908Y359410D01*
G01X1151890Y336550D01*
G01X1160526Y336550D01*
G01X1166114Y333756D01*
G01X1168908Y330708D01*
G01X1171956Y322326D01*
G01X1171956Y316484D01*
G01X1168908Y307848D01*
G01X1163320Y302260D01*
G01X1154684Y299466D01*
G01X1146048Y299466D01*
G01X1137666Y302260D01*
G01X1134618Y305054D01*
G01X1131824Y310896D01*
G01X1208786Y345186D02*
G01X1208786Y347980D01*
G01X1211834Y353568D01*
G01X1214628Y356616D01*
G01X1220216Y359410D01*
G01X1231646Y359410D01*
G01X1237488Y356616D01*
G01X1240282Y353568D01*
G01X1243076Y347980D01*
G01X1243076Y342138D01*
G01X1240282Y336550D01*
G01X1234694Y327914D01*
G01X1205992Y299466D01*
G01X1246124Y299466D01*
G01X1280160Y325120D02*
G01X1331722Y325120D01*
G01X1405890Y350774D02*
G01X1400048Y356616D01*
G01X1391412Y359410D01*
G01X1379982Y359410D01*
G01X1371600Y356616D01*
G01X1365758Y350774D01*
G01X1365758Y345186D01*
G01X1368552Y339344D01*
G01X1371600Y336550D01*
G01X1377188Y333756D01*
G01X1394460Y327914D01*
G01X1400048Y325120D01*
G01X1402842Y322326D01*
G01X1405890Y316484D01*
G01X1405890Y307848D01*
G01X1400048Y302260D01*
G01X1391412Y299466D01*
G01X1379982Y299466D01*
G01X1371600Y302260D01*
G01X1365758Y307848D01*
G01X1445768Y359410D02*
G01X1477010Y359410D01*
G01X1459992Y336550D01*
G01X1468628Y336550D01*
G01X1474216Y333756D01*
G01X1477010Y330708D01*
G01X1480058Y322326D01*
G01X1480058Y316484D01*
G01X1477010Y307848D01*
G01X1471422Y302260D01*
G01X1462786Y299466D01*
G01X1454150Y299466D01*
G01X1445768Y302260D01*
G01X1442720Y305054D01*
G01X1439926Y310896D01*
G01X1578102Y339344D02*
G01X1595374Y299466D01*
G01X1612392Y339344D02*
G01X1595374Y299466D01*
G01X1649222Y345186D02*
G01X1649222Y347980D01*
G01X1652270Y353568D01*
G01X1655064Y356616D01*
G01X1660652Y359410D01*
G01X1672082Y359410D01*
G01X1677924Y356616D01*
G01X1680718Y353568D01*
G01X1683512Y347980D01*
G01X1683512Y342138D01*
G01X1680718Y336550D01*
G01X1675130Y327914D01*
G01X1646428Y299466D01*
G01X1686560Y299466D01*
G01X1723390Y313690D02*
G01X1720596Y310896D01*
G01X1723390Y307848D01*
G01X1726438Y310896D01*
G01X1723390Y313690D01*
G01X1777746Y359410D02*
G01X1769110Y356616D01*
G01X1763268Y347980D01*
G01X1760474Y333756D01*
G01X1760474Y325120D01*
G01X1763268Y310896D01*
G01X1769110Y302260D01*
G01X1777746Y299466D01*
G01X1783334Y299466D01*
G01X1791970Y302260D01*
G01X1797558Y310896D01*
G01X1800606Y325120D01*
G01X1800606Y333756D01*
G01X1797558Y347980D01*
G01X1791970Y356616D01*
G01X1783334Y359410D01*
G01X1777746Y359410D01*
G54D12*
G01X2115820Y135128D02*
G01X2115820Y99568D01*
G01X2118106Y92456D01*
G01X2122932Y87630D01*
G01X2130044Y85344D01*
G01X2134870Y85344D01*
G01X2141982Y87630D01*
G01X2146808Y92456D01*
G01X2149094Y99568D01*
G01X2149094Y135128D01*
G01X2209038Y128016D02*
G01X2204466Y132842D01*
G01X2197100Y135128D01*
G01X2187702Y135128D01*
G01X2180590Y132842D01*
G01X2175764Y128016D01*
G01X2175764Y123444D01*
G01X2178050Y118618D01*
G01X2180590Y116078D01*
G01X2185416Y113792D01*
G01X2199640Y108966D01*
G01X2204466Y106680D01*
G01X2206752Y104394D01*
G01X2209038Y99568D01*
G01X2209038Y92456D01*
G01X2204466Y87630D01*
G01X2197100Y85344D01*
G01X2187702Y85344D01*
G01X2180590Y87630D01*
G01X2175764Y92456D01*
G01X2235708Y135128D02*
G01X2235708Y85344D01*
G01X2235708Y135128D02*
G01X2257044Y135128D01*
G01X2264410Y132842D01*
G01X2266696Y130556D01*
G01X2268982Y125730D01*
G01X2268982Y120904D01*
G01X2266696Y116078D01*
G01X2264410Y113792D01*
G01X2257044Y111506D01*
G01X2235708Y111506D02*
G01X2257044Y111506D01*
G01X2264410Y108966D01*
G01X2266696Y106680D01*
G01X2268982Y101854D01*
G01X2268982Y94742D01*
G01X2266696Y89916D01*
G01X2264410Y87630D01*
G01X2257044Y85344D01*
G01X2235708Y85344D01*
G01X2295652Y106680D02*
G01X2338578Y106680D01*
G01X2401062Y123444D02*
G01X2398522Y128016D01*
G01X2393950Y132842D01*
G01X2389124Y135128D01*
G01X2379472Y135128D01*
G01X2374900Y132842D01*
G01X2370074Y128016D01*
G01X2367534Y123444D01*
G01X2365248Y116078D01*
G01X2365248Y104394D01*
G01X2367534Y97028D01*
G01X2370074Y92456D01*
G01X2374900Y87630D01*
G01X2379472Y85344D01*
G01X2389124Y85344D01*
G01X2393950Y87630D01*
G01X2398522Y92456D01*
G01X2401062Y97028D01*
G01X541020Y3741928D02*
G01X541020Y3692144D01*
G01X541020Y3741928D02*
G01X572008Y3741928D01*
G01X541020Y3718306D02*
G01X560070Y3718306D01*
G01X541020Y3692144D02*
G01X572008Y3692144D01*
G01X598678Y3741928D02*
G01X598678Y3692144D01*
G01X598678Y3741928D02*
G01X620014Y3741928D01*
G01X627380Y3739642D01*
G01X629666Y3737356D01*
G01X631952Y3732530D01*
G01X631952Y3725418D01*
G01X629666Y3720592D01*
G01X627380Y3718306D01*
G01X620014Y3715766D01*
G01X598678Y3715766D01*
G01X658622Y3741928D02*
G01X658622Y3692144D01*
G01X658622Y3741928D02*
G01X675386Y3741928D01*
G01X682498Y3739642D01*
G01X687324Y3734816D01*
G01X689610Y3730244D01*
G01X691896Y3722878D01*
G01X691896Y3711194D01*
G01X689610Y3703828D01*
G01X687324Y3699256D01*
G01X682498Y3694430D01*
G01X675386Y3692144D01*
G01X658622Y3692144D01*
G01X771906Y3741928D02*
G01X771906Y3692144D01*
G01X771906Y3741928D02*
G01X802894Y3741928D01*
G01X771906Y3718306D02*
G01X790956Y3718306D01*
G01X829564Y3741928D02*
G01X829564Y3692144D01*
G01X829564Y3741928D02*
G01X850900Y3741928D01*
G01X858266Y3739642D01*
G01X860552Y3737356D01*
G01X862838Y3732530D01*
G01X862838Y3725418D01*
G01X860552Y3720592D01*
G01X858266Y3718306D01*
G01X850900Y3715766D01*
G01X829564Y3715766D01*
G01X925322Y3730244D02*
G01X922782Y3734816D01*
G01X918210Y3739642D01*
G01X913384Y3741928D01*
G01X903732Y3741928D01*
G01X899160Y3739642D01*
G01X894334Y3734816D01*
G01X891794Y3730244D01*
G01X889508Y3722878D01*
G01X889508Y3711194D01*
G01X891794Y3703828D01*
G01X894334Y3699256D01*
G01X899160Y3694430D01*
G01X903732Y3692144D01*
G01X913384Y3692144D01*
G01X918210Y3694430D01*
G01X922782Y3699256D01*
G01X925322Y3703828D01*
G01X1007618Y3730244D02*
G01X1007618Y3732530D01*
G01X1010158Y3737356D01*
G01X1012444Y3739642D01*
G01X1017270Y3741928D01*
G01X1026668Y3741928D01*
G01X1031494Y3739642D01*
G01X1034034Y3737356D01*
G01X1036320Y3732530D01*
G01X1036320Y3727704D01*
G01X1034034Y3722878D01*
G01X1029208Y3715766D01*
G01X1005332Y3692144D01*
G01X1038606Y3692144D01*
G01X1089152Y3741928D02*
G01X1065276Y3708654D01*
G01X1101090Y3708654D01*
G01X1089152Y3741928D02*
G01X1089152Y3692144D01*
G01X1127760Y3741928D02*
G01X1127760Y3692144D01*
G01X1127760Y3741928D02*
G01X1149096Y3741928D01*
G01X1156462Y3739642D01*
G01X1158748Y3737356D01*
G01X1161034Y3732530D01*
G01X1161034Y3725418D01*
G01X1158748Y3720592D01*
G01X1156462Y3718306D01*
G01X1149096Y3715766D01*
G01X1127760Y3715766D01*
G01X4122420Y1744218D02*
G01X4122420Y1710944D01*
G01X4122420Y1734566D02*
G01X4129532Y1741678D01*
G01X4134358Y1744218D01*
G01X4141470Y1744218D01*
G01X4146296Y1741678D01*
G01X4148582Y1734566D01*
G01X4148582Y1710944D01*
G01X4148582Y1734566D02*
G01X4155694Y1741678D01*
G01X4160520Y1744218D01*
G01X4167632Y1744218D01*
G01X4172458Y1741678D01*
G01X4174744Y1734566D01*
G01X4174744Y1710944D01*
G01X4201414Y1760728D02*
G01X4203700Y1758442D01*
G01X4206240Y1760728D01*
G01X4203700Y1763268D01*
G01X4201414Y1760728D01*
G01X4203700Y1744218D02*
G01X4203700Y1710944D01*
G01X4261612Y1737106D02*
G01X4256786Y1741678D01*
G01X4251960Y1744218D01*
G01X4244848Y1744218D01*
G01X4240022Y1741678D01*
G01X4235196Y1737106D01*
G01X4232910Y1729994D01*
G01X4232910Y1725168D01*
G01X4235196Y1718056D01*
G01X4240022Y1713230D01*
G01X4244848Y1710944D01*
G01X4251960Y1710944D01*
G01X4256786Y1713230D01*
G01X4261612Y1718056D01*
G01X4288282Y1744218D02*
G01X4288282Y1710944D01*
G01X4288282Y1729994D02*
G01X4290568Y1737106D01*
G01X4295394Y1741678D01*
G01X4300220Y1744218D01*
G01X4307332Y1744218D01*
G01X4345940Y1744218D02*
G01X4341114Y1741678D01*
G01X4336288Y1737106D01*
G01X4334002Y1729994D01*
G01X4334002Y1725168D01*
G01X4336288Y1718056D01*
G01X4341114Y1713230D01*
G01X4345940Y1710944D01*
G01X4353052Y1710944D01*
G01X4357878Y1713230D01*
G01X4362704Y1718056D01*
G01X4364990Y1725168D01*
G01X4364990Y1729994D01*
G01X4362704Y1737106D01*
G01X4357878Y1741678D01*
G01X4353052Y1744218D01*
G01X4345940Y1744218D01*
G01X4424934Y1753616D02*
G01X4420362Y1758442D01*
G01X4412996Y1760728D01*
G01X4403598Y1760728D01*
G01X4396486Y1758442D01*
G01X4391660Y1753616D01*
G01X4391660Y1749044D01*
G01X4393946Y1744218D01*
G01X4396486Y1741678D01*
G01X4401312Y1739392D01*
G01X4415536Y1734566D01*
G01X4420362Y1732280D01*
G01X4422648Y1729994D01*
G01X4424934Y1725168D01*
G01X4424934Y1718056D01*
G01X4420362Y1713230D01*
G01X4412996Y1710944D01*
G01X4403598Y1710944D01*
G01X4396486Y1713230D01*
G01X4391660Y1718056D01*
G01X4451604Y1760728D02*
G01X4451604Y1710944D01*
G01X4451604Y1760728D02*
G01X4468368Y1760728D01*
G01X4475480Y1758442D01*
G01X4480306Y1753616D01*
G01X4482592Y1749044D01*
G01X4484878Y1741678D01*
G01X4484878Y1729994D01*
G01X4482592Y1722628D01*
G01X4480306Y1718056D01*
G01X4475480Y1713230D01*
G01X4468368Y1710944D01*
G01X4451604Y1710944D01*
G01X261620Y2802128D02*
G01X261620Y2752344D01*
G01X261620Y2802128D02*
G01X282956Y2802128D01*
G01X290322Y2799842D01*
G01X292608Y2797556D01*
G01X294894Y2792730D01*
G01X294894Y2787904D01*
G01X292608Y2783078D01*
G01X290322Y2780792D01*
G01X282956Y2778506D01*
G01X261620Y2778506D02*
G01X282956Y2778506D01*
G01X290322Y2775966D01*
G01X292608Y2773680D01*
G01X294894Y2768854D01*
G01X294894Y2761742D01*
G01X292608Y2756916D01*
G01X290322Y2754630D01*
G01X282956Y2752344D01*
G01X261620Y2752344D01*
G01X340614Y2802128D02*
G01X321564Y2752344D01*
G01X340614Y2802128D02*
G01X359664Y2752344D01*
G01X328676Y2768854D02*
G01X352552Y2768854D01*
G01X403098Y2802128D02*
G01X403098Y2752344D01*
G01X386334Y2802128D02*
G01X419608Y2802128D01*
G01X446278Y2792730D02*
G01X451104Y2795016D01*
G01X458216Y2802128D01*
G01X458216Y2752344D01*
G01X261620Y655828D02*
G01X261620Y606044D01*
G01X261620Y655828D02*
G01X282956Y655828D01*
G01X290322Y653542D01*
G01X292608Y651256D01*
G01X294894Y646430D01*
G01X294894Y641604D01*
G01X292608Y636778D01*
G01X290322Y634492D01*
G01X282956Y632206D01*
G01X261620Y632206D02*
G01X282956Y632206D01*
G01X290322Y629666D01*
G01X292608Y627380D01*
G01X294894Y622554D01*
G01X294894Y615442D01*
G01X292608Y610616D01*
G01X290322Y608330D01*
G01X282956Y606044D01*
G01X261620Y606044D01*
G01X340614Y655828D02*
G01X321564Y606044D01*
G01X340614Y655828D02*
G01X359664Y606044D01*
G01X328676Y622554D02*
G01X352552Y622554D01*
G01X403098Y655828D02*
G01X403098Y606044D01*
G01X386334Y655828D02*
G01X419608Y655828D01*
G01X448564Y644144D02*
G01X448564Y646430D01*
G01X451104Y651256D01*
G01X453390Y653542D01*
G01X458216Y655828D01*
G01X467614Y655828D01*
G01X472440Y653542D01*
G01X474980Y651256D01*
G01X477266Y646430D01*
G01X477266Y641604D01*
G01X474980Y636778D01*
G01X470154Y629666D01*
G01X446278Y606044D01*
G01X479552Y606044D01*
G01X4986020Y6942328D02*
G01X4986020Y6892544D01*
G01X5019294Y6942328D02*
G01X4986020Y6909054D01*
G01X4997958Y6920992D02*
G01X5019294Y6892544D01*
G01X5045964Y6942328D02*
G01X5045964Y6892544D01*
G01X5045964Y6942328D02*
G01X5076952Y6942328D01*
G01X5045964Y6918706D02*
G01X5065014Y6918706D01*
G01X5045964Y6892544D02*
G01X5076952Y6892544D01*
G01X5103622Y6942328D02*
G01X5122672Y6918706D01*
G01X5122672Y6892544D01*
G01X5141722Y6942328D02*
G01X5122672Y6918706D01*
G01X5168392Y6932930D02*
G01X5173218Y6935216D01*
G01X5180330Y6942328D01*
G01X5180330Y6892544D01*
G01X4986020Y4249928D02*
G01X4986020Y4200144D01*
G01X5019294Y4249928D02*
G01X4986020Y4216654D01*
G01X4997958Y4228592D02*
G01X5019294Y4200144D01*
G01X5045964Y4249928D02*
G01X5045964Y4200144D01*
G01X5045964Y4249928D02*
G01X5076952Y4249928D01*
G01X5045964Y4226306D02*
G01X5065014Y4226306D01*
G01X5045964Y4200144D02*
G01X5076952Y4200144D01*
G01X5103622Y4249928D02*
G01X5122672Y4226306D01*
G01X5122672Y4200144D01*
G01X5141722Y4249928D02*
G01X5122672Y4226306D01*
G01X5170678Y4238244D02*
G01X5170678Y4240530D01*
G01X5173218Y4245356D01*
G01X5175504Y4247642D01*
G01X5180330Y4249928D01*
G01X5189728Y4249928D01*
G01X5194554Y4247642D01*
G01X5197094Y4245356D01*
G01X5199380Y4240530D01*
G01X5199380Y4235704D01*
G01X5197094Y4230878D01*
G01X5192268Y4223766D01*
G01X5168392Y4200144D01*
G01X5201666Y4200144D01*
G01X4986020Y1557528D02*
G01X4986020Y1507744D01*
G01X5019294Y1557528D02*
G01X4986020Y1524254D01*
G01X4997958Y1536192D02*
G01X5019294Y1507744D01*
G01X5045964Y1557528D02*
G01X5045964Y1507744D01*
G01X5045964Y1557528D02*
G01X5076952Y1557528D01*
G01X5045964Y1533906D02*
G01X5065014Y1533906D01*
G01X5045964Y1507744D02*
G01X5076952Y1507744D01*
G01X5103622Y1557528D02*
G01X5122672Y1533906D01*
G01X5122672Y1507744D01*
G01X5141722Y1557528D02*
G01X5122672Y1533906D01*
G01X5173218Y1557528D02*
G01X5199380Y1557528D01*
G01X5185156Y1538478D01*
G01X5192268Y1538478D01*
G01X5197094Y1536192D01*
G01X5199380Y1533906D01*
G01X5201666Y1526794D01*
G01X5201666Y1521968D01*
G01X5199380Y1514856D01*
G01X5194554Y1510030D01*
G01X5187442Y1507744D01*
G01X5180330Y1507744D01*
G01X5173218Y1510030D01*
G01X5170678Y1512316D01*
G01X5168392Y1517142D01*
G01X3263224Y5124547D02*
G01X3263224Y5059523D01*
G01X3263224Y5124547D02*
G01X3291164Y5124547D01*
G01X3300308Y5121499D01*
G01X3303356Y5118451D01*
G01X3306658Y5112101D01*
G01X3306658Y5106005D01*
G01X3303356Y5099909D01*
G01X3300308Y5096861D01*
G01X3291164Y5093559D01*
G01X3263224Y5093559D01*
G01X3284814Y5093559D02*
G01X3306658Y5059523D01*
G01X3342980Y5124547D02*
G01X3377016Y5124547D01*
G01X3358474Y5099909D01*
G01X3367618Y5099909D01*
G01X3373968Y5096861D01*
G01X3377016Y5093559D01*
G01X3380064Y5084415D01*
G01X3380064Y5078065D01*
G01X3377016Y5068921D01*
G01X3370920Y5062571D01*
G01X3361522Y5059523D01*
G01X3352124Y5059523D01*
G01X3342980Y5062571D01*
G01X3339932Y5065873D01*
G01X3336884Y5071969D01*
G01X3413338Y5109053D02*
G01X3413338Y5112101D01*
G01X3416386Y5118451D01*
G01X3419434Y5121499D01*
G01X3425530Y5124547D01*
G01X3437976Y5124547D01*
G01X3444326Y5121499D01*
G01X3447374Y5118451D01*
G01X3450422Y5112101D01*
G01X3450422Y5106005D01*
G01X3447374Y5099909D01*
G01X3441024Y5090511D01*
G01X3410290Y5059523D01*
G01X3453470Y5059523D01*
G01X2412355Y1099149D02*
G01X2412355Y1034125D01*
G01X2412355Y1099149D02*
G01X2455789Y1034125D01*
G01X2455789Y1099149D02*
G01X2455789Y1034125D01*
G01X2507605Y1099149D02*
G01X2507605Y1034125D01*
G01X2486015Y1099149D02*
G01X2529195Y1099149D01*
G01X2605649Y1083655D02*
G01X2602601Y1090005D01*
G01X2596505Y1096101D01*
G01X2590155Y1099149D01*
G01X2577963Y1099149D01*
G01X2571613Y1096101D01*
G01X2565517Y1090005D01*
G01X2562469Y1083655D01*
G01X2559421Y1074511D01*
G01X2559421Y1059017D01*
G01X2562469Y1049619D01*
G01X2565517Y1043523D01*
G01X2571613Y1037173D01*
G01X2577963Y1034125D01*
G01X2590155Y1034125D01*
G01X2596505Y1037173D01*
G01X2602601Y1043523D01*
G01X2605649Y1049619D01*
G01X2635875Y1086703D02*
G01X2641971Y1090005D01*
G01X2651115Y1099149D01*
G01X2651115Y1034125D01*
G01X1268562Y6090854D02*
G01X1265514Y6097204D01*
G01X1259164Y6103300D01*
G01X1253068Y6106348D01*
G01X1240622Y6106348D01*
G01X1234526Y6103300D01*
G01X1228176Y6097204D01*
G01X1225128Y6090854D01*
G01X1222080Y6081710D01*
G01X1222080Y6066216D01*
G01X1225128Y6056818D01*
G01X1228176Y6050722D01*
G01X1234526Y6044372D01*
G01X1240622Y6041324D01*
G01X1253068Y6041324D01*
G01X1259164Y6044372D01*
G01X1265514Y6050722D01*
G01X1268562Y6056818D01*
G01X1304884Y6106348D02*
G01X1338920Y6106348D01*
G01X1320378Y6081710D01*
G01X1329522Y6081710D01*
G01X1335872Y6078662D01*
G01X1338920Y6075360D01*
G01X1341968Y6066216D01*
G01X1341968Y6059866D01*
G01X1338920Y6050722D01*
G01X1332824Y6044372D01*
G01X1323426Y6041324D01*
G01X1314028Y6041324D01*
G01X1304884Y6044372D01*
G01X1301836Y6047674D01*
G01X1298788Y6053770D01*
G01X1402928Y6106348D02*
G01X1372194Y6063168D01*
G01X1418422Y6063168D01*
G01X1402928Y6106348D02*
G01X1402928Y6041324D01*
G01X2193889Y1099223D02*
G01X2193889Y1034199D01*
G01X2193889Y1099223D02*
G01X2221829Y1099223D01*
G01X2230973Y1096175D01*
G01X2234021Y1093127D01*
G01X2237323Y1086777D01*
G01X2237323Y1080681D01*
G01X2234021Y1074585D01*
G01X2230973Y1071537D01*
G01X2221829Y1068235D01*
G01X2193889Y1068235D01*
G01X2215479Y1068235D02*
G01X2237323Y1034199D01*
G01X2267549Y1086777D02*
G01X2273645Y1090079D01*
G01X2282789Y1099223D01*
G01X2282789Y1034199D01*
G01X2319111Y1099223D02*
G01X2353147Y1099223D01*
G01X2334605Y1074585D01*
G01X2343749Y1074585D01*
G01X2350099Y1071537D01*
G01X2353147Y1068235D01*
G01X2356195Y1059091D01*
G01X2356195Y1052741D01*
G01X2353147Y1043597D01*
G01X2347051Y1037247D01*
G01X2337653Y1034199D01*
G01X2328255Y1034199D01*
G01X2319111Y1037247D01*
G01X2316063Y1040549D01*
G01X2313015Y1046645D01*
G01X3202727Y1641079D02*
G01X3199679Y1647429D01*
G01X3193329Y1653525D01*
G01X3187233Y1656573D01*
G01X3174787Y1656573D01*
G01X3168691Y1653525D01*
G01X3162341Y1647429D01*
G01X3159293Y1641079D01*
G01X3156245Y1631935D01*
G01X3156245Y1616441D01*
G01X3159293Y1607043D01*
G01X3162341Y1600947D01*
G01X3168691Y1594597D01*
G01X3174787Y1591549D01*
G01X3187233Y1591549D01*
G01X3193329Y1594597D01*
G01X3199679Y1600947D01*
G01X3202727Y1607043D01*
G01X3232953Y1644127D02*
G01X3239049Y1647429D01*
G01X3248193Y1656573D01*
G01X3248193Y1591549D01*
G01X3278419Y1644127D02*
G01X3284515Y1647429D01*
G01X3293659Y1656573D01*
G01X3293659Y1591549D01*
G01X4055781Y5179299D02*
G01X4055781Y5114275D01*
G01X4055781Y5179299D02*
G01X4083721Y5179299D01*
G01X4092865Y5176251D01*
G01X4095913Y5173203D01*
G01X4099215Y5166853D01*
G01X4099215Y5160757D01*
G01X4095913Y5154661D01*
G01X4092865Y5151613D01*
G01X4083721Y5148311D01*
G01X4055781Y5148311D01*
G01X4077371Y5148311D02*
G01X4099215Y5114275D01*
G01X4129441Y5166853D02*
G01X4135537Y5170155D01*
G01X4144681Y5179299D01*
G01X4144681Y5114275D01*
G01X4190147Y5179299D02*
G01X4181003Y5176251D01*
G01X4177955Y5170155D01*
G01X4177955Y5163805D01*
G01X4181003Y5157709D01*
G01X4187099Y5154661D01*
G01X4199545Y5151613D01*
G01X4208943Y5148311D01*
G01X4215039Y5142215D01*
G01X4218087Y5136119D01*
G01X4218087Y5126721D01*
G01X4215039Y5120625D01*
G01X4211991Y5117323D01*
G01X4202593Y5114275D01*
G01X4190147Y5114275D01*
G01X4181003Y5117323D01*
G01X4177955Y5120625D01*
G01X4174907Y5126721D01*
G01X4174907Y5136119D01*
G01X4177955Y5142215D01*
G01X4184051Y5148311D01*
G01X4193449Y5151613D01*
G01X4205641Y5154661D01*
G01X4211991Y5157709D01*
G01X4215039Y5163805D01*
G01X4215039Y5170155D01*
G01X4211991Y5176251D01*
G01X4202593Y5179299D01*
G01X4190147Y5179299D01*
G01X3102160Y4420098D02*
G01X3099112Y4426448D01*
G01X3092762Y4432544D01*
G01X3086666Y4435592D01*
G01X3074220Y4435592D01*
G01X3068124Y4432544D01*
G01X3061774Y4426448D01*
G01X3058726Y4420098D01*
G01X3055678Y4410954D01*
G01X3055678Y4395460D01*
G01X3058726Y4386062D01*
G01X3061774Y4379966D01*
G01X3068124Y4373616D01*
G01X3074220Y4370568D01*
G01X3086666Y4370568D01*
G01X3092762Y4373616D01*
G01X3099112Y4379966D01*
G01X3102160Y4386062D01*
G01X3135434Y4420098D02*
G01X3135434Y4423146D01*
G01X3138482Y4429496D01*
G01X3141530Y4432544D01*
G01X3147626Y4435592D01*
G01X3160072Y4435592D01*
G01X3166422Y4432544D01*
G01X3169470Y4429496D01*
G01X3172518Y4423146D01*
G01X3172518Y4417050D01*
G01X3169470Y4410954D01*
G01X3163120Y4401556D01*
G01X3132386Y4370568D01*
G01X3175566Y4370568D01*
G01X3205792Y4423146D02*
G01X3211888Y4426448D01*
G01X3221032Y4435592D01*
G01X3221032Y4370568D01*
G01X3316780Y5976275D02*
G01X3313732Y5982625D01*
G01X3307382Y5988721D01*
G01X3301286Y5991769D01*
G01X3288840Y5991769D01*
G01X3282744Y5988721D01*
G01X3276394Y5982625D01*
G01X3273346Y5976275D01*
G01X3270298Y5967131D01*
G01X3270298Y5951637D01*
G01X3273346Y5942239D01*
G01X3276394Y5936143D01*
G01X3282744Y5929793D01*
G01X3288840Y5926745D01*
G01X3301286Y5926745D01*
G01X3307382Y5929793D01*
G01X3313732Y5936143D01*
G01X3316780Y5942239D01*
G01X3377740Y5991769D02*
G01X3347006Y5948589D01*
G01X3393234Y5948589D01*
G01X3377740Y5991769D02*
G01X3377740Y5926745D01*
G01X1841233Y2036336D02*
G01X1838185Y2042686D01*
G01X1831835Y2048782D01*
G01X1825739Y2051830D01*
G01X1813293Y2051830D01*
G01X1807197Y2048782D01*
G01X1800847Y2042686D01*
G01X1797799Y2036336D01*
G01X1794751Y2027192D01*
G01X1794751Y2011698D01*
G01X1797799Y2002300D01*
G01X1800847Y1996204D01*
G01X1807197Y1989854D01*
G01X1813293Y1986806D01*
G01X1825739Y1986806D01*
G01X1831835Y1989854D01*
G01X1838185Y1996204D01*
G01X1841233Y2002300D01*
G01X1908543Y2042686D02*
G01X1905495Y2048782D01*
G01X1896097Y2051830D01*
G01X1890001Y2051830D01*
G01X1880603Y2048782D01*
G01X1874507Y2039384D01*
G01X1871459Y2024144D01*
G01X1871459Y2008650D01*
G01X1874507Y1996204D01*
G01X1880603Y1989854D01*
G01X1890001Y1986806D01*
G01X1893049Y1986806D01*
G01X1902193Y1989854D01*
G01X1908543Y1996204D01*
G01X1911591Y2005348D01*
G01X1911591Y2008650D01*
G01X1908543Y2017794D01*
G01X1902193Y2024144D01*
G01X1893049Y2027192D01*
G01X1890001Y2027192D01*
G01X1880603Y2024144D01*
G01X1874507Y2017794D01*
G01X1871459Y2008650D01*
G01X1302639Y3537077D02*
G01X1296543Y3534029D01*
G01X1290193Y3527933D01*
G01X1287145Y3521583D01*
G01X1284097Y3512439D01*
G01X1284097Y3496945D01*
G01X1287145Y3487547D01*
G01X1290193Y3481451D01*
G01X1296543Y3475101D01*
G01X1302639Y3472053D01*
G01X1315085Y3472053D01*
G01X1321181Y3475101D01*
G01X1327531Y3481451D01*
G01X1330579Y3487547D01*
G01X1333627Y3496945D01*
G01X1333627Y3512439D01*
G01X1330579Y3521583D01*
G01X1327531Y3527933D01*
G01X1321181Y3534029D01*
G01X1315085Y3537077D01*
G01X1302639Y3537077D01*
G01X1312037Y3484499D02*
G01X1330579Y3465957D01*
G01X1363853Y3524631D02*
G01X1369949Y3527933D01*
G01X1379093Y3537077D01*
G01X1379093Y3472053D01*
G01X4326001Y6316965D02*
G01X4326001Y6251941D01*
G01X4326001Y6316965D02*
G01X4353941Y6316965D01*
G01X4363085Y6313917D01*
G01X4366133Y6310869D01*
G01X4369435Y6304519D01*
G01X4369435Y6298423D01*
G01X4366133Y6292327D01*
G01X4363085Y6289279D01*
G01X4353941Y6285977D01*
G01X4326001Y6285977D01*
G01X4347591Y6285977D02*
G01X4369435Y6251941D01*
G01X4399661Y6304519D02*
G01X4405757Y6307821D01*
G01X4414901Y6316965D01*
G01X4414901Y6251941D01*
G01X4475861Y6316965D02*
G01X4445127Y6273785D01*
G01X4491355Y6273785D01*
G01X4475861Y6316965D02*
G01X4475861Y6251941D01*
G01X649633Y5534442D02*
G01X646585Y5540792D01*
G01X640235Y5546888D01*
G01X634139Y5549936D01*
G01X621693Y5549936D01*
G01X615597Y5546888D01*
G01X609247Y5540792D01*
G01X606199Y5534442D01*
G01X603151Y5525298D01*
G01X603151Y5509804D01*
G01X606199Y5500406D01*
G01X609247Y5494310D01*
G01X615597Y5487960D01*
G01X621693Y5484912D01*
G01X634139Y5484912D01*
G01X640235Y5487960D01*
G01X646585Y5494310D01*
G01X649633Y5500406D01*
G01X682907Y5534442D02*
G01X682907Y5537490D01*
G01X685955Y5543840D01*
G01X689003Y5546888D01*
G01X695099Y5549936D01*
G01X707545Y5549936D01*
G01X713895Y5546888D01*
G01X716943Y5543840D01*
G01X719991Y5537490D01*
G01X719991Y5531394D01*
G01X716943Y5525298D01*
G01X710593Y5515900D01*
G01X679859Y5484912D01*
G01X723039Y5484912D01*
G01X790349Y5540792D02*
G01X787301Y5546888D01*
G01X777903Y5549936D01*
G01X771807Y5549936D01*
G01X762409Y5546888D01*
G01X756313Y5537490D01*
G01X753265Y5522250D01*
G01X753265Y5506756D01*
G01X756313Y5494310D01*
G01X762409Y5487960D01*
G01X771807Y5484912D01*
G01X774855Y5484912D01*
G01X783999Y5487960D01*
G01X790349Y5494310D01*
G01X793397Y5503454D01*
G01X793397Y5506756D01*
G01X790349Y5515900D01*
G01X783999Y5522250D01*
G01X774855Y5525298D01*
G01X771807Y5525298D01*
G01X762409Y5522250D01*
G01X756313Y5515900D01*
G01X753265Y5506756D01*
G01X5278882Y2105533D02*
G01X5272532Y2111629D01*
G01X5263388Y2114677D01*
G01X5250942Y2114677D01*
G01X5241544Y2111629D01*
G01X5235448Y2105533D01*
G01X5235448Y2099183D01*
G01X5238496Y2093087D01*
G01X5241544Y2090039D01*
G01X5247894Y2086991D01*
G01X5266436Y2080641D01*
G01X5272532Y2077593D01*
G01X5275580Y2074545D01*
G01X5278882Y2068195D01*
G01X5278882Y2059051D01*
G01X5272532Y2052701D01*
G01X5263388Y2049653D01*
G01X5250942Y2049653D01*
G01X5241544Y2052701D01*
G01X5235448Y2059051D01*
G01X5309108Y2114677D02*
G01X5324348Y2049653D01*
G01X5339842Y2114677D02*
G01X5324348Y2049653D01*
G01X5339842Y2114677D02*
G01X5355336Y2049653D01*
G01X5370830Y2114677D02*
G01X5355336Y2049653D01*
G01X5438140Y2114677D02*
G01X5407152Y2114677D01*
G01X5404104Y2086991D01*
G01X5407152Y2090039D01*
G01X5416296Y2093087D01*
G01X5425694Y2093087D01*
G01X5435092Y2090039D01*
G01X5441188Y2083689D01*
G01X5444236Y2074545D01*
G01X5444236Y2068195D01*
G01X5441188Y2059051D01*
G01X5435092Y2052701D01*
G01X5425694Y2049653D01*
G01X5416296Y2049653D01*
G01X5407152Y2052701D01*
G01X5404104Y2056003D01*
G01X5401056Y2062099D01*
G01X4107800Y5197810D02*
G01X4107800Y5132786D01*
G01X4107800Y5197810D02*
G01X4135740Y5197810D01*
G01X4144884Y5194762D01*
G01X4147932Y5191714D01*
G01X4151234Y5185364D01*
G01X4151234Y5179268D01*
G01X4147932Y5173172D01*
G01X4144884Y5170124D01*
G01X4135740Y5166822D01*
G01X4107800Y5166822D01*
G01X4129390Y5166822D02*
G01X4151234Y5132786D01*
G01X4224640Y5197810D02*
G01X4193652Y5132786D01*
G01X4181460Y5197810D02*
G01X4224640Y5197810D01*
G01X660756Y2803094D02*
G01X660756Y2753564D01*
G01X657708Y2744420D01*
G01X654660Y2741118D01*
G01X648310Y2738070D01*
G01X642214Y2738070D01*
G01X635864Y2741118D01*
G01X632816Y2744420D01*
G01X629768Y2753564D01*
G01X629768Y2759914D01*
G01X721716Y2803094D02*
G01X690982Y2759914D01*
G01X737210Y2759914D01*
G01X721716Y2803094D02*
G01X721716Y2738070D01*
G01X2311583Y3522142D02*
G01X2308535Y3528492D01*
G01X2302185Y3534588D01*
G01X2296089Y3537636D01*
G01X2283643Y3537636D01*
G01X2277547Y3534588D01*
G01X2271197Y3528492D01*
G01X2268149Y3522142D01*
G01X2265101Y3512998D01*
G01X2265101Y3497504D01*
G01X2268149Y3488106D01*
G01X2271197Y3482010D01*
G01X2277547Y3475660D01*
G01X2283643Y3472612D01*
G01X2296089Y3472612D01*
G01X2302185Y3475660D01*
G01X2308535Y3482010D01*
G01X2311583Y3488106D01*
G01X2341809Y3525190D02*
G01X2347905Y3528492D01*
G01X2357049Y3537636D01*
G01X2357049Y3472612D01*
G01X2393371Y3537636D02*
G01X2427407Y3537636D01*
G01X2408865Y3512998D01*
G01X2418009Y3512998D01*
G01X2424359Y3509950D01*
G01X2427407Y3506648D01*
G01X2430455Y3497504D01*
G01X2430455Y3491154D01*
G01X2427407Y3482010D01*
G01X2421311Y3475660D01*
G01X2411913Y3472612D01*
G01X2402515Y3472612D01*
G01X2393371Y3475660D01*
G01X2390323Y3478962D01*
G01X2387275Y3485058D01*
G01X1320612Y2453869D02*
G01X1320612Y2388845D01*
G01X1320612Y2453869D02*
G01X1342202Y2453869D01*
G01X1351600Y2450821D01*
G01X1357696Y2444725D01*
G01X1360744Y2438375D01*
G01X1364046Y2429231D01*
G01X1364046Y2413737D01*
G01X1360744Y2404339D01*
G01X1357696Y2398243D01*
G01X1351600Y2391893D01*
G01X1342202Y2388845D01*
G01X1320612Y2388845D01*
G01X1394272Y2441423D02*
G01X1400368Y2444725D01*
G01X1409512Y2453869D01*
G01X1409512Y2388845D01*
G01X3112973Y2473630D02*
G01X3109925Y2479980D01*
G01X3103575Y2486076D01*
G01X3097479Y2489124D01*
G01X3085033Y2489124D01*
G01X3078937Y2486076D01*
G01X3072587Y2479980D01*
G01X3069539Y2473630D01*
G01X3066491Y2464486D01*
G01X3066491Y2448992D01*
G01X3069539Y2439594D01*
G01X3072587Y2433498D01*
G01X3078937Y2427148D01*
G01X3085033Y2424100D01*
G01X3097479Y2424100D01*
G01X3103575Y2427148D01*
G01X3109925Y2433498D01*
G01X3112973Y2439594D01*
G01X3143199Y2476678D02*
G01X3149295Y2479980D01*
G01X3158439Y2489124D01*
G01X3158439Y2424100D01*
G01X3225749Y2479980D02*
G01X3222701Y2486076D01*
G01X3213303Y2489124D01*
G01X3207207Y2489124D01*
G01X3197809Y2486076D01*
G01X3191713Y2476678D01*
G01X3188665Y2461438D01*
G01X3188665Y2445944D01*
G01X3191713Y2433498D01*
G01X3197809Y2427148D01*
G01X3207207Y2424100D01*
G01X3210255Y2424100D01*
G01X3219399Y2427148D01*
G01X3225749Y2433498D01*
G01X3228797Y2442642D01*
G01X3228797Y2445944D01*
G01X3225749Y2455088D01*
G01X3219399Y2461438D01*
G01X3210255Y2464486D01*
G01X3207207Y2464486D01*
G01X3197809Y2461438D01*
G01X3191713Y2455088D01*
G01X3188665Y2445944D01*
G01X660756Y665740D02*
G01X660756Y616210D01*
G01X657708Y607066D01*
G01X654660Y603764D01*
G01X648310Y600716D01*
G01X642214Y600716D01*
G01X635864Y603764D01*
G01X632816Y607066D01*
G01X629768Y616210D01*
G01X629768Y622560D01*
G01X728066Y665740D02*
G01X697078Y665740D01*
G01X694030Y638054D01*
G01X697078Y641102D01*
G01X706222Y644150D01*
G01X715620Y644150D01*
G01X725018Y641102D01*
G01X731114Y634752D01*
G01X734162Y625608D01*
G01X734162Y619258D01*
G01X731114Y610114D01*
G01X725018Y603764D01*
G01X715620Y600716D01*
G01X706222Y600716D01*
G01X697078Y603764D01*
G01X694030Y607066D01*
G01X690982Y613162D01*
G01X3280245Y2905986D02*
G01X3280245Y2840962D01*
G01X3280245Y2905986D02*
G01X3308185Y2905986D01*
G01X3317329Y2902938D01*
G01X3320377Y2899890D01*
G01X3323679Y2893540D01*
G01X3323679Y2887444D01*
G01X3320377Y2881348D01*
G01X3317329Y2878300D01*
G01X3308185Y2874998D01*
G01X3280245Y2874998D01*
G01X3301835Y2874998D02*
G01X3323679Y2840962D01*
G01X3356953Y2890492D02*
G01X3356953Y2893540D01*
G01X3360001Y2899890D01*
G01X3363049Y2902938D01*
G01X3369145Y2905986D01*
G01X3381591Y2905986D01*
G01X3387941Y2902938D01*
G01X3390989Y2899890D01*
G01X3394037Y2893540D01*
G01X3394037Y2887444D01*
G01X3390989Y2881348D01*
G01X3384639Y2871950D01*
G01X3353905Y2840962D01*
G01X3397085Y2840962D01*
G01X3458045Y2905986D02*
G01X3427311Y2862806D01*
G01X3473539Y2862806D01*
G01X3458045Y2905986D02*
G01X3458045Y2840962D01*
G01X2172261Y3180664D02*
G01X2172261Y3115640D01*
G01X2172261Y3180664D02*
G01X2200201Y3180664D01*
G01X2209345Y3177616D01*
G01X2212393Y3174568D01*
G01X2215695Y3168218D01*
G01X2215695Y3162122D01*
G01X2212393Y3156026D01*
G01X2209345Y3152978D01*
G01X2200201Y3149676D01*
G01X2172261Y3149676D01*
G01X2193851Y3149676D02*
G01X2215695Y3115640D01*
G01X2248969Y3165170D02*
G01X2248969Y3168218D01*
G01X2252017Y3174568D01*
G01X2255065Y3177616D01*
G01X2261161Y3180664D01*
G01X2273607Y3180664D01*
G01X2279957Y3177616D01*
G01X2283005Y3174568D01*
G01X2286053Y3168218D01*
G01X2286053Y3162122D01*
G01X2283005Y3156026D01*
G01X2276655Y3146628D01*
G01X2245921Y3115640D01*
G01X2289101Y3115640D01*
G01X2334567Y3180664D02*
G01X2325423Y3177616D01*
G01X2322375Y3171520D01*
G01X2322375Y3165170D01*
G01X2325423Y3159074D01*
G01X2331519Y3156026D01*
G01X2343965Y3152978D01*
G01X2353363Y3149676D01*
G01X2359459Y3143580D01*
G01X2362507Y3137484D01*
G01X2362507Y3128086D01*
G01X2359459Y3121990D01*
G01X2356411Y3118688D01*
G01X2347013Y3115640D01*
G01X2334567Y3115640D01*
G01X2325423Y3118688D01*
G01X2322375Y3121990D01*
G01X2319327Y3128086D01*
G01X2319327Y3137484D01*
G01X2322375Y3143580D01*
G01X2328471Y3149676D01*
G01X2337869Y3152978D01*
G01X2350061Y3156026D01*
G01X2356411Y3159074D01*
G01X2359459Y3165170D01*
G01X2359459Y3171520D01*
G01X2356411Y3177616D01*
G01X2347013Y3180664D01*
G01X2334567Y3180664D01*
G01X2198047Y3024911D02*
G01X2198047Y2959887D01*
G01X2198047Y3024911D02*
G01X2238179Y3024911D01*
G01X2198047Y2993923D02*
G01X2222939Y2993923D01*
G01X2274501Y3024911D02*
G01X2308537Y3024911D01*
G01X2289995Y3000273D01*
G01X2299139Y3000273D01*
G01X2305489Y2997225D01*
G01X2308537Y2993923D01*
G01X2311585Y2984779D01*
G01X2311585Y2978429D01*
G01X2308537Y2969285D01*
G01X2302441Y2962935D01*
G01X2293043Y2959887D01*
G01X2283645Y2959887D01*
G01X2274501Y2962935D01*
G01X2271453Y2966237D01*
G01X2268405Y2972333D01*
G01X4145516Y7295185D02*
G01X4145516Y7230161D01*
G01X4145516Y7295185D02*
G01X4173456Y7295185D01*
G01X4182600Y7292137D01*
G01X4185648Y7289089D01*
G01X4188950Y7282739D01*
G01X4188950Y7276643D01*
G01X4185648Y7270547D01*
G01X4182600Y7267499D01*
G01X4173456Y7264197D01*
G01X4145516Y7264197D01*
G01X4167106Y7264197D02*
G01X4188950Y7230161D01*
G01X4225272Y7295185D02*
G01X4259308Y7295185D01*
G01X4240766Y7270547D01*
G01X4249910Y7270547D01*
G01X4256260Y7267499D01*
G01X4259308Y7264197D01*
G01X4262356Y7255053D01*
G01X4262356Y7248703D01*
G01X4259308Y7239559D01*
G01X4253212Y7233209D01*
G01X4243814Y7230161D01*
G01X4234416Y7230161D01*
G01X4225272Y7233209D01*
G01X4222224Y7236511D01*
G01X4219176Y7242607D01*
G54D13*
G01X641345Y3378017D02*
G01X674111Y3399861D01*
G01X641345Y3399861D02*
G01X674111Y3378017D01*
G01X641345Y3417387D02*
G01X674111Y3439231D01*
G01X641345Y3439231D02*
G01X674111Y3417387D01*
G01X648914Y4989444D02*
G01X681680Y4976998D01*
G01X648914Y4989444D02*
G01X681680Y5001890D01*
G01X670758Y4981570D02*
G01X670758Y4997318D01*
G54D12*
G01X358958Y3352883D02*
G01X358958Y3303353D01*
G01X355910Y3294209D01*
G01X352862Y3290907D01*
G01X346512Y3287859D01*
G01X340416Y3287859D01*
G01X334066Y3290907D01*
G01X331018Y3294209D01*
G01X327970Y3303353D01*
G01X327970Y3309703D01*
G01X392232Y3337389D02*
G01X392232Y3340437D01*
G01X395280Y3346787D01*
G01X398328Y3349835D01*
G01X404424Y3352883D01*
G01X416870Y3352883D01*
G01X423220Y3349835D01*
G01X426268Y3346787D01*
G01X429316Y3340437D01*
G01X429316Y3334341D01*
G01X426268Y3328245D01*
G01X419918Y3318847D01*
G01X389184Y3287859D01*
G01X432364Y3287859D01*
G01X1850136Y4501213D02*
G01X1850136Y4436189D01*
G01X1850136Y4501213D02*
G01X1871726Y4501213D01*
G01X1881124Y4498165D01*
G01X1887220Y4492069D01*
G01X1890268Y4485719D01*
G01X1893570Y4476575D01*
G01X1893570Y4461081D01*
G01X1890268Y4451683D01*
G01X1887220Y4445587D01*
G01X1881124Y4439237D01*
G01X1871726Y4436189D01*
G01X1850136Y4436189D01*
G01X1960880Y4492069D02*
G01X1957832Y4498165D01*
G01X1948434Y4501213D01*
G01X1942338Y4501213D01*
G01X1932940Y4498165D01*
G01X1926844Y4488767D01*
G01X1923796Y4473527D01*
G01X1923796Y4458033D01*
G01X1926844Y4445587D01*
G01X1932940Y4439237D01*
G01X1942338Y4436189D01*
G01X1945386Y4436189D01*
G01X1954530Y4439237D01*
G01X1960880Y4445587D01*
G01X1963928Y4454731D01*
G01X1963928Y4458033D01*
G01X1960880Y4467177D01*
G01X1954530Y4473527D01*
G01X1945386Y4476575D01*
G01X1942338Y4476575D01*
G01X1932940Y4473527D01*
G01X1926844Y4467177D01*
G01X1923796Y4458033D01*
G01X1975434Y1099147D02*
G01X1975434Y1034123D01*
G01X1975434Y1099147D02*
G01X2003374Y1099147D01*
G01X2012518Y1096099D01*
G01X2015566Y1093051D01*
G01X2018868Y1086701D01*
G01X2018868Y1080605D01*
G01X2015566Y1074509D01*
G01X2012518Y1071461D01*
G01X2003374Y1068159D01*
G01X1975434Y1068159D01*
G01X1997024Y1068159D02*
G01X2018868Y1034123D01*
G01X2049094Y1086701D02*
G01X2055190Y1090003D01*
G01X2064334Y1099147D01*
G01X2064334Y1034123D01*
G01X2134692Y1077557D02*
G01X2131644Y1068159D01*
G01X2125294Y1062063D01*
G01X2116150Y1059015D01*
G01X2113102Y1059015D01*
G01X2103704Y1062063D01*
G01X2097608Y1068159D01*
G01X2094560Y1077557D01*
G01X2094560Y1080605D01*
G01X2097608Y1090003D01*
G01X2103704Y1096099D01*
G01X2113102Y1099147D01*
G01X2116150Y1099147D01*
G01X2125294Y1096099D01*
G01X2131644Y1090003D01*
G01X2134692Y1077557D01*
G01X2134692Y1062063D01*
G01X2131644Y1046569D01*
G01X2125294Y1037171D01*
G01X2116150Y1034123D01*
G01X2109800Y1034123D01*
G01X2100656Y1037171D01*
G01X2097608Y1043521D01*
G01X3147771Y3675024D02*
G01X3144723Y3681374D01*
G01X3138373Y3687470D01*
G01X3132277Y3690518D01*
G01X3119831Y3690518D01*
G01X3113735Y3687470D01*
G01X3107385Y3681374D01*
G01X3104337Y3675024D01*
G01X3101289Y3665880D01*
G01X3101289Y3650386D01*
G01X3104337Y3640988D01*
G01X3107385Y3634892D01*
G01X3113735Y3628542D01*
G01X3119831Y3625494D01*
G01X3132277Y3625494D01*
G01X3138373Y3628542D01*
G01X3144723Y3634892D01*
G01X3147771Y3640988D01*
G01X3181045Y3675024D02*
G01X3181045Y3678072D01*
G01X3184093Y3684422D01*
G01X3187141Y3687470D01*
G01X3193237Y3690518D01*
G01X3205683Y3690518D01*
G01X3212033Y3687470D01*
G01X3215081Y3684422D01*
G01X3218129Y3678072D01*
G01X3218129Y3671976D01*
G01X3215081Y3665880D01*
G01X3208731Y3656482D01*
G01X3177997Y3625494D01*
G01X3221177Y3625494D01*
G01X1223325Y2199335D02*
G01X1220277Y2205685D01*
G01X1213927Y2211781D01*
G01X1207831Y2214829D01*
G01X1195385Y2214829D01*
G01X1189289Y2211781D01*
G01X1182939Y2205685D01*
G01X1179891Y2199335D01*
G01X1176843Y2190191D01*
G01X1176843Y2174697D01*
G01X1179891Y2165299D01*
G01X1182939Y2159203D01*
G01X1189289Y2152853D01*
G01X1195385Y2149805D01*
G01X1207831Y2149805D01*
G01X1213927Y2152853D01*
G01X1220277Y2159203D01*
G01X1223325Y2165299D01*
G01X1293683Y2193239D02*
G01X1290635Y2183841D01*
G01X1284285Y2177745D01*
G01X1275141Y2174697D01*
G01X1272093Y2174697D01*
G01X1262695Y2177745D01*
G01X1256599Y2183841D01*
G01X1253551Y2193239D01*
G01X1253551Y2196287D01*
G01X1256599Y2205685D01*
G01X1262695Y2211781D01*
G01X1272093Y2214829D01*
G01X1275141Y2214829D01*
G01X1284285Y2211781D01*
G01X1290635Y2205685D01*
G01X1293683Y2193239D01*
G01X1293683Y2177745D01*
G01X1290635Y2162251D01*
G01X1284285Y2152853D01*
G01X1275141Y2149805D01*
G01X1268791Y2149805D01*
G01X1259647Y2152853D01*
G01X1256599Y2159203D01*
G01X2392807Y908675D02*
G01X2392807Y859145D01*
G01X2389759Y850001D01*
G01X2386711Y846699D01*
G01X2380361Y843651D01*
G01X2374265Y843651D01*
G01X2367915Y846699D01*
G01X2364867Y850001D01*
G01X2361819Y859145D01*
G01X2361819Y865495D01*
G01X2423033Y896229D02*
G01X2429129Y899531D01*
G01X2438273Y908675D01*
G01X2438273Y843651D01*
G01X1211250Y4264030D02*
G01X1208202Y4270380D01*
G01X1201852Y4276476D01*
G01X1195756Y4279524D01*
G01X1183310Y4279524D01*
G01X1177214Y4276476D01*
G01X1170864Y4270380D01*
G01X1167816Y4264030D01*
G01X1164768Y4254886D01*
G01X1164768Y4239392D01*
G01X1167816Y4229994D01*
G01X1170864Y4223898D01*
G01X1177214Y4217548D01*
G01X1183310Y4214500D01*
G01X1195756Y4214500D01*
G01X1201852Y4217548D01*
G01X1208202Y4223898D01*
G01X1211250Y4229994D01*
G01X1244524Y4264030D02*
G01X1244524Y4267078D01*
G01X1247572Y4273428D01*
G01X1250620Y4276476D01*
G01X1256716Y4279524D01*
G01X1269162Y4279524D01*
G01X1275512Y4276476D01*
G01X1278560Y4273428D01*
G01X1281608Y4267078D01*
G01X1281608Y4260982D01*
G01X1278560Y4254886D01*
G01X1272210Y4245488D01*
G01X1241476Y4214500D01*
G01X1284656Y4214500D01*
G01X1330122Y4279524D02*
G01X1320978Y4276476D01*
G01X1317930Y4270380D01*
G01X1317930Y4264030D01*
G01X1320978Y4257934D01*
G01X1327074Y4254886D01*
G01X1339520Y4251838D01*
G01X1348918Y4248536D01*
G01X1355014Y4242440D01*
G01X1358062Y4236344D01*
G01X1358062Y4226946D01*
G01X1355014Y4220850D01*
G01X1351966Y4217548D01*
G01X1342568Y4214500D01*
G01X1330122Y4214500D01*
G01X1320978Y4217548D01*
G01X1317930Y4220850D01*
G01X1314882Y4226946D01*
G01X1314882Y4236344D01*
G01X1317930Y4242440D01*
G01X1324026Y4248536D01*
G01X1333424Y4251838D01*
G01X1345616Y4254886D01*
G01X1351966Y4257934D01*
G01X1355014Y4264030D01*
G01X1355014Y4270380D01*
G01X1351966Y4276476D01*
G01X1342568Y4279524D01*
G01X1330122Y4279524D01*
G01X1893819Y4826620D02*
G01X1890771Y4832970D01*
G01X1884421Y4839066D01*
G01X1878325Y4842114D01*
G01X1865879Y4842114D01*
G01X1859783Y4839066D01*
G01X1853433Y4832970D01*
G01X1850385Y4826620D01*
G01X1847337Y4817476D01*
G01X1847337Y4801982D01*
G01X1850385Y4792584D01*
G01X1853433Y4786488D01*
G01X1859783Y4780138D01*
G01X1865879Y4777090D01*
G01X1878325Y4777090D01*
G01X1884421Y4780138D01*
G01X1890771Y4786488D01*
G01X1893819Y4792584D01*
G01X1939285Y4842114D02*
G01X1930141Y4839066D01*
G01X1927093Y4832970D01*
G01X1927093Y4826620D01*
G01X1930141Y4820524D01*
G01X1936237Y4817476D01*
G01X1948683Y4814428D01*
G01X1958081Y4811126D01*
G01X1964177Y4805030D01*
G01X1967225Y4798934D01*
G01X1967225Y4789536D01*
G01X1964177Y4783440D01*
G01X1961129Y4780138D01*
G01X1951731Y4777090D01*
G01X1939285Y4777090D01*
G01X1930141Y4780138D01*
G01X1927093Y4783440D01*
G01X1924045Y4789536D01*
G01X1924045Y4798934D01*
G01X1927093Y4805030D01*
G01X1933189Y4811126D01*
G01X1942587Y4814428D01*
G01X1954779Y4817476D01*
G01X1961129Y4820524D01*
G01X1964177Y4826620D01*
G01X1964177Y4832970D01*
G01X1961129Y4839066D01*
G01X1951731Y4842114D01*
G01X1939285Y4842114D01*
G01X3414029Y963005D02*
G01X3414029Y897981D01*
G01X3414029Y963005D02*
G01X3435619Y963005D01*
G01X3445017Y959957D01*
G01X3451113Y953861D01*
G01X3454161Y947511D01*
G01X3457463Y938367D01*
G01X3457463Y922873D01*
G01X3454161Y913475D01*
G01X3451113Y907379D01*
G01X3445017Y901029D01*
G01X3435619Y897981D01*
G01X3414029Y897981D01*
G01X3518423Y963005D02*
G01X3487689Y919825D01*
G01X3533917Y919825D01*
G01X3518423Y963005D02*
G01X3518423Y897981D01*
G01X3825885Y3861206D02*
G01X3822837Y3867556D01*
G01X3816487Y3873652D01*
G01X3810391Y3876700D01*
G01X3797945Y3876700D01*
G01X3791849Y3873652D01*
G01X3785499Y3867556D01*
G01X3782451Y3861206D01*
G01X3779403Y3852062D01*
G01X3779403Y3836568D01*
G01X3782451Y3827170D01*
G01X3785499Y3821074D01*
G01X3791849Y3814724D01*
G01X3797945Y3811676D01*
G01X3810391Y3811676D01*
G01X3816487Y3814724D01*
G01X3822837Y3821074D01*
G01X3825885Y3827170D01*
G01X3862207Y3876700D02*
G01X3896243Y3876700D01*
G01X3877701Y3852062D01*
G01X3886845Y3852062D01*
G01X3893195Y3849014D01*
G01X3896243Y3845712D01*
G01X3899291Y3836568D01*
G01X3899291Y3830218D01*
G01X3896243Y3821074D01*
G01X3890147Y3814724D01*
G01X3880749Y3811676D01*
G01X3871351Y3811676D01*
G01X3862207Y3814724D01*
G01X3859159Y3818026D01*
G01X3856111Y3824122D01*
G01X3966601Y3867556D02*
G01X3963553Y3873652D01*
G01X3954155Y3876700D01*
G01X3948059Y3876700D01*
G01X3938661Y3873652D01*
G01X3932565Y3864254D01*
G01X3929517Y3849014D01*
G01X3929517Y3833520D01*
G01X3932565Y3821074D01*
G01X3938661Y3814724D01*
G01X3948059Y3811676D01*
G01X3951107Y3811676D01*
G01X3960251Y3814724D01*
G01X3966601Y3821074D01*
G01X3969649Y3830218D01*
G01X3969649Y3833520D01*
G01X3966601Y3842664D01*
G01X3960251Y3849014D01*
G01X3951107Y3852062D01*
G01X3948059Y3852062D01*
G01X3938661Y3849014D01*
G01X3932565Y3842664D01*
G01X3929517Y3833520D01*
G01X4322991Y6535384D02*
G01X4322991Y6470360D01*
G01X4322991Y6535384D02*
G01X4350931Y6535384D01*
G01X4360075Y6532336D01*
G01X4363123Y6529288D01*
G01X4366425Y6522938D01*
G01X4366425Y6516842D01*
G01X4363123Y6510746D01*
G01X4360075Y6507698D01*
G01X4350931Y6504396D01*
G01X4322991Y6504396D01*
G01X4344581Y6504396D02*
G01X4366425Y6470360D01*
G01X4396651Y6522938D02*
G01X4402747Y6526240D01*
G01X4411891Y6535384D01*
G01X4411891Y6470360D01*
G01X4479201Y6535384D02*
G01X4448213Y6535384D01*
G01X4445165Y6507698D01*
G01X4448213Y6510746D01*
G01X4457357Y6513794D01*
G01X4466755Y6513794D01*
G01X4476153Y6510746D01*
G01X4482249Y6504396D01*
G01X4485297Y6495252D01*
G01X4485297Y6488902D01*
G01X4482249Y6479758D01*
G01X4476153Y6473408D01*
G01X4466755Y6470360D01*
G01X4457357Y6470360D01*
G01X4448213Y6473408D01*
G01X4445165Y6476710D01*
G01X4442117Y6482806D01*
G01X2220707Y875739D02*
G01X2220707Y810715D01*
G01X2220707Y875739D02*
G01X2248647Y875739D01*
G01X2257791Y872691D01*
G01X2260839Y869643D01*
G01X2264141Y863293D01*
G01X2264141Y857197D01*
G01X2260839Y851101D01*
G01X2257791Y848053D01*
G01X2248647Y844751D01*
G01X2220707Y844751D01*
G01X2242297Y844751D02*
G01X2264141Y810715D01*
G01X2294367Y863293D02*
G01X2300463Y866595D01*
G01X2309607Y875739D01*
G01X2309607Y810715D01*
G01X2383013Y875739D02*
G01X2352025Y810715D01*
G01X2339833Y875739D02*
G01X2383013Y875739D01*
G01X3074256Y4476303D02*
G01X3071208Y4482653D01*
G01X3064858Y4488749D01*
G01X3058762Y4491797D01*
G01X3046316Y4491797D01*
G01X3040220Y4488749D01*
G01X3033870Y4482653D01*
G01X3030822Y4476303D01*
G01X3027774Y4467159D01*
G01X3027774Y4451665D01*
G01X3030822Y4442267D01*
G01X3033870Y4436171D01*
G01X3040220Y4429821D01*
G01X3046316Y4426773D01*
G01X3058762Y4426773D01*
G01X3064858Y4429821D01*
G01X3071208Y4436171D01*
G01X3074256Y4442267D01*
G01X3107530Y4476303D02*
G01X3107530Y4479351D01*
G01X3110578Y4485701D01*
G01X3113626Y4488749D01*
G01X3119722Y4491797D01*
G01X3132168Y4491797D01*
G01X3138518Y4488749D01*
G01X3141566Y4485701D01*
G01X3144614Y4479351D01*
G01X3144614Y4473255D01*
G01X3141566Y4467159D01*
G01X3135216Y4457761D01*
G01X3104482Y4426773D01*
G01X3147662Y4426773D01*
G01X3180936Y4476303D02*
G01X3180936Y4479351D01*
G01X3183984Y4485701D01*
G01X3187032Y4488749D01*
G01X3193128Y4491797D01*
G01X3205574Y4491797D01*
G01X3211924Y4488749D01*
G01X3214972Y4485701D01*
G01X3218020Y4479351D01*
G01X3218020Y4473255D01*
G01X3214972Y4467159D01*
G01X3208622Y4457761D01*
G01X3177888Y4426773D01*
G01X3221068Y4426773D01*
G01X2158710Y2639868D02*
G01X2158710Y2574844D01*
G01X2158710Y2639868D02*
G01X2186650Y2639868D01*
G01X2195794Y2636820D01*
G01X2198842Y2633772D01*
G01X2202144Y2627422D01*
G01X2202144Y2621326D01*
G01X2198842Y2615230D01*
G01X2195794Y2612182D01*
G01X2186650Y2608880D01*
G01X2158710Y2608880D01*
G01X2180300Y2608880D02*
G01X2202144Y2574844D01*
G01X2232370Y2627422D02*
G01X2238466Y2630724D01*
G01X2247610Y2639868D01*
G01X2247610Y2574844D01*
G01X2314920Y2630724D02*
G01X2311872Y2636820D01*
G01X2302474Y2639868D01*
G01X2296378Y2639868D01*
G01X2286980Y2636820D01*
G01X2280884Y2627422D01*
G01X2277836Y2612182D01*
G01X2277836Y2596688D01*
G01X2280884Y2584242D01*
G01X2286980Y2577892D01*
G01X2296378Y2574844D01*
G01X2299426Y2574844D01*
G01X2308570Y2577892D01*
G01X2314920Y2584242D01*
G01X2317968Y2593386D01*
G01X2317968Y2596688D01*
G01X2314920Y2605832D01*
G01X2308570Y2612182D01*
G01X2299426Y2615230D01*
G01X2296378Y2615230D01*
G01X2286980Y2612182D01*
G01X2280884Y2605832D01*
G01X2277836Y2596688D01*
G01X1128194Y6086490D02*
G01X1128194Y6021466D01*
G01X1128194Y6021466D02*
G01X1165278Y6021466D01*
G01X1201600Y6086490D02*
G01X1235636Y6086490D01*
G01X1217094Y6061852D01*
G01X1226238Y6061852D01*
G01X1232588Y6058804D01*
G01X1235636Y6055502D01*
G01X1238684Y6046358D01*
G01X1238684Y6040008D01*
G01X1235636Y6030864D01*
G01X1229540Y6024514D01*
G01X1220142Y6021466D01*
G01X1210744Y6021466D01*
G01X1201600Y6024514D01*
G01X1198552Y6027816D01*
G01X1195504Y6033912D01*
G01X4021366Y5853064D02*
G01X4021366Y5788040D01*
G01X4021366Y5853064D02*
G01X4049306Y5853064D01*
G01X4058450Y5850016D01*
G01X4061498Y5846968D01*
G01X4064800Y5840618D01*
G01X4064800Y5834522D01*
G01X4061498Y5828426D01*
G01X4058450Y5825378D01*
G01X4049306Y5822076D01*
G01X4021366Y5822076D01*
G01X4042956Y5822076D02*
G01X4064800Y5788040D01*
G01X4098074Y5837570D02*
G01X4098074Y5840618D01*
G01X4101122Y5846968D01*
G01X4104170Y5850016D01*
G01X4110266Y5853064D01*
G01X4122712Y5853064D01*
G01X4129062Y5850016D01*
G01X4132110Y5846968D01*
G01X4135158Y5840618D01*
G01X4135158Y5834522D01*
G01X4132110Y5828426D01*
G01X4125760Y5819028D01*
G01X4095026Y5788040D01*
G01X4138206Y5788040D01*
G01X2113036Y3732428D02*
G01X2113036Y3667404D01*
G01X2113036Y3732428D02*
G01X2134626Y3732428D01*
G01X2144024Y3729380D01*
G01X2150120Y3723284D01*
G01X2153168Y3716934D01*
G01X2156470Y3707790D01*
G01X2156470Y3692296D01*
G01X2153168Y3682898D01*
G01X2150120Y3676802D01*
G01X2144024Y3670452D01*
G01X2134626Y3667404D01*
G01X2113036Y3667404D01*
G01X2229876Y3732428D02*
G01X2198888Y3667404D01*
G01X2186696Y3732428D02*
G01X2229876Y3732428D01*
G01X2669936Y2642199D02*
G01X2666888Y2648549D01*
G01X2660538Y2654645D01*
G01X2654442Y2657693D01*
G01X2641996Y2657693D01*
G01X2635900Y2654645D01*
G01X2629550Y2648549D01*
G01X2626502Y2642199D01*
G01X2623454Y2633055D01*
G01X2623454Y2617561D01*
G01X2626502Y2608163D01*
G01X2629550Y2602067D01*
G01X2635900Y2595717D01*
G01X2641996Y2592669D01*
G01X2654442Y2592669D01*
G01X2660538Y2595717D01*
G01X2666888Y2602067D01*
G01X2669936Y2608163D01*
G01X2700162Y2645247D02*
G01X2706258Y2648549D01*
G01X2715402Y2657693D01*
G01X2715402Y2592669D01*
G01X2764170Y2657693D02*
G01X2754772Y2654645D01*
G01X2748676Y2645247D01*
G01X2745628Y2630007D01*
G01X2745628Y2620609D01*
G01X2748676Y2605115D01*
G01X2754772Y2595717D01*
G01X2764170Y2592669D01*
G01X2770266Y2592669D01*
G01X2779664Y2595717D01*
G01X2785760Y2605115D01*
G01X2788808Y2620609D01*
G01X2788808Y2630007D01*
G01X2785760Y2645247D01*
G01X2779664Y2654645D01*
G01X2770266Y2657693D01*
G01X2764170Y2657693D01*
G01X2136028Y2586284D02*
G01X2132980Y2592634D01*
G01X2126630Y2598730D01*
G01X2120534Y2601778D01*
G01X2108088Y2601778D01*
G01X2101992Y2598730D01*
G01X2095642Y2592634D01*
G01X2092594Y2586284D01*
G01X2089546Y2577140D01*
G01X2089546Y2561646D01*
G01X2092594Y2552248D01*
G01X2095642Y2546152D01*
G01X2101992Y2539802D01*
G01X2108088Y2536754D01*
G01X2120534Y2536754D01*
G01X2126630Y2539802D01*
G01X2132980Y2546152D01*
G01X2136028Y2552248D01*
G01X2166254Y2589332D02*
G01X2172350Y2592634D01*
G01X2181494Y2601778D01*
G01X2181494Y2536754D01*
G01X2248804Y2601778D02*
G01X2217816Y2601778D01*
G01X2214768Y2574092D01*
G01X2217816Y2577140D01*
G01X2226960Y2580188D01*
G01X2236358Y2580188D01*
G01X2245756Y2577140D01*
G01X2251852Y2570790D01*
G01X2254900Y2561646D01*
G01X2254900Y2555296D01*
G01X2251852Y2546152D01*
G01X2245756Y2539802D01*
G01X2236358Y2536754D01*
G01X2226960Y2536754D01*
G01X2217816Y2539802D01*
G01X2214768Y2543104D01*
G01X2211720Y2549200D01*
G01X1847489Y5070394D02*
G01X1847489Y5005370D01*
G01X1847489Y5070394D02*
G01X1875429Y5070394D01*
G01X1884573Y5067346D01*
G01X1887621Y5064298D01*
G01X1890923Y5057948D01*
G01X1890923Y5051852D01*
G01X1887621Y5045756D01*
G01X1884573Y5042708D01*
G01X1875429Y5039406D01*
G01X1847489Y5039406D01*
G01X1869079Y5039406D02*
G01X1890923Y5005370D01*
G01X1921149Y5057948D02*
G01X1927245Y5061250D01*
G01X1936389Y5070394D01*
G01X1936389Y5005370D01*
G01X3606201Y7731984D02*
G01X3606201Y7666960D01*
G01X3606201Y7731984D02*
G01X3634141Y7731984D01*
G01X3643285Y7728936D01*
G01X3646333Y7725888D01*
G01X3649635Y7719538D01*
G01X3649635Y7713442D01*
G01X3646333Y7707346D01*
G01X3643285Y7704298D01*
G01X3634141Y7700996D01*
G01X3606201Y7700996D01*
G01X3627791Y7700996D02*
G01X3649635Y7666960D01*
G01X3710595Y7731984D02*
G01X3679861Y7688804D01*
G01X3726089Y7688804D01*
G01X3710595Y7731984D02*
G01X3710595Y7666960D01*
G01X2821948Y5984240D02*
G01X2815598Y5990336D01*
G01X2806454Y5993384D01*
G01X2794008Y5993384D01*
G01X2784610Y5990336D01*
G01X2778514Y5984240D01*
G01X2778514Y5977890D01*
G01X2781562Y5971794D01*
G01X2784610Y5968746D01*
G01X2790960Y5965698D01*
G01X2809502Y5959348D01*
G01X2815598Y5956300D01*
G01X2818646Y5953252D01*
G01X2821948Y5946902D01*
G01X2821948Y5937758D01*
G01X2815598Y5931408D01*
G01X2806454Y5928360D01*
G01X2794008Y5928360D01*
G01X2784610Y5931408D01*
G01X2778514Y5937758D01*
G01X2852174Y5993384D02*
G01X2867414Y5928360D01*
G01X2882908Y5993384D02*
G01X2867414Y5928360D01*
G01X2882908Y5993384D02*
G01X2898402Y5928360D01*
G01X2913896Y5993384D02*
G01X2898402Y5928360D01*
G01X2947170Y5977890D02*
G01X2947170Y5980938D01*
G01X2950218Y5987288D01*
G01X2953266Y5990336D01*
G01X2959362Y5993384D01*
G01X2971808Y5993384D01*
G01X2978158Y5990336D01*
G01X2981206Y5987288D01*
G01X2984254Y5980938D01*
G01X2984254Y5974842D01*
G01X2981206Y5968746D01*
G01X2974856Y5959348D01*
G01X2944122Y5928360D01*
G01X2987302Y5928360D01*
G01X3320826Y2567762D02*
G01X3320826Y2502738D01*
G01X3320826Y2567762D02*
G01X3348766Y2567762D01*
G01X3357910Y2564714D01*
G01X3360958Y2561666D01*
G01X3364260Y2555316D01*
G01X3364260Y2549220D01*
G01X3360958Y2543124D01*
G01X3357910Y2540076D01*
G01X3348766Y2536774D01*
G01X3320826Y2536774D01*
G01X3342416Y2536774D02*
G01X3364260Y2502738D01*
G01X3397534Y2552268D02*
G01X3397534Y2555316D01*
G01X3400582Y2561666D01*
G01X3403630Y2564714D01*
G01X3409726Y2567762D01*
G01X3422172Y2567762D01*
G01X3428522Y2564714D01*
G01X3431570Y2561666D01*
G01X3434618Y2555316D01*
G01X3434618Y2549220D01*
G01X3431570Y2543124D01*
G01X3425220Y2533726D01*
G01X3394486Y2502738D01*
G01X3437666Y2502738D01*
G01X3467892Y2555316D02*
G01X3473988Y2558618D01*
G01X3483132Y2567762D01*
G01X3483132Y2502738D01*
G01X3072473Y1487394D02*
G01X3069425Y1493744D01*
G01X3063075Y1499840D01*
G01X3056979Y1502888D01*
G01X3044533Y1502888D01*
G01X3038437Y1499840D01*
G01X3032087Y1493744D01*
G01X3029039Y1487394D01*
G01X3025991Y1478250D01*
G01X3025991Y1462756D01*
G01X3029039Y1453358D01*
G01X3032087Y1447262D01*
G01X3038437Y1440912D01*
G01X3044533Y1437864D01*
G01X3056979Y1437864D01*
G01X3063075Y1440912D01*
G01X3069425Y1447262D01*
G01X3072473Y1453358D01*
G01X3102699Y1490442D02*
G01X3108795Y1493744D01*
G01X3117939Y1502888D01*
G01X3117939Y1437864D01*
G01X3191345Y1502888D02*
G01X3160357Y1437864D01*
G01X3148165Y1502888D02*
G01X3191345Y1502888D01*
G01X2826532Y4571649D02*
G01X2823484Y4577999D01*
G01X2817134Y4584095D01*
G01X2811038Y4587143D01*
G01X2798592Y4587143D01*
G01X2792496Y4584095D01*
G01X2786146Y4577999D01*
G01X2783098Y4571649D01*
G01X2780050Y4562505D01*
G01X2780050Y4547011D01*
G01X2783098Y4537613D01*
G01X2786146Y4531517D01*
G01X2792496Y4525167D01*
G01X2798592Y4522119D01*
G01X2811038Y4522119D01*
G01X2817134Y4525167D01*
G01X2823484Y4531517D01*
G01X2826532Y4537613D01*
G01X2862854Y4587143D02*
G01X2896890Y4587143D01*
G01X2878348Y4562505D01*
G01X2887492Y4562505D01*
G01X2893842Y4559457D01*
G01X2896890Y4556155D01*
G01X2899938Y4547011D01*
G01X2899938Y4540661D01*
G01X2896890Y4531517D01*
G01X2890794Y4525167D01*
G01X2881396Y4522119D01*
G01X2871998Y4522119D01*
G01X2862854Y4525167D01*
G01X2859806Y4528469D01*
G01X2856758Y4534565D01*
G01X2930164Y4574697D02*
G01X2936260Y4577999D01*
G01X2945404Y4587143D01*
G01X2945404Y4522119D01*
G01X2616385Y4112570D02*
G01X2613337Y4118920D01*
G01X2606987Y4125016D01*
G01X2600891Y4128064D01*
G01X2588445Y4128064D01*
G01X2582349Y4125016D01*
G01X2575999Y4118920D01*
G01X2572951Y4112570D01*
G01X2569903Y4103426D01*
G01X2569903Y4087932D01*
G01X2572951Y4078534D01*
G01X2575999Y4072438D01*
G01X2582349Y4066088D01*
G01X2588445Y4063040D01*
G01X2600891Y4063040D01*
G01X2606987Y4066088D01*
G01X2613337Y4072438D01*
G01X2616385Y4078534D01*
G01X2646611Y4115618D02*
G01X2652707Y4118920D01*
G01X2661851Y4128064D01*
G01X2661851Y4063040D01*
G01X2732209Y4106474D02*
G01X2729161Y4097076D01*
G01X2722811Y4090980D01*
G01X2713667Y4087932D01*
G01X2710619Y4087932D01*
G01X2701221Y4090980D01*
G01X2695125Y4097076D01*
G01X2692077Y4106474D01*
G01X2692077Y4109522D01*
G01X2695125Y4118920D01*
G01X2701221Y4125016D01*
G01X2710619Y4128064D01*
G01X2713667Y4128064D01*
G01X2722811Y4125016D01*
G01X2729161Y4118920D01*
G01X2732209Y4106474D01*
G01X2732209Y4090980D01*
G01X2729161Y4075486D01*
G01X2722811Y4066088D01*
G01X2713667Y4063040D01*
G01X2707317Y4063040D01*
G01X2698173Y4066088D01*
G01X2695125Y4072438D01*
G01X4471436Y3310730D02*
G01X4471436Y3245706D01*
G01X4471436Y3310730D02*
G01X4499376Y3310730D01*
G01X4508520Y3307682D01*
G01X4511568Y3304634D01*
G01X4514870Y3298284D01*
G01X4514870Y3292188D01*
G01X4511568Y3286092D01*
G01X4508520Y3283044D01*
G01X4499376Y3279742D01*
G01X4471436Y3279742D01*
G01X4493026Y3279742D02*
G01X4514870Y3245706D01*
G01X4560336Y3310730D02*
G01X4551192Y3307682D01*
G01X4548144Y3301586D01*
G01X4548144Y3295236D01*
G01X4551192Y3289140D01*
G01X4557288Y3286092D01*
G01X4569734Y3283044D01*
G01X4579132Y3279742D01*
G01X4585228Y3273646D01*
G01X4588276Y3267550D01*
G01X4588276Y3258152D01*
G01X4585228Y3252056D01*
G01X4582180Y3248754D01*
G01X4572782Y3245706D01*
G01X4560336Y3245706D01*
G01X4551192Y3248754D01*
G01X4548144Y3252056D01*
G01X4545096Y3258152D01*
G01X4545096Y3267550D01*
G01X4548144Y3273646D01*
G01X4554240Y3279742D01*
G01X4563638Y3283044D01*
G01X4575830Y3286092D01*
G01X4582180Y3289140D01*
G01X4585228Y3295236D01*
G01X4585228Y3301586D01*
G01X4582180Y3307682D01*
G01X4572782Y3310730D01*
G01X4560336Y3310730D01*
G01X3852441Y4981951D02*
G01X3849393Y4988301D01*
G01X3843043Y4994397D01*
G01X3836947Y4997445D01*
G01X3824501Y4997445D01*
G01X3818405Y4994397D01*
G01X3812055Y4988301D01*
G01X3809007Y4981951D01*
G01X3805959Y4972807D01*
G01X3805959Y4957313D01*
G01X3809007Y4947915D01*
G01X3812055Y4941819D01*
G01X3818405Y4935469D01*
G01X3824501Y4932421D01*
G01X3836947Y4932421D01*
G01X3843043Y4935469D01*
G01X3849393Y4941819D01*
G01X3852441Y4947915D01*
G01X3888763Y4997445D02*
G01X3922799Y4997445D01*
G01X3904257Y4972807D01*
G01X3913401Y4972807D01*
G01X3919751Y4969759D01*
G01X3922799Y4966457D01*
G01X3925847Y4957313D01*
G01X3925847Y4950963D01*
G01X3922799Y4941819D01*
G01X3916703Y4935469D01*
G01X3907305Y4932421D01*
G01X3897907Y4932421D01*
G01X3888763Y4935469D01*
G01X3885715Y4938771D01*
G01X3882667Y4944867D01*
G01X3999253Y4997445D02*
G01X3968265Y4932421D01*
G01X3956073Y4997445D02*
G01X3999253Y4997445D01*
G01X3549249Y271488D02*
G01X3549249Y206464D01*
G01X3549249Y271488D02*
G01X3577189Y271488D01*
G01X3586333Y268440D01*
G01X3589381Y265392D01*
G01X3592683Y259042D01*
G01X3592683Y252946D01*
G01X3589381Y246850D01*
G01X3586333Y243802D01*
G01X3577189Y240500D01*
G01X3549249Y240500D01*
G01X3570839Y240500D02*
G01X3592683Y206464D01*
G01X3622909Y259042D02*
G01X3629005Y262344D01*
G01X3638149Y271488D01*
G01X3638149Y206464D01*
G01X3668375Y259042D02*
G01X3674471Y262344D01*
G01X3683615Y271488D01*
G01X3683615Y206464D01*
G01X1745595Y4264101D02*
G01X1742547Y4270451D01*
G01X1736197Y4276547D01*
G01X1730101Y4279595D01*
G01X1717655Y4279595D01*
G01X1711559Y4276547D01*
G01X1705209Y4270451D01*
G01X1702161Y4264101D01*
G01X1699113Y4254957D01*
G01X1699113Y4239463D01*
G01X1702161Y4230065D01*
G01X1705209Y4223969D01*
G01X1711559Y4217619D01*
G01X1717655Y4214571D01*
G01X1730101Y4214571D01*
G01X1736197Y4217619D01*
G01X1742547Y4223969D01*
G01X1745595Y4230065D01*
G01X1781917Y4279595D02*
G01X1815953Y4279595D01*
G01X1797411Y4254957D01*
G01X1806555Y4254957D01*
G01X1812905Y4251909D01*
G01X1815953Y4248607D01*
G01X1819001Y4239463D01*
G01X1819001Y4233113D01*
G01X1815953Y4223969D01*
G01X1809857Y4217619D01*
G01X1800459Y4214571D01*
G01X1791061Y4214571D01*
G01X1781917Y4217619D01*
G01X1778869Y4220921D01*
G01X1775821Y4227017D01*
G01X1867769Y4279595D02*
G01X1858371Y4276547D01*
G01X1852275Y4267149D01*
G01X1849227Y4251909D01*
G01X1849227Y4242511D01*
G01X1852275Y4227017D01*
G01X1858371Y4217619D01*
G01X1867769Y4214571D01*
G01X1873865Y4214571D01*
G01X1883263Y4217619D01*
G01X1889359Y4227017D01*
G01X1892407Y4242511D01*
G01X1892407Y4251909D01*
G01X1889359Y4267149D01*
G01X1883263Y4276547D01*
G01X1873865Y4279595D01*
G01X1867769Y4279595D01*
G01X5278882Y4808601D02*
G01X5272532Y4814697D01*
G01X5263388Y4817745D01*
G01X5250942Y4817745D01*
G01X5241544Y4814697D01*
G01X5235448Y4808601D01*
G01X5235448Y4802251D01*
G01X5238496Y4796155D01*
G01X5241544Y4793107D01*
G01X5247894Y4790059D01*
G01X5266436Y4783709D01*
G01X5272532Y4780661D01*
G01X5275580Y4777613D01*
G01X5278882Y4771263D01*
G01X5278882Y4762119D01*
G01X5272532Y4755769D01*
G01X5263388Y4752721D01*
G01X5250942Y4752721D01*
G01X5241544Y4755769D01*
G01X5235448Y4762119D01*
G01X5309108Y4817745D02*
G01X5324348Y4752721D01*
G01X5339842Y4817745D02*
G01X5324348Y4752721D01*
G01X5339842Y4817745D02*
G01X5355336Y4752721D01*
G01X5370830Y4817745D02*
G01X5355336Y4752721D01*
G01X5431790Y4817745D02*
G01X5401056Y4774565D01*
G01X5447284Y4774565D01*
G01X5431790Y4817745D02*
G01X5431790Y4752721D01*
G01X2609088Y2956814D02*
G01X2609088Y2910332D01*
G01X2612136Y2901188D01*
G01X2618486Y2894838D01*
G01X2627630Y2891790D01*
G01X2633980Y2891790D01*
G01X2643124Y2894838D01*
G01X2649220Y2901188D01*
G01X2652522Y2910332D01*
G01X2652522Y2956814D01*
G01X2688844Y2956814D02*
G01X2722880Y2956814D01*
G01X2704338Y2932176D01*
G01X2713482Y2932176D01*
G01X2719832Y2929128D01*
G01X2722880Y2925826D01*
G01X2725928Y2916682D01*
G01X2725928Y2910332D01*
G01X2722880Y2901188D01*
G01X2716784Y2894838D01*
G01X2707386Y2891790D01*
G01X2697988Y2891790D01*
G01X2688844Y2894838D01*
G01X2685796Y2898140D01*
G01X2682748Y2904236D01*
G01X2504806Y3733729D02*
G01X2501758Y3740079D01*
G01X2495408Y3746175D01*
G01X2489312Y3749223D01*
G01X2476866Y3749223D01*
G01X2470770Y3746175D01*
G01X2464420Y3740079D01*
G01X2461372Y3733729D01*
G01X2458324Y3724585D01*
G01X2458324Y3709091D01*
G01X2461372Y3699693D01*
G01X2464420Y3693597D01*
G01X2470770Y3687247D01*
G01X2476866Y3684199D01*
G01X2489312Y3684199D01*
G01X2495408Y3687247D01*
G01X2501758Y3693597D01*
G01X2504806Y3699693D01*
G01X2535032Y3736777D02*
G01X2541128Y3740079D01*
G01X2550272Y3749223D01*
G01X2550272Y3684199D01*
G01X2595738Y3749223D02*
G01X2586594Y3746175D01*
G01X2583546Y3740079D01*
G01X2583546Y3733729D01*
G01X2586594Y3727633D01*
G01X2592690Y3724585D01*
G01X2605136Y3721537D01*
G01X2614534Y3718235D01*
G01X2620630Y3712139D01*
G01X2623678Y3706043D01*
G01X2623678Y3696645D01*
G01X2620630Y3690549D01*
G01X2617582Y3687247D01*
G01X2608184Y3684199D01*
G01X2595738Y3684199D01*
G01X2586594Y3687247D01*
G01X2583546Y3690549D01*
G01X2580498Y3696645D01*
G01X2580498Y3706043D01*
G01X2583546Y3712139D01*
G01X2589642Y3718235D01*
G01X2599040Y3721537D01*
G01X2611232Y3724585D01*
G01X2617582Y3727633D01*
G01X2620630Y3733729D01*
G01X2620630Y3740079D01*
G01X2617582Y3746175D01*
G01X2608184Y3749223D01*
G01X2595738Y3749223D01*
G01X1325519Y5622503D02*
G01X1322471Y5628853D01*
G01X1316121Y5634949D01*
G01X1310025Y5637997D01*
G01X1297579Y5637997D01*
G01X1291483Y5634949D01*
G01X1285133Y5628853D01*
G01X1282085Y5622503D01*
G01X1279037Y5613359D01*
G01X1279037Y5597865D01*
G01X1282085Y5588467D01*
G01X1285133Y5582371D01*
G01X1291483Y5576021D01*
G01X1297579Y5572973D01*
G01X1310025Y5572973D01*
G01X1316121Y5576021D01*
G01X1322471Y5582371D01*
G01X1325519Y5588467D01*
G01X1358793Y5622503D02*
G01X1358793Y5625551D01*
G01X1361841Y5631901D01*
G01X1364889Y5634949D01*
G01X1370985Y5637997D01*
G01X1383431Y5637997D01*
G01X1389781Y5634949D01*
G01X1392829Y5631901D01*
G01X1395877Y5625551D01*
G01X1395877Y5619455D01*
G01X1392829Y5613359D01*
G01X1386479Y5603961D01*
G01X1355745Y5572973D01*
G01X1398925Y5572973D01*
G01X1472331Y5637997D02*
G01X1441343Y5572973D01*
G01X1429151Y5637997D02*
G01X1472331Y5637997D01*
G01X1237889Y5288920D02*
G01X1237889Y5223896D01*
G01X1237889Y5288920D02*
G01X1265829Y5288920D01*
G01X1274973Y5285872D01*
G01X1278021Y5282824D01*
G01X1281323Y5276474D01*
G01X1281323Y5270378D01*
G01X1278021Y5264282D01*
G01X1274973Y5261234D01*
G01X1265829Y5257932D01*
G01X1237889Y5257932D01*
G01X1259479Y5257932D02*
G01X1281323Y5223896D01*
G01X1314597Y5273426D02*
G01X1314597Y5276474D01*
G01X1317645Y5282824D01*
G01X1320693Y5285872D01*
G01X1326789Y5288920D01*
G01X1339235Y5288920D01*
G01X1345585Y5285872D01*
G01X1348633Y5282824D01*
G01X1351681Y5276474D01*
G01X1351681Y5270378D01*
G01X1348633Y5264282D01*
G01X1342283Y5254884D01*
G01X1311549Y5223896D01*
G01X1354729Y5223896D01*
G01X1422039Y5288920D02*
G01X1391051Y5288920D01*
G01X1388003Y5261234D01*
G01X1391051Y5264282D01*
G01X1400195Y5267330D01*
G01X1409593Y5267330D01*
G01X1418991Y5264282D01*
G01X1425087Y5257932D01*
G01X1428135Y5248788D01*
G01X1428135Y5242438D01*
G01X1425087Y5233294D01*
G01X1418991Y5226944D01*
G01X1409593Y5223896D01*
G01X1400195Y5223896D01*
G01X1391051Y5226944D01*
G01X1388003Y5230246D01*
G01X1384955Y5236342D01*
G01X2522220Y5364734D02*
G01X2522220Y5299710D01*
G01X2522220Y5364734D02*
G01X2550160Y5364734D01*
G01X2559304Y5361686D01*
G01X2562352Y5358638D01*
G01X2565654Y5352288D01*
G01X2565654Y5346192D01*
G01X2562352Y5340096D01*
G01X2559304Y5337048D01*
G01X2550160Y5333746D01*
G01X2522220Y5333746D01*
G01X2543810Y5333746D02*
G01X2565654Y5299710D01*
G01X2601976Y5364734D02*
G01X2636012Y5364734D01*
G01X2617470Y5340096D01*
G01X2626614Y5340096D01*
G01X2632964Y5337048D01*
G01X2636012Y5333746D01*
G01X2639060Y5324602D01*
G01X2639060Y5318252D01*
G01X2636012Y5309108D01*
G01X2629916Y5302758D01*
G01X2620518Y5299710D01*
G01X2611120Y5299710D01*
G01X2601976Y5302758D01*
G01X2598928Y5306060D01*
G01X2595880Y5312156D01*
G01X2700020Y5364734D02*
G01X2669286Y5321554D01*
G01X2715514Y5321554D01*
G01X2700020Y5364734D02*
G01X2700020Y5299710D01*
G01X3907257Y4584019D02*
G01X3904209Y4590369D01*
G01X3897859Y4596465D01*
G01X3891763Y4599513D01*
G01X3879317Y4599513D01*
G01X3873221Y4596465D01*
G01X3866871Y4590369D01*
G01X3863823Y4584019D01*
G01X3860775Y4574875D01*
G01X3860775Y4559381D01*
G01X3863823Y4549983D01*
G01X3866871Y4543887D01*
G01X3873221Y4537537D01*
G01X3879317Y4534489D01*
G01X3891763Y4534489D01*
G01X3897859Y4537537D01*
G01X3904209Y4543887D01*
G01X3907257Y4549983D01*
G01X3943579Y4599513D02*
G01X3977615Y4599513D01*
G01X3959073Y4574875D01*
G01X3968217Y4574875D01*
G01X3974567Y4571827D01*
G01X3977615Y4568525D01*
G01X3980663Y4559381D01*
G01X3980663Y4553031D01*
G01X3977615Y4543887D01*
G01X3971519Y4537537D01*
G01X3962121Y4534489D01*
G01X3952723Y4534489D01*
G01X3943579Y4537537D01*
G01X3940531Y4540839D01*
G01X3937483Y4546935D01*
G01X3987043Y3157934D02*
G01X3983995Y3164284D01*
G01X3977645Y3170380D01*
G01X3971549Y3173428D01*
G01X3959103Y3173428D01*
G01X3953007Y3170380D01*
G01X3946657Y3164284D01*
G01X3943609Y3157934D01*
G01X3940561Y3148790D01*
G01X3940561Y3133296D01*
G01X3943609Y3123898D01*
G01X3946657Y3117802D01*
G01X3953007Y3111452D01*
G01X3959103Y3108404D01*
G01X3971549Y3108404D01*
G01X3977645Y3111452D01*
G01X3983995Y3117802D01*
G01X3987043Y3123898D01*
G01X4023365Y3173428D02*
G01X4057401Y3173428D01*
G01X4038859Y3148790D01*
G01X4048003Y3148790D01*
G01X4054353Y3145742D01*
G01X4057401Y3142440D01*
G01X4060449Y3133296D01*
G01X4060449Y3126946D01*
G01X4057401Y3117802D01*
G01X4051305Y3111452D01*
G01X4041907Y3108404D01*
G01X4032509Y3108404D01*
G01X4023365Y3111452D01*
G01X4020317Y3114754D01*
G01X4017269Y3120850D01*
G01X4127759Y3173428D02*
G01X4096771Y3173428D01*
G01X4093723Y3145742D01*
G01X4096771Y3148790D01*
G01X4105915Y3151838D01*
G01X4115313Y3151838D01*
G01X4124711Y3148790D01*
G01X4130807Y3142440D01*
G01X4133855Y3133296D01*
G01X4133855Y3126946D01*
G01X4130807Y3117802D01*
G01X4124711Y3111452D01*
G01X4115313Y3108404D01*
G01X4105915Y3108404D01*
G01X4096771Y3111452D01*
G01X4093723Y3114754D01*
G01X4090675Y3120850D01*
G01X3986276Y1875597D02*
G01X3986276Y1826067D01*
G01X3983228Y1816923D01*
G01X3980180Y1813621D01*
G01X3973830Y1810573D01*
G01X3967734Y1810573D01*
G01X3961384Y1813621D01*
G01X3958336Y1816923D01*
G01X3955288Y1826067D01*
G01X3955288Y1832417D01*
G01X4022598Y1875597D02*
G01X4056634Y1875597D01*
G01X4038092Y1850959D01*
G01X4047236Y1850959D01*
G01X4053586Y1847911D01*
G01X4056634Y1844609D01*
G01X4059682Y1835465D01*
G01X4059682Y1829115D01*
G01X4056634Y1819971D01*
G01X4050538Y1813621D01*
G01X4041140Y1810573D01*
G01X4031742Y1810573D01*
G01X4022598Y1813621D01*
G01X4019550Y1816923D01*
G01X4016502Y1823019D01*
G01X2705608Y7765034D02*
G01X2705608Y7718552D01*
G01X2708656Y7709408D01*
G01X2715006Y7703058D01*
G01X2724150Y7700010D01*
G01X2730500Y7700010D01*
G01X2739644Y7703058D01*
G01X2745740Y7709408D01*
G01X2749042Y7718552D01*
G01X2749042Y7765034D01*
G01X2779268Y7752588D02*
G01X2785364Y7755890D01*
G01X2794508Y7765034D01*
G01X2794508Y7700010D01*
G01X3098950Y2567859D02*
G01X3098950Y2502835D01*
G01X3098950Y2567859D02*
G01X3139082Y2567859D01*
G01X3098950Y2536871D02*
G01X3123842Y2536871D01*
G01X3172356Y2552365D02*
G01X3172356Y2555413D01*
G01X3175404Y2561763D01*
G01X3178452Y2564811D01*
G01X3184548Y2567859D01*
G01X3196994Y2567859D01*
G01X3203344Y2564811D01*
G01X3206392Y2561763D01*
G01X3209440Y2555413D01*
G01X3209440Y2549317D01*
G01X3206392Y2543221D01*
G01X3200042Y2533823D01*
G01X3169308Y2502835D01*
G01X3212488Y2502835D01*
G01X4145552Y7076572D02*
G01X4145552Y7011548D01*
G01X4145552Y7076572D02*
G01X4173492Y7076572D01*
G01X4182636Y7073524D01*
G01X4185684Y7070476D01*
G01X4188986Y7064126D01*
G01X4188986Y7058030D01*
G01X4185684Y7051934D01*
G01X4182636Y7048886D01*
G01X4173492Y7045584D01*
G01X4145552Y7045584D01*
G01X4167142Y7045584D02*
G01X4188986Y7011548D01*
G01X4222260Y7061078D02*
G01X4222260Y7064126D01*
G01X4225308Y7070476D01*
G01X4228356Y7073524D01*
G01X4234452Y7076572D01*
G01X4246898Y7076572D01*
G01X4253248Y7073524D01*
G01X4256296Y7070476D01*
G01X4259344Y7064126D01*
G01X4259344Y7058030D01*
G01X4256296Y7051934D01*
G01X4249946Y7042536D01*
G01X4219212Y7011548D01*
G01X4262392Y7011548D01*
G01X4298714Y7076572D02*
G01X4332750Y7076572D01*
G01X4314208Y7051934D01*
G01X4323352Y7051934D01*
G01X4329702Y7048886D01*
G01X4332750Y7045584D01*
G01X4335798Y7036440D01*
G01X4335798Y7030090D01*
G01X4332750Y7020946D01*
G01X4326654Y7014596D01*
G01X4317256Y7011548D01*
G01X4307858Y7011548D01*
G01X4298714Y7014596D01*
G01X4295666Y7017898D01*
G01X4292618Y7023994D01*
G01X4289455Y3306539D02*
G01X4286407Y3312889D01*
G01X4280057Y3318985D01*
G01X4273961Y3322033D01*
G01X4261515Y3322033D01*
G01X4255419Y3318985D01*
G01X4249069Y3312889D01*
G01X4246021Y3306539D01*
G01X4242973Y3297395D01*
G01X4242973Y3281901D01*
G01X4246021Y3272503D01*
G01X4249069Y3266407D01*
G01X4255419Y3260057D01*
G01X4261515Y3257009D01*
G01X4273961Y3257009D01*
G01X4280057Y3260057D01*
G01X4286407Y3266407D01*
G01X4289455Y3272503D01*
G01X4362861Y3322033D02*
G01X4331873Y3257009D01*
G01X4319681Y3322033D02*
G01X4362861Y3322033D01*
G01X1760852Y2601092D02*
G01X1760852Y2536068D01*
G01X1760852Y2601092D02*
G01X1800984Y2601092D01*
G01X1760852Y2570104D02*
G01X1785744Y2570104D01*
G01X1831210Y2588646D02*
G01X1837306Y2591948D01*
G01X1846450Y2601092D01*
G01X1846450Y2536068D01*
G01X1477810Y5380820D02*
G01X1474762Y5387170D01*
G01X1468412Y5393266D01*
G01X1462316Y5396314D01*
G01X1449870Y5396314D01*
G01X1443774Y5393266D01*
G01X1437424Y5387170D01*
G01X1434376Y5380820D01*
G01X1431328Y5371676D01*
G01X1431328Y5356182D01*
G01X1434376Y5346784D01*
G01X1437424Y5340688D01*
G01X1443774Y5334338D01*
G01X1449870Y5331290D01*
G01X1462316Y5331290D01*
G01X1468412Y5334338D01*
G01X1474762Y5340688D01*
G01X1477810Y5346784D01*
G01X1511084Y5380820D02*
G01X1511084Y5383868D01*
G01X1514132Y5390218D01*
G01X1517180Y5393266D01*
G01X1523276Y5396314D01*
G01X1535722Y5396314D01*
G01X1542072Y5393266D01*
G01X1545120Y5390218D01*
G01X1548168Y5383868D01*
G01X1548168Y5377772D01*
G01X1545120Y5371676D01*
G01X1538770Y5362278D01*
G01X1508036Y5331290D01*
G01X1551216Y5331290D01*
G01X1618526Y5396314D02*
G01X1587538Y5396314D01*
G01X1584490Y5368628D01*
G01X1587538Y5371676D01*
G01X1596682Y5374724D01*
G01X1606080Y5374724D01*
G01X1615478Y5371676D01*
G01X1621574Y5365326D01*
G01X1624622Y5356182D01*
G01X1624622Y5349832D01*
G01X1621574Y5340688D01*
G01X1615478Y5334338D01*
G01X1606080Y5331290D01*
G01X1596682Y5331290D01*
G01X1587538Y5334338D01*
G01X1584490Y5337640D01*
G01X1581442Y5343736D01*
G01X802227Y4937055D02*
G01X802227Y4890573D01*
G01X805275Y4881429D01*
G01X811625Y4875079D01*
G01X820769Y4872031D01*
G01X827119Y4872031D01*
G01X836263Y4875079D01*
G01X842359Y4881429D01*
G01X845661Y4890573D01*
G01X845661Y4937055D01*
G01X912971Y4927911D02*
G01X909923Y4934007D01*
G01X900525Y4937055D01*
G01X894429Y4937055D01*
G01X885031Y4934007D01*
G01X878935Y4924609D01*
G01X875887Y4909369D01*
G01X875887Y4893875D01*
G01X878935Y4881429D01*
G01X885031Y4875079D01*
G01X894429Y4872031D01*
G01X897477Y4872031D01*
G01X906621Y4875079D01*
G01X912971Y4881429D01*
G01X916019Y4890573D01*
G01X916019Y4893875D01*
G01X912971Y4903019D01*
G01X906621Y4909369D01*
G01X897477Y4912417D01*
G01X894429Y4912417D01*
G01X885031Y4909369D01*
G01X878935Y4903019D01*
G01X875887Y4893875D01*
G01X1610919Y5871916D02*
G01X1610919Y5806892D01*
G01X1610919Y5871916D02*
G01X1632509Y5871916D01*
G01X1641907Y5868868D01*
G01X1648003Y5862772D01*
G01X1651051Y5856422D01*
G01X1654353Y5847278D01*
G01X1654353Y5831784D01*
G01X1651051Y5822386D01*
G01X1648003Y5816290D01*
G01X1641907Y5809940D01*
G01X1632509Y5806892D01*
G01X1610919Y5806892D01*
G01X1687627Y5856422D02*
G01X1687627Y5859470D01*
G01X1690675Y5865820D01*
G01X1693723Y5868868D01*
G01X1699819Y5871916D01*
G01X1712265Y5871916D01*
G01X1718615Y5868868D01*
G01X1721663Y5865820D01*
G01X1724711Y5859470D01*
G01X1724711Y5853374D01*
G01X1721663Y5847278D01*
G01X1715313Y5837880D01*
G01X1684579Y5806892D01*
G01X1727759Y5806892D01*
G01X1240831Y5507411D02*
G01X1240831Y5442387D01*
G01X1240831Y5507411D02*
G01X1268771Y5507411D01*
G01X1277915Y5504363D01*
G01X1280963Y5501315D01*
G01X1284265Y5494965D01*
G01X1284265Y5488869D01*
G01X1280963Y5482773D01*
G01X1277915Y5479725D01*
G01X1268771Y5476423D01*
G01X1240831Y5476423D01*
G01X1262421Y5476423D02*
G01X1284265Y5442387D01*
G01X1317539Y5491917D02*
G01X1317539Y5494965D01*
G01X1320587Y5501315D01*
G01X1323635Y5504363D01*
G01X1329731Y5507411D01*
G01X1342177Y5507411D01*
G01X1348527Y5504363D01*
G01X1351575Y5501315D01*
G01X1354623Y5494965D01*
G01X1354623Y5488869D01*
G01X1351575Y5482773D01*
G01X1345225Y5473375D01*
G01X1314491Y5442387D01*
G01X1357671Y5442387D01*
G01X1428029Y5485821D02*
G01X1424981Y5476423D01*
G01X1418631Y5470327D01*
G01X1409487Y5467279D01*
G01X1406439Y5467279D01*
G01X1397041Y5470327D01*
G01X1390945Y5476423D01*
G01X1387897Y5485821D01*
G01X1387897Y5488869D01*
G01X1390945Y5498267D01*
G01X1397041Y5504363D01*
G01X1406439Y5507411D01*
G01X1409487Y5507411D01*
G01X1418631Y5504363D01*
G01X1424981Y5498267D01*
G01X1428029Y5485821D01*
G01X1428029Y5470327D01*
G01X1424981Y5454833D01*
G01X1418631Y5445435D01*
G01X1409487Y5442387D01*
G01X1403137Y5442387D01*
G01X1393993Y5445435D01*
G01X1390945Y5451785D01*
G01X5278882Y6688709D02*
G01X5272532Y6694805D01*
G01X5263388Y6697853D01*
G01X5250942Y6697853D01*
G01X5241544Y6694805D01*
G01X5235448Y6688709D01*
G01X5235448Y6682359D01*
G01X5238496Y6676263D01*
G01X5241544Y6673215D01*
G01X5247894Y6670167D01*
G01X5266436Y6663817D01*
G01X5272532Y6660769D01*
G01X5275580Y6657721D01*
G01X5278882Y6651371D01*
G01X5278882Y6642227D01*
G01X5272532Y6635877D01*
G01X5263388Y6632829D01*
G01X5250942Y6632829D01*
G01X5241544Y6635877D01*
G01X5235448Y6642227D01*
G01X5309108Y6697853D02*
G01X5324348Y6632829D01*
G01X5339842Y6697853D02*
G01X5324348Y6632829D01*
G01X5339842Y6697853D02*
G01X5355336Y6632829D01*
G01X5370830Y6697853D02*
G01X5355336Y6632829D01*
G01X5407152Y6697853D02*
G01X5441188Y6697853D01*
G01X5422646Y6673215D01*
G01X5431790Y6673215D01*
G01X5438140Y6670167D01*
G01X5441188Y6666865D01*
G01X5444236Y6657721D01*
G01X5444236Y6651371D01*
G01X5441188Y6642227D01*
G01X5435092Y6635877D01*
G01X5425694Y6632829D01*
G01X5416296Y6632829D01*
G01X5407152Y6635877D01*
G01X5404104Y6639179D01*
G01X5401056Y6645275D01*
G01X985449Y3021528D02*
G01X985449Y2956504D01*
G01X985449Y3021528D02*
G01X1013389Y3021528D01*
G01X1022533Y3018480D01*
G01X1025581Y3015432D01*
G01X1028883Y3009082D01*
G01X1028883Y3002986D01*
G01X1025581Y2996890D01*
G01X1022533Y2993842D01*
G01X1013389Y2990540D01*
G01X985449Y2990540D01*
G01X1007039Y2990540D02*
G01X1028883Y2956504D01*
G01X1065205Y3021528D02*
G01X1099241Y3021528D01*
G01X1080699Y2996890D01*
G01X1089843Y2996890D01*
G01X1096193Y2993842D01*
G01X1099241Y2990540D01*
G01X1102289Y2981396D01*
G01X1102289Y2975046D01*
G01X1099241Y2965902D01*
G01X1093145Y2959552D01*
G01X1083747Y2956504D01*
G01X1074349Y2956504D01*
G01X1065205Y2959552D01*
G01X1062157Y2962854D01*
G01X1059109Y2968950D01*
G01X1151057Y3021528D02*
G01X1141659Y3018480D01*
G01X1135563Y3009082D01*
G01X1132515Y2993842D01*
G01X1132515Y2984444D01*
G01X1135563Y2968950D01*
G01X1141659Y2959552D01*
G01X1151057Y2956504D01*
G01X1157153Y2956504D01*
G01X1166551Y2959552D01*
G01X1172647Y2968950D01*
G01X1175695Y2984444D01*
G01X1175695Y2993842D01*
G01X1172647Y3009082D01*
G01X1166551Y3018480D01*
G01X1157153Y3021528D01*
G01X1151057Y3021528D01*
G01X3313689Y3789281D02*
G01X3310641Y3795631D01*
G01X3304291Y3801727D01*
G01X3298195Y3804775D01*
G01X3285749Y3804775D01*
G01X3279653Y3801727D01*
G01X3273303Y3795631D01*
G01X3270255Y3789281D01*
G01X3267207Y3780137D01*
G01X3267207Y3764643D01*
G01X3270255Y3755245D01*
G01X3273303Y3749149D01*
G01X3279653Y3742799D01*
G01X3285749Y3739751D01*
G01X3298195Y3739751D01*
G01X3304291Y3742799D01*
G01X3310641Y3749149D01*
G01X3313689Y3755245D01*
G01X3343915Y3792329D02*
G01X3350011Y3795631D01*
G01X3359155Y3804775D01*
G01X3359155Y3739751D01*
G01X3420115Y3804775D02*
G01X3389381Y3761595D01*
G01X3435609Y3761595D01*
G01X3420115Y3804775D02*
G01X3420115Y3739751D01*
G01X4145443Y6639654D02*
G01X4145443Y6574630D01*
G01X4145443Y6639654D02*
G01X4173383Y6639654D01*
G01X4182527Y6636606D01*
G01X4185575Y6633558D01*
G01X4188877Y6627208D01*
G01X4188877Y6621112D01*
G01X4185575Y6615016D01*
G01X4182527Y6611968D01*
G01X4173383Y6608666D01*
G01X4145443Y6608666D01*
G01X4167033Y6608666D02*
G01X4188877Y6574630D01*
G01X4222151Y6624160D02*
G01X4222151Y6627208D01*
G01X4225199Y6633558D01*
G01X4228247Y6636606D01*
G01X4234343Y6639654D01*
G01X4246789Y6639654D01*
G01X4253139Y6636606D01*
G01X4256187Y6633558D01*
G01X4259235Y6627208D01*
G01X4259235Y6621112D01*
G01X4256187Y6615016D01*
G01X4249837Y6605618D01*
G01X4219103Y6574630D01*
G01X4262283Y6574630D01*
G01X4311051Y6639654D02*
G01X4301653Y6636606D01*
G01X4295557Y6627208D01*
G01X4292509Y6611968D01*
G01X4292509Y6602570D01*
G01X4295557Y6587076D01*
G01X4301653Y6577678D01*
G01X4311051Y6574630D01*
G01X4317147Y6574630D01*
G01X4326545Y6577678D01*
G01X4332641Y6587076D01*
G01X4335689Y6602570D01*
G01X4335689Y6611968D01*
G01X4332641Y6627208D01*
G01X4326545Y6636606D01*
G01X4317147Y6639654D01*
G01X4311051Y6639654D01*
G01X4259562Y2820848D02*
G01X4259562Y2774366D01*
G01X4262610Y2765222D01*
G01X4268960Y2758872D01*
G01X4278104Y2755824D01*
G01X4284454Y2755824D01*
G01X4293598Y2758872D01*
G01X4299694Y2765222D01*
G01X4302996Y2774366D01*
G01X4302996Y2820848D01*
G01X4370306Y2820848D02*
G01X4339318Y2820848D01*
G01X4336270Y2793162D01*
G01X4339318Y2796210D01*
G01X4348462Y2799258D01*
G01X4357860Y2799258D01*
G01X4367258Y2796210D01*
G01X4373354Y2789860D01*
G01X4376402Y2780716D01*
G01X4376402Y2774366D01*
G01X4373354Y2765222D01*
G01X4367258Y2758872D01*
G01X4357860Y2755824D01*
G01X4348462Y2755824D01*
G01X4339318Y2758872D01*
G01X4336270Y2762174D01*
G01X4333222Y2768270D01*
G01X4348607Y7950523D02*
G01X4348607Y7885499D01*
G01X4348607Y7950523D02*
G01X4376547Y7950523D01*
G01X4385691Y7947475D01*
G01X4388739Y7944427D01*
G01X4392041Y7938077D01*
G01X4392041Y7931981D01*
G01X4388739Y7925885D01*
G01X4385691Y7922837D01*
G01X4376547Y7919535D01*
G01X4348607Y7919535D01*
G01X4370197Y7919535D02*
G01X4392041Y7885499D01*
G01X4459351Y7950523D02*
G01X4428363Y7950523D01*
G01X4425315Y7922837D01*
G01X4428363Y7925885D01*
G01X4437507Y7928933D01*
G01X4446905Y7928933D01*
G01X4456303Y7925885D01*
G01X4462399Y7919535D01*
G01X4465447Y7910391D01*
G01X4465447Y7904041D01*
G01X4462399Y7894897D01*
G01X4456303Y7888547D01*
G01X4446905Y7885499D01*
G01X4437507Y7885499D01*
G01X4428363Y7888547D01*
G01X4425315Y7891849D01*
G01X4422267Y7897945D01*
G01X1297521Y6489987D02*
G01X1297521Y6424963D01*
G01X1297521Y6489987D02*
G01X1319111Y6489987D01*
G01X1328509Y6486939D01*
G01X1334605Y6480843D01*
G01X1337653Y6474493D01*
G01X1340955Y6465349D01*
G01X1340955Y6449855D01*
G01X1337653Y6440457D01*
G01X1334605Y6434361D01*
G01X1328509Y6428011D01*
G01X1319111Y6424963D01*
G01X1297521Y6424963D01*
G01X1377277Y6489987D02*
G01X1411313Y6489987D01*
G01X1392771Y6465349D01*
G01X1401915Y6465349D01*
G01X1408265Y6462301D01*
G01X1411313Y6458999D01*
G01X1414361Y6449855D01*
G01X1414361Y6443505D01*
G01X1411313Y6434361D01*
G01X1405217Y6428011D01*
G01X1395819Y6424963D01*
G01X1386421Y6424963D01*
G01X1377277Y6428011D01*
G01X1374229Y6431313D01*
G01X1371181Y6437409D01*
G01X4075814Y4432343D02*
G01X4072766Y4438693D01*
G01X4066416Y4444789D01*
G01X4060320Y4447837D01*
G01X4047874Y4447837D01*
G01X4041778Y4444789D01*
G01X4035428Y4438693D01*
G01X4032380Y4432343D01*
G01X4029332Y4423199D01*
G01X4029332Y4407705D01*
G01X4032380Y4398307D01*
G01X4035428Y4392211D01*
G01X4041778Y4385861D01*
G01X4047874Y4382813D01*
G01X4060320Y4382813D01*
G01X4066416Y4385861D01*
G01X4072766Y4392211D01*
G01X4075814Y4398307D01*
G01X4109088Y4432343D02*
G01X4109088Y4435391D01*
G01X4112136Y4441741D01*
G01X4115184Y4444789D01*
G01X4121280Y4447837D01*
G01X4133726Y4447837D01*
G01X4140076Y4444789D01*
G01X4143124Y4441741D01*
G01X4146172Y4435391D01*
G01X4146172Y4429295D01*
G01X4143124Y4423199D01*
G01X4136774Y4413801D01*
G01X4106040Y4382813D01*
G01X4149220Y4382813D01*
G01X4197988Y4447837D02*
G01X4188590Y4444789D01*
G01X4182494Y4435391D01*
G01X4179446Y4420151D01*
G01X4179446Y4410753D01*
G01X4182494Y4395259D01*
G01X4188590Y4385861D01*
G01X4197988Y4382813D01*
G01X4204084Y4382813D01*
G01X4213482Y4385861D01*
G01X4219578Y4395259D01*
G01X4222626Y4410753D01*
G01X4222626Y4420151D01*
G01X4219578Y4435391D01*
G01X4213482Y4444789D01*
G01X4204084Y4447837D01*
G01X4197988Y4447837D01*
G01X2389421Y4857377D02*
G01X2389421Y4792353D01*
G01X2389421Y4857377D02*
G01X2417361Y4857377D01*
G01X2426505Y4854329D01*
G01X2429553Y4851281D01*
G01X2432855Y4844931D01*
G01X2432855Y4838835D01*
G01X2429553Y4832739D01*
G01X2426505Y4829691D01*
G01X2417361Y4826389D01*
G01X2389421Y4826389D01*
G01X2411011Y4826389D02*
G01X2432855Y4792353D01*
G01X2469177Y4857377D02*
G01X2503213Y4857377D01*
G01X2484671Y4832739D01*
G01X2493815Y4832739D01*
G01X2500165Y4829691D01*
G01X2503213Y4826389D01*
G01X2506261Y4817245D01*
G01X2506261Y4810895D01*
G01X2503213Y4801751D01*
G01X2497117Y4795401D01*
G01X2487719Y4792353D01*
G01X2478321Y4792353D01*
G01X2469177Y4795401D01*
G01X2466129Y4798703D01*
G01X2463081Y4804799D01*
G01X2573571Y4857377D02*
G01X2542583Y4857377D01*
G01X2539535Y4829691D01*
G01X2542583Y4832739D01*
G01X2551727Y4835787D01*
G01X2561125Y4835787D01*
G01X2570523Y4832739D01*
G01X2576619Y4826389D01*
G01X2579667Y4817245D01*
G01X2579667Y4810895D01*
G01X2576619Y4801751D01*
G01X2570523Y4795401D01*
G01X2561125Y4792353D01*
G01X2551727Y4792353D01*
G01X2542583Y4795401D01*
G01X2539535Y4798703D01*
G01X2536487Y4804799D01*
G01X3670394Y2797655D02*
G01X3667346Y2804005D01*
G01X3660996Y2810101D01*
G01X3654900Y2813149D01*
G01X3642454Y2813149D01*
G01X3636358Y2810101D01*
G01X3630008Y2804005D01*
G01X3626960Y2797655D01*
G01X3623912Y2788511D01*
G01X3623912Y2773017D01*
G01X3626960Y2763619D01*
G01X3630008Y2757523D01*
G01X3636358Y2751173D01*
G01X3642454Y2748125D01*
G01X3654900Y2748125D01*
G01X3660996Y2751173D01*
G01X3667346Y2757523D01*
G01X3670394Y2763619D01*
G01X3706716Y2813149D02*
G01X3740752Y2813149D01*
G01X3722210Y2788511D01*
G01X3731354Y2788511D01*
G01X3737704Y2785463D01*
G01X3740752Y2782161D01*
G01X3743800Y2773017D01*
G01X3743800Y2766667D01*
G01X3740752Y2757523D01*
G01X3734656Y2751173D01*
G01X3725258Y2748125D01*
G01X3715860Y2748125D01*
G01X3706716Y2751173D01*
G01X3703668Y2754475D01*
G01X3700620Y2760571D01*
G01X3777074Y2797655D02*
G01X3777074Y2800703D01*
G01X3780122Y2807053D01*
G01X3783170Y2810101D01*
G01X3789266Y2813149D01*
G01X3801712Y2813149D01*
G01X3808062Y2810101D01*
G01X3811110Y2807053D01*
G01X3814158Y2800703D01*
G01X3814158Y2794607D01*
G01X3811110Y2788511D01*
G01X3804760Y2779113D01*
G01X3774026Y2748125D01*
G01X3817206Y2748125D01*
G01X2812412Y4656371D02*
G01X2812412Y4591347D01*
G01X2812412Y4591347D02*
G01X2849496Y4591347D01*
G01X2879722Y4643925D02*
G01X2885818Y4647227D01*
G01X2894962Y4656371D01*
G01X2894962Y4591347D01*
G01X1644015Y1737086D02*
G01X1644015Y1690604D01*
G01X1647063Y1681460D01*
G01X1653413Y1675110D01*
G01X1662557Y1672062D01*
G01X1668907Y1672062D01*
G01X1678051Y1675110D01*
G01X1684147Y1681460D01*
G01X1687449Y1690604D01*
G01X1687449Y1737086D01*
G01X1720723Y1721592D02*
G01X1720723Y1724640D01*
G01X1723771Y1730990D01*
G01X1726819Y1734038D01*
G01X1732915Y1737086D01*
G01X1745361Y1737086D01*
G01X1751711Y1734038D01*
G01X1754759Y1730990D01*
G01X1757807Y1724640D01*
G01X1757807Y1718544D01*
G01X1754759Y1712448D01*
G01X1748409Y1703050D01*
G01X1717675Y1672062D01*
G01X1760855Y1672062D01*
G01X1895445Y5247894D02*
G01X1889095Y5253990D01*
G01X1879951Y5257038D01*
G01X1867505Y5257038D01*
G01X1858107Y5253990D01*
G01X1852011Y5247894D01*
G01X1852011Y5241544D01*
G01X1855059Y5235448D01*
G01X1858107Y5232400D01*
G01X1864457Y5229352D01*
G01X1882999Y5223002D01*
G01X1889095Y5219954D01*
G01X1892143Y5216906D01*
G01X1895445Y5210556D01*
G01X1895445Y5201412D01*
G01X1889095Y5195062D01*
G01X1879951Y5192014D01*
G01X1867505Y5192014D01*
G01X1858107Y5195062D01*
G01X1852011Y5201412D01*
G01X1925671Y5257038D02*
G01X1940911Y5192014D01*
G01X1956405Y5257038D02*
G01X1940911Y5192014D01*
G01X1956405Y5257038D02*
G01X1971899Y5192014D01*
G01X1987393Y5257038D02*
G01X1971899Y5192014D01*
G01X2017619Y5244592D02*
G01X2023715Y5247894D01*
G01X2032859Y5257038D01*
G01X2032859Y5192014D01*
G01X4348645Y8169013D02*
G01X4348645Y8103989D01*
G01X4348645Y8169013D02*
G01X4376585Y8169013D01*
G01X4385729Y8165965D01*
G01X4388777Y8162917D01*
G01X4392079Y8156567D01*
G01X4392079Y8150471D01*
G01X4388777Y8144375D01*
G01X4385729Y8141327D01*
G01X4376585Y8138025D01*
G01X4348645Y8138025D01*
G01X4370235Y8138025D02*
G01X4392079Y8103989D01*
G01X4459389Y8159869D02*
G01X4456341Y8165965D01*
G01X4446943Y8169013D01*
G01X4440847Y8169013D01*
G01X4431449Y8165965D01*
G01X4425353Y8156567D01*
G01X4422305Y8141327D01*
G01X4422305Y8125833D01*
G01X4425353Y8113387D01*
G01X4431449Y8107037D01*
G01X4440847Y8103989D01*
G01X4443895Y8103989D01*
G01X4453039Y8107037D01*
G01X4459389Y8113387D01*
G01X4462437Y8122531D01*
G01X4462437Y8125833D01*
G01X4459389Y8134977D01*
G01X4453039Y8141327D01*
G01X4443895Y8144375D01*
G01X4440847Y8144375D01*
G01X4431449Y8141327D01*
G01X4425353Y8134977D01*
G01X4422305Y8125833D01*
G01X1668374Y7232937D02*
G01X1665326Y7239287D01*
G01X1658976Y7245383D01*
G01X1652880Y7248431D01*
G01X1640434Y7248431D01*
G01X1634338Y7245383D01*
G01X1627988Y7239287D01*
G01X1624940Y7232937D01*
G01X1621892Y7223793D01*
G01X1621892Y7208299D01*
G01X1624940Y7198901D01*
G01X1627988Y7192805D01*
G01X1634338Y7186455D01*
G01X1640434Y7183407D01*
G01X1652880Y7183407D01*
G01X1658976Y7186455D01*
G01X1665326Y7192805D01*
G01X1668374Y7198901D01*
G01X1735684Y7248431D02*
G01X1704696Y7248431D01*
G01X1701648Y7220745D01*
G01X1704696Y7223793D01*
G01X1713840Y7226841D01*
G01X1723238Y7226841D01*
G01X1732636Y7223793D01*
G01X1738732Y7217443D01*
G01X1741780Y7208299D01*
G01X1741780Y7201949D01*
G01X1738732Y7192805D01*
G01X1732636Y7186455D01*
G01X1723238Y7183407D01*
G01X1713840Y7183407D01*
G01X1704696Y7186455D01*
G01X1701648Y7189757D01*
G01X1698600Y7195853D01*
G01X3796452Y4743239D02*
G01X3793404Y4749589D01*
G01X3787054Y4755685D01*
G01X3780958Y4758733D01*
G01X3768512Y4758733D01*
G01X3762416Y4755685D01*
G01X3756066Y4749589D01*
G01X3753018Y4743239D01*
G01X3749970Y4734095D01*
G01X3749970Y4718601D01*
G01X3753018Y4709203D01*
G01X3756066Y4703107D01*
G01X3762416Y4696757D01*
G01X3768512Y4693709D01*
G01X3780958Y4693709D01*
G01X3787054Y4696757D01*
G01X3793404Y4703107D01*
G01X3796452Y4709203D01*
G01X3829726Y4743239D02*
G01X3829726Y4746287D01*
G01X3832774Y4752637D01*
G01X3835822Y4755685D01*
G01X3841918Y4758733D01*
G01X3854364Y4758733D01*
G01X3860714Y4755685D01*
G01X3863762Y4752637D01*
G01X3866810Y4746287D01*
G01X3866810Y4740191D01*
G01X3863762Y4734095D01*
G01X3857412Y4724697D01*
G01X3826678Y4693709D01*
G01X3869858Y4693709D01*
G01X3906180Y4758733D02*
G01X3940216Y4758733D01*
G01X3921674Y4734095D01*
G01X3930818Y4734095D01*
G01X3937168Y4731047D01*
G01X3940216Y4727745D01*
G01X3943264Y4718601D01*
G01X3943264Y4712251D01*
G01X3940216Y4703107D01*
G01X3934120Y4696757D01*
G01X3924722Y4693709D01*
G01X3915324Y4693709D01*
G01X3906180Y4696757D01*
G01X3903132Y4700059D01*
G01X3900084Y4706155D01*
G01X1719547Y5645348D02*
G01X1719547Y5580324D01*
G01X1719547Y5645348D02*
G01X1747487Y5645348D01*
G01X1756631Y5642300D01*
G01X1759679Y5639252D01*
G01X1762981Y5632902D01*
G01X1762981Y5626806D01*
G01X1759679Y5620710D01*
G01X1756631Y5617662D01*
G01X1747487Y5614360D01*
G01X1719547Y5614360D01*
G01X1741137Y5614360D02*
G01X1762981Y5580324D01*
G01X1799303Y5645348D02*
G01X1833339Y5645348D01*
G01X1814797Y5620710D01*
G01X1823941Y5620710D01*
G01X1830291Y5617662D01*
G01X1833339Y5614360D01*
G01X1836387Y5605216D01*
G01X1836387Y5598866D01*
G01X1833339Y5589722D01*
G01X1827243Y5583372D01*
G01X1817845Y5580324D01*
G01X1808447Y5580324D01*
G01X1799303Y5583372D01*
G01X1796255Y5586674D01*
G01X1793207Y5592770D01*
G01X1872709Y5645348D02*
G01X1906745Y5645348D01*
G01X1888203Y5620710D01*
G01X1897347Y5620710D01*
G01X1903697Y5617662D01*
G01X1906745Y5614360D01*
G01X1909793Y5605216D01*
G01X1909793Y5598866D01*
G01X1906745Y5589722D01*
G01X1900649Y5583372D01*
G01X1891251Y5580324D01*
G01X1881853Y5580324D01*
G01X1872709Y5583372D01*
G01X1869661Y5586674D01*
G01X1866613Y5592770D01*
G01X1478404Y4264172D02*
G01X1475356Y4270522D01*
G01X1469006Y4276618D01*
G01X1462910Y4279666D01*
G01X1450464Y4279666D01*
G01X1444368Y4276618D01*
G01X1438018Y4270522D01*
G01X1434970Y4264172D01*
G01X1431922Y4255028D01*
G01X1431922Y4239534D01*
G01X1434970Y4230136D01*
G01X1438018Y4224040D01*
G01X1444368Y4217690D01*
G01X1450464Y4214642D01*
G01X1462910Y4214642D01*
G01X1469006Y4217690D01*
G01X1475356Y4224040D01*
G01X1478404Y4230136D01*
G01X1511678Y4264172D02*
G01X1511678Y4267220D01*
G01X1514726Y4273570D01*
G01X1517774Y4276618D01*
G01X1523870Y4279666D01*
G01X1536316Y4279666D01*
G01X1542666Y4276618D01*
G01X1545714Y4273570D01*
G01X1548762Y4267220D01*
G01X1548762Y4261124D01*
G01X1545714Y4255028D01*
G01X1539364Y4245630D01*
G01X1508630Y4214642D01*
G01X1551810Y4214642D01*
G01X1622168Y4258076D02*
G01X1619120Y4248678D01*
G01X1612770Y4242582D01*
G01X1603626Y4239534D01*
G01X1600578Y4239534D01*
G01X1591180Y4242582D01*
G01X1585084Y4248678D01*
G01X1582036Y4258076D01*
G01X1582036Y4261124D01*
G01X1585084Y4270522D01*
G01X1591180Y4276618D01*
G01X1600578Y4279666D01*
G01X1603626Y4279666D01*
G01X1612770Y4276618D01*
G01X1619120Y4270522D01*
G01X1622168Y4258076D01*
G01X1622168Y4242582D01*
G01X1619120Y4227088D01*
G01X1612770Y4217690D01*
G01X1603626Y4214642D01*
G01X1597276Y4214642D01*
G01X1588132Y4217690D01*
G01X1585084Y4224040D01*
G01X1180323Y6600701D02*
G01X1180323Y6535677D01*
G01X1180323Y6600701D02*
G01X1208263Y6600701D01*
G01X1217407Y6597653D01*
G01X1220455Y6594605D01*
G01X1223757Y6588255D01*
G01X1223757Y6582159D01*
G01X1220455Y6576063D01*
G01X1217407Y6573015D01*
G01X1208263Y6569713D01*
G01X1180323Y6569713D01*
G01X1201913Y6569713D02*
G01X1223757Y6535677D01*
G01X1253983Y6588255D02*
G01X1260079Y6591557D01*
G01X1269223Y6600701D01*
G01X1269223Y6535677D01*
G01X1317991Y6600701D02*
G01X1308593Y6597653D01*
G01X1302497Y6588255D01*
G01X1299449Y6573015D01*
G01X1299449Y6563617D01*
G01X1302497Y6548123D01*
G01X1308593Y6538725D01*
G01X1317991Y6535677D01*
G01X1324087Y6535677D01*
G01X1333485Y6538725D01*
G01X1339581Y6548123D01*
G01X1342629Y6563617D01*
G01X1342629Y6573015D01*
G01X1339581Y6588255D01*
G01X1333485Y6597653D01*
G01X1324087Y6600701D01*
G01X1317991Y6600701D01*
G01X3796487Y3407870D02*
G01X3793439Y3414220D01*
G01X3787089Y3420316D01*
G01X3780993Y3423364D01*
G01X3768547Y3423364D01*
G01X3762451Y3420316D01*
G01X3756101Y3414220D01*
G01X3753053Y3407870D01*
G01X3750005Y3398726D01*
G01X3750005Y3383232D01*
G01X3753053Y3373834D01*
G01X3756101Y3367738D01*
G01X3762451Y3361388D01*
G01X3768547Y3358340D01*
G01X3780993Y3358340D01*
G01X3787089Y3361388D01*
G01X3793439Y3367738D01*
G01X3796487Y3373834D01*
G01X3826713Y3410918D02*
G01X3832809Y3414220D01*
G01X3841953Y3423364D01*
G01X3841953Y3358340D01*
G01X4046858Y4390697D02*
G01X4043810Y4397047D01*
G01X4037460Y4403143D01*
G01X4031364Y4406191D01*
G01X4018918Y4406191D01*
G01X4012822Y4403143D01*
G01X4006472Y4397047D01*
G01X4003424Y4390697D01*
G01X4000376Y4381553D01*
G01X4000376Y4366059D01*
G01X4003424Y4356661D01*
G01X4006472Y4350565D01*
G01X4012822Y4344215D01*
G01X4018918Y4341167D01*
G01X4031364Y4341167D01*
G01X4037460Y4344215D01*
G01X4043810Y4350565D01*
G01X4046858Y4356661D01*
G01X4083180Y4406191D02*
G01X4117216Y4406191D01*
G01X4098674Y4381553D01*
G01X4107818Y4381553D01*
G01X4114168Y4378505D01*
G01X4117216Y4375203D01*
G01X4120264Y4366059D01*
G01X4120264Y4359709D01*
G01X4117216Y4350565D01*
G01X4111120Y4344215D01*
G01X4101722Y4341167D01*
G01X4092324Y4341167D01*
G01X4083180Y4344215D01*
G01X4080132Y4347517D01*
G01X4077084Y4353613D01*
G01X4156586Y4406191D02*
G01X4190622Y4406191D01*
G01X4172080Y4381553D01*
G01X4181224Y4381553D01*
G01X4187574Y4378505D01*
G01X4190622Y4375203D01*
G01X4193670Y4366059D01*
G01X4193670Y4359709D01*
G01X4190622Y4350565D01*
G01X4184526Y4344215D01*
G01X4175128Y4341167D01*
G01X4165730Y4341167D01*
G01X4156586Y4344215D01*
G01X4153538Y4347517D01*
G01X4150490Y4353613D01*
G01X2961643Y1435738D02*
G01X2958595Y1442088D01*
G01X2952245Y1448184D01*
G01X2946149Y1451232D01*
G01X2933703Y1451232D01*
G01X2927607Y1448184D01*
G01X2921257Y1442088D01*
G01X2918209Y1435738D01*
G01X2915161Y1426594D01*
G01X2915161Y1411100D01*
G01X2918209Y1401702D01*
G01X2921257Y1395606D01*
G01X2927607Y1389256D01*
G01X2933703Y1386208D01*
G01X2946149Y1386208D01*
G01X2952245Y1389256D01*
G01X2958595Y1395606D01*
G01X2961643Y1401702D01*
G01X2991869Y1438786D02*
G01X2997965Y1442088D01*
G01X3007109Y1451232D01*
G01X3007109Y1386208D01*
G01X3040383Y1435738D02*
G01X3040383Y1438786D01*
G01X3043431Y1445136D01*
G01X3046479Y1448184D01*
G01X3052575Y1451232D01*
G01X3065021Y1451232D01*
G01X3071371Y1448184D01*
G01X3074419Y1445136D01*
G01X3077467Y1438786D01*
G01X3077467Y1432690D01*
G01X3074419Y1426594D01*
G01X3068069Y1417196D01*
G01X3037335Y1386208D01*
G01X3080515Y1386208D01*
G01X4145552Y7513602D02*
G01X4145552Y7448578D01*
G01X4145552Y7513602D02*
G01X4173492Y7513602D01*
G01X4182636Y7510554D01*
G01X4185684Y7507506D01*
G01X4188986Y7501156D01*
G01X4188986Y7495060D01*
G01X4185684Y7488964D01*
G01X4182636Y7485916D01*
G01X4173492Y7482614D01*
G01X4145552Y7482614D01*
G01X4167142Y7482614D02*
G01X4188986Y7448578D01*
G01X4225308Y7513602D02*
G01X4259344Y7513602D01*
G01X4240802Y7488964D01*
G01X4249946Y7488964D01*
G01X4256296Y7485916D01*
G01X4259344Y7482614D01*
G01X4262392Y7473470D01*
G01X4262392Y7467120D01*
G01X4259344Y7457976D01*
G01X4253248Y7451626D01*
G01X4243850Y7448578D01*
G01X4234452Y7448578D01*
G01X4225308Y7451626D01*
G01X4222260Y7454928D01*
G01X4219212Y7461024D01*
G01X4329702Y7504458D02*
G01X4326654Y7510554D01*
G01X4317256Y7513602D01*
G01X4311160Y7513602D01*
G01X4301762Y7510554D01*
G01X4295666Y7501156D01*
G01X4292618Y7485916D01*
G01X4292618Y7470422D01*
G01X4295666Y7457976D01*
G01X4301762Y7451626D01*
G01X4311160Y7448578D01*
G01X4314208Y7448578D01*
G01X4323352Y7451626D01*
G01X4329702Y7457976D01*
G01X4332750Y7467120D01*
G01X4332750Y7470422D01*
G01X4329702Y7479566D01*
G01X4323352Y7485916D01*
G01X4314208Y7488964D01*
G01X4311160Y7488964D01*
G01X4301762Y7485916D01*
G01X4295666Y7479566D01*
G01X4292618Y7470422D01*
G01X1228656Y6150613D02*
G01X1228656Y6085589D01*
G01X1228656Y6150613D02*
G01X1256596Y6150613D01*
G01X1265740Y6147565D01*
G01X1268788Y6144517D01*
G01X1272090Y6138167D01*
G01X1272090Y6132071D01*
G01X1268788Y6125975D01*
G01X1265740Y6122927D01*
G01X1256596Y6119625D01*
G01X1228656Y6119625D01*
G01X1250246Y6119625D02*
G01X1272090Y6085589D01*
G01X1342448Y6129023D02*
G01X1339400Y6119625D01*
G01X1333050Y6113529D01*
G01X1323906Y6110481D01*
G01X1320858Y6110481D01*
G01X1311460Y6113529D01*
G01X1305364Y6119625D01*
G01X1302316Y6129023D01*
G01X1302316Y6132071D01*
G01X1305364Y6141469D01*
G01X1311460Y6147565D01*
G01X1320858Y6150613D01*
G01X1323906Y6150613D01*
G01X1333050Y6147565D01*
G01X1339400Y6141469D01*
G01X1342448Y6129023D01*
G01X1342448Y6113529D01*
G01X1339400Y6098035D01*
G01X1333050Y6088637D01*
G01X1323906Y6085589D01*
G01X1317556Y6085589D01*
G01X1308412Y6088637D01*
G01X1305364Y6094987D01*
G01X1441986Y3274596D02*
G01X1441986Y3209572D01*
G01X1441986Y3274596D02*
G01X1469926Y3274596D01*
G01X1479070Y3271548D01*
G01X1482118Y3268500D01*
G01X1485420Y3262150D01*
G01X1485420Y3256054D01*
G01X1482118Y3249958D01*
G01X1479070Y3246910D01*
G01X1469926Y3243608D01*
G01X1441986Y3243608D01*
G01X1463576Y3243608D02*
G01X1485420Y3209572D01*
G01X1521742Y3274596D02*
G01X1555778Y3274596D01*
G01X1537236Y3249958D01*
G01X1546380Y3249958D01*
G01X1552730Y3246910D01*
G01X1555778Y3243608D01*
G01X1558826Y3234464D01*
G01X1558826Y3228114D01*
G01X1555778Y3218970D01*
G01X1549682Y3212620D01*
G01X1540284Y3209572D01*
G01X1530886Y3209572D01*
G01X1521742Y3212620D01*
G01X1518694Y3215922D01*
G01X1515646Y3222018D01*
G01X1589052Y3262150D02*
G01X1595148Y3265452D01*
G01X1604292Y3274596D01*
G01X1604292Y3209572D01*
G01X2833373Y2947835D02*
G01X2830325Y2954185D01*
G01X2823975Y2960281D01*
G01X2817879Y2963329D01*
G01X2805433Y2963329D01*
G01X2799337Y2960281D01*
G01X2792987Y2954185D01*
G01X2789939Y2947835D01*
G01X2786891Y2938691D01*
G01X2786891Y2923197D01*
G01X2789939Y2913799D01*
G01X2792987Y2907703D01*
G01X2799337Y2901353D01*
G01X2805433Y2898305D01*
G01X2817879Y2898305D01*
G01X2823975Y2901353D01*
G01X2830325Y2907703D01*
G01X2833373Y2913799D01*
G01X2866647Y2947835D02*
G01X2866647Y2950883D01*
G01X2869695Y2957233D01*
G01X2872743Y2960281D01*
G01X2878839Y2963329D01*
G01X2891285Y2963329D01*
G01X2897635Y2960281D01*
G01X2900683Y2957233D01*
G01X2903731Y2950883D01*
G01X2903731Y2944787D01*
G01X2900683Y2938691D01*
G01X2894333Y2929293D01*
G01X2863599Y2898305D01*
G01X2906779Y2898305D01*
G01X2967739Y2963329D02*
G01X2937005Y2920149D01*
G01X2983233Y2920149D01*
G01X2967739Y2963329D02*
G01X2967739Y2898305D01*
G01X4145407Y6858155D02*
G01X4145407Y6793131D01*
G01X4145407Y6858155D02*
G01X4173347Y6858155D01*
G01X4182491Y6855107D01*
G01X4185539Y6852059D01*
G01X4188841Y6845709D01*
G01X4188841Y6839613D01*
G01X4185539Y6833517D01*
G01X4182491Y6830469D01*
G01X4173347Y6827167D01*
G01X4145407Y6827167D01*
G01X4166997Y6827167D02*
G01X4188841Y6793131D01*
G01X4222115Y6842661D02*
G01X4222115Y6845709D01*
G01X4225163Y6852059D01*
G01X4228211Y6855107D01*
G01X4234307Y6858155D01*
G01X4246753Y6858155D01*
G01X4253103Y6855107D01*
G01X4256151Y6852059D01*
G01X4259199Y6845709D01*
G01X4259199Y6839613D01*
G01X4256151Y6833517D01*
G01X4249801Y6824119D01*
G01X4219067Y6793131D01*
G01X4262247Y6793131D01*
G01X4295521Y6842661D02*
G01X4295521Y6845709D01*
G01X4298569Y6852059D01*
G01X4301617Y6855107D01*
G01X4307713Y6858155D01*
G01X4320159Y6858155D01*
G01X4326509Y6855107D01*
G01X4329557Y6852059D01*
G01X4332605Y6845709D01*
G01X4332605Y6839613D01*
G01X4329557Y6833517D01*
G01X4323207Y6824119D01*
G01X4292473Y6793131D01*
G01X4335653Y6793131D01*
G01X2327057Y5122007D02*
G01X2327057Y5056983D01*
G01X2327057Y5122007D02*
G01X2354997Y5122007D01*
G01X2364141Y5118959D01*
G01X2367189Y5115911D01*
G01X2370491Y5109561D01*
G01X2370491Y5103465D01*
G01X2367189Y5097369D01*
G01X2364141Y5094321D01*
G01X2354997Y5091019D01*
G01X2327057Y5091019D01*
G01X2348647Y5091019D02*
G01X2370491Y5056983D01*
G01X2403765Y5106513D02*
G01X2403765Y5109561D01*
G01X2406813Y5115911D01*
G01X2409861Y5118959D01*
G01X2415957Y5122007D01*
G01X2428403Y5122007D01*
G01X2434753Y5118959D01*
G01X2437801Y5115911D01*
G01X2440849Y5109561D01*
G01X2440849Y5103465D01*
G01X2437801Y5097369D01*
G01X2431451Y5087971D01*
G01X2400717Y5056983D01*
G01X2443897Y5056983D01*
G01X2517303Y5122007D02*
G01X2486315Y5056983D01*
G01X2474123Y5122007D02*
G01X2517303Y5122007D01*
G01X4260906Y5797553D02*
G01X4260906Y5732529D01*
G01X4260906Y5797553D02*
G01X4288846Y5797553D01*
G01X4297990Y5794505D01*
G01X4301038Y5791457D01*
G01X4304340Y5785107D01*
G01X4304340Y5779011D01*
G01X4301038Y5772915D01*
G01X4297990Y5769867D01*
G01X4288846Y5766565D01*
G01X4260906Y5766565D01*
G01X4282496Y5766565D02*
G01X4304340Y5732529D01*
G01X4334566Y5785107D02*
G01X4340662Y5788409D01*
G01X4349806Y5797553D01*
G01X4349806Y5732529D01*
G01X4383080Y5782059D02*
G01X4383080Y5785107D01*
G01X4386128Y5791457D01*
G01X4389176Y5794505D01*
G01X4395272Y5797553D01*
G01X4407718Y5797553D01*
G01X4414068Y5794505D01*
G01X4417116Y5791457D01*
G01X4420164Y5785107D01*
G01X4420164Y5779011D01*
G01X4417116Y5772915D01*
G01X4410766Y5763517D01*
G01X4380032Y5732529D01*
G01X4423212Y5732529D01*
G01X1047242Y1837182D02*
G01X1047242Y1790700D01*
G01X1050290Y1781556D01*
G01X1056640Y1775206D01*
G01X1065784Y1772158D01*
G01X1072134Y1772158D01*
G01X1081278Y1775206D01*
G01X1087374Y1781556D01*
G01X1090676Y1790700D01*
G01X1090676Y1837182D01*
G01X1151636Y1837182D02*
G01X1120902Y1794002D01*
G01X1167130Y1794002D01*
G01X1151636Y1837182D02*
G01X1151636Y1772158D01*
G01X3072110Y1339444D02*
G01X3072110Y1274420D01*
G01X3072110Y1339444D02*
G01X3093700Y1339444D01*
G01X3103098Y1336396D01*
G01X3109194Y1330300D01*
G01X3112242Y1323950D01*
G01X3115544Y1314806D01*
G01X3115544Y1299312D01*
G01X3112242Y1289914D01*
G01X3109194Y1283818D01*
G01X3103098Y1277468D01*
G01X3093700Y1274420D01*
G01X3072110Y1274420D01*
G01X3182854Y1339444D02*
G01X3151866Y1339444D01*
G01X3148818Y1311758D01*
G01X3151866Y1314806D01*
G01X3161010Y1317854D01*
G01X3170408Y1317854D01*
G01X3179806Y1314806D01*
G01X3185902Y1308456D01*
G01X3188950Y1299312D01*
G01X3188950Y1292962D01*
G01X3185902Y1283818D01*
G01X3179806Y1277468D01*
G01X3170408Y1274420D01*
G01X3161010Y1274420D01*
G01X3151866Y1277468D01*
G01X3148818Y1280770D01*
G01X3145770Y1286866D01*
G01X3687963Y5690197D02*
G01X3684915Y5696547D01*
G01X3678565Y5702643D01*
G01X3672469Y5705691D01*
G01X3660023Y5705691D01*
G01X3653927Y5702643D01*
G01X3647577Y5696547D01*
G01X3644529Y5690197D01*
G01X3641481Y5681053D01*
G01X3641481Y5665559D01*
G01X3644529Y5656161D01*
G01X3647577Y5650065D01*
G01X3653927Y5643715D01*
G01X3660023Y5640667D01*
G01X3672469Y5640667D01*
G01X3678565Y5643715D01*
G01X3684915Y5650065D01*
G01X3687963Y5656161D01*
G01X3724285Y5705691D02*
G01X3758321Y5705691D01*
G01X3739779Y5681053D01*
G01X3748923Y5681053D01*
G01X3755273Y5678005D01*
G01X3758321Y5674703D01*
G01X3761369Y5665559D01*
G01X3761369Y5659209D01*
G01X3758321Y5650065D01*
G01X3752225Y5643715D01*
G01X3742827Y5640667D01*
G01X3733429Y5640667D01*
G01X3724285Y5643715D01*
G01X3721237Y5647017D01*
G01X3718189Y5653113D01*
G01X3806835Y5705691D02*
G01X3797691Y5702643D01*
G01X3794643Y5696547D01*
G01X3794643Y5690197D01*
G01X3797691Y5684101D01*
G01X3803787Y5681053D01*
G01X3816233Y5678005D01*
G01X3825631Y5674703D01*
G01X3831727Y5668607D01*
G01X3834775Y5662511D01*
G01X3834775Y5653113D01*
G01X3831727Y5647017D01*
G01X3828679Y5643715D01*
G01X3819281Y5640667D01*
G01X3806835Y5640667D01*
G01X3797691Y5643715D01*
G01X3794643Y5647017D01*
G01X3791595Y5653113D01*
G01X3791595Y5662511D01*
G01X3794643Y5668607D01*
G01X3800739Y5674703D01*
G01X3810137Y5678005D01*
G01X3822329Y5681053D01*
G01X3828679Y5684101D01*
G01X3831727Y5690197D01*
G01X3831727Y5696547D01*
G01X3828679Y5702643D01*
G01X3819281Y5705691D01*
G01X3806835Y5705691D01*
G01X4442338Y3932301D02*
G01X4442338Y3867277D01*
G01X4442338Y3867277D02*
G01X4479422Y3867277D01*
G01X4512696Y3916807D02*
G01X4512696Y3919855D01*
G01X4515744Y3926205D01*
G01X4518792Y3929253D01*
G01X4524888Y3932301D01*
G01X4537334Y3932301D01*
G01X4543684Y3929253D01*
G01X4546732Y3926205D01*
G01X4549780Y3919855D01*
G01X4549780Y3913759D01*
G01X4546732Y3907663D01*
G01X4540382Y3898265D01*
G01X4509648Y3867277D01*
G01X4552828Y3867277D01*
G01X2489289Y3600564D02*
G01X2489289Y3535540D01*
G01X2489289Y3600564D02*
G01X2510879Y3600564D01*
G01X2520277Y3597516D01*
G01X2526373Y3591420D01*
G01X2529421Y3585070D01*
G01X2532723Y3575926D01*
G01X2532723Y3560432D01*
G01X2529421Y3551034D01*
G01X2526373Y3544938D01*
G01X2520277Y3538588D01*
G01X2510879Y3535540D01*
G01X2489289Y3535540D01*
G01X2578189Y3600564D02*
G01X2569045Y3597516D01*
G01X2565997Y3591420D01*
G01X2565997Y3585070D01*
G01X2569045Y3578974D01*
G01X2575141Y3575926D01*
G01X2587587Y3572878D01*
G01X2596985Y3569576D01*
G01X2603081Y3563480D01*
G01X2606129Y3557384D01*
G01X2606129Y3547986D01*
G01X2603081Y3541890D01*
G01X2600033Y3538588D01*
G01X2590635Y3535540D01*
G01X2578189Y3535540D01*
G01X2569045Y3538588D01*
G01X2565997Y3541890D01*
G01X2562949Y3547986D01*
G01X2562949Y3557384D01*
G01X2565997Y3563480D01*
G01X2572093Y3569576D01*
G01X2581491Y3572878D01*
G01X2593683Y3575926D01*
G01X2600033Y3578974D01*
G01X2603081Y3585070D01*
G01X2603081Y3591420D01*
G01X2600033Y3597516D01*
G01X2590635Y3600564D01*
G01X2578189Y3600564D01*
G01X3087571Y4815517D02*
G01X3087571Y4750493D01*
G01X3087571Y4815517D02*
G01X3115511Y4815517D01*
G01X3124655Y4812469D01*
G01X3127703Y4809421D01*
G01X3131005Y4803071D01*
G01X3131005Y4796975D01*
G01X3127703Y4790879D01*
G01X3124655Y4787831D01*
G01X3115511Y4784529D01*
G01X3087571Y4784529D01*
G01X3109161Y4784529D02*
G01X3131005Y4750493D01*
G01X3164279Y4800023D02*
G01X3164279Y4803071D01*
G01X3167327Y4809421D01*
G01X3170375Y4812469D01*
G01X3176471Y4815517D01*
G01X3188917Y4815517D01*
G01X3195267Y4812469D01*
G01X3198315Y4809421D01*
G01X3201363Y4803071D01*
G01X3201363Y4796975D01*
G01X3198315Y4790879D01*
G01X3191965Y4781481D01*
G01X3161231Y4750493D01*
G01X3204411Y4750493D01*
G01X3271721Y4806373D02*
G01X3268673Y4812469D01*
G01X3259275Y4815517D01*
G01X3253179Y4815517D01*
G01X3243781Y4812469D01*
G01X3237685Y4803071D01*
G01X3234637Y4787831D01*
G01X3234637Y4772337D01*
G01X3237685Y4759891D01*
G01X3243781Y4753541D01*
G01X3253179Y4750493D01*
G01X3256227Y4750493D01*
G01X3265371Y4753541D01*
G01X3271721Y4759891D01*
G01X3274769Y4769035D01*
G01X3274769Y4772337D01*
G01X3271721Y4781481D01*
G01X3265371Y4787831D01*
G01X3256227Y4790879D01*
G01X3253179Y4790879D01*
G01X3243781Y4787831D01*
G01X3237685Y4781481D01*
G01X3234637Y4772337D01*
G04 Text End*

G04 PolygonModel Start*
G01X3077865Y5175606D02*
G01X3077865Y5271493D01*
G01X3077865Y5271493D02*
G01X2945745Y5271493D01*
G01X2945745Y5271493D02*
G01X2945745Y5175606D01*
G01X3077865Y5090363D02*
G01X3077865Y4994476D01*
G01X3077865Y4994476D02*
G01X2945745Y4994476D01*
G01X2945745Y4994476D02*
G01X2945745Y5090363D01*
G01X2395784Y1164387D02*
G01X2395784Y1068499D01*
G01X2395784Y1068499D02*
G01X2527905Y1068499D01*
G01X2527905Y1068499D02*
G01X2527905Y1164387D01*
G01X2395784Y1249629D02*
G01X2395784Y1345517D01*
G01X2395784Y1345517D02*
G01X2527905Y1345517D01*
G01X2527905Y1345517D02*
G01X2527905Y1249629D01*
G54D14*
G01X1136688Y5837494D02*
G01X1216685Y5837494D01*
G01X1080643Y5837540D02*
G01X1000646Y5837540D01*
G01X1136688Y5695526D02*
G01X1216685Y5695526D01*
G01X1080643Y5695574D02*
G01X1000646Y5695574D01*
G01X1247661Y5806511D02*
G01X1247661Y5726506D01*
G01X969668Y5726560D02*
G01X969668Y5806562D01*
G01X1000651Y5695574D02*
G02X969668Y5726560I0J30983D01*
G01X969668Y5806557D02*
G02X1000651Y5837540I30983J0D01*
G01X1216680Y5837494D02*
G02X1247661Y5806511I-3J-30983D01*
G01X1247661Y5726514D02*
G02X1216680Y5695526I-30983J-5D01*
G54D12*
G01X2177318Y1164387D02*
G01X2177318Y1068499D01*
G01X2177318Y1068499D02*
G01X2309439Y1068499D01*
G01X2309439Y1068499D02*
G01X2309439Y1164387D01*
G01X2177318Y1249629D02*
G01X2177318Y1345517D01*
G01X2177318Y1345517D02*
G01X2309439Y1345517D01*
G01X2309439Y1345517D02*
G01X2309439Y1249629D01*
G54D14*
G01X2946309Y1786626D02*
G01X2946309Y1866623D01*
G01X2946263Y1730581D02*
G01X2946263Y1650583D01*
G01X3088277Y1786626D02*
G01X3088277Y1866623D01*
G01X3088229Y1730581D02*
G01X3088229Y1650583D01*
G01X2977291Y1897598D02*
G01X3057296Y1897598D01*
G01X3057243Y1619606D02*
G01X2977241Y1619606D01*
G01X3088229Y1650589D02*
G02X3057243Y1619606I-30983J0D01*
G01X2977246Y1619606D02*
G02X2946263Y1650589I0J30983D01*
G01X2946309Y1866618D02*
G02X2977291Y1897598I30983J-3D01*
G01X3057289Y1897598D02*
G02X3088277Y1866618I5J-30983D01*
G54D12*
G01X3870422Y5216441D02*
G01X3870422Y5312329D01*
G01X3870422Y5312329D02*
G01X3738301Y5312329D01*
G01X3738301Y5312329D02*
G01X3738301Y5216441D01*
G01X3870422Y5131199D02*
G01X3870422Y5035311D01*
G01X3870422Y5035311D02*
G01X3738301Y5035311D01*
G01X3738301Y5035311D02*
G01X3738301Y5131199D01*
G01X3666711Y4277881D02*
G01X3525711Y4277881D01*
G01X3525711Y4097160D02*
G01X3666711Y4097160D01*
G01X3681951Y4112400D02*
G01X3681951Y4262641D01*
G01X3304471Y4277881D02*
G01X3445472Y4277881D01*
G01X3445472Y4097160D02*
G01X3304471Y4097160D01*
G01X3289231Y4112400D02*
G01X3289231Y4262641D01*
G01X3666711Y4097160D02*
G03X3681951Y4112400I0J15240D01*
G01X3681951Y4262641D02*
G03X3666711Y4277881I-15240J0D01*
G01X3304471Y4097160D02*
G02X3289231Y4112400I0J15240D01*
G01X3289231Y4262641D02*
G02X3304471Y4277881I15240J0D01*
G54D14*
G01X3303674Y5471698D02*
G01X3223677Y5471698D01*
G01X3359719Y5471653D02*
G01X3439716Y5471653D01*
G01X3303674Y5613667D02*
G01X3223677Y5613667D01*
G01X3359719Y5613618D02*
G01X3439716Y5613618D01*
G01X3192701Y5502681D02*
G01X3192701Y5582686D01*
G01X3470694Y5582633D02*
G01X3470694Y5502631D01*
G01X3439711Y5613618D02*
G02X3470694Y5582633I0J-30983D01*
G01X3470694Y5502636D02*
G02X3439711Y5471653I-30983J0D01*
G01X3223682Y5471698D02*
G02X3192701Y5502681I3J30983D01*
G01X3192701Y5582679D02*
G02X3223682Y5613667I30983J5D01*
G01X1749148Y2159912D02*
G01X1829145Y2159912D01*
G01X1693103Y2159958D02*
G01X1613106Y2159958D01*
G01X1749148Y2017944D02*
G01X1829145Y2017944D01*
G01X1693103Y2017992D02*
G01X1613106Y2017992D01*
G01X1860121Y2128929D02*
G01X1860121Y2048924D01*
G01X1582128Y2048977D02*
G01X1582128Y2128980D01*
G01X1613111Y2017992D02*
G02X1582128Y2048977I0J30983D01*
G01X1582128Y2128975D02*
G02X1613111Y2159958I30983J0D01*
G01X1829140Y2159912D02*
G02X1860121Y2128929I-3J-30983D01*
G01X1860121Y2048932D02*
G02X1829140Y2017944I-30983J-5D01*
G54D15*
G01X1200000Y3564999D02*
G01X1200000Y3470001D01*
G01X1056985Y3564999D02*
G01X1000001Y3564999D01*
G01X1000001Y3564999D02*
G01X1000001Y3470001D01*
G01X1200000Y3564999D02*
G01X1143015Y3564999D01*
G01X1121984Y3434999D02*
G01X1078017Y3434999D01*
G54D12*
G01X3893109Y6231682D02*
G01X3797221Y6231682D01*
G01X3797221Y6231682D02*
G01X3797221Y6099561D01*
G01X3797221Y6099561D02*
G01X3893109Y6099561D01*
G01X3978351Y6231682D02*
G01X4074239Y6231682D01*
G01X4074239Y6231682D02*
G01X4074239Y6099561D01*
G01X4074239Y6099561D02*
G01X3978351Y6099561D01*
G54D14*
G01X520771Y5281082D02*
G01X600768Y5281082D01*
G01X464726Y5281127D02*
G01X384729Y5281127D01*
G01X520771Y5139113D02*
G01X600768Y5139113D01*
G01X464726Y5139162D02*
G01X384729Y5139162D01*
G01X631744Y5250099D02*
G01X631744Y5170094D01*
G01X353751Y5170147D02*
G01X353751Y5250150D01*
G01X384734Y5139162D02*
G02X353751Y5170147I0J30983D01*
G01X353751Y5250144D02*
G02X384734Y5281127I30983J0D01*
G01X600763Y5281082D02*
G02X631744Y5250099I-3J-30983D01*
G01X631744Y5170101D02*
G02X600763Y5139113I-30983J-5D01*
G01X5409999Y1649999D02*
G01X5409997Y1350000D01*
G01X5159997Y1649999D02*
G01X5160000Y1350000D01*
G01X5393116Y1649999D02*
G01X5409999Y1649999D01*
G01X5409999Y1649999D02*
G01X5409999Y1350000D01*
G01X5409999Y1350000D02*
G01X5393113Y1350000D01*
G01X5176886Y1350000D02*
G01X5160000Y1350000D01*
G01X5160000Y1350000D02*
G01X5160000Y1649999D01*
G01X5160000Y1649999D02*
G01X5176314Y1649999D01*
G54D12*
G01X4109131Y5480406D02*
G01X4109131Y5576293D01*
G01X4109131Y5576293D02*
G01X3977010Y5576293D01*
G01X3977010Y5576293D02*
G01X3977010Y5480406D01*
G01X4109131Y5395163D02*
G01X4109131Y5299276D01*
G01X4109131Y5299276D02*
G01X3977010Y5299276D01*
G01X3977010Y5299276D02*
G01X3977010Y5395163D01*
G54D14*
G01X628117Y2583993D02*
G01X672996Y2583993D01*
G01X672996Y2583993D02*
G01X672996Y2313993D01*
G01X281887Y1815996D02*
G01X243992Y1815996D01*
G01X243992Y1815996D02*
G01X243992Y2583993D01*
G01X243992Y2583993D02*
G01X281887Y2583993D01*
G01X679996Y2082993D02*
G01X679996Y1815996D01*
G01X679996Y1815996D02*
G01X628117Y1815996D01*
G54D12*
G01X2333226Y3295968D02*
G01X2474227Y3295968D01*
G01X2474227Y3476689D02*
G01X2333226Y3476689D01*
G01X2317986Y3461449D02*
G01X2317986Y3311208D01*
G01X2695466Y3295968D02*
G01X2554465Y3295968D01*
G01X2554465Y3476689D02*
G01X2695466Y3476689D01*
G01X2710706Y3461449D02*
G01X2710706Y3311208D01*
G01X2333226Y3476689D02*
G03X2317986Y3461449I0J-15240D01*
G01X2317986Y3311208D02*
G03X2333226Y3295968I15240J0D01*
G01X2695466Y3476688D02*
G02X2710706Y3461449I0J-15240D01*
G01X2710706Y3311208D02*
G02X2695466Y3295968I-15240J0D01*
G54D16*
G01X1560513Y2288393D02*
G01X1560513Y2313793D01*
G01X1547813Y2301093D02*
G01X1560817Y2301093D01*
G01X1560817Y2301093D02*
G01X1585913Y2313793D01*
G01X1585913Y2313793D02*
G01X1585913Y2288393D01*
G01X1585913Y2288393D02*
G01X1560736Y2300793D01*
G01X1573213Y2301093D02*
G01X1560208Y2301093D01*
G01X1560208Y2301093D02*
G01X1535113Y2288393D01*
G01X1535113Y2288393D02*
G01X1535113Y2313793D01*
G01X1535113Y2313793D02*
G01X1560289Y2301400D01*
G54D14*
G01X1645427Y2371044D02*
G01X1475425Y2371044D01*
G01X1645427Y2231045D02*
G01X1475425Y2231045D01*
G01X3072755Y2170529D02*
G01X3072755Y2090532D01*
G01X3072801Y2226574D02*
G01X3072801Y2306571D01*
G01X2930787Y2170529D02*
G01X2930787Y2090532D01*
G01X2930835Y2226574D02*
G01X2930835Y2306571D01*
G01X3041772Y2059556D02*
G01X2961767Y2059556D01*
G01X2961820Y2337549D02*
G01X3041823Y2337549D01*
G01X2930835Y2306566D02*
G02X2961820Y2337549I30983J0D01*
G01X3041818Y2337549D02*
G02X3072801Y2306566I0J-30983D01*
G01X3072755Y2090537D02*
G02X3041772Y2059556I-30983J3D01*
G01X2961775Y2059556D02*
G02X2930787Y2090537I-5J30983D01*
G01X628117Y1583992D02*
G01X672996Y1583992D01*
G01X672996Y1583992D02*
G01X672996Y1313993D01*
G01X281887Y815995D02*
G01X243992Y815995D01*
G01X243992Y815995D02*
G01X243992Y1583992D01*
G01X243992Y1583992D02*
G01X281887Y1583992D01*
G01X679996Y1082993D02*
G01X679996Y815995D01*
G01X679996Y815995D02*
G01X628117Y815995D01*
G54D12*
G01X3419551Y2989456D02*
G01X3515439Y2989456D01*
G01X3515439Y2989456D02*
G01X3515439Y3121576D01*
G01X3515439Y3121576D02*
G01X3419551Y3121576D01*
G01X3334309Y2989456D02*
G01X3238421Y2989456D01*
G01X3238421Y2989456D02*
G01X3238421Y3121576D01*
G01X3238421Y3121576D02*
G01X3334309Y3121576D01*
G01X2614879Y3077444D02*
G01X2710767Y3077444D01*
G01X2710767Y3077444D02*
G01X2710767Y3209564D01*
G01X2710767Y3209564D02*
G01X2614879Y3209564D01*
G01X2529637Y3077444D02*
G01X2433749Y3077444D01*
G01X2433749Y3077444D02*
G01X2433749Y3209564D01*
G01X2433749Y3209564D02*
G01X2529637Y3209564D01*
G54D15*
G01X2866245Y2355317D02*
G01X2866245Y2507717D01*
G01X2454445Y2355317D02*
G01X2454445Y2507717D01*
G54D12*
G01X2482545Y2329917D02*
G01X2609545Y2329917D01*
G01X2838145Y2329917D02*
G01X2714805Y2329917D01*
G01X2711145Y2533117D02*
G01X2838145Y2533117D01*
G01X2609545Y2533117D02*
G01X2482545Y2533117D01*
G54D15*
G01X2660345Y2431517D02*
G02X2660345Y2469617I0J19050D01*
G01X2660345Y2431517D02*
G02X2660345Y2393417I0J-19050D01*
G54D12*
G01X3978351Y7191964D02*
G01X4074239Y7191964D01*
G01X4074239Y7191964D02*
G01X4074239Y7324085D01*
G01X4074239Y7324085D02*
G01X3978351Y7324085D01*
G01X3893109Y7191964D02*
G01X3797221Y7191964D01*
G01X3797221Y7191964D02*
G01X3797221Y7324085D01*
G01X3797221Y7324085D02*
G01X3893109Y7324085D01*
G54D14*
G01X256883Y3475015D02*
G01X202494Y3475015D01*
G01X202494Y3475015D02*
G01X202494Y3586884D01*
G01X263990Y4974707D02*
G01X200490Y4974707D01*
G01X200490Y4974707D02*
G01X200490Y4822307D01*
G01X719993Y5080008D02*
G01X594190Y5080008D01*
G01X719993Y3319973D02*
G01X594190Y3319973D01*
G01X719993Y3319973D02*
G01X719993Y5080008D01*
G01X589999Y3598121D02*
G01X589999Y4801911D01*
G54D12*
G01X1987212Y4095730D02*
G01X1987212Y3820485D01*
G01X1987212Y3820485D02*
G01X1967908Y3820485D01*
G01X1811967Y4095730D02*
G01X1811967Y3820485D01*
G01X1811967Y3820485D02*
G01X1831271Y3820485D01*
G01X1987212Y4049786D02*
G01X1811967Y4049786D01*
G36*
G01X1994830Y4088107D02*
G01X1962831Y4088107D01*
G01X1962831Y4118587D01*
G01X1994830Y4118587D01*
G01X1994830Y4088107D01*
G37*
G36*
G01X1804350Y4088107D02*
G01X1804350Y4118587D01*
G01X1836349Y4118587D01*
G01X1836349Y4088107D01*
G01X1804350Y4088107D01*
G37*
G01X1958828Y1164387D02*
G01X1958828Y1068499D01*
G01X1958828Y1068499D02*
G01X2090948Y1068499D01*
G01X2090948Y1068499D02*
G01X2090948Y1164387D01*
G01X1958828Y1249629D02*
G01X1958828Y1345517D01*
G01X1958828Y1345517D02*
G01X2090948Y1345517D01*
G01X2090948Y1345517D02*
G01X2090948Y1249629D01*
G01X3666711Y3743719D02*
G01X3525711Y3743719D01*
G01X3525711Y3562998D02*
G01X3666711Y3562998D01*
G01X3681951Y3578238D02*
G01X3681951Y3728479D01*
G01X3304471Y3743719D02*
G01X3445472Y3743719D01*
G01X3445472Y3562998D02*
G01X3304471Y3562998D01*
G01X3289231Y3578238D02*
G01X3289231Y3728479D01*
G01X3666711Y3562998D02*
G03X3681951Y3578238I0J15240D01*
G01X3681951Y3728479D02*
G03X3666711Y3743719I-15240J0D01*
G01X3304471Y3562998D02*
G02X3289231Y3578238I0J15240D01*
G01X3289231Y3728479D02*
G02X3304471Y3743719I15240J0D01*
G54D14*
G01X1393548Y2134479D02*
G01X1473545Y2134479D01*
G01X1337503Y2134525D02*
G01X1257506Y2134525D01*
G01X1393548Y1992511D02*
G01X1473545Y1992511D01*
G01X1337503Y1992559D02*
G01X1257506Y1992559D01*
G01X1504521Y2103496D02*
G01X1504521Y2023491D01*
G01X1226528Y2023544D02*
G01X1226528Y2103547D01*
G01X1257511Y1992559D02*
G02X1226528Y2023544I0J30983D01*
G01X1226528Y2103542D02*
G02X1257511Y2134525I30983J0D01*
G01X1473540Y2134479D02*
G02X1504521Y2103496I-3J-30983D01*
G01X1504521Y2023499D02*
G02X1473540Y1992511I-30983J-5D01*
G01X1942800Y77721D02*
G01X1942800Y-74679D01*
G01X1942800Y-74679D02*
G01X2857200Y-74679D01*
G01X2857200Y-74679D02*
G01X2857200Y77721D01*
G01X1942805Y477766D02*
G01X1942805Y312666D01*
G01X2857205Y477766D02*
G01X2857205Y312666D01*
G54D12*
G01X1009714Y4109687D02*
G01X1009714Y3968687D01*
G01X1190435Y3968687D02*
G01X1190435Y4109687D01*
G01X1175195Y4124927D02*
G01X1024954Y4124927D01*
G01X1009714Y3747447D02*
G01X1009714Y3888448D01*
G01X1190435Y3888448D02*
G01X1190435Y3747447D01*
G01X1175195Y3732207D02*
G01X1024954Y3732207D01*
G01X1190435Y4109687D02*
G03X1175195Y4124927I-15240J0D01*
G01X1024954Y4124927D02*
G03X1009714Y4109687I0J-15240D01*
G01X1190435Y3747447D02*
G02X1175195Y3732207I-15240J0D01*
G01X1024954Y3732207D02*
G02X1009714Y3747447I0J15240D01*
G54D14*
G01X1615285Y4733961D02*
G01X1535288Y4733961D01*
G01X1671330Y4733915D02*
G01X1751327Y4733915D01*
G01X1615285Y4875929D02*
G01X1535288Y4875929D01*
G01X1671330Y4875881D02*
G01X1751327Y4875881D01*
G01X1504312Y4764943D02*
G01X1504312Y4844948D01*
G01X1782305Y4844895D02*
G01X1782305Y4764893D01*
G01X1751322Y4875881D02*
G02X1782305Y4844895I0J-30983D01*
G01X1782305Y4764898D02*
G02X1751322Y4733915I-30983J0D01*
G01X1535293Y4733961D02*
G02X1504312Y4764943I3J30983D01*
G01X1504312Y4844941D02*
G02X1535293Y4875929I30983J5D01*
G54D16*
G01X2791082Y811733D02*
G01X2696068Y811479D01*
G01X2744394Y799033D02*
G01X2744394Y824433D01*
G01X2757094Y811733D02*
G01X2744089Y811733D01*
G01X2744089Y811733D02*
G01X2718994Y799033D01*
G01X2718994Y799033D02*
G01X2718994Y824433D01*
G01X2718994Y824433D02*
G01X2744170Y812038D01*
G01X2731694Y811733D02*
G01X2744699Y811733D01*
G01X2744699Y811733D02*
G01X2769794Y824433D01*
G01X2769794Y824433D02*
G01X2769794Y799033D01*
G01X2769794Y799033D02*
G01X2744617Y811428D01*
G54D12*
G01X2696068Y884354D02*
G01X2696068Y739112D01*
G01X2791082Y884354D02*
G01X2791082Y739112D01*
G01X2654275Y739112D02*
G01X2834513Y739112D01*
G01X2654275Y884354D02*
G01X2654275Y856554D01*
G01X2654275Y739112D02*
G01X2654275Y766912D01*
G01X2834513Y739112D02*
G01X2834513Y766912D01*
G01X2654275Y884354D02*
G01X2834513Y884354D01*
G01X2834513Y884354D02*
G01X2834513Y856554D01*
G01X4130129Y3498604D02*
G01X4130129Y3639604D01*
G01X3949408Y3639604D02*
G01X3949408Y3498604D01*
G01X3964648Y3483364D02*
G01X4114889Y3483364D01*
G01X4130129Y3860843D02*
G01X4130129Y3719843D01*
G01X3949408Y3719843D02*
G01X3949408Y3860843D01*
G01X3964648Y3876083D02*
G01X4114889Y3876083D01*
G01X3949408Y3498604D02*
G03X3964648Y3483364I15240J0D01*
G01X4114889Y3483364D02*
G03X4130129Y3498604I0J15240D01*
G01X3949408Y3860843D02*
G02X3964648Y3876083I15240J0D01*
G01X4114889Y3876083D02*
G02X4130129Y3860843I0J-15240D01*
G01X3893109Y6450173D02*
G01X3797221Y6450173D01*
G01X3797221Y6450173D02*
G01X3797221Y6318052D01*
G01X3797221Y6318052D02*
G01X3893109Y6318052D01*
G01X3978351Y6450173D02*
G01X4074239Y6450173D01*
G01X4074239Y6450173D02*
G01X4074239Y6318052D01*
G01X4074239Y6318052D02*
G01X3978351Y6318052D01*
G01X2614275Y1164387D02*
G01X2614275Y1068499D01*
G01X2614275Y1068499D02*
G01X2746395Y1068499D01*
G01X2746395Y1068499D02*
G01X2746395Y1164387D01*
G01X2614275Y1249629D02*
G01X2614275Y1345517D01*
G01X2614275Y1345517D02*
G01X2746395Y1345517D01*
G01X2746395Y1345517D02*
G01X2746395Y1249629D01*
G01X3666711Y4544962D02*
G01X3525711Y4544962D01*
G01X3525711Y4364241D02*
G01X3666711Y4364241D01*
G01X3681951Y4379481D02*
G01X3681951Y4529722D01*
G01X3304471Y4544962D02*
G01X3445472Y4544962D01*
G01X3445472Y4364241D02*
G01X3304471Y4364241D01*
G01X3289231Y4379481D02*
G01X3289231Y4529722D01*
G01X3666711Y4364241D02*
G03X3681951Y4379481I0J15240D01*
G01X3681951Y4529722D02*
G03X3666711Y4544962I-15240J0D01*
G01X3304471Y4364241D02*
G02X3289231Y4379481I0J15240D01*
G01X3289231Y4529722D02*
G02X3304471Y4544962I15240J0D01*
G01X2346803Y2675522D02*
G01X2346803Y2771409D01*
G01X2346803Y2771409D02*
G01X2214682Y2771409D01*
G01X2214682Y2771409D02*
G01X2214682Y2675522D01*
G01X2346803Y2590279D02*
G01X2346803Y2494392D01*
G01X2346803Y2494392D02*
G01X2214682Y2494392D01*
G01X2214682Y2494392D02*
G01X2214682Y2590279D01*
G54D17*
G01X875401Y6124217D02*
G01X875401Y6144837D01*
G01X875401Y6144837D02*
G01X460157Y6144837D01*
G01X460157Y6144837D02*
G01X460400Y6125218D01*
G01X461401Y5745218D02*
G01X461391Y5725668D01*
G01X461391Y5725668D02*
G01X876681Y5725668D01*
G01X876681Y5725668D02*
G01X876402Y5747217D01*
G54D12*
G01X3905123Y5954542D02*
G01X3809235Y5954542D01*
G01X3809235Y5954542D02*
G01X3809235Y5822422D01*
G01X3809235Y5822422D02*
G01X3905123Y5822422D01*
G01X3990365Y5954542D02*
G01X4086253Y5954542D01*
G01X4086253Y5954542D02*
G01X4086253Y5822422D01*
G01X4086253Y5822422D02*
G01X3990365Y5822422D01*
G01X2250077Y4095730D02*
G01X2250077Y3820485D01*
G01X2250077Y3820485D02*
G01X2230773Y3820485D01*
G01X2074832Y4095730D02*
G01X2074832Y3820485D01*
G01X2074832Y3820485D02*
G01X2094136Y3820485D01*
G01X2250077Y4049786D02*
G01X2074832Y4049786D01*
G36*
G01X2257694Y4088107D02*
G01X2225695Y4088107D01*
G01X2225695Y4118587D01*
G01X2257694Y4118587D01*
G01X2257694Y4088107D01*
G37*
G36*
G01X2067215Y4088107D02*
G01X2067215Y4118587D01*
G01X2099213Y4118587D01*
G01X2099213Y4088107D01*
G01X2067215Y4088107D01*
G37*
G01X2201609Y2431941D02*
G01X2201609Y2290940D01*
G01X2382330Y2290940D02*
G01X2382330Y2431941D01*
G01X2367090Y2447181D02*
G01X2216849Y2447181D01*
G01X2201609Y2069701D02*
G01X2201609Y2210702D01*
G01X2382330Y2210702D02*
G01X2382330Y2069701D01*
G01X2367090Y2054461D02*
G01X2216849Y2054461D01*
G01X2382330Y2431941D02*
G03X2367090Y2447181I-15240J0D01*
G01X2216849Y2447181D02*
G03X2201608Y2431941I0J-15240D01*
G01X2382330Y2069701D02*
G02X2367090Y2054461I-15240J0D01*
G01X2216849Y2054461D02*
G02X2201609Y2069701I0J15240D01*
G01X1934528Y2431941D02*
G01X1934528Y2290940D01*
G01X2115249Y2290940D02*
G01X2115249Y2431941D01*
G01X2100009Y2447181D02*
G01X1949768Y2447181D01*
G01X1934528Y2069701D02*
G01X1934528Y2210702D01*
G01X2115249Y2210702D02*
G01X2115249Y2069701D01*
G01X2100009Y2054461D02*
G01X1949768Y2054461D01*
G01X2115249Y2431941D02*
G03X2100009Y2447181I-15240J0D01*
G01X1949768Y2447181D02*
G03X1934528Y2431941I0J-15240D01*
G01X2115249Y2069701D02*
G02X2100009Y2054461I-15240J0D01*
G01X1949768Y2054461D02*
G02X1934528Y2069701I0J15240D01*
G01X1680362Y4967356D02*
G01X1776250Y4967356D01*
G01X1776250Y4967356D02*
G01X1776250Y5099477D01*
G01X1776250Y5099477D02*
G01X1680362Y5099477D01*
G01X1595120Y4967356D02*
G01X1499232Y4967356D01*
G01X1499232Y4967356D02*
G01X1499232Y5099477D01*
G01X1499232Y5099477D02*
G01X1595120Y5099477D01*
G01X3978351Y7628946D02*
G01X4074239Y7628946D01*
G01X4074239Y7628946D02*
G01X4074239Y7761067D01*
G01X4074239Y7761067D02*
G01X3978351Y7761067D01*
G01X3893109Y7628946D02*
G01X3797221Y7628946D01*
G01X3797221Y7628946D02*
G01X3797221Y7761067D01*
G01X3797221Y7761067D02*
G01X3893109Y7761067D01*
G54D14*
G01X2732900Y5573298D02*
G01X3032900Y5573296D01*
G01X2732900Y5323296D02*
G01X3032900Y5323299D01*
G01X2732900Y5556415D02*
G01X2732900Y5573298D01*
G01X2732900Y5573298D02*
G01X3032900Y5573298D01*
G01X3032900Y5573298D02*
G01X3032900Y5556413D01*
G01X3032900Y5340185D02*
G01X3032900Y5323299D01*
G01X3032900Y5323299D02*
G01X2732900Y5323299D01*
G01X2732900Y5323299D02*
G01X2732900Y5339613D01*
G54D12*
G01X3347659Y2278197D02*
G01X3347659Y2406691D01*
G01X3164241Y2406691D01*
G01X3164241Y2278197D01*
G01X3347659Y2182957D02*
G01X3347659Y2054464D01*
G01X3164241Y2054464D01*
G01X3164241Y2182957D01*
G54D14*
G01X2570528Y1806941D02*
G01X2490531Y1806941D01*
G01X2626573Y1806895D02*
G01X2706571Y1806895D01*
G01X2570528Y1948909D02*
G01X2490531Y1948909D01*
G01X2626573Y1948861D02*
G01X2706571Y1948861D01*
G01X2459556Y1837924D02*
G01X2459556Y1917929D01*
G01X2737549Y1917875D02*
G01X2737549Y1837873D01*
G01X2706566Y1948861D02*
G02X2737549Y1917875I0J-30983D01*
G01X2737549Y1837878D02*
G02X2706566Y1806895I-30983J0D01*
G01X2490536Y1806941D02*
G02X2459556Y1837924I3J30983D01*
G01X2459556Y1917921D02*
G02X2490536Y1948909I30983J5D01*
G54D12*
G01X3242755Y3762568D02*
G01X3242755Y3903569D01*
G01X3062034Y3903569D02*
G01X3062034Y3762568D01*
G01X3077274Y3747328D02*
G01X3227515Y3747328D01*
G01X3242755Y4124808D02*
G01X3242755Y3983807D01*
G01X3062034Y3983807D02*
G01X3062034Y4124808D01*
G01X3077274Y4140048D02*
G01X3227515Y4140048D01*
G01X3062034Y3762568D02*
G03X3077274Y3747328I15240J0D01*
G01X3227515Y3747328D02*
G03X3242754Y3762568I0J15240D01*
G01X3062033Y4124808D02*
G02X3077274Y4140048I15240J0D01*
G01X3227515Y4140048D02*
G02X3242755Y4124808I0J-15240D01*
G01X2638102Y4097160D02*
G01X2779103Y4097160D01*
G01X2779103Y4277881D02*
G01X2638102Y4277881D01*
G01X2622862Y4262641D02*
G01X2622862Y4112400D01*
G01X3000342Y4097160D02*
G01X2859342Y4097160D01*
G01X2859342Y4277881D02*
G01X3000342Y4277881D01*
G01X3015582Y4262641D02*
G01X3015582Y4112400D01*
G01X2638102Y4277881D02*
G03X2622862Y4262641I0J-15240D01*
G01X2622862Y4112400D02*
G03X2638102Y4097160I15240J0D01*
G01X3000342Y4277881D02*
G02X3015582Y4262641I0J-15240D01*
G01X3015582Y4112400D02*
G02X3000342Y4097160I-15240J0D01*
G01X4455013Y3376041D02*
G01X4455013Y3280153D01*
G01X4455013Y3280153D02*
G01X4587133Y3280153D01*
G01X4587133Y3280153D02*
G01X4587133Y3376041D01*
G01X4455013Y3461283D02*
G01X4455013Y3557171D01*
G01X4455013Y3557171D02*
G01X4587133Y3557171D01*
G01X4587133Y3557171D02*
G01X4587133Y3461283D01*
G01X3666711Y5317655D02*
G01X3525711Y5317655D01*
G01X3525711Y5136934D02*
G01X3666711Y5136934D01*
G01X3681951Y5152174D02*
G01X3681951Y5302415D01*
G01X3304471Y5317655D02*
G01X3445472Y5317655D01*
G01X3445472Y5136934D02*
G01X3304471Y5136934D01*
G01X3289231Y5152174D02*
G01X3289231Y5302415D01*
G01X3666711Y5136934D02*
G03X3681951Y5152174I0J15240D01*
G01X3681951Y5302415D02*
G03X3666711Y5317655I-15240J0D01*
G01X3304471Y5136934D02*
G02X3289231Y5152174I0J15240D01*
G01X3289231Y5302415D02*
G02X3304471Y5317655I15240J0D01*
G01X3196102Y294640D02*
G01X3196102Y390528D01*
G01X3196102Y390528D02*
G01X3063982Y390528D01*
G01X3063982Y390528D02*
G01X3063982Y294640D01*
G01X3196102Y209398D02*
G01X3196102Y113510D01*
G01X3196102Y113510D02*
G01X3063982Y113510D01*
G01X3063982Y113510D02*
G01X3063982Y209398D01*
G01X1543876Y4109687D02*
G01X1543876Y3968687D01*
G01X1724597Y3968687D02*
G01X1724597Y4109687D01*
G01X1709357Y4124927D02*
G01X1559116Y4124927D01*
G01X1543876Y3747447D02*
G01X1543876Y3888448D01*
G01X1724597Y3888448D02*
G01X1724597Y3747447D01*
G01X1709357Y3732207D02*
G01X1559116Y3732207D01*
G01X1724596Y4109687D02*
G03X1709357Y4124927I-15240J0D01*
G01X1559116Y4124927D02*
G03X1543876Y4109687I0J-15240D01*
G01X1724597Y3747447D02*
G02X1709357Y3732207I-15240J0D01*
G01X1559116Y3732207D02*
G02X1543876Y3747447I0J15240D01*
G54D14*
G01X5409999Y4349999D02*
G01X5409997Y4050000D01*
G01X5159997Y4349999D02*
G01X5160000Y4050000D01*
G01X5393116Y4349999D02*
G01X5409999Y4349999D01*
G01X5409999Y4349999D02*
G01X5409999Y4050000D01*
G01X5409999Y4050000D02*
G01X5393113Y4050000D01*
G01X5176886Y4050000D02*
G01X5160000Y4050000D01*
G01X5160000Y4050000D02*
G01X5160000Y4349999D01*
G01X5160000Y4349999D02*
G01X5176314Y4349999D01*
G01X2914383Y3344316D02*
G01X2849997Y3344316D01*
G01X2849997Y3081617D02*
G01X2889380Y3081617D01*
G01X3110606Y3081617D02*
G01X3149996Y3081617D01*
G01X3149996Y3081617D02*
G01X3149996Y3098495D01*
G01X3149996Y3332429D02*
G01X3149996Y3344316D01*
G01X3149996Y3344316D02*
G01X3085610Y3344316D01*
G01X2849997Y3344316D02*
G01X2849997Y3332429D01*
G01X2849997Y3098495D02*
G01X2849997Y3081617D01*
G54D12*
G01X2638102Y3830079D02*
G01X2779103Y3830079D01*
G01X2779103Y4010800D02*
G01X2638102Y4010800D01*
G01X2622862Y3995560D02*
G01X2622862Y3845319D01*
G01X3000342Y3830079D02*
G01X2859342Y3830079D01*
G01X2859342Y4010800D02*
G01X3000342Y4010800D01*
G01X3015582Y3995560D02*
G01X3015582Y3845319D01*
G01X2638102Y4010800D02*
G03X2622862Y3995560I0J-15240D01*
G01X2622862Y3845319D02*
G03X2638102Y3830079I15240J0D01*
G01X3000342Y4010800D02*
G02X3015582Y3995560I0J-15240D01*
G01X3015582Y3845319D02*
G02X3000342Y3830079I-15240J0D01*
G01X624898Y5396146D02*
G01X765899Y5396146D01*
G01X765899Y5576867D02*
G01X624898Y5576867D01*
G01X609658Y5561627D02*
G01X609658Y5411386D01*
G01X987138Y5396146D02*
G01X846138Y5396146D01*
G01X846138Y5576867D02*
G01X987138Y5576867D01*
G01X1002378Y5561627D02*
G01X1002378Y5411386D01*
G01X624898Y5576867D02*
G03X609658Y5561627I0J-15240D01*
G01X609658Y5411386D02*
G03X624898Y5396146I15240J0D01*
G01X987138Y5576867D02*
G02X1002378Y5561627I0J-15240D01*
G01X1002378Y5411386D02*
G02X987138Y5396146I-15240J0D01*
G01X1680362Y5185847D02*
G01X1776250Y5185847D01*
G01X1776250Y5185847D02*
G01X1776250Y5317968D01*
G01X1776250Y5317968D02*
G01X1680362Y5317968D01*
G01X1595120Y5185847D02*
G01X1499232Y5185847D01*
G01X1499232Y5185847D02*
G01X1499232Y5317968D01*
G01X1499232Y5317968D02*
G01X1595120Y5317968D01*
G01X2493498Y5090363D02*
G01X2493498Y4994476D01*
G01X2493498Y4994476D02*
G01X2625618Y4994476D01*
G01X2625618Y4994476D02*
G01X2625618Y5090363D01*
G01X2493498Y5175606D02*
G01X2493498Y5271493D01*
G01X2493498Y5271493D02*
G01X2625618Y5271493D01*
G01X2625618Y5271493D02*
G01X2625618Y5175606D01*
G54D14*
G01X3405274Y4903531D02*
G01X3325277Y4903531D01*
G01X3461319Y4903485D02*
G01X3541316Y4903485D01*
G01X3405274Y5045499D02*
G01X3325277Y5045499D01*
G01X3461319Y5045451D02*
G01X3541316Y5045451D01*
G01X3294301Y4934514D02*
G01X3294301Y5014519D01*
G01X3572294Y5014465D02*
G01X3572294Y4934463D01*
G01X3541311Y5045451D02*
G02X3572294Y5014465I0J-30983D01*
G01X3572294Y4934468D02*
G02X3541311Y4903485I-30983J0D01*
G01X3325282Y4903531D02*
G02X3294301Y4934514I3J30983D01*
G01X3294301Y5014511D02*
G02X3325282Y5045499I30983J5D01*
G01X3919205Y3303516D02*
G01X3919205Y3383514D01*
G01X3919159Y3247471D02*
G01X3919159Y3167474D01*
G01X4061173Y3303516D02*
G01X4061173Y3383514D01*
G01X4061125Y3247471D02*
G01X4061125Y3167474D01*
G01X3950188Y3414489D02*
G01X4030193Y3414489D01*
G01X4030139Y3136496D02*
G01X3950137Y3136496D01*
G01X4061125Y3167479D02*
G02X4030139Y3136496I-30983J0D01*
G01X3950142Y3136496D02*
G02X3919159Y3167479I0J30983D01*
G01X3919205Y3383509D02*
G02X3950188Y3414489I30983J-3D01*
G01X4030185Y3414489D02*
G02X4061173Y3383509I5J-30983D01*
G01X3370600Y1635003D02*
G01X3256300Y1635003D01*
G01X3256300Y1635003D02*
G01X3256300Y9403D01*
G01X3256300Y9403D02*
G01X3269000Y9403D01*
G01X3269000Y9403D02*
G01X4767600Y9403D01*
G01X4767600Y9403D02*
G01X4767600Y1635003D01*
G01X4767600Y1635003D02*
G01X4513600Y1635003D01*
G36*
G01X3390001Y50002D02*
G01X3390001Y880001D01*
G01X4509999Y880001D01*
G01X4519999Y50002D01*
G01X4479999Y50002D01*
G01X4479999Y850001D01*
G01X3420001Y850001D01*
G01X3420001Y50002D01*
G01X3390001Y50002D01*
G37*
G01X3479716Y7685535D02*
G01X3479716Y8173994D01*
G01X3479716Y8173994D02*
G01X3256196Y8173994D01*
G01X3276516Y7685535D02*
G01X3276516Y8173994D01*
G01X3276516Y8173994D02*
G01X2991300Y8173994D01*
G01X2991300Y8173994D02*
G01X2991300Y7958094D01*
G01X2991300Y7958094D02*
G01X2737300Y7958094D01*
G01X2737300Y7958094D02*
G01X2737300Y8173994D01*
G01X2737300Y8173994D02*
G01X2483300Y8173994D01*
G01X2483300Y8173994D02*
G01X2483300Y7958094D01*
G01X2483300Y7958094D02*
G01X2254700Y7958094D01*
G01X2254700Y7958094D02*
G01X2254700Y8173994D01*
G01X2254700Y8173994D02*
G01X2026100Y8173994D01*
G01X2026100Y8173994D02*
G01X2026100Y7805694D01*
G01X1849999Y7685535D02*
G01X3651700Y7685535D01*
G01X3651700Y7607610D02*
G01X3651700Y8288294D01*
G01X3516615Y5735594D02*
G01X3651700Y5735594D01*
G01X3651700Y5735594D02*
G01X3651700Y5820380D01*
G01X1849999Y5820380D02*
G01X1849999Y5735594D01*
G01X1849999Y5735594D02*
G01X1983384Y5735594D01*
G01X1849999Y8289496D02*
G01X1849999Y7607610D01*
G01X3650000Y8289496D02*
G01X1849999Y8289496D01*
G36*
G01X1997144Y7559998D02*
G02X2102858Y7559998I52857J0D01*
G02X1997144Y7559998I-52857J0D01*
G37*
G54D15*
G01X2866245Y2065757D02*
G01X2866245Y2218157D01*
G01X2454445Y2065757D02*
G01X2454445Y2218157D01*
G54D12*
G01X2482545Y2040357D02*
G01X2609545Y2040357D01*
G01X2838145Y2040357D02*
G01X2714805Y2040357D01*
G01X2711145Y2243557D02*
G01X2838145Y2243557D01*
G01X2609545Y2243557D02*
G01X2482545Y2243557D01*
G54D15*
G01X2660345Y2141957D02*
G02X2660345Y2180057I0J19050D01*
G01X2660345Y2141957D02*
G02X2660345Y2103857I0J-19050D01*
G54D12*
G01X3978351Y6973499D02*
G01X4074239Y6973499D01*
G01X4074239Y6973499D02*
G01X4074239Y7105620D01*
G01X4074239Y7105620D02*
G01X3978351Y7105620D01*
G01X3893109Y6973499D02*
G01X3797221Y6973499D01*
G01X3797221Y6973499D02*
G01X3797221Y7105620D01*
G01X3797221Y7105620D02*
G01X3893109Y7105620D01*
G54D14*
G01X4221617Y3452269D02*
G01X4221617Y3532266D01*
G01X4221571Y3396224D02*
G01X4221571Y3316227D01*
G01X4363585Y3452269D02*
G01X4363585Y3532266D01*
G01X4363537Y3396224D02*
G01X4363537Y3316227D01*
G01X4252600Y3563242D02*
G01X4332605Y3563242D01*
G01X4332552Y3285249D02*
G01X4252549Y3285249D01*
G01X4363537Y3316232D02*
G02X4332552Y3285249I-30983J0D01*
G01X4252554Y3285249D02*
G02X4221571Y3316232I0J30983D01*
G01X4221617Y3532261D02*
G02X4252600Y3563242I30983J-3D01*
G01X4332597Y3563242D02*
G02X4363585Y3532261I5J-30983D01*
G54D15*
G01X1301006Y2640279D02*
G01X1301006Y2487879D01*
G01X1712806Y2640279D02*
G01X1712806Y2487879D01*
G54D12*
G01X1684706Y2665679D02*
G01X1557706Y2665679D01*
G01X1329106Y2665679D02*
G01X1452446Y2665679D01*
G01X1456106Y2462479D02*
G01X1329106Y2462479D01*
G01X1557706Y2462479D02*
G01X1684706Y2462479D01*
G54D15*
G01X1506906Y2564079D02*
G02X1506906Y2525979I0J-19050D01*
G01X1506906Y2564079D02*
G02X1506906Y2602179I0J19050D01*
G54D12*
G01X777298Y5154498D02*
G01X918299Y5154498D01*
G01X918299Y5335219D02*
G01X777298Y5335219D01*
G01X762058Y5319979D02*
G01X762058Y5169738D01*
G01X1139538Y5154498D02*
G01X998538Y5154498D01*
G01X998538Y5335219D02*
G01X1139538Y5335219D01*
G01X1154778Y5319979D02*
G01X1154778Y5169738D01*
G01X777298Y5335219D02*
G03X762058Y5319979I0J-15240D01*
G01X762058Y5169738D02*
G03X777298Y5154498I15240J0D01*
G01X1139538Y5335219D02*
G02X1154778Y5319979I0J-15240D01*
G01X1154778Y5169738D02*
G02X1139538Y5154498I-15240J0D01*
G54D14*
G01X1110000Y5054991D02*
G01X1290003Y5054991D01*
G01X1110000Y4744989D02*
G01X1290003Y4744989D01*
G54D16*
G01X1584074Y5888482D02*
G01X1489060Y5888228D01*
G01X1537386Y5875782D02*
G01X1537386Y5901182D01*
G01X1550086Y5888482D02*
G01X1537081Y5888482D01*
G01X1537081Y5888482D02*
G01X1511986Y5875782D01*
G01X1511986Y5875782D02*
G01X1511986Y5901182D01*
G01X1511986Y5901182D02*
G01X1537162Y5888787D01*
G01X1524686Y5888482D02*
G01X1537691Y5888482D01*
G01X1537691Y5888482D02*
G01X1562786Y5901182D01*
G01X1562786Y5901182D02*
G01X1562786Y5875782D01*
G01X1562786Y5875782D02*
G01X1537609Y5888177D01*
G54D12*
G01X1489060Y5961103D02*
G01X1489060Y5815861D01*
G01X1584074Y5961103D02*
G01X1584074Y5815861D01*
G01X1447267Y5815861D02*
G01X1627505Y5815861D01*
G01X1447267Y5961103D02*
G01X1447267Y5933303D01*
G01X1447267Y5815861D02*
G01X1447267Y5843661D01*
G01X1627505Y5815861D02*
G01X1627505Y5843661D01*
G01X1447267Y5961103D02*
G01X1627505Y5961103D01*
G01X1627505Y5961103D02*
G01X1627505Y5933303D01*
G01X1680362Y5404338D02*
G01X1776250Y5404338D01*
G01X1776250Y5404338D02*
G01X1776250Y5536458D01*
G01X1776250Y5536458D02*
G01X1680362Y5536458D01*
G01X1595120Y5404338D02*
G01X1499232Y5404338D01*
G01X1499232Y5404338D02*
G01X1499232Y5536458D01*
G01X1499232Y5536458D02*
G01X1595120Y5536458D01*
G54D14*
G01X5409999Y7049999D02*
G01X5409997Y6749999D01*
G01X5159997Y7049999D02*
G01X5160000Y6749999D01*
G01X5393116Y7049999D02*
G01X5409999Y7049999D01*
G01X5409999Y7049999D02*
G01X5409999Y6749999D01*
G01X5409999Y6749999D02*
G01X5393113Y6749999D01*
G01X5176886Y6749999D02*
G01X5160000Y6749999D01*
G01X5160000Y6749999D02*
G01X5160000Y7049999D01*
G01X5160000Y7049999D02*
G01X5176314Y7049999D01*
G54D12*
G01X968990Y3086659D02*
G01X968990Y2990771D01*
G01X968990Y2990771D02*
G01X1101110Y2990771D01*
G01X1101110Y2990771D02*
G01X1101110Y3086659D01*
G01X968990Y3171901D02*
G01X968990Y3267789D01*
G01X968990Y3267789D02*
G01X1101110Y3267789D01*
G01X1101110Y3267789D02*
G01X1101110Y3171901D01*
G01X2638102Y3562998D02*
G01X2779103Y3562998D01*
G01X2779103Y3743719D02*
G01X2638102Y3743719D01*
G01X2622862Y3728479D02*
G01X2622862Y3578238D01*
G01X3000342Y3562998D02*
G01X2859342Y3562998D01*
G01X2859342Y3743719D02*
G01X3000342Y3743719D01*
G01X3015582Y3728479D02*
G01X3015582Y3578238D01*
G01X2638102Y3743719D02*
G03X2622862Y3728479I0J-15240D01*
G01X2622862Y3578238D02*
G03X2638102Y3562998I15240J0D01*
G01X3000342Y3743719D02*
G02X3015582Y3728479I0J-15240D01*
G01X3015582Y3578238D02*
G02X3000342Y3562998I-15240J0D01*
G01X3978351Y6536543D02*
G01X4074239Y6536543D01*
G01X4074239Y6536543D02*
G01X4074239Y6668663D01*
G01X4074239Y6668663D02*
G01X3978351Y6668663D01*
G01X3893109Y6536543D02*
G01X3797221Y6536543D01*
G01X3797221Y6536543D02*
G01X3797221Y6668663D01*
G01X3797221Y6668663D02*
G01X3893109Y6668663D01*
G54D13*
G01X4403987Y2453002D02*
G01X4398985Y2453002D01*
G01X4403987Y2453010D02*
G01X4403987Y2489004D01*
G01X4232016Y2627003D02*
G01X4232016Y2590996D01*
G01X4232016Y2627003D02*
G01X4237012Y2627003D01*
G01X4232001Y2453010D02*
G01X4232001Y2489004D01*
G01X4232001Y2453010D02*
G01X4236994Y2453010D01*
G01X4403987Y2627003D02*
G01X4398993Y2627003D01*
G01X4403987Y2627003D02*
G01X4403987Y2590996D01*
G54D12*
G01X4181551Y7847411D02*
G01X4277439Y7847411D01*
G01X4277439Y7847411D02*
G01X4277439Y7979532D01*
G01X4277439Y7979532D02*
G01X4181551Y7979532D01*
G01X4096309Y7847411D02*
G01X4000421Y7847411D01*
G01X4000421Y7847411D02*
G01X4000421Y7979532D01*
G01X4000421Y7979532D02*
G01X4096309Y7979532D01*
G54D16*
G01X1584074Y6338570D02*
G01X1489060Y6338316D01*
G01X1537386Y6325870D02*
G01X1537386Y6351270D01*
G01X1550086Y6338570D02*
G01X1537081Y6338570D01*
G01X1537081Y6338570D02*
G01X1511986Y6325870D01*
G01X1511986Y6325870D02*
G01X1511986Y6351270D01*
G01X1511986Y6351270D02*
G01X1537162Y6338875D01*
G01X1524686Y6338570D02*
G01X1537691Y6338570D01*
G01X1537691Y6338570D02*
G01X1562786Y6351270D01*
G01X1562786Y6351270D02*
G01X1562786Y6325870D01*
G01X1562786Y6325870D02*
G01X1537609Y6338265D01*
G54D12*
G01X1489060Y6411191D02*
G01X1489060Y6265949D01*
G01X1584074Y6411191D02*
G01X1584074Y6265949D01*
G01X1447267Y6265949D02*
G01X1627505Y6265949D01*
G01X1447267Y6411191D02*
G01X1447267Y6383391D01*
G01X1447267Y6265949D02*
G01X1447267Y6293749D01*
G01X1627505Y6265949D02*
G01X1627505Y6293749D01*
G01X1447267Y6411191D02*
G01X1627505Y6411191D01*
G01X1627505Y6411191D02*
G01X1627505Y6383391D01*
G01X3666711Y4010800D02*
G01X3525711Y4010800D01*
G01X3525711Y3830079D02*
G01X3666711Y3830079D01*
G01X3681951Y3845319D02*
G01X3681951Y3995560D01*
G01X3304471Y4010800D02*
G01X3445472Y4010800D01*
G01X3445472Y3830079D02*
G01X3304471Y3830079D01*
G01X3289231Y3845319D02*
G01X3289231Y3995560D01*
G01X3666711Y3830079D02*
G03X3681951Y3845319I0J15240D01*
G01X3681951Y3995560D02*
G03X3666711Y4010800I-15240J0D01*
G01X3304471Y3830079D02*
G02X3289231Y3845319I0J15240D01*
G01X3289231Y3995560D02*
G02X3304471Y4010800I15240J0D01*
G01X2727254Y5090363D02*
G01X2727254Y4994476D01*
G01X2727254Y4994476D02*
G01X2859375Y4994476D01*
G01X2859375Y4994476D02*
G01X2859375Y5090363D01*
G01X2727254Y5175606D02*
G01X2727254Y5271493D01*
G01X2727254Y5271493D02*
G01X2859375Y5271493D01*
G01X2859375Y5271493D02*
G01X2859375Y5175606D01*
G01X3763836Y2794699D02*
G01X3763836Y2935699D01*
G01X3583115Y2935699D02*
G01X3583115Y2794699D01*
G01X3598355Y2779459D02*
G01X3748596Y2779459D01*
G01X3763836Y3156938D02*
G01X3763836Y3015938D01*
G01X3583115Y3015938D02*
G01X3583115Y3156938D01*
G01X3598355Y3172178D02*
G01X3748596Y3172178D01*
G01X3583115Y2794699D02*
G03X3598355Y2779459I15240J0D01*
G01X3748596Y2779459D02*
G03X3763836Y2794699I0J15240D01*
G01X3583115Y3156938D02*
G02X3598355Y3172178I15240J0D01*
G01X3748596Y3172178D02*
G02X3763836Y3156938I0J-15240D01*
G54D14*
G01X2193371Y4369321D02*
G01X2673370Y4369321D01*
G01X2193371Y4869320D02*
G01X2673370Y4869320D01*
G54D19*
G01X2262078Y1914375D02*
G01X2314402Y1914375D01*
G01X2314402Y1862051D01*
G01X1936450Y1913359D02*
G01X1919415Y1913359D01*
G01X1883491Y1877291D01*
G01X1883491Y1864591D01*
G01X2262078Y1484353D02*
G01X2314402Y1484353D01*
G01X2314402Y1536931D01*
G01X1936958Y1484353D02*
G01X1884380Y1484353D01*
G01X1884380Y1536931D01*
G54D14*
G01X2186800Y5573298D02*
G01X2486800Y5573296D01*
G01X2186800Y5323296D02*
G01X2486800Y5323299D01*
G01X2186800Y5556415D02*
G01X2186800Y5573298D01*
G01X2186800Y5573298D02*
G01X2486800Y5573298D01*
G01X2486800Y5573298D02*
G01X2486800Y5556413D01*
G01X2486800Y5340185D02*
G01X2486800Y5323299D01*
G01X2486800Y5323299D02*
G01X2186800Y5323299D01*
G01X2186800Y5323299D02*
G01X2186800Y5339613D01*
G54D12*
G01X4181551Y8065902D02*
G01X4277439Y8065902D01*
G01X4277439Y8065902D02*
G01X4277439Y8198023D01*
G01X4277439Y8198023D02*
G01X4181551Y8198023D01*
G01X4096309Y8065902D02*
G01X4000421Y8065902D01*
G01X4000421Y8065902D02*
G01X4000421Y8198023D01*
G01X4000421Y8198023D02*
G01X4096309Y8198023D01*
G54D14*
G01X1574726Y7356439D02*
G01X1654724Y7356439D01*
G01X1518681Y7356485D02*
G01X1438684Y7356485D01*
G01X1574726Y7214471D02*
G01X1654724Y7214471D01*
G01X1518681Y7214519D02*
G01X1438684Y7214519D01*
G01X1685699Y7325457D02*
G01X1685699Y7245452D01*
G01X1407706Y7245505D02*
G01X1407706Y7325507D01*
G01X1438689Y7214519D02*
G02X1407706Y7245505I0J30983D01*
G01X1407706Y7325502D02*
G02X1438689Y7356485I30983J0D01*
G01X1654719Y7356439D02*
G02X1685699Y7325457I-3J-30983D01*
G01X1685699Y7245459D02*
G02X1654719Y7214471I-30983J-5D01*
G54D12*
G01X3666711Y4812043D02*
G01X3525711Y4812043D01*
G01X3525711Y4631322D02*
G01X3666711Y4631322D01*
G01X3681951Y4646562D02*
G01X3681951Y4796803D01*
G01X3304471Y4812043D02*
G01X3445472Y4812043D01*
G01X3445472Y4631322D02*
G01X3304471Y4631322D01*
G01X3289231Y4646562D02*
G01X3289231Y4796803D01*
G01X3666711Y4631322D02*
G03X3681951Y4646562I0J15240D01*
G01X3681951Y4796803D02*
G03X3666711Y4812043I-15240J0D01*
G01X3304471Y4631322D02*
G02X3289231Y4646562I0J15240D01*
G01X3289231Y4796803D02*
G02X3304471Y4812043I15240J0D01*
G01X1889740Y5405679D02*
G01X1889740Y5309791D01*
G01X1889740Y5309791D02*
G01X2021860Y5309791D01*
G01X2021860Y5309791D02*
G01X2021860Y5405679D01*
G01X1889740Y5490921D02*
G01X1889740Y5586809D01*
G01X1889740Y5586809D02*
G01X2021860Y5586809D01*
G01X2021860Y5586809D02*
G01X2021860Y5490921D01*
G01X1276795Y4109687D02*
G01X1276795Y3968687D01*
G01X1457516Y3968687D02*
G01X1457516Y4109687D01*
G01X1442276Y4124927D02*
G01X1292035Y4124927D01*
G01X1276795Y3747447D02*
G01X1276795Y3888448D01*
G01X1457516Y3888448D02*
G01X1457516Y3747447D01*
G01X1442276Y3732207D02*
G01X1292035Y3732207D01*
G01X1457516Y4109687D02*
G03X1442276Y4124927I-15240J0D01*
G01X1292035Y4124927D02*
G03X1276795Y4109687I0J-15240D01*
G01X1457516Y3747447D02*
G02X1442276Y3732207I-15240J0D01*
G01X1292035Y3732207D02*
G02X1276795Y3747447I0J15240D01*
G01X1594891Y6497554D02*
G01X1690779Y6497554D01*
G01X1690779Y6497554D02*
G01X1690779Y6629674D01*
G01X1690779Y6629674D02*
G01X1594891Y6629674D01*
G01X1509649Y6497554D02*
G01X1413761Y6497554D01*
G01X1413761Y6497554D02*
G01X1413761Y6629674D01*
G01X1413761Y6629674D02*
G01X1509649Y6629674D01*
G01X3666711Y3476638D02*
G01X3525711Y3476638D01*
G01X3525711Y3295917D02*
G01X3666711Y3295917D01*
G01X3681951Y3311157D02*
G01X3681951Y3461398D01*
G01X3304471Y3476638D02*
G01X3445472Y3476638D01*
G01X3445472Y3295917D02*
G01X3304471Y3295917D01*
G01X3289231Y3311157D02*
G01X3289231Y3461398D01*
G01X3666711Y3295917D02*
G03X3681951Y3311157I0J15240D01*
G01X3681951Y3461398D02*
G03X3666711Y3476638I-15240J0D01*
G01X3304471Y3295917D02*
G02X3289231Y3311157I0J15240D01*
G01X3289231Y3461398D02*
G02X3304471Y3476638I15240J0D01*
G01X3929317Y4026532D02*
G01X3929317Y4167533D01*
G01X3748596Y4167533D02*
G01X3748596Y4026532D01*
G01X3763836Y4011292D02*
G01X3914077Y4011292D01*
G01X3929317Y4388772D02*
G01X3929317Y4247772D01*
G01X3748596Y4247772D02*
G01X3748596Y4388772D01*
G01X3763836Y4404012D02*
G01X3914077Y4404012D01*
G01X3748595Y4026532D02*
G03X3763836Y4011292I15240J0D01*
G01X3914077Y4011292D02*
G03X3929317Y4026532I0J15240D01*
G01X3748595Y4388772D02*
G02X3763836Y4404012I15240J0D01*
G01X3914077Y4404012D02*
G02X3929317Y4388772I0J-15240D01*
G01X2831940Y1715453D02*
G01X2690940Y1715453D01*
G01X2690940Y1534732D02*
G01X2831940Y1534732D01*
G01X2847180Y1549972D02*
G01X2847180Y1700213D01*
G01X2469700Y1715453D02*
G01X2610701Y1715453D01*
G01X2610701Y1534732D02*
G01X2469700Y1534732D01*
G01X2454460Y1549972D02*
G01X2454460Y1700213D01*
G01X2831940Y1534732D02*
G03X2847180Y1549972I0J15240D01*
G01X2847180Y1700213D02*
G03X2831940Y1715453I-15240J0D01*
G01X2469700Y1534732D02*
G02X2454460Y1549972I0J15240D01*
G01X2454460Y1700213D02*
G02X2469700Y1715453I15240J0D01*
G01X3978351Y7410455D02*
G01X4074239Y7410455D01*
G01X4074239Y7410455D02*
G01X4074239Y7542576D01*
G01X4074239Y7542576D02*
G01X3978351Y7542576D01*
G01X3893109Y7410455D02*
G01X3797221Y7410455D01*
G01X3797221Y7410455D02*
G01X3797221Y7542576D01*
G01X3797221Y7542576D02*
G01X3893109Y7542576D01*
G01X1594891Y6047466D02*
G01X1690779Y6047466D01*
G01X1690779Y6047466D02*
G01X1690779Y6179586D01*
G01X1690779Y6179586D02*
G01X1594891Y6179586D01*
G01X1509649Y6047466D02*
G01X1413761Y6047466D01*
G01X1413761Y6047466D02*
G01X1413761Y6179586D01*
G01X1413761Y6179586D02*
G01X1509649Y6179586D01*
G01X1187460Y3044043D02*
G01X1187460Y2915549D01*
G01X1370879Y2915549D01*
G01X1370879Y3044043D01*
G01X1187460Y3139283D02*
G01X1187460Y3267776D01*
G01X1370879Y3267776D01*
G01X1370879Y3139283D01*
G54D14*
G01X2953929Y2791361D02*
G01X2953929Y2871358D01*
G01X2953883Y2735316D02*
G01X2953883Y2655319D01*
G01X3095897Y2791361D02*
G01X3095897Y2871358D01*
G01X3095849Y2735316D02*
G01X3095849Y2655319D01*
G01X2984911Y2902334D02*
G01X3064916Y2902334D01*
G01X3064863Y2624341D02*
G01X2984861Y2624341D01*
G01X3095849Y2655324D02*
G02X3064863Y2624341I-30983J0D01*
G01X2984866Y2624341D02*
G02X2953883Y2655324I0J30983D01*
G01X2953929Y2871353D02*
G02X2984911Y2902334I30983J-3D01*
G01X3064909Y2902334D02*
G02X3095897Y2871353I5J-30983D01*
G54D12*
G01X3978351Y6755008D02*
G01X4074239Y6755008D01*
G01X4074239Y6755008D02*
G01X4074239Y6887129D01*
G01X4074239Y6887129D02*
G01X3978351Y6887129D01*
G01X3893109Y6755008D02*
G01X3797221Y6755008D01*
G01X3797221Y6755008D02*
G01X3797221Y6887129D01*
G01X3797221Y6887129D02*
G01X3893109Y6887129D01*
G01X2174037Y5223375D02*
G01X2078149Y5223375D01*
G01X2078149Y5223375D02*
G01X2078149Y5091255D01*
G01X2078149Y5091255D02*
G01X2174037Y5091255D01*
G01X2259279Y5223375D02*
G01X2355167Y5223375D01*
G01X2355167Y5223375D02*
G01X2355167Y5091255D01*
G01X2355167Y5091255D02*
G01X2259279Y5091255D01*
G01X4384751Y5881096D02*
G01X4480639Y5881096D01*
G01X4480639Y5881096D02*
G01X4480639Y6013216D01*
G01X4480639Y6013216D02*
G01X4384751Y6013216D01*
G01X4299509Y5881096D02*
G01X4203621Y5881096D01*
G01X4203621Y5881096D02*
G01X4203621Y6013216D01*
G01X4203621Y6013216D02*
G01X4299509Y6013216D01*
G01X1242380Y1907619D02*
G01X1242380Y1742740D01*
G01X1457620Y1907619D02*
G01X1457620Y1742740D01*
G01X1457620Y1692379D02*
G01X1457620Y1857258D01*
G01X1242380Y1692379D02*
G01X1242380Y1857258D01*
G54D16*
G01X3045082Y1020077D02*
G01X2950068Y1019823D01*
G01X2998394Y1007377D02*
G01X2998394Y1032777D01*
G01X3011094Y1020077D02*
G01X2998089Y1020077D01*
G01X2998089Y1020077D02*
G01X2972994Y1007377D01*
G01X2972994Y1007377D02*
G01X2972994Y1032777D01*
G01X2972994Y1032777D02*
G01X2998170Y1020382D01*
G01X2985694Y1020077D02*
G01X2998699Y1020077D01*
G01X2998699Y1020077D02*
G01X3023794Y1032777D01*
G01X3023794Y1032777D02*
G01X3023794Y1007377D01*
G01X3023794Y1007377D02*
G01X2998617Y1019772D01*
G54D12*
G01X2950068Y1092698D02*
G01X2950068Y947456D01*
G01X3045082Y1092698D02*
G01X3045082Y947456D01*
G01X2908275Y947456D02*
G01X3088513Y947456D01*
G01X2908275Y1092698D02*
G01X2908275Y1064898D01*
G01X2908275Y947456D02*
G01X2908275Y975256D01*
G01X3088513Y947456D02*
G01X3088513Y975256D01*
G01X2908275Y1092698D02*
G01X3088513Y1092698D01*
G01X3088513Y1092698D02*
G01X3088513Y1064898D01*
G54D14*
G01X3710074Y5409143D02*
G01X3630077Y5409143D01*
G01X3766119Y5409098D02*
G01X3846116Y5409098D01*
G01X3710074Y5551112D02*
G01X3630077Y5551112D01*
G01X3766119Y5551063D02*
G01X3846116Y5551063D01*
G01X3599101Y5440126D02*
G01X3599101Y5520131D01*
G01X3877094Y5520078D02*
G01X3877094Y5440075D01*
G01X3846111Y5551063D02*
G02X3877094Y5520078I0J-30983D01*
G01X3877094Y5440081D02*
G02X3846111Y5409098I-30983J0D01*
G01X3630082Y5409143D02*
G02X3599101Y5440126I3J30983D01*
G01X3599101Y5520124D02*
G02X3630082Y5551112I30983J5D01*
G54D12*
G01X4505922Y3673312D02*
G01X4409542Y3673312D01*
G01X4409542Y3673312D02*
G01X4409542Y4128552D01*
G01X4409542Y4128552D02*
G01X4505922Y4128552D01*
G01X4748400Y3673312D02*
G01X4844781Y3673312D01*
G01X4844781Y3673312D02*
G01X4844781Y4128552D01*
G01X4844781Y4128552D02*
G01X4748400Y4128552D01*
G01X2336935Y3820485D02*
G01X2336935Y4095730D01*
G01X2336935Y4095730D02*
G01X2356239Y4095730D01*
G01X2512179Y3820485D02*
G01X2512179Y4095730D01*
G01X2512179Y4095730D02*
G01X2492875Y4095730D01*
G01X2336935Y3866429D02*
G01X2512179Y3866429D01*
G36*
G01X2329317Y3828108D02*
G01X2361316Y3828108D01*
G01X2361316Y3797628D01*
G01X2329317Y3797628D01*
G01X2329317Y3828108D01*
G37*
G36*
G01X2519797Y3828108D02*
G01X2519797Y3797628D01*
G01X2487798Y3797628D01*
G01X2487798Y3828108D01*
G01X2519797Y3828108D01*
G37*
G01X2936037Y4916922D02*
G01X2840149Y4916922D01*
G01X2840149Y4916922D02*
G01X2840149Y4784801D01*
G01X2840149Y4784801D02*
G01X2936037Y4784801D01*
G01X3021279Y4916922D02*
G01X3117167Y4916922D01*
G01X3117167Y4916922D02*
G01X3117167Y4784801D01*
G01X3117167Y4784801D02*
G01X3021279Y4784801D01*

G04 Rect Start*
G54D14*
G01X2066999Y340355D02*
G01X2066999Y416555D01*
G01X2244799Y416555D01*
G01X2244799Y340355D01*
G01X2066999Y340355D01*
G01X2549599Y340355D02*
G01X2549599Y416555D01*
G01X2727399Y416555D01*
G01X2727399Y340355D01*
G01X2549599Y340355D01*
G04 Rect End*

G04 Circle Start*
G54D17*
G01X977522Y3414987D02*
G03X992508Y3414987I7493J0D01*
G03X977522Y3414987I-7493J0D01*
G54D14*
G01X5204991Y1500000D02*
G03X5365011Y1500000I80010J0D01*
G03X5204991Y1500000I-80010J0D01*
G01X731304Y2341987D02*
G03X756704Y2341987I12700J0D01*
G03X731304Y2341987I-12700J0D01*
G01X731304Y1341986D02*
G03X756704Y1341986I12700J0D01*
G03X731304Y1341986I-12700J0D01*
G01X150310Y3559500D02*
G03X175710Y3559500I12700J0D01*
G03X150310Y3559500I-12700J0D01*
G01X2802890Y5448300D02*
G03X2962910Y5448300I80010J0D01*
G03X2802890Y5448300I-80010J0D01*
G01X5204991Y4199999D02*
G03X5365011Y4199999I80010J0D01*
G03X5204991Y4199999I-80010J0D01*
G54D20*
G01X2910997Y3036634D02*
G03X2931013Y3036634I10008J0D01*
G03X2910997Y3036634I-10008J0D01*
G54D14*
G01X1327000Y4734900D02*
G03X1352400Y4734900I12700J0D01*
G03X1327000Y4734900I-12700J0D01*
G01X5204991Y6899999D02*
G03X5365011Y6899999I80010J0D01*
G03X5204991Y6899999I-80010J0D01*
G54D17*
G01X4182514Y2560005D02*
G03X4197500Y2560005I7493J0D01*
G03X4182514Y2560005I-7493J0D01*
G54D21*
G01X1834012Y1877799D02*
G03X1857990Y1877799I11989J0D01*
G03X1834012Y1877799I-11989J0D01*
G54D14*
G01X2256790Y5448300D02*
G03X2416810Y5448300I80010J0D01*
G03X2256790Y5448300I-80010J0D01*
G54D20*
G01X1264986Y1657429D02*
G03X1285001Y1657429I10008J0D01*
G03X1264986Y1657429I-10008J0D01*
G04 Circle End*

M02*

