G04 Layer: DrillDrawingLayer*
G04 EasyEDA Pro v4.1.60, 2026-09-21 23:08:41*
G04 Gerber Generator version 0.3*
G04 Scale: 100 percent, Rotated: No, Reflected: No*
G04 Dimensions in millimeters*
G04 Leading zeros omitted, absolute positions, 4 integers and 5 decimals*
G04 Generated by one-click*
G04 Object Configs: Pad,Via,Track,Text,Image,Dimension,BoardOutline,BoardCutout,CopperFilled,SolidRegion,FPCStiffener,Line,PlaneZone,ComponentProperty,ComponentSilkscreen,TearDrop*
G04 Layer Configs: 1,15,16,2,3,4,5,6,7,8,9,10,11,13,14,56*
G04 Copper Areas: 0*
%FSLAX45Y45*%
%MOMM*%
%AMIconRect*4,1,4,0.28,-0.28,-0.28,-0.28,-0.28,0.28,0.28,0.28,0.28,-0.28,0*4,0,4,0.233333,-0.233333,0.233333,0.233333,-0.233333,0.233333,-0.233333,-0.233333,0.233333,-0.233333,0*%
%AMIconTriangle*4,1,3,-0.339593,0.240473,0.339593,0.240473,0,-0.37884,-0.339593,0.240473,0*4,0,3,-0.265673,0.19404,0,-0.27342,0.266233,0.19404,-0.265673,0.19404,0*%
%AMIconStar6*4,1,12,0.12068,0.20888,0.298527,0.172713,0.241313,0,0.298527,-0.17206,0.12068,-0.208227,0,-0.344073,-0.120073,-0.208227,-0.298573,-0.17206,-0.240707,0,-0.298573,0.17206,-0.120073,0.20888,0,0.344073,0.12068,0.20888,0*4,0,12,-0.000467,0.273467,-0.090067,0.171733,-0.237533,0.136733,-0.193667,-0.007467,-0.237533,-0.1372,-0.090067,-0.171733,-0.000467,-0.273933,0.090067,-0.171733,0.237533,-0.1372,0.194133,0.007,0.237533,0.1372,0.090067,0.171267,-0.000467,0.273467,0*%
%ADD10IconRect*%
%ADD11C,0.616X0.522667*%
%ADD12IconTriangle*%
%ADD13IconStar6*%
%ADD14C,0.2032*%
%ADD15C,0.254*%
G75*


G04 Drill Drawing Start*
G54D10*
G01X1967997Y195064D03*
G01X2831993Y195064D03*
G54D11*
G01X1967997Y613057D03*
G01X2831993Y613054D03*
G54D12*
G01X2110991Y563062D03*
G01X2688994Y563062D03*
G54D13*
G01X83058Y4128008D03*
G01X89916Y4371086D03*
G01X97028Y4622292D03*
G01X116840Y3569716D03*
G01X321818Y3822446D03*
G01X321818Y4060444D03*
G01X328422Y3969004D03*
G01X346456Y5210048D03*
G01X421386Y4305808D03*
G01X462280Y4454906D03*
G01X462280Y4531106D03*
G01X462280Y4607560D03*
G01X538734Y4284980D03*
G01X606044Y4122420D03*
G01X629920Y5486400D03*
G01X637794Y4610354D03*
G01X657098Y4686554D03*
G01X702310Y5631180D03*
G01X768718Y5334648D03*
G01X821182Y1137412D03*
G01X821182Y2137410D03*
G01X853186Y1489964D03*
G01X870966Y2252980D03*
G01X958850Y3053842D03*
G01X962406Y5766562D03*
G01X962914Y3766820D03*
G01X1176274Y4028694D03*
G01X1215898Y1992376D03*
G01X1216660Y3945128D03*
G01X1258824Y4899914D03*
G01X1295654Y2139696D03*
G01X1312418Y2302510D03*
G01X1314196Y1960880D03*
G01X1355344Y2991612D03*
G01X1371821Y5942363D03*
G01X1397000Y2685542D03*
G01X1400556Y7285482D03*
G01X1431036Y6264910D03*
G01X1475994Y1656842D03*
G01X1546352Y2019808D03*
G01X1560830Y5741416D03*
G01X1562354Y7090664D03*
G01X1575054Y5956808D03*
G01X1586738Y6762496D03*
G01X1623060Y6020562D03*
G01X1637030Y5741416D03*
G01X1689354Y6447028D03*
G01X1697228Y5635752D03*
G01X1705135Y2035015D03*
G01X1710436Y4028694D03*
G01X1718564Y5381244D03*
G01X1721612Y6213094D03*
G01X1723898Y1960880D03*
G01X1746504Y6515608D03*
G01X1750060Y3828542D03*
G01X1792986Y1754886D03*
G01X1798828Y7539482D03*
G01X1799336Y5175250D03*
G01X1832610Y3964178D03*
G01X1855216Y5629910D03*
G01X1859280Y1500124D03*
G01X1925828Y5088890D03*
G01X1935734Y1167638D03*
G01X1955800Y1992376D03*
G01X1955800Y5283708D03*
G01X1955800Y5712714D03*
G01X1996186Y6325616D03*
G01X1996186Y7482332D03*
G01X1996440Y6682486D03*
G01X1996440Y6777482D03*
G01X1996694Y6108700D03*
G01X1996694Y7372350D03*
G01X1997456Y5046218D03*
G01X1998472Y6215380D03*
G01X2004568Y4143502D03*
G01X2004568Y6855206D03*
G01X2024888Y2426970D03*
G01X2080006Y746760D03*
G01X2086356Y4131564D03*
G01X2141220Y4965700D03*
G01X2143760Y3007360D03*
G01X2156206Y3913886D03*
G01X2160016Y775208D03*
G01X2189447Y1185451D03*
G01X2190750Y4273042D03*
G01X2209038Y2032254D03*
G01X2209800Y6248146D03*
G01X2275078Y805942D03*
G01X2285238Y1020826D03*
G01X2292096Y2274570D03*
G01X2305558Y5637022D03*
G01X2306320Y1584960D03*
G01X2309368Y5009642D03*
G01X2318766Y4114546D03*
G01X2341372Y1966214D03*
G01X2387092Y2675636D03*
G01X2397506Y4625340D03*
G01X2406396Y816102D03*
G01X2418080Y5252720D03*
G01X2420620Y3143504D03*
G01X2420620Y5149850D03*
G01X2430526Y5448300D03*
G01X2431542Y1736344D03*
G01X2432558Y5881878D03*
G01X2459990Y6703568D03*
G01X2490724Y3386328D03*
G01X2536190Y6907530D03*
G01X2537460Y782828D03*
G01X2537968Y1131570D03*
G01X2550160Y3322320D03*
G01X2582164Y4914900D03*
G01X2668524Y2004822D03*
G01X2676398Y1756918D03*
G01X2682494Y5884164D03*
G01X2702560Y4947920D03*
G01X2712974Y5579364D03*
G01X2730754Y3286252D03*
G01X2739898Y6754368D03*
G01X2752598Y2730754D03*
G01X2770378Y2018030D03*
G01X2795524Y3653282D03*
G01X2795524Y3920490D03*
G01X2795524Y4187444D03*
G01X2810510Y1020064D03*
G01X2815590Y1492758D03*
G01X2850134Y4944618D03*
G01X2866136Y3081274D03*
G01X2883916Y1990852D03*
G01X2903220Y4757420D03*
G01X2912364Y923036D03*
G01X2935084Y2603614D03*
G01X2940558Y4963922D03*
G01X2949956Y3496564D03*
G01X2975102Y2999232D03*
G01X3000248Y1578356D03*
G01X3001772Y2344674D03*
G01X3014726Y4043680D03*
G01X3020568Y4967986D03*
G01X3032760Y955040D03*
G01X3076194Y2362962D03*
G01X3111754Y414274D03*
G01X3152394Y3919982D03*
G01X3160014Y5637784D03*
G01X3161030Y3541014D03*
G01X3187446Y1186688D03*
G01X3228340Y3143504D03*
G01X3266186Y4271518D03*
G01X3283712Y2618994D03*
G01X3378995Y1258857D03*
G01X3401314Y169926D03*
G01X3401314Y584962D03*
G01X3403346Y2296922D03*
G01X3449066Y2367026D03*
G01X3452368Y3131820D03*
G01X3453130Y1903222D03*
G01X3491624Y5452732D03*
G01X3501390Y5930646D03*
G01X3503168Y7304278D03*
G01X3509518Y3653282D03*
G01X3509518Y4187444D03*
G01X3509518Y4721606D03*
G01X3557270Y3148076D03*
G01X3579622Y4974590D03*
G01X3597402Y2875788D03*
G01X3625088Y1814068D03*
G01X3639599Y3974371D03*
G01X3661918Y3386328D03*
G01X3661918Y4454652D03*
G01X3661918Y5227320D03*
G01X3701288Y7539482D03*
G01X3711956Y4107688D03*
G01X3754341Y5426169D03*
G01X3802126Y7354824D03*
G01X3838956Y4580128D03*
G01X3845052Y1741678D03*
G01X3957066Y4701032D03*
G01X3959606Y4045204D03*
G01X3963670Y3579622D03*
G01X3972814Y7900924D03*
G01X3977386Y5638546D03*
G01X3993388Y2794000D03*
G01X4011168Y6511290D03*
G01X4011168Y7809484D03*
G01X4014470Y6076188D03*
G01X4065016Y1975866D03*
G01X4066286Y3205480D03*
G01X4066286Y3345434D03*
G01X4086606Y7401052D03*
G01X4098036Y6365494D03*
G01X4098544Y6802120D03*
G01X4165092Y7394956D03*
G01X4174998Y1859534D03*
G01X4182110Y1949704D03*
G01X4192778Y2432812D03*
G01X4198620Y7051802D03*
G01X4238719Y3408205D03*
G01X4255008Y7652004D03*
G01X4266946Y2243582D03*
G01X4335272Y3658870D03*
G01X4386072Y3370580D03*
G01X4443008Y2458974D03*
G01X4447540Y2608326D03*
G01X4467319Y3397283D03*
G01X4473194Y3718052D03*
G01X4485894Y6148578D03*
G01X4493006Y3891788D03*
G01X4516120Y1634998D03*
G01X4604218Y2293366D03*
G01X4751070Y124968D03*
G01X4869180Y3653536D03*
G01X5068062Y6972046D03*
G01X5068062Y7051802D03*
G01X5208778Y6729984D03*
G01X5361178Y1329944D03*
G01X5361178Y4029964D03*
G01X5398008Y6905498D03*
G04 Drill Drawing End*

G04 Text Start*
G54D14*
G01X7800435Y8178303D02*
G01X7800435Y8058161D01*
G01X7800435Y8178303D02*
G01X7846155Y8058161D01*
G01X7891875Y8178303D02*
G01X7846155Y8058161D01*
G01X7891875Y8178303D02*
G01X7891875Y8058161D01*
G01X8008207Y8138171D02*
G01X8008207Y8058161D01*
G01X8008207Y8121153D02*
G01X7996777Y8132583D01*
G01X7985347Y8138171D01*
G01X7968329Y8138171D01*
G01X7956899Y8132583D01*
G01X7945469Y8121153D01*
G01X7939627Y8103881D01*
G01X7939627Y8092451D01*
G01X7945469Y8075433D01*
G01X7956899Y8064003D01*
G01X7968329Y8058161D01*
G01X7985347Y8058161D01*
G01X7996777Y8064003D01*
G01X8008207Y8075433D01*
G01X8055959Y8138171D02*
G01X8055959Y8058161D01*
G01X8055959Y8103881D02*
G01X8061801Y8121153D01*
G01X8073231Y8132583D01*
G01X8084661Y8138171D01*
G01X8101679Y8138171D01*
G01X8149431Y8178303D02*
G01X8149431Y8058161D01*
G01X8206581Y8138171D02*
G01X8149431Y8081021D01*
G01X8172291Y8103881D02*
G01X8212423Y8058161D01*
G01X9337715Y8149601D02*
G01X9331873Y8161031D01*
G01X9320443Y8172461D01*
G01X9309013Y8178303D01*
G01X9286153Y8178303D01*
G01X9274723Y8172461D01*
G01X9263293Y8161031D01*
G01X9257705Y8149601D01*
G01X9251863Y8132583D01*
G01X9251863Y8103881D01*
G01X9257705Y8086863D01*
G01X9263293Y8075433D01*
G01X9274723Y8064003D01*
G01X9286153Y8058161D01*
G01X9309013Y8058161D01*
G01X9320443Y8064003D01*
G01X9331873Y8075433D01*
G01X9337715Y8086863D01*
G01X9414169Y8138171D02*
G01X9402739Y8132583D01*
G01X9391309Y8121153D01*
G01X9385467Y8103881D01*
G01X9385467Y8092451D01*
G01X9391309Y8075433D01*
G01X9402739Y8064003D01*
G01X9414169Y8058161D01*
G01X9431187Y8058161D01*
G01X9442617Y8064003D01*
G01X9454047Y8075433D01*
G01X9459889Y8092451D01*
G01X9459889Y8103881D01*
G01X9454047Y8121153D01*
G01X9442617Y8132583D01*
G01X9431187Y8138171D01*
G01X9414169Y8138171D01*
G01X9507641Y8138171D02*
G01X9507641Y8081021D01*
G01X9513483Y8064003D01*
G01X9524913Y8058161D01*
G01X9541931Y8058161D01*
G01X9553361Y8064003D01*
G01X9570633Y8081021D01*
G01X9570633Y8138171D02*
G01X9570633Y8058161D01*
G01X9618385Y8138171D02*
G01X9618385Y8058161D01*
G01X9618385Y8115311D02*
G01X9635657Y8132583D01*
G01X9647087Y8138171D01*
G01X9664105Y8138171D01*
G01X9675535Y8132583D01*
G01X9681377Y8115311D01*
G01X9681377Y8058161D01*
G01X9746401Y8178303D02*
G01X9746401Y8081021D01*
G01X9751989Y8064003D01*
G01X9763419Y8058161D01*
G01X9774849Y8058161D01*
G01X9729129Y8138171D02*
G01X9769261Y8138171D01*
G01X10746036Y8161031D02*
G01X10734606Y8172461D01*
G01X10717588Y8178303D01*
G01X10694728Y8178303D01*
G01X10677456Y8172461D01*
G01X10666026Y8161031D01*
G01X10666026Y8149601D01*
G01X10671868Y8138171D01*
G01X10677456Y8132583D01*
G01X10688886Y8126741D01*
G01X10723176Y8115311D01*
G01X10734606Y8109723D01*
G01X10740448Y8103881D01*
G01X10746036Y8092451D01*
G01X10746036Y8075433D01*
G01X10734606Y8064003D01*
G01X10717588Y8058161D01*
G01X10694728Y8058161D01*
G01X10677456Y8064003D01*
G01X10666026Y8075433D01*
G01X10793788Y8178303D02*
G01X10799630Y8172461D01*
G01X10805218Y8178303D01*
G01X10799630Y8183891D01*
G01X10793788Y8178303D01*
G01X10799630Y8138171D02*
G01X10799630Y8058161D01*
G01X10915962Y8138171D02*
G01X10852970Y8058161D01*
G01X10852970Y8138171D02*
G01X10915962Y8138171D01*
G01X10852970Y8058161D02*
G01X10915962Y8058161D01*
G01X10963714Y8103881D02*
G01X11032294Y8103881D01*
G01X11032294Y8115311D01*
G01X11026706Y8126741D01*
G01X11020864Y8132583D01*
G01X11009434Y8138171D01*
G01X10992416Y8138171D01*
G01X10980986Y8132583D01*
G01X10969556Y8121153D01*
G01X10963714Y8103881D01*
G01X10963714Y8092451D01*
G01X10969556Y8075433D01*
G01X10980986Y8064003D01*
G01X10992416Y8058161D01*
G01X11009434Y8058161D01*
G01X11020864Y8064003D01*
G01X11032294Y8075433D01*
G01X14480236Y8178303D02*
G01X14480236Y8058161D01*
G01X14480236Y8178303D02*
G01X14531798Y8178303D01*
G01X14548816Y8172461D01*
G01X14554658Y8166873D01*
G01X14560246Y8155443D01*
G01X14560246Y8138171D01*
G01X14554658Y8126741D01*
G01X14548816Y8121153D01*
G01X14531798Y8115311D01*
G01X14480236Y8115311D01*
G01X14607998Y8178303D02*
G01X14607998Y8058161D01*
G01X14724330Y8138171D02*
G01X14724330Y8058161D01*
G01X14724330Y8121153D02*
G01X14712900Y8132583D01*
G01X14701470Y8138171D01*
G01X14684452Y8138171D01*
G01X14673022Y8132583D01*
G01X14661592Y8121153D01*
G01X14655750Y8103881D01*
G01X14655750Y8092451D01*
G01X14661592Y8075433D01*
G01X14673022Y8064003D01*
G01X14684452Y8058161D01*
G01X14701470Y8058161D01*
G01X14712900Y8064003D01*
G01X14724330Y8075433D01*
G01X14789354Y8178303D02*
G01X14789354Y8081021D01*
G01X14794942Y8064003D01*
G01X14806372Y8058161D01*
G01X14817802Y8058161D01*
G01X14772082Y8138171D02*
G01X14812214Y8138171D01*
G01X14865554Y8103881D02*
G01X14934134Y8103881D01*
G01X14934134Y8115311D01*
G01X14928546Y8126741D01*
G01X14922704Y8132583D01*
G01X14911274Y8138171D01*
G01X14894256Y8138171D01*
G01X14882826Y8132583D01*
G01X14871396Y8121153D01*
G01X14865554Y8103881D01*
G01X14865554Y8092451D01*
G01X14871396Y8075433D01*
G01X14882826Y8064003D01*
G01X14894256Y8058161D01*
G01X14911274Y8058161D01*
G01X14922704Y8064003D01*
G01X14934134Y8075433D01*
G01X15050466Y8178303D02*
G01X15050466Y8058161D01*
G01X15050466Y8121153D02*
G01X15039036Y8132583D01*
G01X15027606Y8138171D01*
G01X15010588Y8138171D01*
G01X14999158Y8132583D01*
G01X14987728Y8121153D01*
G01X14981886Y8103881D01*
G01X14981886Y8092451D01*
G01X14987728Y8075433D01*
G01X14999158Y8064003D01*
G01X15010588Y8058161D01*
G01X15027606Y8058161D01*
G01X15039036Y8064003D01*
G01X15050466Y8075433D01*
G01X16021653Y8161031D02*
G01X16010223Y8172461D01*
G01X15993205Y8178303D01*
G01X15970345Y8178303D01*
G01X15953073Y8172461D01*
G01X15941643Y8161031D01*
G01X15941643Y8149601D01*
G01X15947485Y8138171D01*
G01X15953073Y8132583D01*
G01X15964503Y8126741D01*
G01X15998793Y8115311D01*
G01X16010223Y8109723D01*
G01X16016065Y8103881D01*
G01X16021653Y8092451D01*
G01X16021653Y8075433D01*
G01X16010223Y8064003D01*
G01X15993205Y8058161D01*
G01X15970345Y8058161D01*
G01X15953073Y8064003D01*
G01X15941643Y8075433D01*
G01X16069405Y8178303D02*
G01X16069405Y8058161D01*
G01X16069405Y8115311D02*
G01X16086677Y8132583D01*
G01X16098107Y8138171D01*
G01X16115125Y8138171D01*
G01X16126555Y8132583D01*
G01X16132397Y8115311D01*
G01X16132397Y8058161D01*
G01X16248729Y8138171D02*
G01X16248729Y8058161D01*
G01X16248729Y8121153D02*
G01X16237299Y8132583D01*
G01X16225869Y8138171D01*
G01X16208851Y8138171D01*
G01X16197421Y8132583D01*
G01X16185991Y8121153D01*
G01X16180149Y8103881D01*
G01X16180149Y8092451D01*
G01X16185991Y8075433D01*
G01X16197421Y8064003D01*
G01X16208851Y8058161D01*
G01X16225869Y8058161D01*
G01X16237299Y8064003D01*
G01X16248729Y8075433D01*
G01X16296481Y8138171D02*
G01X16296481Y8018283D01*
G01X16296481Y8121153D02*
G01X16307911Y8132583D01*
G01X16319341Y8138171D01*
G01X16336613Y8138171D01*
G01X16348043Y8132583D01*
G01X16359473Y8121153D01*
G01X16365061Y8103881D01*
G01X16365061Y8092451D01*
G01X16359473Y8075433D01*
G01X16348043Y8064003D01*
G01X16336613Y8058161D01*
G01X16319341Y8058161D01*
G01X16307911Y8064003D01*
G01X16296481Y8075433D01*
G01X16412813Y8103881D02*
G01X16481393Y8103881D01*
G01X16481393Y8115311D01*
G01X16475805Y8126741D01*
G01X16469963Y8132583D01*
G01X16458533Y8138171D01*
G01X16441515Y8138171D01*
G01X16430085Y8132583D01*
G01X16418655Y8121153D01*
G01X16412813Y8103881D01*
G01X16412813Y8092451D01*
G01X16418655Y8075433D01*
G01X16430085Y8064003D01*
G01X16441515Y8058161D01*
G01X16458533Y8058161D01*
G01X16469963Y8064003D01*
G01X16481393Y8075433D01*
G01X17372824Y8178303D02*
G01X17418544Y8058161D01*
G01X17464264Y8178303D02*
G01X17418544Y8058161D01*
G01X17512016Y8178303D02*
G01X17517858Y8172461D01*
G01X17523446Y8178303D01*
G01X17517858Y8183891D01*
G01X17512016Y8178303D01*
G01X17517858Y8138171D02*
G01X17517858Y8058161D01*
G01X17639778Y8138171D02*
G01X17639778Y8058161D01*
G01X17639778Y8121153D02*
G01X17628348Y8132583D01*
G01X17616918Y8138171D01*
G01X17599900Y8138171D01*
G01X17588470Y8132583D01*
G01X17577040Y8121153D01*
G01X17571198Y8103881D01*
G01X17571198Y8092451D01*
G01X17577040Y8075433D01*
G01X17588470Y8064003D01*
G01X17599900Y8058161D01*
G01X17616918Y8058161D01*
G01X17628348Y8064003D01*
G01X17639778Y8075433D01*
G01X17790400Y8201163D02*
G01X17687530Y8018283D01*
G01X17838152Y8178303D02*
G01X17838152Y8058161D01*
G01X17838152Y8178303D02*
G01X17889714Y8178303D01*
G01X17906732Y8172461D01*
G01X17912574Y8166873D01*
G01X17918162Y8155443D01*
G01X17918162Y8138171D01*
G01X17912574Y8126741D01*
G01X17906732Y8121153D01*
G01X17889714Y8115311D01*
G01X17838152Y8115311D01*
G01X18034494Y8138171D02*
G01X18034494Y8058161D01*
G01X18034494Y8121153D02*
G01X18023064Y8132583D01*
G01X18011634Y8138171D01*
G01X17994616Y8138171D01*
G01X17983186Y8132583D01*
G01X17971756Y8121153D01*
G01X17965914Y8103881D01*
G01X17965914Y8092451D01*
G01X17971756Y8075433D01*
G01X17983186Y8064003D01*
G01X17994616Y8058161D01*
G01X18011634Y8058161D01*
G01X18023064Y8064003D01*
G01X18034494Y8075433D01*
G01X18150826Y8178303D02*
G01X18150826Y8058161D01*
G01X18150826Y8121153D02*
G01X18139396Y8132583D01*
G01X18127966Y8138171D01*
G01X18110948Y8138171D01*
G01X18099518Y8132583D01*
G01X18088088Y8121153D01*
G01X18082246Y8103881D01*
G01X18082246Y8092451D01*
G01X18088088Y8075433D01*
G01X18099518Y8064003D01*
G01X18110948Y8058161D01*
G01X18127966Y8058161D01*
G01X18139396Y8064003D01*
G01X18150826Y8075433D01*
G01X19042003Y8178303D02*
G01X19042003Y8058161D01*
G01X19042003Y8178303D02*
G01X19093565Y8178303D01*
G01X19110583Y8172461D01*
G01X19116425Y8166873D01*
G01X19122013Y8155443D01*
G01X19122013Y8138171D01*
G01X19116425Y8126741D01*
G01X19110583Y8121153D01*
G01X19093565Y8115311D01*
G01X19042003Y8115311D01*
G01X19238345Y8138171D02*
G01X19238345Y8058161D01*
G01X19238345Y8121153D02*
G01X19226915Y8132583D01*
G01X19215485Y8138171D01*
G01X19198467Y8138171D01*
G01X19187037Y8132583D01*
G01X19175607Y8121153D01*
G01X19169765Y8103881D01*
G01X19169765Y8092451D01*
G01X19175607Y8075433D01*
G01X19187037Y8064003D01*
G01X19198467Y8058161D01*
G01X19215485Y8058161D01*
G01X19226915Y8064003D01*
G01X19238345Y8075433D01*
G01X19354677Y8178303D02*
G01X19354677Y8058161D01*
G01X19354677Y8121153D02*
G01X19343247Y8132583D01*
G01X19331817Y8138171D01*
G01X19314799Y8138171D01*
G01X19303369Y8132583D01*
G01X19291939Y8121153D01*
G01X19286097Y8103881D01*
G01X19286097Y8092451D01*
G01X19291939Y8075433D01*
G01X19303369Y8064003D01*
G01X19314799Y8058161D01*
G01X19331817Y8058161D01*
G01X19343247Y8064003D01*
G01X19354677Y8075433D01*
G01X19610455Y8161031D02*
G01X19599025Y8172461D01*
G01X19582007Y8178303D01*
G01X19559147Y8178303D01*
G01X19541875Y8172461D01*
G01X19530445Y8161031D01*
G01X19530445Y8149601D01*
G01X19536287Y8138171D01*
G01X19541875Y8132583D01*
G01X19553305Y8126741D01*
G01X19587595Y8115311D01*
G01X19599025Y8109723D01*
G01X19604867Y8103881D01*
G01X19610455Y8092451D01*
G01X19610455Y8075433D01*
G01X19599025Y8064003D01*
G01X19582007Y8058161D01*
G01X19559147Y8058161D01*
G01X19541875Y8064003D01*
G01X19530445Y8075433D01*
G01X19658207Y8178303D02*
G01X19658207Y8058161D01*
G01X19658207Y8115311D02*
G01X19675479Y8132583D01*
G01X19686909Y8138171D01*
G01X19703927Y8138171D01*
G01X19715357Y8132583D01*
G01X19721199Y8115311D01*
G01X19721199Y8058161D01*
G01X19837531Y8138171D02*
G01X19837531Y8058161D01*
G01X19837531Y8121153D02*
G01X19826101Y8132583D01*
G01X19814671Y8138171D01*
G01X19797653Y8138171D01*
G01X19786223Y8132583D01*
G01X19774793Y8121153D01*
G01X19768951Y8103881D01*
G01X19768951Y8092451D01*
G01X19774793Y8075433D01*
G01X19786223Y8064003D01*
G01X19797653Y8058161D01*
G01X19814671Y8058161D01*
G01X19826101Y8064003D01*
G01X19837531Y8075433D01*
G01X19885283Y8138171D02*
G01X19885283Y8018283D01*
G01X19885283Y8121153D02*
G01X19896713Y8132583D01*
G01X19908143Y8138171D01*
G01X19925415Y8138171D01*
G01X19936845Y8132583D01*
G01X19948275Y8121153D01*
G01X19953863Y8103881D01*
G01X19953863Y8092451D01*
G01X19948275Y8075433D01*
G01X19936845Y8064003D01*
G01X19925415Y8058161D01*
G01X19908143Y8058161D01*
G01X19896713Y8064003D01*
G01X19885283Y8075433D01*
G01X20001615Y8103881D02*
G01X20070195Y8103881D01*
G01X20070195Y8115311D01*
G01X20064607Y8126741D01*
G01X20058765Y8132583D01*
G01X20047335Y8138171D01*
G01X20030317Y8138171D01*
G01X20018887Y8132583D01*
G01X20007457Y8121153D01*
G01X20001615Y8103881D01*
G01X20001615Y8092451D01*
G01X20007457Y8075433D01*
G01X20018887Y8064003D01*
G01X20030317Y8058161D01*
G01X20047335Y8058161D01*
G01X20058765Y8064003D01*
G01X20070195Y8075433D01*
G01X20961372Y8178303D02*
G01X20961372Y8058161D01*
G01X20961372Y8058161D02*
G01X21029952Y8058161D01*
G01X21146284Y8138171D02*
G01X21146284Y8058161D01*
G01X21146284Y8121153D02*
G01X21134854Y8132583D01*
G01X21123424Y8138171D01*
G01X21106406Y8138171D01*
G01X21094976Y8132583D01*
G01X21083546Y8121153D01*
G01X21077704Y8103881D01*
G01X21077704Y8092451D01*
G01X21083546Y8075433D01*
G01X21094976Y8064003D01*
G01X21106406Y8058161D01*
G01X21123424Y8058161D01*
G01X21134854Y8064003D01*
G01X21146284Y8075433D01*
G01X21199878Y8138171D02*
G01X21234168Y8058161D01*
G01X21268458Y8138171D02*
G01X21234168Y8058161D01*
G01X21222738Y8035301D01*
G01X21211308Y8023871D01*
G01X21199878Y8018283D01*
G01X21194036Y8018283D01*
G01X21316210Y8103881D02*
G01X21384790Y8103881D01*
G01X21384790Y8115311D01*
G01X21379202Y8126741D01*
G01X21373360Y8132583D01*
G01X21361930Y8138171D01*
G01X21344912Y8138171D01*
G01X21333482Y8132583D01*
G01X21322052Y8121153D01*
G01X21316210Y8103881D01*
G01X21316210Y8092451D01*
G01X21322052Y8075433D01*
G01X21333482Y8064003D01*
G01X21344912Y8058161D01*
G01X21361930Y8058161D01*
G01X21373360Y8064003D01*
G01X21384790Y8075433D01*
G01X21432542Y8138171D02*
G01X21432542Y8058161D01*
G01X21432542Y8103881D02*
G01X21438384Y8121153D01*
G01X21449814Y8132583D01*
G01X21461244Y8138171D01*
G01X21478262Y8138171D01*
G01X21654030Y8178303D02*
G01X21654030Y8058161D01*
G01X21654030Y8178303D02*
G01X21705592Y8178303D01*
G01X21722610Y8172461D01*
G01X21728452Y8166873D01*
G01X21734040Y8155443D01*
G01X21734040Y8138171D01*
G01X21728452Y8126741D01*
G01X21722610Y8121153D01*
G01X21705592Y8115311D01*
G01X21654030Y8115311D01*
G01X21850372Y8138171D02*
G01X21850372Y8058161D01*
G01X21850372Y8121153D02*
G01X21838942Y8132583D01*
G01X21827512Y8138171D01*
G01X21810494Y8138171D01*
G01X21799064Y8132583D01*
G01X21787634Y8121153D01*
G01X21781792Y8103881D01*
G01X21781792Y8092451D01*
G01X21787634Y8075433D01*
G01X21799064Y8064003D01*
G01X21810494Y8058161D01*
G01X21827512Y8058161D01*
G01X21838942Y8064003D01*
G01X21850372Y8075433D01*
G01X21898124Y8178303D02*
G01X21903966Y8172461D01*
G01X21909554Y8178303D01*
G01X21903966Y8183891D01*
G01X21898124Y8178303D01*
G01X21903966Y8138171D02*
G01X21903966Y8058161D01*
G01X21957306Y8138171D02*
G01X21957306Y8058161D01*
G01X21957306Y8103881D02*
G01X21963148Y8121153D01*
G01X21974578Y8132583D01*
G01X21986008Y8138171D01*
G01X22003026Y8138171D01*
G01X9257705Y7569029D02*
G01X9257705Y7574871D01*
G01X9263293Y7586301D01*
G01X9269135Y7591889D01*
G01X9280565Y7597731D01*
G01X9303425Y7597731D01*
G01X9314855Y7591889D01*
G01X9320443Y7586301D01*
G01X9326285Y7574871D01*
G01X9326285Y7563441D01*
G01X9320443Y7552011D01*
G01X9309013Y7534739D01*
G01X9251863Y7477589D01*
G01X9331873Y7477589D01*
G01X10671868Y7569029D02*
G01X10671868Y7574871D01*
G01X10677456Y7586301D01*
G01X10683298Y7591889D01*
G01X10694728Y7597731D01*
G01X10717588Y7597731D01*
G01X10729018Y7591889D01*
G01X10734606Y7586301D01*
G01X10740448Y7574871D01*
G01X10740448Y7563441D01*
G01X10734606Y7552011D01*
G01X10723176Y7534739D01*
G01X10666026Y7477589D01*
G01X10746036Y7477589D01*
G01X10805218Y7597731D02*
G01X10868210Y7597731D01*
G01X10833920Y7552011D01*
G01X10850938Y7552011D01*
G01X10862368Y7546169D01*
G01X10868210Y7540581D01*
G01X10873798Y7523309D01*
G01X10873798Y7511879D01*
G01X10868210Y7494861D01*
G01X10856780Y7483431D01*
G01X10839508Y7477589D01*
G01X10822490Y7477589D01*
G01X10805218Y7483431D01*
G01X10799630Y7489019D01*
G01X10793788Y7500449D01*
G01X10927392Y7506291D02*
G01X10921550Y7500449D01*
G01X10927392Y7494861D01*
G01X10932980Y7500449D01*
G01X10927392Y7506291D01*
G01X11049312Y7580459D02*
G01X11043724Y7591889D01*
G01X11026452Y7597731D01*
G01X11015022Y7597731D01*
G01X10998004Y7591889D01*
G01X10986574Y7574871D01*
G01X10980732Y7546169D01*
G01X10980732Y7517721D01*
G01X10986574Y7494861D01*
G01X10998004Y7483431D01*
G01X11015022Y7477589D01*
G01X11020864Y7477589D01*
G01X11037882Y7483431D01*
G01X11049312Y7494861D01*
G01X11055154Y7511879D01*
G01X11055154Y7517721D01*
G01X11049312Y7534739D01*
G01X11037882Y7546169D01*
G01X11020864Y7552011D01*
G01X11015022Y7552011D01*
G01X10998004Y7546169D01*
G01X10986574Y7534739D01*
G01X10980732Y7517721D01*
G01X11102906Y7557599D02*
G01X11165898Y7477589D01*
G01X11165898Y7557599D02*
G01X11102906Y7477589D01*
G01X11282230Y7597731D02*
G01X11225080Y7597731D01*
G01X11219492Y7546169D01*
G01X11225080Y7552011D01*
G01X11242352Y7557599D01*
G01X11259370Y7557599D01*
G01X11276642Y7552011D01*
G01X11288072Y7540581D01*
G01X11293660Y7523309D01*
G01X11293660Y7511879D01*
G01X11288072Y7494861D01*
G01X11276642Y7483431D01*
G01X11259370Y7477589D01*
G01X11242352Y7477589D01*
G01X11225080Y7483431D01*
G01X11219492Y7489019D01*
G01X11213650Y7500449D01*
G01X11409992Y7597731D02*
G01X11352842Y7597731D01*
G01X11347254Y7546169D01*
G01X11352842Y7552011D01*
G01X11370114Y7557599D01*
G01X11387132Y7557599D01*
G01X11404404Y7552011D01*
G01X11415834Y7540581D01*
G01X11421422Y7523309D01*
G01X11421422Y7511879D01*
G01X11415834Y7494861D01*
G01X11404404Y7483431D01*
G01X11387132Y7477589D01*
G01X11370114Y7477589D01*
G01X11352842Y7483431D01*
G01X11347254Y7489019D01*
G01X11341412Y7500449D01*
G01X11475016Y7506291D02*
G01X11469174Y7500449D01*
G01X11475016Y7494861D01*
G01X11480604Y7500449D01*
G01X11475016Y7506291D01*
G01X11528356Y7574871D02*
G01X11539786Y7580459D01*
G01X11557058Y7597731D01*
G01X11557058Y7477589D01*
G01X11604810Y7557599D02*
G01X11604810Y7477589D01*
G01X11604810Y7534739D02*
G01X11622082Y7552011D01*
G01X11633512Y7557599D01*
G01X11650530Y7557599D01*
G01X11661960Y7552011D01*
G01X11667802Y7534739D01*
G01X11667802Y7477589D01*
G01X11667802Y7534739D02*
G01X11684820Y7552011D01*
G01X11696250Y7557599D01*
G01X11713522Y7557599D01*
G01X11724952Y7552011D01*
G01X11730540Y7534739D01*
G01X11730540Y7477589D01*
G01X11778292Y7597731D02*
G01X11784134Y7591889D01*
G01X11789722Y7597731D01*
G01X11784134Y7603319D01*
G01X11778292Y7597731D01*
G01X11784134Y7557599D02*
G01X11784134Y7477589D01*
G01X11837474Y7597731D02*
G01X11837474Y7477589D01*
G01X11925358Y7620591D02*
G01X11913928Y7609161D01*
G01X11902498Y7591889D01*
G01X11891068Y7569029D01*
G01X11885226Y7540581D01*
G01X11885226Y7517721D01*
G01X11891068Y7489019D01*
G01X11902498Y7466159D01*
G01X11913928Y7449141D01*
G01X11925358Y7437711D01*
G01X12007400Y7597731D02*
G01X11990382Y7591889D01*
G01X11978952Y7574871D01*
G01X11973110Y7546169D01*
G01X11973110Y7529151D01*
G01X11978952Y7500449D01*
G01X11990382Y7483431D01*
G01X12007400Y7477589D01*
G01X12018830Y7477589D01*
G01X12036102Y7483431D01*
G01X12047532Y7500449D01*
G01X12053120Y7529151D01*
G01X12053120Y7546169D01*
G01X12047532Y7574871D01*
G01X12036102Y7591889D01*
G01X12018830Y7597731D01*
G01X12007400Y7597731D01*
G01X12106714Y7506291D02*
G01X12100872Y7500449D01*
G01X12106714Y7494861D01*
G01X12112302Y7500449D01*
G01X12106714Y7506291D01*
G01X12228634Y7580459D02*
G01X12223046Y7591889D01*
G01X12205774Y7597731D01*
G01X12194344Y7597731D01*
G01X12177326Y7591889D01*
G01X12165896Y7574871D01*
G01X12160054Y7546169D01*
G01X12160054Y7517721D01*
G01X12165896Y7494861D01*
G01X12177326Y7483431D01*
G01X12194344Y7477589D01*
G01X12200186Y7477589D01*
G01X12217204Y7483431D01*
G01X12228634Y7494861D01*
G01X12234476Y7511879D01*
G01X12234476Y7517721D01*
G01X12228634Y7534739D01*
G01X12217204Y7546169D01*
G01X12200186Y7552011D01*
G01X12194344Y7552011D01*
G01X12177326Y7546169D01*
G01X12165896Y7534739D01*
G01X12160054Y7517721D01*
G01X12316518Y7597731D02*
G01X12299500Y7591889D01*
G01X12288070Y7574871D01*
G01X12282228Y7546169D01*
G01X12282228Y7529151D01*
G01X12288070Y7500449D01*
G01X12299500Y7483431D01*
G01X12316518Y7477589D01*
G01X12327948Y7477589D01*
G01X12345220Y7483431D01*
G01X12356650Y7500449D01*
G01X12362238Y7529151D01*
G01X12362238Y7546169D01*
G01X12356650Y7574871D01*
G01X12345220Y7591889D01*
G01X12327948Y7597731D01*
G01X12316518Y7597731D01*
G01X12444280Y7597731D02*
G01X12427262Y7591889D01*
G01X12415832Y7574871D01*
G01X12409990Y7546169D01*
G01X12409990Y7529151D01*
G01X12415832Y7500449D01*
G01X12427262Y7483431D01*
G01X12444280Y7477589D01*
G01X12455710Y7477589D01*
G01X12472982Y7483431D01*
G01X12484412Y7500449D01*
G01X12490000Y7529151D01*
G01X12490000Y7546169D01*
G01X12484412Y7574871D01*
G01X12472982Y7591889D01*
G01X12455710Y7597731D01*
G01X12444280Y7597731D01*
G01X12537752Y7557599D02*
G01X12600744Y7477589D01*
G01X12600744Y7557599D02*
G01X12537752Y7477589D01*
G01X12648496Y7574871D02*
G01X12659926Y7580459D01*
G01X12677198Y7597731D01*
G01X12677198Y7477589D01*
G01X12730792Y7506291D02*
G01X12724950Y7500449D01*
G01X12730792Y7494861D01*
G01X12736380Y7500449D01*
G01X12730792Y7506291D01*
G01X12841282Y7597731D02*
G01X12784132Y7517721D01*
G01X12869984Y7517721D01*
G01X12841282Y7597731D02*
G01X12841282Y7477589D01*
G01X12952026Y7597731D02*
G01X12935008Y7591889D01*
G01X12923578Y7574871D01*
G01X12917736Y7546169D01*
G01X12917736Y7529151D01*
G01X12923578Y7500449D01*
G01X12935008Y7483431D01*
G01X12952026Y7477589D01*
G01X12963456Y7477589D01*
G01X12980728Y7483431D01*
G01X12992158Y7500449D01*
G01X12997746Y7529151D01*
G01X12997746Y7546169D01*
G01X12992158Y7574871D01*
G01X12980728Y7591889D01*
G01X12963456Y7597731D01*
G01X12952026Y7597731D01*
G01X13079788Y7597731D02*
G01X13062770Y7591889D01*
G01X13051340Y7574871D01*
G01X13045498Y7546169D01*
G01X13045498Y7529151D01*
G01X13051340Y7500449D01*
G01X13062770Y7483431D01*
G01X13079788Y7477589D01*
G01X13091218Y7477589D01*
G01X13108490Y7483431D01*
G01X13119920Y7500449D01*
G01X13125508Y7529151D01*
G01X13125508Y7546169D01*
G01X13119920Y7574871D01*
G01X13108490Y7591889D01*
G01X13091218Y7597731D01*
G01X13079788Y7597731D01*
G01X13173260Y7557599D02*
G01X13173260Y7477589D01*
G01X13173260Y7534739D02*
G01X13190532Y7552011D01*
G01X13201962Y7557599D01*
G01X13218980Y7557599D01*
G01X13230410Y7552011D01*
G01X13236252Y7534739D01*
G01X13236252Y7477589D01*
G01X13236252Y7534739D02*
G01X13253270Y7552011D01*
G01X13264700Y7557599D01*
G01X13281972Y7557599D01*
G01X13293402Y7552011D01*
G01X13298990Y7534739D01*
G01X13298990Y7477589D01*
G01X13346742Y7557599D02*
G01X13346742Y7477589D01*
G01X13346742Y7534739D02*
G01X13364014Y7552011D01*
G01X13375444Y7557599D01*
G01X13392462Y7557599D01*
G01X13403892Y7552011D01*
G01X13409734Y7534739D01*
G01X13409734Y7477589D01*
G01X13409734Y7534739D02*
G01X13426752Y7552011D01*
G01X13438182Y7557599D01*
G01X13455454Y7557599D01*
G01X13466884Y7552011D01*
G01X13472472Y7534739D01*
G01X13472472Y7477589D01*
G01X13520224Y7620591D02*
G01X13531654Y7609161D01*
G01X13543084Y7591889D01*
G01X13554514Y7569029D01*
G01X13560356Y7540581D01*
G01X13560356Y7517721D01*
G01X13554514Y7489019D01*
G01X13543084Y7466159D01*
G01X13531654Y7449141D01*
G01X13520224Y7437711D01*
G01X14480236Y7597731D02*
G01X14480236Y7477589D01*
G01X14480236Y7597731D02*
G01X14531798Y7597731D01*
G01X14548816Y7591889D01*
G01X14554658Y7586301D01*
G01X14560246Y7574871D01*
G01X14560246Y7557599D01*
G01X14554658Y7546169D01*
G01X14548816Y7540581D01*
G01X14531798Y7534739D01*
G01X14480236Y7534739D01*
G01X14648130Y7597731D02*
G01X14648130Y7477589D01*
G01X14607998Y7597731D02*
G01X14688008Y7597731D01*
G01X14735760Y7597731D02*
G01X14735760Y7477589D01*
G01X14815770Y7597731D02*
G01X14815770Y7477589D01*
G01X14735760Y7540581D02*
G01X14815770Y7540581D01*
G01X16021653Y7580459D02*
G01X16010223Y7591889D01*
G01X15993205Y7597731D01*
G01X15970345Y7597731D01*
G01X15953073Y7591889D01*
G01X15941643Y7580459D01*
G01X15941643Y7569029D01*
G01X15947485Y7557599D01*
G01X15953073Y7552011D01*
G01X15964503Y7546169D01*
G01X15998793Y7534739D01*
G01X16010223Y7529151D01*
G01X16016065Y7523309D01*
G01X16021653Y7511879D01*
G01X16021653Y7494861D01*
G01X16010223Y7483431D01*
G01X15993205Y7477589D01*
G01X15970345Y7477589D01*
G01X15953073Y7483431D01*
G01X15941643Y7494861D01*
G01X16069405Y7597731D02*
G01X16069405Y7477589D01*
G01X16145859Y7557599D02*
G01X16134429Y7552011D01*
G01X16122999Y7540581D01*
G01X16117157Y7523309D01*
G01X16117157Y7511879D01*
G01X16122999Y7494861D01*
G01X16134429Y7483431D01*
G01X16145859Y7477589D01*
G01X16162877Y7477589D01*
G01X16174307Y7483431D01*
G01X16185737Y7494861D01*
G01X16191579Y7511879D01*
G01X16191579Y7523309D01*
G01X16185737Y7540581D01*
G01X16174307Y7552011D01*
G01X16162877Y7557599D01*
G01X16145859Y7557599D01*
G01X16256603Y7597731D02*
G01X16256603Y7500449D01*
G01X16262191Y7483431D01*
G01X16273621Y7477589D01*
G01X16285051Y7477589D01*
G01X16239331Y7557599D02*
G01X16279463Y7557599D01*
G01X17372824Y7597731D02*
G01X17372824Y7477589D01*
G01X17372824Y7597731D02*
G01X17424386Y7597731D01*
G01X17441404Y7591889D01*
G01X17447246Y7586301D01*
G01X17452834Y7574871D01*
G01X17452834Y7557599D01*
G01X17447246Y7546169D01*
G01X17441404Y7540581D01*
G01X17424386Y7534739D01*
G01X17372824Y7534739D01*
G01X17569166Y7557599D02*
G01X17569166Y7477589D01*
G01X17569166Y7540581D02*
G01X17557736Y7552011D01*
G01X17546306Y7557599D01*
G01X17529288Y7557599D01*
G01X17517858Y7552011D01*
G01X17506428Y7540581D01*
G01X17500586Y7523309D01*
G01X17500586Y7511879D01*
G01X17506428Y7494861D01*
G01X17517858Y7483431D01*
G01X17529288Y7477589D01*
G01X17546306Y7477589D01*
G01X17557736Y7483431D01*
G01X17569166Y7494861D01*
G01X17685498Y7597731D02*
G01X17685498Y7477589D01*
G01X17685498Y7540581D02*
G01X17674068Y7552011D01*
G01X17662638Y7557599D01*
G01X17645620Y7557599D01*
G01X17634190Y7552011D01*
G01X17622760Y7540581D01*
G01X17616918Y7523309D01*
G01X17616918Y7511879D01*
G01X17622760Y7494861D01*
G01X17634190Y7483431D01*
G01X17645620Y7477589D01*
G01X17662638Y7477589D01*
G01X17674068Y7483431D01*
G01X17685498Y7494861D01*
G01X19076293Y7597731D02*
G01X19064863Y7591889D01*
G01X19053433Y7580459D01*
G01X19047845Y7569029D01*
G01X19042003Y7552011D01*
G01X19042003Y7523309D01*
G01X19047845Y7506291D01*
G01X19053433Y7494861D01*
G01X19064863Y7483431D01*
G01X19076293Y7477589D01*
G01X19099153Y7477589D01*
G01X19110583Y7483431D01*
G01X19122013Y7494861D01*
G01X19127855Y7506291D01*
G01X19133443Y7523309D01*
G01X19133443Y7552011D01*
G01X19127855Y7569029D01*
G01X19122013Y7580459D01*
G01X19110583Y7591889D01*
G01X19099153Y7597731D01*
G01X19076293Y7597731D01*
G01X19181195Y7557599D02*
G01X19215485Y7477589D01*
G01X19249775Y7557599D02*
G01X19215485Y7477589D01*
G01X19366107Y7557599D02*
G01X19366107Y7477589D01*
G01X19366107Y7540581D02*
G01X19354677Y7552011D01*
G01X19343247Y7557599D01*
G01X19326229Y7557599D01*
G01X19314799Y7552011D01*
G01X19303369Y7540581D01*
G01X19297527Y7523309D01*
G01X19297527Y7511879D01*
G01X19303369Y7494861D01*
G01X19314799Y7483431D01*
G01X19326229Y7477589D01*
G01X19343247Y7477589D01*
G01X19354677Y7483431D01*
G01X19366107Y7494861D01*
G01X19413859Y7597731D02*
G01X19413859Y7477589D01*
G01X21001504Y7597731D02*
G01X21001504Y7477589D01*
G01X20961372Y7597731D02*
G01X21041382Y7597731D01*
G01X21117836Y7557599D02*
G01X21106406Y7552011D01*
G01X21094976Y7540581D01*
G01X21089134Y7523309D01*
G01X21089134Y7511879D01*
G01X21094976Y7494861D01*
G01X21106406Y7483431D01*
G01X21117836Y7477589D01*
G01X21134854Y7477589D01*
G01X21146284Y7483431D01*
G01X21157714Y7494861D01*
G01X21163556Y7511879D01*
G01X21163556Y7523309D01*
G01X21157714Y7540581D01*
G01X21146284Y7552011D01*
G01X21134854Y7557599D01*
G01X21117836Y7557599D01*
G01X21211308Y7557599D02*
G01X21211308Y7437711D01*
G01X21211308Y7540581D02*
G01X21222738Y7552011D01*
G01X21234168Y7557599D01*
G01X21251440Y7557599D01*
G01X21262870Y7552011D01*
G01X21274300Y7540581D01*
G01X21279888Y7523309D01*
G01X21279888Y7511879D01*
G01X21274300Y7494861D01*
G01X21262870Y7483431D01*
G01X21251440Y7477589D01*
G01X21234168Y7477589D01*
G01X21222738Y7483431D01*
G01X21211308Y7494861D01*
G01X21455656Y7597731D02*
G01X21455656Y7477589D01*
G01X21455656Y7477589D02*
G01X21524236Y7477589D01*
G01X21640568Y7557599D02*
G01X21640568Y7477589D01*
G01X21640568Y7540581D02*
G01X21629138Y7552011D01*
G01X21617708Y7557599D01*
G01X21600690Y7557599D01*
G01X21589260Y7552011D01*
G01X21577830Y7540581D01*
G01X21571988Y7523309D01*
G01X21571988Y7511879D01*
G01X21577830Y7494861D01*
G01X21589260Y7483431D01*
G01X21600690Y7477589D01*
G01X21617708Y7477589D01*
G01X21629138Y7483431D01*
G01X21640568Y7494861D01*
G01X21694162Y7557599D02*
G01X21728452Y7477589D01*
G01X21762742Y7557599D02*
G01X21728452Y7477589D01*
G01X21717022Y7454729D01*
G01X21705592Y7443299D01*
G01X21694162Y7437711D01*
G01X21688320Y7437711D01*
G01X21810494Y7523309D02*
G01X21879074Y7523309D01*
G01X21879074Y7534739D01*
G01X21873486Y7546169D01*
G01X21867644Y7552011D01*
G01X21856214Y7557599D01*
G01X21839196Y7557599D01*
G01X21827766Y7552011D01*
G01X21816336Y7540581D01*
G01X21810494Y7523309D01*
G01X21810494Y7511879D01*
G01X21816336Y7494861D01*
G01X21827766Y7483431D01*
G01X21839196Y7477589D01*
G01X21856214Y7477589D01*
G01X21867644Y7483431D01*
G01X21879074Y7494861D01*
G01X21926826Y7557599D02*
G01X21926826Y7477589D01*
G01X21926826Y7523309D02*
G01X21932668Y7540581D01*
G01X21944098Y7552011D01*
G01X21955528Y7557599D01*
G01X21972546Y7557599D01*
G01X22020298Y7529151D02*
G01X22123168Y7529151D01*
G01X22170920Y7597731D02*
G01X22170920Y7477589D01*
G01X22170920Y7597731D02*
G01X22222482Y7597731D01*
G01X22239500Y7591889D01*
G01X22245342Y7586301D01*
G01X22250930Y7574871D01*
G01X22250930Y7563441D01*
G01X22245342Y7552011D01*
G01X22239500Y7546169D01*
G01X22222482Y7540581D01*
G01X22170920Y7540581D02*
G01X22222482Y7540581D01*
G01X22239500Y7534739D01*
G01X22245342Y7529151D01*
G01X22250930Y7517721D01*
G01X22250930Y7500449D01*
G01X22245342Y7489019D01*
G01X22239500Y7483431D01*
G01X22222482Y7477589D01*
G01X22170920Y7477589D01*
G01X22327384Y7557599D02*
G01X22315954Y7552011D01*
G01X22304524Y7540581D01*
G01X22298682Y7523309D01*
G01X22298682Y7511879D01*
G01X22304524Y7494861D01*
G01X22315954Y7483431D01*
G01X22327384Y7477589D01*
G01X22344402Y7477589D01*
G01X22355832Y7483431D01*
G01X22367262Y7494861D01*
G01X22373104Y7511879D01*
G01X22373104Y7523309D01*
G01X22367262Y7540581D01*
G01X22355832Y7552011D01*
G01X22344402Y7557599D01*
G01X22327384Y7557599D01*
G01X22438128Y7597731D02*
G01X22438128Y7500449D01*
G01X22443716Y7483431D01*
G01X22455146Y7477589D01*
G01X22466576Y7477589D01*
G01X22420856Y7557599D02*
G01X22460988Y7557599D01*
G01X22531600Y7597731D02*
G01X22531600Y7500449D01*
G01X22537188Y7483431D01*
G01X22548618Y7477589D01*
G01X22560048Y7477589D01*
G01X22514328Y7557599D02*
G01X22554460Y7557599D01*
G01X22636502Y7557599D02*
G01X22625072Y7552011D01*
G01X22613642Y7540581D01*
G01X22607800Y7523309D01*
G01X22607800Y7511879D01*
G01X22613642Y7494861D01*
G01X22625072Y7483431D01*
G01X22636502Y7477589D01*
G01X22653520Y7477589D01*
G01X22664950Y7483431D01*
G01X22676380Y7494861D01*
G01X22682222Y7511879D01*
G01X22682222Y7523309D01*
G01X22676380Y7540581D01*
G01X22664950Y7552011D01*
G01X22653520Y7557599D01*
G01X22636502Y7557599D01*
G01X22729974Y7557599D02*
G01X22729974Y7477589D01*
G01X22729974Y7534739D02*
G01X22747246Y7552011D01*
G01X22758676Y7557599D01*
G01X22775694Y7557599D01*
G01X22787124Y7552011D01*
G01X22792966Y7534739D01*
G01X22792966Y7477589D01*
G01X22792966Y7534739D02*
G01X22809984Y7552011D01*
G01X22821414Y7557599D01*
G01X22838686Y7557599D01*
G01X22850116Y7552011D01*
G01X22855704Y7534739D01*
G01X22855704Y7477589D01*
G01X23031472Y7597731D02*
G01X23031472Y7477589D01*
G01X23031472Y7477589D02*
G01X23100052Y7477589D01*
G01X23216384Y7557599D02*
G01X23216384Y7477589D01*
G01X23216384Y7540581D02*
G01X23204954Y7552011D01*
G01X23193524Y7557599D01*
G01X23176506Y7557599D01*
G01X23165076Y7552011D01*
G01X23153646Y7540581D01*
G01X23147804Y7523309D01*
G01X23147804Y7511879D01*
G01X23153646Y7494861D01*
G01X23165076Y7483431D01*
G01X23176506Y7477589D01*
G01X23193524Y7477589D01*
G01X23204954Y7483431D01*
G01X23216384Y7494861D01*
G01X23269978Y7557599D02*
G01X23304268Y7477589D01*
G01X23338558Y7557599D02*
G01X23304268Y7477589D01*
G01X23292838Y7454729D01*
G01X23281408Y7443299D01*
G01X23269978Y7437711D01*
G01X23264136Y7437711D01*
G01X23386310Y7523309D02*
G01X23454890Y7523309D01*
G01X23454890Y7534739D01*
G01X23449302Y7546169D01*
G01X23443460Y7552011D01*
G01X23432030Y7557599D01*
G01X23415012Y7557599D01*
G01X23403582Y7552011D01*
G01X23392152Y7540581D01*
G01X23386310Y7523309D01*
G01X23386310Y7511879D01*
G01X23392152Y7494861D01*
G01X23403582Y7483431D01*
G01X23415012Y7477589D01*
G01X23432030Y7477589D01*
G01X23443460Y7483431D01*
G01X23454890Y7494861D01*
G01X23502642Y7557599D02*
G01X23502642Y7477589D01*
G01X23502642Y7523309D02*
G01X23508484Y7540581D01*
G01X23519914Y7552011D01*
G01X23531344Y7557599D01*
G01X23548362Y7557599D01*
G01X9257705Y6988458D02*
G01X9257705Y6994300D01*
G01X9263293Y7005730D01*
G01X9269135Y7011318D01*
G01X9280565Y7017160D01*
G01X9303425Y7017160D01*
G01X9314855Y7011318D01*
G01X9320443Y7005730D01*
G01X9326285Y6994300D01*
G01X9326285Y6982870D01*
G01X9320443Y6971440D01*
G01X9309013Y6954168D01*
G01X9251863Y6897018D01*
G01X9331873Y6897018D01*
G01X10671868Y6988458D02*
G01X10671868Y6994300D01*
G01X10677456Y7005730D01*
G01X10683298Y7011318D01*
G01X10694728Y7017160D01*
G01X10717588Y7017160D01*
G01X10729018Y7011318D01*
G01X10734606Y7005730D01*
G01X10740448Y6994300D01*
G01X10740448Y6982870D01*
G01X10734606Y6971440D01*
G01X10723176Y6954168D01*
G01X10666026Y6897018D01*
G01X10746036Y6897018D01*
G01X10805218Y7017160D02*
G01X10868210Y7017160D01*
G01X10833920Y6971440D01*
G01X10850938Y6971440D01*
G01X10862368Y6965598D01*
G01X10868210Y6960010D01*
G01X10873798Y6942738D01*
G01X10873798Y6931308D01*
G01X10868210Y6914290D01*
G01X10856780Y6902860D01*
G01X10839508Y6897018D01*
G01X10822490Y6897018D01*
G01X10805218Y6902860D01*
G01X10799630Y6908448D01*
G01X10793788Y6919878D01*
G01X10927392Y6925720D02*
G01X10921550Y6919878D01*
G01X10927392Y6914290D01*
G01X10932980Y6919878D01*
G01X10927392Y6925720D01*
G01X11049312Y6999888D02*
G01X11043724Y7011318D01*
G01X11026452Y7017160D01*
G01X11015022Y7017160D01*
G01X10998004Y7011318D01*
G01X10986574Y6994300D01*
G01X10980732Y6965598D01*
G01X10980732Y6937150D01*
G01X10986574Y6914290D01*
G01X10998004Y6902860D01*
G01X11015022Y6897018D01*
G01X11020864Y6897018D01*
G01X11037882Y6902860D01*
G01X11049312Y6914290D01*
G01X11055154Y6931308D01*
G01X11055154Y6937150D01*
G01X11049312Y6954168D01*
G01X11037882Y6965598D01*
G01X11020864Y6971440D01*
G01X11015022Y6971440D01*
G01X10998004Y6965598D01*
G01X10986574Y6954168D01*
G01X10980732Y6937150D01*
G01X11102906Y6977028D02*
G01X11165898Y6897018D01*
G01X11165898Y6977028D02*
G01X11102906Y6897018D01*
G01X11282230Y6999888D02*
G01X11276642Y7011318D01*
G01X11259370Y7017160D01*
G01X11247940Y7017160D01*
G01X11230922Y7011318D01*
G01X11219492Y6994300D01*
G01X11213650Y6965598D01*
G01X11213650Y6937150D01*
G01X11219492Y6914290D01*
G01X11230922Y6902860D01*
G01X11247940Y6897018D01*
G01X11253782Y6897018D01*
G01X11270800Y6902860D01*
G01X11282230Y6914290D01*
G01X11288072Y6931308D01*
G01X11288072Y6937150D01*
G01X11282230Y6954168D01*
G01X11270800Y6965598D01*
G01X11253782Y6971440D01*
G01X11247940Y6971440D01*
G01X11230922Y6965598D01*
G01X11219492Y6954168D01*
G01X11213650Y6937150D01*
G01X11404404Y6999888D02*
G01X11398816Y7011318D01*
G01X11381544Y7017160D01*
G01X11370114Y7017160D01*
G01X11353096Y7011318D01*
G01X11341666Y6994300D01*
G01X11335824Y6965598D01*
G01X11335824Y6937150D01*
G01X11341666Y6914290D01*
G01X11353096Y6902860D01*
G01X11370114Y6897018D01*
G01X11375956Y6897018D01*
G01X11392974Y6902860D01*
G01X11404404Y6914290D01*
G01X11410246Y6931308D01*
G01X11410246Y6937150D01*
G01X11404404Y6954168D01*
G01X11392974Y6965598D01*
G01X11375956Y6971440D01*
G01X11370114Y6971440D01*
G01X11353096Y6965598D01*
G01X11341666Y6954168D01*
G01X11335824Y6937150D01*
G01X11463840Y6925720D02*
G01X11457998Y6919878D01*
G01X11463840Y6914290D01*
G01X11469428Y6919878D01*
G01X11463840Y6925720D01*
G01X11591602Y6977028D02*
G01X11585760Y6960010D01*
G01X11574330Y6948580D01*
G01X11557312Y6942738D01*
G01X11551470Y6942738D01*
G01X11534452Y6948580D01*
G01X11523022Y6960010D01*
G01X11517180Y6977028D01*
G01X11517180Y6982870D01*
G01X11523022Y6999888D01*
G01X11534452Y7011318D01*
G01X11551470Y7017160D01*
G01X11557312Y7017160D01*
G01X11574330Y7011318D01*
G01X11585760Y6999888D01*
G01X11591602Y6977028D01*
G01X11591602Y6948580D01*
G01X11585760Y6919878D01*
G01X11574330Y6902860D01*
G01X11557312Y6897018D01*
G01X11545882Y6897018D01*
G01X11528610Y6902860D01*
G01X11523022Y6914290D01*
G01X11639354Y6977028D02*
G01X11639354Y6897018D01*
G01X11639354Y6954168D02*
G01X11656626Y6971440D01*
G01X11668056Y6977028D01*
G01X11685074Y6977028D01*
G01X11696504Y6971440D01*
G01X11702346Y6954168D01*
G01X11702346Y6897018D01*
G01X11702346Y6954168D02*
G01X11719364Y6971440D01*
G01X11730794Y6977028D01*
G01X11748066Y6977028D01*
G01X11759496Y6971440D01*
G01X11765084Y6954168D01*
G01X11765084Y6897018D01*
G01X11812836Y7017160D02*
G01X11818678Y7011318D01*
G01X11824266Y7017160D01*
G01X11818678Y7022748D01*
G01X11812836Y7017160D01*
G01X11818678Y6977028D02*
G01X11818678Y6897018D01*
G01X11872018Y7017160D02*
G01X11872018Y6897018D01*
G01X11959902Y7040020D02*
G01X11948472Y7028590D01*
G01X11937042Y7011318D01*
G01X11925612Y6988458D01*
G01X11919770Y6960010D01*
G01X11919770Y6937150D01*
G01X11925612Y6908448D01*
G01X11937042Y6885588D01*
G01X11948472Y6868570D01*
G01X11959902Y6857140D01*
G01X12041944Y7017160D02*
G01X12024926Y7011318D01*
G01X12013496Y6994300D01*
G01X12007654Y6965598D01*
G01X12007654Y6948580D01*
G01X12013496Y6919878D01*
G01X12024926Y6902860D01*
G01X12041944Y6897018D01*
G01X12053374Y6897018D01*
G01X12070646Y6902860D01*
G01X12082076Y6919878D01*
G01X12087664Y6948580D01*
G01X12087664Y6965598D01*
G01X12082076Y6994300D01*
G01X12070646Y7011318D01*
G01X12053374Y7017160D01*
G01X12041944Y7017160D01*
G01X12141258Y6925720D02*
G01X12135416Y6919878D01*
G01X12141258Y6914290D01*
G01X12146846Y6919878D01*
G01X12141258Y6925720D01*
G01X12263178Y6999888D02*
G01X12257590Y7011318D01*
G01X12240318Y7017160D01*
G01X12228888Y7017160D01*
G01X12211870Y7011318D01*
G01X12200440Y6994300D01*
G01X12194598Y6965598D01*
G01X12194598Y6937150D01*
G01X12200440Y6914290D01*
G01X12211870Y6902860D01*
G01X12228888Y6897018D01*
G01X12234730Y6897018D01*
G01X12251748Y6902860D01*
G01X12263178Y6914290D01*
G01X12269020Y6931308D01*
G01X12269020Y6937150D01*
G01X12263178Y6954168D01*
G01X12251748Y6965598D01*
G01X12234730Y6971440D01*
G01X12228888Y6971440D01*
G01X12211870Y6965598D01*
G01X12200440Y6954168D01*
G01X12194598Y6937150D01*
G01X12351062Y7017160D02*
G01X12334044Y7011318D01*
G01X12322614Y6994300D01*
G01X12316772Y6965598D01*
G01X12316772Y6948580D01*
G01X12322614Y6919878D01*
G01X12334044Y6902860D01*
G01X12351062Y6897018D01*
G01X12362492Y6897018D01*
G01X12379764Y6902860D01*
G01X12391194Y6919878D01*
G01X12396782Y6948580D01*
G01X12396782Y6965598D01*
G01X12391194Y6994300D01*
G01X12379764Y7011318D01*
G01X12362492Y7017160D01*
G01X12351062Y7017160D01*
G01X12478824Y7017160D02*
G01X12461806Y7011318D01*
G01X12450376Y6994300D01*
G01X12444534Y6965598D01*
G01X12444534Y6948580D01*
G01X12450376Y6919878D01*
G01X12461806Y6902860D01*
G01X12478824Y6897018D01*
G01X12490254Y6897018D01*
G01X12507526Y6902860D01*
G01X12518956Y6919878D01*
G01X12524544Y6948580D01*
G01X12524544Y6965598D01*
G01X12518956Y6994300D01*
G01X12507526Y7011318D01*
G01X12490254Y7017160D01*
G01X12478824Y7017160D01*
G01X12572296Y6977028D02*
G01X12635288Y6897018D01*
G01X12635288Y6977028D02*
G01X12572296Y6897018D01*
G01X12683040Y6994300D02*
G01X12694470Y6999888D01*
G01X12711742Y7017160D01*
G01X12711742Y6897018D01*
G01X12765336Y6925720D02*
G01X12759494Y6919878D01*
G01X12765336Y6914290D01*
G01X12770924Y6919878D01*
G01X12765336Y6925720D01*
G01X12898686Y7017160D02*
G01X12841536Y6897018D01*
G01X12818676Y7017160D02*
G01X12898686Y7017160D01*
G01X12980728Y7017160D02*
G01X12963710Y7011318D01*
G01X12952280Y6994300D01*
G01X12946438Y6965598D01*
G01X12946438Y6948580D01*
G01X12952280Y6919878D01*
G01X12963710Y6902860D01*
G01X12980728Y6897018D01*
G01X12992158Y6897018D01*
G01X13009430Y6902860D01*
G01X13020860Y6919878D01*
G01X13026448Y6948580D01*
G01X13026448Y6965598D01*
G01X13020860Y6994300D01*
G01X13009430Y7011318D01*
G01X12992158Y7017160D01*
G01X12980728Y7017160D01*
G01X13108490Y7017160D02*
G01X13091472Y7011318D01*
G01X13080042Y6994300D01*
G01X13074200Y6965598D01*
G01X13074200Y6948580D01*
G01X13080042Y6919878D01*
G01X13091472Y6902860D01*
G01X13108490Y6897018D01*
G01X13119920Y6897018D01*
G01X13137192Y6902860D01*
G01X13148622Y6919878D01*
G01X13154210Y6948580D01*
G01X13154210Y6965598D01*
G01X13148622Y6994300D01*
G01X13137192Y7011318D01*
G01X13119920Y7017160D01*
G01X13108490Y7017160D01*
G01X13201962Y6977028D02*
G01X13201962Y6897018D01*
G01X13201962Y6954168D02*
G01X13219234Y6971440D01*
G01X13230664Y6977028D01*
G01X13247682Y6977028D01*
G01X13259112Y6971440D01*
G01X13264954Y6954168D01*
G01X13264954Y6897018D01*
G01X13264954Y6954168D02*
G01X13281972Y6971440D01*
G01X13293402Y6977028D01*
G01X13310674Y6977028D01*
G01X13322104Y6971440D01*
G01X13327692Y6954168D01*
G01X13327692Y6897018D01*
G01X13375444Y6977028D02*
G01X13375444Y6897018D01*
G01X13375444Y6954168D02*
G01X13392716Y6971440D01*
G01X13404146Y6977028D01*
G01X13421164Y6977028D01*
G01X13432594Y6971440D01*
G01X13438436Y6954168D01*
G01X13438436Y6897018D01*
G01X13438436Y6954168D02*
G01X13455454Y6971440D01*
G01X13466884Y6977028D01*
G01X13484156Y6977028D01*
G01X13495586Y6971440D01*
G01X13501174Y6954168D01*
G01X13501174Y6897018D01*
G01X13548926Y7040020D02*
G01X13560356Y7028590D01*
G01X13571786Y7011318D01*
G01X13583216Y6988458D01*
G01X13589058Y6960010D01*
G01X13589058Y6937150D01*
G01X13583216Y6908448D01*
G01X13571786Y6885588D01*
G01X13560356Y6868570D01*
G01X13548926Y6857140D01*
G01X14480236Y7017160D02*
G01X14480236Y6897018D01*
G01X14480236Y7017160D02*
G01X14531798Y7017160D01*
G01X14548816Y7011318D01*
G01X14554658Y7005730D01*
G01X14560246Y6994300D01*
G01X14560246Y6977028D01*
G01X14554658Y6965598D01*
G01X14548816Y6960010D01*
G01X14531798Y6954168D01*
G01X14480236Y6954168D01*
G01X14648130Y7017160D02*
G01X14648130Y6897018D01*
G01X14607998Y7017160D02*
G01X14688008Y7017160D01*
G01X14735760Y7017160D02*
G01X14735760Y6897018D01*
G01X14815770Y7017160D02*
G01X14815770Y6897018D01*
G01X14735760Y6960010D02*
G01X14815770Y6960010D01*
G01X16021653Y6999888D02*
G01X16010223Y7011318D01*
G01X15993205Y7017160D01*
G01X15970345Y7017160D01*
G01X15953073Y7011318D01*
G01X15941643Y6999888D01*
G01X15941643Y6988458D01*
G01X15947485Y6977028D01*
G01X15953073Y6971440D01*
G01X15964503Y6965598D01*
G01X15998793Y6954168D01*
G01X16010223Y6948580D01*
G01X16016065Y6942738D01*
G01X16021653Y6931308D01*
G01X16021653Y6914290D01*
G01X16010223Y6902860D01*
G01X15993205Y6897018D01*
G01X15970345Y6897018D01*
G01X15953073Y6902860D01*
G01X15941643Y6914290D01*
G01X16069405Y7017160D02*
G01X16069405Y6897018D01*
G01X16145859Y6977028D02*
G01X16134429Y6971440D01*
G01X16122999Y6960010D01*
G01X16117157Y6942738D01*
G01X16117157Y6931308D01*
G01X16122999Y6914290D01*
G01X16134429Y6902860D01*
G01X16145859Y6897018D01*
G01X16162877Y6897018D01*
G01X16174307Y6902860D01*
G01X16185737Y6914290D01*
G01X16191579Y6931308D01*
G01X16191579Y6942738D01*
G01X16185737Y6960010D01*
G01X16174307Y6971440D01*
G01X16162877Y6977028D01*
G01X16145859Y6977028D01*
G01X16256603Y7017160D02*
G01X16256603Y6919878D01*
G01X16262191Y6902860D01*
G01X16273621Y6897018D01*
G01X16285051Y6897018D01*
G01X16239331Y6977028D02*
G01X16279463Y6977028D01*
G01X17372824Y7017160D02*
G01X17372824Y6897018D01*
G01X17372824Y7017160D02*
G01X17424386Y7017160D01*
G01X17441404Y7011318D01*
G01X17447246Y7005730D01*
G01X17452834Y6994300D01*
G01X17452834Y6977028D01*
G01X17447246Y6965598D01*
G01X17441404Y6960010D01*
G01X17424386Y6954168D01*
G01X17372824Y6954168D01*
G01X17569166Y6977028D02*
G01X17569166Y6897018D01*
G01X17569166Y6960010D02*
G01X17557736Y6971440D01*
G01X17546306Y6977028D01*
G01X17529288Y6977028D01*
G01X17517858Y6971440D01*
G01X17506428Y6960010D01*
G01X17500586Y6942738D01*
G01X17500586Y6931308D01*
G01X17506428Y6914290D01*
G01X17517858Y6902860D01*
G01X17529288Y6897018D01*
G01X17546306Y6897018D01*
G01X17557736Y6902860D01*
G01X17569166Y6914290D01*
G01X17685498Y7017160D02*
G01X17685498Y6897018D01*
G01X17685498Y6960010D02*
G01X17674068Y6971440D01*
G01X17662638Y6977028D01*
G01X17645620Y6977028D01*
G01X17634190Y6971440D01*
G01X17622760Y6960010D01*
G01X17616918Y6942738D01*
G01X17616918Y6931308D01*
G01X17622760Y6914290D01*
G01X17634190Y6902860D01*
G01X17645620Y6897018D01*
G01X17662638Y6897018D01*
G01X17674068Y6902860D01*
G01X17685498Y6914290D01*
G01X19076293Y7017160D02*
G01X19064863Y7011318D01*
G01X19053433Y6999888D01*
G01X19047845Y6988458D01*
G01X19042003Y6971440D01*
G01X19042003Y6942738D01*
G01X19047845Y6925720D01*
G01X19053433Y6914290D01*
G01X19064863Y6902860D01*
G01X19076293Y6897018D01*
G01X19099153Y6897018D01*
G01X19110583Y6902860D01*
G01X19122013Y6914290D01*
G01X19127855Y6925720D01*
G01X19133443Y6942738D01*
G01X19133443Y6971440D01*
G01X19127855Y6988458D01*
G01X19122013Y6999888D01*
G01X19110583Y7011318D01*
G01X19099153Y7017160D01*
G01X19076293Y7017160D01*
G01X19181195Y6977028D02*
G01X19215485Y6897018D01*
G01X19249775Y6977028D02*
G01X19215485Y6897018D01*
G01X19366107Y6977028D02*
G01X19366107Y6897018D01*
G01X19366107Y6960010D02*
G01X19354677Y6971440D01*
G01X19343247Y6977028D01*
G01X19326229Y6977028D01*
G01X19314799Y6971440D01*
G01X19303369Y6960010D01*
G01X19297527Y6942738D01*
G01X19297527Y6931308D01*
G01X19303369Y6914290D01*
G01X19314799Y6902860D01*
G01X19326229Y6897018D01*
G01X19343247Y6897018D01*
G01X19354677Y6902860D01*
G01X19366107Y6914290D01*
G01X19413859Y7017160D02*
G01X19413859Y6897018D01*
G01X21001504Y7017160D02*
G01X21001504Y6897018D01*
G01X20961372Y7017160D02*
G01X21041382Y7017160D01*
G01X21117836Y6977028D02*
G01X21106406Y6971440D01*
G01X21094976Y6960010D01*
G01X21089134Y6942738D01*
G01X21089134Y6931308D01*
G01X21094976Y6914290D01*
G01X21106406Y6902860D01*
G01X21117836Y6897018D01*
G01X21134854Y6897018D01*
G01X21146284Y6902860D01*
G01X21157714Y6914290D01*
G01X21163556Y6931308D01*
G01X21163556Y6942738D01*
G01X21157714Y6960010D01*
G01X21146284Y6971440D01*
G01X21134854Y6977028D01*
G01X21117836Y6977028D01*
G01X21211308Y6977028D02*
G01X21211308Y6857140D01*
G01X21211308Y6960010D02*
G01X21222738Y6971440D01*
G01X21234168Y6977028D01*
G01X21251440Y6977028D01*
G01X21262870Y6971440D01*
G01X21274300Y6960010D01*
G01X21279888Y6942738D01*
G01X21279888Y6931308D01*
G01X21274300Y6914290D01*
G01X21262870Y6902860D01*
G01X21251440Y6897018D01*
G01X21234168Y6897018D01*
G01X21222738Y6902860D01*
G01X21211308Y6914290D01*
G01X21455656Y7017160D02*
G01X21455656Y6897018D01*
G01X21455656Y6897018D02*
G01X21524236Y6897018D01*
G01X21640568Y6977028D02*
G01X21640568Y6897018D01*
G01X21640568Y6960010D02*
G01X21629138Y6971440D01*
G01X21617708Y6977028D01*
G01X21600690Y6977028D01*
G01X21589260Y6971440D01*
G01X21577830Y6960010D01*
G01X21571988Y6942738D01*
G01X21571988Y6931308D01*
G01X21577830Y6914290D01*
G01X21589260Y6902860D01*
G01X21600690Y6897018D01*
G01X21617708Y6897018D01*
G01X21629138Y6902860D01*
G01X21640568Y6914290D01*
G01X21694162Y6977028D02*
G01X21728452Y6897018D01*
G01X21762742Y6977028D02*
G01X21728452Y6897018D01*
G01X21717022Y6874158D01*
G01X21705592Y6862728D01*
G01X21694162Y6857140D01*
G01X21688320Y6857140D01*
G01X21810494Y6942738D02*
G01X21879074Y6942738D01*
G01X21879074Y6954168D01*
G01X21873486Y6965598D01*
G01X21867644Y6971440D01*
G01X21856214Y6977028D01*
G01X21839196Y6977028D01*
G01X21827766Y6971440D01*
G01X21816336Y6960010D01*
G01X21810494Y6942738D01*
G01X21810494Y6931308D01*
G01X21816336Y6914290D01*
G01X21827766Y6902860D01*
G01X21839196Y6897018D01*
G01X21856214Y6897018D01*
G01X21867644Y6902860D01*
G01X21879074Y6914290D01*
G01X21926826Y6977028D02*
G01X21926826Y6897018D01*
G01X21926826Y6942738D02*
G01X21932668Y6960010D01*
G01X21944098Y6971440D01*
G01X21955528Y6977028D01*
G01X21972546Y6977028D01*
G01X22020298Y6948580D02*
G01X22123168Y6948580D01*
G01X22170920Y7017160D02*
G01X22170920Y6897018D01*
G01X22170920Y7017160D02*
G01X22222482Y7017160D01*
G01X22239500Y7011318D01*
G01X22245342Y7005730D01*
G01X22250930Y6994300D01*
G01X22250930Y6982870D01*
G01X22245342Y6971440D01*
G01X22239500Y6965598D01*
G01X22222482Y6960010D01*
G01X22170920Y6960010D02*
G01X22222482Y6960010D01*
G01X22239500Y6954168D01*
G01X22245342Y6948580D01*
G01X22250930Y6937150D01*
G01X22250930Y6919878D01*
G01X22245342Y6908448D01*
G01X22239500Y6902860D01*
G01X22222482Y6897018D01*
G01X22170920Y6897018D01*
G01X22327384Y6977028D02*
G01X22315954Y6971440D01*
G01X22304524Y6960010D01*
G01X22298682Y6942738D01*
G01X22298682Y6931308D01*
G01X22304524Y6914290D01*
G01X22315954Y6902860D01*
G01X22327384Y6897018D01*
G01X22344402Y6897018D01*
G01X22355832Y6902860D01*
G01X22367262Y6914290D01*
G01X22373104Y6931308D01*
G01X22373104Y6942738D01*
G01X22367262Y6960010D01*
G01X22355832Y6971440D01*
G01X22344402Y6977028D01*
G01X22327384Y6977028D01*
G01X22438128Y7017160D02*
G01X22438128Y6919878D01*
G01X22443716Y6902860D01*
G01X22455146Y6897018D01*
G01X22466576Y6897018D01*
G01X22420856Y6977028D02*
G01X22460988Y6977028D01*
G01X22531600Y7017160D02*
G01X22531600Y6919878D01*
G01X22537188Y6902860D01*
G01X22548618Y6897018D01*
G01X22560048Y6897018D01*
G01X22514328Y6977028D02*
G01X22554460Y6977028D01*
G01X22636502Y6977028D02*
G01X22625072Y6971440D01*
G01X22613642Y6960010D01*
G01X22607800Y6942738D01*
G01X22607800Y6931308D01*
G01X22613642Y6914290D01*
G01X22625072Y6902860D01*
G01X22636502Y6897018D01*
G01X22653520Y6897018D01*
G01X22664950Y6902860D01*
G01X22676380Y6914290D01*
G01X22682222Y6931308D01*
G01X22682222Y6942738D01*
G01X22676380Y6960010D01*
G01X22664950Y6971440D01*
G01X22653520Y6977028D01*
G01X22636502Y6977028D01*
G01X22729974Y6977028D02*
G01X22729974Y6897018D01*
G01X22729974Y6954168D02*
G01X22747246Y6971440D01*
G01X22758676Y6977028D01*
G01X22775694Y6977028D01*
G01X22787124Y6971440D01*
G01X22792966Y6954168D01*
G01X22792966Y6897018D01*
G01X22792966Y6954168D02*
G01X22809984Y6971440D01*
G01X22821414Y6977028D01*
G01X22838686Y6977028D01*
G01X22850116Y6971440D01*
G01X22855704Y6954168D01*
G01X22855704Y6897018D01*
G01X23031472Y7017160D02*
G01X23031472Y6897018D01*
G01X23031472Y6897018D02*
G01X23100052Y6897018D01*
G01X23216384Y6977028D02*
G01X23216384Y6897018D01*
G01X23216384Y6960010D02*
G01X23204954Y6971440D01*
G01X23193524Y6977028D01*
G01X23176506Y6977028D01*
G01X23165076Y6971440D01*
G01X23153646Y6960010D01*
G01X23147804Y6942738D01*
G01X23147804Y6931308D01*
G01X23153646Y6914290D01*
G01X23165076Y6902860D01*
G01X23176506Y6897018D01*
G01X23193524Y6897018D01*
G01X23204954Y6902860D01*
G01X23216384Y6914290D01*
G01X23269978Y6977028D02*
G01X23304268Y6897018D01*
G01X23338558Y6977028D02*
G01X23304268Y6897018D01*
G01X23292838Y6874158D01*
G01X23281408Y6862728D01*
G01X23269978Y6857140D01*
G01X23264136Y6857140D01*
G01X23386310Y6942738D02*
G01X23454890Y6942738D01*
G01X23454890Y6954168D01*
G01X23449302Y6965598D01*
G01X23443460Y6971440D01*
G01X23432030Y6977028D01*
G01X23415012Y6977028D01*
G01X23403582Y6971440D01*
G01X23392152Y6960010D01*
G01X23386310Y6942738D01*
G01X23386310Y6931308D01*
G01X23392152Y6914290D01*
G01X23403582Y6902860D01*
G01X23415012Y6897018D01*
G01X23432030Y6897018D01*
G01X23443460Y6902860D01*
G01X23454890Y6914290D01*
G01X23502642Y6977028D02*
G01X23502642Y6897018D01*
G01X23502642Y6942738D02*
G01X23508484Y6960010D01*
G01X23519914Y6971440D01*
G01X23531344Y6977028D01*
G01X23548362Y6977028D01*
G01X9257705Y6407887D02*
G01X9257705Y6413729D01*
G01X9263293Y6425159D01*
G01X9269135Y6430747D01*
G01X9280565Y6436589D01*
G01X9303425Y6436589D01*
G01X9314855Y6430747D01*
G01X9320443Y6425159D01*
G01X9326285Y6413729D01*
G01X9326285Y6402299D01*
G01X9320443Y6390869D01*
G01X9309013Y6373597D01*
G01X9251863Y6316447D01*
G01X9331873Y6316447D01*
G01X10671868Y6407887D02*
G01X10671868Y6413729D01*
G01X10677456Y6425159D01*
G01X10683298Y6430747D01*
G01X10694728Y6436589D01*
G01X10717588Y6436589D01*
G01X10729018Y6430747D01*
G01X10734606Y6425159D01*
G01X10740448Y6413729D01*
G01X10740448Y6402299D01*
G01X10734606Y6390869D01*
G01X10723176Y6373597D01*
G01X10666026Y6316447D01*
G01X10746036Y6316447D01*
G01X10862368Y6436589D02*
G01X10805218Y6436589D01*
G01X10799630Y6385027D01*
G01X10805218Y6390869D01*
G01X10822490Y6396457D01*
G01X10839508Y6396457D01*
G01X10856780Y6390869D01*
G01X10868210Y6379439D01*
G01X10873798Y6362167D01*
G01X10873798Y6350737D01*
G01X10868210Y6333719D01*
G01X10856780Y6322289D01*
G01X10839508Y6316447D01*
G01X10822490Y6316447D01*
G01X10805218Y6322289D01*
G01X10799630Y6327877D01*
G01X10793788Y6339307D01*
G01X10927392Y6345149D02*
G01X10921550Y6339307D01*
G01X10927392Y6333719D01*
G01X10932980Y6339307D01*
G01X10927392Y6345149D01*
G01X11049312Y6419317D02*
G01X11043724Y6430747D01*
G01X11026452Y6436589D01*
G01X11015022Y6436589D01*
G01X10998004Y6430747D01*
G01X10986574Y6413729D01*
G01X10980732Y6385027D01*
G01X10980732Y6356579D01*
G01X10986574Y6333719D01*
G01X10998004Y6322289D01*
G01X11015022Y6316447D01*
G01X11020864Y6316447D01*
G01X11037882Y6322289D01*
G01X11049312Y6333719D01*
G01X11055154Y6350737D01*
G01X11055154Y6356579D01*
G01X11049312Y6373597D01*
G01X11037882Y6385027D01*
G01X11020864Y6390869D01*
G01X11015022Y6390869D01*
G01X10998004Y6385027D01*
G01X10986574Y6373597D01*
G01X10980732Y6356579D01*
G01X11102906Y6396457D02*
G01X11102906Y6316447D01*
G01X11102906Y6373597D02*
G01X11120178Y6390869D01*
G01X11131608Y6396457D01*
G01X11148626Y6396457D01*
G01X11160056Y6390869D01*
G01X11165898Y6373597D01*
G01X11165898Y6316447D01*
G01X11165898Y6373597D02*
G01X11182916Y6390869D01*
G01X11194346Y6396457D01*
G01X11211618Y6396457D01*
G01X11223048Y6390869D01*
G01X11228636Y6373597D01*
G01X11228636Y6316447D01*
G01X11276388Y6436589D02*
G01X11282230Y6430747D01*
G01X11287818Y6436589D01*
G01X11282230Y6442177D01*
G01X11276388Y6436589D01*
G01X11282230Y6396457D02*
G01X11282230Y6316447D01*
G01X11335570Y6436589D02*
G01X11335570Y6316447D01*
G01X11423454Y6459449D02*
G01X11412024Y6448019D01*
G01X11400594Y6430747D01*
G01X11389164Y6407887D01*
G01X11383322Y6379439D01*
G01X11383322Y6356579D01*
G01X11389164Y6327877D01*
G01X11400594Y6305017D01*
G01X11412024Y6287999D01*
G01X11423454Y6276569D01*
G01X11505496Y6436589D02*
G01X11488478Y6430747D01*
G01X11477048Y6413729D01*
G01X11471206Y6385027D01*
G01X11471206Y6368009D01*
G01X11477048Y6339307D01*
G01X11488478Y6322289D01*
G01X11505496Y6316447D01*
G01X11516926Y6316447D01*
G01X11534198Y6322289D01*
G01X11545628Y6339307D01*
G01X11551216Y6368009D01*
G01X11551216Y6385027D01*
G01X11545628Y6413729D01*
G01X11534198Y6430747D01*
G01X11516926Y6436589D01*
G01X11505496Y6436589D01*
G01X11604810Y6345149D02*
G01X11598968Y6339307D01*
G01X11604810Y6333719D01*
G01X11610398Y6339307D01*
G01X11604810Y6345149D01*
G01X11726730Y6419317D02*
G01X11721142Y6430747D01*
G01X11703870Y6436589D01*
G01X11692440Y6436589D01*
G01X11675422Y6430747D01*
G01X11663992Y6413729D01*
G01X11658150Y6385027D01*
G01X11658150Y6356579D01*
G01X11663992Y6333719D01*
G01X11675422Y6322289D01*
G01X11692440Y6316447D01*
G01X11698282Y6316447D01*
G01X11715300Y6322289D01*
G01X11726730Y6333719D01*
G01X11732572Y6350737D01*
G01X11732572Y6356579D01*
G01X11726730Y6373597D01*
G01X11715300Y6385027D01*
G01X11698282Y6390869D01*
G01X11692440Y6390869D01*
G01X11675422Y6385027D01*
G01X11663992Y6373597D01*
G01X11658150Y6356579D01*
G01X11848904Y6436589D02*
G01X11791754Y6436589D01*
G01X11786166Y6385027D01*
G01X11791754Y6390869D01*
G01X11809026Y6396457D01*
G01X11826044Y6396457D01*
G01X11843316Y6390869D01*
G01X11854746Y6379439D01*
G01X11860334Y6362167D01*
G01X11860334Y6350737D01*
G01X11854746Y6333719D01*
G01X11843316Y6322289D01*
G01X11826044Y6316447D01*
G01X11809026Y6316447D01*
G01X11791754Y6322289D01*
G01X11786166Y6327877D01*
G01X11780324Y6339307D01*
G01X11942376Y6436589D02*
G01X11925358Y6430747D01*
G01X11913928Y6413729D01*
G01X11908086Y6385027D01*
G01X11908086Y6368009D01*
G01X11913928Y6339307D01*
G01X11925358Y6322289D01*
G01X11942376Y6316447D01*
G01X11953806Y6316447D01*
G01X11971078Y6322289D01*
G01X11982508Y6339307D01*
G01X11988096Y6368009D01*
G01X11988096Y6385027D01*
G01X11982508Y6413729D01*
G01X11971078Y6430747D01*
G01X11953806Y6436589D01*
G01X11942376Y6436589D01*
G01X12035848Y6396457D02*
G01X12035848Y6316447D01*
G01X12035848Y6373597D02*
G01X12053120Y6390869D01*
G01X12064550Y6396457D01*
G01X12081568Y6396457D01*
G01X12092998Y6390869D01*
G01X12098840Y6373597D01*
G01X12098840Y6316447D01*
G01X12098840Y6373597D02*
G01X12115858Y6390869D01*
G01X12127288Y6396457D01*
G01X12144560Y6396457D01*
G01X12155990Y6390869D01*
G01X12161578Y6373597D01*
G01X12161578Y6316447D01*
G01X12209330Y6396457D02*
G01X12209330Y6316447D01*
G01X12209330Y6373597D02*
G01X12226602Y6390869D01*
G01X12238032Y6396457D01*
G01X12255050Y6396457D01*
G01X12266480Y6390869D01*
G01X12272322Y6373597D01*
G01X12272322Y6316447D01*
G01X12272322Y6373597D02*
G01X12289340Y6390869D01*
G01X12300770Y6396457D01*
G01X12318042Y6396457D01*
G01X12329472Y6390869D01*
G01X12335060Y6373597D01*
G01X12335060Y6316447D01*
G01X12382812Y6459449D02*
G01X12394242Y6448019D01*
G01X12405672Y6430747D01*
G01X12417102Y6407887D01*
G01X12422944Y6379439D01*
G01X12422944Y6356579D01*
G01X12417102Y6327877D01*
G01X12405672Y6305017D01*
G01X12394242Y6287999D01*
G01X12382812Y6276569D01*
G01X14480236Y6436589D02*
G01X14480236Y6316447D01*
G01X14480236Y6436589D02*
G01X14560246Y6316447D01*
G01X14560246Y6436589D02*
G01X14560246Y6316447D01*
G01X14607998Y6436589D02*
G01X14607998Y6316447D01*
G01X14607998Y6436589D02*
G01X14659560Y6436589D01*
G01X14676578Y6430747D01*
G01X14682420Y6425159D01*
G01X14688008Y6413729D01*
G01X14688008Y6396457D01*
G01X14682420Y6385027D01*
G01X14676578Y6379439D01*
G01X14659560Y6373597D01*
G01X14607998Y6373597D01*
G01X14775892Y6436589D02*
G01X14775892Y6316447D01*
G01X14735760Y6436589D02*
G01X14815770Y6436589D01*
G01X14863522Y6436589D02*
G01X14863522Y6316447D01*
G01X14943532Y6436589D02*
G01X14943532Y6316447D01*
G01X14863522Y6379439D02*
G01X14943532Y6379439D01*
G01X15941643Y6436589D02*
G01X15941643Y6316447D01*
G01X15941643Y6436589D02*
G01X15993205Y6436589D01*
G01X16010223Y6430747D01*
G01X16016065Y6425159D01*
G01X16021653Y6413729D01*
G01X16021653Y6402299D01*
G01X16016065Y6390869D01*
G01X16010223Y6385027D01*
G01X15993205Y6379439D01*
G01X15941643Y6379439D01*
G01X15981775Y6379439D02*
G01X16021653Y6316447D01*
G01X16098107Y6396457D02*
G01X16086677Y6390869D01*
G01X16075247Y6379439D01*
G01X16069405Y6362167D01*
G01X16069405Y6350737D01*
G01X16075247Y6333719D01*
G01X16086677Y6322289D01*
G01X16098107Y6316447D01*
G01X16115125Y6316447D01*
G01X16126555Y6322289D01*
G01X16137985Y6333719D01*
G01X16143827Y6350737D01*
G01X16143827Y6362167D01*
G01X16137985Y6379439D01*
G01X16126555Y6390869D01*
G01X16115125Y6396457D01*
G01X16098107Y6396457D01*
G01X16191579Y6396457D02*
G01X16191579Y6339307D01*
G01X16197421Y6322289D01*
G01X16208851Y6316447D01*
G01X16225869Y6316447D01*
G01X16237299Y6322289D01*
G01X16254571Y6339307D01*
G01X16254571Y6396457D02*
G01X16254571Y6316447D01*
G01X16302323Y6396457D02*
G01X16302323Y6316447D01*
G01X16302323Y6373597D02*
G01X16319595Y6390869D01*
G01X16331025Y6396457D01*
G01X16348043Y6396457D01*
G01X16359473Y6390869D01*
G01X16365315Y6373597D01*
G01X16365315Y6316447D01*
G01X16481647Y6436589D02*
G01X16481647Y6316447D01*
G01X16481647Y6379439D02*
G01X16470217Y6390869D01*
G01X16458787Y6396457D01*
G01X16441769Y6396457D01*
G01X16430339Y6390869D01*
G01X16418909Y6379439D01*
G01X16413067Y6362167D01*
G01X16413067Y6350737D01*
G01X16418909Y6333719D01*
G01X16430339Y6322289D01*
G01X16441769Y6316447D01*
G01X16458787Y6316447D01*
G01X16470217Y6322289D01*
G01X16481647Y6333719D01*
G01X17372824Y6436589D02*
G01X17418544Y6316447D01*
G01X17464264Y6436589D02*
G01X17418544Y6316447D01*
G01X17512016Y6436589D02*
G01X17517858Y6430747D01*
G01X17523446Y6436589D01*
G01X17517858Y6442177D01*
G01X17512016Y6436589D01*
G01X17517858Y6396457D02*
G01X17517858Y6316447D01*
G01X17639778Y6396457D02*
G01X17639778Y6316447D01*
G01X17639778Y6379439D02*
G01X17628348Y6390869D01*
G01X17616918Y6396457D01*
G01X17599900Y6396457D01*
G01X17588470Y6390869D01*
G01X17577040Y6379439D01*
G01X17571198Y6362167D01*
G01X17571198Y6350737D01*
G01X17577040Y6333719D01*
G01X17588470Y6322289D01*
G01X17599900Y6316447D01*
G01X17616918Y6316447D01*
G01X17628348Y6322289D01*
G01X17639778Y6333719D01*
G01X21001504Y6436589D02*
G01X21001504Y6316447D01*
G01X20961372Y6436589D02*
G01X21041382Y6436589D01*
G01X21117836Y6396457D02*
G01X21106406Y6390869D01*
G01X21094976Y6379439D01*
G01X21089134Y6362167D01*
G01X21089134Y6350737D01*
G01X21094976Y6333719D01*
G01X21106406Y6322289D01*
G01X21117836Y6316447D01*
G01X21134854Y6316447D01*
G01X21146284Y6322289D01*
G01X21157714Y6333719D01*
G01X21163556Y6350737D01*
G01X21163556Y6362167D01*
G01X21157714Y6379439D01*
G01X21146284Y6390869D01*
G01X21134854Y6396457D01*
G01X21117836Y6396457D01*
G01X21211308Y6396457D02*
G01X21211308Y6276569D01*
G01X21211308Y6379439D02*
G01X21222738Y6390869D01*
G01X21234168Y6396457D01*
G01X21251440Y6396457D01*
G01X21262870Y6390869D01*
G01X21274300Y6379439D01*
G01X21279888Y6362167D01*
G01X21279888Y6350737D01*
G01X21274300Y6333719D01*
G01X21262870Y6322289D01*
G01X21251440Y6316447D01*
G01X21234168Y6316447D01*
G01X21222738Y6322289D01*
G01X21211308Y6333719D01*
G01X21455656Y6436589D02*
G01X21455656Y6316447D01*
G01X21455656Y6316447D02*
G01X21524236Y6316447D01*
G01X21640568Y6396457D02*
G01X21640568Y6316447D01*
G01X21640568Y6379439D02*
G01X21629138Y6390869D01*
G01X21617708Y6396457D01*
G01X21600690Y6396457D01*
G01X21589260Y6390869D01*
G01X21577830Y6379439D01*
G01X21571988Y6362167D01*
G01X21571988Y6350737D01*
G01X21577830Y6333719D01*
G01X21589260Y6322289D01*
G01X21600690Y6316447D01*
G01X21617708Y6316447D01*
G01X21629138Y6322289D01*
G01X21640568Y6333719D01*
G01X21694162Y6396457D02*
G01X21728452Y6316447D01*
G01X21762742Y6396457D02*
G01X21728452Y6316447D01*
G01X21717022Y6293587D01*
G01X21705592Y6282157D01*
G01X21694162Y6276569D01*
G01X21688320Y6276569D01*
G01X21810494Y6362167D02*
G01X21879074Y6362167D01*
G01X21879074Y6373597D01*
G01X21873486Y6385027D01*
G01X21867644Y6390869D01*
G01X21856214Y6396457D01*
G01X21839196Y6396457D01*
G01X21827766Y6390869D01*
G01X21816336Y6379439D01*
G01X21810494Y6362167D01*
G01X21810494Y6350737D01*
G01X21816336Y6333719D01*
G01X21827766Y6322289D01*
G01X21839196Y6316447D01*
G01X21856214Y6316447D01*
G01X21867644Y6322289D01*
G01X21879074Y6333719D01*
G01X21926826Y6396457D02*
G01X21926826Y6316447D01*
G01X21926826Y6362167D02*
G01X21932668Y6379439D01*
G01X21944098Y6390869D01*
G01X21955528Y6396457D01*
G01X21972546Y6396457D01*
G01X22020298Y6368009D02*
G01X22123168Y6368009D01*
G01X22170920Y6436589D02*
G01X22170920Y6316447D01*
G01X22170920Y6436589D02*
G01X22222482Y6436589D01*
G01X22239500Y6430747D01*
G01X22245342Y6425159D01*
G01X22250930Y6413729D01*
G01X22250930Y6402299D01*
G01X22245342Y6390869D01*
G01X22239500Y6385027D01*
G01X22222482Y6379439D01*
G01X22170920Y6379439D02*
G01X22222482Y6379439D01*
G01X22239500Y6373597D01*
G01X22245342Y6368009D01*
G01X22250930Y6356579D01*
G01X22250930Y6339307D01*
G01X22245342Y6327877D01*
G01X22239500Y6322289D01*
G01X22222482Y6316447D01*
G01X22170920Y6316447D01*
G01X22327384Y6396457D02*
G01X22315954Y6390869D01*
G01X22304524Y6379439D01*
G01X22298682Y6362167D01*
G01X22298682Y6350737D01*
G01X22304524Y6333719D01*
G01X22315954Y6322289D01*
G01X22327384Y6316447D01*
G01X22344402Y6316447D01*
G01X22355832Y6322289D01*
G01X22367262Y6333719D01*
G01X22373104Y6350737D01*
G01X22373104Y6362167D01*
G01X22367262Y6379439D01*
G01X22355832Y6390869D01*
G01X22344402Y6396457D01*
G01X22327384Y6396457D01*
G01X22438128Y6436589D02*
G01X22438128Y6339307D01*
G01X22443716Y6322289D01*
G01X22455146Y6316447D01*
G01X22466576Y6316447D01*
G01X22420856Y6396457D02*
G01X22460988Y6396457D01*
G01X22531600Y6436589D02*
G01X22531600Y6339307D01*
G01X22537188Y6322289D01*
G01X22548618Y6316447D01*
G01X22560048Y6316447D01*
G01X22514328Y6396457D02*
G01X22554460Y6396457D01*
G01X22636502Y6396457D02*
G01X22625072Y6390869D01*
G01X22613642Y6379439D01*
G01X22607800Y6362167D01*
G01X22607800Y6350737D01*
G01X22613642Y6333719D01*
G01X22625072Y6322289D01*
G01X22636502Y6316447D01*
G01X22653520Y6316447D01*
G01X22664950Y6322289D01*
G01X22676380Y6333719D01*
G01X22682222Y6350737D01*
G01X22682222Y6362167D01*
G01X22676380Y6379439D01*
G01X22664950Y6390869D01*
G01X22653520Y6396457D01*
G01X22636502Y6396457D01*
G01X22729974Y6396457D02*
G01X22729974Y6316447D01*
G01X22729974Y6373597D02*
G01X22747246Y6390869D01*
G01X22758676Y6396457D01*
G01X22775694Y6396457D01*
G01X22787124Y6390869D01*
G01X22792966Y6373597D01*
G01X22792966Y6316447D01*
G01X22792966Y6373597D02*
G01X22809984Y6390869D01*
G01X22821414Y6396457D01*
G01X22838686Y6396457D01*
G01X22850116Y6390869D01*
G01X22855704Y6373597D01*
G01X22855704Y6316447D01*
G01X23031472Y6436589D02*
G01X23031472Y6316447D01*
G01X23031472Y6316447D02*
G01X23100052Y6316447D01*
G01X23216384Y6396457D02*
G01X23216384Y6316447D01*
G01X23216384Y6379439D02*
G01X23204954Y6390869D01*
G01X23193524Y6396457D01*
G01X23176506Y6396457D01*
G01X23165076Y6390869D01*
G01X23153646Y6379439D01*
G01X23147804Y6362167D01*
G01X23147804Y6350737D01*
G01X23153646Y6333719D01*
G01X23165076Y6322289D01*
G01X23176506Y6316447D01*
G01X23193524Y6316447D01*
G01X23204954Y6322289D01*
G01X23216384Y6333719D01*
G01X23269978Y6396457D02*
G01X23304268Y6316447D01*
G01X23338558Y6396457D02*
G01X23304268Y6316447D01*
G01X23292838Y6293587D01*
G01X23281408Y6282157D01*
G01X23269978Y6276569D01*
G01X23264136Y6276569D01*
G01X23386310Y6362167D02*
G01X23454890Y6362167D01*
G01X23454890Y6373597D01*
G01X23449302Y6385027D01*
G01X23443460Y6390869D01*
G01X23432030Y6396457D01*
G01X23415012Y6396457D01*
G01X23403582Y6390869D01*
G01X23392152Y6379439D01*
G01X23386310Y6362167D01*
G01X23386310Y6350737D01*
G01X23392152Y6333719D01*
G01X23403582Y6322289D01*
G01X23415012Y6316447D01*
G01X23432030Y6316447D01*
G01X23443460Y6322289D01*
G01X23454890Y6333719D01*
G01X23502642Y6396457D02*
G01X23502642Y6316447D01*
G01X23502642Y6362167D02*
G01X23508484Y6379439D01*
G01X23519914Y6390869D01*
G01X23531344Y6396457D01*
G01X23548362Y6396457D01*
G01X9257705Y5827315D02*
G01X9257705Y5833157D01*
G01X9263293Y5844587D01*
G01X9269135Y5850175D01*
G01X9280565Y5856017D01*
G01X9303425Y5856017D01*
G01X9314855Y5850175D01*
G01X9320443Y5844587D01*
G01X9326285Y5833157D01*
G01X9326285Y5821727D01*
G01X9320443Y5810297D01*
G01X9309013Y5793025D01*
G01X9251863Y5735875D01*
G01X9331873Y5735875D01*
G01X9379625Y5833157D02*
G01X9391055Y5838745D01*
G01X9408327Y5856017D01*
G01X9408327Y5735875D01*
G01X9524659Y5838745D02*
G01X9519071Y5850175D01*
G01X9501799Y5856017D01*
G01X9490369Y5856017D01*
G01X9473351Y5850175D01*
G01X9461921Y5833157D01*
G01X9456079Y5804455D01*
G01X9456079Y5776007D01*
G01X9461921Y5753147D01*
G01X9473351Y5741717D01*
G01X9490369Y5735875D01*
G01X9496211Y5735875D01*
G01X9513229Y5741717D01*
G01X9524659Y5753147D01*
G01X9530501Y5770165D01*
G01X9530501Y5776007D01*
G01X9524659Y5793025D01*
G01X9513229Y5804455D01*
G01X9496211Y5810297D01*
G01X9490369Y5810297D01*
G01X9473351Y5804455D01*
G01X9461921Y5793025D01*
G01X9456079Y5776007D01*
G01X10666026Y5833157D02*
G01X10677456Y5838745D01*
G01X10694728Y5856017D01*
G01X10694728Y5735875D01*
G01X10748322Y5827315D02*
G01X10748322Y5833157D01*
G01X10753910Y5844587D01*
G01X10759752Y5850175D01*
G01X10771182Y5856017D01*
G01X10794042Y5856017D01*
G01X10805472Y5850175D01*
G01X10811060Y5844587D01*
G01X10816902Y5833157D01*
G01X10816902Y5821727D01*
G01X10811060Y5810297D01*
G01X10799630Y5793025D01*
G01X10742480Y5735875D01*
G01X10822490Y5735875D01*
G01X10876084Y5764577D02*
G01X10870242Y5758735D01*
G01X10876084Y5753147D01*
G01X10881672Y5758735D01*
G01X10876084Y5764577D01*
G01X10963714Y5856017D02*
G01X10946696Y5850175D01*
G01X10935266Y5833157D01*
G01X10929424Y5804455D01*
G01X10929424Y5787437D01*
G01X10935266Y5758735D01*
G01X10946696Y5741717D01*
G01X10963714Y5735875D01*
G01X10975144Y5735875D01*
G01X10992416Y5741717D01*
G01X11003846Y5758735D01*
G01X11009434Y5787437D01*
G01X11009434Y5804455D01*
G01X11003846Y5833157D01*
G01X10992416Y5850175D01*
G01X10975144Y5856017D01*
G01X10963714Y5856017D01*
G01X11057186Y5815885D02*
G01X11057186Y5735875D01*
G01X11057186Y5793025D02*
G01X11074458Y5810297D01*
G01X11085888Y5815885D01*
G01X11102906Y5815885D01*
G01X11114336Y5810297D01*
G01X11120178Y5793025D01*
G01X11120178Y5735875D01*
G01X11120178Y5793025D02*
G01X11137196Y5810297D01*
G01X11148626Y5815885D01*
G01X11165898Y5815885D01*
G01X11177328Y5810297D01*
G01X11182916Y5793025D01*
G01X11182916Y5735875D01*
G01X11230668Y5856017D02*
G01X11236510Y5850175D01*
G01X11242098Y5856017D01*
G01X11236510Y5861605D01*
G01X11230668Y5856017D01*
G01X11236510Y5815885D02*
G01X11236510Y5735875D01*
G01X11289850Y5856017D02*
G01X11289850Y5735875D01*
G01X11377734Y5878877D02*
G01X11366304Y5867447D01*
G01X11354874Y5850175D01*
G01X11343444Y5827315D01*
G01X11337602Y5798867D01*
G01X11337602Y5776007D01*
G01X11343444Y5747305D01*
G01X11354874Y5724445D01*
G01X11366304Y5707427D01*
G01X11377734Y5695997D01*
G01X11459776Y5856017D02*
G01X11442758Y5850175D01*
G01X11431328Y5833157D01*
G01X11425486Y5804455D01*
G01X11425486Y5787437D01*
G01X11431328Y5758735D01*
G01X11442758Y5741717D01*
G01X11459776Y5735875D01*
G01X11471206Y5735875D01*
G01X11488478Y5741717D01*
G01X11499908Y5758735D01*
G01X11505496Y5787437D01*
G01X11505496Y5804455D01*
G01X11499908Y5833157D01*
G01X11488478Y5850175D01*
G01X11471206Y5856017D01*
G01X11459776Y5856017D01*
G01X11559090Y5764577D02*
G01X11553248Y5758735D01*
G01X11559090Y5753147D01*
G01X11564678Y5758735D01*
G01X11559090Y5764577D01*
G01X11623860Y5856017D02*
G01X11686852Y5856017D01*
G01X11652562Y5810297D01*
G01X11669580Y5810297D01*
G01X11681010Y5804455D01*
G01X11686852Y5798867D01*
G01X11692440Y5781595D01*
G01X11692440Y5770165D01*
G01X11686852Y5753147D01*
G01X11675422Y5741717D01*
G01X11658150Y5735875D01*
G01X11641132Y5735875D01*
G01X11623860Y5741717D01*
G01X11618272Y5747305D01*
G01X11612430Y5758735D01*
G01X11774482Y5856017D02*
G01X11757464Y5850175D01*
G01X11746034Y5833157D01*
G01X11740192Y5804455D01*
G01X11740192Y5787437D01*
G01X11746034Y5758735D01*
G01X11757464Y5741717D01*
G01X11774482Y5735875D01*
G01X11785912Y5735875D01*
G01X11803184Y5741717D01*
G01X11814614Y5758735D01*
G01X11820202Y5787437D01*
G01X11820202Y5804455D01*
G01X11814614Y5833157D01*
G01X11803184Y5850175D01*
G01X11785912Y5856017D01*
G01X11774482Y5856017D01*
G01X11936534Y5856017D02*
G01X11879384Y5856017D01*
G01X11873796Y5804455D01*
G01X11879384Y5810297D01*
G01X11896656Y5815885D01*
G01X11913674Y5815885D01*
G01X11930946Y5810297D01*
G01X11942376Y5798867D01*
G01X11947964Y5781595D01*
G01X11947964Y5770165D01*
G01X11942376Y5753147D01*
G01X11930946Y5741717D01*
G01X11913674Y5735875D01*
G01X11896656Y5735875D01*
G01X11879384Y5741717D01*
G01X11873796Y5747305D01*
G01X11867954Y5758735D01*
G01X11995716Y5815885D02*
G01X11995716Y5735875D01*
G01X11995716Y5793025D02*
G01X12012988Y5810297D01*
G01X12024418Y5815885D01*
G01X12041436Y5815885D01*
G01X12052866Y5810297D01*
G01X12058708Y5793025D01*
G01X12058708Y5735875D01*
G01X12058708Y5793025D02*
G01X12075726Y5810297D01*
G01X12087156Y5815885D01*
G01X12104428Y5815885D01*
G01X12115858Y5810297D01*
G01X12121446Y5793025D01*
G01X12121446Y5735875D01*
G01X12169198Y5815885D02*
G01X12169198Y5735875D01*
G01X12169198Y5793025D02*
G01X12186470Y5810297D01*
G01X12197900Y5815885D01*
G01X12214918Y5815885D01*
G01X12226348Y5810297D01*
G01X12232190Y5793025D01*
G01X12232190Y5735875D01*
G01X12232190Y5793025D02*
G01X12249208Y5810297D01*
G01X12260638Y5815885D01*
G01X12277910Y5815885D01*
G01X12289340Y5810297D01*
G01X12294928Y5793025D01*
G01X12294928Y5735875D01*
G01X12342680Y5878877D02*
G01X12354110Y5867447D01*
G01X12365540Y5850175D01*
G01X12376970Y5827315D01*
G01X12382812Y5798867D01*
G01X12382812Y5776007D01*
G01X12376970Y5747305D01*
G01X12365540Y5724445D01*
G01X12354110Y5707427D01*
G01X12342680Y5695997D01*
G01X14480236Y5856017D02*
G01X14480236Y5735875D01*
G01X14480236Y5856017D02*
G01X14531798Y5856017D01*
G01X14548816Y5850175D01*
G01X14554658Y5844587D01*
G01X14560246Y5833157D01*
G01X14560246Y5815885D01*
G01X14554658Y5804455D01*
G01X14548816Y5798867D01*
G01X14531798Y5793025D01*
G01X14480236Y5793025D01*
G01X14648130Y5856017D02*
G01X14648130Y5735875D01*
G01X14607998Y5856017D02*
G01X14688008Y5856017D01*
G01X14735760Y5856017D02*
G01X14735760Y5735875D01*
G01X14815770Y5856017D02*
G01X14815770Y5735875D01*
G01X14735760Y5798867D02*
G01X14815770Y5798867D01*
G01X15941643Y5856017D02*
G01X15941643Y5735875D01*
G01X15941643Y5856017D02*
G01X15993205Y5856017D01*
G01X16010223Y5850175D01*
G01X16016065Y5844587D01*
G01X16021653Y5833157D01*
G01X16021653Y5821727D01*
G01X16016065Y5810297D01*
G01X16010223Y5804455D01*
G01X15993205Y5798867D01*
G01X15941643Y5798867D01*
G01X15981775Y5798867D02*
G01X16021653Y5735875D01*
G01X16098107Y5815885D02*
G01X16086677Y5810297D01*
G01X16075247Y5798867D01*
G01X16069405Y5781595D01*
G01X16069405Y5770165D01*
G01X16075247Y5753147D01*
G01X16086677Y5741717D01*
G01X16098107Y5735875D01*
G01X16115125Y5735875D01*
G01X16126555Y5741717D01*
G01X16137985Y5753147D01*
G01X16143827Y5770165D01*
G01X16143827Y5781595D01*
G01X16137985Y5798867D01*
G01X16126555Y5810297D01*
G01X16115125Y5815885D01*
G01X16098107Y5815885D01*
G01X16191579Y5815885D02*
G01X16191579Y5758735D01*
G01X16197421Y5741717D01*
G01X16208851Y5735875D01*
G01X16225869Y5735875D01*
G01X16237299Y5741717D01*
G01X16254571Y5758735D01*
G01X16254571Y5815885D02*
G01X16254571Y5735875D01*
G01X16302323Y5815885D02*
G01X16302323Y5735875D01*
G01X16302323Y5793025D02*
G01X16319595Y5810297D01*
G01X16331025Y5815885D01*
G01X16348043Y5815885D01*
G01X16359473Y5810297D01*
G01X16365315Y5793025D01*
G01X16365315Y5735875D01*
G01X16481647Y5856017D02*
G01X16481647Y5735875D01*
G01X16481647Y5798867D02*
G01X16470217Y5810297D01*
G01X16458787Y5815885D01*
G01X16441769Y5815885D01*
G01X16430339Y5810297D01*
G01X16418909Y5798867D01*
G01X16413067Y5781595D01*
G01X16413067Y5770165D01*
G01X16418909Y5753147D01*
G01X16430339Y5741717D01*
G01X16441769Y5735875D01*
G01X16458787Y5735875D01*
G01X16470217Y5741717D01*
G01X16481647Y5753147D01*
G01X17372824Y5856017D02*
G01X17418544Y5735875D01*
G01X17464264Y5856017D02*
G01X17418544Y5735875D01*
G01X17512016Y5856017D02*
G01X17517858Y5850175D01*
G01X17523446Y5856017D01*
G01X17517858Y5861605D01*
G01X17512016Y5856017D01*
G01X17517858Y5815885D02*
G01X17517858Y5735875D01*
G01X17639778Y5815885D02*
G01X17639778Y5735875D01*
G01X17639778Y5798867D02*
G01X17628348Y5810297D01*
G01X17616918Y5815885D01*
G01X17599900Y5815885D01*
G01X17588470Y5810297D01*
G01X17577040Y5798867D01*
G01X17571198Y5781595D01*
G01X17571198Y5770165D01*
G01X17577040Y5753147D01*
G01X17588470Y5741717D01*
G01X17599900Y5735875D01*
G01X17616918Y5735875D01*
G01X17628348Y5741717D01*
G01X17639778Y5753147D01*
G01X21001504Y5856017D02*
G01X21001504Y5735875D01*
G01X20961372Y5856017D02*
G01X21041382Y5856017D01*
G01X21117836Y5815885D02*
G01X21106406Y5810297D01*
G01X21094976Y5798867D01*
G01X21089134Y5781595D01*
G01X21089134Y5770165D01*
G01X21094976Y5753147D01*
G01X21106406Y5741717D01*
G01X21117836Y5735875D01*
G01X21134854Y5735875D01*
G01X21146284Y5741717D01*
G01X21157714Y5753147D01*
G01X21163556Y5770165D01*
G01X21163556Y5781595D01*
G01X21157714Y5798867D01*
G01X21146284Y5810297D01*
G01X21134854Y5815885D01*
G01X21117836Y5815885D01*
G01X21211308Y5815885D02*
G01X21211308Y5695997D01*
G01X21211308Y5798867D02*
G01X21222738Y5810297D01*
G01X21234168Y5815885D01*
G01X21251440Y5815885D01*
G01X21262870Y5810297D01*
G01X21274300Y5798867D01*
G01X21279888Y5781595D01*
G01X21279888Y5770165D01*
G01X21274300Y5753147D01*
G01X21262870Y5741717D01*
G01X21251440Y5735875D01*
G01X21234168Y5735875D01*
G01X21222738Y5741717D01*
G01X21211308Y5753147D01*
G01X21455656Y5856017D02*
G01X21455656Y5735875D01*
G01X21455656Y5735875D02*
G01X21524236Y5735875D01*
G01X21640568Y5815885D02*
G01X21640568Y5735875D01*
G01X21640568Y5798867D02*
G01X21629138Y5810297D01*
G01X21617708Y5815885D01*
G01X21600690Y5815885D01*
G01X21589260Y5810297D01*
G01X21577830Y5798867D01*
G01X21571988Y5781595D01*
G01X21571988Y5770165D01*
G01X21577830Y5753147D01*
G01X21589260Y5741717D01*
G01X21600690Y5735875D01*
G01X21617708Y5735875D01*
G01X21629138Y5741717D01*
G01X21640568Y5753147D01*
G01X21694162Y5815885D02*
G01X21728452Y5735875D01*
G01X21762742Y5815885D02*
G01X21728452Y5735875D01*
G01X21717022Y5713015D01*
G01X21705592Y5701585D01*
G01X21694162Y5695997D01*
G01X21688320Y5695997D01*
G01X21810494Y5781595D02*
G01X21879074Y5781595D01*
G01X21879074Y5793025D01*
G01X21873486Y5804455D01*
G01X21867644Y5810297D01*
G01X21856214Y5815885D01*
G01X21839196Y5815885D01*
G01X21827766Y5810297D01*
G01X21816336Y5798867D01*
G01X21810494Y5781595D01*
G01X21810494Y5770165D01*
G01X21816336Y5753147D01*
G01X21827766Y5741717D01*
G01X21839196Y5735875D01*
G01X21856214Y5735875D01*
G01X21867644Y5741717D01*
G01X21879074Y5753147D01*
G01X21926826Y5815885D02*
G01X21926826Y5735875D01*
G01X21926826Y5781595D02*
G01X21932668Y5798867D01*
G01X21944098Y5810297D01*
G01X21955528Y5815885D01*
G01X21972546Y5815885D01*
G01X22020298Y5787437D02*
G01X22123168Y5787437D01*
G01X22170920Y5856017D02*
G01X22170920Y5735875D01*
G01X22170920Y5856017D02*
G01X22222482Y5856017D01*
G01X22239500Y5850175D01*
G01X22245342Y5844587D01*
G01X22250930Y5833157D01*
G01X22250930Y5821727D01*
G01X22245342Y5810297D01*
G01X22239500Y5804455D01*
G01X22222482Y5798867D01*
G01X22170920Y5798867D02*
G01X22222482Y5798867D01*
G01X22239500Y5793025D01*
G01X22245342Y5787437D01*
G01X22250930Y5776007D01*
G01X22250930Y5758735D01*
G01X22245342Y5747305D01*
G01X22239500Y5741717D01*
G01X22222482Y5735875D01*
G01X22170920Y5735875D01*
G01X22327384Y5815885D02*
G01X22315954Y5810297D01*
G01X22304524Y5798867D01*
G01X22298682Y5781595D01*
G01X22298682Y5770165D01*
G01X22304524Y5753147D01*
G01X22315954Y5741717D01*
G01X22327384Y5735875D01*
G01X22344402Y5735875D01*
G01X22355832Y5741717D01*
G01X22367262Y5753147D01*
G01X22373104Y5770165D01*
G01X22373104Y5781595D01*
G01X22367262Y5798867D01*
G01X22355832Y5810297D01*
G01X22344402Y5815885D01*
G01X22327384Y5815885D01*
G01X22438128Y5856017D02*
G01X22438128Y5758735D01*
G01X22443716Y5741717D01*
G01X22455146Y5735875D01*
G01X22466576Y5735875D01*
G01X22420856Y5815885D02*
G01X22460988Y5815885D01*
G01X22531600Y5856017D02*
G01X22531600Y5758735D01*
G01X22537188Y5741717D01*
G01X22548618Y5735875D01*
G01X22560048Y5735875D01*
G01X22514328Y5815885D02*
G01X22554460Y5815885D01*
G01X22636502Y5815885D02*
G01X22625072Y5810297D01*
G01X22613642Y5798867D01*
G01X22607800Y5781595D01*
G01X22607800Y5770165D01*
G01X22613642Y5753147D01*
G01X22625072Y5741717D01*
G01X22636502Y5735875D01*
G01X22653520Y5735875D01*
G01X22664950Y5741717D01*
G01X22676380Y5753147D01*
G01X22682222Y5770165D01*
G01X22682222Y5781595D01*
G01X22676380Y5798867D01*
G01X22664950Y5810297D01*
G01X22653520Y5815885D01*
G01X22636502Y5815885D01*
G01X22729974Y5815885D02*
G01X22729974Y5735875D01*
G01X22729974Y5793025D02*
G01X22747246Y5810297D01*
G01X22758676Y5815885D01*
G01X22775694Y5815885D01*
G01X22787124Y5810297D01*
G01X22792966Y5793025D01*
G01X22792966Y5735875D01*
G01X22792966Y5793025D02*
G01X22809984Y5810297D01*
G01X22821414Y5815885D01*
G01X22838686Y5815885D01*
G01X22850116Y5810297D01*
G01X22855704Y5793025D01*
G01X22855704Y5735875D01*
G01X23031472Y5856017D02*
G01X23031472Y5735875D01*
G01X23031472Y5735875D02*
G01X23100052Y5735875D01*
G01X23216384Y5815885D02*
G01X23216384Y5735875D01*
G01X23216384Y5798867D02*
G01X23204954Y5810297D01*
G01X23193524Y5815885D01*
G01X23176506Y5815885D01*
G01X23165076Y5810297D01*
G01X23153646Y5798867D01*
G01X23147804Y5781595D01*
G01X23147804Y5770165D01*
G01X23153646Y5753147D01*
G01X23165076Y5741717D01*
G01X23176506Y5735875D01*
G01X23193524Y5735875D01*
G01X23204954Y5741717D01*
G01X23216384Y5753147D01*
G01X23269978Y5815885D02*
G01X23304268Y5735875D01*
G01X23338558Y5815885D02*
G01X23304268Y5735875D01*
G01X23292838Y5713015D01*
G01X23281408Y5701585D01*
G01X23269978Y5695997D01*
G01X23264136Y5695997D01*
G01X23386310Y5781595D02*
G01X23454890Y5781595D01*
G01X23454890Y5793025D01*
G01X23449302Y5804455D01*
G01X23443460Y5810297D01*
G01X23432030Y5815885D01*
G01X23415012Y5815885D01*
G01X23403582Y5810297D01*
G01X23392152Y5798867D01*
G01X23386310Y5781595D01*
G01X23386310Y5770165D01*
G01X23392152Y5753147D01*
G01X23403582Y5741717D01*
G01X23415012Y5735875D01*
G01X23432030Y5735875D01*
G01X23443460Y5741717D01*
G01X23454890Y5753147D01*
G01X23502642Y5815885D02*
G01X23502642Y5735875D01*
G01X23502642Y5781595D02*
G01X23508484Y5798867D01*
G01X23519914Y5810297D01*
G01X23531344Y5815885D01*
G01X23548362Y5815885D01*

G04 Image Start*
G36*
G01X8087252Y5675405D02*
G01X7981638Y5686886D01*
G01X7938763Y5589680D01*
G01X7895888Y5686886D01*
G01X7790275Y5675405D01*
G01X7853038Y5761130D01*
G01X7813316Y5815384D01*
G01X7844809Y5815384D01*
G01X7884509Y5761130D01*
G01X7844809Y5706876D01*
G01X7911636Y5714140D01*
G01X7911636Y5714140D01*
G01X7938763Y5652647D01*
G01X7965890Y5714140D01*
G01X8032718Y5706876D01*
G01X7993018Y5761130D01*
G01X8032692Y5815359D01*
G01X7965865Y5808095D01*
G01X7938763Y5869613D01*
G01X7911636Y5808120D01*
G01X7844809Y5815384D01*
G01X7813316Y5815384D01*
G01X7790275Y5846855D01*
G01X7895913Y5835374D01*
G01X7938763Y5932580D01*
G01X7981638Y5835374D01*
G01X8087252Y5846855D01*
G01X8024488Y5761130D01*
G01X8087252Y5675405D01*
G37*
G36*
G01X7958258Y6789710D02*
G01X7950518Y6789121D01*
G01X7942675Y6788923D01*
G01X7934832Y6789121D01*
G01X7927091Y6789710D01*
G01X7919464Y6790679D01*
G01X7911959Y6792019D01*
G01X7897353Y6795774D01*
G01X7883351Y6800898D01*
G01X7870029Y6807315D01*
G01X7857463Y6814948D01*
G01X7845731Y6823721D01*
G01X7834909Y6833557D01*
G01X7825073Y6844379D01*
G01X7816300Y6856111D01*
G01X7808667Y6868677D01*
G01X7802250Y6881999D01*
G01X7797126Y6896001D01*
G01X7793371Y6910607D01*
G01X7792031Y6918112D01*
G01X7791061Y6925740D01*
G01X7790473Y6933480D01*
G01X7790275Y6941323D01*
G01X7815675Y6941323D01*
G01X7816332Y6928356D01*
G01X7818259Y6915760D01*
G01X7821394Y6903599D01*
G01X7825671Y6891936D01*
G01X7831026Y6880837D01*
G01X7837394Y6870365D01*
G01X7844712Y6860586D01*
G01X7852914Y6851562D01*
G01X7861938Y6843360D01*
G01X7871717Y6836042D01*
G01X7882189Y6829674D01*
G01X7893288Y6824319D01*
G01X7904951Y6820042D01*
G01X7917112Y6816908D01*
G01X7917112Y6816908D01*
G01X7929708Y6814980D01*
G01X7942675Y6814323D01*
G01X7955641Y6814980D01*
G01X7968237Y6816908D01*
G01X7980399Y6820042D01*
G01X7992061Y6824319D01*
G01X8003161Y6829674D01*
G01X8013632Y6836042D01*
G01X8023412Y6843360D01*
G01X8032435Y6851562D01*
G01X8040638Y6860586D01*
G01X8047955Y6870365D01*
G01X8054324Y6880837D01*
G01X8059679Y6891936D01*
G01X8063955Y6903599D01*
G01X8067090Y6915760D01*
G01X8069018Y6928356D01*
G01X8069675Y6941323D01*
G01X8069018Y6954289D01*
G01X8067090Y6966886D01*
G01X8063955Y6979047D01*
G01X8059679Y6990710D01*
G01X8054324Y7001809D01*
G01X8047955Y7012280D01*
G01X8040638Y7022060D01*
G01X8032435Y7031083D01*
G01X8023412Y7039286D01*
G01X8013632Y7046604D01*
G01X8003161Y7052972D01*
G01X7992061Y7058327D01*
G01X7980399Y7062604D01*
G01X7968237Y7065738D01*
G01X7955641Y7067666D01*
G01X7942675Y7068323D01*
G01X7929708Y7067666D01*
G01X7917112Y7065738D01*
G01X7904951Y7062604D01*
G01X7893288Y7058327D01*
G01X7882189Y7052972D01*
G01X7871717Y7046604D01*
G01X7861938Y7039286D01*
G01X7852914Y7031083D01*
G01X7844712Y7022060D01*
G01X7837394Y7012280D01*
G01X7831026Y7001809D01*
G01X7825671Y6990710D01*
G01X7821394Y6979047D01*
G01X7818259Y6966886D01*
G01X7816332Y6954289D01*
G01X7815675Y6941323D01*
G01X7790275Y6941323D01*
G01X7790473Y6949166D01*
G01X7791061Y6956906D01*
G01X7792031Y6964534D01*
G01X7793371Y6972039D01*
G01X7797126Y6986645D01*
G01X7802250Y7000647D01*
G01X7808667Y7013969D01*
G01X7816300Y7026534D01*
G01X7825073Y7038267D01*
G01X7834909Y7049089D01*
G01X7845731Y7058925D01*
G01X7857463Y7067697D01*
G01X7870029Y7075331D01*
G01X7883351Y7081748D01*
G01X7897353Y7086872D01*
G01X7911959Y7090627D01*
G01X7919464Y7091967D01*
G01X7927091Y7092936D01*
G01X7934832Y7093525D01*
G01X7942675Y7093723D01*
G01X7950518Y7093525D01*
G01X7958258Y7092936D01*
G01X7965885Y7091967D01*
G01X7973391Y7090627D01*
G01X7987997Y7086872D01*
G01X8001999Y7081748D01*
G01X8015321Y7075331D01*
G01X8027886Y7067697D01*
G01X8039618Y7058925D01*
G01X8050441Y7049089D01*
G01X8060276Y7038267D01*
G01X8069049Y7026534D01*
G01X8076682Y7013969D01*
G01X8083099Y7000647D01*
G01X8088224Y6986645D01*
G01X8091979Y6972039D01*
G01X8093319Y6964534D01*
G01X8094288Y6956906D01*
G01X8094876Y6949166D01*
G01X8095075Y6941323D01*
G01X8094876Y6933480D01*
G01X8094288Y6925740D01*
G01X8093319Y6918112D01*
G01X8091979Y6910607D01*
G01X8088224Y6896001D01*
G01X8083099Y6881999D01*
G01X8076682Y6868677D01*
G01X8069049Y6856111D01*
G01X8060276Y6844379D01*
G01X8050441Y6833557D01*
G01X8039618Y6823721D01*
G01X8027886Y6814948D01*
G01X8015321Y6807315D01*
G01X8001999Y6800898D01*
G01X7987997Y6795774D01*
G01X7973391Y6792019D01*
G01X7965885Y6790679D01*
G01X7958258Y6789710D01*
G37*
G36*
G01X7790275Y6513151D02*
G01X8095075Y6513151D01*
G01X7942675Y6249195D01*
G01X7804940Y6487751D01*
G01X7834268Y6487751D01*
G01X7942675Y6299995D01*
G01X8051082Y6487751D01*
G01X8051082Y6487751D01*
G01X7834268Y6487751D01*
G01X7804940Y6487751D01*
G01X7790275Y6513151D01*
G37*
G36*
G01X7790275Y7674294D02*
G01X8069675Y7674294D01*
G01X8069675Y7394894D01*
G01X7790275Y7394894D01*
G01X7790275Y7648894D01*
G01X7815675Y7648894D01*
G01X7815675Y7420294D01*
G01X8044275Y7420294D01*
G01X8044275Y7648894D01*
G01X8044275Y7648894D01*
G01X7815675Y7648894D01*
G01X7790275Y7648894D01*
G01X7790275Y7674294D01*
G37*

G04 PolygonModel Start*
G54D15*
G01X7499989Y5497151D02*
G01X24139094Y5497151D01*
G01X7499989Y6077723D02*
G01X24139094Y6077723D01*
G01X7499989Y6658294D02*
G01X24139094Y6658294D01*
G01X7499989Y7238866D02*
G01X24139094Y7238866D01*
G01X7499989Y7819437D02*
G01X24139094Y7819437D01*
G01X7499989Y8400009D02*
G01X24139094Y8400009D01*
G01X7499989Y8400009D02*
G01X7499989Y5497151D01*
G01X8951418Y8400009D02*
G01X8951418Y5497151D01*
G01X10365581Y8400009D02*
G01X10365581Y5497151D01*
G01X14179790Y8400009D02*
G01X14179790Y5497151D01*
G01X15641197Y8400009D02*
G01X15641197Y5497151D01*
G01X17072378Y8400009D02*
G01X17072378Y5497151D01*
G01X18741557Y8400009D02*
G01X18741557Y5497151D01*
G01X20660926Y8400009D02*
G01X20660926Y5497151D01*
G01X24139094Y8400009D02*
G01X24139094Y5497151D01*

M02*

