G04 Layer: BoardOutlineLayer*
G04 EasyEDA Pro v4.1.60, 2026-09-21 23:08:41*
G04 Gerber Generator version 0.3*
G04 Scale: 100 percent, Rotated: No, Reflected: No*
G04 Dimensions in millimeters*
G04 Leading zeros omitted, absolute positions, 4 integers and 5 decimals*
G04 Generated by one-click*
G04 Object Configs: Pad,Via,Track,Text,Image,Dimension,BoardOutline,BoardCutout,CopperFilled,SolidRegion,FPCStiffener,Line,PlaneZone,ComponentProperty,ComponentSilkscreen,TearDrop*
G04 Layer Configs: 1,15,16,2,3,4,5,6,7,8,9,10,11,13,14,56*
G04 Copper Areas: 0*
%FSLAX45Y45*%
%MOMM*%
%ADD10C,0.254*%
%ADD11C,0.0254*%
%ADD12C,0.2705*%
G75*


G04 PolygonModel Start*
G54D10*
G01X200000Y0D02*
G02X0Y200000I0J200000D01*
G01X0Y8200009D01*
G02X200000Y8400009I200000J0D01*
G01X5299989Y8400009D01*
G02X5499989Y8200009I0J-200000D01*
G01X5499989Y200000D01*
G02X5299989Y0I-200000J0D01*
G01X200000Y0D01*
G54D11*
G01X410007Y8100009D02*
G01X401625Y8057921D01*
G01X377774Y8022234D01*
G01X342087Y7998384D01*
G01X299999Y7990027D01*
G01X257912Y7998384D01*
G01X222225Y8022234D01*
G01X198374Y8057921D01*
G01X190017Y8100009D01*
G01X198374Y8142097D01*
G01X222225Y8177784D01*
G01X257912Y8201635D01*
G01X299999Y8210017D01*
G01X342087Y8201635D01*
G01X377774Y8177784D01*
G01X401625Y8142097D01*
G01X410007Y8100009D01*
G01X5309997Y8100009D02*
G01X5301615Y8057921D01*
G01X5277764Y8022234D01*
G01X5242077Y7998384D01*
G01X5199990Y7990027D01*
G01X5157902Y7998384D01*
G01X5122215Y8022234D01*
G01X5098364Y8057921D01*
G01X5090008Y8100009D01*
G01X5098364Y8142097D01*
G01X5122215Y8177784D01*
G01X5157902Y8201635D01*
G01X5199990Y8210017D01*
G01X5242077Y8201635D01*
G01X5277764Y8177784D01*
G01X5301615Y8142097D01*
G01X5309997Y8100009D01*
G01X410007Y299999D02*
G01X401625Y257912D01*
G01X377774Y222225D01*
G01X342087Y198374D01*
G01X299999Y189992D01*
G01X257912Y198374D01*
G01X222225Y222225D01*
G01X198374Y257912D01*
G01X190017Y299999D01*
G01X198374Y342087D01*
G01X222225Y377774D01*
G01X257912Y401625D01*
G01X299999Y410007D01*
G01X342087Y401625D01*
G01X377774Y377774D01*
G01X401625Y342087D01*
G01X410007Y299999D01*
G01X5309997Y299999D02*
G01X5301615Y257912D01*
G01X5277764Y222225D01*
G01X5242077Y198374D01*
G01X5199990Y189992D01*
G01X5157902Y198374D01*
G01X5122215Y222225D01*
G01X5098364Y257912D01*
G01X5090008Y299999D01*
G01X5098364Y342087D01*
G01X5122215Y377774D01*
G01X5157902Y401625D01*
G01X5199990Y410007D01*
G01X5242077Y401625D01*
G01X5277764Y377774D01*
G01X5301615Y342087D01*
G01X5309997Y299999D01*

M02*

