G04 Layer: InnerLayer2*
G04 EasyEDA Pro v4.1.60, 2026-09-21 23:08:41*
G04 Gerber Generator version 0.3*
G04 Scale: 100 percent, Rotated: No, Reflected: No*
G04 Dimensions in millimeters*
G04 Leading zeros omitted, absolute positions, 4 integers and 5 decimals*
G04 Generated by one-click*
G04 Object Configs: Pad,Via,Track,Text,Image,Dimension,BoardOutline,BoardCutout,CopperFilled,SolidRegion,FPCStiffener,Line,PlaneZone,ComponentProperty,ComponentSilkscreen,TearDrop*
G04 Layer Configs: 1,15,16,2,3,4,5,6,7,8,9,10,11,13,14,56*
G04 Copper Areas: 0*
%FSLAX45Y45*%
%MOMM*%
%ADD10O,1.0X1.8*%
%ADD11O,1.0X2.1*%
%ADD12C,0.6096*%
%ADD13C,0.254*%
%ADD14C,0.635*%
%ADD15C,0.8024*%
%ADD16C,0.8001*%
G75*


G04 Pad Start*
G54D10*
G01X2831996Y195067D03*
G01X1967989Y195067D03*
G54D11*
G01X2831996Y613075D03*
G01X1967989Y613075D03*
G04 Pad End*

G04 Via Start*
G54D12*
G01X462280Y4454906D03*
G01X3993388Y2794000D03*
G01X328422Y3969004D03*
G01X89916Y4371086D03*
G01X3020568Y4967986D03*
G01X2309368Y5009642D03*
G01X3972814Y7900924D03*
G01X1996186Y7482332D03*
G01X870966Y2252980D03*
G01X2770378Y2018030D03*
G01X3501390Y5930646D03*
G01X2712974Y5579364D03*
G01X2209038Y2032254D03*
G01X2815590Y1492758D03*
G01X3160014Y5637784D03*
G01X1935734Y1167638D03*
G01X1855216Y5629910D03*
G01X4014470Y6076188D03*
G01X2420620Y5149850D03*
G01X2397506Y4625340D03*
G01X1832610Y3964178D03*
G01X1859280Y1500124D03*
G01X3000248Y1578356D03*
G01X2190750Y4273042D03*
G01X2341372Y1966214D03*
G01X2676398Y1756918D03*
G01X2387092Y2675636D03*
G01X1560830Y5741416D03*
G01X1586738Y6762496D03*
G01X702310Y5631180D03*
G01X962914Y3766820D03*
G01X97028Y4622292D03*
G01X2004568Y4143502D03*
G01X2156206Y3913886D03*
G01X1216660Y3945128D03*
G01X657098Y4686554D03*
G01X1750060Y3828542D03*
G01X2318766Y4114546D03*
G01X462280Y4607560D03*
G01X3838956Y4580128D03*
G01X1431036Y6264910D03*
G01X3802126Y7354824D03*
G01X4098544Y6802120D03*
G01X1546352Y2019808D03*
G01X3977386Y5638546D03*
G01X4447540Y2608326D03*
G01X1723898Y1960880D03*
G01X1314196Y1960880D03*
G01X1215898Y1992376D03*
G01X1998472Y6215380D03*
G01X4165092Y7394956D03*
G01X1746504Y6515608D03*
G01X4198620Y7051802D03*
G01X5068062Y6972046D03*
G01X5068062Y7051802D03*
G01X5398008Y6905498D03*
G01X4011168Y7809484D03*
G01X1996694Y7372350D03*
G01X1562354Y7090664D03*
G01X1718564Y5381244D03*
G01X83058Y4128008D03*
G01X2004568Y6855206D03*
G01X4174998Y1859534D03*
G01X2940558Y4963922D03*
G01X2582164Y4914900D03*
G01X3266186Y4271518D03*
G01X3283712Y2618994D03*
G01X3449066Y2367026D03*
G01X4065016Y1975866D03*
G01X3228340Y3143504D03*
G01X4335272Y3658870D03*
G01X4604218Y2293366D03*
G01X1996186Y6325616D03*
G01X4485894Y6148578D03*
G01X4182110Y1949704D03*
G01X2275078Y805942D03*
G01X2912364Y923036D03*
G01X4192778Y2432812D03*
G01X3187446Y1186688D03*
G01X2537460Y782828D03*
G01X3032760Y955040D03*
G01X1996694Y6108700D03*
G01X1689354Y6447028D03*
G01X2285238Y1020826D03*
G01X1721612Y6213094D03*
G01X1697228Y5635752D03*
G01X1623060Y6020562D03*
G01X4386072Y3370580D03*
G01X2160016Y775208D03*
G01X1397000Y2685542D03*
G01X4869180Y3653536D03*
G01X1996440Y6682486D03*
G01X4255008Y7652004D03*
G01X853186Y1489964D03*
G01X2883916Y1990852D03*
G01X637794Y4610354D03*
G01X3959606Y4045204D03*
G01X2752598Y2730754D03*
G01X321818Y3822446D03*
G01X3014726Y4043680D03*
G01X116840Y3569716D03*
G01X1996440Y6777482D03*
G01X321818Y4060444D03*
G01X1575054Y5956808D03*
G01X606044Y4122420D03*
G01X2305558Y5637022D03*
G01X538734Y4284980D03*
G01X2432558Y5881878D03*
G01X421386Y4305808D03*
G01X2682494Y5884164D03*
G01X1955800Y5712714D03*
G01X462280Y4531106D03*
G01X3557270Y3148076D03*
G01X2406396Y816102D03*
G01X1637030Y5741416D03*
G01X1792986Y1754886D03*
G01X3453130Y1903222D03*
G01X4098036Y6365494D03*
G01X2730754Y3286252D03*
G01X2903220Y4757420D03*
G01X2949956Y3496564D03*
G01X4493006Y3891788D03*
G01X3161030Y3541014D03*
G01X4473194Y3718052D03*
G01X2975102Y2999232D03*
G01X1997456Y5046218D03*
G01X1925828Y5088890D03*
G01X1799336Y5175250D03*
G01X2866136Y3081274D03*
G01X2141220Y4965700D03*
G01X3403346Y2296922D03*
G01X3503168Y7304278D03*
G01X4086606Y7401052D03*
G01X3625088Y1814068D03*
G01X3076194Y2362962D03*
G01X2850134Y4944618D03*
G01X3957066Y4701032D03*
G01X3845052Y1741678D03*
G01X1955800Y5283708D03*
G01X2209800Y6248146D03*
G01X4011168Y6511290D03*
G01X1955800Y1992376D03*
G01X4266946Y2243582D03*
G01X3111754Y414274D03*
G01X2537968Y1131570D03*
G01X962406Y5766562D03*
G01X2189447Y1185451D03*
G01X3509518Y4187444D03*
G01X3491624Y5452732D03*
G01X1705135Y2035015D03*
G01X346456Y5210048D03*
G01X5361178Y1329944D03*
G01X821182Y2137410D03*
G01X2490724Y3386328D03*
G01X1312418Y2302510D03*
G01X3001772Y2344674D03*
G01X821182Y1137412D03*
G01X3452368Y3131820D03*
G01X2420620Y3143504D03*
G01X3509518Y3653282D03*
G01X1295654Y2139696D03*
G01X2080006Y746760D03*
G01X1176274Y4028694D03*
G01X3963670Y3579622D03*
G01X3661918Y4454652D03*
G01X2086356Y4131564D03*
G01X2292096Y2274570D03*
G01X2024888Y2426970D03*
G01X2668524Y2004822D03*
G01X3152394Y3919982D03*
G01X2795524Y4187444D03*
G01X4467319Y3397283D03*
G01X3661918Y5227320D03*
G01X1710436Y4028694D03*
G01X5361178Y4029964D03*
G01X2795524Y3920490D03*
G01X629920Y5486400D03*
G01X3579622Y4974590D03*
G01X4066286Y3205480D03*
G01X4516120Y1634998D03*
G01X4751070Y124968D03*
G01X3401314Y169926D03*
G01X3401314Y584962D03*
G01X3378995Y1258857D03*
G01X1798828Y7539482D03*
G01X3701288Y7539482D03*
G01X2739898Y6754368D03*
G01X2459990Y6703568D03*
G01X2536190Y6907530D03*
G01X4238719Y3408205D03*
G01X768718Y5334648D03*
G01X1258824Y4899914D03*
G01X1371821Y5942363D03*
G01X5208778Y6729984D03*
G01X958850Y3053842D03*
G01X2795524Y3653282D03*
G01X3639599Y3974371D03*
G01X3597402Y2875788D03*
G01X2430526Y5448300D03*
G01X1400556Y7285482D03*
G01X3509518Y4721606D03*
G01X3661918Y3386328D03*
G01X3711956Y4107688D03*
G01X1355344Y2991612D03*
G01X2935084Y2603614D03*
G01X2810510Y1020064D03*
G01X3754341Y5426169D03*
G01X4066286Y3345434D03*
G01X4443008Y2458974D03*
G01X2702560Y4947920D03*
G01X2418080Y5252720D03*
G01X2550160Y3322320D03*
G01X2143760Y3007360D03*
G01X2431542Y1736344D03*
G01X2306320Y1584960D03*
G01X1475994Y1656842D03*
G04 Via End*

G04 Track Start*
G54D13*
G01X3993388Y2794000D02*
G01X2123186Y2794000D01*
G01X462280Y4454906D01*
G01X2309368Y5009642D02*
G01X2626614Y5009642D01*
G01X2640838Y5023866D01*
G01X2964942Y5023866D01*
G01X3020568Y4967986D01*
G01X870966Y2252980D02*
G01X1263396Y1860550D01*
G01X1770380Y1860550D01*
G01X1811274Y1901444D01*
G01X2653792Y1901444D01*
G01X2770378Y2018030D01*
G01X3501390Y5930646D02*
G01X3501390Y5896356D01*
G01X3184144Y5579364D01*
G01X2712974Y5579364D01*
G01X2420620Y5149850D02*
G01X1940814Y5629910D01*
G01X1855216Y5629910D01*
G01X4014470Y6076188D02*
G01X3088132Y5149850D01*
G01X2420620Y5149850D01*
G01X2397506Y4625340D02*
G01X1832610Y4060444D01*
G01X1832610Y3964178D01*
G01X2156206Y3913886D02*
G01X2012442Y3770122D01*
G01X1391920Y3770122D01*
G01X1216660Y3945128D01*
G01X657098Y4686554D02*
G01X892048Y4686554D01*
G01X1750060Y3828542D01*
G01X2318766Y4114546D02*
G01X2274316Y4114546D01*
G01X1988312Y3828542D01*
G01X1750060Y3828542D01*
G01X3838956Y4580128D02*
G01X3353816Y5065522D01*
G01X2619502Y5065522D01*
G01X2604516Y5050536D01*
G01X2351278Y5050536D01*
G01X2223516Y5178298D01*
G01X1977390Y5178298D01*
G01X1880108Y5275580D01*
G01X1105154Y5275580D01*
G01X462280Y4632706D01*
G01X462280Y4607560D01*
G01X3802126Y7354824D02*
G01X3792474Y7364476D01*
G01X3467862Y7364476D01*
G01X2727452Y6624066D01*
G01X1712468Y6624066D01*
G01X1431036Y6342380D01*
G01X1431036Y6264910D01*
G01X1723898Y1960880D02*
G01X1314196Y1960880D01*
G01X4447540Y2608326D02*
G01X4377944Y2678176D01*
G01X2782824Y2678176D01*
G01X2776728Y2672334D01*
G01X2728214Y2672334D01*
G01X2700274Y2700274D01*
G01X2494534Y2700274D01*
G01X2312924Y2518664D01*
G01X2281682Y2518664D01*
G01X1723898Y1960880D01*
G01X2850642Y2491994D02*
G01X2683510Y2659380D01*
G01X2521712Y2659380D01*
G01X1804670Y1942338D01*
G01X1794510Y1942338D01*
G01X1753616Y1901444D01*
G01X1290066Y1901444D01*
G01X1215898Y1975866D01*
G01X1215898Y1992376D01*
G01X240284Y2967736D01*
G01X240284Y4721606D01*
G01X1597660Y6078982D01*
G01X1647190Y6078982D02*
G01X1676400Y6050026D01*
G01X2021332Y6050026D01*
G01X2055876Y6084570D01*
G01X2055876Y6157722D01*
G01X1998472Y6215380D01*
G01X1630172Y6078982D02*
G01X1630172Y6482588D01*
G01X1647190Y6078982D02*
G01X1630172Y6078982D01*
G01X1597660Y6078982D01*
G01X1630172Y6482588D02*
G01X1722882Y6575298D01*
G01X3345434Y6575298D01*
G01X4165092Y7394956D01*
G01X4198620Y7051802D02*
G01X3662680Y6515608D01*
G01X1746504Y6515608D01*
G01X4198620Y7051802D02*
G01X4988306Y7051802D01*
G01X5068062Y6972046D01*
G01X4011168Y7809484D02*
G01X4494022Y7809484D01*
G01X5398008Y6905498D01*
G01X83058Y4128008D02*
G01X156972Y4201922D01*
G01X156972Y5184902D01*
G01X1827276Y6855206D01*
G01X2004568Y6855206D01*
G01X2940558Y4963922D02*
G01X3764026Y4140200D01*
G01X4327906Y4140200D01*
G01X4551934Y3916426D01*
G01X4551934Y3660394D01*
G01X4327144Y3435604D01*
G01X4327144Y2958084D01*
G01X4506468Y2778760D01*
G01X4506468Y2530094D01*
G01X4501388Y2525014D01*
G01X4501388Y2185924D01*
G01X4174998Y1859534D01*
G01X3449066Y2367026D02*
G01X3673856Y2367026D01*
G01X4065016Y1975866D01*
G01X3266186Y4271518D02*
G01X2623058Y4914900D01*
G01X2582164Y4914900D01*
G01X4335272Y3658870D02*
G01X3743960Y3658870D01*
G01X3228340Y3143504D01*
G01X1996186Y6325616D02*
G01X2173224Y6148578D01*
G01X4485894Y6148578D01*
G01X2912364Y923036D02*
G01X3117088Y1128014D01*
G01X3360420Y1128014D01*
G01X4182110Y1949704D01*
G01X2912364Y923036D02*
G01X2392172Y923036D01*
G01X2275078Y805942D01*
G01X3187446Y1186688D02*
G01X3684270Y1683258D01*
G01X3684270Y1888744D01*
G01X3344418Y2228596D01*
G01X3344418Y2345944D01*
G01X3431286Y2432812D01*
G01X4192778Y2432812D01*
G01X3032760Y955040D02*
G01X2860548Y782828D01*
G01X2537460Y782828D01*
G01X1689354Y6416040D02*
G01X1689354Y6447028D01*
G01X4386072Y3370580D02*
G01X4548124Y3208528D01*
G01X4548124Y2514092D01*
G01X4542282Y2508250D01*
G01X4542282Y2144014D01*
G01X3011424Y613156D01*
G01X2832100Y613156D01*
G01X1967992Y613156D02*
G01X1978660Y623570D01*
G01X4255008Y7652004D02*
G01X2966212Y7652004D01*
G01X1996440Y6682486D01*
G01X853186Y1489964D02*
G01X1182878Y1819656D01*
G01X1787398Y1819656D01*
G01X1824228Y1856486D01*
G01X2749550Y1856486D01*
G01X2883916Y1990852D01*
G01X637794Y4610354D02*
G01X597916Y4650232D01*
G01X597916Y4710430D01*
G01X1121156Y5233670D01*
G01X1863852Y5233670D01*
G01X1979676Y5117846D01*
G01X2133092Y5117846D01*
G01X2250694Y5000498D01*
G01X2250694Y4985258D01*
G01X3190748Y4045204D01*
G01X3959606Y4045204D01*
G01X2752598Y2730754D02*
G01X2736342Y2747010D01*
G01X1397000Y2747010D01*
G01X321818Y3822446D01*
G01X116840Y3569716D02*
G01X199390Y3652266D01*
G01X199390Y4890262D01*
G01X881888Y5572760D01*
G01X881888Y5851652D01*
G01X1807718Y6777482D01*
G01X1996440Y6777482D01*
G01X321818Y4060444D02*
G01X281178Y4101338D01*
G01X281178Y4684776D01*
G01X1552956Y5956808D01*
G01X1575054Y5956808D01*
G01X606044Y4122420D02*
G01X463042Y4122420D01*
G01X322072Y4263390D01*
G01X322072Y4665980D01*
G01X1497076Y5840984D01*
G01X2222500Y5840984D01*
G01X2324608Y5943092D01*
G01X2707894Y5943092D01*
G01X2741168Y5909818D01*
G01X2741168Y5859526D01*
G01X2518664Y5637022D01*
G01X2305558Y5637022D01*
G01X538734Y4284980D02*
G01X500126Y4246372D01*
G01X397002Y4246372D01*
G01X362966Y4280408D01*
G01X362966Y4648962D01*
G01X1514094Y5800090D01*
G01X2350770Y5800090D01*
G01X2432558Y5881878D01*
G01X421386Y4305808D02*
G01X403860Y4323588D01*
G01X403860Y4631944D01*
G01X1454658Y5682742D01*
G01X1661414Y5682742D01*
G01X1691132Y5712714D01*
G01X1955800Y5712714D01*
G01X2682494Y5884164D02*
G01X2511044Y5712714D01*
G01X1955800Y5712714D01*
G01X3557270Y3148076D02*
G01X3349752Y2940558D01*
G01X2059686Y2940558D01*
G01X468884Y4531106D01*
G01X462280Y4531106D01*
G01X1792986Y1754886D02*
G01X2329942Y1754886D01*
G01X2407158Y1677670D01*
G01X3227832Y1677670D01*
G01X3453130Y1903222D01*
G01X2949956Y3496564D02*
G01X3345180Y3891788D01*
G01X4493006Y3891788D01*
G01X4473194Y3718052D02*
G01X3338068Y3718052D01*
G01X3161030Y3541014D01*
G01X1799336Y5175250D02*
G01X1839722Y5175250D01*
G01X1925828Y5088890D01*
G01X1997456Y5046218D02*
G01X2145284Y5046218D01*
G01X2209800Y4981702D01*
G01X2209800Y4968240D01*
G01X2882138Y4296156D01*
G01X2882138Y3481578D01*
G01X2975102Y3388614D01*
G01X2975102Y2999232D01*
G01X2141220Y4965700D02*
G01X2672080Y4434840D01*
G01X2672080Y3261868D01*
G01X2852928Y3081274D01*
G01X2866136Y3081274D01*
G01X3503168Y7304278D02*
G01X3511296Y7296150D01*
G01X3981704Y7296150D01*
G01X4086606Y7401052D01*
G01X3625088Y1814068D02*
G01X3076194Y2362962D01*
G01X1955800Y5283708D02*
G01X2175764Y5283708D01*
G01X2368296Y5091430D01*
G01X2587498Y5091430D01*
G01X2602484Y5106416D01*
G01X3551682Y5106416D01*
G01X3957066Y4701032D01*
G01X2209800Y6248146D02*
G01X3747770Y6248146D01*
G01X4011168Y6511290D01*
G01X1978660Y623570D02*
G01X1995170Y640080D01*
G01X2804922Y640080D01*
G01X2832100Y613156D01*
G01X4443008Y2458974D02*
G01X4409988Y2491994D01*
G01X2850642Y2491994D01*
G54D14*
G01X2550160Y3322320D02*
G01X2296160Y3159760D01*
G54D16*
G01X2296160Y3159760D02*
G01X2143760Y3007360D01*
G01X2306320Y1584960D02*
G01X1475994Y1656842D01*
G54D13*
G01X1996186Y7482332D02*
G01X2250694Y7736840D01*
G01X3931920Y7736840D01*
G01X3931920Y7900924D01*
G01X3972814Y7900924D01*
G01X1996694Y7372350D02*
G01X2320544Y7696200D01*
G01X4011168Y7696200D01*
G01X4011168Y7809484D01*
G01X1996694Y6108700D02*
G01X1853006Y6252388D01*
G01X1853006Y6317031D01*
G01X1788363Y6317031D01*
G01X1788363Y6381699D01*
G01X1723695Y6381699D01*
G01X1689354Y6416040D01*
G04 Track End*

M02*

