G04 Layer: InnerLayer1*
G04 EasyEDA Pro v4.1.60, 2026-09-21 23:08:41*
G04 Gerber Generator version 0.3*
G04 Scale: 100 percent, Rotated: No, Reflected: No*
G04 Dimensions in millimeters*
G04 Leading zeros omitted, absolute positions, 4 integers and 5 decimals*
G04 Generated by one-click*
G04 Object Configs: Pad,Via,Track,Text,Image,Dimension,BoardOutline,BoardCutout,CopperFilled,SolidRegion,FPCStiffener,Line,PlaneZone,ComponentProperty,ComponentSilkscreen,TearDrop*
G04 Layer Configs: 1,15,16,2,3,4,5,6,7,8,9,10,11,13,14,56*
G04 Copper Areas: 1*
%FSLAX45Y45*%
%MOMM*%
%ADD10C,0.2032*%
%ADD11O,1.0X1.8*%
%ADD12O,1.0X2.1*%
%ADD13C,0.6096*%
%ADD14C,0.6419*%
G75*


G04 Copper Start*
G36*
G01X137294Y48260D02*
G01X117985Y57765D01*
G01X100086Y69715D01*
G01X83903Y83903D01*
G01X69715Y100086D01*
G01X57765Y117985D01*
G01X48260Y137294D01*
G01X48260Y299999D01*
G01X154203Y299999D01*
G01X154889Y293025D01*
G01X163246Y250937D01*
G01X165285Y244210D01*
G01X168598Y238011D01*
G01X192448Y202324D01*
G01X196900Y196900D01*
G01X202324Y192448D01*
G01X238011Y168598D01*
G01X244201Y165288D01*
G01X250916Y163250D01*
G01X293004Y154868D01*
G01X299999Y154178D01*
G01X306995Y154868D01*
G01X349082Y163250D01*
G01X355798Y165288D01*
G01X361987Y168598D01*
G01X397674Y192448D01*
G01X403099Y196900D01*
G01X407550Y202324D01*
G01X429433Y235067D01*
G01X1882176Y235067D01*
G01X1882176Y155067D01*
G01X1884051Y137225D01*
G01X1889595Y120163D01*
G01X1898565Y104627D01*
G01X1910569Y91295D01*
G01X1925083Y80750D01*
G01X1941472Y73453D01*
G01X1959019Y69723D01*
G01X1976959Y69723D01*
G01X1994507Y73453D01*
G01X2010896Y80750D01*
G01X2025410Y91295D01*
G01X2037414Y104627D01*
G01X2046384Y120163D01*
G01X2051928Y137225D01*
G01X2053803Y155067D01*
G01X2053803Y235067D01*
G01X2746182Y235067D01*
G01X2746182Y155067D01*
G01X2748057Y137225D01*
G01X2753601Y120163D01*
G01X2762571Y104627D01*
G01X2774575Y91295D01*
G01X2789089Y80750D01*
G01X2805478Y73453D01*
G01X2823026Y69723D01*
G01X2840966Y69723D01*
G01X2858514Y73453D01*
G01X2874903Y80750D01*
G01X2889417Y91295D01*
G01X2901421Y104627D01*
G01X2910391Y120163D01*
G01X2915935Y137225D01*
G01X2917810Y155067D01*
G01X2917810Y235067D01*
G01X2915935Y252909D01*
G01X2910391Y269970D01*
G01X2901421Y285507D01*
G01X2889417Y298839D01*
G01X2887819Y299999D01*
G01X5054194Y299999D01*
G01X5054879Y293025D01*
G01X5063236Y250937D01*
G01X5065275Y244210D01*
G01X5068588Y238011D01*
G01X5092439Y202324D01*
G01X5096890Y196900D01*
G01X5102315Y192448D01*
G01X5138002Y168598D01*
G01X5144191Y165288D01*
G01X5150907Y163250D01*
G01X5192994Y154868D01*
G01X5199990Y154178D01*
G01X5206985Y154868D01*
G01X5249073Y163250D01*
G01X5255788Y165288D01*
G01X5261978Y168598D01*
G01X5297665Y192448D01*
G01X5303089Y196900D01*
G01X5307541Y202324D01*
G01X5331391Y238011D01*
G01X5334701Y244201D01*
G01X5336739Y250916D01*
G01X5345121Y293004D01*
G01X5345811Y299999D01*
G01X5345121Y306995D01*
G01X5336739Y349082D01*
G01X5334701Y355798D01*
G01X5331391Y361987D01*
G01X5307541Y397674D01*
G01X5303089Y403099D01*
G01X5297665Y407550D01*
G01X5261978Y431401D01*
G01X5261978Y431401D01*
G01X5255788Y434710D01*
G01X5249073Y436749D01*
G01X5206985Y445131D01*
G01X5199990Y445821D01*
G01X5192994Y445131D01*
G01X5150907Y436749D01*
G01X5144191Y434710D01*
G01X5138002Y431401D01*
G01X5102315Y407550D01*
G01X5096890Y403099D01*
G01X5092439Y397674D01*
G01X5068588Y361987D01*
G01X5065275Y355789D01*
G01X5063236Y349062D01*
G01X5054879Y306974D01*
G01X5054194Y299999D01*
G01X2887819Y299999D01*
G01X2874903Y309384D01*
G01X2858514Y316681D01*
G01X2840966Y320411D01*
G01X2823026Y320411D01*
G01X2805478Y316681D01*
G01X2789089Y309384D01*
G01X2774575Y298839D01*
G01X2762571Y285507D01*
G01X2753601Y269970D01*
G01X2748057Y252909D01*
G01X2746182Y235067D01*
G01X2746182Y235067D01*
G01X2053803Y235067D01*
G01X2051928Y252909D01*
G01X2046384Y269970D01*
G01X2037414Y285507D01*
G01X2025410Y298839D01*
G01X2010896Y309384D01*
G01X1994507Y316681D01*
G01X1976959Y320411D01*
G01X1959019Y320411D01*
G01X1941472Y316681D01*
G01X1925083Y309384D01*
G01X1910569Y298839D01*
G01X1898565Y285507D01*
G01X1889595Y269970D01*
G01X1884051Y252909D01*
G01X1882176Y235067D01*
G01X1882176Y235067D01*
G01X429433Y235067D01*
G01X431401Y238011D01*
G01X434710Y244201D01*
G01X436749Y250916D01*
G01X445131Y293004D01*
G01X445821Y299999D01*
G01X445131Y306995D01*
G01X436749Y349082D01*
G01X434710Y355798D01*
G01X431401Y361987D01*
G01X407550Y397674D01*
G01X403099Y403099D01*
G01X397674Y407550D01*
G01X387614Y414274D01*
G01X3045460Y414274D01*
G01X3047386Y398409D01*
G01X3053054Y383466D01*
G01X3062132Y370313D01*
G01X3074095Y359715D01*
G01X3088246Y352288D01*
G01X3103763Y348463D01*
G01X3119745Y348463D01*
G01X3135262Y352288D01*
G01X3149413Y359715D01*
G01X3161376Y370313D01*
G01X3170454Y383466D01*
G01X3176122Y398409D01*
G01X3178048Y414274D01*
G01X3176122Y430139D01*
G01X3170454Y445082D01*
G01X3161376Y458235D01*
G01X3149413Y468833D01*
G01X3135262Y476260D01*
G01X3119745Y480085D01*
G01X3103763Y480085D01*
G01X3088246Y476260D01*
G01X3074095Y468833D01*
G01X3062132Y458235D01*
G01X3053054Y445082D01*
G01X3047386Y430139D01*
G01X3045460Y414274D01*
G01X3045460Y414274D01*
G01X387614Y414274D01*
G01X361987Y431401D01*
G01X361987Y431401D01*
G01X355798Y434710D01*
G01X349082Y436749D01*
G01X306995Y445131D01*
G01X299999Y445821D01*
G01X293004Y445131D01*
G01X250916Y436749D01*
G01X244201Y434710D01*
G01X238011Y431401D01*
G01X202324Y407550D01*
G01X196900Y403099D01*
G01X192448Y397674D01*
G01X168598Y361987D01*
G01X165285Y355789D01*
G01X163246Y349062D01*
G01X154889Y306974D01*
G01X154203Y299999D01*
G01X48260Y299999D01*
G01X48260Y668075D01*
G01X1882176Y668075D01*
G01X1882176Y558075D01*
G01X1883934Y540793D01*
G01X1889136Y524219D01*
G01X1897570Y509033D01*
G01X1908889Y495856D01*
G01X1922630Y485229D01*
G01X1938230Y477586D01*
G01X1955049Y473242D01*
G01X1972399Y472374D01*
G01X1989567Y475018D01*
G01X2005852Y481065D01*
G01X2020585Y490268D01*
G01X2033163Y502250D01*
G01X2043070Y516519D01*
G01X2049901Y532490D01*
G01X2058839Y518939D01*
G01X2070723Y507879D01*
G01X2084881Y499936D01*
G01X2100513Y495557D01*
G01X2116737Y494991D01*
G01X2132637Y498269D01*
G01X2147314Y505205D01*
G01X2159940Y515410D01*
G01X2169802Y528305D01*
G01X2176342Y543163D01*
G01X2179192Y559144D01*
G01X2179192Y559144D01*
G01X2620793Y559144D01*
G01X2623643Y543163D01*
G01X2630184Y528305D01*
G01X2640046Y515410D01*
G01X2652672Y505205D01*
G01X2667349Y498269D01*
G01X2683248Y494991D01*
G01X2699472Y495557D01*
G01X2715105Y499936D01*
G01X2729262Y507879D01*
G01X2741146Y518939D01*
G01X2750085Y532490D01*
G01X2756915Y516519D01*
G01X2766822Y502250D01*
G01X2779400Y490268D01*
G01X2794133Y481065D01*
G01X2810418Y475018D01*
G01X2827587Y472374D01*
G01X2844936Y473242D01*
G01X2861755Y477586D01*
G01X2877355Y485229D01*
G01X2891096Y495856D01*
G01X2902415Y509033D01*
G01X2910849Y524219D01*
G01X2916052Y540793D01*
G01X2917810Y558075D01*
G01X2917810Y668075D01*
G01X2915935Y685916D01*
G01X2910391Y702978D01*
G01X2901421Y718515D01*
G01X2889417Y731847D01*
G01X2874903Y742392D01*
G01X2858514Y749688D01*
G01X2840966Y753418D01*
G01X2823026Y753418D01*
G01X2805478Y749688D01*
G01X2789089Y742392D01*
G01X2774575Y731847D01*
G01X2762571Y718515D01*
G01X2753601Y702978D01*
G01X2748057Y685916D01*
G01X2746182Y668075D01*
G01X2746182Y600428D01*
G01X2735750Y612867D01*
G01X2722678Y622493D01*
G01X2707704Y628763D01*
G01X2691673Y631323D01*
G01X2675491Y630028D01*
G01X2660072Y624951D01*
G01X2646285Y616379D01*
G01X2634911Y604796D01*
G01X2626591Y590857D01*
G01X2621794Y575347D01*
G01X2620793Y559144D01*
G01X2620793Y559144D01*
G01X2179192Y559144D01*
G01X2178191Y575347D01*
G01X2173395Y590857D01*
G01X2165074Y604796D01*
G01X2153700Y616379D01*
G01X2139914Y624951D01*
G01X2124494Y630028D01*
G01X2108312Y631323D01*
G01X2092281Y628763D01*
G01X2077307Y622493D01*
G01X2064235Y612867D01*
G01X2053803Y600428D01*
G01X2053803Y668075D01*
G01X2053803Y668075D01*
G01X2051928Y685916D01*
G01X2046384Y702978D01*
G01X2037414Y718515D01*
G01X2025410Y731847D01*
G01X2010896Y742392D01*
G01X1994507Y749688D01*
G01X1976959Y753418D01*
G01X1959019Y753418D01*
G01X1941472Y749688D01*
G01X1925083Y742392D01*
G01X1910569Y731847D01*
G01X1898565Y718515D01*
G01X1889595Y702978D01*
G01X1884051Y685916D01*
G01X1882176Y668075D01*
G01X48260Y668075D01*
G01X48260Y774095D01*
G01X2093731Y774095D01*
G01X2095967Y758100D01*
G01X2102005Y743120D01*
G01X2111486Y730045D01*
G01X2123847Y719650D01*
G01X2138355Y712553D01*
G01X2154148Y709174D01*
G01X2170290Y709715D01*
G01X2185822Y714143D01*
G01X2199823Y722195D01*
G01X2211460Y733394D01*
G01X2220045Y747075D01*
G01X2225066Y762425D01*
G01X2236776Y751832D01*
G01X2250660Y744309D01*
G01X2265929Y740282D01*
G01X2281717Y739981D01*
G01X2297129Y743423D01*
G01X2311289Y750411D01*
G01X2323395Y760551D01*
G01X2332759Y773265D01*
G01X2338851Y787834D01*
G01X2341324Y803430D01*
G01X2346003Y788759D01*
G01X2353941Y775564D01*
G01X2364708Y764556D01*
G01X2377725Y756328D01*
G01X2392289Y751326D01*
G01X2407614Y749819D01*
G01X2422873Y751888D01*
G01X2437243Y757422D01*
G01X2449949Y766122D01*
G01X2460305Y777518D01*
G01X2463239Y782828D01*
G01X2471166Y782828D01*
G01X2473092Y766963D01*
G01X2478760Y752020D01*
G01X2487838Y738867D01*
G01X2499801Y728269D01*
G01X2513952Y720842D01*
G01X2529469Y717017D01*
G01X2545451Y717017D01*
G01X2560968Y720842D01*
G01X2575119Y728269D01*
G01X2587082Y738867D01*
G01X2596160Y752020D01*
G01X2601828Y766963D01*
G01X2603754Y782828D01*
G01X2601828Y798693D01*
G01X2596160Y813636D01*
G01X2587082Y826789D01*
G01X2575119Y837387D01*
G01X2560968Y844814D01*
G01X2545451Y848639D01*
G01X2529469Y848639D01*
G01X2513952Y844814D01*
G01X2499801Y837387D01*
G01X2487838Y826789D01*
G01X2478760Y813636D01*
G01X2473092Y798693D01*
G01X2471166Y782828D01*
G01X2471166Y782828D01*
G01X2463239Y782828D01*
G01X2467752Y790996D01*
G01X2471889Y805829D01*
G01X2472492Y821216D01*
G01X2469530Y836327D01*
G01X2463160Y850347D01*
G01X2453728Y862519D01*
G01X2441743Y872187D01*
G01X2427850Y878829D01*
G01X2412800Y882086D01*
G01X2397404Y881783D01*
G01X2382493Y877937D01*
G01X2368872Y870754D01*
G01X2357276Y860623D01*
G01X2348330Y848089D01*
G01X2342516Y833830D01*
G01X2340150Y818614D01*
G01X2335558Y833091D01*
G01X2327792Y846143D01*
G01X2317259Y857085D01*
G01X2304512Y865343D01*
G01X2290221Y870483D01*
G01X2275134Y872236D01*
G01X2275134Y872236D01*
G01X2260045Y870509D01*
G01X2245745Y865393D01*
G01X2232984Y857157D01*
G01X2222433Y846233D01*
G01X2214644Y833194D01*
G01X2210028Y818725D01*
G01X2198021Y829527D01*
G01X2183758Y837105D01*
G01X2168087Y841009D01*
G01X2151936Y841008D01*
G01X2136264Y837101D01*
G01X2122003Y829521D01*
G01X2109997Y818717D01*
G01X2100961Y805331D01*
G01X2095429Y790157D01*
G01X2093731Y774095D01*
G01X48260Y774095D01*
G01X48260Y921238D01*
G01X2846094Y921238D01*
G01X2848295Y906005D01*
G01X2848295Y906005D01*
G01X2853949Y891690D01*
G01X2862751Y879065D01*
G01X2874227Y868810D01*
G01X2887759Y861477D01*
G01X2902617Y857462D01*
G01X2918000Y856982D01*
G01X2933079Y860062D01*
G01X2947042Y866536D01*
G01X2959136Y876055D01*
G01X2968709Y888106D01*
G01X2975245Y902040D01*
G01X2978392Y917105D01*
G01X2988605Y905591D01*
G01X3001197Y896742D01*
G01X3015491Y891035D01*
G01X3030715Y888778D01*
G01X3046049Y890092D01*
G01X3060668Y894906D01*
G01X3073782Y902962D01*
G01X3084685Y913825D01*
G01X3092789Y926909D01*
G01X3097658Y941509D01*
G01X3099030Y956838D01*
G01X3096829Y972071D01*
G01X3091175Y986386D01*
G01X3082373Y999011D01*
G01X3070897Y1009266D01*
G01X3057365Y1016599D01*
G01X3042507Y1020614D01*
G01X3027124Y1021094D01*
G01X3012045Y1018014D01*
G01X2998082Y1011540D01*
G01X2985988Y1002021D01*
G01X2976415Y989970D01*
G01X2969879Y976036D01*
G01X2966732Y960971D01*
G01X2956519Y972485D01*
G01X2943927Y981334D01*
G01X2929633Y987041D01*
G01X2914409Y989298D01*
G01X2899075Y987984D01*
G01X2884456Y983170D01*
G01X2871342Y975114D01*
G01X2860439Y964251D01*
G01X2852335Y951167D01*
G01X2847466Y936567D01*
G01X2846094Y921238D01*
G01X48260Y921238D01*
G01X48260Y1020826D01*
G01X2218944Y1020826D01*
G01X2220870Y1004961D01*
G01X2226538Y990018D01*
G01X2235616Y976865D01*
G01X2247579Y966267D01*
G01X2261730Y958840D01*
G01X2277247Y955015D01*
G01X2293229Y955015D01*
G01X2308746Y958840D01*
G01X2322897Y966267D01*
G01X2334860Y976865D01*
G01X2343938Y990018D01*
G01X2349606Y1004961D01*
G01X2351532Y1020826D01*
G01X2349606Y1036691D01*
G01X2343938Y1051634D01*
G01X2334860Y1064787D01*
G01X2322897Y1075385D01*
G01X2308746Y1082812D01*
G01X2293229Y1086637D01*
G01X2277247Y1086637D01*
G01X2261730Y1082812D01*
G01X2247579Y1075385D01*
G01X2235616Y1064787D01*
G01X2226538Y1051634D01*
G01X2220870Y1036691D01*
G01X2218944Y1020826D01*
G01X2218944Y1020826D01*
G01X48260Y1020826D01*
G01X48260Y1167638D01*
G01X1869440Y1167638D01*
G01X1871366Y1151773D01*
G01X1877034Y1136830D01*
G01X1886112Y1123677D01*
G01X1898075Y1113079D01*
G01X1912226Y1105652D01*
G01X1927743Y1101827D01*
G01X1943725Y1101827D01*
G01X1959242Y1105652D01*
G01X1973393Y1113079D01*
G01X1985356Y1123677D01*
G01X1994434Y1136830D01*
G01X2000102Y1151773D01*
G01X2002028Y1167638D01*
G01X2000102Y1183503D01*
G01X1998894Y1186688D01*
G01X3121152Y1186688D01*
G01X3123078Y1170823D01*
G01X3128746Y1155880D01*
G01X3137824Y1142727D01*
G01X3149787Y1132129D01*
G01X3163938Y1124702D01*
G01X3179455Y1120877D01*
G01X3195437Y1120877D01*
G01X3210954Y1124702D01*
G01X3225105Y1132129D01*
G01X3237068Y1142727D01*
G01X3246146Y1155880D01*
G01X3251814Y1170823D01*
G01X3253740Y1186688D01*
G01X3251814Y1202553D01*
G01X3246146Y1217496D01*
G01X3237068Y1230649D01*
G01X3225105Y1241247D01*
G01X3210954Y1248674D01*
G01X3195437Y1252499D01*
G01X3179455Y1252499D01*
G01X3163938Y1248674D01*
G01X3149787Y1241247D01*
G01X3137824Y1230649D01*
G01X3128746Y1217496D01*
G01X3123078Y1202553D01*
G01X3121152Y1186688D01*
G01X3121152Y1186688D01*
G01X1998894Y1186688D01*
G01X1994434Y1198446D01*
G01X1985356Y1211599D01*
G01X1973393Y1222197D01*
G01X1959242Y1229624D01*
G01X1943725Y1233449D01*
G01X1927743Y1233449D01*
G01X1912226Y1229624D01*
G01X1898075Y1222197D01*
G01X1886112Y1211599D01*
G01X1877034Y1198446D01*
G01X1871366Y1183503D01*
G01X1869440Y1167638D01*
G01X1869440Y1167638D01*
G01X48260Y1167638D01*
G01X48260Y1489964D01*
G01X786892Y1489964D01*
G01X788818Y1474099D01*
G01X794486Y1459156D01*
G01X803564Y1446003D01*
G01X815527Y1435405D01*
G01X829678Y1427978D01*
G01X845195Y1424153D01*
G01X861177Y1424153D01*
G01X876694Y1427978D01*
G01X890845Y1435405D01*
G01X902808Y1446003D01*
G01X911886Y1459156D01*
G01X917554Y1474099D01*
G01X919480Y1489964D01*
G01X918246Y1500124D01*
G01X1792986Y1500124D01*
G01X1794912Y1484259D01*
G01X1800580Y1469316D01*
G01X1809658Y1456163D01*
G01X1821621Y1445565D01*
G01X1835772Y1438138D01*
G01X1851289Y1434313D01*
G01X1867271Y1434313D01*
G01X1882788Y1438138D01*
G01X1896939Y1445565D01*
G01X1908902Y1456163D01*
G01X1917980Y1469316D01*
G01X1923648Y1484259D01*
G01X1924680Y1492758D01*
G01X2749296Y1492758D01*
G01X2751222Y1476893D01*
G01X2756890Y1461950D01*
G01X2765968Y1448797D01*
G01X2777931Y1438199D01*
G01X2792082Y1430772D01*
G01X2807599Y1426947D01*
G01X2823581Y1426947D01*
G01X2839098Y1430772D01*
G01X2853249Y1438199D01*
G01X2865212Y1448797D01*
G01X2874290Y1461950D01*
G01X2879958Y1476893D01*
G01X2881884Y1492758D01*
G01X2879958Y1508623D01*
G01X2874290Y1523566D01*
G01X2865212Y1536719D01*
G01X2853249Y1547317D01*
G01X2839098Y1554744D01*
G01X2823581Y1558569D01*
G01X2807599Y1558569D01*
G01X2792082Y1554744D01*
G01X2777931Y1547317D01*
G01X2765968Y1536719D01*
G01X2756890Y1523566D01*
G01X2751222Y1508623D01*
G01X2749296Y1492758D01*
G01X2749296Y1492758D01*
G01X1924680Y1492758D01*
G01X1925574Y1500124D01*
G01X1923648Y1515989D01*
G01X1917980Y1530932D01*
G01X1908902Y1544085D01*
G01X1896939Y1554683D01*
G01X1882788Y1562110D01*
G01X1867271Y1565935D01*
G01X1851289Y1565935D01*
G01X1835772Y1562110D01*
G01X1821621Y1554683D01*
G01X1809658Y1544085D01*
G01X1800580Y1530932D01*
G01X1794912Y1515989D01*
G01X1792986Y1500124D01*
G01X1792986Y1500124D01*
G01X918246Y1500124D01*
G01X917554Y1505829D01*
G01X911886Y1520772D01*
G01X902808Y1533925D01*
G01X890845Y1544523D01*
G01X876694Y1551950D01*
G01X861177Y1555775D01*
G01X845195Y1555775D01*
G01X829678Y1551950D01*
G01X815527Y1544523D01*
G01X803564Y1533925D01*
G01X794486Y1520772D01*
G01X788818Y1505829D01*
G01X786892Y1489964D01*
G01X786892Y1489964D01*
G01X48260Y1489964D01*
G01X48260Y1584960D01*
G01X2240026Y1584960D01*
G01X2241952Y1569095D01*
G01X2247620Y1554152D01*
G01X2256698Y1540999D01*
G01X2268661Y1530401D01*
G01X2282812Y1522974D01*
G01X2298329Y1519149D01*
G01X2314311Y1519149D01*
G01X2329828Y1522974D01*
G01X2343979Y1530401D01*
G01X2355942Y1540999D01*
G01X2365020Y1554152D01*
G01X2370688Y1569095D01*
G01X2371812Y1578356D01*
G01X2933954Y1578356D01*
G01X2935880Y1562491D01*
G01X2941548Y1547548D01*
G01X2950626Y1534395D01*
G01X2962589Y1523797D01*
G01X2976740Y1516370D01*
G01X2992257Y1512545D01*
G01X3008239Y1512545D01*
G01X3023756Y1516370D01*
G01X3037907Y1523797D01*
G01X3049870Y1534395D01*
G01X3058948Y1547548D01*
G01X3064616Y1562491D01*
G01X3066542Y1578356D01*
G01X3064616Y1594221D01*
G01X3058948Y1609164D01*
G01X3049870Y1622317D01*
G01X3037907Y1632915D01*
G01X3023756Y1640342D01*
G01X3008239Y1644167D01*
G01X2992257Y1644167D01*
G01X2976740Y1640342D01*
G01X2962589Y1632915D01*
G01X2950626Y1622317D01*
G01X2941548Y1609164D01*
G01X2935880Y1594221D01*
G01X2933954Y1578356D01*
G01X2933954Y1578356D01*
G01X2371812Y1578356D01*
G01X2372614Y1584960D01*
G01X2370688Y1600825D01*
G01X2365020Y1615768D01*
G01X2355942Y1628921D01*
G01X2343979Y1639519D01*
G01X2329828Y1646946D01*
G01X2314311Y1650771D01*
G01X2298329Y1650771D01*
G01X2282812Y1646946D01*
G01X2268661Y1639519D01*
G01X2256698Y1628921D01*
G01X2247620Y1615768D01*
G01X2241952Y1600825D01*
G01X2240026Y1584960D01*
G01X2240026Y1584960D01*
G01X48260Y1584960D01*
G01X48260Y1656842D01*
G01X1409700Y1656842D01*
G01X1411626Y1640977D01*
G01X1417294Y1626034D01*
G01X1426372Y1612881D01*
G01X1438335Y1602283D01*
G01X1452486Y1594856D01*
G01X1468003Y1591031D01*
G01X1483985Y1591031D01*
G01X1499502Y1594856D01*
G01X1513653Y1602283D01*
G01X1525616Y1612881D01*
G01X1534694Y1626034D01*
G01X1540362Y1640977D01*
G01X1542288Y1656842D01*
G01X1540362Y1672707D01*
G01X1534694Y1687650D01*
G01X1525616Y1700803D01*
G01X1513653Y1711401D01*
G01X1499502Y1718828D01*
G01X1483985Y1722653D01*
G01X1468003Y1722653D01*
G01X1452486Y1718828D01*
G01X1438335Y1711401D01*
G01X1426372Y1700803D01*
G01X1417294Y1687650D01*
G01X1411626Y1672707D01*
G01X1409700Y1656842D01*
G01X1409700Y1656842D01*
G01X48260Y1656842D01*
G01X48260Y1754886D01*
G01X1726692Y1754886D01*
G01X1728618Y1739021D01*
G01X1734286Y1724078D01*
G01X1743364Y1710925D01*
G01X1755327Y1700327D01*
G01X1769478Y1692900D01*
G01X1784995Y1689075D01*
G01X1800977Y1689075D01*
G01X1816494Y1692900D01*
G01X1830645Y1700327D01*
G01X1842608Y1710925D01*
G01X1851686Y1724078D01*
G01X1856338Y1736344D01*
G01X2365248Y1736344D01*
G01X2367174Y1720479D01*
G01X2372842Y1705536D01*
G01X2381920Y1692383D01*
G01X2393883Y1681785D01*
G01X2408034Y1674358D01*
G01X2423551Y1670533D01*
G01X2439533Y1670533D01*
G01X2455050Y1674358D01*
G01X2469201Y1681785D01*
G01X2481164Y1692383D01*
G01X2490242Y1705536D01*
G01X2495910Y1720479D01*
G01X2497836Y1736344D01*
G01X2495910Y1752209D01*
G01X2494124Y1756918D01*
G01X2610104Y1756918D01*
G01X2612030Y1741053D01*
G01X2617698Y1726110D01*
G01X2626776Y1712957D01*
G01X2638739Y1702359D01*
G01X2652890Y1694932D01*
G01X2668407Y1691107D01*
G01X2684389Y1691107D01*
G01X2699906Y1694932D01*
G01X2714057Y1702359D01*
G01X2726020Y1712957D01*
G01X2735098Y1726110D01*
G01X2740766Y1741053D01*
G01X2740842Y1741678D01*
G01X3778758Y1741678D01*
G01X3780684Y1725813D01*
G01X3786352Y1710870D01*
G01X3795430Y1697717D01*
G01X3807393Y1687119D01*
G01X3821544Y1679692D01*
G01X3837061Y1675867D01*
G01X3853043Y1675867D01*
G01X3868560Y1679692D01*
G01X3882711Y1687119D01*
G01X3894674Y1697717D01*
G01X3903752Y1710870D01*
G01X3909420Y1725813D01*
G01X3911346Y1741678D01*
G01X3909420Y1757543D01*
G01X3903752Y1772486D01*
G01X3894674Y1785639D01*
G01X3882711Y1796237D01*
G01X3868560Y1803664D01*
G01X3853043Y1807489D01*
G01X3837061Y1807489D01*
G01X3821544Y1803664D01*
G01X3807393Y1796237D01*
G01X3795430Y1785639D01*
G01X3786352Y1772486D01*
G01X3780684Y1757543D01*
G01X3778758Y1741678D01*
G01X3778758Y1741678D01*
G01X2740842Y1741678D01*
G01X2742692Y1756918D01*
G01X2740766Y1772783D01*
G01X2735098Y1787726D01*
G01X2726020Y1800879D01*
G01X2714057Y1811477D01*
G01X2709120Y1814068D01*
G01X3558794Y1814068D01*
G01X3560720Y1798203D01*
G01X3566388Y1783260D01*
G01X3575466Y1770107D01*
G01X3587429Y1759509D01*
G01X3601580Y1752082D01*
G01X3617097Y1748257D01*
G01X3633079Y1748257D01*
G01X3648596Y1752082D01*
G01X3662747Y1759509D01*
G01X3674710Y1770107D01*
G01X3683788Y1783260D01*
G01X3689456Y1798203D01*
G01X3691382Y1814068D01*
G01X3689456Y1829933D01*
G01X3683788Y1844876D01*
G01X3674710Y1858029D01*
G01X3662747Y1868627D01*
G01X3648596Y1876054D01*
G01X3633079Y1879879D01*
G01X3617097Y1879879D01*
G01X3601580Y1876054D01*
G01X3587429Y1868627D01*
G01X3575466Y1858029D01*
G01X3566388Y1844876D01*
G01X3560720Y1829933D01*
G01X3558794Y1814068D01*
G01X3558794Y1814068D01*
G01X2709120Y1814068D01*
G01X2699906Y1818904D01*
G01X2684389Y1822729D01*
G01X2668407Y1822729D01*
G01X2652890Y1818904D01*
G01X2638739Y1811477D01*
G01X2626776Y1800879D01*
G01X2617698Y1787726D01*
G01X2612030Y1772783D01*
G01X2610104Y1756918D01*
G01X2610104Y1756918D01*
G01X2494124Y1756918D01*
G01X2490242Y1767152D01*
G01X2481164Y1780305D01*
G01X2469201Y1790903D01*
G01X2455050Y1798330D01*
G01X2439533Y1802155D01*
G01X2423551Y1802155D01*
G01X2408034Y1798330D01*
G01X2393883Y1790903D01*
G01X2381920Y1780305D01*
G01X2372842Y1767152D01*
G01X2367174Y1752209D01*
G01X2365248Y1736344D01*
G01X2365248Y1736344D01*
G01X1856338Y1736344D01*
G01X1857354Y1739021D01*
G01X1859280Y1754886D01*
G01X1857354Y1770751D01*
G01X1851686Y1785694D01*
G01X1842608Y1798847D01*
G01X1830645Y1809445D01*
G01X1816494Y1816872D01*
G01X1800977Y1820697D01*
G01X1784995Y1820697D01*
G01X1769478Y1816872D01*
G01X1755327Y1809445D01*
G01X1743364Y1798847D01*
G01X1734286Y1785694D01*
G01X1728618Y1770751D01*
G01X1726692Y1754886D01*
G01X1726692Y1754886D01*
G01X48260Y1754886D01*
G01X48260Y1996601D01*
G01X1149739Y1996601D01*
G01X1150705Y1980342D01*
G01X1155607Y1964810D01*
G01X1164148Y1950941D01*
G01X1175813Y1939574D01*
G01X1189897Y1931394D01*
G01X1205551Y1926894D01*
G01X1221829Y1926348D01*
G01X1237750Y1929787D01*
G01X1252351Y1937004D01*
G01X1260039Y1922645D01*
G01X1270996Y1910594D01*
G01X1284561Y1901579D01*
G01X1299914Y1896143D01*
G01X1316130Y1894614D01*
G01X1332229Y1897086D01*
G01X1347239Y1903408D01*
G01X1360255Y1913199D01*
G01X1370491Y1925869D01*
G01X1377328Y1940652D01*
G01X1380355Y1956655D01*
G01X1379389Y1972914D01*
G01X1374487Y1988446D01*
G01X1365946Y2002315D01*
G01X1354281Y2013682D01*
G01X1343734Y2019808D01*
G01X1480058Y2019808D01*
G01X1481984Y2003943D01*
G01X1487652Y1989000D01*
G01X1496730Y1975847D01*
G01X1508693Y1965249D01*
G01X1522844Y1957822D01*
G01X1538361Y1953997D01*
G01X1554343Y1953997D01*
G01X1569860Y1957822D01*
G01X1575687Y1960880D01*
G01X1657604Y1960880D01*
G01X1659530Y1945015D01*
G01X1665198Y1930072D01*
G01X1674276Y1916919D01*
G01X1686239Y1906321D01*
G01X1700390Y1898894D01*
G01X1715907Y1895069D01*
G01X1731889Y1895069D01*
G01X1747406Y1898894D01*
G01X1761557Y1906321D01*
G01X1773520Y1916919D01*
G01X1782598Y1930072D01*
G01X1788266Y1945015D01*
G01X1790192Y1960880D01*
G01X1788266Y1976745D01*
G01X1782598Y1991688D01*
G01X1782124Y1992376D01*
G01X1889506Y1992376D01*
G01X1891432Y1976511D01*
G01X1897100Y1961568D01*
G01X1906178Y1948415D01*
G01X1918141Y1937817D01*
G01X1932292Y1930390D01*
G01X1947809Y1926565D01*
G01X1963791Y1926565D01*
G01X1979308Y1930390D01*
G01X1993459Y1937817D01*
G01X2005422Y1948415D01*
G01X2014500Y1961568D01*
G01X2016263Y1966214D01*
G01X2275078Y1966214D01*
G01X2277004Y1950349D01*
G01X2282672Y1935406D01*
G01X2291750Y1922253D01*
G01X2303713Y1911655D01*
G01X2317864Y1904228D01*
G01X2333381Y1900403D01*
G01X2349363Y1900403D01*
G01X2360799Y1903222D01*
G01X3386836Y1903222D01*
G01X3388762Y1887357D01*
G01X3394430Y1872414D01*
G01X3403508Y1859261D01*
G01X3415471Y1848663D01*
G01X3429622Y1841236D01*
G01X3445139Y1837411D01*
G01X3461121Y1837411D01*
G01X3476638Y1841236D01*
G01X3490789Y1848663D01*
G01X3502752Y1859261D01*
G01X3511830Y1872414D01*
G01X3517498Y1887357D01*
G01X3519424Y1903222D01*
G01X3517498Y1919087D01*
G01X3511830Y1934030D01*
G01X3502752Y1947183D01*
G01X3490789Y1957781D01*
G01X3476638Y1965208D01*
G01X3461121Y1969033D01*
G01X3445139Y1969033D01*
G01X3429622Y1965208D01*
G01X3415471Y1957781D01*
G01X3403508Y1947183D01*
G01X3394430Y1934030D01*
G01X3388762Y1919087D01*
G01X3386836Y1903222D01*
G01X3386836Y1903222D01*
G01X2360799Y1903222D01*
G01X2364880Y1904228D01*
G01X2379031Y1911655D01*
G01X2390994Y1922253D01*
G01X2400072Y1935406D01*
G01X2405740Y1950349D01*
G01X2407666Y1966214D01*
G01X2405740Y1982079D01*
G01X2400072Y1997022D01*
G01X2390994Y2010175D01*
G01X2382558Y2017649D01*
G01X2704085Y2017649D01*
G01X2706087Y2001856D01*
G01X2711796Y1986997D01*
G01X2720883Y1973926D01*
G01X2732824Y1963399D01*
G01X2746930Y1956021D01*
G01X2762388Y1952219D01*
G01X2778306Y1952212D01*
G01X2793768Y1955999D01*
G01X2807881Y1963363D01*
G01X2819831Y1973880D01*
G01X2825725Y1959092D01*
G01X2834974Y1946136D01*
G01X2847044Y1935758D01*
G01X2861241Y1928556D01*
G01X2876745Y1924947D01*
G01X2892663Y1925138D01*
G01X2908076Y1929117D01*
G01X2922096Y1936656D01*
G01X2933915Y1947320D01*
G01X2942851Y1960495D01*
G01X2947919Y1974155D01*
G01X3998744Y1974155D01*
G01X4001150Y1958091D01*
G01X4007389Y1943094D01*
G01X4017088Y1930064D01*
G01X4029665Y1919784D01*
G01X4044363Y1912871D01*
G01X4060302Y1909740D01*
G01X4076523Y1910578D01*
G01X4092054Y1915336D01*
G01X4105961Y1923728D01*
G01X4117411Y1935250D01*
G01X4122299Y1921112D01*
G01X4130231Y1908430D01*
G01X4120183Y1896819D01*
G01X4113075Y1883207D01*
G01X4109289Y1868325D01*
G01X4109030Y1852971D01*
G01X4112309Y1837970D01*
G01X4118952Y1824125D01*
G01X4128603Y1812180D01*
G01X4140742Y1802776D01*
G01X4154720Y1796418D01*
G01X4169785Y1793445D01*
G01X4185131Y1794019D01*
G01X4199932Y1798108D01*
G01X4213396Y1805492D01*
G01X4224799Y1815777D01*
G01X4233531Y1828408D01*
G01X4239122Y1842710D01*
G01X4241272Y1857915D01*
G01X4239867Y1873207D01*
G01X4234981Y1887764D01*
G01X4226877Y1900808D01*
G01X4237089Y1912660D01*
G01X4244239Y1926576D01*
G01X4247929Y1941779D01*
G01X4247953Y1957424D01*
G01X4244310Y1972639D01*
G01X4237204Y1986577D01*
G01X4227028Y1998461D01*
G01X4214352Y2007630D01*
G01X4199879Y2013572D01*
G01X4184417Y2015958D01*
G01X4168827Y2014654D01*
G01X4153976Y2009732D01*
G01X4140692Y2001468D01*
G01X4129715Y1990320D01*
G01X4124258Y2005619D01*
G01X4115245Y2019132D01*
G01X4103216Y2030048D01*
G01X4088894Y2037710D01*
G01X4073138Y2041661D01*
G01X4056895Y2041661D01*
G01X4041139Y2037711D01*
G01X4026817Y2030049D01*
G01X4014788Y2019133D01*
G01X4005774Y2005620D01*
G01X4000317Y1990321D01*
G01X4000317Y1990321D01*
G01X3998744Y1974155D01*
G01X2947919Y1974155D01*
G01X2948389Y1975419D01*
G01X2950209Y1991233D01*
G01X2948207Y2007026D01*
G01X2942498Y2021885D01*
G01X2933411Y2034956D01*
G01X2921470Y2045483D01*
G01X2907364Y2052861D01*
G01X2891906Y2056663D01*
G01X2875988Y2056670D01*
G01X2860526Y2052883D01*
G01X2846413Y2045519D01*
G01X2834463Y2035002D01*
G01X2828569Y2049790D01*
G01X2819320Y2062746D01*
G01X2807250Y2073124D01*
G01X2793053Y2080326D01*
G01X2777549Y2083935D01*
G01X2761631Y2083744D01*
G01X2746218Y2079765D01*
G01X2732198Y2072226D01*
G01X2720379Y2061562D01*
G01X2711443Y2048387D01*
G01X2705905Y2033463D01*
G01X2705905Y2033463D01*
G01X2704085Y2017649D01*
G01X2382558Y2017649D01*
G01X2379031Y2020773D01*
G01X2364880Y2028200D01*
G01X2349363Y2032025D01*
G01X2333381Y2032025D01*
G01X2317864Y2028200D01*
G01X2303713Y2020773D01*
G01X2291750Y2010175D01*
G01X2282672Y1997022D01*
G01X2277004Y1982079D01*
G01X2275078Y1966214D01*
G01X2275078Y1966214D01*
G01X2016263Y1966214D01*
G01X2020168Y1976511D01*
G01X2022094Y1992376D01*
G01X2020168Y2008241D01*
G01X2014500Y2023184D01*
G01X2008240Y2032254D01*
G01X2142744Y2032254D01*
G01X2144670Y2016389D01*
G01X2150338Y2001446D01*
G01X2159416Y1988293D01*
G01X2171379Y1977695D01*
G01X2185530Y1970268D01*
G01X2201047Y1966443D01*
G01X2217029Y1966443D01*
G01X2232546Y1970268D01*
G01X2246697Y1977695D01*
G01X2258660Y1988293D01*
G01X2267738Y2001446D01*
G01X2273406Y2016389D01*
G01X2275332Y2032254D01*
G01X2273406Y2048119D01*
G01X2267738Y2063062D01*
G01X2258660Y2076215D01*
G01X2246697Y2086813D01*
G01X2232546Y2094240D01*
G01X2217029Y2098065D01*
G01X2201047Y2098065D01*
G01X2185530Y2094240D01*
G01X2171379Y2086813D01*
G01X2159416Y2076215D01*
G01X2150338Y2063062D01*
G01X2144670Y2048119D01*
G01X2142744Y2032254D01*
G01X2142744Y2032254D01*
G01X2008240Y2032254D01*
G01X2005422Y2036337D01*
G01X1993459Y2046935D01*
G01X1979308Y2054362D01*
G01X1963791Y2058187D01*
G01X1947809Y2058187D01*
G01X1932292Y2054362D01*
G01X1918141Y2046935D01*
G01X1906178Y2036337D01*
G01X1897100Y2023184D01*
G01X1891432Y2008241D01*
G01X1889506Y1992376D01*
G01X1889506Y1992376D01*
G01X1782124Y1992376D01*
G01X1773520Y2004841D01*
G01X1761557Y2015439D01*
G01X1747406Y2022866D01*
G01X1731889Y2026691D01*
G01X1715907Y2026691D01*
G01X1700390Y2022866D01*
G01X1686239Y2015439D01*
G01X1674276Y2004841D01*
G01X1665198Y1991688D01*
G01X1659530Y1976745D01*
G01X1657604Y1960880D01*
G01X1657604Y1960880D01*
G01X1575687Y1960880D01*
G01X1584011Y1965249D01*
G01X1595974Y1975847D01*
G01X1605052Y1989000D01*
G01X1610720Y2003943D01*
G01X1612646Y2019808D01*
G01X1610720Y2035673D01*
G01X1605052Y2050616D01*
G01X1595974Y2063769D01*
G01X1584011Y2074367D01*
G01X1569860Y2081794D01*
G01X1554343Y2085619D01*
G01X1538361Y2085619D01*
G01X1522844Y2081794D01*
G01X1508693Y2074367D01*
G01X1496730Y2063769D01*
G01X1487652Y2050616D01*
G01X1481984Y2035673D01*
G01X1480058Y2019808D01*
G01X1480058Y2019808D01*
G01X1343734Y2019808D01*
G01X1340197Y2021862D01*
G01X1324543Y2026362D01*
G01X1308265Y2026908D01*
G01X1292344Y2023469D01*
G01X1277743Y2016252D01*
G01X1270055Y2030611D01*
G01X1259098Y2042662D01*
G01X1245533Y2051677D01*
G01X1230180Y2057113D01*
G01X1213964Y2058642D01*
G01X1197865Y2056170D01*
G01X1182855Y2049848D01*
G01X1169839Y2040057D01*
G01X1159603Y2027387D01*
G01X1152766Y2012604D01*
G01X1152766Y2012604D01*
G01X1149739Y1996601D01*
G01X48260Y1996601D01*
G01X48260Y2252980D01*
G01X804672Y2252980D01*
G01X806598Y2237115D01*
G01X812266Y2222172D01*
G01X821344Y2209019D01*
G01X833307Y2198421D01*
G01X847458Y2190994D01*
G01X862975Y2187169D01*
G01X878957Y2187169D01*
G01X894474Y2190994D01*
G01X908625Y2198421D01*
G01X920588Y2209019D01*
G01X929666Y2222172D01*
G01X935334Y2237115D01*
G01X937260Y2252980D01*
G01X935334Y2268845D01*
G01X929666Y2283788D01*
G01X924774Y2290877D01*
G01X3337328Y2290877D01*
G01X3340349Y2276275D01*
G01X3346557Y2262718D01*
G01X3355638Y2250892D01*
G01X3367132Y2241393D01*
G01X3367132Y2241393D01*
G01X3380458Y2234704D01*
G01X3394942Y2231163D01*
G01X3409851Y2230948D01*
G01X3424431Y2234071D01*
G01X3437945Y2240373D01*
G01X3442065Y2243582D01*
G01X4200652Y2243582D01*
G01X4202578Y2227717D01*
G01X4208246Y2212774D01*
G01X4217324Y2199621D01*
G01X4229287Y2189023D01*
G01X4243438Y2181596D01*
G01X4258955Y2177771D01*
G01X4274937Y2177771D01*
G01X4290454Y2181596D01*
G01X4304605Y2189023D01*
G01X4316568Y2199621D01*
G01X4325646Y2212774D01*
G01X4331314Y2227717D01*
G01X4333240Y2243582D01*
G01X4331314Y2259447D01*
G01X4325646Y2274390D01*
G01X4316568Y2287543D01*
G01X4309995Y2293366D01*
G01X4537924Y2293366D01*
G01X4539851Y2277501D01*
G01X4545518Y2262558D01*
G01X4554596Y2249405D01*
G01X4566559Y2238807D01*
G01X4580710Y2231380D01*
G01X4596227Y2227555D01*
G01X4612209Y2227555D01*
G01X4627726Y2231380D01*
G01X4641877Y2238807D01*
G01X4653840Y2249405D01*
G01X4662919Y2262558D01*
G01X4668586Y2277501D01*
G01X4670512Y2293366D01*
G01X4668586Y2309231D01*
G01X4662919Y2324174D01*
G01X4653840Y2337327D01*
G01X4641877Y2347925D01*
G01X4627726Y2355352D01*
G01X4612209Y2359177D01*
G01X4596227Y2359177D01*
G01X4580710Y2355352D01*
G01X4566559Y2347925D01*
G01X4554596Y2337327D01*
G01X4545518Y2324174D01*
G01X4539851Y2309231D01*
G01X4537924Y2293366D01*
G01X4537924Y2293366D01*
G01X4309995Y2293366D01*
G01X4304605Y2298141D01*
G01X4290454Y2305568D01*
G01X4274937Y2309393D01*
G01X4258955Y2309393D01*
G01X4243438Y2305568D01*
G01X4229287Y2298141D01*
G01X4217324Y2287543D01*
G01X4208246Y2274390D01*
G01X4202578Y2259447D01*
G01X4200652Y2243582D01*
G01X4200652Y2243582D01*
G01X3442065Y2243582D01*
G01X3449708Y2249536D01*
G01X3459126Y2261096D01*
G01X3465722Y2274468D01*
G01X3469162Y2288976D01*
G01X3469273Y2303887D01*
G01X3482873Y2310000D01*
G01X3494763Y2318998D01*
G01X3504341Y2330426D01*
G01X3511123Y2343705D01*
G01X3514765Y2358164D01*
G01X3515084Y2373071D01*
G01X3512063Y2387673D01*
G01X3505855Y2401230D01*
G01X3496774Y2413056D01*
G01X3485280Y2422555D01*
G01X3471954Y2429244D01*
G01X3457470Y2432785D01*
G01X3455608Y2432812D01*
G01X4126484Y2432812D01*
G01X4128410Y2416947D01*
G01X4134078Y2402004D01*
G01X4143156Y2388851D01*
G01X4155119Y2378253D01*
G01X4169270Y2370826D01*
G01X4184787Y2367001D01*
G01X4200769Y2367001D01*
G01X4216286Y2370826D01*
G01X4230437Y2378253D01*
G01X4242400Y2388851D01*
G01X4251478Y2402004D01*
G01X4257146Y2416947D01*
G01X4259072Y2432812D01*
G01X4257146Y2448677D01*
G01X4253241Y2458974D01*
G01X4376714Y2458974D01*
G01X4378640Y2443109D01*
G01X4384307Y2428166D01*
G01X4393386Y2415013D01*
G01X4405349Y2404415D01*
G01X4419500Y2396988D01*
G01X4435017Y2393163D01*
G01X4450999Y2393163D01*
G01X4466516Y2396988D01*
G01X4480667Y2404415D01*
G01X4492630Y2415013D01*
G01X4501708Y2428166D01*
G01X4507375Y2443109D01*
G01X4509302Y2458974D01*
G01X4507375Y2474839D01*
G01X4501708Y2489782D01*
G01X4492630Y2502935D01*
G01X4480667Y2513533D01*
G01X4466516Y2520960D01*
G01X4450999Y2524785D01*
G01X4435017Y2524785D01*
G01X4419500Y2520960D01*
G01X4405349Y2513533D01*
G01X4393386Y2502935D01*
G01X4384307Y2489782D01*
G01X4378640Y2474839D01*
G01X4376714Y2458974D01*
G01X4376714Y2458974D01*
G01X4253241Y2458974D01*
G01X4251478Y2463620D01*
G01X4242400Y2476773D01*
G01X4230437Y2487371D01*
G01X4216286Y2494798D01*
G01X4200769Y2498623D01*
G01X4184787Y2498623D01*
G01X4169270Y2494798D01*
G01X4155119Y2487371D01*
G01X4143156Y2476773D01*
G01X4134078Y2463620D01*
G01X4128410Y2448677D01*
G01X4126484Y2432812D01*
G01X4126484Y2432812D01*
G01X3455608Y2432812D01*
G01X3442561Y2433000D01*
G01X3427981Y2429877D01*
G01X3414467Y2423575D01*
G01X3402704Y2414412D01*
G01X3393286Y2402852D01*
G01X3386690Y2389480D01*
G01X3383250Y2374972D01*
G01X3383139Y2360061D01*
G01X3369539Y2353948D01*
G01X3357649Y2344950D01*
G01X3348071Y2333522D01*
G01X3341289Y2320243D01*
G01X3337647Y2305784D01*
G01X3337328Y2290877D01*
G01X924774Y2290877D01*
G01X920588Y2296941D01*
G01X908625Y2307539D01*
G01X894474Y2314966D01*
G01X878957Y2318791D01*
G01X862975Y2318791D01*
G01X847458Y2314966D01*
G01X833307Y2307539D01*
G01X821344Y2296941D01*
G01X812266Y2283788D01*
G01X806598Y2268845D01*
G01X804672Y2252980D01*
G01X804672Y2252980D01*
G01X48260Y2252980D01*
G01X48260Y2362962D01*
G01X3009900Y2362962D01*
G01X3011826Y2347097D01*
G01X3017494Y2332154D01*
G01X3026572Y2319001D01*
G01X3038535Y2308403D01*
G01X3052686Y2300976D01*
G01X3068203Y2297151D01*
G01X3084185Y2297151D01*
G01X3099702Y2300976D01*
G01X3113853Y2308403D01*
G01X3125816Y2319001D01*
G01X3134894Y2332154D01*
G01X3140562Y2347097D01*
G01X3142488Y2362962D01*
G01X3140562Y2378827D01*
G01X3134894Y2393770D01*
G01X3125816Y2406923D01*
G01X3113853Y2417521D01*
G01X3099702Y2424948D01*
G01X3084185Y2428773D01*
G01X3068203Y2428773D01*
G01X3052686Y2424948D01*
G01X3038535Y2417521D01*
G01X3026572Y2406923D01*
G01X3017494Y2393770D01*
G01X3011826Y2378827D01*
G01X3009900Y2362962D01*
G01X3009900Y2362962D01*
G01X48260Y2362962D01*
G01X48260Y2685542D01*
G01X1330706Y2685542D01*
G01X1332632Y2669677D01*
G01X1338300Y2654734D01*
G01X1347378Y2641581D01*
G01X1359341Y2630983D01*
G01X1373492Y2623556D01*
G01X1389009Y2619731D01*
G01X1404991Y2619731D01*
G01X1420508Y2623556D01*
G01X1434659Y2630983D01*
G01X1446622Y2641581D01*
G01X1455700Y2654734D01*
G01X1461368Y2669677D01*
G01X1462091Y2675636D01*
G01X2320798Y2675636D01*
G01X2322724Y2659771D01*
G01X2328392Y2644828D01*
G01X2337470Y2631675D01*
G01X2349433Y2621077D01*
G01X2363584Y2613650D01*
G01X2379101Y2609825D01*
G01X2395083Y2609825D01*
G01X2410600Y2613650D01*
G01X2420782Y2618994D01*
G01X3217418Y2618994D01*
G01X3219344Y2603129D01*
G01X3225012Y2588186D01*
G01X3234090Y2575033D01*
G01X3246053Y2564435D01*
G01X3260204Y2557008D01*
G01X3275721Y2553183D01*
G01X3291703Y2553183D01*
G01X3307220Y2557008D01*
G01X3321371Y2564435D01*
G01X3333334Y2575033D01*
G01X3342412Y2588186D01*
G01X3348080Y2603129D01*
G01X3348711Y2608326D01*
G01X4381246Y2608326D01*
G01X4383172Y2592461D01*
G01X4388840Y2577518D01*
G01X4397918Y2564365D01*
G01X4409881Y2553767D01*
G01X4424032Y2546340D01*
G01X4439549Y2542515D01*
G01X4455531Y2542515D01*
G01X4471048Y2546340D01*
G01X4485199Y2553767D01*
G01X4497162Y2564365D01*
G01X4506240Y2577518D01*
G01X4511908Y2592461D01*
G01X4513834Y2608326D01*
G01X4511908Y2624191D01*
G01X4506240Y2639134D01*
G01X4497162Y2652287D01*
G01X4485199Y2662885D01*
G01X4471048Y2670312D01*
G01X4455531Y2674137D01*
G01X4439549Y2674137D01*
G01X4424032Y2670312D01*
G01X4409881Y2662885D01*
G01X4397918Y2652287D01*
G01X4388840Y2639134D01*
G01X4383172Y2624191D01*
G01X4381246Y2608326D01*
G01X4381246Y2608326D01*
G01X3348711Y2608326D01*
G01X3350006Y2618994D01*
G01X3348080Y2634859D01*
G01X3342412Y2649802D01*
G01X3333334Y2662955D01*
G01X3321371Y2673553D01*
G01X3307220Y2680980D01*
G01X3291703Y2684805D01*
G01X3275721Y2684805D01*
G01X3260204Y2680980D01*
G01X3246053Y2673553D01*
G01X3234090Y2662955D01*
G01X3225012Y2649802D01*
G01X3219344Y2634859D01*
G01X3217418Y2618994D01*
G01X3217418Y2618994D01*
G01X2420782Y2618994D01*
G01X2424751Y2621077D01*
G01X2436714Y2631675D01*
G01X2445792Y2644828D01*
G01X2451460Y2659771D01*
G01X2453386Y2675636D01*
G01X2451460Y2691501D01*
G01X2445792Y2706444D01*
G01X2436714Y2719597D01*
G01X2424751Y2730195D01*
G01X2423686Y2730754D01*
G01X2686304Y2730754D01*
G01X2688230Y2714889D01*
G01X2693898Y2699946D01*
G01X2702976Y2686793D01*
G01X2714939Y2676195D01*
G01X2729090Y2668768D01*
G01X2744607Y2664943D01*
G01X2760589Y2664943D01*
G01X2776106Y2668768D01*
G01X2790257Y2676195D01*
G01X2802220Y2686793D01*
G01X2811298Y2699946D01*
G01X2816966Y2714889D01*
G01X2818892Y2730754D01*
G01X2816966Y2746619D01*
G01X2811298Y2761562D01*
G01X2802220Y2774715D01*
G01X2790257Y2785313D01*
G01X2776106Y2792740D01*
G01X2770994Y2794000D01*
G01X3927094Y2794000D01*
G01X3929020Y2778135D01*
G01X3934688Y2763192D01*
G01X3943766Y2750039D01*
G01X3955729Y2739441D01*
G01X3969880Y2732014D01*
G01X3985397Y2728189D01*
G01X4001379Y2728189D01*
G01X4016896Y2732014D01*
G01X4031047Y2739441D01*
G01X4043010Y2750039D01*
G01X4052088Y2763192D01*
G01X4057756Y2778135D01*
G01X4059682Y2794000D01*
G01X4057756Y2809865D01*
G01X4052088Y2824808D01*
G01X4043010Y2837961D01*
G01X4031047Y2848559D01*
G01X4016896Y2855986D01*
G01X4001379Y2859811D01*
G01X3985397Y2859811D01*
G01X3969880Y2855986D01*
G01X3955729Y2848559D01*
G01X3943766Y2837961D01*
G01X3934688Y2824808D01*
G01X3929020Y2809865D01*
G01X3927094Y2794000D01*
G01X3927094Y2794000D01*
G01X2770994Y2794000D01*
G01X2760589Y2796565D01*
G01X2744607Y2796565D01*
G01X2729090Y2792740D01*
G01X2714939Y2785313D01*
G01X2702976Y2774715D01*
G01X2693898Y2761562D01*
G01X2688230Y2746619D01*
G01X2686304Y2730754D01*
G01X2686304Y2730754D01*
G01X2423686Y2730754D01*
G01X2410600Y2737622D01*
G01X2395083Y2741447D01*
G01X2379101Y2741447D01*
G01X2363584Y2737622D01*
G01X2349433Y2730195D01*
G01X2337470Y2719597D01*
G01X2328392Y2706444D01*
G01X2322724Y2691501D01*
G01X2320798Y2675636D01*
G01X2320798Y2675636D01*
G01X1462091Y2675636D01*
G01X1463294Y2685542D01*
G01X1461368Y2701407D01*
G01X1455700Y2716350D01*
G01X1446622Y2729503D01*
G01X1434659Y2740101D01*
G01X1420508Y2747528D01*
G01X1404991Y2751353D01*
G01X1389009Y2751353D01*
G01X1373492Y2747528D01*
G01X1359341Y2740101D01*
G01X1347378Y2729503D01*
G01X1338300Y2716350D01*
G01X1332632Y2701407D01*
G01X1330706Y2685542D01*
G01X1330706Y2685542D01*
G01X48260Y2685542D01*
G01X48260Y3007360D01*
G01X2077466Y3007360D01*
G01X2079392Y2991495D01*
G01X2085060Y2976552D01*
G01X2094138Y2963399D01*
G01X2106101Y2952801D01*
G01X2120252Y2945374D01*
G01X2135769Y2941549D01*
G01X2151751Y2941549D01*
G01X2167268Y2945374D01*
G01X2181419Y2952801D01*
G01X2193382Y2963399D01*
G01X2202460Y2976552D01*
G01X2208128Y2991495D01*
G01X2209067Y2999232D01*
G01X2908808Y2999232D01*
G01X2910734Y2983367D01*
G01X2916402Y2968424D01*
G01X2925480Y2955271D01*
G01X2937443Y2944673D01*
G01X2951594Y2937246D01*
G01X2967111Y2933421D01*
G01X2983093Y2933421D01*
G01X2998610Y2937246D01*
G01X3012761Y2944673D01*
G01X3024724Y2955271D01*
G01X3033802Y2968424D01*
G01X3039470Y2983367D01*
G01X3041396Y2999232D01*
G01X3039470Y3015097D01*
G01X3033802Y3030040D01*
G01X3024724Y3043193D01*
G01X3012761Y3053791D01*
G01X2998610Y3061218D01*
G01X2983093Y3065043D01*
G01X2967111Y3065043D01*
G01X2951594Y3061218D01*
G01X2937443Y3053791D01*
G01X2925480Y3043193D01*
G01X2916402Y3030040D01*
G01X2910734Y3015097D01*
G01X2908808Y2999232D01*
G01X2908808Y2999232D01*
G01X2209067Y2999232D01*
G01X2210054Y3007360D01*
G01X2208128Y3023225D01*
G01X2202460Y3038168D01*
G01X2193382Y3051321D01*
G01X2181419Y3061919D01*
G01X2167268Y3069346D01*
G01X2151751Y3073171D01*
G01X2135769Y3073171D01*
G01X2120252Y3069346D01*
G01X2106101Y3061919D01*
G01X2094138Y3051321D01*
G01X2085060Y3038168D01*
G01X2079392Y3023225D01*
G01X2077466Y3007360D01*
G01X2077466Y3007360D01*
G01X48260Y3007360D01*
G01X48260Y3081274D01*
G01X2799842Y3081274D01*
G01X2801768Y3065409D01*
G01X2807436Y3050466D01*
G01X2816514Y3037313D01*
G01X2828477Y3026715D01*
G01X2842628Y3019288D01*
G01X2858145Y3015463D01*
G01X2874127Y3015463D01*
G01X2889644Y3019288D01*
G01X2903795Y3026715D01*
G01X2915758Y3037313D01*
G01X2924836Y3050466D01*
G01X2930504Y3065409D01*
G01X2932430Y3081274D01*
G01X2930504Y3097139D01*
G01X2924836Y3112082D01*
G01X2915758Y3125235D01*
G01X2903795Y3135833D01*
G01X2889644Y3143260D01*
G01X2888654Y3143504D01*
G01X3162046Y3143504D01*
G01X3163972Y3127639D01*
G01X3169640Y3112696D01*
G01X3178718Y3099543D01*
G01X3190681Y3088945D01*
G01X3204832Y3081518D01*
G01X3220349Y3077693D01*
G01X3236331Y3077693D01*
G01X3251848Y3081518D01*
G01X3265999Y3088945D01*
G01X3277962Y3099543D01*
G01X3287040Y3112696D01*
G01X3292708Y3127639D01*
G01X3294634Y3143504D01*
G01X3294079Y3148076D01*
G01X3490976Y3148076D01*
G01X3492902Y3132211D01*
G01X3498570Y3117268D01*
G01X3507648Y3104115D01*
G01X3519611Y3093517D01*
G01X3533762Y3086090D01*
G01X3549279Y3082265D01*
G01X3565261Y3082265D01*
G01X3580778Y3086090D01*
G01X3594929Y3093517D01*
G01X3606892Y3104115D01*
G01X3615970Y3117268D01*
G01X3621638Y3132211D01*
G01X3623564Y3148076D01*
G01X3621638Y3163941D01*
G01X3615970Y3178884D01*
G01X3606892Y3192037D01*
G01X3594929Y3202635D01*
G01X3580778Y3210062D01*
G01X3565261Y3213887D01*
G01X3549279Y3213887D01*
G01X3533762Y3210062D01*
G01X3519611Y3202635D01*
G01X3507648Y3192037D01*
G01X3498570Y3178884D01*
G01X3492902Y3163941D01*
G01X3490976Y3148076D01*
G01X3490976Y3148076D01*
G01X3294079Y3148076D01*
G01X3292708Y3159369D01*
G01X3287040Y3174312D01*
G01X3277962Y3187465D01*
G01X3265999Y3198063D01*
G01X3251848Y3205490D01*
G01X3236331Y3209315D01*
G01X3220349Y3209315D01*
G01X3204832Y3205490D01*
G01X3190681Y3198063D01*
G01X3178718Y3187465D01*
G01X3169640Y3174312D01*
G01X3163972Y3159369D01*
G01X3162046Y3143504D01*
G01X3162046Y3143504D01*
G01X2888654Y3143504D01*
G01X2874127Y3147085D01*
G01X2858145Y3147085D01*
G01X2842628Y3143260D01*
G01X2828477Y3135833D01*
G01X2816514Y3125235D01*
G01X2807436Y3112082D01*
G01X2801768Y3097139D01*
G01X2799842Y3081274D01*
G01X2799842Y3081274D01*
G01X48260Y3081274D01*
G01X48260Y3322320D01*
G01X2483866Y3322320D01*
G01X2485792Y3306455D01*
G01X2491460Y3291512D01*
G01X2500538Y3278359D01*
G01X2512501Y3267761D01*
G01X2526652Y3260334D01*
G01X2542169Y3256509D01*
G01X2558151Y3256509D01*
G01X2573668Y3260334D01*
G01X2587819Y3267761D01*
G01X2599782Y3278359D01*
G01X2605230Y3286252D01*
G01X2664460Y3286252D01*
G01X2666386Y3270387D01*
G01X2672054Y3255444D01*
G01X2681132Y3242291D01*
G01X2693095Y3231693D01*
G01X2707246Y3224266D01*
G01X2722763Y3220441D01*
G01X2738745Y3220441D01*
G01X2754262Y3224266D01*
G01X2768413Y3231693D01*
G01X2780376Y3242291D01*
G01X2789454Y3255444D01*
G01X2795122Y3270387D01*
G01X2797048Y3286252D01*
G01X2795122Y3302117D01*
G01X2789454Y3317060D01*
G01X2780376Y3330213D01*
G01X2768413Y3340811D01*
G01X2759605Y3345434D01*
G01X3999992Y3345434D01*
G01X4001918Y3329569D01*
G01X4007586Y3314626D01*
G01X4016664Y3301473D01*
G01X4028627Y3290875D01*
G01X4042778Y3283448D01*
G01X4058295Y3279623D01*
G01X4074277Y3279623D01*
G01X4089794Y3283448D01*
G01X4103945Y3290875D01*
G01X4115908Y3301473D01*
G01X4124986Y3314626D01*
G01X4130654Y3329569D01*
G01X4132580Y3345434D01*
G01X4130654Y3361299D01*
G01X4127134Y3370580D01*
G01X4319778Y3370580D01*
G01X4321704Y3354715D01*
G01X4327372Y3339772D01*
G01X4336450Y3326619D01*
G01X4348413Y3316021D01*
G01X4362564Y3308594D01*
G01X4378081Y3304769D01*
G01X4394063Y3304769D01*
G01X4409580Y3308594D01*
G01X4423731Y3316021D01*
G01X4435694Y3326619D01*
G01X4444772Y3339772D01*
G01X4450440Y3354715D01*
G01X4452366Y3370580D01*
G01X4450440Y3386445D01*
G01X4444772Y3401388D01*
G01X4435694Y3414541D01*
G01X4423731Y3425139D01*
G01X4409580Y3432566D01*
G01X4394063Y3436391D01*
G01X4378081Y3436391D01*
G01X4362564Y3432566D01*
G01X4348413Y3425139D01*
G01X4336450Y3414541D01*
G01X4327372Y3401388D01*
G01X4321704Y3386445D01*
G01X4319778Y3370580D01*
G01X4319778Y3370580D01*
G01X4127134Y3370580D01*
G01X4124986Y3376242D01*
G01X4115908Y3389395D01*
G01X4103945Y3399993D01*
G01X4089794Y3407420D01*
G01X4074277Y3411245D01*
G01X4058295Y3411245D01*
G01X4042778Y3407420D01*
G01X4028627Y3399993D01*
G01X4016664Y3389395D01*
G01X4007586Y3376242D01*
G01X4001918Y3361299D01*
G01X3999992Y3345434D01*
G01X3999992Y3345434D01*
G01X2759605Y3345434D01*
G01X2754262Y3348238D01*
G01X2738745Y3352063D01*
G01X2722763Y3352063D01*
G01X2707246Y3348238D01*
G01X2693095Y3340811D01*
G01X2681132Y3330213D01*
G01X2672054Y3317060D01*
G01X2666386Y3302117D01*
G01X2664460Y3286252D01*
G01X2664460Y3286252D01*
G01X2605230Y3286252D01*
G01X2608860Y3291512D01*
G01X2614528Y3306455D01*
G01X2616454Y3322320D01*
G01X2614528Y3338185D01*
G01X2608860Y3353128D01*
G01X2599782Y3366281D01*
G01X2587819Y3376879D01*
G01X2573668Y3384306D01*
G01X2558151Y3388131D01*
G01X2542169Y3388131D01*
G01X2526652Y3384306D01*
G01X2512501Y3376879D01*
G01X2500538Y3366281D01*
G01X2491460Y3353128D01*
G01X2485792Y3338185D01*
G01X2483866Y3322320D01*
G01X2483866Y3322320D01*
G01X48260Y3322320D01*
G01X48260Y3496564D01*
G01X2883662Y3496564D01*
G01X2885588Y3480699D01*
G01X2891256Y3465756D01*
G01X2900334Y3452603D01*
G01X2912297Y3442005D01*
G01X2926448Y3434578D01*
G01X2941965Y3430753D01*
G01X2957947Y3430753D01*
G01X2973464Y3434578D01*
G01X2987615Y3442005D01*
G01X2999578Y3452603D01*
G01X3008656Y3465756D01*
G01X3014324Y3480699D01*
G01X3016250Y3496564D01*
G01X3014324Y3512429D01*
G01X3008656Y3527372D01*
G01X2999578Y3540525D01*
G01X2999026Y3541014D01*
G01X3094736Y3541014D01*
G01X3096662Y3525149D01*
G01X3102330Y3510206D01*
G01X3111408Y3497053D01*
G01X3123371Y3486455D01*
G01X3137522Y3479028D01*
G01X3153039Y3475203D01*
G01X3169021Y3475203D01*
G01X3184538Y3479028D01*
G01X3198689Y3486455D01*
G01X3210652Y3497053D01*
G01X3219730Y3510206D01*
G01X3225398Y3525149D01*
G01X3227324Y3541014D01*
G01X3225398Y3556879D01*
G01X3219730Y3571822D01*
G01X3210652Y3584975D01*
G01X3198689Y3595573D01*
G01X3184538Y3603000D01*
G01X3169021Y3606825D01*
G01X3153039Y3606825D01*
G01X3137522Y3603000D01*
G01X3123371Y3595573D01*
G01X3111408Y3584975D01*
G01X3102330Y3571822D01*
G01X3096662Y3556879D01*
G01X3094736Y3541014D01*
G01X3094736Y3541014D01*
G01X2999026Y3541014D01*
G01X2987615Y3551123D01*
G01X2973464Y3558550D01*
G01X2957947Y3562375D01*
G01X2941965Y3562375D01*
G01X2926448Y3558550D01*
G01X2912297Y3551123D01*
G01X2900334Y3540525D01*
G01X2891256Y3527372D01*
G01X2885588Y3512429D01*
G01X2883662Y3496564D01*
G01X2883662Y3496564D01*
G01X48260Y3496564D01*
G01X48260Y3569716D01*
G01X50546Y3569716D01*
G01X52472Y3553851D01*
G01X58140Y3538908D01*
G01X67218Y3525755D01*
G01X79181Y3515157D01*
G01X93332Y3507730D01*
G01X108849Y3503905D01*
G01X124831Y3503905D01*
G01X140348Y3507730D01*
G01X154499Y3515157D01*
G01X166462Y3525755D01*
G01X175540Y3538908D01*
G01X181208Y3553851D01*
G01X183134Y3569716D01*
G01X181208Y3585581D01*
G01X175540Y3600524D01*
G01X166462Y3613677D01*
G01X154499Y3624275D01*
G01X140348Y3631702D01*
G01X124831Y3635527D01*
G01X108849Y3635527D01*
G01X93332Y3631702D01*
G01X79181Y3624275D01*
G01X67218Y3613677D01*
G01X58140Y3600524D01*
G01X52472Y3585581D01*
G01X50546Y3569716D01*
G01X50546Y3569716D01*
G01X48260Y3569716D01*
G01X48260Y3658870D01*
G01X4268978Y3658870D01*
G01X4270904Y3643005D01*
G01X4276572Y3628062D01*
G01X4285650Y3614909D01*
G01X4297613Y3604311D01*
G01X4311764Y3596884D01*
G01X4327281Y3593059D01*
G01X4343263Y3593059D01*
G01X4358780Y3596884D01*
G01X4372931Y3604311D01*
G01X4384894Y3614909D01*
G01X4393972Y3628062D01*
G01X4399640Y3643005D01*
G01X4401566Y3658870D01*
G01X4399640Y3674735D01*
G01X4393972Y3689678D01*
G01X4384894Y3702831D01*
G01X4372931Y3713429D01*
G01X4364123Y3718052D01*
G01X4406900Y3718052D01*
G01X4408826Y3702187D01*
G01X4414494Y3687244D01*
G01X4423572Y3674091D01*
G01X4435535Y3663493D01*
G01X4449686Y3656066D01*
G01X4465203Y3652241D01*
G01X4481185Y3652241D01*
G01X4486437Y3653536D01*
G01X4802886Y3653536D01*
G01X4804812Y3637671D01*
G01X4810480Y3622728D01*
G01X4819558Y3609575D01*
G01X4831521Y3598977D01*
G01X4845672Y3591550D01*
G01X4861189Y3587725D01*
G01X4877171Y3587725D01*
G01X4892688Y3591550D01*
G01X4906839Y3598977D01*
G01X4918802Y3609575D01*
G01X4927880Y3622728D01*
G01X4933548Y3637671D01*
G01X4935474Y3653536D01*
G01X4933548Y3669401D01*
G01X4927880Y3684344D01*
G01X4918802Y3697497D01*
G01X4906839Y3708095D01*
G01X4892688Y3715522D01*
G01X4877171Y3719347D01*
G01X4861189Y3719347D01*
G01X4845672Y3715522D01*
G01X4831521Y3708095D01*
G01X4819558Y3697497D01*
G01X4810480Y3684344D01*
G01X4804812Y3669401D01*
G01X4802886Y3653536D01*
G01X4802886Y3653536D01*
G01X4486437Y3653536D01*
G01X4496702Y3656066D01*
G01X4510853Y3663493D01*
G01X4522816Y3674091D01*
G01X4531894Y3687244D01*
G01X4537562Y3702187D01*
G01X4539488Y3718052D01*
G01X4537562Y3733917D01*
G01X4531894Y3748860D01*
G01X4522816Y3762013D01*
G01X4510853Y3772611D01*
G01X4496702Y3780038D01*
G01X4481185Y3783863D01*
G01X4465203Y3783863D01*
G01X4449686Y3780038D01*
G01X4435535Y3772611D01*
G01X4423572Y3762013D01*
G01X4414494Y3748860D01*
G01X4408826Y3733917D01*
G01X4406900Y3718052D01*
G01X4406900Y3718052D01*
G01X4364123Y3718052D01*
G01X4358780Y3720856D01*
G01X4343263Y3724681D01*
G01X4327281Y3724681D01*
G01X4311764Y3720856D01*
G01X4297613Y3713429D01*
G01X4285650Y3702831D01*
G01X4276572Y3689678D01*
G01X4270904Y3674735D01*
G01X4268978Y3658870D01*
G01X4268978Y3658870D01*
G01X48260Y3658870D01*
G01X48260Y3822446D01*
G01X255524Y3822446D01*
G01X257450Y3806581D01*
G01X263118Y3791638D01*
G01X272196Y3778485D01*
G01X284159Y3767887D01*
G01X298310Y3760460D01*
G01X313827Y3756635D01*
G01X329809Y3756635D01*
G01X345326Y3760460D01*
G01X357444Y3766820D01*
G01X896620Y3766820D01*
G01X898546Y3750955D01*
G01X904214Y3736012D01*
G01X913292Y3722859D01*
G01X925255Y3712261D01*
G01X939406Y3704834D01*
G01X954923Y3701009D01*
G01X970905Y3701009D01*
G01X986422Y3704834D01*
G01X1000573Y3712261D01*
G01X1012536Y3722859D01*
G01X1021614Y3736012D01*
G01X1027282Y3750955D01*
G01X1029208Y3766820D01*
G01X1027282Y3782685D01*
G01X1021614Y3797628D01*
G01X1012536Y3810781D01*
G01X1000573Y3821379D01*
G01X986925Y3828542D01*
G01X1683766Y3828542D01*
G01X1685692Y3812677D01*
G01X1691360Y3797734D01*
G01X1700438Y3784581D01*
G01X1712401Y3773983D01*
G01X1726552Y3766556D01*
G01X1742069Y3762731D01*
G01X1758051Y3762731D01*
G01X1773568Y3766556D01*
G01X1787719Y3773983D01*
G01X1799682Y3784581D01*
G01X1808760Y3797734D01*
G01X1814428Y3812677D01*
G01X1816354Y3828542D01*
G01X1814428Y3844407D01*
G01X1808760Y3859350D01*
G01X1799682Y3872503D01*
G01X1787719Y3883101D01*
G01X1773568Y3890528D01*
G01X1758051Y3894353D01*
G01X1742069Y3894353D01*
G01X1726552Y3890528D01*
G01X1712401Y3883101D01*
G01X1700438Y3872503D01*
G01X1691360Y3859350D01*
G01X1685692Y3844407D01*
G01X1683766Y3828542D01*
G01X1683766Y3828542D01*
G01X986925Y3828542D01*
G01X986422Y3828806D01*
G01X970905Y3832631D01*
G01X954923Y3832631D01*
G01X939406Y3828806D01*
G01X925255Y3821379D01*
G01X913292Y3810781D01*
G01X904214Y3797628D01*
G01X898546Y3782685D01*
G01X896620Y3766820D01*
G01X896620Y3766820D01*
G01X357444Y3766820D01*
G01X359477Y3767887D01*
G01X371440Y3778485D01*
G01X380518Y3791638D01*
G01X386186Y3806581D01*
G01X388112Y3822446D01*
G01X386186Y3838311D01*
G01X380518Y3853254D01*
G01X371440Y3866407D01*
G01X359477Y3877005D01*
G01X345326Y3884432D01*
G01X329809Y3888257D01*
G01X313827Y3888257D01*
G01X298310Y3884432D01*
G01X284159Y3877005D01*
G01X272196Y3866407D01*
G01X263118Y3853254D01*
G01X257450Y3838311D01*
G01X255524Y3822446D01*
G01X255524Y3822446D01*
G01X48260Y3822446D01*
G01X48260Y3945128D01*
G01X1150366Y3945128D01*
G01X1152292Y3929263D01*
G01X1157960Y3914320D01*
G01X1167038Y3901167D01*
G01X1179001Y3890569D01*
G01X1193152Y3883142D01*
G01X1208669Y3879317D01*
G01X1224651Y3879317D01*
G01X1240168Y3883142D01*
G01X1254319Y3890569D01*
G01X1266282Y3901167D01*
G01X1275360Y3914320D01*
G01X1281028Y3929263D01*
G01X1282954Y3945128D01*
G01X1281028Y3960993D01*
G01X1279820Y3964178D01*
G01X1766316Y3964178D01*
G01X1768242Y3948313D01*
G01X1773910Y3933370D01*
G01X1782988Y3920217D01*
G01X1794951Y3909619D01*
G01X1809102Y3902192D01*
G01X1824619Y3898367D01*
G01X1840601Y3898367D01*
G01X1856118Y3902192D01*
G01X1870269Y3909619D01*
G01X1875086Y3913886D01*
G01X2089912Y3913886D01*
G01X2091838Y3898021D01*
G01X2097506Y3883078D01*
G01X2106584Y3869925D01*
G01X2118547Y3859327D01*
G01X2132698Y3851900D01*
G01X2148215Y3848075D01*
G01X2164197Y3848075D01*
G01X2179714Y3851900D01*
G01X2193865Y3859327D01*
G01X2205828Y3869925D01*
G01X2214906Y3883078D01*
G01X2218210Y3891788D01*
G01X4426712Y3891788D01*
G01X4428638Y3875923D01*
G01X4434306Y3860980D01*
G01X4443384Y3847827D01*
G01X4455347Y3837229D01*
G01X4469498Y3829802D01*
G01X4485015Y3825977D01*
G01X4500997Y3825977D01*
G01X4516514Y3829802D01*
G01X4530665Y3837229D01*
G01X4542628Y3847827D01*
G01X4551706Y3860980D01*
G01X4557374Y3875923D01*
G01X4559300Y3891788D01*
G01X4557374Y3907653D01*
G01X4551706Y3922596D01*
G01X4542628Y3935749D01*
G01X4530665Y3946347D01*
G01X4516514Y3953774D01*
G01X4500997Y3957599D01*
G01X4485015Y3957599D01*
G01X4469498Y3953774D01*
G01X4455347Y3946347D01*
G01X4443384Y3935749D01*
G01X4434306Y3922596D01*
G01X4428638Y3907653D01*
G01X4426712Y3891788D01*
G01X4426712Y3891788D01*
G01X2218210Y3891788D01*
G01X2220574Y3898021D01*
G01X2222500Y3913886D01*
G01X2220574Y3929751D01*
G01X2214906Y3944694D01*
G01X2205828Y3957847D01*
G01X2193865Y3968445D01*
G01X2179714Y3975872D01*
G01X2164197Y3979697D01*
G01X2148215Y3979697D01*
G01X2132698Y3975872D01*
G01X2118547Y3968445D01*
G01X2106584Y3957847D01*
G01X2097506Y3944694D01*
G01X2091838Y3929751D01*
G01X2089912Y3913886D01*
G01X2089912Y3913886D01*
G01X1875086Y3913886D01*
G01X1882232Y3920217D01*
G01X1891310Y3933370D01*
G01X1896978Y3948313D01*
G01X1898904Y3964178D01*
G01X1896978Y3980043D01*
G01X1891310Y3994986D01*
G01X1882232Y4008139D01*
G01X1870269Y4018737D01*
G01X1856118Y4026164D01*
G01X1840601Y4029989D01*
G01X1824619Y4029989D01*
G01X1809102Y4026164D01*
G01X1794951Y4018737D01*
G01X1782988Y4008139D01*
G01X1773910Y3994986D01*
G01X1768242Y3980043D01*
G01X1766316Y3964178D01*
G01X1766316Y3964178D01*
G01X1279820Y3964178D01*
G01X1275360Y3975936D01*
G01X1266282Y3989089D01*
G01X1254319Y3999687D01*
G01X1240168Y4007114D01*
G01X1224651Y4010939D01*
G01X1208669Y4010939D01*
G01X1193152Y4007114D01*
G01X1179001Y3999687D01*
G01X1167038Y3989089D01*
G01X1157960Y3975936D01*
G01X1152292Y3960993D01*
G01X1150366Y3945128D01*
G01X1150366Y3945128D01*
G01X48260Y3945128D01*
G01X48260Y4060444D01*
G01X255524Y4060444D01*
G01X257450Y4044579D01*
G01X263118Y4029636D01*
G01X272196Y4016483D01*
G01X284159Y4005885D01*
G01X298310Y3998458D01*
G01X313827Y3994633D01*
G01X329809Y3994633D01*
G01X345326Y3998458D01*
G01X359477Y4005885D01*
G01X371440Y4016483D01*
G01X380518Y4029636D01*
G01X385845Y4043680D01*
G01X2948432Y4043680D01*
G01X2950358Y4027815D01*
G01X2956026Y4012872D01*
G01X2965104Y3999719D01*
G01X2977067Y3989121D01*
G01X2991218Y3981694D01*
G01X3006735Y3977869D01*
G01X3022717Y3977869D01*
G01X3038234Y3981694D01*
G01X3052385Y3989121D01*
G01X3064348Y3999719D01*
G01X3073426Y4012872D01*
G01X3079094Y4027815D01*
G01X3081020Y4043680D01*
G01X3080835Y4045204D01*
G01X3893312Y4045204D01*
G01X3895238Y4029339D01*
G01X3900906Y4014396D01*
G01X3909984Y4001243D01*
G01X3921947Y3990645D01*
G01X3936098Y3983218D01*
G01X3951615Y3979393D01*
G01X3967597Y3979393D01*
G01X3983114Y3983218D01*
G01X3997265Y3990645D01*
G01X4009228Y4001243D01*
G01X4018306Y4014396D01*
G01X4023974Y4029339D01*
G01X4025900Y4045204D01*
G01X4023974Y4061069D01*
G01X4018306Y4076012D01*
G01X4009228Y4089165D01*
G01X3997265Y4099763D01*
G01X3983114Y4107190D01*
G01X3967597Y4111015D01*
G01X3951615Y4111015D01*
G01X3936098Y4107190D01*
G01X3921947Y4099763D01*
G01X3909984Y4089165D01*
G01X3900906Y4076012D01*
G01X3895238Y4061069D01*
G01X3893312Y4045204D01*
G01X3893312Y4045204D01*
G01X3080835Y4045204D01*
G01X3079094Y4059545D01*
G01X3073426Y4074488D01*
G01X3064348Y4087641D01*
G01X3052385Y4098239D01*
G01X3038234Y4105666D01*
G01X3022717Y4109491D01*
G01X3006735Y4109491D01*
G01X2991218Y4105666D01*
G01X2977067Y4098239D01*
G01X2965104Y4087641D01*
G01X2956026Y4074488D01*
G01X2950358Y4059545D01*
G01X2948432Y4043680D01*
G01X2948432Y4043680D01*
G01X385845Y4043680D01*
G01X386186Y4044579D01*
G01X388112Y4060444D01*
G01X386186Y4076309D01*
G01X380518Y4091252D01*
G01X371440Y4104405D01*
G01X359477Y4115003D01*
G01X345345Y4122420D01*
G01X539750Y4122420D01*
G01X541676Y4106555D01*
G01X547344Y4091612D01*
G01X556422Y4078459D01*
G01X568385Y4067861D01*
G01X582536Y4060434D01*
G01X598053Y4056609D01*
G01X614035Y4056609D01*
G01X629552Y4060434D01*
G01X643703Y4067861D01*
G01X655666Y4078459D01*
G01X664744Y4091612D01*
G01X670412Y4106555D01*
G01X672338Y4122420D01*
G01X670412Y4138285D01*
G01X668433Y4143502D01*
G01X1938274Y4143502D01*
G01X1940200Y4127637D01*
G01X1945868Y4112694D01*
G01X1954946Y4099541D01*
G01X1966909Y4088943D01*
G01X1981060Y4081516D01*
G01X1996577Y4077691D01*
G01X2012559Y4077691D01*
G01X2028076Y4081516D01*
G01X2042227Y4088943D01*
G01X2054190Y4099541D01*
G01X2063268Y4112694D01*
G01X2063971Y4114546D01*
G01X2252472Y4114546D01*
G01X2254398Y4098681D01*
G01X2260066Y4083738D01*
G01X2269144Y4070585D01*
G01X2281107Y4059987D01*
G01X2295258Y4052560D01*
G01X2310775Y4048735D01*
G01X2326757Y4048735D01*
G01X2342274Y4052560D01*
G01X2356425Y4059987D01*
G01X2368388Y4070585D01*
G01X2377466Y4083738D01*
G01X2383134Y4098681D01*
G01X2385060Y4114546D01*
G01X2383134Y4130411D01*
G01X2377466Y4145354D01*
G01X2368388Y4158507D01*
G01X2356425Y4169105D01*
G01X2342274Y4176532D01*
G01X2326757Y4180357D01*
G01X2310775Y4180357D01*
G01X2295258Y4176532D01*
G01X2281107Y4169105D01*
G01X2269144Y4158507D01*
G01X2260066Y4145354D01*
G01X2254398Y4130411D01*
G01X2252472Y4114546D01*
G01X2252472Y4114546D01*
G01X2063971Y4114546D01*
G01X2068936Y4127637D01*
G01X2070862Y4143502D01*
G01X2068936Y4159367D01*
G01X2063268Y4174310D01*
G01X2054190Y4187463D01*
G01X2042227Y4198061D01*
G01X2028076Y4205488D01*
G01X2012559Y4209313D01*
G01X1996577Y4209313D01*
G01X1981060Y4205488D01*
G01X1966909Y4198061D01*
G01X1954946Y4187463D01*
G01X1945868Y4174310D01*
G01X1940200Y4159367D01*
G01X1938274Y4143502D01*
G01X1938274Y4143502D01*
G01X668433Y4143502D01*
G01X664744Y4153228D01*
G01X655666Y4166381D01*
G01X643703Y4176979D01*
G01X629552Y4184406D01*
G01X614035Y4188231D01*
G01X598053Y4188231D01*
G01X582536Y4184406D01*
G01X568385Y4176979D01*
G01X556422Y4166381D01*
G01X547344Y4153228D01*
G01X541676Y4138285D01*
G01X539750Y4122420D01*
G01X539750Y4122420D01*
G01X345345Y4122420D01*
G01X345326Y4122430D01*
G01X329809Y4126255D01*
G01X313827Y4126255D01*
G01X298310Y4122430D01*
G01X284159Y4115003D01*
G01X272196Y4104405D01*
G01X263118Y4091252D01*
G01X257450Y4076309D01*
G01X255524Y4060444D01*
G01X255524Y4060444D01*
G01X48260Y4060444D01*
G01X48260Y4071581D01*
G01X62414Y4065010D01*
G01X77711Y4061930D01*
G01X93305Y4062511D01*
G01X108331Y4066721D01*
G01X121957Y4074326D01*
G01X133428Y4084906D01*
G01X142107Y4097874D01*
G01X147515Y4112512D01*
G01X149352Y4128008D01*
G01X147515Y4143504D01*
G01X142107Y4158142D01*
G01X133428Y4171110D01*
G01X121957Y4181690D01*
G01X108331Y4189295D01*
G01X93305Y4193505D01*
G01X77711Y4194086D01*
G01X62414Y4191006D01*
G01X48260Y4184435D01*
G01X48260Y4301257D01*
G01X355248Y4301257D01*
G01X358314Y4285391D01*
G01X365128Y4270738D01*
G01X375284Y4258168D01*
G01X388180Y4248430D01*
G01X403049Y4242101D01*
G01X419007Y4239557D01*
G01X435107Y4240949D01*
G01X450391Y4246196D01*
G01X463952Y4254984D01*
G01X474984Y4266793D01*
G01X481278Y4251909D01*
G01X490986Y4238991D01*
G01X503531Y4228805D01*
G01X518168Y4221957D01*
G01X534027Y4218853D01*
G01X550166Y4219679D01*
G01X565625Y4224385D01*
G01X579487Y4232691D01*
G01X590927Y4244104D01*
G01X599266Y4257946D01*
G01X603900Y4273042D01*
G01X2124456Y4273042D01*
G01X2126382Y4257177D01*
G01X2132050Y4242234D01*
G01X2141128Y4229081D01*
G01X2153091Y4218483D01*
G01X2167242Y4211056D01*
G01X2182759Y4207231D01*
G01X2198741Y4207231D01*
G01X2214258Y4211056D01*
G01X2228409Y4218483D01*
G01X2240372Y4229081D01*
G01X2249450Y4242234D01*
G01X2255118Y4257177D01*
G01X2256859Y4271518D01*
G01X3199892Y4271518D01*
G01X3201818Y4255653D01*
G01X3207486Y4240710D01*
G01X3216564Y4227557D01*
G01X3228527Y4216959D01*
G01X3242678Y4209532D01*
G01X3258195Y4205707D01*
G01X3274177Y4205707D01*
G01X3289694Y4209532D01*
G01X3303845Y4216959D01*
G01X3315808Y4227557D01*
G01X3324886Y4240710D01*
G01X3330554Y4255653D01*
G01X3332480Y4271518D01*
G01X3330554Y4287383D01*
G01X3324886Y4302326D01*
G01X3315808Y4315479D01*
G01X3303845Y4326077D01*
G01X3289694Y4333504D01*
G01X3274177Y4337329D01*
G01X3258195Y4337329D01*
G01X3242678Y4333504D01*
G01X3228527Y4326077D01*
G01X3216564Y4315479D01*
G01X3207486Y4302326D01*
G01X3201818Y4287383D01*
G01X3199892Y4271518D01*
G01X3199892Y4271518D01*
G01X2256859Y4271518D01*
G01X2257044Y4273042D01*
G01X2255118Y4288907D01*
G01X2249450Y4303850D01*
G01X2240372Y4317003D01*
G01X2228409Y4327601D01*
G01X2214258Y4335028D01*
G01X2198741Y4338853D01*
G01X2182759Y4338853D01*
G01X2167242Y4335028D01*
G01X2153091Y4327601D01*
G01X2141128Y4317003D01*
G01X2132050Y4303850D01*
G01X2126382Y4288907D01*
G01X2124456Y4273042D01*
G01X2124456Y4273042D01*
G01X603900Y4273042D01*
G01X604008Y4273395D01*
G01X604872Y4289531D01*
G01X601806Y4305397D01*
G01X594992Y4320050D01*
G01X584836Y4332620D01*
G01X571940Y4342358D01*
G01X557071Y4348687D01*
G01X541113Y4351231D01*
G01X525013Y4349839D01*
G01X509729Y4344592D01*
G01X496168Y4335804D01*
G01X485136Y4323995D01*
G01X478842Y4338879D01*
G01X469134Y4351797D01*
G01X456589Y4361983D01*
G01X441952Y4368831D01*
G01X426093Y4371935D01*
G01X409954Y4371109D01*
G01X394495Y4366403D01*
G01X380633Y4358097D01*
G01X369193Y4346684D01*
G01X360854Y4332842D01*
G01X356112Y4317393D01*
G01X356112Y4317393D01*
G01X355248Y4301257D01*
G01X48260Y4301257D01*
G01X48260Y4577386D01*
G01X60318Y4567090D01*
G01X74475Y4559952D01*
G01X89923Y4556380D01*
G01X105777Y4556578D01*
G01X121131Y4560535D01*
G01X135105Y4568024D01*
G01X146902Y4578618D01*
G01X155846Y4591709D01*
G01X161426Y4606551D01*
G01X162455Y4615092D01*
G01X396415Y4615092D01*
G01X396536Y4599035D01*
G01X400515Y4583477D01*
G01X408117Y4569333D01*
G01X400454Y4555031D01*
G01X396494Y4539296D01*
G01X396475Y4523070D01*
G01X400398Y4507326D01*
G01X408028Y4493006D01*
G01X400465Y4478860D01*
G01X396521Y4463311D01*
G01X396427Y4447271D01*
G01X400189Y4431677D01*
G01X407586Y4417443D01*
G01X418185Y4405403D01*
G01X431366Y4396261D01*
G01X446357Y4390553D01*
G01X462280Y4388612D01*
G01X462280Y4388612D01*
G01X478203Y4390553D01*
G01X493194Y4396261D01*
G01X506375Y4405403D01*
G01X516974Y4417443D01*
G01X524371Y4431677D01*
G01X528133Y4447271D01*
G01X528039Y4463311D01*
G01X524095Y4478860D01*
G01X516532Y4493006D01*
G01X524162Y4507326D01*
G01X528085Y4523070D01*
G01X528066Y4539296D01*
G01X524106Y4555031D01*
G01X516443Y4569333D01*
G01X524045Y4583477D01*
G01X528024Y4599035D01*
G01X528060Y4603904D01*
G01X571815Y4603904D01*
G01X575350Y4588090D01*
G01X582617Y4573606D01*
G01X593181Y4561318D01*
G01X606410Y4551959D01*
G01X621514Y4546090D01*
G01X621514Y4546090D01*
G01X637591Y4544060D01*
G01X653680Y4545991D01*
G01X668819Y4551768D01*
G01X682106Y4561045D01*
G01X692744Y4573268D01*
G01X700100Y4587707D01*
G01X703733Y4603499D01*
G01X703426Y4619700D01*
G01X701902Y4625340D01*
G01X2331212Y4625340D01*
G01X2333138Y4609475D01*
G01X2338806Y4594532D01*
G01X2347884Y4581379D01*
G01X2359847Y4570781D01*
G01X2373998Y4563354D01*
G01X2389515Y4559529D01*
G01X2405497Y4559529D01*
G01X2421014Y4563354D01*
G01X2435165Y4570781D01*
G01X2445716Y4580128D01*
G01X3772662Y4580128D01*
G01X3774588Y4564263D01*
G01X3780256Y4549320D01*
G01X3789334Y4536167D01*
G01X3801297Y4525569D01*
G01X3815448Y4518142D01*
G01X3830965Y4514317D01*
G01X3846947Y4514317D01*
G01X3862464Y4518142D01*
G01X3876615Y4525569D01*
G01X3888578Y4536167D01*
G01X3897656Y4549320D01*
G01X3903324Y4564263D01*
G01X3905250Y4580128D01*
G01X3903324Y4595993D01*
G01X3897656Y4610936D01*
G01X3888578Y4624089D01*
G01X3876615Y4634687D01*
G01X3862464Y4642114D01*
G01X3846947Y4645939D01*
G01X3830965Y4645939D01*
G01X3815448Y4642114D01*
G01X3801297Y4634687D01*
G01X3789334Y4624089D01*
G01X3780256Y4610936D01*
G01X3774588Y4595993D01*
G01X3772662Y4580128D01*
G01X3772662Y4580128D01*
G01X2445716Y4580128D01*
G01X2447128Y4581379D01*
G01X2456206Y4594532D01*
G01X2461874Y4609475D01*
G01X2463800Y4625340D01*
G01X2461874Y4641205D01*
G01X2456206Y4656148D01*
G01X2447128Y4669301D01*
G01X2435165Y4679899D01*
G01X2421014Y4687326D01*
G01X2405497Y4691151D01*
G01X2389515Y4691151D01*
G01X2373998Y4687326D01*
G01X2359847Y4679899D01*
G01X2347884Y4669301D01*
G01X2338806Y4656148D01*
G01X2333138Y4641205D01*
G01X2331212Y4625340D01*
G01X2331212Y4625340D01*
G01X701902Y4625340D01*
G01X699198Y4635344D01*
G01X710364Y4647087D01*
G01X718347Y4661188D01*
G01X722671Y4676805D01*
G01X723077Y4693004D01*
G01X719542Y4708818D01*
G01X712275Y4723302D01*
G01X701711Y4735590D01*
G01X688482Y4744949D01*
G01X673378Y4750818D01*
G01X657301Y4752848D01*
G01X641212Y4750917D01*
G01X626073Y4745140D01*
G01X612786Y4735863D01*
G01X602148Y4723640D01*
G01X594792Y4709201D01*
G01X591159Y4693409D01*
G01X591466Y4677208D01*
G01X595694Y4661564D01*
G01X584528Y4649821D01*
G01X576545Y4635720D01*
G01X572221Y4620103D01*
G01X571815Y4603904D01*
G01X528060Y4603904D01*
G01X528145Y4615092D01*
G01X524401Y4630708D01*
G01X517013Y4644966D01*
G01X506414Y4657028D01*
G01X493225Y4666189D01*
G01X478220Y4671909D01*
G01X462280Y4673854D01*
G01X446340Y4671909D01*
G01X431335Y4666189D01*
G01X418146Y4657028D01*
G01X407547Y4644966D01*
G01X400159Y4630708D01*
G01X396415Y4615092D01*
G01X162455Y4615092D01*
G01X163322Y4622292D01*
G01X161426Y4638033D01*
G01X155846Y4652875D01*
G01X146902Y4665966D01*
G01X135105Y4676560D01*
G01X121131Y4684049D01*
G01X105777Y4688006D01*
G01X89923Y4688204D01*
G01X74475Y4684632D01*
G01X60318Y4677494D01*
G01X48260Y4667198D01*
G01X48260Y4757420D01*
G01X2836926Y4757420D01*
G01X2838852Y4741555D01*
G01X2844520Y4726612D01*
G01X2853598Y4713459D01*
G01X2865561Y4702861D01*
G01X2879712Y4695434D01*
G01X2895229Y4691609D01*
G01X2911211Y4691609D01*
G01X2926728Y4695434D01*
G01X2937394Y4701032D01*
G01X3890772Y4701032D01*
G01X3892698Y4685167D01*
G01X3898366Y4670224D01*
G01X3907444Y4657071D01*
G01X3919407Y4646473D01*
G01X3933558Y4639046D01*
G01X3949075Y4635221D01*
G01X3965057Y4635221D01*
G01X3980574Y4639046D01*
G01X3994725Y4646473D01*
G01X4006688Y4657071D01*
G01X4015766Y4670224D01*
G01X4021434Y4685167D01*
G01X4023360Y4701032D01*
G01X4021434Y4716897D01*
G01X4015766Y4731840D01*
G01X4006688Y4744993D01*
G01X3994725Y4755591D01*
G01X3980574Y4763018D01*
G01X3965057Y4766843D01*
G01X3949075Y4766843D01*
G01X3933558Y4763018D01*
G01X3919407Y4755591D01*
G01X3907444Y4744993D01*
G01X3898366Y4731840D01*
G01X3892698Y4716897D01*
G01X3890772Y4701032D01*
G01X3890772Y4701032D01*
G01X2937394Y4701032D01*
G01X2940879Y4702861D01*
G01X2952842Y4713459D01*
G01X2961920Y4726612D01*
G01X2967588Y4741555D01*
G01X2969514Y4757420D01*
G01X2967588Y4773285D01*
G01X2961920Y4788228D01*
G01X2952842Y4801381D01*
G01X2940879Y4811979D01*
G01X2926728Y4819406D01*
G01X2911211Y4823231D01*
G01X2895229Y4823231D01*
G01X2879712Y4819406D01*
G01X2865561Y4811979D01*
G01X2853598Y4801381D01*
G01X2844520Y4788228D01*
G01X2838852Y4773285D01*
G01X2836926Y4757420D01*
G01X2836926Y4757420D01*
G01X48260Y4757420D01*
G01X48260Y4965700D01*
G01X2074926Y4965700D01*
G01X2076852Y4949835D01*
G01X2082520Y4934892D01*
G01X2091598Y4921739D01*
G01X2103561Y4911141D01*
G01X2117712Y4903714D01*
G01X2133229Y4899889D01*
G01X2149211Y4899889D01*
G01X2164728Y4903714D01*
G01X2178879Y4911141D01*
G01X2180541Y4912613D01*
G01X2515909Y4912613D01*
G01X2518231Y4897366D01*
G01X2518231Y4897366D01*
G01X2524013Y4883067D01*
G01X2532942Y4870492D01*
G01X2544535Y4860320D01*
G01X2558165Y4853102D01*
G01X2573094Y4849229D01*
G01X2588513Y4848911D01*
G01X2603590Y4852164D01*
G01X2617506Y4858812D01*
G01X2629510Y4868496D01*
G01X2638951Y4880692D01*
G01X2645318Y4894739D01*
G01X2648267Y4909878D01*
G01X2658527Y4898362D01*
G01X2671170Y4889529D01*
G01X2685512Y4883856D01*
G01X2700776Y4881650D01*
G01X2716137Y4883031D01*
G01X2730763Y4887924D01*
G01X2743863Y4896065D01*
G01X2754727Y4907012D01*
G01X2762768Y4920173D01*
G01X2767550Y4934836D01*
G01X2768485Y4946204D01*
G01X2783859Y4946204D01*
G01X2785301Y4930777D01*
G01X2785301Y4930777D01*
G01X2790284Y4916107D01*
G01X2798537Y4902993D01*
G01X2809608Y4892154D01*
G01X2822892Y4884180D01*
G01X2837665Y4879507D01*
G01X2853118Y4878391D01*
G01X2868409Y4880893D01*
G01X2882701Y4886875D01*
G01X2895215Y4896011D01*
G01X2905266Y4907803D01*
G01X2917750Y4901675D01*
G01X2931237Y4898287D01*
G01X2945134Y4897786D01*
G01X2958830Y4900196D01*
G01X2971722Y4905410D01*
G01X2983243Y4913198D01*
G01X2997747Y4905744D01*
G01X3013633Y4902056D01*
G01X3029938Y4902358D01*
G01X3045677Y4906631D01*
G01X3059895Y4914617D01*
G01X3071734Y4925833D01*
G01X3080477Y4939599D01*
G01X3085594Y4955084D01*
G01X3086777Y4971349D01*
G01X3083952Y4987411D01*
G01X3077292Y5002297D01*
G01X3067200Y5015107D01*
G01X3054285Y5025065D01*
G01X3039330Y5031570D01*
G01X3023240Y5034226D01*
G01X3006988Y5032874D01*
G01X2991558Y5027596D01*
G01X2977883Y5018710D01*
G01X2964674Y5025674D01*
G01X2950242Y5029505D01*
G01X2935318Y5030009D01*
G01X2920659Y5027159D01*
G01X2907011Y5021101D01*
G01X2895064Y5012143D01*
G01X2885426Y5000737D01*
G01X2871436Y5007396D01*
G01X2856283Y5010626D01*
G01X2840793Y5010251D01*
G01X2825814Y5006290D01*
G01X2812163Y4998961D01*
G01X2800587Y4988663D01*
G01X2791716Y4975959D01*
G01X2786037Y4961544D01*
G01X2783859Y4946204D01*
G01X2768485Y4946204D01*
G01X2768815Y4950207D01*
G01X2766493Y4965454D01*
G01X2760711Y4979753D01*
G01X2751782Y4992328D01*
G01X2740189Y5002500D01*
G01X2726559Y5009718D01*
G01X2711630Y5013591D01*
G01X2696211Y5013909D01*
G01X2681134Y5010656D01*
G01X2667218Y5004008D01*
G01X2655214Y4994324D01*
G01X2645773Y4982128D01*
G01X2639406Y4968081D01*
G01X2636457Y4952942D01*
G01X2626197Y4964458D01*
G01X2613554Y4973291D01*
G01X2599212Y4978964D01*
G01X2583948Y4981170D01*
G01X2568587Y4979789D01*
G01X2553961Y4974896D01*
G01X2540861Y4966755D01*
G01X2529997Y4955808D01*
G01X2521956Y4942647D01*
G01X2517174Y4927984D01*
G01X2515909Y4912613D01*
G01X2180541Y4912613D01*
G01X2190842Y4921739D01*
G01X2199920Y4934892D01*
G01X2205588Y4949835D01*
G01X2207514Y4965700D01*
G01X2205588Y4981565D01*
G01X2199920Y4996508D01*
G01X2190855Y5009642D01*
G01X2243074Y5009642D01*
G01X2245000Y4993777D01*
G01X2250668Y4978834D01*
G01X2259746Y4965681D01*
G01X2271709Y4955083D01*
G01X2285860Y4947656D01*
G01X2301377Y4943831D01*
G01X2317359Y4943831D01*
G01X2332876Y4947656D01*
G01X2347027Y4955083D01*
G01X2358990Y4965681D01*
G01X2368068Y4978834D01*
G01X2373736Y4993777D01*
G01X2375662Y5009642D01*
G01X2373736Y5025507D01*
G01X2368068Y5040450D01*
G01X2358990Y5053603D01*
G01X2347027Y5064201D01*
G01X2332876Y5071628D01*
G01X2317359Y5075453D01*
G01X2301377Y5075453D01*
G01X2285860Y5071628D01*
G01X2271709Y5064201D01*
G01X2259746Y5053603D01*
G01X2250668Y5040450D01*
G01X2245000Y5025507D01*
G01X2243074Y5009642D01*
G01X2243074Y5009642D01*
G01X2190855Y5009642D01*
G01X2190842Y5009661D01*
G01X2178879Y5020259D01*
G01X2164728Y5027686D01*
G01X2149211Y5031511D01*
G01X2133229Y5031511D01*
G01X2117712Y5027686D01*
G01X2103561Y5020259D01*
G01X2091598Y5009661D01*
G01X2082520Y4996508D01*
G01X2076852Y4981565D01*
G01X2074926Y4965700D01*
G01X2074926Y4965700D01*
G01X48260Y4965700D01*
G01X48260Y5094658D01*
G01X1859785Y5094658D01*
G01X1860164Y5079772D01*
G01X1863855Y5065347D01*
G01X1870673Y5052109D01*
G01X1880273Y5040727D01*
G01X1892172Y5031775D01*
G01X1905768Y5025704D01*
G01X1920377Y5022820D01*
G01X1935260Y5023270D01*
G01X1941951Y5009968D01*
G01X1951442Y4998494D01*
G01X1963254Y4989428D01*
G01X1976791Y4983227D01*
G01X1991371Y4980204D01*
G01X2006259Y4980511D01*
G01X2020702Y4984133D01*
G01X2033972Y4990887D01*
G01X2045400Y5000433D01*
G01X2054409Y5012288D01*
G01X2060545Y5025856D01*
G01X2063499Y5040450D01*
G01X2063120Y5055336D01*
G01X2059429Y5069761D01*
G01X2052611Y5082999D01*
G01X2043011Y5094381D01*
G01X2031112Y5103333D01*
G01X2017516Y5109404D01*
G01X2002907Y5112288D01*
G01X1988024Y5111838D01*
G01X1981333Y5125140D01*
G01X1971842Y5136614D01*
G01X1960030Y5145680D01*
G01X1946493Y5151881D01*
G01X1931913Y5154904D01*
G01X1917025Y5154597D01*
G01X1902582Y5150975D01*
G01X1889312Y5144221D01*
G01X1877884Y5134675D01*
G01X1868875Y5122820D01*
G01X1868875Y5122820D01*
G01X1862739Y5109252D01*
G01X1859785Y5094658D01*
G01X48260Y5094658D01*
G01X48260Y5175250D01*
G01X1733042Y5175250D01*
G01X1734968Y5159385D01*
G01X1740636Y5144442D01*
G01X1749714Y5131289D01*
G01X1761677Y5120691D01*
G01X1775828Y5113264D01*
G01X1791345Y5109439D01*
G01X1807327Y5109439D01*
G01X1822844Y5113264D01*
G01X1836995Y5120691D01*
G01X1848958Y5131289D01*
G01X1858036Y5144442D01*
G01X1863704Y5159385D01*
G01X1865630Y5175250D01*
G01X1863704Y5191115D01*
G01X1858036Y5206058D01*
G01X1848958Y5219211D01*
G01X1836995Y5229809D01*
G01X1822844Y5237236D01*
G01X1807327Y5241061D01*
G01X1791345Y5241061D01*
G01X1775828Y5237236D01*
G01X1761677Y5229809D01*
G01X1749714Y5219211D01*
G01X1740636Y5206058D01*
G01X1734968Y5191115D01*
G01X1733042Y5175250D01*
G01X1733042Y5175250D01*
G01X48260Y5175250D01*
G01X48260Y5283708D01*
G01X1889506Y5283708D01*
G01X1891432Y5267843D01*
G01X1897100Y5252900D01*
G01X1906178Y5239747D01*
G01X1918141Y5229149D01*
G01X1932292Y5221722D01*
G01X1947809Y5217897D01*
G01X1963791Y5217897D01*
G01X1979308Y5221722D01*
G01X1993459Y5229149D01*
G01X2005422Y5239747D01*
G01X2014500Y5252900D01*
G01X2016205Y5257394D01*
G01X2351951Y5257394D01*
G01X2352803Y5241154D01*
G01X2357583Y5225610D01*
G01X2366003Y5211697D01*
G01X2377557Y5200253D01*
G01X2366582Y5188253D01*
G01X2358858Y5173941D01*
G01X2354851Y5158181D01*
G01X2354802Y5141918D01*
G01X2358713Y5126133D01*
G01X2366350Y5111776D01*
G01X2377252Y5099709D01*
G01X2390764Y5090659D01*
G01X2406073Y5085172D01*
G01X2422256Y5083576D01*
G01X2422256Y5083576D01*
G01X2438342Y5085969D01*
G01X2453361Y5092205D01*
G01X2466410Y5101910D01*
G01X2476703Y5114500D01*
G01X2483622Y5129217D01*
G01X2486749Y5145176D01*
G01X2485897Y5161416D01*
G01X2481117Y5176960D01*
G01X2472697Y5190873D01*
G01X2461143Y5202317D01*
G01X2472118Y5214317D01*
G01X2479842Y5228629D01*
G01X2483849Y5244389D01*
G01X2483898Y5260652D01*
G01X2479987Y5276437D01*
G01X2472350Y5290794D01*
G01X2461448Y5302861D01*
G01X2447936Y5311911D01*
G01X2432627Y5317398D01*
G01X2416444Y5318994D01*
G01X2400358Y5316601D01*
G01X2385339Y5310365D01*
G01X2372290Y5300660D01*
G01X2361997Y5288070D01*
G01X2355078Y5273353D01*
G01X2351951Y5257394D01*
G01X2016205Y5257394D01*
G01X2020168Y5267843D01*
G01X2022094Y5283708D01*
G01X2020168Y5299573D01*
G01X2014500Y5314516D01*
G01X2005422Y5327669D01*
G01X1993459Y5338267D01*
G01X1979308Y5345694D01*
G01X1963791Y5349519D01*
G01X1947809Y5349519D01*
G01X1932292Y5345694D01*
G01X1918141Y5338267D01*
G01X1906178Y5327669D01*
G01X1897100Y5314516D01*
G01X1891432Y5299573D01*
G01X1889506Y5283708D01*
G01X1889506Y5283708D01*
G01X48260Y5283708D01*
G01X48260Y5381244D01*
G01X1652270Y5381244D01*
G01X1654196Y5365379D01*
G01X1659864Y5350436D01*
G01X1668942Y5337283D01*
G01X1680905Y5326685D01*
G01X1695056Y5319258D01*
G01X1710573Y5315433D01*
G01X1726555Y5315433D01*
G01X1742072Y5319258D01*
G01X1756223Y5326685D01*
G01X1768186Y5337283D01*
G01X1777264Y5350436D01*
G01X1782932Y5365379D01*
G01X1784858Y5381244D01*
G01X1782932Y5397109D01*
G01X1777264Y5412052D01*
G01X1768186Y5425205D01*
G01X1756223Y5435803D01*
G01X1742072Y5443230D01*
G01X1726555Y5447055D01*
G01X1710573Y5447055D01*
G01X1695056Y5443230D01*
G01X1680905Y5435803D01*
G01X1668942Y5425205D01*
G01X1659864Y5412052D01*
G01X1654196Y5397109D01*
G01X1652270Y5381244D01*
G01X1652270Y5381244D01*
G01X48260Y5381244D01*
G01X48260Y5631180D01*
G01X636016Y5631180D01*
G01X637942Y5615315D01*
G01X643610Y5600372D01*
G01X652688Y5587219D01*
G01X664651Y5576621D01*
G01X678802Y5569194D01*
G01X694319Y5565369D01*
G01X710301Y5565369D01*
G01X725818Y5569194D01*
G01X739969Y5576621D01*
G01X751932Y5587219D01*
G01X761010Y5600372D01*
G01X766678Y5615315D01*
G01X768604Y5631180D01*
G01X766678Y5647045D01*
G01X761010Y5661988D01*
G01X751932Y5675141D01*
G01X739969Y5685739D01*
G01X725818Y5693166D01*
G01X710301Y5696991D01*
G01X694319Y5696991D01*
G01X678802Y5693166D01*
G01X664651Y5685739D01*
G01X652688Y5675141D01*
G01X643610Y5661988D01*
G01X637942Y5647045D01*
G01X636016Y5631180D01*
G01X636016Y5631180D01*
G01X48260Y5631180D01*
G01X48260Y5741416D01*
G01X1494536Y5741416D01*
G01X1496477Y5725493D01*
G01X1502185Y5710502D01*
G01X1511327Y5697321D01*
G01X1523367Y5686722D01*
G01X1537601Y5679325D01*
G01X1553195Y5675563D01*
G01X1569235Y5675657D01*
G01X1584784Y5679601D01*
G01X1598930Y5687164D01*
G01X1612924Y5679660D01*
G01X1628300Y5675699D01*
G01X1644178Y5675508D01*
G01X1636574Y5662510D01*
G01X1632100Y5648131D01*
G01X1630987Y5633113D01*
G01X1633291Y5618231D01*
G01X1638895Y5604254D01*
G01X1647509Y5591901D01*
G01X1658688Y5581812D01*
G01X1671856Y5574505D01*
G01X1686333Y5570359D01*
G01X1701372Y5569588D01*
G01X1716198Y5572230D01*
G01X1730044Y5578150D01*
G01X1730044Y5578150D01*
G01X1742198Y5587042D01*
G01X1752031Y5598448D01*
G01X1759036Y5611779D01*
G01X1762851Y5626347D01*
G01X1763048Y5633221D01*
G01X1789005Y5633221D01*
G01X1790195Y5616982D01*
G01X1795307Y5601522D01*
G01X1804034Y5587775D01*
G01X1815849Y5576570D01*
G01X1830038Y5568583D01*
G01X1845746Y5564296D01*
G01X1862026Y5563967D01*
G01X1877894Y5567616D01*
G01X1892395Y5575023D01*
G01X1904653Y5585741D01*
G01X1913928Y5599124D01*
G01X1919661Y5614364D01*
G01X1921507Y5630542D01*
G01X1920642Y5637022D01*
G01X2239264Y5637022D01*
G01X2241190Y5621157D01*
G01X2246858Y5606214D01*
G01X2255936Y5593061D01*
G01X2267899Y5582463D01*
G01X2282050Y5575036D01*
G01X2297567Y5571211D01*
G01X2313549Y5571211D01*
G01X2329066Y5575036D01*
G01X2337312Y5579364D01*
G01X2646680Y5579364D01*
G01X2648606Y5563499D01*
G01X2654274Y5548556D01*
G01X2663352Y5535403D01*
G01X2675315Y5524805D01*
G01X2689466Y5517378D01*
G01X2704983Y5513553D01*
G01X2720965Y5513553D01*
G01X2736482Y5517378D01*
G01X2750633Y5524805D01*
G01X2762596Y5535403D01*
G01X2771674Y5548556D01*
G01X2777342Y5563499D01*
G01X2779268Y5579364D01*
G01X2777342Y5595229D01*
G01X2771674Y5610172D01*
G01X2762596Y5623325D01*
G01X2750633Y5633923D01*
G01X2743277Y5637784D01*
G01X3093720Y5637784D01*
G01X3095646Y5621919D01*
G01X3101314Y5606976D01*
G01X3110392Y5593823D01*
G01X3122355Y5583225D01*
G01X3136506Y5575798D01*
G01X3152023Y5571973D01*
G01X3168005Y5571973D01*
G01X3183522Y5575798D01*
G01X3197673Y5583225D01*
G01X3209636Y5593823D01*
G01X3218714Y5606976D01*
G01X3224382Y5621919D01*
G01X3226308Y5637784D01*
G01X3226215Y5638546D01*
G01X3911092Y5638546D01*
G01X3913018Y5622681D01*
G01X3918686Y5607738D01*
G01X3927764Y5594585D01*
G01X3939727Y5583987D01*
G01X3953878Y5576560D01*
G01X3969395Y5572735D01*
G01X3985377Y5572735D01*
G01X4000894Y5576560D01*
G01X4015045Y5583987D01*
G01X4027008Y5594585D01*
G01X4036086Y5607738D01*
G01X4041754Y5622681D01*
G01X4043680Y5638546D01*
G01X4041754Y5654411D01*
G01X4036086Y5669354D01*
G01X4027008Y5682507D01*
G01X4015045Y5693105D01*
G01X4000894Y5700532D01*
G01X3985377Y5704357D01*
G01X3969395Y5704357D01*
G01X3953878Y5700532D01*
G01X3939727Y5693105D01*
G01X3927764Y5682507D01*
G01X3918686Y5669354D01*
G01X3913018Y5654411D01*
G01X3911092Y5638546D01*
G01X3911092Y5638546D01*
G01X3226215Y5638546D01*
G01X3224382Y5653649D01*
G01X3218714Y5668592D01*
G01X3209636Y5681745D01*
G01X3197673Y5692343D01*
G01X3183522Y5699770D01*
G01X3168005Y5703595D01*
G01X3152023Y5703595D01*
G01X3136506Y5699770D01*
G01X3122355Y5692343D01*
G01X3110392Y5681745D01*
G01X3101314Y5668592D01*
G01X3095646Y5653649D01*
G01X3093720Y5637784D01*
G01X3093720Y5637784D01*
G01X2743277Y5637784D01*
G01X2736482Y5641350D01*
G01X2720965Y5645175D01*
G01X2704983Y5645175D01*
G01X2689466Y5641350D01*
G01X2675315Y5633923D01*
G01X2663352Y5623325D01*
G01X2654274Y5610172D01*
G01X2648606Y5595229D01*
G01X2646680Y5579364D01*
G01X2646680Y5579364D01*
G01X2337312Y5579364D01*
G01X2343217Y5582463D01*
G01X2355180Y5593061D01*
G01X2364258Y5606214D01*
G01X2369926Y5621157D01*
G01X2371852Y5637022D01*
G01X2369926Y5652887D01*
G01X2364258Y5667830D01*
G01X2355180Y5680983D01*
G01X2343217Y5691581D01*
G01X2329066Y5699008D01*
G01X2313549Y5702833D01*
G01X2297567Y5702833D01*
G01X2282050Y5699008D01*
G01X2267899Y5691581D01*
G01X2255936Y5680983D01*
G01X2246858Y5667830D01*
G01X2241190Y5652887D01*
G01X2239264Y5637022D01*
G01X2239264Y5637022D01*
G01X1920642Y5637022D01*
G01X1919353Y5646682D01*
G01X1913331Y5661810D01*
G01X1927020Y5652993D01*
G01X1942445Y5647779D01*
G01X1958676Y5646482D01*
G01X1974734Y5649181D01*
G01X1989650Y5655713D01*
G01X2002523Y5665684D01*
G01X2012578Y5678491D01*
G01X2019207Y5693363D01*
G01X2022011Y5709403D01*
G01X2020821Y5725642D01*
G01X2015709Y5741102D01*
G01X2006982Y5754849D01*
G01X2006982Y5754849D01*
G01X1995167Y5766054D01*
G01X1980978Y5774041D01*
G01X1965270Y5778328D01*
G01X1948990Y5778657D01*
G01X1933122Y5775008D01*
G01X1918621Y5767601D01*
G01X1906363Y5756883D01*
G01X1897088Y5743500D01*
G01X1891355Y5728260D01*
G01X1889509Y5712082D01*
G01X1891663Y5695942D01*
G01X1897685Y5680814D01*
G01X1883996Y5689631D01*
G01X1868571Y5694845D01*
G01X1852340Y5696142D01*
G01X1836282Y5693443D01*
G01X1821366Y5686911D01*
G01X1808493Y5676940D01*
G01X1798438Y5664133D01*
G01X1791809Y5649261D01*
G01X1789005Y5633221D01*
G01X1763048Y5633221D01*
G01X1763281Y5641400D01*
G01X1760302Y5656161D01*
G01X1754069Y5669870D01*
G01X1744902Y5681818D01*
G01X1733276Y5691389D01*
G01X1719790Y5698089D01*
G01X1705139Y5701572D01*
G01X1690080Y5701660D01*
G01X1697893Y5715136D01*
G01X1702345Y5730063D01*
G01X1703191Y5745617D01*
G01X1700384Y5760940D01*
G01X1694079Y5775184D01*
G01X1684625Y5787564D01*
G01X1672543Y5797396D01*
G01X1658500Y5804137D01*
G01X1643272Y5807416D01*
G01X1627699Y5807050D01*
G01X1612641Y5803061D01*
G01X1598930Y5795668D01*
G01X1584784Y5803231D01*
G01X1569235Y5807175D01*
G01X1553195Y5807269D01*
G01X1537601Y5803507D01*
G01X1523367Y5796110D01*
G01X1511327Y5785511D01*
G01X1502185Y5772330D01*
G01X1496477Y5757339D01*
G01X1494536Y5741416D01*
G01X48260Y5741416D01*
G01X48260Y5881878D01*
G01X2366264Y5881878D01*
G01X2368190Y5866013D01*
G01X2373858Y5851070D01*
G01X2382936Y5837917D01*
G01X2394899Y5827319D01*
G01X2409050Y5819892D01*
G01X2424567Y5816067D01*
G01X2440549Y5816067D01*
G01X2456066Y5819892D01*
G01X2470217Y5827319D01*
G01X2482180Y5837917D01*
G01X2491258Y5851070D01*
G01X2496926Y5866013D01*
G01X2498852Y5881878D01*
G01X2498574Y5884164D01*
G01X2616200Y5884164D01*
G01X2618126Y5868299D01*
G01X2623794Y5853356D01*
G01X2632872Y5840203D01*
G01X2644835Y5829605D01*
G01X2658986Y5822178D01*
G01X2674503Y5818353D01*
G01X2690485Y5818353D01*
G01X2706002Y5822178D01*
G01X2720153Y5829605D01*
G01X2732116Y5840203D01*
G01X2741194Y5853356D01*
G01X2746862Y5868299D01*
G01X2748788Y5884164D01*
G01X2746862Y5900029D01*
G01X2741194Y5914972D01*
G01X2732116Y5928125D01*
G01X2729270Y5930646D01*
G01X3435096Y5930646D01*
G01X3437022Y5914781D01*
G01X3442690Y5899838D01*
G01X3451768Y5886685D01*
G01X3463731Y5876087D01*
G01X3477882Y5868660D01*
G01X3493399Y5864835D01*
G01X3509381Y5864835D01*
G01X3524898Y5868660D01*
G01X3539049Y5876087D01*
G01X3551012Y5886685D01*
G01X3560090Y5899838D01*
G01X3565758Y5914781D01*
G01X3567684Y5930646D01*
G01X3565758Y5946511D01*
G01X3560090Y5961454D01*
G01X3551012Y5974607D01*
G01X3539049Y5985205D01*
G01X3524898Y5992632D01*
G01X3509381Y5996457D01*
G01X3493399Y5996457D01*
G01X3477882Y5992632D01*
G01X3463731Y5985205D01*
G01X3451768Y5974607D01*
G01X3442690Y5961454D01*
G01X3437022Y5946511D01*
G01X3435096Y5930646D01*
G01X3435096Y5930646D01*
G01X2729270Y5930646D01*
G01X2720153Y5938723D01*
G01X2706002Y5946150D01*
G01X2690485Y5949975D01*
G01X2674503Y5949975D01*
G01X2658986Y5946150D01*
G01X2644835Y5938723D01*
G01X2632872Y5928125D01*
G01X2623794Y5914972D01*
G01X2618126Y5900029D01*
G01X2616200Y5884164D01*
G01X2616200Y5884164D01*
G01X2498574Y5884164D01*
G01X2496926Y5897743D01*
G01X2491258Y5912686D01*
G01X2482180Y5925839D01*
G01X2470217Y5936437D01*
G01X2456066Y5943864D01*
G01X2440549Y5947689D01*
G01X2424567Y5947689D01*
G01X2409050Y5943864D01*
G01X2394899Y5936437D01*
G01X2382936Y5925839D01*
G01X2373858Y5912686D01*
G01X2368190Y5897743D01*
G01X2366264Y5881878D01*
G01X2366264Y5881878D01*
G01X48260Y5881878D01*
G01X48260Y5960771D01*
G01X1508879Y5960771D01*
G01X1509909Y5944517D01*
G01X1514872Y5929004D01*
G01X1523468Y5915170D01*
G01X1535176Y5903849D01*
G01X1535176Y5903849D01*
G01X1549292Y5895724D01*
G01X1564963Y5891287D01*
G01X1581243Y5890803D01*
G01X1597149Y5894304D01*
G01X1611722Y5901578D01*
G01X1624081Y5912185D01*
G01X1633481Y5925485D01*
G01X1639355Y5940676D01*
G01X1641348Y5956840D01*
G01X1656332Y5963222D01*
G01X1669309Y5973065D01*
G01X1679494Y5985775D01*
G01X1686272Y6000584D01*
G01X1689235Y6016599D01*
G01X1688205Y6032853D01*
G01X1683242Y6048366D01*
G01X1674646Y6062200D01*
G01X1662938Y6073521D01*
G01X1648822Y6081646D01*
G01X1633151Y6086083D01*
G01X1616871Y6086567D01*
G01X1600965Y6083066D01*
G01X1586392Y6075792D01*
G01X1574033Y6065185D01*
G01X1564633Y6051885D01*
G01X1558759Y6036694D01*
G01X1556766Y6020530D01*
G01X1541782Y6014148D01*
G01X1528805Y6004305D01*
G01X1518620Y5991595D01*
G01X1511842Y5976786D01*
G01X1508879Y5960771D01*
G01X48260Y5960771D01*
G01X48260Y6264910D01*
G01X1364742Y6264910D01*
G01X1366668Y6249045D01*
G01X1372336Y6234102D01*
G01X1381414Y6220949D01*
G01X1393377Y6210351D01*
G01X1407528Y6202924D01*
G01X1423045Y6199099D01*
G01X1439027Y6199099D01*
G01X1454544Y6202924D01*
G01X1468695Y6210351D01*
G01X1471791Y6213094D01*
G01X1655318Y6213094D01*
G01X1657244Y6197229D01*
G01X1662912Y6182286D01*
G01X1671990Y6169133D01*
G01X1683953Y6158535D01*
G01X1698104Y6151108D01*
G01X1713621Y6147283D01*
G01X1729603Y6147283D01*
G01X1745120Y6151108D01*
G01X1759271Y6158535D01*
G01X1771234Y6169133D01*
G01X1780312Y6182286D01*
G01X1785980Y6197229D01*
G01X1787906Y6213094D01*
G01X1785980Y6228959D01*
G01X1780312Y6243902D01*
G01X1771234Y6257055D01*
G01X1759271Y6267653D01*
G01X1745120Y6275080D01*
G01X1729603Y6278905D01*
G01X1713621Y6278905D01*
G01X1698104Y6275080D01*
G01X1683953Y6267653D01*
G01X1671990Y6257055D01*
G01X1662912Y6243902D01*
G01X1657244Y6228959D01*
G01X1655318Y6213094D01*
G01X1655318Y6213094D01*
G01X1471791Y6213094D01*
G01X1480658Y6220949D01*
G01X1489736Y6234102D01*
G01X1495404Y6249045D01*
G01X1497330Y6264910D01*
G01X1495404Y6280775D01*
G01X1489736Y6295718D01*
G01X1480658Y6308871D01*
G01X1468695Y6319469D01*
G01X1466376Y6320686D01*
G01X1930076Y6320686D01*
G01X1932982Y6305614D01*
G01X1939276Y6291613D01*
G01X1948622Y6279436D01*
G01X1960519Y6269735D01*
G01X1948907Y6259405D01*
G01X1940019Y6246656D01*
G01X1934344Y6232188D01*
G01X1932193Y6216796D01*
G01X1933685Y6201326D01*
G01X1938737Y6186629D01*
G01X1947072Y6173512D01*
G01X1958232Y6162696D01*
G01X1947031Y6152614D01*
G01X1938396Y6140263D01*
G01X1932774Y6126281D01*
G01X1930455Y6111390D01*
G01X1931559Y6096360D01*
G01X1936029Y6081968D01*
G01X1943634Y6068957D01*
G01X1953980Y6058000D01*
G01X1966535Y6049664D01*
G01X1980647Y6044377D01*
G01X1995589Y6042415D01*
G01X1995589Y6042415D01*
G01X2010588Y6043878D01*
G01X2024869Y6048691D01*
G01X2037694Y6056605D01*
G01X2048401Y6067211D01*
G01X2054057Y6076188D01*
G01X3948176Y6076188D01*
G01X3950102Y6060323D01*
G01X3955770Y6045380D01*
G01X3964848Y6032227D01*
G01X3976811Y6021629D01*
G01X3990962Y6014202D01*
G01X4006479Y6010377D01*
G01X4022461Y6010377D01*
G01X4037978Y6014202D01*
G01X4052129Y6021629D01*
G01X4064092Y6032227D01*
G01X4073170Y6045380D01*
G01X4078838Y6060323D01*
G01X4080764Y6076188D01*
G01X4078838Y6092053D01*
G01X4073170Y6106996D01*
G01X4064092Y6120149D01*
G01X4052129Y6130747D01*
G01X4037978Y6138174D01*
G01X4022461Y6141999D01*
G01X4006479Y6141999D01*
G01X3990962Y6138174D01*
G01X3976811Y6130747D01*
G01X3964848Y6120149D01*
G01X3955770Y6106996D01*
G01X3950102Y6092053D01*
G01X3948176Y6076188D01*
G01X3948176Y6076188D01*
G01X2054057Y6076188D01*
G01X2056435Y6079961D01*
G01X2061382Y6094196D01*
G01X2062986Y6109181D01*
G01X2061165Y6124141D01*
G01X2056012Y6138303D01*
G01X2049326Y6148578D01*
G01X4419600Y6148578D01*
G01X4421526Y6132713D01*
G01X4427194Y6117770D01*
G01X4436272Y6104617D01*
G01X4448235Y6094019D01*
G01X4462386Y6086592D01*
G01X4477903Y6082767D01*
G01X4493885Y6082767D01*
G01X4509402Y6086592D01*
G01X4523553Y6094019D01*
G01X4535516Y6104617D01*
G01X4544594Y6117770D01*
G01X4550262Y6132713D01*
G01X4552188Y6148578D01*
G01X4550262Y6164443D01*
G01X4544594Y6179386D01*
G01X4535516Y6192539D01*
G01X4523553Y6203137D01*
G01X4509402Y6210564D01*
G01X4493885Y6214389D01*
G01X4477903Y6214389D01*
G01X4462386Y6210564D01*
G01X4448235Y6203137D01*
G01X4436272Y6192539D01*
G01X4427194Y6179386D01*
G01X4421526Y6164443D01*
G01X4419600Y6148578D01*
G01X4419600Y6148578D01*
G01X2049326Y6148578D01*
G01X2047793Y6150935D01*
G01X2036934Y6161384D01*
G01X2048853Y6172292D01*
G01X2057780Y6185758D01*
G01X2063184Y6200984D01*
G01X2064745Y6217066D01*
G01X2062369Y6233047D01*
G01X2056198Y6247978D01*
G01X2056074Y6248146D01*
G01X2143506Y6248146D01*
G01X2145432Y6232281D01*
G01X2151100Y6217338D01*
G01X2160178Y6204185D01*
G01X2172141Y6193587D01*
G01X2186292Y6186160D01*
G01X2201809Y6182335D01*
G01X2217791Y6182335D01*
G01X2233308Y6186160D01*
G01X2247459Y6193587D01*
G01X2259422Y6204185D01*
G01X2268500Y6217338D01*
G01X2274168Y6232281D01*
G01X2276094Y6248146D01*
G01X2274168Y6264011D01*
G01X2268500Y6278954D01*
G01X2259422Y6292107D01*
G01X2247459Y6302705D01*
G01X2233308Y6310132D01*
G01X2217791Y6313957D01*
G01X2201809Y6313957D01*
G01X2186292Y6310132D01*
G01X2172141Y6302705D01*
G01X2160178Y6292107D01*
G01X2151100Y6278954D01*
G01X2145432Y6264011D01*
G01X2143506Y6248146D01*
G01X2143506Y6248146D01*
G01X2056074Y6248146D01*
G01X2046598Y6260974D01*
G01X2034139Y6271261D01*
G01X2045623Y6281447D01*
G01X2054456Y6294002D01*
G01X2060165Y6308251D01*
G01X2062444Y6323431D01*
G01X2061170Y6338729D01*
G01X2056412Y6353323D01*
G01X2048997Y6365494D01*
G01X4031742Y6365494D01*
G01X4033668Y6349629D01*
G01X4039336Y6334686D01*
G01X4048414Y6321533D01*
G01X4060377Y6310935D01*
G01X4074528Y6303508D01*
G01X4090045Y6299683D01*
G01X4106027Y6299683D01*
G01X4121544Y6303508D01*
G01X4135695Y6310935D01*
G01X4147658Y6321533D01*
G01X4156736Y6334686D01*
G01X4162404Y6349629D01*
G01X4164330Y6365494D01*
G01X4162404Y6381359D01*
G01X4156736Y6396302D01*
G01X4147658Y6409455D01*
G01X4135695Y6420053D01*
G01X4121544Y6427480D01*
G01X4106027Y6431305D01*
G01X4090045Y6431305D01*
G01X4074528Y6427480D01*
G01X4060377Y6420053D01*
G01X4048414Y6409455D01*
G01X4039336Y6396302D01*
G01X4033668Y6381359D01*
G01X4031742Y6365494D01*
G01X4031742Y6365494D01*
G01X2048997Y6365494D01*
G01X2048425Y6366432D01*
G01X2037638Y6377352D01*
G01X2024627Y6385499D01*
G01X2010092Y6390435D01*
G01X1994812Y6391896D01*
G01X1979605Y6389803D01*
G01X1965287Y6384269D01*
G01X1952625Y6375590D01*
G01X1942299Y6364231D01*
G01X1934863Y6350802D01*
G01X1930714Y6336023D01*
G01X1930076Y6320686D01*
G01X1466376Y6320686D01*
G01X1454544Y6326896D01*
G01X1439027Y6330721D01*
G01X1423045Y6330721D01*
G01X1407528Y6326896D01*
G01X1393377Y6319469D01*
G01X1381414Y6308871D01*
G01X1372336Y6295718D01*
G01X1366668Y6280775D01*
G01X1364742Y6264910D01*
G01X1364742Y6264910D01*
G01X48260Y6264910D01*
G01X48260Y6450191D01*
G01X1623135Y6450191D01*
G01X1624170Y6434949D01*
G01X1628665Y6420349D01*
G01X1636383Y6407166D01*
G01X1646914Y6396100D01*
G01X1646914Y6396100D01*
G01X1659698Y6387737D01*
G01X1674057Y6382523D01*
G01X1689228Y6380734D01*
G01X1704406Y6382465D01*
G01X1718784Y6387625D01*
G01X1731600Y6395939D01*
G01X1742173Y6406965D01*
G01X1749941Y6420119D01*
G01X1754492Y6434702D01*
G01X1755584Y6449939D01*
G01X1770375Y6453761D01*
G01X1783898Y6460867D01*
G01X1795435Y6470879D01*
G01X1804374Y6483267D01*
G01X1810241Y6497372D01*
G01X1812532Y6511290D01*
G01X3944874Y6511290D01*
G01X3946800Y6495425D01*
G01X3952468Y6480482D01*
G01X3961546Y6467329D01*
G01X3973509Y6456731D01*
G01X3987660Y6449304D01*
G01X4003177Y6445479D01*
G01X4019159Y6445479D01*
G01X4034676Y6449304D01*
G01X4048827Y6456731D01*
G01X4060790Y6467329D01*
G01X4069868Y6480482D01*
G01X4075536Y6495425D01*
G01X4077462Y6511290D01*
G01X4075536Y6527155D01*
G01X4069868Y6542098D01*
G01X4060790Y6555251D01*
G01X4048827Y6565849D01*
G01X4034676Y6573276D01*
G01X4019159Y6577101D01*
G01X4003177Y6577101D01*
G01X3987660Y6573276D01*
G01X3973509Y6565849D01*
G01X3961546Y6555251D01*
G01X3952468Y6542098D01*
G01X3946800Y6527155D01*
G01X3944874Y6511290D01*
G01X3944874Y6511290D01*
G01X1812532Y6511290D01*
G01X1812723Y6512445D01*
G01X1811688Y6527687D01*
G01X1807193Y6542287D01*
G01X1799475Y6555470D01*
G01X1788944Y6566536D01*
G01X1776160Y6574899D01*
G01X1761801Y6580113D01*
G01X1746630Y6581902D01*
G01X1731452Y6580171D01*
G01X1717074Y6575011D01*
G01X1704258Y6566697D01*
G01X1693685Y6555671D01*
G01X1685917Y6542517D01*
G01X1681366Y6527934D01*
G01X1680274Y6512697D01*
G01X1665483Y6508875D01*
G01X1651960Y6501769D01*
G01X1640423Y6491757D01*
G01X1631484Y6479369D01*
G01X1625617Y6465264D01*
G01X1623135Y6450191D01*
G01X48260Y6450191D01*
G01X48260Y6762496D01*
G01X1520444Y6762496D01*
G01X1522370Y6746631D01*
G01X1528038Y6731688D01*
G01X1537116Y6718535D01*
G01X1549079Y6707937D01*
G01X1563230Y6700510D01*
G01X1578747Y6696685D01*
G01X1594729Y6696685D01*
G01X1610246Y6700510D01*
G01X1624397Y6707937D01*
G01X1636360Y6718535D01*
G01X1645438Y6731688D01*
G01X1651106Y6746631D01*
G01X1653032Y6762496D01*
G01X1651106Y6778361D01*
G01X1649495Y6782609D01*
G01X1930345Y6782609D01*
G01X1930810Y6768124D01*
G01X1934411Y6754087D01*
G01X1940977Y6741168D01*
G01X1950192Y6729984D01*
G01X1940335Y6717801D01*
G01X1933613Y6703644D01*
G01X1930402Y6688304D01*
G01X1930881Y6672640D01*
G01X1935025Y6657525D01*
G01X1942600Y6643806D01*
G01X1953184Y6632248D01*
G01X1966186Y6623498D01*
G01X1980878Y6618044D01*
G01X1996440Y6616192D01*
G01X1996440Y6616192D01*
G01X2012002Y6618044D01*
G01X2026694Y6623498D01*
G01X2039696Y6632248D01*
G01X2050280Y6643806D01*
G01X2057855Y6657525D01*
G01X2061999Y6672640D01*
G01X2062478Y6688304D01*
G01X2059267Y6703644D01*
G01X2052545Y6717801D01*
G01X2042688Y6729984D01*
G01X2051968Y6741266D01*
G01X2058551Y6754307D01*
G01X2062119Y6768474D01*
G01X2062497Y6783077D01*
G01X2059668Y6797409D01*
G01X2057589Y6802120D01*
G01X4032250Y6802120D01*
G01X4034176Y6786255D01*
G01X4039844Y6771312D01*
G01X4048922Y6758159D01*
G01X4060885Y6747561D01*
G01X4075036Y6740134D01*
G01X4090553Y6736309D01*
G01X4106535Y6736309D01*
G01X4122052Y6740134D01*
G01X4136203Y6747561D01*
G01X4148166Y6758159D01*
G01X4157244Y6771312D01*
G01X4162912Y6786255D01*
G01X4164838Y6802120D01*
G01X4162912Y6817985D01*
G01X4157244Y6832928D01*
G01X4148166Y6846081D01*
G01X4136203Y6856679D01*
G01X4122052Y6864106D01*
G01X4106535Y6867931D01*
G01X4090553Y6867931D01*
G01X4075036Y6864106D01*
G01X4060885Y6856679D01*
G01X4048922Y6846081D01*
G01X4039844Y6832928D01*
G01X4034176Y6817985D01*
G01X4032250Y6802120D01*
G01X4032250Y6802120D01*
G01X2057589Y6802120D01*
G01X2053768Y6810774D01*
G01X2063063Y6824009D01*
G01X2068876Y6839102D01*
G01X2070862Y6855152D01*
G01X2068902Y6871206D01*
G01X2063114Y6886308D01*
G01X2053840Y6899558D01*
G01X2041635Y6910169D01*
G01X2027223Y6917509D01*
G01X2011463Y6921140D01*
G01X1995293Y6920848D01*
G01X1979674Y6916649D01*
G01X1965538Y6908793D01*
G01X1953724Y6897747D01*
G01X1944936Y6884170D01*
G01X1939697Y6868869D01*
G01X1938319Y6852755D01*
G01X1940884Y6836786D01*
G01X1947240Y6821914D01*
G01X1938761Y6810162D01*
G01X1933038Y6796848D01*
G01X1930345Y6782609D01*
G01X1649495Y6782609D01*
G01X1645438Y6793304D01*
G01X1636360Y6806457D01*
G01X1624397Y6817055D01*
G01X1610246Y6824482D01*
G01X1594729Y6828307D01*
G01X1578747Y6828307D01*
G01X1563230Y6824482D01*
G01X1549079Y6817055D01*
G01X1537116Y6806457D01*
G01X1528038Y6793304D01*
G01X1522370Y6778361D01*
G01X1520444Y6762496D01*
G01X1520444Y6762496D01*
G01X48260Y6762496D01*
G01X48260Y7090664D01*
G01X1496060Y7090664D01*
G01X1497986Y7074799D01*
G01X1503654Y7059856D01*
G01X1512732Y7046703D01*
G01X1524695Y7036105D01*
G01X1538846Y7028678D01*
G01X1554363Y7024853D01*
G01X1570345Y7024853D01*
G01X1585862Y7028678D01*
G01X1600013Y7036105D01*
G01X1611976Y7046703D01*
G01X1615495Y7051802D01*
G01X4132326Y7051802D01*
G01X4134252Y7035937D01*
G01X4139920Y7020994D01*
G01X4148998Y7007841D01*
G01X4160961Y6997243D01*
G01X4175112Y6989816D01*
G01X4190629Y6985991D01*
G01X4206611Y6985991D01*
G01X4222128Y6989816D01*
G01X4236279Y6997243D01*
G01X4248242Y7007841D01*
G01X4257320Y7020994D01*
G01X4262988Y7035937D01*
G01X4264914Y7051802D01*
G01X4264164Y7057980D01*
G01X5002056Y7057980D01*
G01X5002542Y7041703D01*
G01X5006980Y7026036D01*
G01X5015103Y7011924D01*
G01X5006980Y6997812D01*
G01X5002542Y6982145D01*
G01X5002056Y6965868D01*
G01X5005553Y6949965D01*
G01X5012822Y6935394D01*
G01X5023423Y6923034D01*
G01X5036717Y6913631D01*
G01X5051902Y6907752D01*
G01X5068062Y6905752D01*
G01X5068062Y6905752D01*
G01X5084222Y6907752D01*
G01X5099407Y6913631D01*
G01X5112701Y6923034D01*
G01X5123302Y6935394D01*
G01X5130571Y6949965D01*
G01X5134068Y6965868D01*
G01X5133582Y6982145D01*
G01X5129144Y6997812D01*
G01X5121021Y7011924D01*
G01X5129144Y7026036D01*
G01X5133582Y7041703D01*
G01X5134068Y7057980D01*
G01X5130571Y7073883D01*
G01X5123302Y7088454D01*
G01X5112701Y7100814D01*
G01X5099407Y7110217D01*
G01X5084222Y7116096D01*
G01X5068062Y7118096D01*
G01X5051902Y7116096D01*
G01X5036717Y7110217D01*
G01X5023423Y7100814D01*
G01X5012822Y7088454D01*
G01X5005553Y7073883D01*
G01X5002056Y7057980D01*
G01X4264164Y7057980D01*
G01X4262988Y7067667D01*
G01X4257320Y7082610D01*
G01X4248242Y7095763D01*
G01X4236279Y7106361D01*
G01X4222128Y7113788D01*
G01X4206611Y7117613D01*
G01X4190629Y7117613D01*
G01X4175112Y7113788D01*
G01X4160961Y7106361D01*
G01X4148998Y7095763D01*
G01X4139920Y7082610D01*
G01X4134252Y7067667D01*
G01X4132326Y7051802D01*
G01X4132326Y7051802D01*
G01X1615495Y7051802D01*
G01X1621054Y7059856D01*
G01X1626722Y7074799D01*
G01X1628648Y7090664D01*
G01X1626722Y7106529D01*
G01X1621054Y7121472D01*
G01X1611976Y7134625D01*
G01X1600013Y7145223D01*
G01X1585862Y7152650D01*
G01X1570345Y7156475D01*
G01X1554363Y7156475D01*
G01X1538846Y7152650D01*
G01X1524695Y7145223D01*
G01X1512732Y7134625D01*
G01X1503654Y7121472D01*
G01X1497986Y7106529D01*
G01X1496060Y7090664D01*
G01X1496060Y7090664D01*
G01X48260Y7090664D01*
G01X48260Y7304278D01*
G01X3436874Y7304278D01*
G01X3438800Y7288413D01*
G01X3444468Y7273470D01*
G01X3453546Y7260317D01*
G01X3465509Y7249719D01*
G01X3479660Y7242292D01*
G01X3495177Y7238467D01*
G01X3511159Y7238467D01*
G01X3526676Y7242292D01*
G01X3540827Y7249719D01*
G01X3552790Y7260317D01*
G01X3561868Y7273470D01*
G01X3567536Y7288413D01*
G01X3569462Y7304278D01*
G01X3567536Y7320143D01*
G01X3561868Y7335086D01*
G01X3552790Y7348239D01*
G01X3545357Y7354824D01*
G01X3735832Y7354824D01*
G01X3737758Y7338959D01*
G01X3743426Y7324016D01*
G01X3752504Y7310863D01*
G01X3764467Y7300265D01*
G01X3778618Y7292838D01*
G01X3794135Y7289013D01*
G01X3810117Y7289013D01*
G01X3825634Y7292838D01*
G01X3839785Y7300265D01*
G01X3851748Y7310863D01*
G01X3860826Y7324016D01*
G01X3866494Y7338959D01*
G01X3868420Y7354824D01*
G01X3866494Y7370689D01*
G01X3860826Y7385632D01*
G01X3851748Y7398785D01*
G01X3843394Y7406186D01*
G01X4020511Y7406186D01*
G01X4021241Y7389990D01*
G01X4025881Y7374455D01*
G01X4034152Y7360512D01*
G01X4045561Y7348993D01*
G01X4059424Y7340587D01*
G01X4074912Y7335797D01*
G01X4091101Y7334911D01*
G01X4107020Y7337979D01*
G01X4121718Y7344820D01*
G01X4135184Y7335792D01*
G01X4150439Y7330302D01*
G01X4166569Y7328678D01*
G01X4182612Y7331019D01*
G01X4197607Y7337183D01*
G01X4210657Y7346803D01*
G01X4220982Y7359302D01*
G01X4227964Y7373934D01*
G01X4231187Y7389822D01*
G01X4230457Y7406018D01*
G01X4225817Y7421553D01*
G01X4217546Y7435496D01*
G01X4206137Y7447015D01*
G01X4192274Y7455421D01*
G01X4176786Y7460211D01*
G01X4160597Y7461097D01*
G01X4144678Y7458029D01*
G01X4129980Y7451188D01*
G01X4116514Y7460216D01*
G01X4101259Y7465706D01*
G01X4085129Y7467330D01*
G01X4069086Y7464989D01*
G01X4054091Y7458825D01*
G01X4041041Y7449205D01*
G01X4030716Y7436706D01*
G01X4023734Y7422074D01*
G01X4020511Y7406186D01*
G01X4020511Y7406186D01*
G01X3843394Y7406186D01*
G01X3839785Y7409383D01*
G01X3825634Y7416810D01*
G01X3810117Y7420635D01*
G01X3794135Y7420635D01*
G01X3778618Y7416810D01*
G01X3764467Y7409383D01*
G01X3752504Y7398785D01*
G01X3743426Y7385632D01*
G01X3737758Y7370689D01*
G01X3735832Y7354824D01*
G01X3735832Y7354824D01*
G01X3545357Y7354824D01*
G01X3540827Y7358837D01*
G01X3526676Y7366264D01*
G01X3511159Y7370089D01*
G01X3495177Y7370089D01*
G01X3479660Y7366264D01*
G01X3465509Y7358837D01*
G01X3453546Y7348239D01*
G01X3444468Y7335086D01*
G01X3438800Y7320143D01*
G01X3436874Y7304278D01*
G01X3436874Y7304278D01*
G01X48260Y7304278D01*
G01X48260Y7478626D01*
G01X1929996Y7478626D01*
G01X1932616Y7463524D01*
G01X1938635Y7449427D01*
G01X1947730Y7437089D01*
G01X1959416Y7427170D01*
G01X1947822Y7417143D01*
G01X1938841Y7404722D01*
G01X1932953Y7390570D01*
G01X1930472Y7375444D01*
G01X1931532Y7360153D01*
G01X1936075Y7345514D01*
G01X1943858Y7332309D01*
G01X1954466Y7321245D01*
G01X1967332Y7312913D01*
G01X1981767Y7307758D01*
G01X1997000Y7306057D01*
G01X1997000Y7306057D01*
G01X2012217Y7307899D01*
G01X2026604Y7313187D01*
G01X2039392Y7321637D01*
G01X2049897Y7332799D01*
G01X2057559Y7346075D01*
G01X2061966Y7360756D01*
G01X2062884Y7376056D01*
G01X2060264Y7391158D01*
G01X2054245Y7405255D01*
G01X2045150Y7417593D01*
G01X2033464Y7427512D01*
G01X2045058Y7437539D01*
G01X2054039Y7449960D01*
G01X2059927Y7464112D01*
G01X2062408Y7479238D01*
G01X2061348Y7494529D01*
G01X2056805Y7509168D01*
G01X2049022Y7522373D01*
G01X2038414Y7533437D01*
G01X2025548Y7541769D01*
G01X2011113Y7546924D01*
G01X1995880Y7548625D01*
G01X1980663Y7546783D01*
G01X1966276Y7541495D01*
G01X1953488Y7533045D01*
G01X1942983Y7521883D01*
G01X1935321Y7508607D01*
G01X1930914Y7493926D01*
G01X1929996Y7478626D01*
G01X48260Y7478626D01*
G01X48260Y7652004D01*
G01X4188714Y7652004D01*
G01X4190640Y7636139D01*
G01X4196308Y7621196D01*
G01X4205386Y7608043D01*
G01X4217349Y7597445D01*
G01X4231500Y7590018D01*
G01X4247017Y7586193D01*
G01X4262999Y7586193D01*
G01X4278516Y7590018D01*
G01X4292667Y7597445D01*
G01X4304630Y7608043D01*
G01X4313708Y7621196D01*
G01X4319376Y7636139D01*
G01X4321302Y7652004D01*
G01X4319376Y7667869D01*
G01X4313708Y7682812D01*
G01X4304630Y7695965D01*
G01X4292667Y7706563D01*
G01X4278516Y7713990D01*
G01X4262999Y7717815D01*
G01X4247017Y7717815D01*
G01X4231500Y7713990D01*
G01X4217349Y7706563D01*
G01X4205386Y7695965D01*
G01X4196308Y7682812D01*
G01X4190640Y7667869D01*
G01X4188714Y7652004D01*
G01X4188714Y7652004D01*
G01X48260Y7652004D01*
G01X48260Y8100009D01*
G01X154203Y8100009D01*
G01X154889Y8093034D01*
G01X163246Y8050947D01*
G01X165285Y8044220D01*
G01X168598Y8038021D01*
G01X192448Y8002334D01*
G01X196900Y7996910D01*
G01X202324Y7992458D01*
G01X238011Y7968608D01*
G01X244210Y7965294D01*
G01X250937Y7963256D01*
G01X293025Y7954899D01*
G01X299999Y7954213D01*
G01X306974Y7954899D01*
G01X349062Y7963256D01*
G01X355789Y7965294D01*
G01X361987Y7968608D01*
G01X397674Y7992458D01*
G01X403099Y7996910D01*
G01X407550Y8002334D01*
G01X431401Y8038021D01*
G01X434710Y8044210D01*
G01X436749Y8050926D01*
G01X445131Y8093014D01*
G01X445821Y8100009D01*
G01X445131Y8107004D01*
G01X436749Y8149092D01*
G01X434710Y8155808D01*
G01X431401Y8161997D01*
G01X407550Y8197684D01*
G01X403099Y8203108D01*
G01X397674Y8207560D01*
G01X361987Y8231411D01*
G01X361987Y8231411D01*
G01X355798Y8234720D01*
G01X349082Y8236759D01*
G01X306995Y8245141D01*
G01X299999Y8245831D01*
G01X293004Y8245141D01*
G01X250916Y8236759D01*
G01X244201Y8234720D01*
G01X238011Y8231411D01*
G01X202324Y8207560D01*
G01X196900Y8203108D01*
G01X192448Y8197684D01*
G01X168598Y8161997D01*
G01X165285Y8155798D01*
G01X163246Y8149072D01*
G01X154889Y8106984D01*
G01X154203Y8100009D01*
G01X48260Y8100009D01*
G01X48260Y8262715D01*
G01X57765Y8282023D01*
G01X69715Y8299923D01*
G01X83903Y8316106D01*
G01X100086Y8330294D01*
G01X117985Y8342243D01*
G01X137294Y8351749D01*
G01X1589329Y8351749D01*
G01X1589329Y7799756D01*
G01X1590724Y7794549D01*
G01X1594536Y7790737D01*
G01X1599743Y7789342D01*
G01X3900246Y7789342D01*
G01X3905453Y7790737D01*
G01X3909265Y7794549D01*
G01X3910660Y7799756D01*
G01X3910660Y7877863D01*
G01X3917251Y7864762D01*
G01X3926562Y7853430D01*
G01X3938136Y7844423D01*
G01X3951407Y7838181D01*
G01X3946277Y7823052D01*
G01X3944916Y7807135D01*
G01X3947401Y7791354D01*
G01X3953590Y7776626D01*
G01X3963122Y7763806D01*
G01X3975444Y7753639D01*
G01X3989841Y7746714D01*
G01X4005476Y7743435D01*
G01X4021441Y7743991D01*
G01X4036810Y7748350D01*
G01X4050690Y7756259D01*
G01X4062275Y7767259D01*
G01X4070892Y7780711D01*
G01X4076041Y7795834D01*
G01X4077423Y7811749D01*
G01X4074958Y7827533D01*
G01X4068788Y7842269D01*
G01X4059272Y7855101D01*
G01X4046963Y7865284D01*
G01X4032575Y7872227D01*
G01X4037558Y7886671D01*
G01X4039101Y7901873D01*
G01X4037123Y7917024D01*
G01X4031729Y7931320D01*
G01X4023205Y7944001D01*
G01X4012004Y7954394D01*
G01X3998721Y7961946D01*
G01X3984061Y7966257D01*
G01X3968805Y7967097D01*
G01X3953761Y7964421D01*
G01X3939729Y7958372D01*
G01X3927455Y7949272D01*
G01X3917591Y7937602D01*
G01X3910660Y7923985D01*
G01X3910660Y8100009D01*
G01X5054194Y8100009D01*
G01X5054879Y8093034D01*
G01X5063236Y8050947D01*
G01X5065275Y8044220D01*
G01X5068588Y8038021D01*
G01X5092439Y8002334D01*
G01X5096890Y7996910D01*
G01X5102315Y7992458D01*
G01X5138002Y7968608D01*
G01X5144200Y7965294D01*
G01X5150927Y7963256D01*
G01X5193015Y7954899D01*
G01X5199990Y7954213D01*
G01X5206964Y7954899D01*
G01X5249052Y7963256D01*
G01X5255779Y7965294D01*
G01X5261978Y7968608D01*
G01X5297665Y7992458D01*
G01X5303089Y7996910D01*
G01X5307541Y8002334D01*
G01X5331391Y8038021D01*
G01X5334701Y8044210D01*
G01X5336739Y8050926D01*
G01X5345121Y8093014D01*
G01X5345811Y8100009D01*
G01X5345121Y8107004D01*
G01X5336739Y8149092D01*
G01X5334701Y8155808D01*
G01X5331391Y8161997D01*
G01X5307541Y8197684D01*
G01X5303089Y8203108D01*
G01X5297665Y8207560D01*
G01X5261978Y8231411D01*
G01X5261978Y8231411D01*
G01X5255788Y8234720D01*
G01X5249073Y8236759D01*
G01X5206985Y8245141D01*
G01X5199990Y8245831D01*
G01X5192994Y8245141D01*
G01X5150907Y8236759D01*
G01X5144191Y8234720D01*
G01X5138002Y8231411D01*
G01X5102315Y8207560D01*
G01X5096890Y8203108D01*
G01X5092439Y8197684D01*
G01X5068588Y8161997D01*
G01X5065275Y8155798D01*
G01X5063236Y8149072D01*
G01X5054879Y8106984D01*
G01X5054194Y8100009D01*
G01X3910660Y8100009D01*
G01X3910660Y8351749D01*
G01X5362695Y8351749D01*
G01X5382004Y8342243D01*
G01X5399903Y8330294D01*
G01X5416086Y8316106D01*
G01X5430274Y8299923D01*
G01X5442224Y8282023D01*
G01X5451729Y8262715D01*
G01X5451729Y6944343D01*
G01X5441524Y6955510D01*
G01X5429054Y6964073D01*
G01X5414967Y6969586D01*
G01X5399997Y6971762D01*
G01X5384923Y6970488D01*
G01X5370531Y6965829D01*
G01X5357569Y6958030D01*
G01X5346713Y6947495D01*
G01X5338528Y6934773D01*
G01X5333440Y6920527D01*
G01X5331714Y6905498D01*
G01X5333440Y6890469D01*
G01X5338528Y6876223D01*
G01X5346713Y6863501D01*
G01X5357569Y6852966D01*
G01X5370531Y6845167D01*
G01X5384923Y6840508D01*
G01X5399997Y6839234D01*
G01X5414967Y6841410D01*
G01X5429054Y6846923D01*
G01X5441524Y6855486D01*
G01X5451729Y6866653D01*
G01X5451729Y137294D01*
G01X5442224Y117985D01*
G01X5430274Y100086D01*
G01X5416086Y83903D01*
G01X5399903Y69715D01*
G01X5382004Y57765D01*
G01X5362695Y48260D01*
G01X137294Y48260D01*
G37*
G54D10*
G01X137294Y48260D02*
G02X48260Y137294I62706J151740D01*
G01X48260Y4071581D01*
G03X149352Y4128008I34798J56427D01*
G03X48260Y4184435I-66294J0D01*
G01X48260Y4577386D01*
G03X163322Y4622292I48768J44906D01*
G03X48260Y4667198I-66294J0D01*
G01X48260Y8262715D01*
G02X137294Y8351749I151740J-62706D01*
G01X1589329Y8351749D01*
G01X1589329Y7799756D01*
G03X1599743Y7789342I10414J0D01*
G01X3900246Y7789342D01*
G03X3910660Y7799756I0J10414D01*
G01X3910660Y7877863D01*
G03X3951407Y7838181I62154J23061D01*
G03X4036810Y7748350I59761J-28697D01*
G03X4032575Y7872227I-25642J61134D01*
G03X3998721Y7961946I-59761J28697D01*
G03X3910660Y7923985I-25907J-61022D01*
G01X3910660Y8351749D01*
G01X5362695Y8351749D01*
G02X5451729Y8262715I-62706J-151740D01*
G01X5451729Y6944343D01*
G03X5331714Y6905498I-53721J-38845D01*
G03X5451729Y6866653I66294J0D01*
G01X5451729Y137294D01*
G02X5362695Y48260I-151740J62706D01*
G01X137294Y48260D01*
G01X50546Y3569716D02*
G03X183134Y3569716I66294J0D01*
G03X50546Y3569716I-66294J0D01*
G01X361987Y8231411D02*
G03X349082Y8236759I-19900J-29776D01*
G01X306995Y8245141D01*
G03X293004Y8245141I-6995J-35124D01*
G01X250916Y8236759D01*
G03X238011Y8231411I6995J-35124D01*
G01X202324Y8207560D01*
G03X192448Y8197684I19900J-29776D01*
G01X168598Y8161997D01*
G03X163246Y8149072I29776J-19900D01*
G01X154889Y8106984D01*
G03X154889Y8093034I35128J-6975D01*
G01X163246Y8050947D01*
G03X168598Y8038021I35128J6975D01*
G01X192448Y8002334D01*
G03X202324Y7992458I29776J19900D01*
G01X238011Y7968608D01*
G03X250937Y7963256I19900J29776D01*
G01X293025Y7954899D01*
G03X306974Y7954899I6975J35128D01*
G01X349062Y7963256D01*
G03X361987Y7968608I-6975J35128D01*
G01X397674Y7992458D01*
G03X407550Y8002334I-19900J29776D01*
G01X431401Y8038021D01*
G03X436749Y8050926I-29776J19900D01*
G01X445131Y8093014D01*
G03X445131Y8107004I-35124J6995D01*
G01X436749Y8149092D01*
G03X431401Y8161997I-35124J-6995D01*
G01X407550Y8197684D01*
G03X397674Y8207560I-29776J-19900D01*
G01X361987Y8231411D01*
G01X361987Y431401D02*
G03X349082Y436749I-19900J-29776D01*
G01X306995Y445131D01*
G03X293004Y445131I-6995J-35124D01*
G01X250916Y436749D01*
G03X238011Y431401I6995J-35124D01*
G01X202324Y407550D01*
G03X192448Y397674I19900J-29776D01*
G01X168598Y361987D01*
G03X163246Y349062I29776J-19900D01*
G01X154889Y306974D01*
G03X154889Y293025I35128J-6975D01*
G01X163246Y250937D01*
G03X168598Y238011I35128J6975D01*
G01X192448Y202324D01*
G03X202324Y192448I29776J19900D01*
G01X238011Y168598D01*
G03X250916Y163250I19900J29776D01*
G01X293004Y154868D01*
G03X306995Y154868I6995J35124D01*
G01X349082Y163250D01*
G03X361987Y168598I-6995J35124D01*
G01X397674Y192448D01*
G03X407550Y202324I-19900J29776D01*
G01X431401Y238011D01*
G03X436749Y250916I-29776J19900D01*
G01X445131Y293004D01*
G03X445131Y306995I-35124J6995D01*
G01X436749Y349082D01*
G03X431401Y361987I-35124J-6995D01*
G01X407550Y397674D01*
G03X397674Y407550I-29776J-19900D01*
G01X361987Y431401D01*
G01X255524Y3822446D02*
G03X388112Y3822446I66294J0D01*
G03X255524Y3822446I-66294J0D01*
G01X255524Y4060444D02*
G03X388112Y4060444I66294J0D01*
G03X255524Y4060444I-66294J0D01*
G01X356112Y4317393D02*
G03X474984Y4266793I65274J-11585D01*
G03X604008Y4273395I63750J18187D01*
G03X485136Y4323995I-65274J11585D01*
G03X356112Y4317393I-63750J-18187D01*
G01X462280Y4388612D02*
G03X516532Y4493006I0J66294D01*
G03X516443Y4569333I-54252J38100D01*
G03X462280Y4673854I-54163J38227D01*
G03X408117Y4569333I0J-66294D01*
G03X408028Y4493006I54163J-38227D01*
G03X462280Y4388612I54252J-38100D01*
G01X539750Y4122420D02*
G03X672338Y4122420I66294J0D01*
G03X539750Y4122420I-66294J0D01*
G01X621514Y4546090D02*
G03X699198Y4635344I16280J64264D01*
G03X673378Y4750818I-42100J51210D01*
G03X595694Y4661564I-16280J-64264D01*
G03X621514Y4546090I42100J-51210D01*
G01X636016Y5631180D02*
G03X768604Y5631180I66294J0D01*
G03X636016Y5631180I-66294J0D01*
G01X786892Y1489964D02*
G03X919480Y1489964I66294J0D01*
G03X786892Y1489964I-66294J0D01*
G01X804672Y2252980D02*
G03X937260Y2252980I66294J0D01*
G03X804672Y2252980I-66294J0D01*
G01X896620Y3766820D02*
G03X1029208Y3766820I66294J0D01*
G03X896620Y3766820I-66294J0D01*
G01X1152766Y2012604D02*
G03X1252351Y1937004I63132J-20228D01*
G03X1377328Y1940652I61845J23876D01*
G03X1277743Y2016252I-63132J20228D01*
G03X1152766Y2012604I-61845J-23876D01*
G01X1150366Y3945128D02*
G03X1282954Y3945128I66294J0D01*
G03X1150366Y3945128I-66294J0D01*
G01X1330706Y2685542D02*
G03X1463294Y2685542I66294J0D01*
G03X1330706Y2685542I-66294J0D01*
G01X1364742Y6264910D02*
G03X1497330Y6264910I66294J0D01*
G03X1364742Y6264910I-66294J0D01*
G01X1409700Y1656842D02*
G03X1542288Y1656842I66294J0D01*
G03X1409700Y1656842I-66294J0D01*
G01X1480058Y2019808D02*
G03X1612646Y2019808I66294J0D01*
G03X1480058Y2019808I-66294J0D01*
G01X1730044Y5578150D02*
G03X1690080Y5701660I-32816J57602D01*
G03X1684625Y5787564I-53050J39756D01*
G03X1598930Y5795668I-47595J-46148D01*
G03X1494536Y5741416I-38100J-54252D01*
G03X1598930Y5687164I66294J0D01*
G03X1644178Y5675508I38100J54252D01*
G03X1730044Y5578150I53050J-39756D01*
G01X1496060Y7090664D02*
G03X1628648Y7090664I66294J0D01*
G03X1496060Y7090664I-66294J0D01*
G01X1535176Y5903849D02*
G03X1641348Y5956840I39878J52959D01*
G03X1662938Y6073521I-18288J63722D01*
G03X1556766Y6020530I-39878J-52959D01*
G03X1535176Y5903849I18288J-63722D01*
G01X1520444Y6762496D02*
G03X1653032Y6762496I66294J0D01*
G03X1520444Y6762496I-66294J0D01*
G01X1646914Y6396100D02*
G03X1755584Y6449939I42440J50928D01*
G03X1788944Y6566536I-9080J65669D01*
G03X1680274Y6512697I-42440J-50928D01*
G03X1646914Y6396100I9080J-65669D01*
G01X1652270Y5381244D02*
G03X1784858Y5381244I66294J0D01*
G03X1652270Y5381244I-66294J0D01*
G01X1655318Y6213094D02*
G03X1787906Y6213094I66294J0D01*
G03X1655318Y6213094I-66294J0D01*
G01X1657604Y1960880D02*
G03X1790192Y1960880I66294J0D01*
G03X1657604Y1960880I-66294J0D01*
G01X1683766Y3828542D02*
G03X1816354Y3828542I66294J0D01*
G03X1683766Y3828542I-66294J0D01*
G01X1726692Y1754886D02*
G03X1859280Y1754886I66294J0D01*
G03X1726692Y1754886I-66294J0D01*
G01X1733042Y5175250D02*
G03X1865630Y5175250I66294J0D01*
G03X1733042Y5175250I-66294J0D01*
G01X1766316Y3964178D02*
G03X1898904Y3964178I66294J0D01*
G03X1766316Y3964178I-66294J0D01*
G01X2006982Y5754849D02*
G03X1897685Y5680814I-51182J-42135D01*
G03X1804034Y5587775I-42469J-50904D01*
G03X1913331Y5661810I51182J42135D01*
G03X2006982Y5754849I42469J50904D01*
G01X1792986Y1500124D02*
G03X1925574Y1500124I66294J0D01*
G03X1792986Y1500124I-66294J0D01*
G01X1868875Y5122820D02*
G03X1935260Y5023270I56953J-33930D01*
G03X2054409Y5012288I62196J22948D01*
G03X1988024Y5111838I-56953J33930D01*
G03X1868875Y5122820I-62196J-22948D01*
G01X1869440Y1167638D02*
G03X2002028Y1167638I66294J0D01*
G03X1869440Y1167638I-66294J0D01*
G01X1882176Y235067D02*
G01X1882176Y155067D01*
G03X2053803Y155067I85814J0D01*
G01X2053803Y235067D01*
G03X1882176Y235067I-85814J0D01*
G01X2053803Y668075D02*
G03X1882176Y668075I-85814J0D01*
G01X1882176Y558075D01*
G03X2049901Y532490I85814J0D01*
G03X2179192Y559144I61091J30572D01*
G03X2053803Y600428I-68201J3918D01*
G01X2053803Y668075D01*
G01X1889506Y5283708D02*
G03X2022094Y5283708I66294J0D01*
G03X1889506Y5283708I-66294J0D01*
G01X1889506Y1992376D02*
G03X2022094Y1992376I66294J0D01*
G03X1889506Y1992376I-66294J0D01*
G01X1997000Y7306057D02*
G03X2033464Y7427512I-306J66293D01*
G03X1995880Y7548625I-37278J54820D01*
G03X1959416Y7427170I306J-66293D01*
G03X1997000Y7306057I37278J-54820D01*
G01X1995589Y6042415D02*
G03X2036934Y6161384I1105J66285D01*
G03X2034139Y6271261I-38462J53996D01*
G03X1994812Y6391896I-37953J54355D01*
G03X1960519Y6269735I1374J-66280D01*
G03X1958232Y6162696I37953J-54355D01*
G03X1995589Y6042415I38462J-53996D01*
G01X1996440Y6616192D02*
G03X2042688Y6729984I0J66294D01*
G03X2053768Y6810774I-46248J47498D01*
G03X2011463Y6921140I-49200J44432D01*
G03X1947240Y6821914I-6895J-65934D01*
G03X1950192Y6729984I49200J-44432D01*
G03X1996440Y6616192I46248J-47498D01*
G01X1938274Y4143502D02*
G03X2070862Y4143502I66294J0D01*
G03X1938274Y4143502I-66294J0D01*
G01X2074926Y4965700D02*
G03X2207514Y4965700I66294J0D01*
G03X2074926Y4965700I-66294J0D01*
G01X2077466Y3007360D02*
G03X2210054Y3007360I66294J0D01*
G03X2077466Y3007360I-66294J0D01*
G01X2089912Y3913886D02*
G03X2222500Y3913886I66294J0D01*
G03X2089912Y3913886I-66294J0D01*
G01X2275134Y872236D02*
G03X2210028Y818725I-56J-66294D01*
G03X2095967Y758100I-50012J-43517D01*
G03X2225066Y762425I64049J17108D01*
G03X2341324Y803430I50012J43517D01*
G03X2472492Y821216I65072J12672D01*
G03X2340150Y818614I-66096J-5114D01*
G03X2275134Y872236I-65072J-12672D01*
G01X2124456Y4273042D02*
G03X2257044Y4273042I66294J0D01*
G03X2124456Y4273042I-66294J0D01*
G01X2142744Y2032254D02*
G03X2275332Y2032254I66294J0D01*
G03X2142744Y2032254I-66294J0D01*
G01X2143506Y6248146D02*
G03X2276094Y6248146I66294J0D01*
G03X2143506Y6248146I-66294J0D01*
G01X2218944Y1020826D02*
G03X2351532Y1020826I66294J0D01*
G03X2218944Y1020826I-66294J0D01*
G01X2239264Y5637022D02*
G03X2371852Y5637022I66294J0D01*
G03X2239264Y5637022I-66294J0D01*
G01X2240026Y1584960D02*
G03X2372614Y1584960I66294J0D01*
G03X2240026Y1584960I-66294J0D01*
G01X2243074Y5009642D02*
G03X2375662Y5009642I66294J0D01*
G03X2243074Y5009642I-66294J0D01*
G01X2252472Y4114546D02*
G03X2385060Y4114546I66294J0D01*
G03X2252472Y4114546I-66294J0D01*
G01X2275078Y1966214D02*
G03X2407666Y1966214I66294J0D01*
G03X2275078Y1966214I-66294J0D01*
G01X2320798Y2675636D02*
G03X2453386Y2675636I66294J0D01*
G03X2320798Y2675636I-66294J0D01*
G01X2331212Y4625340D02*
G03X2463800Y4625340I66294J0D01*
G03X2331212Y4625340I-66294J0D01*
G01X2422256Y5083576D02*
G03X2461143Y5202317I-1636J66274D01*
G03X2416444Y5318994I-43063J50403D01*
G03X2377557Y5200253I1636J-66274D01*
G03X2422256Y5083576I43063J-50403D01*
G01X2365248Y1736344D02*
G03X2497836Y1736344I66294J0D01*
G03X2365248Y1736344I-66294J0D01*
G01X2366264Y5881878D02*
G03X2498852Y5881878I66294J0D01*
G03X2366264Y5881878I-66294J0D01*
G01X2471166Y782828D02*
G03X2603754Y782828I66294J0D01*
G03X2471166Y782828I-66294J0D01*
G01X2483866Y3322320D02*
G03X2616454Y3322320I66294J0D01*
G03X2483866Y3322320I-66294J0D01*
G01X2518231Y4897366D02*
G03X2648267Y4909878I63933J17534D01*
G03X2766493Y4965454I54293J38042D01*
G03X2636457Y4952942I-63933J-17534D01*
G03X2518231Y4897366I-54293J-38042D01*
G01X2610104Y1756918D02*
G03X2742692Y1756918I66294J0D01*
G03X2610104Y1756918I-66294J0D01*
G01X2616200Y5884164D02*
G03X2748788Y5884164I66294J0D01*
G03X2616200Y5884164I-66294J0D01*
G01X2620793Y559144D02*
G03X2750085Y532490I68201J3918D01*
G03X2917810Y558075I81911J25584D01*
G01X2917810Y668075D01*
G03X2746182Y668075I-85814J0D01*
G01X2746182Y600428D01*
G03X2620793Y559144I-57188J-37366D01*
G01X2646680Y5579364D02*
G03X2779268Y5579364I66294J0D01*
G03X2646680Y5579364I-66294J0D01*
G01X2664460Y3286252D02*
G03X2797048Y3286252I66294J0D01*
G03X2664460Y3286252I-66294J0D01*
G01X2686304Y2730754D02*
G03X2818892Y2730754I66294J0D01*
G03X2686304Y2730754I-66294J0D01*
G01X2705905Y2033463D02*
G03X2819831Y1973880I64473J-15433D01*
G03X2948389Y1975419I64085J16972D01*
G03X2834463Y2035002I-64473J15433D01*
G03X2705905Y2033463I-64085J-16972D01*
G01X2746182Y235067D02*
G01X2746182Y155067D01*
G03X2917810Y155067I85814J0D01*
G01X2917810Y235067D01*
G03X2746182Y235067I-85814J0D01*
G01X2749296Y1492758D02*
G03X2881884Y1492758I66294J0D01*
G03X2749296Y1492758I-66294J0D01*
G01X2785301Y4930777D02*
G03X2905266Y4907803I64833J13841D01*
G03X2983243Y4913198I35292J56119D01*
G03X3086777Y4971349I37325J54788D01*
G03X2977883Y5018710I-66209J-3363D01*
G03X2885426Y5000737I-37325J-54788D01*
G03X2785301Y4930777I-35292J-56119D01*
G01X2799842Y3081274D02*
G03X2932430Y3081274I66294J0D01*
G03X2799842Y3081274I-66294J0D01*
G01X2836926Y4757420D02*
G03X2969514Y4757420I66294J0D01*
G03X2836926Y4757420I-66294J0D01*
G01X2848295Y906005D02*
G03X2978392Y917105I64069J17031D01*
G03X3096829Y972071I54368J37935D01*
G03X2966732Y960971I-64069J-17031D01*
G03X2848295Y906005I-54368J-37935D01*
G01X2883662Y3496564D02*
G03X3016250Y3496564I66294J0D01*
G03X2883662Y3496564I-66294J0D01*
G01X2908808Y2999232D02*
G03X3041396Y2999232I66294J0D01*
G03X2908808Y2999232I-66294J0D01*
G01X2933954Y1578356D02*
G03X3066542Y1578356I66294J0D01*
G03X2933954Y1578356I-66294J0D01*
G01X2948432Y4043680D02*
G03X3081020Y4043680I66294J0D01*
G03X2948432Y4043680I-66294J0D01*
G01X3009900Y2362962D02*
G03X3142488Y2362962I66294J0D01*
G03X3009900Y2362962I-66294J0D01*
G01X3045460Y414274D02*
G03X3178048Y414274I66294J0D01*
G03X3045460Y414274I-66294J0D01*
G01X3093720Y5637784D02*
G03X3226308Y5637784I66294J0D01*
G03X3093720Y5637784I-66294J0D01*
G01X3094736Y3541014D02*
G03X3227324Y3541014I66294J0D01*
G03X3094736Y3541014I-66294J0D01*
G01X3121152Y1186688D02*
G03X3253740Y1186688I66294J0D01*
G03X3121152Y1186688I-66294J0D01*
G01X3162046Y3143504D02*
G03X3294634Y3143504I66294J0D01*
G03X3162046Y3143504I-66294J0D01*
G01X3199892Y4271518D02*
G03X3332480Y4271518I66294J0D01*
G03X3199892Y4271518I-66294J0D01*
G01X3217418Y2618994D02*
G03X3350006Y2618994I66294J0D01*
G03X3217418Y2618994I-66294J0D01*
G01X3367132Y2241393D02*
G03X3469273Y2303887I36214J55529D01*
G03X3485280Y2422555I-20207J63139D01*
G03X3383139Y2360061I-36214J-55529D01*
G03X3367132Y2241393I20207J-63139D01*
G01X3386836Y1903222D02*
G03X3519424Y1903222I66294J0D01*
G03X3386836Y1903222I-66294J0D01*
G01X3435096Y5930646D02*
G03X3567684Y5930646I66294J0D01*
G03X3435096Y5930646I-66294J0D01*
G01X3436874Y7304278D02*
G03X3569462Y7304278I66294J0D01*
G03X3436874Y7304278I-66294J0D01*
G01X3490976Y3148076D02*
G03X3623564Y3148076I66294J0D01*
G03X3490976Y3148076I-66294J0D01*
G01X3558794Y1814068D02*
G03X3691382Y1814068I66294J0D01*
G03X3558794Y1814068I-66294J0D01*
G01X3735832Y7354824D02*
G03X3868420Y7354824I66294J0D01*
G03X3735832Y7354824I-66294J0D01*
G01X3772662Y4580128D02*
G03X3905250Y4580128I66294J0D01*
G03X3772662Y4580128I-66294J0D01*
G01X3778758Y1741678D02*
G03X3911346Y1741678I66294J0D01*
G03X3778758Y1741678I-66294J0D01*
G01X3890772Y4701032D02*
G03X4023360Y4701032I66294J0D01*
G03X3890772Y4701032I-66294J0D01*
G01X3893312Y4045204D02*
G03X4025900Y4045204I66294J0D01*
G03X3893312Y4045204I-66294J0D01*
G01X3911092Y5638546D02*
G03X4043680Y5638546I66294J0D01*
G03X3911092Y5638546I-66294J0D01*
G01X3927094Y2794000D02*
G03X4059682Y2794000I66294J0D01*
G03X3927094Y2794000I-66294J0D01*
G01X3944874Y6511290D02*
G03X4077462Y6511290I66294J0D01*
G03X3944874Y6511290I-66294J0D01*
G01X3948176Y6076188D02*
G03X4080764Y6076188I66294J0D01*
G03X3948176Y6076188I-66294J0D01*
G01X4000317Y1990321D02*
G03X4117411Y1935250I64699J-14455D01*
G03X4130231Y1908430I64699J14454D01*
G03X4169785Y1793445I44767J-48896D01*
G03X4226877Y1900808I5213J66089D01*
G03X4227028Y1998461I-44767J48896D01*
G03X4129715Y1990320I-44918J-48757D01*
G03X4000317Y1990321I-64699J-14454D01*
G01X3999992Y3345434D02*
G03X4132580Y3345434I66294J0D01*
G03X3999992Y3345434I-66294J0D01*
G01X4020511Y7406186D02*
G03X4121718Y7344820I66095J-5134D01*
G03X4231187Y7389822I43374J50136D01*
G03X4129980Y7451188I-66095J5134D01*
G03X4020511Y7406186I-43374J-50136D01*
G01X4031742Y6365494D02*
G03X4164330Y6365494I66294J0D01*
G03X4031742Y6365494I-66294J0D01*
G01X4032250Y6802120D02*
G03X4164838Y6802120I66294J0D01*
G03X4032250Y6802120I-66294J0D01*
G01X4126484Y2432812D02*
G03X4259072Y2432812I66294J0D01*
G03X4126484Y2432812I-66294J0D01*
G01X4132326Y7051802D02*
G03X4264914Y7051802I66294J0D01*
G03X4132326Y7051802I-66294J0D01*
G01X4188714Y7652004D02*
G03X4321302Y7652004I66294J0D01*
G03X4188714Y7652004I-66294J0D01*
G01X4200652Y2243582D02*
G03X4333240Y2243582I66294J0D01*
G03X4200652Y2243582I-66294J0D01*
G01X4268978Y3658870D02*
G03X4401566Y3658870I66294J0D01*
G03X4268978Y3658870I-66294J0D01*
G01X4319778Y3370580D02*
G03X4452366Y3370580I66294J0D01*
G03X4319778Y3370580I-66294J0D01*
G01X4376714Y2458974D02*
G03X4509302Y2458974I66294J0D01*
G03X4376714Y2458974I-66294J0D01*
G01X4381246Y2608326D02*
G03X4513834Y2608326I66294J0D01*
G03X4381246Y2608326I-66294J0D01*
G01X4406900Y3718052D02*
G03X4539488Y3718052I66294J0D01*
G03X4406900Y3718052I-66294J0D01*
G01X4419600Y6148578D02*
G03X4552188Y6148578I66294J0D01*
G03X4419600Y6148578I-66294J0D01*
G01X4426712Y3891788D02*
G03X4559300Y3891788I66294J0D01*
G03X4426712Y3891788I-66294J0D01*
G01X4537924Y2293366D02*
G03X4670512Y2293366I66294J0D01*
G03X4537924Y2293366I-66294J0D01*
G01X4802886Y3653536D02*
G03X4935474Y3653536I66294J0D01*
G03X4802886Y3653536I-66294J0D01*
G01X5068062Y6905752D02*
G03X5121021Y7011924I0J66294D01*
G03X5068062Y7118096I-52959J39878D01*
G03X5015103Y7011924I0J-66294D01*
G03X5068062Y6905752I52959J-39878D01*
G01X5261978Y8231411D02*
G03X5249073Y8236759I-19900J-29776D01*
G01X5206985Y8245141D01*
G03X5192994Y8245141I-6995J-35124D01*
G01X5150907Y8236759D01*
G03X5138002Y8231411I6995J-35124D01*
G01X5102315Y8207560D01*
G03X5092439Y8197684I19900J-29776D01*
G01X5068588Y8161997D01*
G03X5063236Y8149072I29776J-19900D01*
G01X5054879Y8106984D01*
G03X5054879Y8093034I35128J-6975D01*
G01X5063236Y8050947D01*
G03X5068588Y8038021I35128J6975D01*
G01X5092439Y8002334D01*
G03X5102315Y7992458I29776J19900D01*
G01X5138002Y7968608D01*
G03X5150927Y7963256I19900J29776D01*
G01X5193015Y7954899D01*
G03X5206964Y7954899I6975J35128D01*
G01X5249052Y7963256D01*
G03X5261978Y7968608I-6975J35128D01*
G01X5297665Y7992458D01*
G03X5307541Y8002334I-19900J29776D01*
G01X5331391Y8038021D01*
G03X5336739Y8050926I-29776J19900D01*
G01X5345121Y8093014D01*
G03X5345121Y8107004I-35124J6995D01*
G01X5336739Y8149092D01*
G03X5331391Y8161997I-35124J-6995D01*
G01X5307541Y8197684D01*
G03X5297665Y8207560I-29776J-19900D01*
G01X5261978Y8231411D01*
G01X5261978Y431401D02*
G03X5249073Y436749I-19900J-29776D01*
G01X5206985Y445131D01*
G03X5192994Y445131I-6995J-35124D01*
G01X5150907Y436749D01*
G03X5138002Y431401I6995J-35124D01*
G01X5102315Y407550D01*
G03X5092439Y397674I19900J-29776D01*
G01X5068588Y361987D01*
G03X5063236Y349062I29776J-19900D01*
G01X5054879Y306974D01*
G03X5054879Y293025I35128J-6975D01*
G01X5063236Y250937D01*
G03X5068588Y238011I35128J6975D01*
G01X5092439Y202324D01*
G03X5102315Y192448I29776J19900D01*
G01X5138002Y168598D01*
G03X5150907Y163250I19900J29776D01*
G01X5192994Y154868D01*
G03X5206985Y154868I6995J35124D01*
G01X5249073Y163250D01*
G03X5261978Y168598I-6995J35124D01*
G01X5297665Y192448D01*
G03X5307541Y202324I-19900J29776D01*
G01X5331391Y238011D01*
G03X5336739Y250916I-29776J19900D01*
G01X5345121Y293004D01*
G03X5345121Y306995I-35124J6995D01*
G01X5336739Y349082D01*
G03X5331391Y361987I-35124J-6995D01*
G01X5307541Y397674D01*
G03X5297665Y407550I-29776J-19900D01*
G01X5261978Y431401D01*
G04 Copper End*

G04 Pad Start*
G54D11*
G01X2831996Y195067D03*
G01X1967989Y195067D03*
G54D12*
G01X2831996Y613075D03*
G01X1967989Y613075D03*
G04 Pad End*

G04 Via Start*
G54D13*
G01X462280Y4454906D03*
G01X3993388Y2794000D03*
G01X328422Y3969004D03*
G01X89916Y4371086D03*
G01X3020568Y4967986D03*
G01X2309368Y5009642D03*
G01X3972814Y7900924D03*
G01X1996186Y7482332D03*
G01X870966Y2252980D03*
G01X2770378Y2018030D03*
G01X3501390Y5930646D03*
G01X2712974Y5579364D03*
G01X2209038Y2032254D03*
G01X2815590Y1492758D03*
G01X3160014Y5637784D03*
G01X1935734Y1167638D03*
G01X1855216Y5629910D03*
G01X4014470Y6076188D03*
G01X2420620Y5149850D03*
G01X2397506Y4625340D03*
G01X1832610Y3964178D03*
G01X1859280Y1500124D03*
G01X3000248Y1578356D03*
G01X2190750Y4273042D03*
G01X2341372Y1966214D03*
G01X2676398Y1756918D03*
G01X2387092Y2675636D03*
G01X1560830Y5741416D03*
G01X1586738Y6762496D03*
G01X702310Y5631180D03*
G01X962914Y3766820D03*
G01X97028Y4622292D03*
G01X2004568Y4143502D03*
G01X2156206Y3913886D03*
G01X1216660Y3945128D03*
G01X657098Y4686554D03*
G01X1750060Y3828542D03*
G01X2318766Y4114546D03*
G01X462280Y4607560D03*
G01X3838956Y4580128D03*
G01X1431036Y6264910D03*
G01X3802126Y7354824D03*
G01X4098544Y6802120D03*
G01X1546352Y2019808D03*
G01X3977386Y5638546D03*
G01X4447540Y2608326D03*
G01X1723898Y1960880D03*
G01X1314196Y1960880D03*
G01X1215898Y1992376D03*
G01X1998472Y6215380D03*
G01X4165092Y7394956D03*
G01X1746504Y6515608D03*
G01X4198620Y7051802D03*
G01X5068062Y6972046D03*
G01X5068062Y7051802D03*
G01X5398008Y6905498D03*
G01X4011168Y7809484D03*
G01X1996694Y7372350D03*
G01X1562354Y7090664D03*
G01X1718564Y5381244D03*
G01X83058Y4128008D03*
G01X2004568Y6855206D03*
G01X4174998Y1859534D03*
G01X2940558Y4963922D03*
G01X2582164Y4914900D03*
G01X3266186Y4271518D03*
G01X3283712Y2618994D03*
G01X3449066Y2367026D03*
G01X4065016Y1975866D03*
G01X3228340Y3143504D03*
G01X4335272Y3658870D03*
G01X4604218Y2293366D03*
G01X1996186Y6325616D03*
G01X4485894Y6148578D03*
G01X4182110Y1949704D03*
G01X2275078Y805942D03*
G01X2912364Y923036D03*
G01X4192778Y2432812D03*
G01X3187446Y1186688D03*
G01X2537460Y782828D03*
G01X3032760Y955040D03*
G01X1996694Y6108700D03*
G01X1689354Y6447028D03*
G01X2285238Y1020826D03*
G01X1721612Y6213094D03*
G01X1697228Y5635752D03*
G01X1623060Y6020562D03*
G01X4386072Y3370580D03*
G01X2160016Y775208D03*
G01X1397000Y2685542D03*
G01X4869180Y3653536D03*
G01X1996440Y6682486D03*
G01X4255008Y7652004D03*
G01X853186Y1489964D03*
G01X2883916Y1990852D03*
G01X637794Y4610354D03*
G01X3959606Y4045204D03*
G01X2752598Y2730754D03*
G01X321818Y3822446D03*
G01X3014726Y4043680D03*
G01X116840Y3569716D03*
G01X1996440Y6777482D03*
G01X321818Y4060444D03*
G01X1575054Y5956808D03*
G01X606044Y4122420D03*
G01X2305558Y5637022D03*
G01X538734Y4284980D03*
G01X2432558Y5881878D03*
G01X421386Y4305808D03*
G01X2682494Y5884164D03*
G01X1955800Y5712714D03*
G01X462280Y4531106D03*
G01X3557270Y3148076D03*
G01X2406396Y816102D03*
G01X1637030Y5741416D03*
G01X1792986Y1754886D03*
G01X3453130Y1903222D03*
G01X4098036Y6365494D03*
G01X2730754Y3286252D03*
G01X2903220Y4757420D03*
G01X2949956Y3496564D03*
G01X4493006Y3891788D03*
G01X3161030Y3541014D03*
G01X4473194Y3718052D03*
G01X2975102Y2999232D03*
G01X1997456Y5046218D03*
G01X1925828Y5088890D03*
G01X1799336Y5175250D03*
G01X2866136Y3081274D03*
G01X2141220Y4965700D03*
G01X3403346Y2296922D03*
G01X3503168Y7304278D03*
G01X4086606Y7401052D03*
G01X3625088Y1814068D03*
G01X3076194Y2362962D03*
G01X2850134Y4944618D03*
G01X3957066Y4701032D03*
G01X3845052Y1741678D03*
G01X1955800Y5283708D03*
G01X2209800Y6248146D03*
G01X4011168Y6511290D03*
G01X1955800Y1992376D03*
G01X4266946Y2243582D03*
G01X3111754Y414274D03*
G01X2537968Y1131570D03*
G01X962406Y5766562D03*
G01X2189447Y1185451D03*
G01X3509518Y4187444D03*
G01X3491624Y5452732D03*
G01X1705135Y2035015D03*
G01X346456Y5210048D03*
G01X5361178Y1329944D03*
G01X821182Y2137410D03*
G01X2490724Y3386328D03*
G01X1312418Y2302510D03*
G01X3001772Y2344674D03*
G01X821182Y1137412D03*
G01X3452368Y3131820D03*
G01X2420620Y3143504D03*
G01X3509518Y3653282D03*
G01X1295654Y2139696D03*
G01X2080006Y746760D03*
G01X1176274Y4028694D03*
G01X3963670Y3579622D03*
G01X3661918Y4454652D03*
G01X2086356Y4131564D03*
G01X2292096Y2274570D03*
G01X2024888Y2426970D03*
G01X2668524Y2004822D03*
G01X3152394Y3919982D03*
G01X2795524Y4187444D03*
G01X4467319Y3397283D03*
G01X3661918Y5227320D03*
G01X1710436Y4028694D03*
G01X5361178Y4029964D03*
G01X2795524Y3920490D03*
G01X629920Y5486400D03*
G01X3579622Y4974590D03*
G01X4066286Y3205480D03*
G01X4516120Y1634998D03*
G01X4751070Y124968D03*
G01X3401314Y169926D03*
G01X3401314Y584962D03*
G01X3378995Y1258857D03*
G01X1798828Y7539482D03*
G01X3701288Y7539482D03*
G01X2739898Y6754368D03*
G01X2459990Y6703568D03*
G01X2536190Y6907530D03*
G01X4238719Y3408205D03*
G01X768718Y5334648D03*
G01X1258824Y4899914D03*
G01X1371821Y5942363D03*
G01X5208778Y6729984D03*
G01X958850Y3053842D03*
G01X2795524Y3653282D03*
G01X3639599Y3974371D03*
G01X3597402Y2875788D03*
G01X2430526Y5448300D03*
G01X1400556Y7285482D03*
G01X3509518Y4721606D03*
G01X3661918Y3386328D03*
G01X3711956Y4107688D03*
G01X1355344Y2991612D03*
G01X2935084Y2603614D03*
G01X2810510Y1020064D03*
G01X3754341Y5426169D03*
G01X4066286Y3345434D03*
G01X4443008Y2458974D03*
G01X2702560Y4947920D03*
G01X2418080Y5252720D03*
G01X2550160Y3322320D03*
G01X2143760Y3007360D03*
G01X2431542Y1736344D03*
G01X2306320Y1584960D03*
G01X1475994Y1656842D03*
G04 Via End*

M02*

