G04 Layer: TopSolderMaskLayer*
G04 EasyEDA Pro v4.1.60, 2026-09-21 23:08:41*
G04 Gerber Generator version 0.3*
G04 Scale: 100 percent, Rotated: No, Reflected: No*
G04 Dimensions in millimeters*
G04 Leading zeros omitted, absolute positions, 4 integers and 5 decimals*
G04 Generated by one-click*
G04 Object Configs: Pad,Via,Track,Text,Image,Dimension,BoardOutline,BoardCutout,CopperFilled,SolidRegion,FPCStiffener,Line,PlaneZone,ComponentProperty,ComponentSilkscreen,TearDrop*
G04 Layer Configs: 1,15,16,2,3,4,5,6,7,8,9,10,11,13,14,56*
G04 Copper Areas: 0*
%FSLAX45Y45*%
%MOMM*%
%AMRoundRect*1,1,$1,$2,$3*1,1,$1,$4,$5*1,1,$1,0-$2,0-$3*1,1,$1,0-$4,0-$5*20,1,$1,$2,$3,$4,$5,0*20,1,$1,$4,$5,0-$2,0-$3,0*20,1,$1,0-$2,0-$3,0-$4,0-$5,0*20,1,$1,0-$4,0-$5,$2,$3,0*4,1,4,$2,$3,$4,$5,0-$2,0-$3,0-$4,0-$5,$2,$3,0*%
%ADD10RoundRect,0.1016X-0.432X-0.40324X-0.432X0.40324*%
%ADD11RoundRect,0.1016X-0.4X0.45X0.4X0.45*%
%ADD12RoundRect,0.1016X-0.45X-0.4X-0.45X0.4*%
%ADD13RoundRect,0.1016X-0.705X0.67501X0.705X0.67501*%
%ADD14RoundRect,0.1016X-0.25X0.39X0.25X0.39*%
%ADD15RoundRect,0.1084X-0.40324X0.432X0.40324X0.432*%
%ADD16RoundRect,0.1016X-0.40324X0.432X0.40324X0.432*%
%ADD17RoundRect,0.1016X-0.85X-0.4X-0.85X0.4*%
%ADD18RoundRect,0.1016X-0.8X-0.4X-0.8X0.4*%
%ADD19RoundRect,0.1016X-1.5X-1.05X-1.5X1.05*%
%ADD20RoundRect,0.1016X-0.4X0.4X0.4X0.4*%
%ADD21RoundRect,0.1016X-0.5X0.75X0.5X0.75*%
%ADD22RoundRect,0.1016X-0.65X-0.15X-0.65X0.15*%
%ADD23RoundRect,0.1016X-1.65X-1.15X-1.65X1.15*%
%ADD24RoundRect,0.1016X-0.57501X-0.6X-0.57501X0.6*%
%ADD25RoundRect,0.1X-0.3X0.57501X0.3X0.57501*%
%ADD26RoundRect,0.1X-0.15X0.57501X0.15X0.57501*%
%ADD27O,1.1X1.9*%
%ADD28O,1.1X2.2*%
%ADD29RoundRect,0.1016X-0.675X-0.705X-0.675X0.705*%
%ADD30RoundRect,0.1016X-0.49251X0.245X0.49251X0.245*%
%ADD31RoundRect,0.1016X-0.8X1.75X0.8X1.75*%
%ADD32RoundRect,0.1016X-0.4X0.85X0.4X0.85*%
%ADD33RoundRect,0.1016X-0.68851X-0.56627X-0.68851X0.56627*%
%ADD34RoundRect,0.1016X-0.35X-0.12501X-0.35X0.12501*%
%ADD35RoundRect,0.1016X-0.12501X0.725X0.12501X0.725*%
%ADD36RoundRect,0.1016X-0.12501X0.925X0.12501X0.925*%
%ADD37RoundRect,0.1016X-0.12501X0.35X0.12501X0.35*%
%ADD38RoundRect,0.1016X-0.5X0.6X0.5X0.6*%
%ADD39RoundRect,0.1016X-0.65X0.95X0.65X0.95*%
%ADD40RoundRect,0.1016X-0.5X1.4X0.5X1.4*%
%ADD41RoundRect,0.1016X-0.5X0.4X0.5X0.4*%
%ADD42RoundRect,0.1016X-0.35X0.6X0.35X0.6*%
%ADD43RoundRect,0.10003X-0.75X0.45X0.75X0.45*%
%ADD44RoundRect,0.10003X-0.45X-0.75X-0.45X0.75*%
%ADD45RoundRect,0.1016X-0.45X-0.45X-0.45X0.45*%
%ADD46RoundRect,0.10201X-0.55X0.3X0.55X0.3*%
%ADD47RoundRect,0.1016X-0.1X-0.2525X-0.1X0.2525*%
%ADD48RoundRect,0.1016X-0.2525X-0.1X-0.2525X0.1*%
%ADD49RoundRect,0.1016X-0.9X2.25X0.9X2.25*%
%ADD50RoundRect,0.10003X-1.35X1.35X1.35X1.35*%
%ADD51RoundRect,0.10003X-0.12501X-0.42499X-0.12501X0.42499*%
%ADD52RoundRect,0.10003X-0.42499X0.12501X0.42499X0.12501*%
%ADD53RoundRect,0.1016X-0.14X0.2125X0.14X0.2125*%
%ADD54RoundRect,0.1016X-0.6X0.4X0.6X0.4*%
%ADD55RoundRect,0.1016X-1.06001X-0.7X-1.06001X0.7*%
G75*


G04 Pad Start*
G54D10*
G01X3011805Y5208321D03*
G01X3011805Y5057648D03*
G01X2461844Y1131672D03*
G01X2461844Y1282344D03*
G54D11*
G01X1038667Y5766537D03*
G01X1178672Y5766537D03*
G54D10*
G01X2243379Y1131672D03*
G01X2243379Y1282344D03*
G54D12*
G01X3017266Y1688605D03*
G01X3017266Y1828610D03*
G54D10*
G01X3804361Y5249156D03*
G01X3804361Y5098484D03*
G54D13*
G01X3585591Y4187520D03*
G01X3385591Y4187520D03*
G54D11*
G01X3401695Y5542656D03*
G01X3261690Y5542656D03*
G01X1651127Y2088954D03*
G01X1791132Y2088954D03*
G54D14*
G01X1035002Y3416003D03*
G01X1164999Y3416003D03*
G01X1100000Y3583998D03*
G54D16*
G01X3860394Y6165621D03*
G01X4011066Y6165621D03*
G54D11*
G01X422750Y5210124D03*
G01X562755Y5210124D03*
G54D17*
G01X5285001Y1330000D03*
G01X5285001Y1669999D03*
G54D10*
G01X4043070Y5513121D03*
G01X4043070Y5362448D03*
G54D18*
G01X744995Y2262510D03*
G01X744995Y2137517D03*
G54D19*
G01X455003Y1882501D03*
G01X455003Y2517501D03*
G54D13*
G01X2414346Y3386328D03*
G01X2614346Y3386328D03*
G54D20*
G01X1439418Y2302561D03*
G01X1680413Y2302561D03*
G54D12*
G01X3001797Y2268550D03*
G01X3001797Y2128545D03*
G54D18*
G01X744995Y1262510D03*
G01X744995Y1137516D03*
G54D19*
G01X455003Y882500D03*
G01X455003Y1517500D03*
G54D16*
G01X3452266Y3055516D03*
G01X3301594Y3055516D03*
G01X2647594Y3143504D03*
G01X2496922Y3143504D03*
G54D21*
G01X2550345Y2431517D03*
G01X2770345Y2431517D03*
G54D16*
G01X4011066Y7258025D03*
G01X3860394Y7258025D03*
G54D22*
G01X210000Y4772299D03*
G01X210000Y4722312D03*
G01X210000Y4672300D03*
G01X210000Y4622312D03*
G01X210000Y3622314D03*
G01X210000Y3672302D03*
G01X210000Y3722289D03*
G01X210000Y3772301D03*
G01X210000Y3822314D03*
G01X210000Y3872301D03*
G54D23*
G01X445000Y4939990D03*
G01X445000Y3460008D03*
G54D22*
G01X210000Y3922314D03*
G01X210000Y4022314D03*
G01X210000Y4072326D03*
G01X210000Y3972326D03*
G01X210000Y4122313D03*
G01X210000Y4172301D03*
G01X210000Y4222313D03*
G01X210000Y4272300D03*
G01X210000Y4322313D03*
G01X210000Y4372300D03*
G01X210000Y4422313D03*
G01X210000Y4472300D03*
G01X210000Y4522313D03*
G01X210000Y4572300D03*
G54D24*
G01X1899590Y3784610D03*
G01X1899590Y4131605D03*
G54D10*
G01X2024888Y1131672D03*
G01X2024888Y1282344D03*
G54D13*
G01X3585591Y3653358D03*
G01X3385591Y3653358D03*
G54D11*
G01X1295527Y2063521D03*
G01X1435532Y2063521D03*
G54D25*
G01X2720007Y670580D03*
G01X2639997Y670580D03*
G01X2080003Y670580D03*
G01X2159988Y670580D03*
G54D26*
G01X2574999Y670580D03*
G01X2524986Y670580D03*
G01X2474999Y670580D03*
G01X2424986Y670580D03*
G01X2374999Y670580D03*
G01X2324986Y670580D03*
G01X2274999Y670580D03*
G01X2224987Y670580D03*
G54D27*
G01X2831996Y195067D03*
G01X1967989Y195067D03*
G54D28*
G01X2831996Y613075D03*
G01X1967989Y613075D03*
G54D29*
G01X1100074Y4028567D03*
G01X1100074Y3828567D03*
G54D11*
G01X1713306Y4804918D03*
G01X1573301Y4804918D03*
G54D30*
G01X2856154Y811733D03*
G01X2632634Y811733D03*
G54D29*
G01X4039768Y3579724D03*
G01X4039768Y3779723D03*
G54D16*
G01X3860394Y6384112D03*
G01X4011066Y6384112D03*
G54D10*
G01X2680335Y1131672D03*
G01X2680335Y1282344D03*
G54D13*
G01X3585591Y4454601D03*
G01X3385591Y4454601D03*
G54D10*
G01X2280742Y2708237D03*
G01X2280742Y2557564D03*
G54D31*
G01X508406Y5935218D03*
G01X828396Y5935218D03*
G54D16*
G01X3872408Y5888482D03*
G01X4023081Y5888482D03*
G54D24*
G01X2162454Y3784610D03*
G01X2162454Y4131605D03*
G54D29*
G01X2291969Y2350821D03*
G01X2291969Y2150821D03*
G01X2024888Y2350821D03*
G01X2024888Y2150821D03*
G54D16*
G01X1713078Y5033416D03*
G01X1562405Y5033416D03*
G01X4011066Y7695006D03*
G01X3860394Y7695006D03*
G54D32*
G01X3052900Y5448300D03*
G01X2712900Y5448300D03*
G54D33*
G01X3255950Y2330577D03*
G01X3255950Y2130577D03*
G54D11*
G01X2668549Y1877898D03*
G01X2528545Y1877898D03*
G54D29*
G01X3152394Y3843688D03*
G01X3152394Y4043688D03*
G54D13*
G01X2719222Y4187520D03*
G01X2919222Y4187520D03*
G54D10*
G01X4521073Y3343326D03*
G01X4521073Y3493999D03*
G54D13*
G01X3585591Y5227295D03*
G01X3385591Y5227295D03*
G54D10*
G01X3130042Y327355D03*
G01X3130042Y176682D03*
G54D29*
G01X1634236Y4028567D03*
G01X1634236Y3828567D03*
G54D17*
G01X5285001Y4030000D03*
G01X5285001Y4369999D03*
G54D34*
G01X2854990Y3143415D03*
G01X2854990Y3193428D03*
G01X2854990Y3243390D03*
G01X2854990Y3293402D03*
G54D35*
G01X2949986Y3301632D03*
G54D36*
G01X2999999Y3281642D03*
G54D35*
G01X3049986Y3301632D03*
G54D34*
G01X3145008Y3293402D03*
G01X3145008Y3243390D03*
G01X3145008Y3193377D03*
G01X3145008Y3143390D03*
G54D37*
G01X3075005Y3098381D03*
G01X3024993Y3098381D03*
G01X2974980Y3098381D03*
G01X2924993Y3098381D03*
G54D13*
G01X2719222Y3920439D03*
G01X2919222Y3920439D03*
G01X706018Y5486507D03*
G01X906018Y5486507D03*
G54D16*
G01X1713078Y5251907D03*
G01X1562405Y5251907D03*
G54D10*
G01X2559558Y5057648D03*
G01X2559558Y5208321D03*
G54D11*
G01X3503295Y4974488D03*
G01X3363290Y4974488D03*
G54D12*
G01X3990162Y3205495D03*
G01X3990162Y3345500D03*
G54D38*
G01X4439991Y1635003D03*
G54D39*
G01X4674992Y124998D03*
G54D40*
G01X3325007Y170007D03*
G54D41*
G01X3325007Y584992D03*
G54D38*
G01X3325007Y1205006D03*
G54D42*
G01X3420003Y1635003D03*
G01X3514999Y1635003D03*
G01X3625007Y1635003D03*
G01X3734989Y1635003D03*
G01X3844996Y1635003D03*
G01X3955004Y1635003D03*
G01X4065011Y1635003D03*
G01X4174993Y1635003D03*
G01X4285000Y1635003D03*
G54D43*
G01X1874995Y7539495D03*
G01X1874995Y7412495D03*
G01X1874995Y7285495D03*
G01X1874995Y7158495D03*
G01X1874995Y7031495D03*
G01X1874995Y6904495D03*
G01X1874995Y6777495D03*
G01X1874995Y6650495D03*
G01X1874995Y6523495D03*
G01X1874995Y6396495D03*
G01X1874995Y6269495D03*
G01X1874995Y6142495D03*
G01X1874995Y6015495D03*
G01X1874995Y5888495D03*
G54D44*
G01X2051500Y5760504D03*
G01X2178500Y5760504D03*
G01X2305500Y5760504D03*
G01X2432500Y5760504D03*
G01X2559500Y5760504D03*
G01X2686500Y5760504D03*
G01X2813500Y5760504D03*
G01X2940500Y5760504D03*
G01X3067500Y5760504D03*
G01X3194500Y5760504D03*
G01X3321500Y5760504D03*
G01X3448500Y5763501D03*
G54D43*
G01X3625004Y5888495D03*
G01X3625004Y6015495D03*
G01X3625004Y6142495D03*
G01X3625004Y6269495D03*
G01X3625004Y6396495D03*
G01X3625004Y6523495D03*
G01X3625004Y6650495D03*
G01X3625004Y6777495D03*
G01X3625004Y6904495D03*
G01X3625004Y7031495D03*
G01X3625004Y7158495D03*
G01X3625004Y7285495D03*
G01X3625004Y7412495D03*
G01X3625004Y7539495D03*
G54D45*
G01X2739992Y6627482D03*
G01X2599987Y6627482D03*
G01X2459982Y6627482D03*
G01X2459982Y6907492D03*
G01X2599987Y6907492D03*
G01X2739992Y6907492D03*
G01X2739992Y6767487D03*
G01X2459982Y6767487D03*
G01X2599987Y6767487D03*
G54D21*
G01X2550345Y2141957D03*
G01X2770345Y2141957D03*
G54D16*
G01X4011066Y7039559D03*
G01X3860394Y7039559D03*
G54D12*
G01X4292575Y3354248D03*
G01X4292575Y3494253D03*
G54D21*
G01X1616906Y2564079D03*
G01X1396906Y2564079D03*
G54D13*
G01X858418Y5244859D03*
G01X1058418Y5244859D03*
G54D46*
G01X1335001Y4994996D03*
G01X1335001Y4900000D03*
G01X1335001Y4805004D03*
G01X1064999Y4805004D03*
G01X1064999Y4900000D03*
G01X1064999Y4994996D03*
G54D30*
G01X1649146Y5888482D03*
G01X1425626Y5888482D03*
G54D16*
G01X1713078Y5470398D03*
G01X1562405Y5470398D03*
G54D17*
G01X5285001Y6729999D03*
G01X5285001Y7069999D03*
G54D10*
G01X1035050Y3053944D03*
G01X1035050Y3204616D03*
G54D13*
G01X2719222Y3653358D03*
G01X2919222Y3653358D03*
G54D16*
G01X4011066Y6602603D03*
G01X3860394Y6602603D03*
G54D47*
G01X4258000Y2615004D03*
G01X4298010Y2615004D03*
G01X4337985Y2615004D03*
G01X4377995Y2615004D03*
G54D48*
G01X4393004Y2559987D03*
G01X4393004Y2520013D03*
G54D47*
G01X4377995Y2464996D03*
G01X4337985Y2464996D03*
G01X4298010Y2464996D03*
G01X4258000Y2464996D03*
G54D48*
G01X4242994Y2520013D03*
G01X4242994Y2559987D03*
G54D16*
G01X4214266Y7913472D03*
G01X4063594Y7913472D03*
G54D30*
G01X1649146Y6338570D03*
G01X1425626Y6338570D03*
G54D13*
G01X3585591Y3920439D03*
G01X3385591Y3920439D03*
G54D10*
G01X2793314Y5057648D03*
G01X2793314Y5208321D03*
G54D29*
G01X3673475Y2875818D03*
G01X3673475Y3075818D03*
G54D49*
G01X2238362Y4619320D03*
G01X2628379Y4619320D03*
G54D50*
G01X2100039Y1699986D03*
G54D51*
G01X1974995Y1902501D03*
G01X2024982Y1902501D03*
G01X2074995Y1902501D03*
G01X2125007Y1902501D03*
G01X2174994Y1902501D03*
G01X2225007Y1902501D03*
G54D52*
G01X2302502Y1825005D03*
G01X2302502Y1774993D03*
G01X2302502Y1725005D03*
G01X2302502Y1674993D03*
G01X2302502Y1625006D03*
G01X2302502Y1574993D03*
G54D51*
G01X2225007Y1497498D03*
G01X2174994Y1497498D03*
G01X2125007Y1497498D03*
G01X2074995Y1497498D03*
G01X2024982Y1497498D03*
G01X1974995Y1497498D03*
G54D52*
G01X1897499Y1574993D03*
G01X1897499Y1625006D03*
G01X1897499Y1674993D03*
G01X1897499Y1725005D03*
G01X1897499Y1774993D03*
G01X1897499Y1825005D03*
G54D32*
G01X2506800Y5448300D03*
G01X2166800Y5448300D03*
G54D16*
G01X4214266Y8131962D03*
G01X4063594Y8131962D03*
G54D11*
G01X1476705Y7285482D03*
G01X1616710Y7285482D03*
G54D13*
G01X3585591Y4721682D03*
G01X3385591Y4721682D03*
G54D10*
G01X1955800Y5372964D03*
G01X1955800Y5523636D03*
G54D29*
G01X1367155Y4028567D03*
G01X1367155Y3828567D03*
G54D16*
G01X1627607Y6563614D03*
G01X1476934Y6563614D03*
G54D13*
G01X3585591Y3386277D03*
G01X3385591Y3386277D03*
G54D29*
G01X3838956Y4107652D03*
G01X3838956Y4307652D03*
G54D13*
G01X2750820Y1625092D03*
G01X2550820Y1625092D03*
G54D16*
G01X4011066Y7476515D03*
G01X3860394Y7476515D03*
G01X1627607Y6113526D03*
G01X1476934Y6113526D03*
G54D33*
G01X1279169Y2991663D03*
G01X1279169Y3191662D03*
G54D12*
G01X3024886Y2693340D03*
G01X3024886Y2833345D03*
G54D16*
G01X4011066Y6821068D03*
G01X3860394Y6821068D03*
G01X2141322Y5157315D03*
G01X2291994Y5157315D03*
G01X4417466Y5947156D03*
G01X4266794Y5947156D03*
G54D53*
G01X1274994Y1706248D03*
G01X1325006Y1706248D03*
G01X1374993Y1706248D03*
G01X1425006Y1706248D03*
G01X1425006Y1893750D03*
G01X1374993Y1893750D03*
G01X1325006Y1893750D03*
G01X1274994Y1893750D03*
G54D54*
G01X1350000Y1799999D03*
G54D30*
G01X3110154Y1020077D03*
G01X2886634Y1020077D03*
G54D11*
G01X3808095Y5480101D03*
G01X3668090Y5480101D03*
G54D55*
G01X4627161Y4103726D03*
G01X4627161Y3698138D03*
G54D24*
G01X2424557Y4131605D03*
G01X2424557Y3784610D03*
G54D16*
G01X2903322Y4850862D03*
G01X3053994Y4850862D03*
G04 Pad End*

M02*

