G04 Layer: TopPasteMaskLayer*
G04 EasyEDA Pro v4.1.60, 2026-09-21 23:08:41*
G04 Gerber Generator version 0.3*
G04 Scale: 100 percent, Rotated: No, Reflected: No*
G04 Dimensions in millimeters*
G04 Leading zeros omitted, absolute positions, 4 integers and 5 decimals*
G04 Generated by one-click*
G04 Object Configs: Pad,Via,Track,Text,Image,Dimension,BoardOutline,BoardCutout,CopperFilled,SolidRegion,FPCStiffener,Line,PlaneZone,ComponentProperty,ComponentSilkscreen,TearDrop*
G04 Layer Configs: 1,15,16,2,3,4,5,6,7,8,9,10,11,13,14,56*
G04 Copper Areas: 0*
%FSLAX45Y45*%
%MOMM*%
%ADD10R,0.8X0.9*%
%ADD11R,0.9X0.8*%
%ADD12R,0.5X0.78001*%
%ADD13R,1.7X0.8*%
%ADD14R,1.6X0.8*%
%ADD15R,2.99999X2.1*%
%ADD16R,0.8X0.8*%
%ADD17R,1.3X0.3*%
%ADD18R,3.29999X2.3*%
%ADD19R,1.1533X1.2*%
%ADD20R,1.15001X1.2*%
%ADD21R,0.98501X0.48999*%
%ADD22R,1.6X3.49999*%
%ADD23R,0.8X1.7*%
%ADD24R,0.7X0.25001*%
%ADD25R,0.25001X1.45001*%
%ADD26R,0.25001X1.85001*%
%ADD27R,0.25001X0.7*%
%ADD28R,1.0X1.2*%
%ADD29R,1.3X1.9*%
%ADD30R,1.0X2.79999*%
%ADD31R,1.0X0.8*%
%ADD32R,0.7X1.2*%
%ADD33R,1.5X0.9*%
%ADD34R,0.9X1.5*%
%ADD35R,0.9X0.9*%
%ADD36R,1.1X0.6*%
%ADD37R,0.2X0.505*%
%ADD38R,0.505X0.2*%
%ADD39R,1.8X4.49999*%
%ADD40R,0.28001X0.42499*%
%ADD41R,1.2X0.8*%
%ADD42R,2.12001X1.4*%
G75*


G04 PolygonModel Start*
G36*
G01X2966806Y5252486D02*
G01X2971808Y5257485D01*
G01X3051807Y5257485D01*
G01X3056806Y5252486D01*
G01X3056806Y5172486D01*
G01X3051807Y5167485D01*
G01X3027604Y5167485D01*
G01X3027604Y5204485D01*
G01X2994604Y5204485D01*
G01X2994604Y5167485D01*
G01X2971808Y5167485D01*
G01X2966806Y5172486D01*
G01X2966806Y5252486D01*
G37*
G36*
G01X3056804Y5013482D02*
G01X3051802Y5008484D01*
G01X2971803Y5008484D01*
G01X2966804Y5013482D01*
G01X2966804Y5093482D01*
G01X2971803Y5098484D01*
G01X2996006Y5098484D01*
G01X2996006Y5061483D01*
G01X3029006Y5061483D01*
G01X3029006Y5098484D01*
G01X3051802Y5098484D01*
G01X3056804Y5093482D01*
G01X3056804Y5013482D01*
G37*
G36*
G01X2506843Y1087506D02*
G01X2501842Y1082507D01*
G01X2421842Y1082507D01*
G01X2416843Y1087506D01*
G01X2416843Y1167506D01*
G01X2421842Y1172507D01*
G01X2446045Y1172507D01*
G01X2446045Y1135507D01*
G01X2479045Y1135507D01*
G01X2479045Y1172507D01*
G01X2501842Y1172507D01*
G01X2506843Y1167506D01*
G01X2506843Y1087506D01*
G37*
G36*
G01X2416846Y1326510D02*
G01X2421847Y1331509D01*
G01X2501847Y1331509D01*
G01X2506845Y1326510D01*
G01X2506845Y1246510D01*
G01X2501847Y1241509D01*
G01X2477643Y1241509D01*
G01X2477643Y1278509D01*
G01X2444643Y1278509D01*
G01X2444643Y1241509D01*
G01X2421847Y1241509D01*
G01X2416846Y1246510D01*
G01X2416846Y1326510D01*
G37*
G36*
G01X2288377Y1087506D02*
G01X2283376Y1082507D01*
G01X2203376Y1082507D01*
G01X2198378Y1087506D01*
G01X2198378Y1167506D01*
G01X2203376Y1172507D01*
G01X2227580Y1172507D01*
G01X2227580Y1135507D01*
G01X2260580Y1135507D01*
G01X2260580Y1172507D01*
G01X2283376Y1172507D01*
G01X2288377Y1167506D01*
G01X2288377Y1087506D01*
G37*
G36*
G01X2198380Y1326510D02*
G01X2203381Y1331509D01*
G01X2283381Y1331509D01*
G01X2288380Y1326510D01*
G01X2288380Y1246510D01*
G01X2283381Y1241509D01*
G01X2259178Y1241509D01*
G01X2259178Y1278509D01*
G01X2226178Y1278509D01*
G01X2226178Y1241509D01*
G01X2203381Y1241509D01*
G01X2198380Y1246510D01*
G01X2198380Y1326510D01*
G37*
G36*
G01X3759363Y5293322D02*
G01X3764364Y5298321D01*
G01X3844364Y5298321D01*
G01X3849362Y5293322D01*
G01X3849362Y5213322D01*
G01X3844364Y5208321D01*
G01X3820160Y5208321D01*
G01X3820160Y5245321D01*
G01X3787160Y5245321D01*
G01X3787160Y5208321D01*
G01X3764364Y5208321D01*
G01X3759363Y5213322D01*
G01X3759363Y5293322D01*
G37*
G36*
G01X3849360Y5054318D02*
G01X3844359Y5049319D01*
G01X3764359Y5049319D01*
G01X3759360Y5054318D01*
G01X3759360Y5134318D01*
G01X3764359Y5139319D01*
G01X3788562Y5139319D01*
G01X3788562Y5102319D01*
G01X3821562Y5102319D01*
G01X3821562Y5139319D01*
G01X3844359Y5139319D01*
G01X3849360Y5134318D01*
G01X3849360Y5054318D01*
G37*
G36*
G01X3315094Y4123520D02*
G01X3315094Y4251518D01*
G01X3320095Y4256519D01*
G01X3435096Y4256519D01*
G01X3440095Y4251518D01*
G01X3440598Y4210515D01*
G01X3395596Y4210515D01*
G01X3395596Y4165516D01*
G01X3439597Y4165516D01*
G01X3440095Y4123520D01*
G01X3435096Y4118519D01*
G01X3320095Y4118519D01*
G01X3315094Y4123520D01*
G37*
G36*
G01X3656089Y4251521D02*
G01X3656089Y4123522D01*
G01X3651087Y4118521D01*
G01X3536086Y4118521D01*
G01X3531088Y4123522D01*
G01X3530585Y4164526D01*
G01X3575586Y4164526D01*
G01X3575586Y4209524D01*
G01X3531586Y4209524D01*
G01X3531088Y4251521D01*
G01X3536086Y4256522D01*
G01X3651087Y4256522D01*
G01X3656089Y4251521D01*
G37*
G36*
G01X3816228Y6120623D02*
G01X3811229Y6125624D01*
G01X3811229Y6205624D01*
G01X3816228Y6210623D01*
G01X3896228Y6210623D01*
G01X3901229Y6205624D01*
G01X3901229Y6181420D01*
G01X3864229Y6181420D01*
G01X3864229Y6148421D01*
G01X3901229Y6148421D01*
G01X3901229Y6125624D01*
G01X3896228Y6120623D01*
G01X3816228Y6120623D01*
G37*
G36*
G01X4055232Y6210620D02*
G01X4060231Y6205619D01*
G01X4060231Y6125619D01*
G01X4055232Y6120620D01*
G01X3975232Y6120620D01*
G01X3970231Y6125619D01*
G01X3970231Y6149823D01*
G01X4007231Y6149823D01*
G01X4007231Y6182822D01*
G01X3970231Y6182822D01*
G01X3970231Y6205619D01*
G01X3975232Y6210620D01*
G01X4055232Y6210620D01*
G37*
G36*
G01X3998072Y5557286D02*
G01X4003073Y5562285D01*
G01X4083073Y5562285D01*
G01X4088072Y5557286D01*
G01X4088072Y5477286D01*
G01X4083073Y5472285D01*
G01X4058869Y5472285D01*
G01X4058869Y5509285D01*
G01X4025870Y5509285D01*
G01X4025870Y5472285D01*
G01X4003073Y5472285D01*
G01X3998072Y5477286D01*
G01X3998072Y5557286D01*
G37*
G36*
G01X4088069Y5318282D02*
G01X4083068Y5313284D01*
G01X4003068Y5313284D01*
G01X3998069Y5318282D01*
G01X3998069Y5398282D01*
G01X4003068Y5403284D01*
G01X4027272Y5403284D01*
G01X4027272Y5366283D01*
G01X4060271Y5366283D01*
G01X4060271Y5403284D01*
G01X4083068Y5403284D01*
G01X4088069Y5398282D01*
G01X4088069Y5318282D01*
G37*
G36*
G01X2684844Y3450328D02*
G01X2684844Y3322330D01*
G01X2679842Y3317329D01*
G01X2564841Y3317329D01*
G01X2559842Y3322330D01*
G01X2559340Y3363333D01*
G01X2604341Y3363333D01*
G01X2604341Y3408332D01*
G01X2560340Y3408332D01*
G01X2559842Y3450328D01*
G01X2564841Y3455330D01*
G01X2679842Y3455330D01*
G01X2684844Y3450328D01*
G37*
G36*
G01X2343849Y3322328D02*
G01X2343849Y3450326D01*
G01X2348850Y3455327D01*
G01X2463851Y3455327D01*
G01X2468850Y3450326D01*
G01X2469352Y3409323D01*
G01X2424351Y3409323D01*
G01X2424351Y3364324D01*
G01X2468352Y3364324D01*
G01X2468850Y3322328D01*
G01X2463851Y3317326D01*
G01X2348850Y3317326D01*
G01X2343849Y3322328D01*
G37*
G36*
G01X3496432Y3100515D02*
G01X3501431Y3095513D01*
G01X3501431Y3015513D01*
G01X3496432Y3010515D01*
G01X3416432Y3010515D01*
G01X3411431Y3015513D01*
G01X3411431Y3039717D01*
G01X3448431Y3039717D01*
G01X3448431Y3072717D01*
G01X3411431Y3072717D01*
G01X3411431Y3095513D01*
G01X3416432Y3100515D01*
G01X3496432Y3100515D01*
G37*
G36*
G01X3257428Y3010517D02*
G01X3252429Y3015518D01*
G01X3252429Y3095518D01*
G01X3257428Y3100517D01*
G01X3337428Y3100517D01*
G01X3342429Y3095518D01*
G01X3342429Y3071315D01*
G01X3305429Y3071315D01*
G01X3305429Y3038315D01*
G01X3342429Y3038315D01*
G01X3342429Y3015518D01*
G01X3337428Y3010517D01*
G01X3257428Y3010517D01*
G37*
G36*
G01X2691760Y3188503D02*
G01X2696759Y3183501D01*
G01X2696759Y3103502D01*
G01X2691760Y3098503D01*
G01X2611760Y3098503D01*
G01X2606759Y3103502D01*
G01X2606759Y3127705D01*
G01X2643759Y3127705D01*
G01X2643759Y3160705D01*
G01X2606759Y3160705D01*
G01X2606759Y3183501D01*
G01X2611760Y3188503D01*
G01X2691760Y3188503D01*
G37*
G36*
G01X2452756Y3098505D02*
G01X2447757Y3103507D01*
G01X2447757Y3183506D01*
G01X2452756Y3188505D01*
G01X2532756Y3188505D01*
G01X2537757Y3183506D01*
G01X2537757Y3159303D01*
G01X2500757Y3159303D01*
G01X2500757Y3126303D01*
G01X2537757Y3126303D01*
G01X2537757Y3103507D01*
G01X2532756Y3098505D01*
G01X2452756Y3098505D01*
G37*
G36*
G01X2827848Y2493513D02*
G01X2827848Y2365515D01*
G01X2822847Y2360513D01*
G01X2707846Y2360513D01*
G01X2702847Y2365515D01*
G01X2702344Y2406518D01*
G01X2747345Y2406518D01*
G01X2747345Y2451517D01*
G01X2703345Y2451517D01*
G01X2702847Y2493513D01*
G01X2707846Y2498514D01*
G01X2822847Y2498514D01*
G01X2827848Y2493513D01*
G37*
G36*
G01X2612847Y2493513D02*
G01X2612845Y2451517D01*
G01X2568346Y2451517D01*
G01X2568346Y2406518D01*
G01X2612344Y2406518D01*
G01X2612847Y2365515D01*
G01X2607846Y2360513D01*
G01X2492847Y2360513D01*
G01X2487846Y2365515D01*
G01X2487846Y2493513D01*
G01X2492847Y2498514D01*
G01X2607846Y2498514D01*
G01X2612847Y2493513D01*
G37*
G36*
G01X4055232Y7303023D02*
G01X4060231Y7298022D01*
G01X4060231Y7218022D01*
G01X4055232Y7213023D01*
G01X3975232Y7213023D01*
G01X3970231Y7218022D01*
G01X3970231Y7242226D01*
G01X4007231Y7242226D01*
G01X4007231Y7275225D01*
G01X3970231Y7275225D01*
G01X3970231Y7298022D01*
G01X3975232Y7303023D01*
G01X4055232Y7303023D01*
G37*
G36*
G01X3816228Y7213026D02*
G01X3811229Y7218027D01*
G01X3811229Y7298027D01*
G01X3816228Y7303026D01*
G01X3896228Y7303026D01*
G01X3901229Y7298027D01*
G01X3901229Y7273823D01*
G01X3864229Y7273823D01*
G01X3864229Y7240824D01*
G01X3901229Y7240824D01*
G01X3901229Y7218027D01*
G01X3896228Y7213026D01*
G01X3816228Y7213026D01*
G37*
G36*
G01X2069887Y1087506D02*
G01X2064885Y1082507D01*
G01X1984886Y1082507D01*
G01X1979887Y1087506D01*
G01X1979887Y1167506D01*
G01X1984886Y1172507D01*
G01X2009089Y1172507D01*
G01X2009089Y1135507D01*
G01X2042089Y1135507D01*
G01X2042089Y1172507D01*
G01X2064885Y1172507D01*
G01X2069887Y1167506D01*
G01X2069887Y1087506D01*
G37*
G36*
G01X1979889Y1326510D02*
G01X1984891Y1331509D01*
G01X2064890Y1331509D01*
G01X2069889Y1326510D01*
G01X2069889Y1246510D01*
G01X2064890Y1241509D01*
G01X2040687Y1241509D01*
G01X2040687Y1278509D01*
G01X2007687Y1278509D01*
G01X2007687Y1241509D01*
G01X1984891Y1241509D01*
G01X1979889Y1246510D01*
G01X1979889Y1326510D01*
G37*
G36*
G01X3315094Y3589358D02*
G01X3315094Y3717356D01*
G01X3320095Y3722357D01*
G01X3435096Y3722357D01*
G01X3440095Y3717356D01*
G01X3440598Y3676353D01*
G01X3395596Y3676353D01*
G01X3395596Y3631354D01*
G01X3439597Y3631354D01*
G01X3440095Y3589358D01*
G01X3435096Y3584357D01*
G01X3320095Y3584357D01*
G01X3315094Y3589358D01*
G37*
G36*
G01X3656089Y3717359D02*
G01X3656089Y3589360D01*
G01X3651087Y3584359D01*
G01X3536086Y3584359D01*
G01X3531088Y3589360D01*
G01X3530585Y3630364D01*
G01X3575586Y3630364D01*
G01X3575586Y3675362D01*
G01X3531586Y3675362D01*
G01X3531088Y3717359D01*
G01X3536086Y3722360D01*
G01X3651087Y3722360D01*
G01X3656089Y3717359D01*
G37*
G36*
G01X2389995Y613067D02*
G01X2359995Y613067D01*
G01X2359995Y728068D01*
G01X2389995Y728068D01*
G01X2389995Y613067D01*
G37*
G36*
G01X2309995Y728068D02*
G01X2339995Y728068D01*
G01X2339995Y613067D01*
G01X2309995Y613067D01*
G01X2309995Y728068D01*
G37*
G36*
G01X2689995Y728068D02*
G01X2749995Y728068D01*
G01X2749995Y613067D01*
G01X2689995Y613067D01*
G01X2689995Y728068D01*
G37*
G36*
G01X2439995Y613067D02*
G01X2409995Y613067D01*
G01X2409995Y728068D01*
G01X2439995Y728068D01*
G01X2439995Y613067D01*
G37*
G36*
G01X2259995Y728068D02*
G01X2289995Y728068D01*
G01X2289995Y613067D01*
G01X2259995Y613067D01*
G01X2259995Y728068D01*
G37*
G36*
G01X2239996Y613067D02*
G01X2209996Y613067D01*
G01X2209996Y728068D01*
G01X2239996Y728068D01*
G01X2239996Y613067D01*
G37*
G36*
G01X2489995Y613067D02*
G01X2459995Y613067D01*
G01X2459995Y728068D01*
G01X2489995Y728068D01*
G01X2489995Y613067D01*
G37*
G36*
G01X2539995Y613067D02*
G01X2509995Y613067D01*
G01X2509995Y728068D01*
G01X2539995Y728068D01*
G01X2539995Y613067D01*
G37*
G36*
G01X2609995Y728068D02*
G01X2669995Y728068D01*
G01X2669995Y613067D01*
G01X2609995Y613067D01*
G01X2609995Y728068D01*
G37*
G36*
G01X2589995Y613067D02*
G01X2559995Y613067D01*
G01X2559995Y728068D01*
G01X2589995Y728068D01*
G01X2589995Y613067D01*
G37*
G36*
G01X2189996Y613067D02*
G01X2129996Y613067D01*
G01X2129996Y728068D01*
G01X2189996Y728068D01*
G01X2189996Y613067D01*
G37*
G36*
G01X2109996Y613067D02*
G01X2049996Y613067D01*
G01X2049996Y728068D01*
G01X2109996Y728068D01*
G01X2109996Y613067D01*
G37*
G36*
G01X2835732Y717936D02*
G01X2838214Y717687D01*
G01X2840678Y717316D01*
G01X2843121Y716821D01*
G01X2845537Y716206D01*
G01X2847919Y715472D01*
G01X2850264Y714619D01*
G01X2852560Y713651D01*
G01X2854808Y712569D01*
G01X2856997Y711378D01*
G01X2859123Y710077D01*
G01X2861183Y708673D01*
G01X2863169Y707166D01*
G01X2865079Y705564D01*
G01X2866908Y703870D01*
G01X2868648Y702084D01*
G01X2870299Y700215D01*
G01X2871854Y698266D01*
G01X2873309Y696242D01*
G01X2874660Y694146D01*
G01X2875907Y691987D01*
G01X2877045Y689770D01*
G01X2878069Y687497D01*
G01X2878981Y685178D01*
G01X2879773Y682813D01*
G01X2880449Y680413D01*
G01X2881005Y677984D01*
G01X2881437Y675528D01*
G01X2881747Y673054D01*
G01X2881935Y670568D01*
G01X2881996Y668076D01*
G01X2881996Y558074D01*
G01X2881935Y555582D01*
G01X2881747Y553095D01*
G01X2881437Y550621D01*
G01X2881005Y548165D01*
G01X2880449Y545737D01*
G01X2879773Y543336D01*
G01X2878981Y540972D01*
G01X2878069Y538653D01*
G01X2877045Y536379D01*
G01X2875907Y534162D01*
G01X2874660Y532003D01*
G01X2873309Y529908D01*
G01X2871854Y527883D01*
G01X2870299Y525935D01*
G01X2868648Y524066D01*
G01X2866908Y522280D01*
G01X2865079Y520586D01*
G01X2863169Y518983D01*
G01X2861183Y517477D01*
G01X2859123Y516072D01*
G01X2856997Y514772D01*
G01X2854808Y513580D01*
G01X2852560Y512498D01*
G01X2850264Y511531D01*
G01X2847919Y510677D01*
G01X2845537Y509943D01*
G01X2843121Y509328D01*
G01X2840678Y508833D01*
G01X2838214Y508462D01*
G01X2835732Y508213D01*
G01X2833243Y508089D01*
G01X2830749Y508089D01*
G01X2828260Y508213D01*
G01X2825778Y508462D01*
G01X2823314Y508833D01*
G01X2820871Y509328D01*
G01X2818455Y509943D01*
G01X2816073Y510677D01*
G01X2813728Y511531D01*
G01X2811432Y512498D01*
G01X2809184Y513580D01*
G01X2806997Y514772D01*
G01X2804869Y516072D01*
G01X2802809Y517477D01*
G01X2800822Y518983D01*
G01X2798912Y520586D01*
G01X2797084Y522280D01*
G01X2795344Y524066D01*
G01X2793693Y525935D01*
G01X2792138Y527883D01*
G01X2790683Y529908D01*
G01X2789331Y532003D01*
G01X2788084Y534162D01*
G01X2786946Y536379D01*
G01X2785923Y538653D01*
G01X2785011Y540972D01*
G01X2784218Y543336D01*
G01X2783543Y545737D01*
G01X2782987Y548165D01*
G01X2782555Y550621D01*
G01X2782245Y553095D01*
G01X2782057Y555582D01*
G01X2781996Y558074D01*
G01X2781996Y668076D01*
G01X2782057Y670568D01*
G01X2782245Y673054D01*
G01X2782555Y675528D01*
G01X2782987Y677984D01*
G01X2783543Y680413D01*
G01X2784218Y682813D01*
G01X2785011Y685178D01*
G01X2785923Y687497D01*
G01X2786946Y689770D01*
G01X2788084Y691987D01*
G01X2789331Y694146D01*
G01X2790683Y696242D01*
G01X2792138Y698266D01*
G01X2793693Y700215D01*
G01X2795344Y702084D01*
G01X2797084Y703870D01*
G01X2798912Y705564D01*
G01X2800822Y707166D01*
G01X2802809Y708673D01*
G01X2804869Y710077D01*
G01X2806997Y711378D01*
G01X2809184Y712569D01*
G01X2811432Y713651D01*
G01X2813728Y714619D01*
G01X2816073Y715472D01*
G01X2818455Y716206D01*
G01X2820871Y716821D01*
G01X2823314Y717316D01*
G01X2825778Y717687D01*
G01X2828260Y717936D01*
G01X2830749Y718061D01*
G01X2833243Y718061D01*
G01X2835732Y717936D01*
G37*
G36*
G01X1966742Y718061D02*
G01X1969237Y718061D01*
G01X1971726Y717936D01*
G01X1974207Y717687D01*
G01X1976671Y717316D01*
G01X1979115Y716821D01*
G01X1981530Y716206D01*
G01X1983913Y715472D01*
G01X1986257Y714619D01*
G01X1988553Y713651D01*
G01X1990801Y712569D01*
G01X1992991Y711378D01*
G01X1995117Y710077D01*
G01X1997177Y708673D01*
G01X1999163Y707166D01*
G01X2001073Y705564D01*
G01X2002902Y703870D01*
G01X2004642Y702084D01*
G01X2006293Y700215D01*
G01X2007847Y698266D01*
G01X2009303Y696242D01*
G01X2010654Y694146D01*
G01X2011901Y691987D01*
G01X2013039Y689770D01*
G01X2014063Y687497D01*
G01X2014974Y685178D01*
G01X2015767Y682813D01*
G01X2016443Y680413D01*
G01X2016999Y677984D01*
G01X2017431Y675528D01*
G01X2017740Y673054D01*
G01X2017928Y670568D01*
G01X2017989Y668076D01*
G01X2017989Y558074D01*
G01X2017928Y555582D01*
G01X2017740Y553095D01*
G01X2017431Y550621D01*
G01X2016999Y548165D01*
G01X2016443Y545737D01*
G01X2015767Y543336D01*
G01X2014974Y540972D01*
G01X2014063Y538653D01*
G01X2013039Y536379D01*
G01X2011901Y534162D01*
G01X2010654Y532003D01*
G01X2009303Y529908D01*
G01X2007847Y527883D01*
G01X2006293Y525935D01*
G01X2004642Y524066D01*
G01X2002902Y522280D01*
G01X2001073Y520586D01*
G01X1999163Y518983D01*
G01X1997177Y517477D01*
G01X1995117Y516072D01*
G01X1992991Y514772D01*
G01X1990801Y513580D01*
G01X1988553Y512498D01*
G01X1986257Y511531D01*
G01X1983913Y510677D01*
G01X1981530Y509943D01*
G01X1979115Y509328D01*
G01X1976671Y508833D01*
G01X1974207Y508462D01*
G01X1971726Y508213D01*
G01X1969237Y508089D01*
G01X1966742Y508089D01*
G01X1964253Y508213D01*
G01X1961772Y508462D01*
G01X1959308Y508833D01*
G01X1956864Y509328D01*
G01X1954449Y509943D01*
G01X1952066Y510677D01*
G01X1949722Y511531D01*
G01X1947426Y512498D01*
G01X1945178Y513580D01*
G01X1942991Y514772D01*
G01X1940862Y516072D01*
G01X1938802Y517477D01*
G01X1936816Y518983D01*
G01X1934906Y520586D01*
G01X1933077Y522280D01*
G01X1931337Y524066D01*
G01X1929686Y525935D01*
G01X1928132Y527883D01*
G01X1926676Y529908D01*
G01X1925325Y532003D01*
G01X1924078Y534162D01*
G01X1922940Y536379D01*
G01X1921916Y538653D01*
G01X1921005Y540972D01*
G01X1920212Y543336D01*
G01X1919536Y545737D01*
G01X1918980Y548165D01*
G01X1918548Y550621D01*
G01X1918238Y553095D01*
G01X1918051Y555582D01*
G01X1917990Y558074D01*
G01X1917990Y668076D01*
G01X1918051Y670568D01*
G01X1918238Y673054D01*
G01X1918548Y675528D01*
G01X1918980Y677984D01*
G01X1919536Y680413D01*
G01X1920212Y682813D01*
G01X1921005Y685178D01*
G01X1921916Y687497D01*
G01X1922940Y689770D01*
G01X1924078Y691987D01*
G01X1925325Y694146D01*
G01X1926676Y696242D01*
G01X1928132Y698266D01*
G01X1929686Y700215D01*
G01X1931337Y702084D01*
G01X1933077Y703870D01*
G01X1934906Y705564D01*
G01X1936816Y707166D01*
G01X1938802Y708673D01*
G01X1940862Y710077D01*
G01X1942991Y711378D01*
G01X1945178Y712569D01*
G01X1947426Y713651D01*
G01X1949722Y714619D01*
G01X1952066Y715472D01*
G01X1954449Y716206D01*
G01X1956864Y716821D01*
G01X1959308Y717316D01*
G01X1961772Y717687D01*
G01X1964253Y717936D01*
G01X1966742Y718061D01*
G37*
G36*
G01X1971726Y284927D02*
G01X1974207Y284678D01*
G01X1976671Y284307D01*
G01X1979115Y283812D01*
G01X1981530Y283197D01*
G01X1983913Y282463D01*
G01X1986257Y281610D01*
G01X1988553Y280642D01*
G01X1990801Y279560D01*
G01X1992991Y278369D01*
G01X1995117Y277068D01*
G01X1997177Y275664D01*
G01X1999163Y274157D01*
G01X2001073Y272555D01*
G01X2002902Y270861D01*
G01X2004642Y269075D01*
G01X2006293Y267205D01*
G01X2007847Y265257D01*
G01X2009303Y263233D01*
G01X2010654Y261137D01*
G01X2011901Y258978D01*
G01X2013039Y256761D01*
G01X2014063Y254488D01*
G01X2014974Y252169D01*
G01X2015767Y249804D01*
G01X2016443Y247404D01*
G01X2016999Y244975D01*
G01X2017431Y242519D01*
G01X2017740Y240045D01*
G01X2017928Y237559D01*
G01X2017989Y235067D01*
G01X2017989Y155067D01*
G01X2017928Y152575D01*
G01X2017740Y150089D01*
G01X2017431Y147615D01*
G01X2016999Y145158D01*
G01X2016443Y142730D01*
G01X2015767Y140330D01*
G01X2014974Y137965D01*
G01X2014063Y135646D01*
G01X2013039Y133373D01*
G01X2011901Y131155D01*
G01X2010654Y128996D01*
G01X2009303Y126901D01*
G01X2007847Y124877D01*
G01X2006293Y122928D01*
G01X2004642Y121059D01*
G01X2002902Y119273D01*
G01X2001073Y117579D01*
G01X1999163Y115976D01*
G01X1997177Y114470D01*
G01X1995117Y113066D01*
G01X1992991Y111765D01*
G01X1990801Y110574D01*
G01X1988553Y109492D01*
G01X1986257Y108524D01*
G01X1983913Y107671D01*
G01X1981530Y106937D01*
G01X1979115Y106322D01*
G01X1976671Y105827D01*
G01X1974207Y105456D01*
G01X1971726Y105207D01*
G01X1969237Y105082D01*
G01X1966742Y105082D01*
G01X1964253Y105207D01*
G01X1961772Y105456D01*
G01X1959308Y105827D01*
G01X1956864Y106322D01*
G01X1954449Y106937D01*
G01X1952066Y107671D01*
G01X1949722Y108524D01*
G01X1947426Y109492D01*
G01X1945178Y110574D01*
G01X1942991Y111765D01*
G01X1940862Y113066D01*
G01X1938802Y114470D01*
G01X1936816Y115976D01*
G01X1934906Y117579D01*
G01X1933077Y119273D01*
G01X1931337Y121059D01*
G01X1929686Y122928D01*
G01X1928132Y124877D01*
G01X1926676Y126901D01*
G01X1925325Y128996D01*
G01X1924078Y131155D01*
G01X1922940Y133373D01*
G01X1921916Y135646D01*
G01X1921005Y137965D01*
G01X1920212Y140330D01*
G01X1919536Y142730D01*
G01X1918980Y145158D01*
G01X1918548Y147615D01*
G01X1918238Y150089D01*
G01X1918051Y152575D01*
G01X1917990Y155067D01*
G01X1917990Y235067D01*
G01X1918051Y237559D01*
G01X1918238Y240045D01*
G01X1918548Y242519D01*
G01X1918980Y244975D01*
G01X1919536Y247404D01*
G01X1920212Y249804D01*
G01X1921005Y252169D01*
G01X1921916Y254488D01*
G01X1922940Y256761D01*
G01X1924078Y258978D01*
G01X1925325Y261137D01*
G01X1926676Y263233D01*
G01X1928132Y265257D01*
G01X1929686Y267205D01*
G01X1931337Y269075D01*
G01X1933077Y270861D01*
G01X1934906Y272555D01*
G01X1936816Y274157D01*
G01X1938802Y275664D01*
G01X1940862Y277068D01*
G01X1942991Y278369D01*
G01X1945178Y279560D01*
G01X1947426Y280642D01*
G01X1949722Y281610D01*
G01X1952066Y282463D01*
G01X1954449Y283197D01*
G01X1956864Y283812D01*
G01X1959308Y284307D01*
G01X1961772Y284678D01*
G01X1964253Y284927D01*
G01X1966742Y285052D01*
G01X1969237Y285052D01*
G01X1971726Y284927D01*
G37*
G36*
G01X2830749Y285052D02*
G01X2833243Y285052D01*
G01X2835732Y284927D01*
G01X2838214Y284678D01*
G01X2840678Y284307D01*
G01X2843121Y283812D01*
G01X2845537Y283197D01*
G01X2847919Y282463D01*
G01X2850264Y281610D01*
G01X2852560Y280642D01*
G01X2854808Y279560D01*
G01X2856997Y278369D01*
G01X2859123Y277068D01*
G01X2861183Y275664D01*
G01X2863169Y274157D01*
G01X2865079Y272555D01*
G01X2866908Y270861D01*
G01X2868648Y269075D01*
G01X2870299Y267205D01*
G01X2871854Y265257D01*
G01X2873309Y263233D01*
G01X2874660Y261137D01*
G01X2875907Y258978D01*
G01X2877045Y256761D01*
G01X2878069Y254488D01*
G01X2878981Y252169D01*
G01X2879773Y249804D01*
G01X2880449Y247404D01*
G01X2881005Y244975D01*
G01X2881437Y242519D01*
G01X2881747Y240045D01*
G01X2881935Y237559D01*
G01X2881996Y235067D01*
G01X2881996Y155067D01*
G01X2881935Y152575D01*
G01X2881747Y150089D01*
G01X2881437Y147615D01*
G01X2881005Y145158D01*
G01X2880449Y142730D01*
G01X2879773Y140330D01*
G01X2878981Y137965D01*
G01X2878069Y135646D01*
G01X2877045Y133373D01*
G01X2875907Y131155D01*
G01X2874660Y128996D01*
G01X2873309Y126901D01*
G01X2871854Y124877D01*
G01X2870299Y122928D01*
G01X2868648Y121059D01*
G01X2866908Y119273D01*
G01X2865079Y117579D01*
G01X2863169Y115976D01*
G01X2861183Y114470D01*
G01X2859123Y113066D01*
G01X2856997Y111765D01*
G01X2854808Y110574D01*
G01X2852560Y109492D01*
G01X2850264Y108524D01*
G01X2847919Y107671D01*
G01X2845537Y106937D01*
G01X2843121Y106322D01*
G01X2840678Y105827D01*
G01X2838214Y105456D01*
G01X2835732Y105207D01*
G01X2833243Y105082D01*
G01X2830749Y105082D01*
G01X2828260Y105207D01*
G01X2825778Y105456D01*
G01X2823314Y105827D01*
G01X2820871Y106322D01*
G01X2818455Y106937D01*
G01X2816073Y107671D01*
G01X2813728Y108524D01*
G01X2811432Y109492D01*
G01X2809184Y110574D01*
G01X2806997Y111765D01*
G01X2804869Y113066D01*
G01X2802809Y114470D01*
G01X2800822Y115976D01*
G01X2798912Y117579D01*
G01X2797084Y119273D01*
G01X2795344Y121059D01*
G01X2793693Y122928D01*
G01X2792138Y124877D01*
G01X2790683Y126901D01*
G01X2789331Y128996D01*
G01X2788084Y131155D01*
G01X2786946Y133373D01*
G01X2785923Y135646D01*
G01X2785011Y137965D01*
G01X2784218Y140330D01*
G01X2783543Y142730D01*
G01X2782987Y145158D01*
G01X2782555Y147615D01*
G01X2782245Y150089D01*
G01X2782057Y152575D01*
G01X2781996Y155067D01*
G01X2781996Y235067D01*
G01X2782057Y237559D01*
G01X2782245Y240045D01*
G01X2782555Y242519D01*
G01X2782987Y244975D01*
G01X2783543Y247404D01*
G01X2784218Y249804D01*
G01X2785011Y252169D01*
G01X2785923Y254488D01*
G01X2786946Y256761D01*
G01X2788084Y258978D01*
G01X2789331Y261137D01*
G01X2790683Y263233D01*
G01X2792138Y265257D01*
G01X2793693Y267205D01*
G01X2795344Y269075D01*
G01X2797084Y270861D01*
G01X2798912Y272555D01*
G01X2800822Y274157D01*
G01X2802809Y275664D01*
G01X2804869Y277068D01*
G01X2806997Y278369D01*
G01X2809184Y279560D01*
G01X2811432Y280642D01*
G01X2813728Y281610D01*
G01X2816073Y282463D01*
G01X2818455Y283197D01*
G01X2820871Y283812D01*
G01X2823314Y284307D01*
G01X2825778Y284678D01*
G01X2828260Y284927D01*
G01X2830749Y285052D01*
G37*
G36*
G01X1164074Y3758070D02*
G01X1036076Y3758070D01*
G01X1031075Y3763071D01*
G01X1031075Y3878072D01*
G01X1036076Y3883071D01*
G01X1077079Y3883574D01*
G01X1077079Y3838572D01*
G01X1122078Y3838572D01*
G01X1122078Y3882573D01*
G01X1164074Y3883071D01*
G01X1169076Y3878072D01*
G01X1169076Y3763071D01*
G01X1164074Y3758070D01*
G37*
G36*
G01X1036074Y4099065D02*
G01X1164072Y4099065D01*
G01X1169073Y4094063D01*
G01X1169073Y3979062D01*
G01X1164072Y3974064D01*
G01X1123069Y3973561D01*
G01X1123069Y4018562D01*
G01X1078070Y4018562D01*
G01X1078070Y3974562D01*
G01X1036074Y3974064D01*
G01X1031072Y3979062D01*
G01X1031072Y4094063D01*
G01X1036074Y4099065D01*
G37*
G36*
G01X3975768Y3850221D02*
G01X4103766Y3850221D01*
G01X4108768Y3845220D01*
G01X4108768Y3730219D01*
G01X4103766Y3725220D01*
G01X4062763Y3724717D01*
G01X4062763Y3769718D01*
G01X4017764Y3769718D01*
G01X4017764Y3725718D01*
G01X3975768Y3725220D01*
G01X3970767Y3730219D01*
G01X3970767Y3845220D01*
G01X3975768Y3850221D01*
G37*
G36*
G01X4103769Y3509226D02*
G01X3975771Y3509226D01*
G01X3970769Y3514227D01*
G01X3970769Y3629228D01*
G01X3975771Y3634227D01*
G01X4016774Y3634730D01*
G01X4016774Y3589729D01*
G01X4061772Y3589729D01*
G01X4061772Y3633729D01*
G01X4103769Y3634227D01*
G01X4108770Y3629228D01*
G01X4108770Y3514227D01*
G01X4103769Y3509226D01*
G37*
G36*
G01X3816228Y6339114D02*
G01X3811229Y6344115D01*
G01X3811229Y6424115D01*
G01X3816228Y6429113D01*
G01X3896228Y6429113D01*
G01X3901229Y6424115D01*
G01X3901229Y6399911D01*
G01X3864229Y6399911D01*
G01X3864229Y6366911D01*
G01X3901229Y6366911D01*
G01X3901229Y6344115D01*
G01X3896228Y6339114D01*
G01X3816228Y6339114D01*
G37*
G36*
G01X4055232Y6429111D02*
G01X4060231Y6424110D01*
G01X4060231Y6344110D01*
G01X4055232Y6339111D01*
G01X3975232Y6339111D01*
G01X3970231Y6344110D01*
G01X3970231Y6368313D01*
G01X4007231Y6368313D01*
G01X4007231Y6401313D01*
G01X3970231Y6401313D01*
G01X3970231Y6424110D01*
G01X3975232Y6429111D01*
G01X4055232Y6429111D01*
G37*
G36*
G01X2725334Y1087506D02*
G01X2720332Y1082507D01*
G01X2640333Y1082507D01*
G01X2635334Y1087506D01*
G01X2635334Y1167506D01*
G01X2640333Y1172507D01*
G01X2664536Y1172507D01*
G01X2664536Y1135507D01*
G01X2697536Y1135507D01*
G01X2697536Y1172507D01*
G01X2720332Y1172507D01*
G01X2725334Y1167506D01*
G01X2725334Y1087506D01*
G37*
G36*
G01X2635336Y1326510D02*
G01X2640338Y1331509D01*
G01X2720337Y1331509D01*
G01X2725336Y1326510D01*
G01X2725336Y1246510D01*
G01X2720337Y1241509D01*
G01X2696134Y1241509D01*
G01X2696134Y1278509D01*
G01X2663134Y1278509D01*
G01X2663134Y1241509D01*
G01X2640338Y1241509D01*
G01X2635336Y1246510D01*
G01X2635336Y1326510D01*
G37*
G36*
G01X3315094Y4390601D02*
G01X3315094Y4518599D01*
G01X3320095Y4523600D01*
G01X3435096Y4523600D01*
G01X3440095Y4518599D01*
G01X3440598Y4477596D01*
G01X3395596Y4477596D01*
G01X3395596Y4432597D01*
G01X3439597Y4432597D01*
G01X3440095Y4390601D01*
G01X3435096Y4385600D01*
G01X3320095Y4385600D01*
G01X3315094Y4390601D01*
G37*
G36*
G01X3656089Y4518602D02*
G01X3656089Y4390603D01*
G01X3651087Y4385602D01*
G01X3536086Y4385602D01*
G01X3531088Y4390603D01*
G01X3530585Y4431607D01*
G01X3575586Y4431607D01*
G01X3575586Y4476605D01*
G01X3531586Y4476605D01*
G01X3531088Y4518602D01*
G01X3536086Y4523603D01*
G01X3651087Y4523603D01*
G01X3656089Y4518602D01*
G37*
G36*
G01X2235744Y2752402D02*
G01X2240745Y2757401D01*
G01X2320745Y2757401D01*
G01X2325743Y2752402D01*
G01X2325743Y2672403D01*
G01X2320745Y2667401D01*
G01X2296541Y2667401D01*
G01X2296541Y2704402D01*
G01X2263541Y2704402D01*
G01X2263541Y2667401D01*
G01X2240745Y2667401D01*
G01X2235744Y2672403D01*
G01X2235744Y2752402D01*
G37*
G36*
G01X2325741Y2513399D02*
G01X2320740Y2508400D01*
G01X2240740Y2508400D01*
G01X2235741Y2513399D01*
G01X2235741Y2593398D01*
G01X2240740Y2598400D01*
G01X2264943Y2598400D01*
G01X2264943Y2561400D01*
G01X2297943Y2561400D01*
G01X2297943Y2598400D01*
G01X2320740Y2598400D01*
G01X2325741Y2593398D01*
G01X2325741Y2513399D01*
G37*
G36*
G01X3828242Y5843483D02*
G01X3823244Y5848485D01*
G01X3823244Y5928484D01*
G01X3828242Y5933483D01*
G01X3908242Y5933483D01*
G01X3913243Y5928484D01*
G01X3913243Y5904281D01*
G01X3876243Y5904281D01*
G01X3876243Y5871281D01*
G01X3913243Y5871281D01*
G01X3913243Y5848485D01*
G01X3908242Y5843483D01*
G01X3828242Y5843483D01*
G37*
G36*
G01X4067246Y5933481D02*
G01X4072245Y5928479D01*
G01X4072245Y5848480D01*
G01X4067246Y5843481D01*
G01X3987246Y5843481D01*
G01X3982245Y5848480D01*
G01X3982245Y5872683D01*
G01X4019245Y5872683D01*
G01X4019245Y5905683D01*
G01X3982245Y5905683D01*
G01X3982245Y5928479D01*
G01X3987246Y5933481D01*
G01X4067246Y5933481D01*
G37*
G36*
G01X2355969Y2080324D02*
G01X2227971Y2080324D01*
G01X2222970Y2085325D01*
G01X2222970Y2200326D01*
G01X2227971Y2205325D01*
G01X2268974Y2205827D01*
G01X2268974Y2160826D01*
G01X2313973Y2160826D01*
G01X2313973Y2204827D01*
G01X2355969Y2205325D01*
G01X2360971Y2200326D01*
G01X2360971Y2085325D01*
G01X2355969Y2080324D01*
G37*
G36*
G01X2227969Y2421319D02*
G01X2355967Y2421319D01*
G01X2360968Y2416317D01*
G01X2360968Y2301316D01*
G01X2355967Y2296317D01*
G01X2314964Y2295815D01*
G01X2314964Y2340816D01*
G01X2269965Y2340816D01*
G01X2269965Y2296815D01*
G01X2227969Y2296317D01*
G01X2222967Y2301316D01*
G01X2222967Y2416317D01*
G01X2227969Y2421319D01*
G37*
G36*
G01X2088888Y2080324D02*
G01X1960890Y2080324D01*
G01X1955889Y2085325D01*
G01X1955889Y2200326D01*
G01X1960890Y2205325D01*
G01X2001893Y2205827D01*
G01X2001893Y2160826D01*
G01X2046892Y2160826D01*
G01X2046892Y2204827D01*
G01X2088888Y2205325D01*
G01X2093890Y2200326D01*
G01X2093890Y2085325D01*
G01X2088888Y2080324D01*
G37*
G36*
G01X1960888Y2421319D02*
G01X2088886Y2421319D01*
G01X2093887Y2416317D01*
G01X2093887Y2301316D01*
G01X2088886Y2296317D01*
G01X2047883Y2295815D01*
G01X2047883Y2340816D01*
G01X2002884Y2340816D01*
G01X2002884Y2296815D01*
G01X1960888Y2296317D01*
G01X1955886Y2301316D01*
G01X1955886Y2416317D01*
G01X1960888Y2421319D01*
G37*
G36*
G01X1757243Y5078415D02*
G01X1762242Y5073414D01*
G01X1762242Y4993414D01*
G01X1757243Y4988415D01*
G01X1677243Y4988415D01*
G01X1672242Y4993414D01*
G01X1672242Y5017618D01*
G01X1709242Y5017618D01*
G01X1709242Y5050617D01*
G01X1672242Y5050617D01*
G01X1672242Y5073414D01*
G01X1677243Y5078415D01*
G01X1757243Y5078415D01*
G37*
G36*
G01X1518239Y4988418D02*
G01X1513241Y4993419D01*
G01X1513241Y5073419D01*
G01X1518239Y5078418D01*
G01X1598239Y5078418D01*
G01X1603240Y5073419D01*
G01X1603240Y5049215D01*
G01X1566240Y5049215D01*
G01X1566240Y5016216D01*
G01X1603240Y5016216D01*
G01X1603240Y4993419D01*
G01X1598239Y4988418D01*
G01X1518239Y4988418D01*
G37*
G36*
G01X4055232Y7740005D02*
G01X4060231Y7735004D01*
G01X4060231Y7655004D01*
G01X4055232Y7650005D01*
G01X3975232Y7650005D01*
G01X3970231Y7655004D01*
G01X3970231Y7679207D01*
G01X4007231Y7679207D01*
G01X4007231Y7712207D01*
G01X3970231Y7712207D01*
G01X3970231Y7735004D01*
G01X3975232Y7740005D01*
G01X4055232Y7740005D01*
G37*
G36*
G01X3816228Y7650008D02*
G01X3811229Y7655009D01*
G01X3811229Y7735009D01*
G01X3816228Y7740007D01*
G01X3896228Y7740007D01*
G01X3901229Y7735009D01*
G01X3901229Y7710805D01*
G01X3864229Y7710805D01*
G01X3864229Y7677805D01*
G01X3901229Y7677805D01*
G01X3901229Y7655009D01*
G01X3896228Y7650008D01*
G01X3816228Y7650008D01*
G37*
G36*
G01X3319950Y2060575D02*
G01X3191952Y2060575D01*
G01X3186951Y2065576D01*
G01X3186951Y2180577D01*
G01X3191952Y2185576D01*
G01X3232955Y2186079D01*
G01X3232955Y2141078D01*
G01X3277954Y2141078D01*
G01X3277954Y2185078D01*
G01X3319950Y2185576D01*
G01X3324951Y2180577D01*
G01X3324951Y2065576D01*
G01X3319950Y2060575D01*
G37*
G36*
G01X3319950Y2275576D02*
G01X3277954Y2275578D01*
G01X3277954Y2320077D01*
G01X3232955Y2320077D01*
G01X3232955Y2276079D01*
G01X3191952Y2275576D01*
G01X3186951Y2280577D01*
G01X3186951Y2395576D01*
G01X3191952Y2400577D01*
G01X3319950Y2400577D01*
G01X3324951Y2395576D01*
G01X3324951Y2280577D01*
G01X3319950Y2275576D01*
G37*
G36*
G01X3088394Y4114185D02*
G01X3216392Y4114185D01*
G01X3221393Y4109184D01*
G01X3221393Y3994183D01*
G01X3216392Y3989184D01*
G01X3175389Y3988681D01*
G01X3175389Y4033683D01*
G01X3130390Y4033683D01*
G01X3130390Y3989682D01*
G01X3088394Y3989184D01*
G01X3083392Y3994183D01*
G01X3083392Y4109184D01*
G01X3088394Y4114185D01*
G37*
G36*
G01X3216394Y3773190D02*
G01X3088396Y3773190D01*
G01X3083395Y3778192D01*
G01X3083395Y3893193D01*
G01X3088396Y3898191D01*
G01X3129399Y3898694D01*
G01X3129399Y3853693D01*
G01X3174398Y3853693D01*
G01X3174398Y3897694D01*
G01X3216394Y3898191D01*
G01X3221396Y3893193D01*
G01X3221396Y3778192D01*
G01X3216394Y3773190D01*
G37*
G36*
G01X2989720Y4251521D02*
G01X2989720Y4123522D01*
G01X2984718Y4118521D01*
G01X2869717Y4118521D01*
G01X2864719Y4123522D01*
G01X2864216Y4164526D01*
G01X2909217Y4164526D01*
G01X2909217Y4209524D01*
G01X2865217Y4209524D01*
G01X2864719Y4251521D01*
G01X2869717Y4256522D01*
G01X2984718Y4256522D01*
G01X2989720Y4251521D01*
G37*
G36*
G01X2648725Y4123520D02*
G01X2648725Y4251518D01*
G01X2653726Y4256519D01*
G01X2768727Y4256519D01*
G01X2773726Y4251518D01*
G01X2774229Y4210515D01*
G01X2729227Y4210515D01*
G01X2729227Y4165516D01*
G01X2773228Y4165516D01*
G01X2773726Y4123520D01*
G01X2768727Y4118519D01*
G01X2653726Y4118519D01*
G01X2648725Y4123520D01*
G37*
G36*
G01X4566072Y3299160D02*
G01X4561070Y3294162D01*
G01X4481071Y3294162D01*
G01X4476072Y3299160D01*
G01X4476072Y3379160D01*
G01X4481071Y3384161D01*
G01X4505274Y3384161D01*
G01X4505274Y3347161D01*
G01X4538274Y3347161D01*
G01X4538274Y3384161D01*
G01X4561070Y3384161D01*
G01X4566072Y3379160D01*
G01X4566072Y3299160D01*
G37*
G36*
G01X4476074Y3538164D02*
G01X4481076Y3543163D01*
G01X4561075Y3543163D01*
G01X4566074Y3538164D01*
G01X4566074Y3458164D01*
G01X4561075Y3453163D01*
G01X4536872Y3453163D01*
G01X4536872Y3490163D01*
G01X4503872Y3490163D01*
G01X4503872Y3453163D01*
G01X4481076Y3453163D01*
G01X4476074Y3458164D01*
G01X4476074Y3538164D01*
G37*
G36*
G01X3315094Y5163294D02*
G01X3315094Y5291292D01*
G01X3320095Y5296294D01*
G01X3435096Y5296294D01*
G01X3440095Y5291292D01*
G01X3440598Y5250289D01*
G01X3395596Y5250289D01*
G01X3395596Y5205291D01*
G01X3439597Y5205291D01*
G01X3440095Y5163294D01*
G01X3435096Y5158293D01*
G01X3320095Y5158293D01*
G01X3315094Y5163294D01*
G37*
G36*
G01X3656089Y5291295D02*
G01X3656089Y5163297D01*
G01X3651087Y5158296D01*
G01X3536086Y5158296D01*
G01X3531088Y5163297D01*
G01X3530585Y5204300D01*
G01X3575586Y5204300D01*
G01X3575586Y5249299D01*
G01X3531586Y5249299D01*
G01X3531088Y5291295D01*
G01X3536086Y5296296D01*
G01X3651087Y5296296D01*
G01X3656089Y5291295D01*
G37*
G36*
G01X3085043Y371521D02*
G01X3090045Y376519D01*
G01X3170044Y376519D01*
G01X3175043Y371521D01*
G01X3175043Y291521D01*
G01X3170044Y286520D01*
G01X3145841Y286520D01*
G01X3145841Y323520D01*
G01X3112841Y323520D01*
G01X3112841Y286520D01*
G01X3090045Y286520D01*
G01X3085043Y291521D01*
G01X3085043Y371521D01*
G37*
G36*
G01X3175041Y132517D02*
G01X3170039Y127518D01*
G01X3090040Y127518D01*
G01X3085041Y132517D01*
G01X3085041Y212517D01*
G01X3090040Y217518D01*
G01X3114243Y217518D01*
G01X3114243Y180518D01*
G01X3147243Y180518D01*
G01X3147243Y217518D01*
G01X3170039Y217518D01*
G01X3175041Y212517D01*
G01X3175041Y132517D01*
G37*
G36*
G01X1698236Y3758070D02*
G01X1570238Y3758070D01*
G01X1565237Y3763071D01*
G01X1565237Y3878072D01*
G01X1570238Y3883071D01*
G01X1611241Y3883574D01*
G01X1611241Y3838572D01*
G01X1656240Y3838572D01*
G01X1656240Y3882573D01*
G01X1698236Y3883071D01*
G01X1703238Y3878072D01*
G01X1703238Y3763071D01*
G01X1698236Y3758070D01*
G37*
G36*
G01X1570236Y4099065D02*
G01X1698234Y4099065D01*
G01X1703235Y4094063D01*
G01X1703235Y3979062D01*
G01X1698234Y3974064D01*
G01X1657231Y3973561D01*
G01X1657231Y4018562D01*
G01X1612232Y4018562D01*
G01X1612232Y3974562D01*
G01X1570236Y3974064D01*
G01X1565234Y3979062D01*
G01X1565234Y4094063D01*
G01X1570236Y4099065D01*
G37*
G36*
G01X2989720Y3984440D02*
G01X2989720Y3856441D01*
G01X2984718Y3851440D01*
G01X2869717Y3851440D01*
G01X2864719Y3856441D01*
G01X2864216Y3897445D01*
G01X2909217Y3897445D01*
G01X2909217Y3942443D01*
G01X2865217Y3942443D01*
G01X2864719Y3984440D01*
G01X2869717Y3989441D01*
G01X2984718Y3989441D01*
G01X2989720Y3984440D01*
G37*
G36*
G01X2648725Y3856439D02*
G01X2648725Y3984437D01*
G01X2653726Y3989438D01*
G01X2768727Y3989438D01*
G01X2773726Y3984437D01*
G01X2774229Y3943434D01*
G01X2729227Y3943434D01*
G01X2729227Y3898435D01*
G01X2773228Y3898435D01*
G01X2773726Y3856439D01*
G01X2768727Y3851438D01*
G01X2653726Y3851438D01*
G01X2648725Y3856439D01*
G37*
G36*
G01X976516Y5550507D02*
G01X976516Y5422509D01*
G01X971514Y5417508D01*
G01X856513Y5417508D01*
G01X851515Y5422509D01*
G01X851012Y5463512D01*
G01X896013Y5463512D01*
G01X896013Y5508511D01*
G01X852013Y5508511D01*
G01X851515Y5550507D01*
G01X856513Y5555508D01*
G01X971514Y5555508D01*
G01X976516Y5550507D01*
G37*
G36*
G01X635521Y5422506D02*
G01X635521Y5550505D01*
G01X640522Y5555506D01*
G01X755523Y5555506D01*
G01X760522Y5550505D01*
G01X761025Y5509501D01*
G01X716023Y5509501D01*
G01X716023Y5464503D01*
G01X760024Y5464503D01*
G01X760522Y5422506D01*
G01X755523Y5417505D01*
G01X640522Y5417505D01*
G01X635521Y5422506D01*
G37*
G36*
G01X1757243Y5296906D02*
G01X1762242Y5291905D01*
G01X1762242Y5211905D01*
G01X1757243Y5206906D01*
G01X1677243Y5206906D01*
G01X1672242Y5211905D01*
G01X1672242Y5236108D01*
G01X1709242Y5236108D01*
G01X1709242Y5269108D01*
G01X1672242Y5269108D01*
G01X1672242Y5291905D01*
G01X1677243Y5296906D01*
G01X1757243Y5296906D01*
G37*
G36*
G01X1518239Y5206909D02*
G01X1513241Y5211910D01*
G01X1513241Y5291910D01*
G01X1518239Y5296908D01*
G01X1598239Y5296908D01*
G01X1603240Y5291910D01*
G01X1603240Y5267706D01*
G01X1566240Y5267706D01*
G01X1566240Y5234706D01*
G01X1603240Y5234706D01*
G01X1603240Y5211910D01*
G01X1598239Y5206909D01*
G01X1518239Y5206909D01*
G37*
G36*
G01X2604557Y5013482D02*
G01X2599555Y5008484D01*
G01X2519556Y5008484D01*
G01X2514557Y5013482D01*
G01X2514557Y5093482D01*
G01X2519556Y5098484D01*
G01X2543759Y5098484D01*
G01X2543759Y5061483D01*
G01X2576759Y5061483D01*
G01X2576759Y5098484D01*
G01X2599555Y5098484D01*
G01X2604557Y5093482D01*
G01X2604557Y5013482D01*
G37*
G36*
G01X2514559Y5252486D02*
G01X2519561Y5257485D01*
G01X2599560Y5257485D01*
G01X2604559Y5252486D01*
G01X2604559Y5172486D01*
G01X2599560Y5167485D01*
G01X2575357Y5167485D01*
G01X2575357Y5204485D01*
G01X2542357Y5204485D01*
G01X2542357Y5167485D01*
G01X2519561Y5167485D01*
G01X2514559Y5172486D01*
G01X2514559Y5252486D01*
G37*
G36*
G01X2827848Y2203953D02*
G01X2827848Y2075955D01*
G01X2822847Y2070953D01*
G01X2707846Y2070953D01*
G01X2702847Y2075955D01*
G01X2702344Y2116958D01*
G01X2747345Y2116958D01*
G01X2747345Y2161957D01*
G01X2703345Y2161957D01*
G01X2702847Y2203953D01*
G01X2707846Y2208954D01*
G01X2822847Y2208954D01*
G01X2827848Y2203953D01*
G37*
G36*
G01X2612847Y2203953D02*
G01X2612845Y2161957D01*
G01X2568346Y2161957D01*
G01X2568346Y2116958D01*
G01X2612344Y2116958D01*
G01X2612847Y2075955D01*
G01X2607846Y2070953D01*
G01X2492847Y2070953D01*
G01X2487846Y2075955D01*
G01X2487846Y2203953D01*
G01X2492847Y2208954D01*
G01X2607846Y2208954D01*
G01X2612847Y2203953D01*
G37*
G36*
G01X4055232Y7084558D02*
G01X4060231Y7079557D01*
G01X4060231Y6999557D01*
G01X4055232Y6994558D01*
G01X3975232Y6994558D01*
G01X3970231Y6999557D01*
G01X3970231Y7023760D01*
G01X4007231Y7023760D01*
G01X4007231Y7056760D01*
G01X3970231Y7056760D01*
G01X3970231Y7079557D01*
G01X3975232Y7084558D01*
G01X4055232Y7084558D01*
G37*
G36*
G01X3816228Y6994561D02*
G01X3811229Y6999562D01*
G01X3811229Y7079562D01*
G01X3816228Y7084560D01*
G01X3896228Y7084560D01*
G01X3901229Y7079562D01*
G01X3901229Y7055358D01*
G01X3864229Y7055358D01*
G01X3864229Y7022358D01*
G01X3901229Y7022358D01*
G01X3901229Y6999562D01*
G01X3896228Y6994561D01*
G01X3816228Y6994561D01*
G37*
G36*
G01X1339403Y2502083D02*
G01X1339403Y2630081D01*
G01X1344404Y2635082D01*
G01X1459405Y2635082D01*
G01X1464404Y2630081D01*
G01X1464907Y2589078D01*
G01X1419906Y2589078D01*
G01X1419906Y2544079D01*
G01X1463906Y2544079D01*
G01X1464404Y2502083D01*
G01X1459405Y2497082D01*
G01X1344404Y2497082D01*
G01X1339403Y2502083D01*
G37*
G36*
G01X1554404Y2502083D02*
G01X1554406Y2544079D01*
G01X1598905Y2544079D01*
G01X1598905Y2589078D01*
G01X1554907Y2589078D01*
G01X1554404Y2630081D01*
G01X1559405Y2635082D01*
G01X1674404Y2635082D01*
G01X1679405Y2630081D01*
G01X1679405Y2502083D01*
G01X1674404Y2497082D01*
G01X1559405Y2497082D01*
G01X1554404Y2502083D01*
G37*
G36*
G01X1128916Y5308859D02*
G01X1128916Y5180861D01*
G01X1123914Y5175860D01*
G01X1008913Y5175860D01*
G01X1003915Y5180861D01*
G01X1003412Y5221864D01*
G01X1048413Y5221864D01*
G01X1048413Y5266863D01*
G01X1004413Y5266863D01*
G01X1003915Y5308859D01*
G01X1008913Y5313860D01*
G01X1123914Y5313860D01*
G01X1128916Y5308859D01*
G37*
G36*
G01X787921Y5180858D02*
G01X787921Y5308857D01*
G01X792922Y5313858D01*
G01X907923Y5313858D01*
G01X912922Y5308857D01*
G01X913425Y5267853D01*
G01X868423Y5267853D01*
G01X868423Y5222855D01*
G01X912424Y5222855D01*
G01X912922Y5180858D01*
G01X907923Y5175857D01*
G01X792922Y5175857D01*
G01X787921Y5180858D01*
G37*
G36*
G01X1757243Y5515397D02*
G01X1762242Y5510395D01*
G01X1762242Y5430396D01*
G01X1757243Y5425397D01*
G01X1677243Y5425397D01*
G01X1672242Y5430396D01*
G01X1672242Y5454599D01*
G01X1709242Y5454599D01*
G01X1709242Y5487599D01*
G01X1672242Y5487599D01*
G01X1672242Y5510395D01*
G01X1677243Y5515397D01*
G01X1757243Y5515397D01*
G37*
G36*
G01X1518239Y5425399D02*
G01X1513241Y5430401D01*
G01X1513241Y5510400D01*
G01X1518239Y5515399D01*
G01X1598239Y5515399D01*
G01X1603240Y5510400D01*
G01X1603240Y5486197D01*
G01X1566240Y5486197D01*
G01X1566240Y5453197D01*
G01X1603240Y5453197D01*
G01X1603240Y5430401D01*
G01X1598239Y5425399D01*
G01X1518239Y5425399D01*
G37*
G36*
G01X1080049Y3009778D02*
G01X1075047Y3004779D01*
G01X995048Y3004779D01*
G01X990049Y3009778D01*
G01X990049Y3089778D01*
G01X995048Y3094779D01*
G01X1019251Y3094779D01*
G01X1019251Y3057779D01*
G01X1052251Y3057779D01*
G01X1052251Y3094779D01*
G01X1075047Y3094779D01*
G01X1080049Y3089778D01*
G01X1080049Y3009778D01*
G37*
G36*
G01X990051Y3248782D02*
G01X995053Y3253781D01*
G01X1075052Y3253781D01*
G01X1080051Y3248782D01*
G01X1080051Y3168782D01*
G01X1075052Y3163781D01*
G01X1050849Y3163781D01*
G01X1050849Y3200781D01*
G01X1017849Y3200781D01*
G01X1017849Y3163781D01*
G01X995053Y3163781D01*
G01X990051Y3168782D01*
G01X990051Y3248782D01*
G37*
G36*
G01X2989720Y3717359D02*
G01X2989720Y3589360D01*
G01X2984718Y3584359D01*
G01X2869717Y3584359D01*
G01X2864719Y3589360D01*
G01X2864216Y3630364D01*
G01X2909217Y3630364D01*
G01X2909217Y3675362D01*
G01X2865217Y3675362D01*
G01X2864719Y3717359D01*
G01X2869717Y3722360D01*
G01X2984718Y3722360D01*
G01X2989720Y3717359D01*
G37*
G36*
G01X2648725Y3589358D02*
G01X2648725Y3717356D01*
G01X2653726Y3722357D01*
G01X2768727Y3722357D01*
G01X2773726Y3717356D01*
G01X2774229Y3676353D01*
G01X2729227Y3676353D01*
G01X2729227Y3631354D01*
G01X2773228Y3631354D01*
G01X2773726Y3589358D01*
G01X2768727Y3584357D01*
G01X2653726Y3584357D01*
G01X2648725Y3589358D01*
G37*
G36*
G01X4055232Y6647602D02*
G01X4060231Y6642600D01*
G01X4060231Y6562601D01*
G01X4055232Y6557602D01*
G01X3975232Y6557602D01*
G01X3970231Y6562601D01*
G01X3970231Y6586804D01*
G01X4007231Y6586804D01*
G01X4007231Y6619804D01*
G01X3970231Y6619804D01*
G01X3970231Y6642600D01*
G01X3975232Y6647602D01*
G01X4055232Y6647602D01*
G37*
G36*
G01X3816228Y6557604D02*
G01X3811229Y6562606D01*
G01X3811229Y6642605D01*
G01X3816228Y6647604D01*
G01X3896228Y6647604D01*
G01X3901229Y6642605D01*
G01X3901229Y6618402D01*
G01X3864229Y6618402D01*
G01X3864229Y6585402D01*
G01X3901229Y6585402D01*
G01X3901229Y6562606D01*
G01X3896228Y6557604D01*
G01X3816228Y6557604D01*
G37*
G36*
G01X4258432Y7958470D02*
G01X4263431Y7953469D01*
G01X4263431Y7873469D01*
G01X4258432Y7868470D01*
G01X4178432Y7868470D01*
G01X4173431Y7873469D01*
G01X4173431Y7897673D01*
G01X4210431Y7897673D01*
G01X4210431Y7930672D01*
G01X4173431Y7930672D01*
G01X4173431Y7953469D01*
G01X4178432Y7958470D01*
G01X4258432Y7958470D01*
G37*
G36*
G01X4019428Y7868473D02*
G01X4014429Y7873474D01*
G01X4014429Y7953474D01*
G01X4019428Y7958473D01*
G01X4099428Y7958473D01*
G01X4104429Y7953474D01*
G01X4104429Y7929270D01*
G01X4067429Y7929270D01*
G01X4067429Y7896271D01*
G01X4104429Y7896271D01*
G01X4104429Y7873474D01*
G01X4099428Y7868473D01*
G01X4019428Y7868473D01*
G37*
G36*
G01X3315094Y3856439D02*
G01X3315094Y3984437D01*
G01X3320095Y3989438D01*
G01X3435096Y3989438D01*
G01X3440095Y3984437D01*
G01X3440598Y3943434D01*
G01X3395596Y3943434D01*
G01X3395596Y3898435D01*
G01X3439597Y3898435D01*
G01X3440095Y3856439D01*
G01X3435096Y3851438D01*
G01X3320095Y3851438D01*
G01X3315094Y3856439D01*
G37*
G36*
G01X3656089Y3984440D02*
G01X3656089Y3856441D01*
G01X3651087Y3851440D01*
G01X3536086Y3851440D01*
G01X3531088Y3856441D01*
G01X3530585Y3897445D01*
G01X3575586Y3897445D01*
G01X3575586Y3942443D01*
G01X3531586Y3942443D01*
G01X3531088Y3984440D01*
G01X3536086Y3989441D01*
G01X3651087Y3989441D01*
G01X3656089Y3984440D01*
G37*
G36*
G01X2838313Y5013482D02*
G01X2833312Y5008484D01*
G01X2753312Y5008484D01*
G01X2748313Y5013482D01*
G01X2748313Y5093482D01*
G01X2753312Y5098484D01*
G01X2777515Y5098484D01*
G01X2777515Y5061483D01*
G01X2810515Y5061483D01*
G01X2810515Y5098484D01*
G01X2833312Y5098484D01*
G01X2838313Y5093482D01*
G01X2838313Y5013482D01*
G37*
G36*
G01X2748316Y5252486D02*
G01X2753317Y5257485D01*
G01X2833317Y5257485D01*
G01X2838315Y5252486D01*
G01X2838315Y5172486D01*
G01X2833317Y5167485D01*
G01X2809113Y5167485D01*
G01X2809113Y5204485D01*
G01X2776113Y5204485D01*
G01X2776113Y5167485D01*
G01X2753317Y5167485D01*
G01X2748316Y5172486D01*
G01X2748316Y5252486D01*
G37*
G36*
G01X3609475Y3146316D02*
G01X3737473Y3146316D01*
G01X3742474Y3141315D01*
G01X3742474Y3026313D01*
G01X3737473Y3021315D01*
G01X3696470Y3020812D01*
G01X3696470Y3065813D01*
G01X3651471Y3065813D01*
G01X3651471Y3021813D01*
G01X3609475Y3021315D01*
G01X3604473Y3026313D01*
G01X3604473Y3141315D01*
G01X3609475Y3146316D01*
G37*
G36*
G01X3737475Y2805321D02*
G01X3609477Y2805321D01*
G01X3604476Y2810322D01*
G01X3604476Y2925323D01*
G01X3609477Y2930322D01*
G01X3650480Y2930825D01*
G01X3650480Y2885824D01*
G01X3695479Y2885824D01*
G01X3695479Y2929824D01*
G01X3737475Y2930322D01*
G01X3742477Y2925323D01*
G01X3742477Y2810322D01*
G01X3737475Y2805321D01*
G37*
G36*
G01X2162500Y1944990D02*
G01X2187499Y1944990D01*
G01X2187499Y1859991D01*
G01X2162500Y1859991D01*
G01X2162500Y1944990D01*
G37*
G36*
G01X1987489Y1859991D02*
G01X1962490Y1859991D01*
G01X1962490Y1944990D01*
G01X1987489Y1944990D01*
G01X1987489Y1859991D01*
G37*
G36*
G01X2212503Y1944990D02*
G01X2237501Y1944990D01*
G01X2237501Y1859991D01*
G01X2212503Y1859991D01*
G01X2212503Y1944990D01*
G37*
G36*
G01X2037491Y1859991D02*
G01X2012493Y1859991D01*
G01X2012493Y1944990D01*
G01X2037491Y1944990D01*
G01X2037491Y1859991D01*
G37*
G36*
G01X2087494Y1859991D02*
G01X2062495Y1859991D01*
G01X2062495Y1944990D01*
G01X2087494Y1944990D01*
G01X2087494Y1859991D01*
G37*
G36*
G01X2137496Y1859991D02*
G01X2112498Y1859991D01*
G01X2112498Y1944990D01*
G01X2137496Y1944990D01*
G01X2137496Y1859991D01*
G37*
G36*
G01X1939991Y1812506D02*
G01X1854992Y1812506D01*
G01X1854992Y1837505D01*
G01X1939991Y1837505D01*
G01X1939991Y1812506D01*
G37*
G36*
G01X2344989Y1812501D02*
G01X2259990Y1812501D01*
G01X2259990Y1837500D01*
G01X2344989Y1837500D01*
G01X2344989Y1812501D01*
G37*
G36*
G01X1992001Y1807999D02*
G01X2208001Y1807999D01*
G01X2208001Y1591999D01*
G01X1992001Y1591999D01*
G01X1992001Y1807999D01*
G37*
G36*
G01X1939991Y1762503D02*
G01X1854992Y1762503D01*
G01X1854992Y1787502D01*
G01X1939991Y1787502D01*
G01X1939991Y1762503D01*
G37*
G36*
G01X2344989Y1762498D02*
G01X2259990Y1762498D01*
G01X2259990Y1787497D01*
G01X2344989Y1787497D01*
G01X2344989Y1762498D01*
G37*
G36*
G01X1939991Y1712504D02*
G01X1854992Y1712504D01*
G01X1854992Y1737502D01*
G01X1939991Y1737502D01*
G01X1939991Y1712504D01*
G37*
G36*
G01X2344989Y1712498D02*
G01X2259990Y1712498D01*
G01X2259990Y1737497D01*
G01X2344989Y1737497D01*
G01X2344989Y1712498D01*
G37*
G36*
G01X1939991Y1662501D02*
G01X1854992Y1662501D01*
G01X1854992Y1687500D01*
G01X1939991Y1687500D01*
G01X1939991Y1662501D01*
G37*
G36*
G01X2344989Y1662496D02*
G01X2259990Y1662496D01*
G01X2259990Y1687495D01*
G01X2344989Y1687495D01*
G01X2344989Y1662496D01*
G37*
G36*
G01X1939991Y1612499D02*
G01X1854992Y1612499D01*
G01X1854992Y1637497D01*
G01X1939991Y1637497D01*
G01X1939991Y1612499D01*
G37*
G36*
G01X2344989Y1612496D02*
G01X2259990Y1612496D01*
G01X2259990Y1637495D01*
G01X2344989Y1637495D01*
G01X2344989Y1612496D01*
G37*
G36*
G01X1939991Y1562499D02*
G01X1854992Y1562499D01*
G01X1854992Y1587497D01*
G01X1939991Y1587497D01*
G01X1939991Y1562499D01*
G37*
G36*
G01X2344989Y1562494D02*
G01X2259990Y1562494D01*
G01X2259990Y1587492D01*
G01X2344989Y1587492D01*
G01X2344989Y1562494D01*
G37*
G36*
G01X1987489Y1454993D02*
G01X1962490Y1454993D01*
G01X1962490Y1539992D01*
G01X1987489Y1539992D01*
G01X1987489Y1454993D01*
G37*
G36*
G01X2012493Y1539992D02*
G01X2037491Y1539992D01*
G01X2037491Y1454993D01*
G01X2012493Y1454993D01*
G01X2012493Y1539992D01*
G37*
G36*
G01X2062495Y1539992D02*
G01X2087494Y1539992D01*
G01X2087494Y1454993D01*
G01X2062495Y1454993D01*
G01X2062495Y1539992D01*
G37*
G36*
G01X2237501Y1454993D02*
G01X2212503Y1454993D01*
G01X2212503Y1539992D01*
G01X2237501Y1539992D01*
G01X2237501Y1454993D01*
G37*
G36*
G01X2112498Y1539992D02*
G01X2137496Y1539992D01*
G01X2137496Y1454993D01*
G01X2112498Y1454993D01*
G01X2112498Y1539992D01*
G37*
G36*
G01X2162500Y1539992D02*
G01X2187499Y1539992D01*
G01X2187499Y1454993D01*
G01X2162500Y1454993D01*
G01X2162500Y1539992D01*
G37*
G36*
G01X4258432Y8176961D02*
G01X4263431Y8171960D01*
G01X4263431Y8091960D01*
G01X4258432Y8086961D01*
G01X4178432Y8086961D01*
G01X4173431Y8091960D01*
G01X4173431Y8116164D01*
G01X4210431Y8116164D01*
G01X4210431Y8149163D01*
G01X4173431Y8149163D01*
G01X4173431Y8171960D01*
G01X4178432Y8176961D01*
G01X4258432Y8176961D01*
G37*
G36*
G01X4019428Y8086964D02*
G01X4014429Y8091965D01*
G01X4014429Y8171965D01*
G01X4019428Y8176964D01*
G01X4099428Y8176964D01*
G01X4104429Y8171965D01*
G01X4104429Y8147761D01*
G01X4067429Y8147761D01*
G01X4067429Y8114762D01*
G01X4104429Y8114762D01*
G01X4104429Y8091965D01*
G01X4099428Y8086964D01*
G01X4019428Y8086964D01*
G37*
G36*
G01X3315094Y4657682D02*
G01X3315094Y4785680D01*
G01X3320095Y4790681D01*
G01X3435096Y4790681D01*
G01X3440095Y4785680D01*
G01X3440598Y4744677D01*
G01X3395596Y4744677D01*
G01X3395596Y4699678D01*
G01X3439597Y4699678D01*
G01X3440095Y4657682D01*
G01X3435096Y4652681D01*
G01X3320095Y4652681D01*
G01X3315094Y4657682D01*
G37*
G36*
G01X3656089Y4785683D02*
G01X3656089Y4657684D01*
G01X3651087Y4652683D01*
G01X3536086Y4652683D01*
G01X3531088Y4657684D01*
G01X3530585Y4698688D01*
G01X3575586Y4698688D01*
G01X3575586Y4743686D01*
G01X3531586Y4743686D01*
G01X3531088Y4785683D01*
G01X3536086Y4790684D01*
G01X3651087Y4790684D01*
G01X3656089Y4785683D01*
G37*
G36*
G01X2000799Y5328798D02*
G01X1995797Y5323799D01*
G01X1915798Y5323799D01*
G01X1910799Y5328798D01*
G01X1910799Y5408798D01*
G01X1915798Y5413799D01*
G01X1940001Y5413799D01*
G01X1940001Y5376799D01*
G01X1973001Y5376799D01*
G01X1973001Y5413799D01*
G01X1995797Y5413799D01*
G01X2000799Y5408798D01*
G01X2000799Y5328798D01*
G37*
G36*
G01X1910801Y5567802D02*
G01X1915803Y5572801D01*
G01X1995802Y5572801D01*
G01X2000801Y5567802D01*
G01X2000801Y5487802D01*
G01X1995802Y5482801D01*
G01X1971599Y5482801D01*
G01X1971599Y5519801D01*
G01X1938599Y5519801D01*
G01X1938599Y5482801D01*
G01X1915803Y5482801D01*
G01X1910801Y5487802D01*
G01X1910801Y5567802D01*
G37*
G36*
G01X1431155Y3758070D02*
G01X1303157Y3758070D01*
G01X1298156Y3763071D01*
G01X1298156Y3878072D01*
G01X1303157Y3883071D01*
G01X1344160Y3883574D01*
G01X1344160Y3838572D01*
G01X1389159Y3838572D01*
G01X1389159Y3882573D01*
G01X1431155Y3883071D01*
G01X1436157Y3878072D01*
G01X1436157Y3763071D01*
G01X1431155Y3758070D01*
G37*
G36*
G01X1303155Y4099065D02*
G01X1431153Y4099065D01*
G01X1436154Y4094063D01*
G01X1436154Y3979062D01*
G01X1431153Y3974064D01*
G01X1390150Y3973561D01*
G01X1390150Y4018562D01*
G01X1345151Y4018562D01*
G01X1345151Y3974562D01*
G01X1303155Y3974064D01*
G01X1298153Y3979062D01*
G01X1298153Y4094063D01*
G01X1303155Y4099065D01*
G37*
G36*
G01X1671772Y6608613D02*
G01X1676771Y6603611D01*
G01X1676771Y6523612D01*
G01X1671772Y6518613D01*
G01X1591772Y6518613D01*
G01X1586771Y6523612D01*
G01X1586771Y6547815D01*
G01X1623771Y6547815D01*
G01X1623771Y6580815D01*
G01X1586771Y6580815D01*
G01X1586771Y6603611D01*
G01X1591772Y6608613D01*
G01X1671772Y6608613D01*
G37*
G36*
G01X1432768Y6518615D02*
G01X1427770Y6523617D01*
G01X1427770Y6603616D01*
G01X1432768Y6608615D01*
G01X1512768Y6608615D01*
G01X1517769Y6603616D01*
G01X1517769Y6579413D01*
G01X1480769Y6579413D01*
G01X1480769Y6546413D01*
G01X1517769Y6546413D01*
G01X1517769Y6523617D01*
G01X1512768Y6518615D01*
G01X1432768Y6518615D01*
G37*
G36*
G01X3315094Y3322277D02*
G01X3315094Y3450275D01*
G01X3320095Y3455276D01*
G01X3435096Y3455276D01*
G01X3440095Y3450275D01*
G01X3440598Y3409272D01*
G01X3395596Y3409272D01*
G01X3395596Y3364273D01*
G01X3439597Y3364273D01*
G01X3440095Y3322277D01*
G01X3435096Y3317276D01*
G01X3320095Y3317276D01*
G01X3315094Y3322277D01*
G37*
G36*
G01X3656089Y3450278D02*
G01X3656089Y3322279D01*
G01X3651087Y3317278D01*
G01X3536086Y3317278D01*
G01X3531088Y3322279D01*
G01X3530585Y3363283D01*
G01X3575586Y3363283D01*
G01X3575586Y3408281D01*
G01X3531586Y3408281D01*
G01X3531088Y3450278D01*
G01X3536086Y3455279D01*
G01X3651087Y3455279D01*
G01X3656089Y3450278D01*
G37*
G36*
G01X3774956Y4378150D02*
G01X3902954Y4378150D01*
G01X3907955Y4373148D01*
G01X3907955Y4258147D01*
G01X3902954Y4253149D01*
G01X3861951Y4252646D01*
G01X3861951Y4297647D01*
G01X3816952Y4297647D01*
G01X3816952Y4253647D01*
G01X3774956Y4253149D01*
G01X3769954Y4258147D01*
G01X3769954Y4373148D01*
G01X3774956Y4378150D01*
G37*
G36*
G01X3902956Y4037155D02*
G01X3774958Y4037155D01*
G01X3769957Y4042156D01*
G01X3769957Y4157157D01*
G01X3774958Y4162156D01*
G01X3815961Y4162659D01*
G01X3815961Y4117658D01*
G01X3860960Y4117658D01*
G01X3860960Y4161658D01*
G01X3902956Y4162156D01*
G01X3907958Y4157157D01*
G01X3907958Y4042156D01*
G01X3902956Y4037155D01*
G37*
G36*
G01X2480323Y1561092D02*
G01X2480323Y1689090D01*
G01X2485324Y1694091D01*
G01X2600325Y1694091D01*
G01X2605324Y1689090D01*
G01X2605827Y1648087D01*
G01X2560825Y1648087D01*
G01X2560825Y1603088D01*
G01X2604826Y1603088D01*
G01X2605324Y1561092D01*
G01X2600325Y1556090D01*
G01X2485324Y1556090D01*
G01X2480323Y1561092D01*
G37*
G36*
G01X2821318Y1689092D02*
G01X2821318Y1561094D01*
G01X2816316Y1556093D01*
G01X2701315Y1556093D01*
G01X2696317Y1561094D01*
G01X2695814Y1602097D01*
G01X2740815Y1602097D01*
G01X2740815Y1647096D01*
G01X2696815Y1647096D01*
G01X2696317Y1689092D01*
G01X2701315Y1694094D01*
G01X2816316Y1694094D01*
G01X2821318Y1689092D01*
G37*
G36*
G01X4055232Y7521514D02*
G01X4060231Y7516513D01*
G01X4060231Y7436513D01*
G01X4055232Y7431514D01*
G01X3975232Y7431514D01*
G01X3970231Y7436513D01*
G01X3970231Y7460717D01*
G01X4007231Y7460717D01*
G01X4007231Y7493716D01*
G01X3970231Y7493716D01*
G01X3970231Y7516513D01*
G01X3975232Y7521514D01*
G01X4055232Y7521514D01*
G37*
G36*
G01X3816228Y7431517D02*
G01X3811229Y7436518D01*
G01X3811229Y7516518D01*
G01X3816228Y7521517D01*
G01X3896228Y7521517D01*
G01X3901229Y7516518D01*
G01X3901229Y7492314D01*
G01X3864229Y7492314D01*
G01X3864229Y7459315D01*
G01X3901229Y7459315D01*
G01X3901229Y7436518D01*
G01X3896228Y7431517D01*
G01X3816228Y7431517D01*
G37*
G36*
G01X1671772Y6158525D02*
G01X1676771Y6153523D01*
G01X1676771Y6073524D01*
G01X1671772Y6068525D01*
G01X1591772Y6068525D01*
G01X1586771Y6073524D01*
G01X1586771Y6097727D01*
G01X1623771Y6097727D01*
G01X1623771Y6130727D01*
G01X1586771Y6130727D01*
G01X1586771Y6153523D01*
G01X1591772Y6158525D01*
G01X1671772Y6158525D01*
G37*
G36*
G01X1432768Y6068527D02*
G01X1427770Y6073529D01*
G01X1427770Y6153528D01*
G01X1432768Y6158527D01*
G01X1512768Y6158527D01*
G01X1517769Y6153528D01*
G01X1517769Y6129325D01*
G01X1480769Y6129325D01*
G01X1480769Y6096325D01*
G01X1517769Y6096325D01*
G01X1517769Y6073529D01*
G01X1512768Y6068527D01*
G01X1432768Y6068527D01*
G37*
G36*
G01X1215169Y3261665D02*
G01X1343167Y3261665D01*
G01X1348169Y3256664D01*
G01X1348169Y3141663D01*
G01X1343167Y3136664D01*
G01X1302164Y3136161D01*
G01X1302164Y3181162D01*
G01X1257165Y3181162D01*
G01X1257165Y3137162D01*
G01X1215169Y3136664D01*
G01X1210168Y3141663D01*
G01X1210168Y3256664D01*
G01X1215169Y3261665D01*
G37*
G36*
G01X1215169Y3046664D02*
G01X1257165Y3046661D01*
G01X1257165Y3002163D01*
G01X1302164Y3002163D01*
G01X1302164Y3046161D01*
G01X1343167Y3046664D01*
G01X1348169Y3041663D01*
G01X1348169Y2926664D01*
G01X1343167Y2921663D01*
G01X1215169Y2921663D01*
G01X1210168Y2926664D01*
G01X1210168Y3041663D01*
G01X1215169Y3046664D01*
G37*
G36*
G01X4055232Y6866067D02*
G01X4060231Y6861066D01*
G01X4060231Y6781066D01*
G01X4055232Y6776067D01*
G01X3975232Y6776067D01*
G01X3970231Y6781066D01*
G01X3970231Y6805270D01*
G01X4007231Y6805270D01*
G01X4007231Y6838269D01*
G01X3970231Y6838269D01*
G01X3970231Y6861066D01*
G01X3975232Y6866067D01*
G01X4055232Y6866067D01*
G37*
G36*
G01X3816228Y6776070D02*
G01X3811229Y6781071D01*
G01X3811229Y6861071D01*
G01X3816228Y6866070D01*
G01X3896228Y6866070D01*
G01X3901229Y6861071D01*
G01X3901229Y6836867D01*
G01X3864229Y6836867D01*
G01X3864229Y6803868D01*
G01X3901229Y6803868D01*
G01X3901229Y6781071D01*
G01X3896228Y6776070D01*
G01X3816228Y6776070D01*
G37*
G36*
G01X2097156Y5112316D02*
G01X2092157Y5117318D01*
G01X2092157Y5197318D01*
G01X2097156Y5202316D01*
G01X2177156Y5202316D01*
G01X2182157Y5197318D01*
G01X2182157Y5173114D01*
G01X2145157Y5173114D01*
G01X2145157Y5140114D01*
G01X2182157Y5140114D01*
G01X2182157Y5117318D01*
G01X2177156Y5112316D01*
G01X2097156Y5112316D01*
G37*
G36*
G01X2336160Y5202314D02*
G01X2341159Y5197312D01*
G01X2341159Y5117313D01*
G01X2336160Y5112314D01*
G01X2256160Y5112314D01*
G01X2251159Y5117313D01*
G01X2251159Y5141516D01*
G01X2288159Y5141516D01*
G01X2288159Y5174516D01*
G01X2251159Y5174516D01*
G01X2251159Y5197312D01*
G01X2256160Y5202314D01*
G01X2336160Y5202314D01*
G37*
G36*
G01X4461632Y5992155D02*
G01X4466631Y5987153D01*
G01X4466631Y5907154D01*
G01X4461632Y5902155D01*
G01X4381632Y5902155D01*
G01X4376631Y5907154D01*
G01X4376631Y5931357D01*
G01X4413631Y5931357D01*
G01X4413631Y5964357D01*
G01X4376631Y5964357D01*
G01X4376631Y5987153D01*
G01X4381632Y5992155D01*
G01X4461632Y5992155D01*
G37*
G36*
G01X4222628Y5902157D02*
G01X4217629Y5907159D01*
G01X4217629Y5987158D01*
G01X4222628Y5992157D01*
G01X4302628Y5992157D01*
G01X4307629Y5987158D01*
G01X4307629Y5962955D01*
G01X4270629Y5962955D01*
G01X4270629Y5929955D01*
G01X4307629Y5929955D01*
G01X4307629Y5907159D01*
G01X4302628Y5902157D01*
G01X4222628Y5902157D01*
G37*
G36*
G01X2859156Y4805863D02*
G01X2854157Y4810864D01*
G01X2854157Y4890864D01*
G01X2859156Y4895863D01*
G01X2939156Y4895863D01*
G01X2944157Y4890864D01*
G01X2944157Y4866660D01*
G01X2907157Y4866660D01*
G01X2907157Y4833661D01*
G01X2944157Y4833661D01*
G01X2944157Y4810864D01*
G01X2939156Y4805863D01*
G01X2859156Y4805863D01*
G37*
G36*
G01X3098160Y4895860D02*
G01X3103159Y4890859D01*
G01X3103159Y4810859D01*
G01X3098160Y4805860D01*
G01X3018160Y4805860D01*
G01X3013159Y4810859D01*
G01X3013159Y4835063D01*
G01X3050159Y4835063D01*
G01X3050159Y4868062D01*
G01X3013159Y4868062D01*
G01X3013159Y4890859D01*
G01X3018160Y4895860D01*
G01X3098160Y4895860D01*
G37*

G04 Pad Start*
G54D10*
G01X1038667Y5766537D03*
G01X1178672Y5766537D03*
G54D11*
G01X3017266Y1688605D03*
G01X3017266Y1828610D03*
G54D10*
G01X3401695Y5542656D03*
G01X3261690Y5542656D03*
G01X1651127Y2088954D03*
G01X1791132Y2088954D03*
G54D12*
G01X1035002Y3416003D03*
G01X1164999Y3416003D03*
G01X1100000Y3583998D03*
G54D10*
G01X422750Y5210124D03*
G01X562755Y5210124D03*
G54D13*
G01X5285001Y1330000D03*
G01X5285001Y1669999D03*
G54D14*
G01X744995Y2262510D03*
G01X744995Y2137517D03*
G54D15*
G01X455003Y1882501D03*
G01X455003Y2517501D03*
G54D16*
G01X1439418Y2302561D03*
G01X1680413Y2302561D03*
G54D11*
G01X3001797Y2268550D03*
G01X3001797Y2128545D03*
G54D14*
G01X744995Y1262510D03*
G01X744995Y1137516D03*
G54D15*
G01X455003Y882500D03*
G01X455003Y1517500D03*
G54D17*
G01X210000Y4772299D03*
G01X210000Y4722312D03*
G01X210000Y4672300D03*
G01X210000Y4622312D03*
G01X210000Y3622314D03*
G01X210000Y3672302D03*
G01X210000Y3722289D03*
G01X210000Y3772301D03*
G01X210000Y3822314D03*
G01X210000Y3872301D03*
G54D18*
G01X445000Y4939990D03*
G01X445000Y3460008D03*
G54D17*
G01X210000Y3922314D03*
G01X210000Y4022314D03*
G01X210000Y4072326D03*
G01X210000Y3972326D03*
G01X210000Y4122313D03*
G01X210000Y4172301D03*
G01X210000Y4222313D03*
G01X210000Y4272300D03*
G01X210000Y4322313D03*
G01X210000Y4372300D03*
G01X210000Y4422313D03*
G01X210000Y4472300D03*
G01X210000Y4522313D03*
G01X210000Y4572300D03*
G54D20*
G01X1899590Y3784610D03*
G01X1899590Y4131605D03*
G54D10*
G01X1295527Y2063521D03*
G01X1435532Y2063521D03*
G01X1713306Y4804918D03*
G01X1573301Y4804918D03*
G54D21*
G01X2856154Y811733D03*
G01X2632634Y811733D03*
G54D22*
G01X508406Y5935218D03*
G01X828396Y5935218D03*
G54D20*
G01X2162454Y3784610D03*
G01X2162454Y4131605D03*
G54D23*
G01X3052900Y5448300D03*
G01X2712900Y5448300D03*
G54D10*
G01X2668549Y1877898D03*
G01X2528545Y1877898D03*
G54D13*
G01X5285001Y4030000D03*
G01X5285001Y4369999D03*
G54D24*
G01X2854990Y3143415D03*
G01X2854990Y3193428D03*
G01X2854990Y3243390D03*
G01X2854990Y3293402D03*
G54D25*
G01X2949986Y3301632D03*
G54D26*
G01X2999999Y3281642D03*
G54D25*
G01X3049986Y3301632D03*
G54D24*
G01X3145008Y3293402D03*
G01X3145008Y3243390D03*
G01X3145008Y3193377D03*
G01X3145008Y3143390D03*
G54D27*
G01X3075005Y3098381D03*
G01X3024993Y3098381D03*
G01X2974980Y3098381D03*
G01X2924993Y3098381D03*
G54D10*
G01X3503295Y4974488D03*
G01X3363290Y4974488D03*
G54D11*
G01X3990162Y3205495D03*
G01X3990162Y3345500D03*
G54D28*
G01X4439991Y1635003D03*
G54D29*
G01X4674992Y124998D03*
G54D30*
G01X3325007Y170007D03*
G54D31*
G01X3325007Y584992D03*
G54D28*
G01X3325007Y1205006D03*
G54D32*
G01X3420003Y1635003D03*
G01X3514999Y1635003D03*
G01X3625007Y1635003D03*
G01X3734989Y1635003D03*
G01X3844996Y1635003D03*
G01X3955004Y1635003D03*
G01X4065011Y1635003D03*
G01X4174993Y1635003D03*
G01X4285000Y1635003D03*
G54D33*
G01X1874995Y7539495D03*
G01X1874995Y7412495D03*
G01X1874995Y7285495D03*
G01X1874995Y7158495D03*
G01X1874995Y7031495D03*
G01X1874995Y6904495D03*
G01X1874995Y6777495D03*
G01X1874995Y6650495D03*
G01X1874995Y6523495D03*
G01X1874995Y6396495D03*
G01X1874995Y6269495D03*
G01X1874995Y6142495D03*
G01X1874995Y6015495D03*
G01X1874995Y5888495D03*
G54D34*
G01X2051500Y5760504D03*
G01X2178500Y5760504D03*
G01X2305500Y5760504D03*
G01X2432500Y5760504D03*
G01X2559500Y5760504D03*
G01X2686500Y5760504D03*
G01X2813500Y5760504D03*
G01X2940500Y5760504D03*
G01X3067500Y5760504D03*
G01X3194500Y5760504D03*
G01X3321500Y5760504D03*
G01X3448500Y5763501D03*
G54D33*
G01X3625004Y5888495D03*
G01X3625004Y6015495D03*
G01X3625004Y6142495D03*
G01X3625004Y6269495D03*
G01X3625004Y6396495D03*
G01X3625004Y6523495D03*
G01X3625004Y6650495D03*
G01X3625004Y6777495D03*
G01X3625004Y6904495D03*
G01X3625004Y7031495D03*
G01X3625004Y7158495D03*
G01X3625004Y7285495D03*
G01X3625004Y7412495D03*
G01X3625004Y7539495D03*
G54D35*
G01X2739992Y6627482D03*
G01X2599987Y6627482D03*
G01X2459982Y6627482D03*
G01X2459982Y6907492D03*
G01X2599987Y6907492D03*
G01X2739992Y6907492D03*
G01X2739992Y6767487D03*
G01X2459982Y6767487D03*
G01X2599987Y6767487D03*
G54D11*
G01X4292575Y3354248D03*
G01X4292575Y3494253D03*
G54D36*
G01X1335001Y4994996D03*
G01X1335001Y4900000D03*
G01X1335001Y4805004D03*
G01X1064999Y4805004D03*
G01X1064999Y4900000D03*
G01X1064999Y4994996D03*
G54D21*
G01X1649146Y5888482D03*
G01X1425626Y5888482D03*
G54D13*
G01X5285001Y6729999D03*
G01X5285001Y7069999D03*
G54D37*
G01X4258000Y2615004D03*
G01X4298010Y2615004D03*
G01X4337985Y2615004D03*
G01X4377995Y2615004D03*
G54D38*
G01X4393004Y2559987D03*
G01X4393004Y2520013D03*
G54D37*
G01X4377995Y2464996D03*
G01X4337985Y2464996D03*
G01X4298010Y2464996D03*
G01X4258000Y2464996D03*
G54D38*
G01X4242994Y2520013D03*
G01X4242994Y2559987D03*
G54D21*
G01X1649146Y6338570D03*
G01X1425626Y6338570D03*
G54D39*
G01X2238362Y4619320D03*
G01X2628379Y4619320D03*
G54D23*
G01X2506800Y5448300D03*
G01X2166800Y5448300D03*
G54D10*
G01X1476705Y7285482D03*
G01X1616710Y7285482D03*
G54D11*
G01X3024886Y2693340D03*
G01X3024886Y2833345D03*
G54D40*
G01X1274994Y1706248D03*
G01X1325006Y1706248D03*
G01X1374993Y1706248D03*
G01X1425006Y1706248D03*
G01X1425006Y1893750D03*
G01X1374993Y1893750D03*
G01X1325006Y1893750D03*
G01X1274994Y1893750D03*
G54D41*
G01X1350000Y1799999D03*
G54D21*
G01X3110154Y1020077D03*
G01X2886634Y1020077D03*
G54D10*
G01X3808095Y5480101D03*
G01X3668090Y5480101D03*
G54D42*
G01X4627161Y4103726D03*
G01X4627161Y3698138D03*
G54D20*
G01X2424557Y4131605D03*
G01X2424557Y3784610D03*
G04 Pad End*

M02*

